<?xml version="1.0" encoding="UTF-8"?><svg id="_레이어_1" xmlns="http://www.w3.org/2000/svg" viewBox="0 0 500 500"><defs><style>.cls-1{fill:#4c559f;}.cls-2{fill:#e8bb92;}.cls-3{fill:#d8a176;}.cls-4{fill:none;}.cls-5{fill:#86796d;}.cls-6{fill:#b78926;}.cls-7{fill:#334083;}.cls-8{fill:#d07a5f;}.cls-9{fill:#f7ecc6;}.cls-10{fill:#d98b55;}.cls-11{fill:#582552;}.cls-12{fill:#5764aa;}.cls-13{fill:#9f4938;}.cls-14{fill:#ebc697;}.cls-15{fill:#493e22;}.cls-16{fill:#504036;}.cls-17{fill:#e9d9ac;}</style></defs><rect class="cls-4" width="500" height="500"/><path class="cls-16" d="M296.03,81.71c-2.49-.14-7.55,1.1-7.55,1.1,0,0-4.63,2.86-3.94,5.8,1.05,4.51,4.92,5.85,8.27,6.78,2.93.81,6.63-.35,9.3-1.98,2.39-1.46,3.01-2.49,3.28-4.64.15-1.19-.36-.46-2.57-3.76l-6.79-3.3Z"/><path class="cls-16" d="M322.13,57.26c-.84,1.41-4.46,7.6-5.48,9.3-1.65,2.76-3.24,5.56-4.97,8.28-2,3.15-9.49,12.89-9.49,12.89,0,0,2.22,1.09,3.09,2.16-.05-.89,2.5-3.77,3.07-4.57,4.52-6.38,9.47-12.34,12.54-19.63.24-.57,3.95-6.62,3.95-6.62l-2.72-1.81Z"/><path class="cls-16" d="M394,107.98c-1.99,1.45-5.06,5.54-5.06,5.54,0,0-1.73,5.03.66,6.81,3.64,2.72,7.44,1.31,10.58-.09,2.75-1.22,4.83-4.4,5.84-7.3.9-2.59.72-3.74-.42-5.52-.63-.99-.56-.12-4.33-1.21l-7.26,1.77Z"/><path class="cls-16" d="M399.15,61.27c.22,2.25.98,11.14,1.23,13.86.42,4.41.75,8.84,1.28,13.25.61,5.11,3.99,21.7,3.99,21.7,0,0-3.1,0-4.67.8.52-1.07-.86-6.18-1.08-7.52-1.77-10.63-4.26-21.02-3.9-31.88.03-.84-1-10.59-1-10.59l4.14.38Z"/><path class="cls-16" d="M394.78,58.56c1.55.42,9.9,5.52,11.49,6.71,3.15,2.36,4.57,4.33,7.27,7.08,2.25,2.29,3.82,4.66,4.94,7.41,2.6,6.36.46,16.33-4.4,18.68,1.78-4.16,2.25-10.86,1.76-12.28-.87-2.51-1.13-2.69-2.75-4.95-1.81-2.51-3.11-4.42-5.85-6.69-1.27-1.05-4.22-2.94-5.9-3.68-1.29-.57-3.98-1.47-5.55-1.29l-1.02-10.99Z"/><path class="cls-16" d="M313.96,146.87c-2.13,1.07-5.73,4.52-5.73,4.52,0,0-2.47,4.58-.49,6.69,3.02,3.23,6.87,2.5,10.09,1.66,2.81-.73,5.32-3.46,6.76-6.09,1.28-2.36,1.3-3.5.5-5.41-.44-1.06-.52-.21-3.93-1.89l-7.21.51Z"/><path class="cls-16" d="M324.06,109.33c-.03,1.78-.11,9.58-.14,11.74-.06,3.49-.06,7-.2,10.5-.17,4.05-1.77,17.31-1.77,17.31,0,0,2.36-.19,3.59.34-.46-.81.29-4.91.38-5.98.73-8.47,2.02-16.79,1.11-25.31-.07-.66.14-8.39.14-8.39l-3.12-.21Z"/><path class="cls-16" d="M342.8,141.25c-2.14,1.07-5.73,4.52-5.73,4.52,0,0-2.47,4.58-.49,6.69,3.02,3.23,6.87,2.5,10.09,1.66,2.81-.73,5.32-3.46,6.76-6.09,1.28-2.36,1.3-3.5.5-5.41-.44-1.06-.52-.21-3.93-1.89l-7.21.51Z"/><path class="cls-16" d="M352.85,105c-.03,1.78-.11,9.58-.14,11.74-.06,3.49-.06,7-.2,10.5-.17,4.05-1.77,17.31-1.77,17.31,0,0,2.36-.19,3.59.34-.46-.81.29-4.91.38-5.98.73-8.47.93-16.74,1.11-25.31.02-.95.02-9.41.02-9.41l-2.99.82Z"/><path class="cls-16" d="M324.07,107.73l3.28-.94s4.66-1,6.83-1.8c2.94-1.08,9.41-2.55,9.41-2.55l5.91-.99s6.35-1,6.35-.55,0,3.19,0,4.85c0,1.61,0,4.68,0,4.68,0,0-1.32.01-2.4.35-1.48.46-3.68,1.08-5.19,1.39-1.56.32-9.33,2.71-9.33,2.71l-8.71,1.76-6.24.78.11-9.7Z"/><path class="cls-6" d="M284.16,487.08c1.1.73,2.24,1.43,3.49,1.86.44.15.9.27,1.37.3,1.08.08,2.19-.3,3-1.03-3.59-2.78-7.25-5.48-10.95-8.11-.23-.16-.46-.33-.74-.37-.32-.05-.64.07-.95.18-.62.24-2.43.57-2.47,1.34-.03.66,1.68,1.69,2.14,2.07,1.64,1.34,3.34,2.59,5.1,3.76Z"/><path class="cls-14" d="M186.22,437.72c-15.29,1.65-31.54,1.41-44.84,4.83-6.44,1.65-17.48,10.87-17.48,10.87,0,0-8.14,11.28-9.49,17.83-3.37,16.24,24.21,10.84,24.21,10.84,0,0,12.17-5.46,18.53-7.52,7.1-2.3,21.76-5.11,21.76-5.11,0,0,16.44-3.26,23.23-7.78,5.32-3.55,10.8-6.8,10.8-6.8l-26.71-17.15Z"/><path class="cls-6" d="M111.18,478.4l3.7.77s3.22-12.99,6.2-18.6c1.29-2.43,8.08-14.78,2.72-10.64-10.39,8.03-12.62,28.47-12.62,28.47Z"/><path class="cls-6" d="M132.04,476.27c.24-1.1.47-2.3-.05-3.3-.57-1.12-1.87-1.62-3.05-2.03-3.27-1.13-6.53-2.35-9.83-3.4-1.83-.58-2.61-1.28-3.35.77-.35.97-.09,1.91.44,2.74,1.22,1.92,15.52,6.7,15.84,5.22Z"/><path class="cls-6" d="M136.97,466.14c.08-1.03.16-2.05.24-3.08.02-.23.03-.48-.09-.68-.11-.17-.31-.27-.49-.36-3.49-1.64-6.98-3.28-10.47-4.92-1.51-.71-3.05-1.43-4.71-1.66-.61-.08-.96,3.53-.62,4.1.66,1.08,3.62,2,4.74,2.53,3.65,1.74,7.47,3.1,11.4,4.07Z"/><path class="cls-6" d="M128.47,484.11l3.7.77s3.22-12.99,6.2-18.6c1.29-2.43,8.08-14.78,2.72-10.64-10.39,8.03-12.62,28.47-12.62,28.47Z"/><path class="cls-9" d="M193.06,434.44c19.97-8.42,51.33-36.04,51.33-36.04,0,0,22.11-12.38,36.04-22.39,17.47-12.56,29.39-21.42,48.05-28.39,19.6-7.33,37.68,2.18,37.68,2.18,0,0,21.84,10.92,21.3,36.04-.32,14.5-9.28,34.4-9.28,34.4,0,0-12.01,16.93-32.22,25.66-11.65,5.04-18.97,9.2-30.58,13.65-26.7,10.25-58.5,14.88-86.26,22.42-3.26.89-9.79,2.59-9.79,2.59l-26.26-50.13Z"/><path class="cls-2" d="M410.68,181.18c6.38-11.7,9.15-21.15,17.96-28.33,4.89,0,4.24,9.46,4.24,9.46,0,0-4.16,10.61-5.87,14.03,7.55-.4,10.13.57,16.64-3.26,4.16-2.45,13.05-8.81,13.05-8.81,0,0,5.55-5.22,9.14-3.59,3.18,4.65-14.36,20.23-14.36,20.23,0,0,5.4-2.35,9.14-5.55,4.57-3.92,7.76-8.07,12.07-10.44,4.57,0,2.95,5.61,1.31,8.16-3.43,5.3-15.66,17.95-15.66,17.95,0,0,17.85-18.14,20.56-14.68,3.59,4.57-12.89,19.09-16.32,21.37,3.75-1.96,12.4-10.61,16.97-8.32,5.22,6.85-31.98,26.11-31.98,26.11,0,0-19.89,6.07-35.16,12.72-.69.3-1.44.6-2.16.42-.98-.25-1.52-1.28-1.94-2.2-2.69-5.94-13.07-21.34-11.24-27.61.7-2.42,7.63-7.3,7.63-7.3,0,0,4.09-6.89,5.99-10.35Z"/><path class="cls-17" d="M162.71,322.94c-2.45,5.14-5.05,10.34-9.42,14.13-4.56,3.95-10.28,5.72-15.97,7.36-4.5,1.3-10.93,2.52-13.05,7.33-2.69,6.11,2.56,14.04,5.75,18.86,10.38,15.65,25.6,29.9,43.01,37.29,12.11,5.14,26.15,10.03,39.18,11.99,11.48,1.72,19.01-4.59,28.28-10.24,12.2-7.44,25.12-13.46,36.59-22.07,9.07-6.81,18.1-14.33,26.07-22.42,6.17-6.26,2.63-15.98,1.31-25.17-1.29-8.95.97-18.81-6.78-23.82-4.55-2.95-10.32-2.94-15.55-3.03-10.02-.17-20.06.1-30.08.17l-89.35,9.62Z"/><path class="cls-11" d="M245.13,167.57c15.18-1.91,30.02,6.45,42.25,17.16,12.23,10.72,14.5,3.94,27.04,14.16,4.39,3.58,21.41,18.33,26.76,15.57,24.15-12.46,41.71-18.34,62.17-29.12,2.2-1.16,11.95,12.04,13.22,14.95,8.28,19.03,16.14,25.4,13.71,30.83-8.81,19.62-42.22,70.75-72.71,71.36-15.48.31-38.57-7.04-52.28-18.88,4.22,23.67,2.98,44.11,10.44,66.65-16.17,13.29-21.52,22.43-41.12,25.23-22.89,3.27-54.28,2.1-77.34,1.87-18.82-.19-84.45-18.53-84.19-22.43,3.06-45.68,5.42-75.46,8.48-121.14,1.31-19.5,3.57-41.24,16.49-53.6,8.42-8.06,19.74-10.33,30.53-11.78,30.01-4.05,60.43-4,90.43.15"/><path class="cls-8" d="M179.4,150.83c-1.17,1.77.4,7.39.56,9.53.22,2.84-.58,5.84,1.45,7.95,2.03,2.11,4.28,3.21,6.12,5.78,1.39,1.93,2.42,3.97,4.07,5.66,1.09,1.12,2.31,1.84,3.21,3.15,7.04,10.2,15.5,19.54,21.45,30.14,1.89-5.39,2.97-10.91,5.34-16.29,3.12-7.08,5.06-15.12,6.36-22.76.87-5.1,1.64-11.22.39-16.25-.64-2.59-2.11-5.05-3.23-7.44-1.09-2.31-1.81-5.42-3.43-7.07.3.63,1.13.85.66.49l-42.96,7.1Z"/><path class="cls-11" d="M329.19,219.89l-14.17-19.91s-16.1-16.92-30.34-25.82c-4.57-2.85-23.02-9.75-23.02-9.75l-17.12-6.46-11.3-2.72s-4.9,10.55-6.29,15.14c-1.81,5.98-11.09,38.95-20.92,25.68-3.98-5.37-6.25-14.23-9.06-20.24-2.86-6.1-6.31-15.68-10.09-21.25l-2.79-2.56c-1.45-.28-1.6-1.71-3.02-.92-1.62.9-3.05,1.5-4.56,2.63-2.45,1.83-11.92,9.71-11.92,9.71,0,0-20.82,10.98-29.6,16.55-10.87,6.88-23.59,22.17-23.59,22.17,0,0-14.19,17.34-21.06,41.91-4.42,15.78-5.53,27.72-5.53,27.72l64.64,6.14,98.03-3.92,61.43-2.61,27.42-2.26c3.28-9.85-7.16-49.21-7.16-49.21Z"/><path class="cls-9" d="M168.41,158.41s7.38,11.79,8.95,15.74c1.62,4.07,5.87,11.99,5.87,11.99,0,0,5.72,9.83,7.22,13.6,1.38,3.46,10.13,18.56,10.13,18.56l13.65,17.75,13.38-31.33s9.09-19.89,13.15-30.58c.64-1.69,7.08-15.76,7.08-15.76l-16.02-6.41-3.34,8.35s-4.82,10.04-5.75,12.03c-3.89,8.25-13.25,25.37-13.25,25.37,0,0-5.61-10.22-7.62-14.25-2.36-4.75-7.67-13.96-7.67-13.96l-5.09-12.4-6.19-8.69-14.51,9.99Z"/><path class="cls-1" d="M263.45,223.88c1.42,0-1.66,17.06-1.66,17.06,0,0-1.5,10.99-3.48,12.97-.78.78-16.77-3.29-16.77-3.29,0,0-8.89-2.08-13.39-3.22-3.45-.87-7.41-.7-8.91-4.15-.87-1.99-.49-4.31-.91-6.38-.44-2.1-1.66-3.88-1.76-6.08,1.42-.29,2.57-1.07,3.99-1.46,3.23-.9,9.97-2.36,9.97-2.36,0,0,29.42-3.1,32.93-3.1Z"/><path class="cls-2" d="M161.81,58.03c-8.09,9.05-16.69,18.49-20.46,30.28-3.48,10.86-1.9,22.14,1.62,32.76,3.85,11.64,14.09,22.21,21.67,33.41,4.55,6.72,12.61,17.87,12.61,17.87,0,0,14.95,5.5,27.55,3.16,8.2-1.52,21.78-7.9,28.57-13.3,4.79-3.81,5.52-15.31,5.52-15.31,0,0,1.52-4.38,2.77-7.42,9.06-22.03,5.89-24.55,5.55-38.1-.32-12.48-1.23-31.01-10.04-40.61-9.81-10.69-25.04-15.28-38.3-19.98l-37.05,17.25Z"/><path class="cls-2" d="M141.98,106.61c-5.37-2.97-15.72,2.4-17.67,7.36-2.07,5.23,4.57,14.36,4.57,14.36,0,0,10.99,10.04,16.72,11.53,4.16,1.08,7.01.4,10.57-1.99.2.38,0,.65-.6.82l-13.59-32.07Z"/><path class="cls-5" d="M132.05,86.03c-3.15.57-2.14-20.89,5.17-29.78,1.82-2.22,11.92-10.37,14.68-12.07,4.24-2.61,10.56-4.6,14.68-5.55-1.92-7.12-9.79-10.77-7.51-17.62,1.57-4.7,4.94-9.42,10.12-10.77,7.51-1.96,13.05,8.48,13.05,8.48l1.31,16.32,18.06-2.67s7.76.46,12.41,1.07c3.28.43,10.69,1.56,12.99,3.63,3.09,2.78,5.53,5.12,7.75,8.45,2.11,3.17,5.01,14.66,5.4,18.37-1.83.54-11.85,2.72-13.7,3.05-3.96.71-7.25-.64-11.26-.21-8.13.86-13.56,1.55-21.57,3.16-8.07,1.63-16.33-3.21-23.43.8,0,0-37.03,15.14-38.18,15.35Z"/><path class="cls-5" d="M137.55,104.06s7.12,20.35,9.56,25.65c1.88-4.32,4.47-14.07,4.47-14.07l3.61-18.85-17.64,7.26Z"/><path class="cls-2" d="M179.15,189.01c.49,9.91-1.09,19.52-7.41,27.16-1.91,2.31-5.91,6.24-8.74,7.23-6.08,2.13-14.6,2.54-19.86-1.17-7.36-5.2-10.65-12.41-10.65-12.41,0,0-1.13-8.14,1.21-13.65,3.81-8.95,9.64-14.8,16.22-21.96,5.53-6.02,18.3-15.39,23.54-21.53,8.63,1.44,5.34,29.36,5.69,36.33Z"/><path class="cls-5" d="M191.75,140.11c.06-.02.18-.06.33-.11,0,0,0,0,0,0l-.34.12Z"/><path class="cls-5" d="M221.74,142.57c-4.77-5.93-8.16-8.48-8.16-8.48,0,0-2.53,1.3-7.75,2.04-.96.14-4.4,1.3-5.14,1.55-3.92,2.16-6.04,10.44-6.04,10.44,0,0,.36.06.65,0,3.86-.84,6.43-1.55,10.28-2.45,5.77-1.35,8.65-1.47,8.65-1.47,0,0,7.8-1.26,7.51-1.63Z"/><path class="cls-10" d="M204.85,112.37l-1.05,12.25-1.14,12.4s4.81.51,8.32.49c3.49-1.52,6.04-5.55,6.04-5.55l-12.16-19.59Z"/><path class="cls-13" d="M219.35,152.43c2.34-1.92,1.41-3.09.92-5.54-2.79-1.65-15.72.76-15.72.76l-10.46,3.56s1.4,4.64,9.29,5.42c4.58.45,12.43-1.3,15.98-4.2Z"/><path class="cls-3" d="M186.48,161.04c.67,1.93,3.74,4.57,3.74,4.57,0,0-2.44-6.22-2.54-11.03-.07-3,.15-6.64.15-6.64,0,0-2.7,1.73-2.69,4.5.01,3.32.93,7.42,1.34,8.6Z"/><path class="cls-3" d="M226.86,147.47c.13,2.94.04,5.9-.27,8.83,1.62-1.79,2.89-7.57,2.72-8.35-1.3-6.02-5.07-10.42-5.07-10.42,0,0,2.47,6.52,2.62,9.95Z"/><path class="cls-5" d="M204.86,165.49c.28-.7,3.18-6.36,3.18-6.36,0,0,4.48-1.22,5.87-1.47.63-.11,4.14,7.19,4.89,8.08,1.9,2.23,6.71.78,9.06-.98,1.96-1.47-2.54,29.06-8.64,45.47-10.33-6.83-23.73-28.34-23.73-28.34l-7.57-12.36s4.92,3.14,7.95,2.11c2.62-.89,7.96-3.58,8.99-6.15Z"/><path class="cls-6" d="M275.91,485.7s18.39.02,22.84-2.61c6.11-3.61,10.85-8.38,12.24-15.34.54-2.72.8-7.99.14-10.68-1.12-4.52-8.92-10.37-8.92-10.37l4.66-1.35s3.03,1.61,4.19,2.88c7.26,7.96,7.16,21.13.83,29.83-6.34,8.71-17.82,12.88-28.53,11.74-3.47-.37-7.44-1.83-7.44-1.83v-2.28Z"/><path class="cls-14" d="M217.46,433.3c7.23,4.37,14.25,5.07,22.56,7.04,8.33,1.97,23.98,2.22,23.98,2.22l29.28-.91s13.85,4.05,17.93,10.53c1.68,2.68,3.13,11.75-1.36,22.26,0,0-10.31,11.22-18.76,12.24-8.36,1.01-17.13-2.1-17.13-2.1,0,0-16.3-4.4-24.61-6.04-8.83-1.74-26.14-6.47-26.14-6.47l-26.71-14.98,20.96-23.78Z"/><path class="cls-7" d="M145.74,312.94c-13.03,34.04-24.13,70.49-49.87,96.29,8.68,5.67,19.42,11.54,28.83,7.19,4.08-1.89,7.1-5.43,9.89-8.95,22.89-28.93,38.51-63.56,45.04-99.86,2.58-14.32,3.79-28.99,8.54-42.74,2.12-6.15,18.75-25.93,17-30.05-3.62-8.51-20.36,10.47-23.59,14.01-16.6,18.19-27.13,41.36-35.84,64.12Z"/><path class="cls-9" d="M103.89,337.57c-25.55-12.55-56.63-1.41-56.63-1.41,0,0-27.3,26.21-27.3,51.33,0,21.76,18.02,34.95,18.02,34.95,0,0,30.58,26.76,104.84,50.78,10.01,3.24,61.16,8.74,61.16,8.74,0,0,11.96-12.63,17.25-17.88,8.02-7.95,12.69-31.75,12.69-31.75,0,0-26.04-14.79-37.55-20.83-14.97-7.85-78.91-64.67-81.25-66.91l-11.23-7.02Z"/><path class="cls-2" d="M98.36,357.72c-1.85,6.55,3.42,10.3,1.66,16.87-1.6,5.97-6.53,21.21-6.53,21.21l-4.17,16.77s-1.51,12.39,1.09,17.35c3.2,6.12,6.88,2.2,7.56-2.84-1.57,2.62-.42,8.37,2.09,10.49,5.21,4.4,6.67-7.07,6.67-7.07,0,0-.12,6.33,1.32,10.05,5.61,1.99,10.62-8.58,10.62-8.58,0,0-5.11,11.2,1.4,11.81,6.35.6,12.24-10.16,12.24-10.16,0,0,3.76-11.37,6.4-16.8,1.11-2.28,2.42-.29,2.42-.29,0,0,2.7,3.68,3.75,4.73,5.22,5.22,11.26,7.18,13.54,3.92.58-2.27-1.79-5.87-3.1-9.14-1.11-2.77-4.79-9-6.2-11.58-1.41-2.58-5.71-9.3-5.71-9.3,0,0-6.3-11.21-9.3-16.32-1.46-2.49.81-3.38-.74-6-.78-1.33-2.86-6.84-3.83-7.88.2.11.4.22.61.32l-31.8-7.55Z"/><path class="cls-11" d="M80.1,365.43c2.26,8.55,12.1,22.29,12.1,22.29,0,0,38.28,2.32,50.25,2.69,0-34.26,5.13-68.03,13.17-101.7,2.41-10.08,4.19-21.5-1.51-30.16-4.45-6.75-12.49-10.17-20.3-12.3-9.69-2.65-37.87-17.87-37.87-17.87,0,0-14.9,39.61-17.13,47.97-8.19,30.62-8.81,50.91,1.28,89.07Z"/><path class="cls-1" d="M175.55,268.5c-5.81,14.17-9.95,44.75-9.95,44.75,0,0-17.83,53-17.47,53.91.3.77,31.04,14.44,31.04,14.44,0,0,6.27-42.4,7.57-65.41,1.3-23.01,4.39-46.73,16.24-66.5,1.31-2.19,2.74-4.37,3.34-6.85,3.98-16.47-10.65-2.68-15.54,2.39-6.47,6.71-11.69,14.64-15.23,23.27Z"/><path class="cls-12" d="M202.85,230c-1.34,3.01-.42,11.05-.42,11.05,0,0,1.25,5.94,1.73,8.29.55,2.72,3.62,2.59,3.62,2.59,0,0,12.67-2.12,15.43-3.62,1.95-1.06-.04-5.22-.04-5.22l-3.37-15.13-8.5-.86-8.44,2.9Z"/><path class="cls-6" d="M259.11,481.13s20.51-.96,24.96-3.59c6.11-3.61,10.85-8.38,12.24-15.34.54-2.72.8-7.99.14-10.68-1.12-4.52-8.92-10.37-8.92-10.37l4.66-1.35s3.03,1.61,4.19,2.88c7.26,7.96,7.16,21.13.83,29.83-6.34,8.71-17.82,12.88-28.53,11.74-3.47-.37-6.95-.85-6.95-.85l-2.61-2.28Z"/><path class="cls-6" d="M301.02,445.53c2.62.03,5.16,1.05,7.57,2.3,1.31.68,2.71,1.57,3.23,3.19-5.02-.74-10.06-1.35-15.1-1.85-.39-.04-.8-.09-1.1-.39-.24-.24-.37-.6-.49-.94-.82-2.28-.61-2.18,1.24-2.11,1.55.06,3.09-.23,4.65-.21Z"/><path class="cls-6" d="M298.44,485.29c.86.35,1.85.6,2.69.21.77-.36,1.25-1.2,2.03-1.55-4.6-2.85-9.35-5.82-12.42-10.34-.45-.66-2.35,1.94-2.13,2.76.32,1.15,2.02,2.62,2.78,3.49,1.99,2.25,4.27,4.3,7.05,5.44Z"/><path class="cls-6" d="M313.82,458.83c1.02.72,2.08,1.89,1.91,3.31-.11.9-.71,1.7-.59,2.6-3.13-3.22-7.5-3.85-11.59-4.33-1.82-.22-3.64-.43-5.46-.65-.19-.02-.39-.05-.53-.21-1.16-1.29-.46-3.31.74-3.74,1.53-.54,3.73-.15,5.31-.07,3.53.17,7.13.9,10.21,3.09Z"/><path class="cls-15" d="M224.8,111.28s6.91-.08,10.4-2.57c2.39-1.71,4.96-6.88,4.96-6.88,0,0-3.8,2.02-6.31,3.21-2.77,1.32-7.2,1.98-10.26,2.44-1.23.18-7.59,1.02-7.59,1.02l8.79,2.78Z"/><path class="cls-15" d="M194.47,111.51s-2.03,4.6-4.79,6.02c-3.19,1.64-7.1,2.45-7.1,2.45,0,0-12.52.43-15.66-4.41,5.36.21,7.06.48,12.46.35,2.71-.07,9.57-2.06,9.57-2.06l5.52-2.35Z"/><path class="cls-5" d="M159.54,112.5c1.84.03,3.55-.83,5.22-1.59,8-3.65,24.97-8.46,24.97-8.46,0,0,2.18-1.17,1.81-2.15-.24-.64-1.7-.97-1.7-.97l-19.81,3.02s-9.27,4.34-10.5,10.14Z"/><path class="cls-5" d="M221.74,94.76l6.65-1.47s10-.58,13.98,2.12c-.07,1.79-12.09,1.84-18.17,2.45-1.06.11-7.55,1.39-8.17.46-1.16-1.74,5.7-3.57,5.7-3.57Z"/><path class="cls-9" d="M145.88,76.95s28.41-9.45,31.79-10.37c18.32-4.96,29.7-5.53,29.7-5.53,0,0,15.23.52,24.66.63,10.91.13,9.88.75,9.88.75l3.32,9.53,2.55,16.58s-20.6-2.43-27.07-1.75c-11.77,1.23-22.91,2.5-34.5,5.42-10.08,2.54-30.28,7.49-30.28,7.49,0,0-6.72,2.39-9.86,3.69-2.57,1.07-6.66,2.4-9.61,3.88-.97-2.19-3.11-9.69-5.33-12.78l-1.33-8.93c2.25-1.86,16.09-8.62,16.09-8.62Z"/></svg>