<?xml version="1.0" encoding="UTF-8"?>
<svg id="_레이어_1" xmlns="http://www.w3.org/2000/svg" version="1.1" viewBox="0 0 500 500">
  <!-- Generator: Adobe Illustrator 29.5.1, SVG Export Plug-In . SVG Version: 2.1.0 Build 141)  -->
  <defs>
    <style>
      .st0 {
        fill: #93633b;
      }

      .st1 {
        fill: #d8a176;
      }

      .st2 {
        fill: #754d2a;
      }

      .st3 {
        fill: #b95d31;
      }

      .st4 {
        fill: #4c559f;
      }

      .st5 {
        fill: #e8bb92;
      }

      .st6 {
        fill: #fff;
      }

      .st7 {
        fill: #493e22;
      }

      .st8 {
        fill: #d98b55;
      }

      .st9 {
        fill: none;
      }

      .st10 {
        fill: #b78926;
      }

      .st11 {
        fill: #582552;
      }

      .st12 {
        fill: #334083;
      }

      .st13 {
        fill: #af8135;
      }

      .st14 {
        fill: #ebc697;
      }

      .st15 {
        fill: #86796d;
      }

      .st16 {
        fill: #d07a5f;
      }

      .st17 {
        fill: #a35937;
      }

      .st18 {
        fill: #f7ecc6;
      }

      .st19 {
        fill: #5764aa;
      }

      .st20 {
        fill: #8f5235;
      }

      .st21 {
        fill: #a56f3c;
      }

      .st22 {
        fill: #504036;
      }

      .st23 {
        fill: #9f4938;
      }
    </style>
  </defs>
  <rect class="st9" width="500" height="500"/>
  <path class="st13" d="M353.5,349.1s-24.2,39-36.2,58.6c3,3.6,10.4,6,10.4,6l68.1-104.6s22.4-32.5,31.3-46.6c.1-.2-6.8-2.3-6.8-2.3l-10.6,11s-16.8,18.3-21.8,25.2c-12.2,17-34.3,52.7-34.3,52.7Z"/>
  <path class="st13" d="M395.4,290.9c1.4-8.5-2.1-21.5-2.1-21.5l-2-6.5-3.9,1.5s-.6,7.4-.7,9c-.5,13.2-1.3,21.9-1.8,35.2,5.4-7.5,10-15.6,13.7-24.1"/>
  <path class="st2" d="M268.8,257.2l33.8,7.8s3-9.9,8.1-12.6c4.9-2.6,9-6.4,12.8-10.5,23.5-25.2,40.7-44.1,36.7-78.3-.2-2.1-6.3-15.3-7.4-17.1-1.1-1.7-10.8-10.9-10.8-10.9,0,0-9.2-8.8-17.1-13.8-5.8-3.7-11.7-7.4-18.3-9.3-5-1.4-10.3-1.8-15.4-2.9-7.8-1.8-15.1-5.6-21-10.8-2.2-1.9-4.2-4.1-6.8-5.3s-6-1.4-8.1.6c-4.5-4.2-10.1-8.8-16.1-7.6-2.5.5-4.7,1.9-6.5,3.7-3.3,3.3-5.2,7.7-7,11.9-17.6,41.8-42.4,62.3-51.9,106.7-.8,3.9,5.4,29.8,6.7,33.5,2.8,8.4,12.1.4,18.4.1,8.3-.4,24.1,8.7,32.2,10.5,15.9,3.5,37.9,4.5,37.9,4.5h0Z"/>
  <path class="st20" d="M270.6,166.6l10.1,9.9s10,9.4,13.9,13c9.9,9.1,26,25.6,26,25.6l14,15.1s3.9,1.8,4.9,1.8c.5,0,3-.4,3-.4,0,0-8.8-9.9-13.7-15.6-3.6-4.1-10.9-12.4-10.9-12.4l-22.6-24.4s-10.4-10.2-15.7-15.2c1.4.7,9.8,4.2,9.8,4.2l-2.7-5.7c-2.2-1.4-4.7-2.9-7.5-4.6-2.9,2.9-5.7,5.8-8.4,8.7h0Z"/>
  <path class="st2" d="M261.3,176.5c-.8.9-1.7,1.8-2.5,2.7,1.6,2,3.4,4,5.1,6.1.9,0,1.7.1,2.4,0-.1-.2-1.9-3-1.9-3.2l12.1,12c-1.8-.3-4-.9-6.2-1.5,3.4,3.9,6.6,7.4,9,9.8,4,4,8,8,12,12,2.2,2.2,18.1,17.6,18.1,17.6,0,0,9.2,9.7,13.9,14.5.1.2,4.6-5.8,4.6-5.8l.8-4.7s-8.5-7.5-10.7-9.7c-6-5.7-12-11.4-18-17.2-5.8-5.6-17.9-16.3-17.9-16.3,0,0-8.5-9.4-17.8-19.5-.9,1-1.9,2-2.8,3,0,0,0,0,0,.1h0Z"/>
  <path class="st2" d="M326.7,139.1l-3.1-.7h-14.3c2.8,1.3,6.8,3,11.4,5,13.5,3.7,32.7,8.9,40.2,10.6,5.6,1.2,22.7,2.7,22.7,2.7,0,0-.8-4.4-1.5-4.8-1.6-.9-32.1-7.7-32.1-7.7,0,0-9.1-3.1-19.7-6.5l-5,.6c.7.3,1.3.7,1.4.8h0Z"/>
  <path class="st2" d="M321.3,165.6l-15.5-7.2c1.8-.3,4-.5,6.4-.7-4.6-2.5-8.7-4.8-11.8-6.2-3.4-1.6-6.8-3.2-10.2-4.8-1.2,1.2-2.4,2.4-3.6,3.6,7.1,4.1,13.8,8.1,18,10.9,4.6,3.1,9.1,6.3,13.7,9.4,12,6.3,26.8,14,33.1,16.9,5.2,2.4,21.6,7.5,21.6,7.5,0,0,.1-4.5-.4-5-1.3-1.2-29.7-14.4-29.7-14.4,0,0-10.9-6.6-22.2-13.1-.9.2-1.6.4-2.3.8.2.2,2.8,2.1,2.9,2.4h0Z"/>
  <path class="st17" d="M251.9,186.9h0s5.2,4.2,5.2,4.2l2,6.2s-7.9-4.5-9.2-5.3c4.7,5.6,13.8,17,13.8,17l2.4,3.3c1.8,1.6,3.6,3.1,5.4,4.7-.8-1.4-1.5-2.9-2.1-4.3l10.1,9.2c-.1,0-.3-.1-.4-.3.1.7.5,1.6.8,2.5,5.4,4.6,9.2,7.7,9.2,7.7,0,0,25.3,26.7,27.1,27.6.8.4,5.7-2,5.7-2,0,0-11.8-16.6-16.4-21.5-10-10.6-47.8-46-47.8-46,0,0-.6-.7-1.6-1.9l-3.8-1.7c-.1.2-.3.3-.5.5h0Z"/>
  <path class="st17" d="M301,138.4h-2.3c-1.7,1.6-3.4,3.2-5,4.8l2.2,1.1c6.9,3.4,19.6,8.5,30.9,12.8h.2c-1.2-1-2.3-2.1-3.3-3.2l8.8,3.6h.5s5.9.7,5.9.7l.6,2.4s-1,0-2.4,0c.1.2.3.3.4.5,6.6,2.5,11.2,4.1,11.2,4.1,0,0,32.8,16.5,34.9,16.8.9.1,4.7-3.8,4.7-3.8,0,0-16.7-11.6-22.7-14.7-8.1-4.1-29.9-13.8-44.9-20.4-8.4-2.3-14.6-4.1-14.6-4.1,0,0-2.1-.4-5.1-.9h0Z"/>
  <path class="st17" d="M283,153.9c-1.3,1.3-2.6,2.7-3.9,4l7.3,4.5h0c4.9,3.1,8,5.1,8,5.1,0,0,14.9,11.7,22.6,17.2,8,5.7,15.8,11.4,23.7,17.2,2.9,2.1,13.5,10.4,13.5,10.4l5.2-2.4s5.8-7.4,5.5-7.6c-6.6-4.4-19.7-12.8-19.7-12.8,0,0-21.1-15.1-24.1-17.1-.9-.6-1.8-1.2-2.7-1.8-9.6-5-17.3-9.2-17.3-9.2,0,0-10.4-4.2-18.1-7.5h0Z"/>
  <path class="st20" d="M344.3,229.3l3.9,1.5s7.5,0,9.1-.9c.8-.5,4.4-2.9,4.4-2.9,0,0-4.5-1.9-10.6-4.4l-3.9,7.2-2.9-.5h0Z"/>
  <path class="st20" d="M321.2,219.2s-.9,0-2.4.2l25.5,9.9,2.9.5,3.9-7.2c-2.2-.9-4.7-1.9-7.2-3-11.9-.2-22.7-.5-22.7-.5h0Z"/>
  <path class="st20" d="M201.8,180.4l19.9,6.8s23,7.3,31.9,9.9c9.7,2.9,22.3,7.1,33.5,11,9.2-.2,19-.5,27.9-.6-7.2-3-13.8-5.8-13.8-5.8l-54.5-21.3s-8.4-2.8-17.7-5.9c-12.3,2.7-26.2,5.5-26.2,5.5,0,0-.4.1-1,.3h0Z"/>
  <path class="st17" d="M243.9,224c10.5.2,29.6-1,46.1-2.2-2.1-.6-4.2-1.3-6.2-2.1l7.2-.4-11.8-2.2-39.1-8.4c-.4,2.8-1.4,8.7-1.6,8.5-8.8-2.8-26-8.6-26-8.6,0,0-4-1.1-9.2-2.7-5.7-.2-11.4-.5-17.1-.8l9,17.5c9.4.3,19.2.7,21.7.7,9,.2,18.1.4,27.1.6h0Z"/>
  <path class="st17" d="M352.6,219.8c10.6.1,20.2.2,21.3-.2,1.1-.4,3.6-7.4,3.6-7.4,0,0-10.6-1.8-20.8-3.2l-1.7,6.4-2.4,4.4h0Z"/>
  <path class="st17" d="M301.8,219c.8.6,2,1.1,3.2,1.6,6.1-.5,11.1-.9,13.8-1.2l-4.4-1.7s-12.4-4.5-27.3-9.6c-19.5.5-36.3,1.1-36.3,1.1,0,0-4.5-.4-10.6-.9,0,.1,0,.3,0,.4l39.1,8.4,11.8,2.2,11.4-.6c-.2,0-.4.1-.7.2h0Z"/>
  <path class="st17" d="M315,207.4c4.6,1.9,9.5,4,13,5.5,4.5,2,10.4,4.4,15.9,6.7,2.9,0,5.9.1,8.7.1l2.4-4.4,1.7-6.4c-6.2-.9-12.2-1.6-15.7-1.7-5.6-.2-15.2-.1-26.1,0h0Z"/>
  <path class="st17" d="M314.4,217.7l4.4,1.7c1.5-.1,2.4-.2,2.4-.2,0,0,10.8.3,22.7.5-5.5-2.3-11.4-4.8-15.9-6.7-3.5-1.5-8.4-3.6-13-5.5-8.9.1-18.7.4-27.9.6,14.9,5.1,27.3,9.6,27.3,9.6h0Z"/>
  <path class="st17" d="M290,221.8c3.9,1.1,8,2.1,12.1,3.1,2.3.6,6.8,1.4,6.8,1.4l5.7,1.2,3.7-1.9s-4-1.4-6.7-2.4l-11.6-2.2c-3.1.2-6.5.5-9.9.8h0Z"/>
  <path class="st17" d="M305,220.6c-1.6.1-3.3.3-5.1.4l11.6,2.2c-.4-.2-.8-.3-1.2-.4-1.6-.6-3.6-1.4-5.4-2.1h0Z"/>
  <path class="st17" d="M291,219.3l-7.2.4c2,.8,4.1,1.5,6.2,2.1,3.4-.3,6.8-.5,9.9-.8l-8.9-1.7Z"/>
  <path class="st17" d="M305,220.6c-1.2-.5-2.4-1.1-3.2-1.6.2,0,.5,0,.7-.2l-11.4.6,8.9,1.7c1.8-.1,3.5-.3,5.1-.4h0Z"/>
  <path class="st2" d="M267.9,171.9c-8.5,2.7-25.1,5.6-25.1,5.6l-11.4.7-8,.3-1.3-3.1s10.2-1.7,13.9-2.8c4.1-1.2,10.5-2.6,14.1-4.8-.3-.2-4.2-2.3-4.4-2.6l22.2,6.7h0Z"/>
  <path class="st2" d="M357.3,188.8s-15-3.6-19.1-4.7c-10.9-3-21.8-6-32.7-9.1-10.6-3-31.9-8.1-31.9-8.1,0,0-56.9-20.4-73.1-25.1-7.5-2.2-30.5-5.8-30.5-5.8,0,0,.7,6,1.6,6.6,2,1.3,42.9,13.5,42.9,13.5,0,0,44.6,18.8,62,24.1,7.4,2.3,14.8,4.5,22.1,6.7,4,1.2,33,9.5,33,9.5,0,0,17.2,5.8,26,8.6.3.2,1.8-9.9,1.8-9.9l-2.1-6.2h0Z"/>
  <path class="st20" d="M364,164.7c3.8-.9,3.8-2.2,6.9-3.7,1.8-.9,2.8-7.7,2.8-7.7l-3.9-2s-9.5-5.7-14.9-8.2c-7-3.2-20.8-9.7-20.8-9.7l-17.7-5.8s-11.6-3.4-16.1-4.6c-11.4-3.1-30.6-9.9-30.6-9.9l-16.9-6.7s-3.9.5-4.8,1.2c-.4.4-2.4,2.2-2.4,2.2,0,0,10.7,4.6,16.8,7.3,4.4,2,13.4,5.8,13.4,5.8l27.3,10.8s12.2,3.9,18.4,5.7c-1.4.2-9.7,1.8-9.7,1.8l4.3,4.3,13.8.2h5.1c0,0,6.8,4.6,8.1,5.6,2.1,1.5,12.8,7.5,14.8,9.4l6.1,4h0Z"/>
  <path class="st20" d="M281.5,219.5c3.8-.9,3.8-2.2,6.9-3.7,1.8-.9,2.8-7.7,2.8-7.7l-3.9-2s-9.5-5.7-14.9-8.2c-7-3.2-20.8-9.7-20.8-9.7l-17.7-5.8s-11.6-3.4-16.1-4.6c-11.4-3.1-30.6-9.9-30.6-9.9l-16.9-6.7s-3.9.5-4.8,1.2c-.4.4-2.4,2.2-2.4,2.2,0,0,10.7,4.6,16.8,7.3,4.4,2,13.4,5.9,13.4,5.9l27.3,10.8s12.2,3.9,18.4,5.7c-1.4.2-9.7,1.8-9.7,1.8l4.3,4.3,13.8.2h5.1c0,0,6.8,4.6,8.2,5.6,2.1,1.5,12.8,7.5,14.8,9.4l6.1,4h0Z"/>
  <path class="st20" d="M322.2,270c3.8-1,3.8-2.2,6.9-3.7,1.8-.9,2.8-7.7,2.8-7.7l-3.9-2s-9.5-5.7-14.9-8.2c-7-3.2-20.8-9.7-20.8-9.7l-17.7-5.8s-11.6-3.4-16.1-4.6c-11.4-3.1-30.6-9.9-30.6-9.9l-16.9-6.7s-3.9.5-4.8,1.2c-.4.4-2.4,2.2-2.4,2.2,0,0,10.7,4.6,16.8,7.3,4.4,2,13.4,5.9,13.4,5.9l27.3,10.8s12.2,3.9,18.4,5.7c-1.4.2-9.7,1.8-9.7,1.8l4.3,4.3,13.8.2h5.1c0,0,6.8,4.6,8.1,5.6,2.1,1.5,12.8,7.5,14.8,9.4l6.1,4h0Z"/>
  <path class="st20" d="M181.1,121.3c-2.9,1.2-2.8,2.2-5.1,3.7-1.4.9-1.6,6.2-1.6,6.2l3.3.9s7.9,2.9,12.4,4c5.7,1.4,17.2,4.3,17.2,4.3l14.4,1.8s9.4.9,13.1,1.2c9.3.7,24.9,3.1,24.9,3.1l13.9,2.6s3-.9,3.6-1.6c.3-.3,1.7-2,1.7-2,0,0-8.8-1.9-13.8-3.1-3.6-.9-11-2.5-11-2.5l-22.4-4.2s-9.9-1.2-15-1.7c1.1-.3,7.5-2.7,7.5-2.7l-3.7-2.6-10.9,1.8-4.1.8s-5.7-2.6-6.9-3.1c-1.8-.8-10.7-3.8-12.5-5l-5.2-2.1h0Z"/>
  <path class="st0" d="M370,178.9s-7.3-2.5-9.3-3.3c-5.3-2.1-10.5-4.1-15.8-6.2-5.1-2.1-15.5-5.6-15.5-5.6,0,0-27.1-14-34.9-17.2-3.6-1.5-15-4-15-4,0,0-.2,4.1.1,4.5.9.9,20.6,9.3,20.6,9.3,0,0,21,12.8,29.3,16.5,3.5,1.6,7.1,3.1,10.6,4.6,1.9.8,15.9,6.6,15.9,6.6,0,0,8.2,3.9,12.4,5.9.1.1,1.9-6.7,1.9-6.7l-.5-4.2h0Z"/>
  <path class="st0" d="M325.9,167.1c-4.6,1.8-13.4,3.7-13.4,3.7l-5.9.5-4.1.2-.4-2.1s5.4-1.1,7.4-1.8c2.2-.8,5.6-1.7,7.7-3.2-.1-.1-1.9-1.6-2-1.8l10.7,4.6h0Z"/>
  <path class="st0" d="M262.2,129.2s-7.3-2.5-9.3-3.3c-5.3-2.1-10.6-4.1-15.8-6.2-5.1-2.1-15.5-5.6-15.5-5.6,0,0-27.1-14-34.9-17.2-3.6-1.5-15.1-4-15.1-4,0,0-.2,4.1.1,4.5.9.9,20.6,9.3,20.6,9.3,0,0,20.9,12.8,29.3,16.5,3.5,1.6,7.1,3.1,10.6,4.6,1.9.8,15.9,6.5,15.9,6.5,0,0,8.2,3.9,12.4,5.9.1.1,1.9-6.7,1.9-6.7l-.5-4.2h0Z"/>
  <path class="st0" d="M218.1,117.5c-4.6,1.8-13.4,3.7-13.4,3.7l-5.9.5-4.1.2-.4-2.1s5.4-1.1,7.4-1.8c2.2-.8,5.6-1.7,7.7-3.2-.1-.1-1.9-1.6-2-1.8l10.7,4.6h0Z"/>
  <path class="st0" d="M161.3,192s7.6,1.7,9.6,2.2c5.5,1.5,10.9,2.9,16.4,4.5,5.3,1.5,16.1,3.9,16.1,3.9,0,0,28.3,10.9,36.4,13.2,3.8,1.1,15.5,2.4,15.5,2.4,0,0,0-4-.4-4.4-1-.8-21.4-6.9-21.4-6.9,0,0-22-10.4-30.7-13.1-3.7-1.1-7.4-2.3-11.1-3.4-2-.6-16.5-4.8-16.5-4.8,0,0-8.6-3-13-4.5-.1,0-1.5,6.8-1.5,6.8l.7,4.1h0Z"/>
  <path class="st0" d="M206.6,198.9c4.6-2.3,13.3-5,13.3-5l6-1.1,4.2-.6.5,2s-5.4,1.6-7.4,2.6c-2.2,1-5.6,2.2-7.6,4,.1.1,2,1.4,2.1,1.5l-11.1-3.4h0Z"/>
  <path class="st0" d="M212.4,155.2s7.6,1.7,9.6,2.2c5.5,1.5,10.9,2.9,16.4,4.5,5.3,1.5,16.1,3.9,16.1,3.9,0,0,28.3,10.9,36.4,13.2,3.8,1.1,15.5,2.4,15.5,2.4,0,0,0-4-.4-4.4-1-.8-21.5-6.9-21.5-6.9,0,0-22-10.4-30.7-13.1-3.7-1.1-7.4-2.3-11.1-3.4-2-.6-16.5-4.8-16.5-4.8,0,0-8.6-3-13-4.5-.1,0-1.5,6.8-1.5,6.8l.7,4.1h0Z"/>
  <path class="st0" d="M257.7,162.1c4.6-2.3,13.3-5,13.3-5l6-1.1,4.2-.6.5,2s-5.4,1.6-7.4,2.6c-2.2,1-5.6,2.2-7.6,4,.1.1,2,1.4,2.1,1.5l-11.1-3.4h0Z"/>
  <path class="st0" d="M262.5,197.9s7.6,1.7,9.6,2.2c5.5,1.5,10.9,2.9,16.4,4.5,5.3,1.5,16.1,3.9,16.1,3.9,0,0,28.3,10.9,36.4,13.2,3.8,1.1,15.5,2.4,15.5,2.4,0,0,0-4-.4-4.4-1-.8-21.5-6.9-21.5-6.9,0,0-22-10.4-30.7-13.1-3.7-1.1-7.4-2.3-11.1-3.4-2-.6-16.5-4.8-16.5-4.8,0,0-8.6-3-13-4.5-.1,0-1.5,6.8-1.5,6.8l.7,4.1h0Z"/>
  <path class="st0" d="M307.8,204.8c4.6-2.3,13.3-5,13.3-5l6-1.1,4.2-.6.5,2s-5.4,1.6-7.4,2.6c-2.2,1-5.6,2.2-7.6,4,.1.1,2,1.4,2.1,1.5l-11.1-3.4h0Z"/>
  <path class="st17" d="M265.7,258.5s-9.7-4-12.4-4.9c-7.2-2.6-14.4-5.1-21.7-7.6-7.1-2.4-20.9-8.1-20.9-8.1,0,0-39.7-9.2-50.5-12.7-5-1.6-19.1-9.4-19.1-9.4,0,0,3-5,3.7-5.1,1.7-.2,29.1,8.6,29.1,8.6,0,0,32.3,4.8,44,8.4,5,1.5,9.9,3.1,14.9,4.7,2.7.9,22,7.4,22,7.4,0,0,11.8,3.1,17.8,4.9.2,0-3.2,9.6-3.2,9.6l-3.8,4.4h0Z"/>
  <path class="st17" d="M194.8,224.7c-2.5-2.6-5.8-4.6-9-6.8-1.1-.8-3.5-2.1-3.5-2.1l-2.9-1.8-2.5.9s2.6,2.3,3.7,3.4c1.3,1.2,3.1,2.8,3.9,4.2-.1,0-.3,0-.4,0l10.6,2.2h0Z"/>
  <path class="st17" d="M259.5,187.2s-8.5-3.4-10.8-4.3c-6.3-2.2-12.5-4.5-18.8-6.6-6.1-2.1-18.1-7-18.1-7,0,0-34.5-8-43.9-11.1-4.4-1.4-16.6-8.2-16.6-8.2,0,0,2.6-4.3,3.2-4.4,1.5-.2,25.4,7.5,25.4,7.5,0,0,28.1,4.1,38.3,7.3,4.3,1.3,8.6,2.7,13,4.1,2.4.7,19.1,6.4,19.1,6.4,0,0,10.3,2.7,15.5,4.2.2,0-2.8,8.3-2.8,8.3l-3.3,3.8h0Z"/>
  <path class="st17" d="M197.9,157.8c-2.2-2.2-5.1-4-7.8-5.9-1-.7-3-1.9-3-1.9l-2.5-1.6-2.1.7s2.2,2,3.2,3c1.1,1.1,2.7,2.5,3.4,3.7-.1,0-.2,0-.4,0l9.2,1.9h0Z"/>
  <path class="st17" d="M234,210.1s8.6,3.1,10.9,3.9c6.4,2,12.7,4,19,5.9,6.2,1.9,18.4,6.4,18.4,6.4,0,0,34.8,6.8,44.3,9.6,4.4,1.3,16.9,7.6,16.9,7.6,0,0-2.5,4.4-3.1,4.5-1.5.2-25.6-6.6-25.6-6.6,0,0-28.3-3.2-38.6-6-4.4-1.2-8.7-2.4-13.1-3.6-2.4-.6-19.4-5.7-19.4-5.7,0,0-10.4-2.4-15.6-3.7-.2,0,2.7-8.4,2.7-8.4l3.2-3.9h0Z"/>
  <path class="st17" d="M296.5,237.4c2.3,2.2,5.2,3.8,7.9,5.6,1,.7,3.1,1.8,3.1,1.8l2.5,1.5,2.1-.8s-2.3-1.9-3.3-2.9c-1.1-1-2.7-2.4-3.5-3.6.1,0,.2,0,.4,0l-9.2-1.6h0Z"/>
  <path class="st17" d="M244,152.5s8.6,3.1,10.9,3.9c6.3,2,12.7,4,19.1,5.9,6.2,1.9,18.4,6.4,18.4,6.4,0,0,34.8,6.8,44.3,9.6,4.4,1.3,16.9,7.6,16.9,7.6,0,0-2.5,4.4-3.1,4.5-1.5.2-25.6-6.6-25.6-6.6,0,0-28.3-3.2-38.6-6-4.4-1.2-8.7-2.4-13.1-3.6-2.4-.6-19.4-5.7-19.4-5.7,0,0-10.4-2.4-15.6-3.7-.2,0,2.7-8.4,2.7-8.4l3.2-3.9h0Z"/>
  <path class="st17" d="M306.4,179.7c2.3,2.2,5.2,3.8,7.9,5.6,1,.7,3.1,1.8,3.1,1.8l2.5,1.5,2.1-.8s-2.3-1.9-3.3-2.9c-1.1-1-2.7-2.4-3.5-3.6.1,0,.2,0,.4,0l-9.2-1.6h0Z"/>
  <path class="st17" d="M187.3,75.9s8.6,3.2,10.9,3.9c6.4,2,12.7,4,19.1,5.9,6.2,1.9,18.4,6.4,18.4,6.4,0,0,34.8,6.8,44.3,9.6,4.4,1.3,16.9,7.6,16.9,7.6,0,0-2.5,4.4-3.1,4.5-1.5.2-25.6-6.6-25.6-6.6,0,0-28.3-3.2-38.6-6-4.4-1.2-8.7-2.4-13.1-3.6-2.4-.7-19.4-5.7-19.4-5.7,0,0-10.4-2.4-15.6-3.7-.2,0,2.7-8.4,2.7-8.4l3.2-3.9h0Z"/>
  <path class="st17" d="M249.7,103.1c2.3,2.2,5.2,3.8,7.9,5.6,1,.7,3.1,1.8,3.1,1.8l2.5,1.5,2.1-.8s-2.3-1.9-3.3-2.8c-1.1-1-2.7-2.4-3.5-3.6.1,0,.2,0,.4,0l-9.2-1.6h0Z"/>
  <path class="st5" d="M439.7,194.9c1.4-.5,3.7-1.9,4.8-.9,2.4,2.2-2.1,5.5-2.1,5.5,0,0-3.1,1.8-3.6,3.4,3.2-.2,9.5.6,9.5.6,0,0,13.3,2.1,12.1,5.4-1.2,3-4.8,1.5-8.2,1.7-3,.2-4.9.6-4.9.6,0,0,6.2,2.7,8.7,4,1.3.7,5.2,4.1,4.6,5.4-1,2.2-3.3,1.4-7.4-.4-2-.9-6.9-1.1-6.9-1.1,0,0,7,3.1,8.8,5.1.8,1,4.2,4.1,1.6,5.6-.4.2-3.6-1-5.7-1.9-3-1.3-7.8-2.1-7.8-2.1,0,0,4.3,4.5,5.5,5.8s2,3.3.9,4.5c-1.4,1.5-3.9.1-5.6-1.1-9.5-6.8-15.7-1.6-25.2-8.3-.7-.5-5-4.6-5-4.6l5.5-22.5s12.9-1.9,20.6-4.6h0Z"/>
  <path class="st14" d="M144.8,389.4c-8.3,3.2-13.2,4.6-18.6,12.4-3.8,5.5,4.7,19.8,4.7,19.8l15,19.1s15.1,16.5,22.5,12.3c0,0,8-2.1-.8-39l-22.8-24.6h0Z"/>
  <path class="st10" d="M157.6,454.5c1.6,1.1,6.7,4.1,6.7,4.1l2.2-3.1s-5.7-4.3-7.5-5.5c-11.2-7.4-18.2-14.3-24.6-26.1-2.6-4.8-11.6-21.7-11.6-21.7l-3.3,2.2s3.8,8.5,4.6,10.3c4.4,10.5,11.3,18.5,19,26.9,4.4,4.8,9.3,9.1,14.5,13h0Z"/>
  <path class="st10" d="M165.9,445.2c1.6,1.1,5.6,3.9,5.6,3.9l1.1-4s-3.5-3.2-5.3-4.4c-11.2-7.4-17.3-15.1-24.6-26.1-3-4.5-11.9-18.9-11.9-18.9l-3.3,2.4s3.6,6.2,4.6,7.9c5.3,9.2,11.5,17.9,19.2,26.2,4.4,4.8,9.3,9.1,14.5,13h0Z"/>
  <path class="st10" d="M129.7,397.7c.2-.1.4-.2.6-.2.2,0,.4.2.5.4.5.7,1,1.4,1.6,2-3.6,2.2-6.6,5-9.8,7.6-3.5-3.5,4.8-8.3,7.2-9.8h0Z"/>
  <path class="st10" d="M133.6,403.6c.2-.1.4-.2.6-.2.2,0,.4.2.5.4.5.7,1,1.4,1.6,2-3.6,2.2-6.6,5-9.8,7.6-3.5-3.5,4.8-8.3,7.2-9.8h0Z"/>
  <path class="st10" d="M152.3,431.5c.2-.1.4-.2.6-.2.2,0,.4.2.5.4.5.7,1,1.4,1.6,2-3.6,2.2-6.6,5-9.8,7.6-3.5-3.5,4.8-8.3,7.2-9.8h0Z"/>
  <path class="st10" d="M158.2,437.4c.2-.1.4-.2.6-.2.2,0,.4.2.5.4.5.7,1,1.4,1.6,2-3.6,2.2-6.6,5-9.8,7.6-3.5-3.5,4.8-8.3,7.2-9.8h0Z"/>
  <path class="st10" d="M164.6,442.5c.2-.1.4-.2.6-.2.2,0,.4.2.5.4.5.7,1,1.4,1.6,2-3.6,2.2-6.6,5-9.8,7.6-3.5-3.5,4.8-8.3,7.2-9.8h0Z"/>
  <path class="st14" d="M287.8,426.5c-3.1,8.4-5.2,13-2.8,22.2,1.7,6.4,18,9.4,18,9.4l24.2,1.2s22.3-.6,24-8.9c0,0,3.7-7.4-29.9-24.9l-33.5,1.1h0Z"/>
  <path class="st10" d="M345.3,459.6c1.9-.4,7.5-2.4,7.5-2.4l-.9-3.7s-7,1.5-9,2c-12.9,3.6-22.8,4.3-35.9,1.4-5.3-1.2-24-5.5-24-5.5l-.5,3.9s8.9,2.7,10.8,3.3c10.8,3.5,21.4,3.6,32.7,3.3,6.5-.2,13-1,19.3-2.5h0Z"/>
  <path class="st10" d="M343.8,447.2c1.9-.4,6.6-1.7,6.6-1.7l-2.3-3.4s-4.8.5-6.8,1.1c-12.9,3.6-22.8,3.1-35.9,1.4-5.4-.7-22-3.4-22-3.4l-.3,4.1s7,1.3,9,1.7c10.4,2.1,21,3,32.4,2.7,6.5-.2,13-1,19.3-2.5h0Z"/>
  <path class="st10" d="M284.1,443.4c0-.2,0-.4.2-.5.2-.1.4-.1.6-.1.9,0,1.7.1,2.6.2-.7,4.1-.6,8.2-.7,12.4-5,.3-3.1-9.1-2.7-11.9h0Z"/>
  <path class="st10" d="M291.2,444.3c0-.2,0-.4.2-.5.2-.1.4-.1.6-.1.9,0,1.7.1,2.6.2-.7,4.1-.6,8.2-.7,12.4-5,.3-3.1-9.1-2.7-11.9h0Z"/>
  <path class="st10" d="M324.5,448.5c0-.2,0-.4.2-.5.2-.1.4-.1.6-.1.9,0,1.7.1,2.6.2-.7,4.1-.6,8.2-.7,12.4-5,.3-3.1-9.1-2.7-11.9h0Z"/>
  <path class="st10" d="M332.8,447.9c0-.2,0-.4.2-.5.2-.1.4-.1.6-.1.9,0,1.7.1,2.6.2-.7,4.1-.6,8.2-.7,12.4-5,.3-3.1-9.1-2.7-11.9h0Z"/>
  <path class="st10" d="M340.8,446.4c0-.2,0-.4.2-.5.2-.1.4-.1.6-.1.9,0,1.7.1,2.6.2-.7,4.1-.6,8.2-.7,12.4-5,.3-3.1-9.1-2.7-11.9h0Z"/>
  <path class="st10" d="M349.1,444.6c0-.2-.1-.4-.3-.5-.2-.1-.4,0-.6,0-.8.2-1.7.4-2.5.6,1.5,4,2,8,2.9,12,4.9-.6,1.5-9.5.5-12.2h0Z"/>
  <path class="st2" d="M185.2,83.2l-33.1-10.2s-3.7,9.7-9,12c-5.1,2.2-9.5,5.8-13.5,9.5-25.3,23.4-43.9,40.9-42.4,75.4,0,2.1,5.2,15.8,6.2,17.6,1,1.8,9.9,11.7,9.9,11.7,0,0,8.5,9.5,16,15.1,5.5,4.1,11.1,8.3,17.6,10.7,4.9,1.8,10.2,2.5,15.2,4.1,7.6,2.4,14.6,6.7,20.2,12.4,2,2.1,3.9,4.4,6.4,5.8s5.9,1.8,8.2,0c4.2,4.5,9.4,9.5,15.5,8.8,2.5-.3,4.8-1.5,6.7-3.2,3.5-3,5.7-7.2,7.8-11.4,20.7-40.4,46.9-58.9,59.7-102.5,1.1-3.8-3.2-30.1-4.2-33.9-2.1-8.6-12-1.3-18.4-1.5-8.3-.3-23.4-10.5-31.3-12.9-15.6-4.7-37.5-7.3-37.5-7.3h0Z"/>
  <path class="st20" d="M176.6,173.4l-9.3-10.6s-9.2-10.1-12.9-14c-9.2-9.8-24-27.5-24-27.5l-12.9-16.1s-3.7-2.1-4.7-2.1-3,.2-3,.2c0,0,8,10.5,12.5,16.5,3.3,4.4,10,13.2,10,13.2l20.7,26s9.6,10.9,14.6,16.3c-1.3-.8-9.4-4.9-9.4-4.9l2.3,5.9c2.1,1.5,4.5,3.2,7.1,5.1,3.1-2.7,6.1-5.4,9-8.1h0Z"/>
  <path class="st2" d="M186.6,164.3c.9-.9,1.8-1.7,2.7-2.5-1.5-2.1-3.1-4.2-4.6-6.4-.9-.1-1.7-.2-2.4-.2.1.2,1.7,3.1,1.7,3.4l-11.2-12.9c1.8.5,3.9,1.2,6.1,1.9-3.1-4.2-6-7.9-8.2-10.5-3.7-4.3-7.4-8.6-11.1-12.8-2-2.3-16.7-18.9-16.7-18.9,0,0-8.4-10.3-12.8-15.5-.1-.2-5,5.4-5,5.4l-1.1,4.7s7.9,8.2,10,10.4c5.6,6.2,11.2,12.3,16.7,18.5,5.4,6,16.6,17.6,16.6,17.6,0,0,7.8,10,16.3,20.8,1-.9,2-1.9,3-2.8,0,0,0,0,.1,0h0Z"/>
  <path class="st2" d="M118.6,196.8l3,.9,14.3,1c-2.7-1.4-6.5-3.4-10.9-5.8-13.2-4.7-31.9-11.3-39.3-13.5-5.5-1.6-22.4-4.4-22.4-4.4,0,0,.5,4.4,1.1,4.9,1.5,1,31.5,10.1,31.5,10.1,0,0,8.8,3.8,19.1,7.9l5-.3c-.7-.4-1.3-.8-1.3-.9h0Z"/>
  <path class="st2" d="M125.9,170.7l14.9,8.4c-1.8.2-4.1.2-6.4.2,4.4,2.9,8.4,5.4,11.3,7.1,3.2,1.9,6.5,3.7,9.8,5.5,1.3-1.1,2.6-2.2,3.9-3.3-6.8-4.6-13.2-9.1-17.2-12.2-4.3-3.5-8.7-6.9-13-10.4-11.5-7.2-25.7-16-31.7-19.3-5-2.8-20.9-9.1-20.9-9.1,0,0-.5,4.4,0,5,1.2,1.3,28.6,16.6,28.6,16.6,0,0,10.3,7.4,21.1,14.7.9-.1,1.7-.3,2.4-.6-.2-.2-2.6-2.4-2.7-2.6h0Z"/>
  <path class="st17" d="M196.8,154.7h0s-4.9-4.6-4.9-4.6l-1.6-6.3s7.5,5,8.8,6c-4.2-6-12.5-17.9-12.5-17.9l-2.1-3.4c-1.7-1.7-3.4-3.4-5-5.1.7,1.5,1.3,3,1.8,4.5l-9.4-9.9c.1,0,.3.2.4.3,0-.7-.3-1.6-.6-2.6-5-5-8.6-8.4-8.6-8.4,0,0-23.2-28.5-25-29.6-.7-.5-5.8,1.5-5.8,1.5,0,0,10.5,17.4,14.7,22.7,9.1,11.3,44.2,49.4,44.2,49.4,0,0,.6.8,1.4,2l3.6,2c.2-.2.3-.3.5-.5h0Z"/>
  <path class="st17" d="M144.2,199.3l2.2.2c1.8-1.5,3.6-2.9,5.4-4.4-.7-.4-1.4-.8-2.1-1.2-6.6-3.9-19-9.9-29.9-15.1,0,0-10.3-4.7-10.4-4.9-6.4-3-10.9-5-10.9-5,0,0-31.5-18.9-33.5-19.4-.9-.2-5,3.4-5,3.4,0,0,15.8,12.8,21.5,16.4,7.8,4.7,28.8,16,43.3,23.7,8.2,2.9,14.3,5.1,14.3,5.1,0,0,2.1.5,5,1.2h0Z"/>
  <path class="st17" d="M163.3,185.3c1.4-1.2,2.8-2.5,4.2-3.7l-6.9-5.1v-.2c-4.7-3.3-7.7-5.5-7.7-5.5,0,0-14-12.8-21.3-18.9-7.5-6.2-14.9-12.6-22.3-18.9-2.8-2.4-12.7-11.3-12.7-11.3l-5.3,2s-6.3,7-6.1,7.1c6.3,4.9,18.7,14.2,18.7,14.2,0,0,20,16.6,22.8,18.9.8.7,1.7,1.4,2.5,2,9.2,5.7,16.6,10.4,16.6,10.4,0,0,10.1,4.9,17.5,8.8h0Z"/>
  <path class="st20" d="M107.8,105.4l-3.8-1.8s-7.5-.5-9.1.2c-.9.4-4.6,2.5-4.6,2.5,0,0,4.4,2.2,10.2,5.2l4.4-6.9,2.8.8h0Z"/>
  <path class="st20" d="M130.1,117.3s.9,0,2.4,0l-24.7-11.8-2.8-.8-4.4,6.9c2.2,1.1,4.5,2.3,6.9,3.5,11.8,1.1,22.6,2.2,22.6,2.2Z"/>
  <path class="st20" d="M246.3,164.9l-19.3-8.2s-22.4-9-31.1-12.3c-9.5-3.6-21.7-8.8-32.6-13.4-9.2-.4-19-.9-27.9-1.5,6.9,3.5,13.4,6.8,13.4,6.8l52.7,25.3s8.1,3.4,17.2,7.2c12.5-1.8,26.5-3.6,26.5-3.6,0,0,.4,0,1-.2h0Z"/>
  <path class="st17" d="M207.6,118.2c-10.5-1-29.6-1.2-46.2-1.2,2.1.8,4.1,1.6,6,2.6l-7.2-.2,11.6,3.1,38.4,11.3c.6-2.7,2-8.5,2.2-8.4,8.5,3.5,25.3,10.5,25.3,10.5,0,0,3.9,1.4,9,3.3,5.7.7,11.4,1.4,17,2.1l-7.7-18.1c-9.3-1-19.1-2.1-21.6-2.3-9-.9-18-1.8-27-2.6h0Z"/>
  <path class="st17" d="M98.8,114.3c-10.6-.9-20.1-1.7-21.3-1.4-1.2.3-4.1,7.1-4.1,7.1,0,0,10.4,2.6,20.5,4.8l2.2-6.2,2.7-4.2h0Z"/>
  <path class="st17" d="M149.4,118.9c-.8-.6-1.9-1.2-3.1-1.9-6.2,0-11.1.1-13.9.2l4.3,2.1s12,5.4,26.5,11.6c19.5.9,36.3,1.6,36.3,1.6,0,0,4.4.7,10.5,1.6,0-.1,0-.3.1-.4l-38.4-11.3-11.6-3.1-11.4-.3c.2,0,.4-.1.7-.1h0Z"/>
  <path class="st17" d="M135.4,129.4c-4.5-2.3-9.2-4.7-12.6-6.4-4.4-2.3-10-5.2-15.4-7.9-2.9-.3-5.8-.5-8.7-.8l-2.7,4.2-2.2,6.2c6.1,1.3,12.1,2.5,15.5,2.9,5.5.6,15.1,1.2,26,1.9Z"/>
  <path class="st17" d="M136.8,119.3l-4.3-2.1c-1.6,0-2.4,0-2.4,0,0,0-10.8-1.1-22.6-2.2,5.3,2.7,11,5.6,15.4,7.9,3.3,1.8,8.1,4.2,12.6,6.4,8.9.5,18.7,1,27.9,1.5-14.4-6.2-26.5-11.6-26.5-11.6h0Z"/>
  <path class="st17" d="M161.4,117c-3.8-1.4-7.9-2.7-11.8-4-2.2-.7-6.7-1.9-6.7-1.9l-5.6-1.6-3.8,1.6s3.9,1.7,6.5,2.9l11.5,3.1c3.1,0,6.5,0,9.9,0h0Z"/>
  <path class="st17" d="M146.4,117.1c1.6,0,3.3,0,5.1,0l-11.5-3.1c.4.2.8.4,1.1.5,1.6.8,3.5,1.6,5.2,2.6Z"/>
  <path class="st17" d="M160.2,119.4l7.2.2c-1.9-.9-3.9-1.8-6-2.6-3.4,0-6.8,0-9.9,0l8.8,2.3h0Z"/>
  <path class="st17" d="M146.4,117.1c1.2.6,2.3,1.2,3.1,1.9-.2,0-.5,0-.7.1l11.4.3-8.8-2.3c-1.8,0-3.5,0-5.1,0h0Z"/>
  <path class="st2" d="M179.7,168.4c8.7-2.1,25.4-3.7,25.4-3.7h11.5c0,.1,8,.4,8,.4l1.1,3.1s-10.3.9-14.1,1.7c-4.2.9-10.6,1.8-14.4,3.8.3.2,4,2.6,4.2,2.9l-21.7-8.3h0Z"/>
  <path class="st2" d="M91.8,144.8s14.7,4.7,18.7,6.1c10.7,3.8,21.3,7.6,31.9,11.5,10.3,3.8,31.2,10.5,31.2,10.5,0,0,55.2,24.6,71,30.5,7.3,2.8,30,8.1,30,8.1,0,0-.3-6.1-1.1-6.7-1.9-1.5-41.8-16.7-41.8-16.7,0,0-43.1-22-60-28.6-7.2-2.8-14.4-5.5-21.6-8.3-3.9-1.5-32.2-11.9-32.2-11.9,0,0-16.7-7-25.3-10.5-.3-.2-2.6,9.8-2.6,9.8l1.7,6.3h0Z"/>
  <path class="st20" d="M83.4,168.4c-3.8.7-3.9,1.9-7.1,3.2-1.9.8-3.3,7.5-3.3,7.5l3.8,2.3s9,6.4,14.2,9.3c6.7,3.7,20,11.2,20,11.2l17.2,7.1s11.3,4.3,15.7,5.8c11.2,3.9,29.7,12.2,29.7,12.2l16.4,7.9s3.9-.2,4.8-.9c.5-.3,2.6-2,2.6-2,0,0-10.4-5.4-16.2-8.6-4.3-2.3-12.9-6.8-12.9-6.8l-26.4-12.8s-11.9-4.8-17.9-7.1c1.4,0,9.8-1.1,9.8-1.1l-3.9-4.6-13.8-1.2-5.2-.3s-6.4-5.2-7.7-6.3c-2-1.7-12.2-8.4-14.1-10.5l-5.8-4.4h0Z"/>
  <path class="st20" d="M169.8,119.9c-3.8.7-3.9,1.9-7.1,3.2-1.9.8-3.4,7.5-3.4,7.5l3.8,2.3s9,6.4,14.2,9.3c6.7,3.7,20.1,11.2,20.1,11.2l17.2,7.1s11.3,4.3,15.7,5.8c11.2,3.9,29.7,12.2,29.7,12.2l16.4,7.9s3.9-.2,4.8-.9c.5-.3,2.6-2,2.6-2,0,0-10.4-5.4-16.2-8.6-4.3-2.3-12.9-6.8-12.9-6.8l-26.4-12.8s-11.9-4.8-17.9-7.1c1.4,0,9.8-1.1,9.8-1.1l-3.9-4.6-13.8-1.2-5.1-.3s-6.4-5.2-7.7-6.3c-2-1.7-12.2-8.4-14.1-10.5l-5.8-4.4h0Z"/>
  <path class="st20" d="M132.9,66.5c-3.8.7-3.9,1.9-7.1,3.2-1.9.8-3.3,7.5-3.3,7.5l3.8,2.3s9,6.4,14.3,9.3c6.7,3.7,20.1,11.2,20.1,11.2l17.2,7.1s11.3,4.3,15.7,5.8c11.2,3.9,29.7,12.2,29.7,12.2l16.4,7.9s3.9-.2,4.8-.9c.5-.3,2.6-2,2.6-2,0,0-10.4-5.4-16.2-8.6-4.3-2.3-12.9-6.8-12.9-6.8l-26.4-12.8s-11.9-4.8-17.9-7.1c1.4,0,9.8-1.1,9.8-1.1l-3.9-4.6-13.8-1.2-5.1-.3s-6.4-5.2-7.7-6.3c-2-1.7-12.2-8.4-14.1-10.5l-5.8-4.4h0Z"/>
  <path class="st20" d="M262.5,225.3c3-1,3-2,5.4-3.3,1.4-.8,2-6,2-6l-3.2-1.2s-7.7-3.5-12.1-4.9c-5.6-1.9-16.8-5.6-16.8-5.6l-14.2-2.9s-9.3-1.6-12.9-2.2c-9.2-1.4-24.6-5-24.6-5l-13.7-3.6s-3.1.7-3.7,1.3c-.4.3-1.9,1.9-1.9,1.9,0,0,8.7,2.6,13.6,4.1,3.6,1.1,10.8,3.3,10.8,3.3l22,5.9s9.8,1.9,14.8,2.8c-1.1.2-7.7,2.1-7.7,2.1l3.5,2.9,11-1,4.1-.5s5.5,3,6.6,3.6c1.7,1,10.4,4.6,12.1,5.9l5,2.5h0Z"/>
  <path class="st0" d="M78.5,153.8s7.1,3,9,4c5.1,2.4,10.2,4.9,15.3,7.4,4.9,2.4,15.1,6.8,15.1,6.8,0,0,25.9,15.9,33.5,19.8,3.5,1.8,14.7,5.1,14.7,5.1,0,0,.6-4.1.2-4.5-.8-1-19.9-10.8-19.9-10.8,0,0-19.9-14.4-28-18.6-3.4-1.8-6.8-3.6-10.3-5.4-1.9-1-15.4-7.7-15.4-7.7,0,0-7.9-4.6-12-6.8-.1-.1-2.4,6.6-2.4,6.6l.2,4.2h0Z"/>
  <path class="st0" d="M121.6,168.8c4.7-1.5,13.6-2.7,13.6-2.7h5.9s4.1.1,4.1.1l.2,2.1s-5.4.7-7.5,1.3c-2.3.6-5.7,1.3-7.9,2.6.1.1,1.8,1.7,1.9,1.9l-10.3-5.4h0Z"/>
  <path class="st0" d="M182.2,211.4s7.1,3,9,4c5.1,2.4,10.2,4.9,15.3,7.4,4.9,2.4,15.1,6.8,15.1,6.8,0,0,25.9,15.9,33.5,19.8,3.5,1.8,14.7,5.1,14.7,5.1,0,0,.5-4.1.2-4.5-.8-1-19.9-10.8-19.9-10.8,0,0-19.9-14.4-28-18.6-3.4-1.8-6.9-3.6-10.3-5.4-1.9-1-15.4-7.7-15.4-7.7,0,0-7.9-4.6-12-6.8-.1-.1-2.4,6.6-2.4,6.6v4.2c.1,0,.1,0,.1,0Z"/>
  <path class="st0" d="M225.3,226.4c4.7-1.5,13.6-2.7,13.6-2.7h5.9s4.1.1,4.1.1l.2,2.1s-5.4.7-7.5,1.3c-2.3.6-5.7,1.3-7.9,2.6.1.1,1.8,1.7,1.9,1.9l-10.4-5.4h0Z"/>
  <path class="st0" d="M287.5,156.2s-7.4-2.2-9.4-2.9c-5.4-1.9-10.7-3.7-16-5.7-5.2-1.9-15.7-5.1-15.7-5.1,0,0-27.4-12.9-35.3-15.9-3.7-1.4-15.3-3.5-15.3-3.5,0,0-.3,4,.1,4.4.9.9,20.9,8.5,20.9,8.5,0,0,21.2,12,29.6,15.4,3.6,1.4,7.2,2.8,10.8,4.2,2,.8,16.1,6,16.1,6,0,0,8.3,3.6,12.6,5.4.1.1,2-6.7,2-6.7l-.4-4.1h0Z"/>
  <path class="st0" d="M242.8,146c-4.7,1.9-13.6,4-13.6,4l-6,.6-4.2.3-.3-2s5.5-1.2,7.6-2c2.3-.9,5.7-1.8,7.8-3.4-.1-.1-1.9-1.5-2-1.7l10.9,4.2h0Z"/>
  <path class="st0" d="M233.8,189.1s-7.4-2.2-9.4-2.9c-5.4-1.9-10.7-3.7-16-5.7-5.2-1.9-15.7-5.1-15.7-5.1,0,0-27.4-12.9-35.3-15.9-3.7-1.4-15.3-3.5-15.3-3.5,0,0-.3,4,.1,4.4.9.9,20.9,8.5,20.9,8.5,0,0,21.2,12,29.6,15.4,3.6,1.4,7.2,2.8,10.8,4.2,2,.8,16.1,6,16.1,6,0,0,8.3,3.6,12.6,5.4.1.1,2-6.7,2-6.7l-.4-4.1h0Z"/>
  <path class="st0" d="M189.1,178.9c-4.7,1.9-13.6,4-13.6,4l-6,.6-4.2.3-.3-2s5.5-1.2,7.6-2c2.3-.9,5.7-1.8,7.8-3.4-.1-.1-1.9-1.5-2-1.7l10.9,4.2h0Z"/>
  <path class="st0" d="M187.1,142.9s-7.4-2.2-9.4-2.9c-5.4-1.9-10.7-3.7-16-5.7-5.2-1.9-15.7-5.1-15.7-5.1,0,0-27.4-12.9-35.3-15.9-3.7-1.4-15.3-3.5-15.3-3.5,0,0-.3,4,0,4.4.9.9,20.9,8.5,20.9,8.5,0,0,21.2,12,29.6,15.4,3.6,1.4,7.2,2.8,10.8,4.2,2,.8,16.1,6,16.1,6,0,0,8.3,3.6,12.6,5.4.1.1,2-6.7,2-6.7l-.4-4.1h0Z"/>
  <path class="st0" d="M142.3,132.6c-4.7,1.9-13.6,4-13.6,4l-6,.6-4.2.3-.3-2s5.5-1.2,7.6-2c2.3-.9,5.7-1.8,7.8-3.4-.1-.1-1.9-1.5-2-1.7l10.9,4.2h0Z"/>
  <path class="st17" d="M188.4,82.2s9.4,4.7,12,5.8c7,3.1,14,6.2,21,9.2,6.9,2.9,20.2,9.6,20.2,9.6,0,0,38.9,12.1,49.4,16.5,4.9,2,18.4,10.8,18.4,10.8,0,0-3.3,4.7-4,4.8-1.7,0-28.4-10.7-28.4-10.7,0,0-31.8-7.2-43.3-11.6-4.8-1.9-9.7-3.8-14.5-5.8-2.6-1.1-21.4-9-21.4-9,0,0-11.6-4-17.4-6.2-.2,0,3.9-9.3,3.9-9.3l4.1-4.1h0Z"/>
  <path class="st17" d="M256.5,121.2c2.3,2.8,5.5,5,8.4,7.4,1.1.9,3.3,2.4,3.3,2.4l2.7,2,2.5-.7s-2.4-2.5-3.5-3.7c-1.2-1.3-2.9-3.1-3.6-4.5.1,0,.3,0,.4,0l-10.4-3h0Z"/>
  <path class="st17" d="M189.2,153.7s8.2,4.1,10.4,5.1c6.1,2.7,12.2,5.4,18.3,8,6,2.5,17.6,8.4,17.6,8.4,0,0,33.8,10.5,43,14.3,4.2,1.8,16,9.4,16,9.4,0,0-2.9,4.1-3.5,4.1-1.5,0-24.7-9.3-24.7-9.3,0,0-27.7-6.2-37.6-10.1-4.2-1.6-8.4-3.3-12.6-5-2.3-.9-18.6-7.8-18.6-7.8,0,0-10.1-3.5-15.1-5.4-.2,0,3.4-8.1,3.4-8.1l3.6-3.6h0Z"/>
  <path class="st17" d="M248.5,187.6c2,2.4,4.8,4.4,7.3,6.5.9.8,2.9,2.1,2.9,2.1l2.4,1.8,2.2-.6s-2.1-2.2-3-3.2c-1-1.1-2.5-2.6-3.1-3.9.1,0,.2,0,.4,0l-9-2.6h0Z"/>
  <path class="st17" d="M216.4,132.8s-8.3-3.8-10.6-4.7c-6.2-2.5-12.3-5-18.6-7.3-6-2.3-17.8-7.7-17.8-7.7,0,0-34.2-9.4-43.5-12.9-4.3-1.6-16.2-8.8-16.2-8.8,0,0,2.8-4.2,3.4-4.2,1.5-.1,25,8.5,25,8.5,0,0,28,5.3,38,8.8,4.3,1.5,8.5,3.1,12.8,4.6,2.3.8,18.9,7.2,18.9,7.2,0,0,10.2,3.2,15.3,4.8.2,0-3.3,8.2-3.3,8.2l-3.5,3.7h0Z"/>
  <path class="st17" d="M156.1,101c-2.1-2.3-4.9-4.2-7.5-6.2-.9-.7-2.9-2-2.9-2l-2.4-1.7-2.2.7s2.1,2.1,3.1,3.1c1,1.1,2.6,2.6,3.2,3.8-.1,0-.2,0-.4,0l9.1,2.3h0Z"/>
  <path class="st17" d="M202.1,189.5s-8.3-3.8-10.6-4.7c-6.2-2.5-12.3-5-18.6-7.4-6-2.3-17.8-7.7-17.8-7.7,0,0-34.2-9.4-43.5-12.9-4.3-1.6-16.2-8.9-16.2-8.9,0,0,2.8-4.2,3.4-4.2,1.5-.1,25,8.5,25,8.5,0,0,28,5.3,38,8.8,4.3,1.5,8.5,3.1,12.8,4.6,2.3.8,18.9,7.1,18.9,7.1,0,0,10.2,3.1,15.3,4.9.2,0-3.3,8.2-3.3,8.2l-3.5,3.7h0Z"/>
  <path class="st17" d="M141.9,157.7c-2.1-2.3-4.9-4.2-7.5-6.2-.9-.7-2.9-2-2.9-2l-2.4-1.7-2.2.6s2.2,2.1,3.1,3.1c1,1.1,2.6,2.6,3.2,3.8-.1,0-.2,0-.4,0l9.1,2.3h0Z"/>
  <path class="st17" d="M252.9,270.1s-8.3-3.8-10.6-4.7c-6.2-2.5-12.3-5-18.6-7.4-6-2.3-17.8-7.7-17.8-7.7,0,0-34.2-9.4-43.5-12.9-4.3-1.6-16.2-8.9-16.2-8.9,0,0,2.8-4.2,3.4-4.2,1.5-.1,25,8.5,25,8.5,0,0,28,5.3,38,8.8,4.3,1.5,8.5,3.1,12.8,4.6,2.3.8,18.9,7.1,18.9,7.1,0,0,10.2,3.1,15.3,4.9.2,0-3.3,8.2-3.3,8.2l-3.5,3.7h0Z"/>
  <path class="st17" d="M192.7,238.3c-2.1-2.3-4.9-4.2-7.5-6.2-.9-.7-2.9-2-2.9-2l-2.4-1.7-2.2.6s2.1,2.1,3.1,3.1c1,1.1,2.6,2.6,3.2,3.8-.1,0-.2,0-.4,0l9.1,2.3h0Z"/>
  <path class="st21" d="M213.3,87.3c.1,2.2,6.6,9.2,6.6,9.2,0,0,6.8,11.5,7.9,21.9,1.3,12.3-4.6,27.8,3,24.4,4.1-1.8,1.9-7.2,2.2-10.8.9-8.5-2.2-22.8-2.2-22.8,0,0-9.7-26.3-17.6-21.9h0Z"/>
  <path class="st18" d="M192.3,310.8c-1.9,10.7-7.1,31.6-7.1,31.6,0,0-12.8,11.9-20.2,16.6-16.9,10.7-21.1,18-24.2,30.3,9.7,11.7,29.3,33.7,29.3,33.7,0,0,35.3-9.7,53.8-23.8,15.5-11.8,24.6-25.1,24.6-25.1,0,0,9.5-18,20-35.2,14.5,9.5,18.7,26.4,18.7,26.4,0,0-2.2,16.4-4.4,25.3-4.8,19.8,1.8,39.7,1.8,39.7l38.4-1.2s20.3-6.3,32.2-58.5c2.8-12.5-18.1-56.8-18.1-56.8,0,0-13-20-24.7-33.8-2.2-2.6-2.9,1.7-5.9.1-3.3-1.7-7.1-2-10.8-2.3-22.3-1.8-52-9.6-74-5.7-17.3,3.1-25.9,22.6-29.1,38.6h0Z"/>
  <path class="st11" d="M386.4,186.4l36.7,12-4.4,34.7s-8.6,4.6-24.8,6.8c-18.4,2.5-39.3-5.7-39.3-5.7l-17.1-9.9s-5.5,33.2-5.7,35.6c-1.3,18,.3,35.6.3,35.6l-42.4,8.2s-26.9.9-67.4-7.7c-4.3-.9-28.7-7.3-28.7-7.3,0,0,7.7-24.3,14.8-41.9,6.5-16.3,11.6-31.8,20.5-46.9s22.4-28.2,39.2-33.3c4.3-1.3,8.8-2.1,13.3-2.6,15.8-1.8,33.8-4.5,48.7,1.6,8.7,3.6,22.3,9.2,31.2,12.3,10,3.5,25.2,8.6,25.2,8.6h0Z"/>
  <path class="st16" d="M290.8,201.2c.2.3,2.1-.9,2.5-.9s.6-.2.8-.4c4.7-4.6,9.3-9.2,13.6-14.1,2.5-2.9,4.9-6,6-9.7.3-.9.5-1.9,0-2.6-.5-.7-1.3-.9-2.1-1.1-8.8-1.6-18.3,1.6-26.8-1.4-2.8-1-13.2-12.8-13.5-9.6-.2,2.9,6.5,19.7,7.6,22.3,2.5,6.3,7.8,12.2,12,17.6h0Z"/>
  <path class="st18" d="M294,196.3s7.6-9.1,15.5-17.6c5.9-6.4,8.5-11.9,13.5-16.4,1.1-1,3.9,1.8,5,2.7,1.1.9-1.3,6.8-2,8.1-4.8,8.4-14.4,21.1-14.4,21.1,0,0-15.5,21.1-24.9,26.6-3-6.3-12.5-23-12.5-23,0,0-7-14.8-10.5-22.1-1.1-2.2-2.1-4.9-1-7.1,1.2-2.4,7.1-7.8,8.8-9.9,2.3,1.1,7.7,13.3,12.5,23.4,3.7,7.8,10,14.3,10,14.3Z"/>
  <path class="st4" d="M310.9,209s4,1.2,4.9,1.9c3.5,2.9,8,14.3,8,14.3l.8,5.8s-2.6.5-4.4.8c-2.2.3-5.9.4-10.3.6-6.3.2-16.8-.6-16.8-.6,0,0-7.5-.4-6.4-8,.9-6.1,7.2-8.9,7.2-8.9l17.1-5.9h0Z"/>
  <path class="st12" d="M252.1,243.8s-8.8,6.1-22,14.2c-10.1,6.2-42.4,10.5-42.4,10.5l2.7,25.1s42.2-17,50.2-23.9c14.9-12.7,22.6-25.7,22.6-25.7l11-22.8-22.2,22.6h0Z"/>
  <path class="st13" d="M172.8,262.1c-.5,1.3-21.3,38.8-21.3,38.8l-23.7,44.6-11.1,24s10.6,8.8,10.9,9c0,0,23.5-39,36.5-65.2,25.6-51.6,53.4-115.2,63.8-139.8,6.3-15,28.1-76.8,28.1-76.8,0,0,3.6-14.2-5.9-10.5-4.3,1.7-17.3,38.7-19.3,43-4,8.5-8,17-11.9,25.5-7.7,16.6-15.1,33.4-22.4,50.2-8.2,19-16.1,38.1-23.8,57.3h0Z"/>
  <path class="st13" d="M262.8,144.6c.6.1,1.4.3,1.7.9.3.4,3.8,2.6,3.8,3.1-.4,3.2.5,6.7-.6,9.7-.1.3-5.5-1.4-5.8-1.2-.5.4-1.2.3-1.8.1-7-1.7-14.3-1.9-21.3-.5-9.5,1.8-7.5-10.4-1.5-13.6s19.2.3,25.5,1.5h0Z"/>
  <path class="st13" d="M122.5,216.1l20.2,19.8s25.5,18.2,39.3,21.8c7.4-14,2.5-19.4-10.8-24.6-13.3-5.2-48.7-16.9-48.7-16.9h0Z"/>
  <path class="st4" d="M257,222.8c-29.1,11.8-62.2,20.5-94.2,24.8-5.1.7-22.6.4-22.6.4l-11,17.1s25,5.4,35.2,3.6c11-2,20.4-2.7,30.7-6.4,11-3.9,29.1-10.7,29.1-10.7,0,0,23.9-9.1,33.7-14.8s18-13.6,18-13.6l-1.3-6.1s-13.3,4-17.6,5.7h0Z"/>
  <path class="st5" d="M210.6,249.7c1.2.9,3.7,1.9,3.5,3.4-.4,3.2-5.7,1.5-5.7,1.5,0,0-3.2-1.5-4.9-1,2,2.5,5,8.1,5,8.1,0,0,5.9,12.1,2.6,13-3.1.7-4.1-3.1-6.1-5.7-1.9-2.4-3.4-3.7-3.4-3.7,0,0,1.4,6.6,1.8,9.4.2,1.5-.3,6.6-1.8,6.9-2.3.4-3.1-1.9-3.9-6.3-.4-2.1-3.1-6.3-3.1-6.3,0,0,1.5,7.6.9,10.1-.3,1.2-.9,5.8-3.7,4.5-.4-.2-1.3-3.5-1.8-5.7-.6-3.2-2.8-7.6-2.8-7.6,0,0-1.2,6.1-1.5,7.8s-1.5,3.5-3.1,3.3c-2.1-.3-2.3-3.1-2.3-5.2,0-11.7-7.8-13.7-7.8-25.4,0-.8.9-6.8.9-6.8l21.5-8.6s9,9.4,15.7,14.1h0Z"/>
  <path class="st11" d="M230.5,152.3c-32.2,1.2-57.4,17-57.4,17,0,0-8.8,5.9-13.5,11.1-5.9,6.7-8.2,10.1-10.5,18.7,0,0-2.6,14.6,1.5,26.9,3.3,10,16.4,22.2,16.4,22.2l31-9.1,2-23s11.4-4.6,17.6-5.1c2.4-.2,4.9-.3,7.2-1.2,4.4-1.7,7.1-5.9,10.7-9,6.1-5.2,42.2-36.1,41-46.7-1-8.5-32.3-2.4-46-1.9h0Z"/>
  <path class="st21" d="M250,151.7s-.9-1.3-4.1-2c-2.5-.6-4.1,1.4-3.9,1.6,11.3,7.4,7,35.5,7,35.5,0,0-10.2,19.9-19.5,29.6-8.7,9.1-23.7,19.3-23.7,19.3,0,0-3,1.8-6.7,4,1.5,1.4,3.2,3.1,5,4.7,9.4-5.6,19.2-14.4,19.2-14.4,0,0,1.8-1.5,10.5-10.8,9-9.5,20.6-25.6,22.2-38.6,1.1-9.4-6-28.9-6-28.9h0Z"/>
  <path class="st21" d="M334,166.6s-3.9-4.2-7.1-4.6c-2.5-.3-3.9.6-3.6.8,12,6.2,15.2,47.8,15.2,47.8l-1.3,16.2s1.4.6,5.3-6.9c1.2-2.3,2-10.6.1-27.2-1.7-14.9-8.5-26.3-8.5-26.3h0Z"/>
  <path class="st5" d="M316.7,173.6c-4.1,6.1-6.2,7.1-12.3,7.2-9.5.1-22.5-6.6-30.2-14.6-3.6,14.3-12.9,24.6-12.9,24.6,0,0-15.2,10.8-25.9,3-8.1-5.9-6.3-19-6.3-19,0,0,4.6-10.5,12.3-12.4,5.6-1.4,29.3-3.6,29.3-3.6,0,0-1.8-7-3.5-11.4s-4.5-12.1-4.5-12.1c0,0-7.9-3.7-9.4-8.1-3.8-11.2-2-18.2,1.6-20.8s7.2-2.9,8.8,2.4c-.1-5.4,4-.2,9-.4,12.5-.7,24.9,1.8,37.1,4.4,5.8,1.2,11.5,2.6,17.3,3.6,3.9.7,10.6-3.9,10.6-3.9,0,0,1.2,23.8-3,35.8-1.5,4.3-9.8,13.7-9.8,13.7.3-1-4.1,5.5-8.2,11.6h0Z"/>
  <path class="st15" d="M262.8,104c-1.2,3.8.7,22,.2,27.7,3.9-1.2,12-11.7,12-11.7,0,0,5.5-7.7,7.7-11.3l-19.9-4.7h0Z"/>
  <path class="st15" d="M297.1,75.6c-1.9-9.7-.3-12.4-.3-12.4,0,0,6.3-5.8,13.4-.3,2.5,2,.4,7.9.4,7.9,0,0-2.2,3.1-3,5.2,5,1.1,12.2,4,16.7,6.8,11.6,7.3,12.6,11.4,14.6,16.6,1.8,4.8,2.9,10.2,1.8,17.9-4.5,2.6-54.4-7.7-59.6-8.7-6.8-1.2-18.3.4-16.5-9.8.8-4.4,1.7-8.7,4.8-12.9,3.5-4.7,7.2-5.8,7.2-5.8,0,0,12.9-4.5,20.5-4.6h0Z"/>
  <path class="st6" d="M288.5,129.3c1.9-1.1,4.6-1.1,7-.4,0,0,2.1,1.5,3,3.3.9,1.8.1,3.9-1.6,5.1-1.7,1.2-4.4,1-6.6.4-2-.6-3.5-2.6-3.5-2.6,0,0-1.4-4,1.7-5.8h0Z"/>
  <path class="st7" d="M291.5,128.4s.7-.2,2.8.1c2.8.5,3.8,1.8,4.5,3.5s-.4,5.1-2.4,5.7c-2.8.9-4.9.3-4.9.3,0,0-2.4-2-2.5-4.8-.1-2.1,2.5-4.8,2.5-4.8h0Z"/>
  <path class="st6" d="M324.8,134.6c1.7-1.1,4.2-1.3,6.3-.8,0,0,2,1.2,2.9,2.8s.3,3.6-1.1,4.7-4,1.2-6,.8c-1.9-.4-3.3-2.1-3.3-2.1,0,0-1.5-3.6,1.2-5.4Z"/>
  <path class="st7" d="M327.5,133.6s.6-.2,2.5,0c2.6.3,3.5,1.4,4.3,2.9.8,1.5,0,4.6-1.9,5.3-2.5.9-4.4.5-4.4.5,0,0-2.3-1.7-2.6-4.2-.2-1.9,2-4.5,2-4.5h0Z"/>
  <path class="st23" d="M313.9,160.8c0-1.8-7.9-5.6-13-3.1-2.2,1.1-4,3.2-4,3.2,0,0-1.5,2.4-1.4,2.8,1.2,3.9,7.3,5.1,10.3,5.3,2.5.2,5.7-1.8,5.7-1.8,0,0,2.5-2.1,2.4-6.4h0Z"/>
  <path class="st3" d="M323.4,154.6h0s0,0,0,0h0Z"/>
  <path class="st6" d="M253.6,133.8c-1.3.8-3.5,2.8-3.5,2.8,0,0-1.3,3-.5,4.2.9,1.4,2.9,1.8,4.5,1.2,1.6-.6,3.9-3.2,3.9-3.2,0,0,4.7-6.5,6.4-10.1,0,0-7,2.8-10.8,5.1h0Z"/>
  <path class="st6" d="M219.4,140.4c-1.5.3-4.2,1.5-4.2,1.5,0,0-2.1,2.4-1.8,3.9.4,1.6,2.2,2.6,3.9,2.6,1.7,0,4.7-1.8,4.7-1.8,0,0,6.5-4.7,9.3-7.6,0,0-7.5.4-11.9,1.4h0Z"/>
  <path class="st19" d="M288.7,216.5c-3-1.3-13.6-1.5-13.6-1.5,0,0-3.9,9.9-5.2,13.8-.4,1,1.2,3.4,1.7,3.4,4.8.2,9.5.5,14.3.7.6,0,2.8-1.5,2.8-1.5,0,0,3.6-10.9,0-14.9h0Z"/>
  <path class="st10" d="M171.4,447.6c.1-.2.2-.4.2-.6,0-.2-.2-.4-.4-.5-.7-.5-1.4-1-2.1-1.5-2,3.7-4.7,6.8-7.2,10.1,3.7,3.4,8.1-5.1,9.5-7.6h0Z"/>
  <path class="st22" d="M6.3,394.3c31.3-.2,62.6-.5,93.9-.8,1.5,0,1.1-2.3-.3-2.3l-93.9.8c-1.5,0-1.1,2.3.3,2.3h0Z"/>
  <path class="st22" d="M29.5,372.2c25.3-.3,50.6-.6,75.9-1,1.5,0,1.1-2.3-.3-2.3-25.3.3-50.6.6-75.9,1-1.5,0-1.1,2.3.3,2.3h0Z"/>
  <path class="st22" d="M214.9,430.3l51.6,1.7c1,0,1.1-2.2.1-2.2-17.2-.6-34.4-1.1-51.6-1.7-1,0-1.1,2.2-.1,2.2h0Z"/>
  <path class="st22" d="M88.6,359.9c4.8.3,9.5.6,14.2.9,1.5,0,1.7-2.2.2-2.3l-14.2-.9c-1.5,0-1.7,2.2-.2,2.3h0Z"/>
  <path class="st22" d="M193.2,441.3c25.3.5,50.6.9,75.9,1.4,1.5,0,1.2-2.2-.2-2.3-25.3-.5-50.6-.9-75.9-1.4-1.5,0-1.2,2.2.2,2.3h0Z"/>
  <path class="st22" d="M84.1,68.9c6.6-12.9,17.2-23,30.5-28.9,1.3-.6.3-2.6-1-2-13.6,6-24.6,16.4-31.4,29.7-.7,1.3,1.2,2.6,1.9,1.3h0Z"/>
  <path class="st22" d="M104.4,70.1c3.8-8.6,12.5-13.8,21.8-13.3,1.5,0,1.6-2.2.2-2.3-10.4-.6-19.9,5.3-24.1,14.9-.6,1.3,1.6,2.1,2.2.8h0Z"/>
  <path class="st22" d="M461.6,177.7c10.4,3.2,16.2,14.9,12.8,25.1-.5,1.4,1.7,2,2.2.6,3.8-11.4-2.9-24.3-14.3-27.9-1.4-.4-2,1.8-.6,2.2h0Z"/>
  <path class="st22" d="M484.9,169.9c5.4,5.3,8.1,12.1,7.8,19.6,0,1.5,2.2,1.5,2.3,0,.3-8.1-2.7-15.6-8.4-21.3-1-1-2.7.6-1.6,1.6h0Z"/>
  <path class="st15" d="M276.7,166.7c2.1,14.3,6.8,28.4,13,41.1.4.8,1,1.7,1.8,1.7,7.6-7.1,19.3-24.8,19.3-24.8,0,0,4.8-6.5,4.6-10.8-9.8,10.4-8.7-1-10.5-1.9-2.7-1.5-4.4.2-4.4.2,0,0-4.1,4.9-8.3,3.6-2.4-.7-15.4-8.1-15.5-9.1h0Z"/>
  <path class="st1" d="M299.2,153.9c-.7.3-2.6.8-3.3,1.1-3.7,1.7-7.1,9.8-7.1,9.8l.3-2.7s1.2-3.4,1.9-4.4c.6-.9,1.2-1.8,1.8-2.7.2-.3.4-.6.7-.8.3-.2.6-.3.9-.5,2-.9,9.9-4.5,9.9-4.5,0,0-1.6,3.1-5.1,4.6h0Z"/>
  <path class="st1" d="M318.6,159.8c.2.6.5,3.5.5,3.5,0,0-1.1,2.4-1.4,3.3-.5,1.4-1.1,3.3-1.1,3.3,0,0,3-4.9,4-7,.3-.5-.2-2.8-.3-3.2-.9-2.4-1.2-7.8-1.2-7.8,0,0-1.5,5.3-.5,7.9h0Z"/>
  <path class="st15" d="M301.4,154.9c5.5,1.8,11.3,2.3,17.1,2.7.1,0,.3,0,.4,0,.2,0,.2-.3.3-.4.5-1.6.5-3.3,0-4.9-.1-.5-.3-1.1-.7-1.4-2.3-2.1-6.4-1-9.1-.6-1.8.3-3.6.4-5.2,1.3-.3.2-3.5,3.2-2.8,3.4h0Z"/>
  <path class="st8" d="M315.7,132.3l-3.4,9.4-2.4,8.5s6.2,2.1,9,.6c-.4-1.3-1.3-9-1.3-9l-1.8-9.5h0Z"/>
  <path class="st15" d="M284.2,121.6s-1.7,1.1-1.4,1.9c.3.9,1.4.8,2.3.6,5.1-1.1,15.5-.4,15.5-.4,0,0,1.2.2,1.6-.1.6-.4.7-1.2.5-1.9s-1.3-1.5-1.3-1.5c0,0-6.1-1.1-8.5-.9-3,.2-8.7,2.2-8.7,2.2h0Z"/>
  <path class="st15" d="M331,124.7s3.5,1,5,1.9,2.7,2.1,3.1,3.6c0,.1,0,.3,0,.4-.2.4-.9.4-1.4.2-.5-.1-1.4-.3-1.4-.3,0,0-7.4-2-11-3.4-2.2-.8.3-2.9.3-2.9l5.4.4h0Z"/>
  <path class="st18" d="M341.7,104v16.6c0,0-17.9-2.7-25.3-3-30.1-1.1-53.3,5-53.3,5l-1.4-10.6.5-10s34.1-5.1,42.3-5.2c18.6-.2,37.2,7.2,37.2,7.2h0Z"/>
</svg>