<?xml version="1.0" encoding="UTF-8"?><svg id="_레이어_1" xmlns="http://www.w3.org/2000/svg" viewBox="0 0 500 500"><defs><style>.cls-1{fill:#55234c;}.cls-2{fill:#ba261e;}.cls-3{fill:#497e42;}.cls-4{fill:#6aa2da;}.cls-5{fill:#422a51;}.cls-6{fill:#fff;}.cls-7{fill:#4a75b9;}.cls-8{fill:none;}.cls-9{fill:#a01753;}.cls-10{fill:#e8ea7d;}.cls-11{fill:#cd5a27;}.cls-12{fill:#6d6030;}.cls-13{fill:#da992b;}.cls-14{fill:#e5b532;}.cls-15{fill:#a33e74;}.cls-16{fill:#f9f2c7;}.cls-17{fill:#1e2441;}.cls-18{fill:#623d2d;}.cls-19{fill:#e7f2f2;}.cls-20{fill:#53341e;}.cls-21{fill:#452a66;}.cls-22{fill:#504036;}</style></defs><rect class="cls-8" width="500" height="500"/><path class="cls-13" d="M343.46,255.72c-5.85-12.57-25.39-32.09-25.39-32.09,0,0-29.83-5.24-37,6.63,6.73.02,20.18.05,20.18.05,0,0-18.84,8.37-26.42,15.27,7.05,3.6,22.39-2.2,22.39-2.2,0,0-14.39,6.63-17.25,13.77,5.9.38,14.3-3.05,19.56-5.75-3.27.71-14.04,13.18-14.51,16.49,3.3.63,15.25-5.55,18.14-7.26-2.04,3.04-9.94,10.47-7.59,15.17.85,1.7,10.45-7.94,15.83-7.26,7.17.91,10.47,11.85,10.47,11.85,0,0,8.21,20.56,14.24,29.79,13.09,20.05,34.53,14.82,53.8.59-4.86,41.36-25.07,58.72-29.79,128.83-.18,2.69,1.37,7.75,1.37,7.75,0,0,22.69-.29,38.31-1.99,3.19-.35,26.53-.29,27.33-3.4,9.62-37.5,10.28-80.38,10.28-80.38,0,0-1.06-37.1-7.54-90.87,30.64-8.09,29.01,53.89,29.01,53.89,0,0-17.2,51.6-17.51,73.92-.05,3.64.48,20.87,3.96,19.79,1.27-2.83,5.94-23.09,5.94-23.09,0,0,.36,19.32,5.94,27.71,5.2-5.66,5.94-23.09,5.94-23.09,0,0,2.26,14.38,7.41,21.14,3.63-6.57,3.16-21.82,3.16-21.82,0,0,5.36,17.73,8.56,22.45,3.3-5.94-1.79-16.21,0-21.11-1.76,2.84,10.8,12.75,12.53,9.9,1.73-2.85-8.58-14.51-8.58-14.51,0,0-7.49-10.5-8.58-27.71-1.9-29.94,10.63-84.5-1.11-112.11-13.74-32.3-85.31-21.15-85.31-21.15,0,0,2.2,43.05-9.9,50.8-19.27,12.33-32.19-17.78-37.87-29.99"/><path class="cls-14" d="M366.61,103.55c-3.43,11.83-.6,36.79-.6,36.79,0,0-1.84,25.29-19.65,43.43-16.46,16.76-8.16,42.84-8.16,42.84,0,0,9.88,10.26,16.56,12.71,13.53,4.96,28.33,3.66,42.72,4.32,17.82.83,35.62-5.33,35.62-5.33,0,0,21.87-11.87,26.63-22.95,6.53-15.19,12.38-39.44-.55-49.73-16.16-12.86-18.14-36.62-18.14-36.62,0,0,1.1-32.74-4.72-43.17-16.64-29.88-62.29-7.88-69.71,17.71"/><path class="cls-19" d="M383.96,155.21c-5.52-.76-15.54,1.93-18,7,2.28,2.17,7.85,5.08,7.85,5.08,0,0,9.23,2.62,14.58,1.91,2.98-.4,10.3-6.47,10.3-6.47,0,0-7.41-7.28-14.73-7.52"/><path class="cls-20" d="M381.65,155.08c-2.11.03-4.53.42-6.85,1.12-1.18,3.6-1.58,7.32-1.18,10.98.11.06.18.1.18.1,0,0,1.88.53,4.43,1.05,2.21-4.24,3.38-8.75,3.42-13.25"/><path class="cls-19" d="M424.84,153.43c-6.49.67-17.14,6.49-18.54,12.94,3.19,1.84,10.34,3.6,10.34,3.6,0,0,11.22.43,17.11-1.86,3.28-1.28,9.93-10.2,9.93-10.2,0,0-10.44-6.23-18.84-4.48"/><path class="cls-20" d="M422.18,153.93c-2.39.62-5.04,1.73-7.48,3.17-.34,4.42.23,8.77,1.7,12.82.14.04.24.06.24.06,0,0,2.28.09,5.32-.03,1.35-5.43,1.43-10.89.22-16.02"/><path class="cls-1" d="M440.62,200.04c3.56,3.59-1.01,8.83-4.19,12.77-14.7,18.22-42.41,18.97-42.41,18.97,0,0-26.3-1.77-32.63-14.86-10.4-21.49,11.45-17.99,24.47-17.42,8.6.38,49.67-4.6,54.76.54"/><path class="cls-5" d="M440.62,200.04c3.56,3.59-1.01,8.83-4.19,12.77-14.7,18.22-42.41,18.97-42.41,18.97,0,0-26.3-1.77-32.63-14.86-10.4-21.49,11.45-17.99,24.47-17.42,8.6.38,49.67-4.6,54.76.54"/><path class="cls-6" d="M420.01,214.21s4.87-8.6,7.08-16.5c-2.58-.03-5.38.01-8.26.1l-.06,2.29,1.24,14.1Z"/><path class="cls-6" d="M374.24,215.45s4.75-8.39,7-16.21c-2.67-.16-5.47-.31-8.18-.29l-.06,2.39,1.24,14.1Z"/><path class="cls-7" d="M163.93,178.31c-7.17.18-17-3.1-22.75-7.39-14.96-11.17-23.64-28.29-28.7-46.26-1.01-3.6-4.7-13.36-4.7-28.45.74-11.63,1.24-20.78.74-21.77-8.16,9.15-9.9,18.31-9.9,18.31,0,0-7.04-14.42-12.82-16.32-2.78,3.44,4.41,17.31,4.41,17.31,0,0-12.45-8.71-16.15-6.2,2.32,2.88,9.72,14.12,9.72,14.12,0,0-10.39-2.97-15.83.99,4.82.62,25.3,18.19,25.3,18.19,0,0,7.11,14.84,10.38,22.41,8.11,18.8,19.22,32.96,37.06,43.01,30.09,16.96,47.01-5.94,47.01-5.94,0,0-2.97,35.84-2.97,51.46,0,22.76,10.39,48,10.39,48l56.9-3.46s3.22-30.91,0-47.5c-4.3-22.17-14.84-61.36-14.84-61.36,0,0,56.08-22.27,70.3-62.21,3.61-10.13,5.58-28.01,5.58-28.01,0,0,7.26-16.82,18.14-20.45-6.46-4.38-14.51-1.98-14.51-1.98,0,0-.65-10.85-.66-16.16-3.81,1.22-7.92,11.22-7.92,11.22,0,0-1.8-11.26-4.52-17.16-5.15,3-5.04,16.5-5.04,16.5,0,0-4.76-2.13-8.91-4.29-5.61-.99-10.26-1.77-14.6,2.58,16.55-.5,25.69,24.88,23.51,41.29-4.35,32.62-36.62,56.74-65.31,60.37-.64-8.49-3.13-23.57-.1-31.52-17.16,4.55-47.03,18.93-47.03,18.93,0,0,1.88,41.17-22.16,41.76"/><path class="cls-4" d="M145.75,134.79c53.49,13.86,107.44-10.09,107.44-10.09,0,0,24.55-11.01,27.5-23.16,1.84-7.58-.81-15.79-5.7-21.87-21.2-26.35-98.55-10.8-98.55-10.8,0,0-30.81,8.03-42.19,28.81-9.84,17.96-.59,33.98,11.5,37.11"/><path class="cls-10" d="M184.4,110.75c-5.36,2.37-15.83,2.5-23.11.91,0,0-5.6-.79-13.08-4.87,14.95-7.57,35.3-9.84,51.95-7.99-2.22,7.14-8.07,8.55-15.76,11.95"/><path class="cls-20" d="M180.16,112c-1.34.26-2.79.45-4.31.56-2.39-3.92-3.54-8.57-3.24-13.15,1.15-.17,2.3-.33,3.46-.46,3.07,2.92,5.51,8.77,4.09,13.05"/><path class="cls-10" d="M238.35,105.57c5.82.63,15.85-2.42,22.3-6.14,0,0,5.09-2.45,10.99-8.6-16.54-2.69-36.62,1.32-51.93,8.14,4.28,6.13,10.28,5.7,18.64,6.61"/><path class="cls-20" d="M242.77,105.47c1.36-.16,2.8-.42,4.28-.77,1.09-4.46.77-9.24-.9-13.51-1.15.18-2.3.39-3.44.61-2.05,3.71-2.59,10.03.06,13.68"/><path class="cls-2" d="M184.8,128.56s7.14,5.19,12.46,5.25c15.01.17,29.89-2.5,37.35-12.55-16.38,3.73-49.81,7.3-49.81,7.3"/><path class="cls-3" d="M207.78,102.1s-4.49,6.1-7.41,9.86c0,0-3.94,6.99-5.75,10.91,4.97.63,10.01.67,14.99.13,4.01-.44,7.97-1.25,11.83-2.44-1.04-3-4.22-8.53-4.22-8.53l-9.43-9.94Z"/><path class="cls-6" d="M197.03,132.38c.22.09.85-3.05.76-5.34-1.37.17-2.66.33-3.86.47.57,1.42,1.68,2.93,1.68,2.93l1.42,1.94Z"/><path class="cls-6" d="M222.79,129.01l.71-2.3s.59-1.88.64-3.43c-1.27.22-2.57.43-3.89.64.59,2.24,2.35,5.25,2.54,5.09"/><path class="cls-22" d="M234.09,139.36c12.41,12.66,24.81,25.32,37.22,37.98,1.12,1.14,2.87-.61,1.75-1.75-12.41-12.66-24.81-25.32-37.22-37.98-1.12-1.14-2.86.61-1.75,1.75"/><path class="cls-22" d="M226.05,147.05c7.77,16.34,15.54,32.69,23.3,49.03.68,1.44,2.82.18,2.14-1.25-7.77-16.34-15.54-32.69-23.3-49.03-.68-1.44-2.82-.18-2.14,1.25"/><path class="cls-22" d="M209.22,148.48v27.05c0,1.59,2.47,1.59,2.47,0v-27.05c0-1.59-2.47-1.59-2.47,0"/><path class="cls-22" d="M294.25,201.76l55.43,2.35c1.59.07,1.59-2.41,0-2.47l-55.43-2.35c-1.59-.07-1.59,2.41,0,2.47"/><path class="cls-22" d="M305.72,227.91c14.66-3.38,29.21-7.2,43.65-11.45,1.52-.45.87-2.84-.66-2.39-14.43,4.25-28.99,8.07-43.65,11.45-1.55.36-.89,2.74.66,2.39"/><path class="cls-22" d="M302.44,270.06c18.76-13.61,38.04-26.48,57.8-38.59,1.36-.83.11-2.97-1.25-2.14-19.76,12.11-39.04,24.98-57.81,38.59-1.28.93-.04,3.07,1.25,2.14"/><path class="cls-12" d="M456.54,89.27s-5.28-11.38-9.24-13.85c-5.83-3.65-5.28-3.63-11.86-6.19,4.93-6.02,8.56-8.66,8.56-8.66,0,0-10.06-2.47-14.02-2.47s-8.74,1.16-13.69,3.63c-.82-2.64-1.15-2.64-5.61-8.41-.81-1.05-5.26-4.77-5.26-4.77,0,0-5.7,4.88-6.78,6.59-1.81,2.86-4.51,6.89-4.51,6.89,0,0-3.8-1.79-4.39-1.94-8.91-2.31-14.35-.66-14.35-.66l7.09,13.53s-5.63-1.16-11.54-.49c-7.36.83-15.25,3.57-14.19,4.12,5.11,2.64,6.85,4.23,8.74,5.94-10.68,5.9-13.85,11.88-16.33,21.94,1.96-2.01,10.4-3.65,13.19-3.96-3.86,7.39-3.79,20.45-3.79,20.45l13.27-14.55s2.78,7.93,5.2,10.75c1.98,2.31,4.95,3.96,4.95,3.96,0,0,1.38-6.24,2.31-8.08.93-1.84,4.5-5.74,4.5-5.74l9.19,8.88s4.58,3.46,13.48,5.77c-1.24-3.34-1.36-6.06-1.36-10.39,0-.72,1.11-5.69,1.11-5.69,0,0,6.78,6.82,7.42,7.42,5.04,4.72,8.78,4.82,14.47,6.93-.99-5.2-1.86-9.77.62-13.73,4.58,3.59,9.65,6.93,12.25,11.26,3.44-11.11,6.92-17.67,1.73-28.08,2.83.25,8.64-.75,8.82-.37"/><path class="cls-15" d="M187.53,460.71l-52.45,6.43-66.09.17c-.92-7.14-6.64-31.34-4.66-64.99.23-3.92,10.95-53.81,13.36-56.9,3.49-4.47,19.83,7.66,25.24,5.94,29.55-9.44,54.92,28.2,54.92,28.2l29.69,81.15Z"/><path class="cls-9" d="M40.57,271.19c-5.12,15.8-6.27,24.74-4.95,40.57.53,6.33,7.4,21.5,9.08,27.63,5,18.21,26.79,26.27,45.67,26.04,29.22-.36,59.3-15.9,71.27-42.56,5.04-11.24,6.7-23.67,7.72-35.94.8-9.61-6.08-38.49-20.27-47.73-40.72-26.52-94.66-10.77-108.53,32"/><path class="cls-16" d="M117.63,264.49s-13.57,3.05-20.58,8.89c-7.01,5.84-12.37,22.47-12.37,22.47,0,0,28.65.47,45.24-5.18,8.52-2.9,20.31-18.05,20.31-18.05,0,0-20.62-9.66-32.6-8.13"/><path class="cls-20" d="M126.44,264.87c-2.58-.43-5.07-.63-7.34-.51-3.06,2.87-4.81,7.93-4.81,7.93,0,0-1.89,12.07.4,21.73,2.47-.35,4.91-.76,7.27-1.25,4.69-5.7,6.5-13.95,4.48-27.9"/><path class="cls-11" d="M166.81,305.6c-12.82.34-20.84-12.38-20.84-12.38l-18.8,4.95s-9.9,11.38-28.02,15.66c-5.95,1.4-4.65,11.36.06,15.27,4.76,3.96,24.74,4.7,30.18-11.13,1.73,6.43,4.39,10.55,10.39,11.13,6,.59,10.16-5.68,9.15-11.63,4.7,5.69,7.72,8.57,14.84,4.7,8.66-4.7,8.43-16.71,3.03-16.56"/><path class="cls-17" d="M153.14,328.34s-7.67,2.72-16.82,3.96l-40.82,5.69s15.78,13.1,23.01,13.85c19.05,1.98,24.74-8.16,24.74-8.16l9.9-15.34Z"/><path class="cls-6" d="M115.58,335.2l-5.44.76c-.36,3.74-.73,7.49-1.09,11.23,3.33-3.21,5.59-7.47,6.53-11.99"/><path class="cls-6" d="M147.4,330.06c-1.73.46-3.75.94-5.97,1.38l-.61,12.11s6.13-7.08,6.58-13.49"/><path class="cls-9" d="M164.77,370.38c13.03-13.07,28.92-23.28,46.23-29.71,5.34-1.98,16.23.35,16.23.35,0,0-5.07,11.82-4.07,7.36l13.72,3.28s-8.81,8.04-6.3,10.57c1.39,1.41,9.9,7.42,9.9,7.42l-9.4,7.92,3.96,11.38s-10.89-.99-17.81-2.47c-5.45-1.17-15.37-6.34-20.66-4.59-4.61,1.52-8.2,5.09-11.75,8.4-9.38,8.72-19.76,16.37-30.86,22.74-3.7,2.12-34.69,6.1-34.69,6.1l-.99-29.19s21.11.29,25.26-1.5c8.63-3.72,14.79-11.59,21.26-18.07"/><path class="cls-22" d="M181.88,314.83c11.05-5.84,22.09-11.69,33.14-17.53,1.41-.75.16-2.88-1.25-2.14-11.05,5.84-22.09,11.68-33.14,17.53-1.41.75-.16,2.88,1.25,2.14"/><path class="cls-22" d="M194.31,323.94c15.74-3.48,31.36-7.43,46.86-11.85,1.53-.43.88-2.82-.66-2.39-15.5,4.42-31.12,8.37-46.86,11.85-1.55.34-.9,2.73.66,2.39"/><path class="cls-22" d="M184.08,334.02c11.86.51,23.73,1.03,35.59,1.54,1.59.07,1.59-2.41,0-2.47-11.86-.51-23.73-1.03-35.59-1.54-1.59-.07-1.59,2.4,0,2.47"/><path class="cls-18" d="M38.25,203.11c3.28,6.94,5.11,10.94,7.63,18.19-15.13,2.87-24.46,8.32-36.77,17.57,7.55,2.24,14.23,7.28,18.46,13.92-6.98,1.79-15.94,13.69-15.94,13.69,0,0-5.05,13.47-6.63,20.5,6.15-2.42,12.56-4.16,19.08-5.19-3.56,12.73-6.6,31.12-6.11,41.02,10.78-8.47,10.52-7.17,19.3-16.08-1.35,6.84,10.6,9.24,20.29,11.88,3.83-20.71,3.98-42.06,18.39-57.41,2.7,4.36,6.01,9.68,7.33,15.55,8.51-10.56,15.39-24.2,16.11-30.82,11.23,2.47,27.57,6.26,37.14,12.63,1.17-5.87.38-10.13-2.05-14.96,11.86,1.61,17.9-.88,26.99-7.33-7.44-5.22-15.41-7.11-22.85-12.32,5.07-5.44,8.69-12.22,10.39-19.46-16.29-1.66-23.68-2.84-36.83,4.2,1.47-6.75,2.47-12.25,1.76-22-5.28,1.47-17.31,5.87-17.31,5.87l-16.72,11.44s-29.65-7.47-41.66-.88"/><path class="cls-9" d="M55.17,317.11c-5.5-6.3-35.71-19.2-40.99-18.54,0,0,9.9,17.81,14.18,32,3.81,12.61,17.42,21.18,26.06,17.48,3.05-1.31-.7-4.94,1.2-7.66,4.8-6.85,5.04-16.98-.46-23.28"/><path class="cls-21" d="M258.62,63.05c1.32-3.3,2.31-7.26,1.32-12.2-11.88,3.63-11.88,1.32-29.85,4.43-.17-4.76-.44-11.32-5.12-17.62-8.55,5.77-10.62,7.92-18.47,14.61-2.98-6.94-17.48-10.98-17.48-10.98,0,0-6.29,9.13-7.26,15.17-4.29-4.29-13.19-6.27-17.15-7.59,1.98,7.26,2.08,8.95.66,14.18-9.89-1.84-14.99-1.14-23.82,3.69,2.56,2.83,5.13,5.65,7.69,8.48-7.71,5.28-13.89,12.89-21.24,18.21,8.33,2.93,13.59,3.28,22.85,3.59,9.26.31,18.48-4.7,23.42-12.53,2.43,4.85,19.9,6.1,19.9,6.1,0,0,8.12-7.47,8.77-12.85,5.85,5.74,22.33,8.57,22.33,8.57,0,0,10.51-3.63,8.9-8.01,6.53,5.86,24.57,5.59,24.57,5.59,0,0,15.35-9.49,17.69-17.94-6.17-.26-12.1-1.25-17.71-2.9"/></svg>