<?xml version="1.0" encoding="UTF-8"?><svg id="_레이어_1" xmlns="http://www.w3.org/2000/svg" viewBox="0 0 500 500"><defs><style>.cls-1{fill:#af8135;}.cls-2{fill:#a35937;}.cls-3{fill:#305537;}.cls-4{fill:#592552;}.cls-5{fill:#4f8342;}.cls-6{fill:#6a923f;}.cls-7{fill:#86796e;}.cls-8{fill:#a55527;}.cls-9{fill:#beaa66;}.cls-10{fill:none;}.cls-11{fill:#5a4526;}.cls-12{fill:#f2e4bc;}.cls-13{fill:#d78361;}.cls-14{fill:#f9f0d8;}.cls-15{fill:#754d2a;}.cls-16{fill:#9f722c;}.cls-17{fill:#93633b;}</style></defs><rect class="cls-10" width="500" height="500"/><path class="cls-9" d="M417.49,449.7l56.24-32.81s19.79-13.02,19.27-15.62c-.52-2.6-144.97-17.58-209.94-31.55-10.04-2.16-47.83-7.17-46.58-16.98.85-6.67,47.39-16.98,47.39-16.98l65.19-22.45s23.81-11.82,30.39-17.69c16.06-14.35,16.15-41.35,1.61-57.12-24.54-26.6-101.9-32.82-101.9-32.82,0,0-42.67-1.14-82.83-4.23-8.9-.68-72.21-6.79-70.54-13.19,2.41-9.26,43.34-23.08,45.78-23.93,16.52-5.78,45.78-21.61,45.78-21.61,0,0,19.52-7.96,22.35-24.64,7.23-42.45-93.16-54.03-93.16-54.03l-106.4-13.76-21.52.52s-14.71,1.3-13.54,2.08c1.17.78,187.61,42.26,185.77,58.18-1.61,13.89-48.99,26.25-48.99,26.25,0,0-69.07,20.07-70.68,50.95-1.18,22.66,28.11,33.96,28.11,33.96,0,0,67.46,19.3,170.93,23.22,12.96.49,57.16,6.11,57.16,16.92,0,17.04-65.99,34.03-99.72,41.75-21.45,4.91-85.13,20.84-86.74,59.44-1.18,28.46,52.21,43.23,52.21,43.23,0,0,81.2,20.88,158.7,35.73,29.75,6.15,65.68,7.19,65.68,7.19"/><path class="cls-5" d="M217.44,194.94c2.36-3.51-.45-9.14-4.68-9.36,1.04-3.41,0-7.37-2.58-9.83-2.58-2.46-6.58-3.32-9.94-2.12,1.04-3.07-1.5-6.56-4.67-7.23-3.17-.67-6.49.94-8.65,3.36-1.33-2.65-5.15-3.14-7.79-1.8-2.64,1.34-3.24,4.24-2.67,6.06-2.19-1.41-6.3,0-8.37,2.34-1.73,1.95-1.5,4.84-1.02,7.4-2.38-.34-5.18,2-6.17,4.2-.96,2.13-.56,4.49-.56,4.49,0,0-4.29-.57-5.25,4.87-.43,2.44.12,4.53.12,4.53l5.94.83s20.42,2.16,25.54,2.09c8.41-.13,21.31-.18,21.31-.18l8.46-.78s3.41-7.11.97-8.87"/><path class="cls-6" d="M490.28,391.52s1.55-1.33,1.79-3.16c.4-3.04-2.27-7.92-5.32-7.65.78-3.23,1.86-5.39.74-8.52-1.13-3.12-7.82-6.49-10.7-4.83-.95-3.26-1.07-5.69-4.34-7.57-3.28-1.88-8.16-1.51-10.03,1.77-.46-6.08-5.42-8.01-10.7-6.91-2,.42-3.64,2.38-4.87,3.99-1.08-2.19-5.25-3.52-7.69-3.97-4.06-.76-6.56,2.15-9.23,5.3-1.77-3.33-6.65-3.84-9.98-2.05-3.32,1.79-3.51,4.21-4.55,7.44-2.83-1.73-9.62,1.44-10.84,4.53-1.21,3.09-.19,5.29.5,8.53-3.04-.36-5.85,4.45-5.54,7.5.19,1.84,1.7,3.21,1.7,3.21,0,0-5.38.31-4.87,7.33.22,3.04,1.34,6.53,1.34,6.53l9.11.24s17.39,1.61,23.89,1.36c.82-.03,1.68-.06,2.55-.1h.03s16.42.93,27.11,1.66c6.5.44,23.92-.68,23.92-.68l6.13-1.12s4.2-2.32,4.5-5.35c.71-7-4.65-7.46-4.65-7.46"/><path class="cls-5" d="M400.9,197.88l7.97-26.88s1.49-7.47,7.48-21.45c4.01-9.37,11.11-24.58,19.9-23.36,4.93.69,21.91,25.89,21.91,25.89,0,0,9.28,18.12,11.45,21.91,5.97,10.46,6.3,19,6.97,28.38,1,13.94-3.98,27.88-3.98,27.88,0,0-6.53,11.57-23.59,17.11-24.36,7.92-38.17-6.87-44.96-20.66-5.38-10.92-3.14-28.81-3.14-28.81"/><path class="cls-8" d="M447.2,246.17l-1-11.95-11.52.48-.43,18.93c.42,12.25-.5,21.41-.5,21.41l14.93,1-1.49-29.87Z"/><path class="cls-1" d="M251.39,246.04c-2.54,13.31-7.3,41.37-7.3,41.37l2.6.52,2.08-.35s4.73-24.37,6.77-36.1c.68-3.93,5.38-23.78,4.51-26.56-.45-1.45-1.39-1.05-2.65-1.33-2.21.98-4.12,14.7-6.02,22.45"/><path class="cls-13" d="M287.35,225.87c-1.4,2.38-3.65,2.58-4.62,3.56-.62.63-3.7,1.42-4.44,1.91-1.6,1.06-.4,1.43-2.32,1.37-2.37-.07-4.81-.16-6.97-1.15-2.16-.98-3.98-3.1-3.86-5.47.06-1.31.69-2.51,1.36-3.64,2.64-4.44,13.55-19.1,19.9-17.41,5.01,1.34,2.45,14.03,2.45,14.03,0,0-.55,5.17-1.5,6.78"/><path class="cls-7" d="M260.36,201.27c.62-2.55,3.72-4.52,5.99-3.19,1.59.93,1.99,3.37,1.89,5.21-.04.69,2.09-.66,2.09-.66,0,0,4.56-3.11,9.76-1.94,3.06.69,7.87,4.64,7.87,4.64,0,0-1.94,4.08-3.32,5.74-1.38,1.65-3.23,2.82-5.05,3.97-4.28,2.7-12.71,11.63-18.13,8.8-5.27-2.75-3.14-14.27,1.01-17.31-1.25-2.13-2.72-2.71-2.1-5.26"/><path class="cls-16" d="M260.76,313.57l7.66.86s1.51.79,5.14,2.62c.67.34,2.29,1.86,2.26,2.62-.08,2.21-2.05,2.5-3.66,2.53-3.15.06-5.74-.5-5.74-.5,0,0-4.02-.48-5.4-2.34-1.38-1.86-.26-5.78-.26-5.78"/><path class="cls-12" d="M264.23,288.09c.35,8.44-1.86,16.75-4.05,24.91,2.28,1.85,6.81,3.54,9.56,2.52,2.75-1.01,6.83-5.14,8.61-7.47,3.12-4.08,4.23-7.8,5.78-12.69,2.89-9.11,2.61-19.25,2.16-28.79-4.79-.49-15.6-1.39-19.78,1.63-5.36,3.87-2.51,14.43-2.29,19.89"/><path class="cls-16" d="M293.82,309.39l7.58-1.41s1.67.31,5.68,1.01c.74.13,2.73,1.12,2.92,1.85.56,2.14-1.23,2.98-2.77,3.48-3,.97-5.64,1.18-5.64,1.18,0,0-3.99.71-5.84-.67-1.86-1.38-1.93-5.45-1.93-5.45"/><path class="cls-7" d="M278.28,215.7c-.78,2.47-2.33,7.42-2.33,7.42l-2.5,5.56s-3.25,2.81-5.28,2.52c-3.02-.43-4.67-3.71-5.51-6.64,4.85-2.21,9.53-4.79,13.98-7.72"/><path class="cls-14" d="M306.99,282.82c2.16,6.44.41,15.56-2.28,21.8-1.56,3.61-11.12,6.67-11.12,6.67,0,0-2.59-4.91-3.58-8.16-.99-3.25-1.22-6.79-2.96-9.71-3.37-5.64-10.94-6.91-16.03-11.05-1.61-1.31-2.58-2.8-3.56-4.62-1.98-3.68-4.34-8-2.36-9.46,1.97-1.46,10.21.52,12.56-.18,7.97-2.38,11.13-4.3,17.93.92,4.79,3.68,9.43,7.9,11.4,13.8"/><path class="cls-4" d="M258.25,269.13c.05.6.12,1.25.5,1.72.5.63,5.11,1.25,5.11,1.25,0,0,16.14,1.34,25.81-2.24,1.18-.44,5.01-2.35,5.01-2.35,0,0,.4-5.08.43-6.21.13-4.47.36-13.96.36-13.96,0,0,13.47-3.98,17.74-9.16,2.99-3.63,6.59-14.29,6.59-14.29l-9.4-8.7s-8.47,8.86-13.91,11.49c-9.12,4.42-24.38-2.7-31.75,4.37-7.93,7.6-7.26,28.14-6.5,38.05"/><path class="cls-1" d="M350.07,247.13s5.55,4.3,6.24,4.2c1.93-.27-1.02-5.22-1.02-5.22,0,0-12.65-12.21-20.03-18.87-11.52-10.42-23.4-21.59-24-22.23-1.22,1.01-2.06,3.01-2.06,3.01,0,0,9.47,9.76,11.3,11.79.93,1.03,5.32,4.65,11.26,10.35,6.87,6.59,18.29,16.97,18.29,16.97"/><path class="cls-13" d="M311.81,219.66s1.53-7.73,4.95-10.06c3.41.62,5.14,3.51,5.52,4.45.5,1.25-.01,1.28-1.01,2-.85.61-.46,2.78-1.79,4.22-1.68,1.81-3,2.8-3,2.8l-2.04-1.23-2.61-2.18Z"/><path class="cls-1" d="M273.84,258.72c-6.38-.39-12.78-.39-19.16,0-.63.04-1.29.09-1.82.44-1.27.85-.22,2.88-.22,2.88-.48-.1,2.5,1.4,5.91,1.73,4.56.45,7.62.56,13.13,1.61-1.32,10.56-3.26,18.3-4.58,28.86,1.88.45,3.17.53,4.65.42,3.97-19.94,6.8-41.34,10.76-61.28.28-1.42.19-5.53.19-5.53,0,0-1.37-4.87-4.28-2.51-1.18.96-2.14,8.45-2.49,10.94-1.07,7.65-2.21,14.7-2.08,22.43"/><path class="cls-14" d="M287.93,203.7l2.55,3.82s-1.13,1.6-1.77,2.53c-1.12,1.65-6.67,5.81-12.42,10.09-4.15,3.09-9.25,7.52-12.55,7.26-1-.08-3.41-3.95-3.41-3.95,0,0,9.71-5.84,12.97-7.78,2.64-1.57,14.64-11.96,14.64-11.96"/><path class="cls-2" d="M266.38,227.94c-1.69.06-4.5.31-6.19.28-4.03-.07-10.72,1.05-10.72,1.05,0,0-2.37,2.29-2.9,4.06-.9,3-.87,6.84-1.55,9.67-.29,1.21-.45,7.45-.45,7.45,0,0,4.62,6.3,5.07,6.58,4.91,3.06,7.36,2.08,12.11,3.57,3.82,1.2,11.67-.62,11.67-.62,0,0,4.99-7.43,5.57-11.96.53-4.14-.73-17.63-.73-17.63,0,0-3.81-2.7-11.88-2.44"/><path class="cls-17" d="M242.03,228.31c-.05.65-.1,1.3-.15,1.95-.12,1.54,28.96,5.59,31.72,5.98,1.47.21,7.43.52,7.43.52l-1.09-3.12s-13.01-1.98-18.54-2.72c-6.46-.87-12.91-1.73-19.37-2.6"/><path class="cls-17" d="M241.43,234.19c-.05.65-.1,1.3-.15,1.95-.12,1.54,28.96,5.59,31.72,5.98,1.47.21,7.43.52,7.43.52l-1.09-3.12s-13.01-1.98-18.54-2.72c-6.46-.87-12.91-1.73-19.37-2.6"/><path class="cls-15" d="M240.24,246.59c.12.64.25,1.28.37,1.92.29,1.52,29.41-2.24,32.17-2.59,1.47-.19,7.31-1.46,7.31-1.46l-1.87-2.72s-13.07,1.52-18.61,2.26c-6.46.86-12.91,1.73-19.37,2.59"/><path class="cls-15" d="M241.41,231.11c.09.65.18,1.29.26,1.94.21,1.53,29.49-.6,32.27-.8,1.48-.11,7.38-1.05,7.38-1.05l-1.72-2.82s-13.13.79-18.7,1.22c-6.5.5-12.99,1.01-19.49,1.51"/><path class="cls-15" d="M247.49,255.47c.06.52.13,1.04.19,1.56.15,1.23,24.14-.8,26.42-.99,1.21-.1,6.05-.92,6.05-.92l-1.37-2.25s-10.76.78-15.32,1.19c-5.32.48-10.64.95-15.97,1.43"/><path class="cls-15" d="M242.21,238.26l.05,1.57c.04,1.24,24.12,1.42,26.4,1.44,1.22,0,6.11-.37,6.11-.37l-1.16-2.37s-10.78-.21-15.36-.22c-5.34-.01-10.68-.03-16.03-.04"/><path class="cls-15" d="M249.19,246.34c.02.52.03,1.05.05,1.57.04,1.24,24.12,1.42,26.4,1.44,1.22,0,6.11-.37,6.11-.37l-1.16-2.37s-10.78-.21-15.36-.23c-5.34-.01-10.69-.03-16.03-.04"/><path class="cls-17" d="M242.76,247.01c-.05.65-.17,1.2-.22,1.85-.12,1.54,24.89,5.27,27.65,5.66,1.47.21,7.43.52,7.43.52l.49-2.36s-14.58-2.73-20.12-3.48c-6.46-.87-8.77-1.31-15.23-2.18"/><path class="cls-11" d="M301.71,192.64c4.23-.19,12.68-.84,12.68-.84l-2.15-36.69s-8.46-4.04-8.63,6.16c-.04,2.12-1.66,31.36-1.9,31.37"/><path class="cls-3" d="M284.18,123.27c6-.03,9.18.77,9.18.77,0,0-9.9,15.18-17.43,23.08,4.46.44,8.99.19,13.38-.74l-16.5,16.27,36,1.19,33.74-1.89-14-13.66,13.21-5.46-17.99-19.13,8.88-1.37-20.76-19.97-11.92,9.04s-10.07,6.11-15.79,11.87"/><path class="cls-11" d="M103.23,132.29c-4.1-.18-11.48,0-11.48,0l1.83-32.01s8.2-3.92,8.37,5.97c.04,2.06,1.72,22.51,1.28,26.04"/><path class="cls-3" d="M122.66,74.92c-5.81-.03-11.92.44-11.92.44,0,0,10.74,9.53,18.05,17.19-4.32.43-8.71.18-12.96-.72,5.33,5.26,15.99,15.77,15.99,15.77l-34.89,1.15-32.7-1.83s10.21-9.78,13.3-12.8c-6.07,0-8.58-1.06-12.38-1.26,6.73-7.72,16.02-18.82,16.02-18.82l-10.07-1.04,24.16-22.51,11.55,8.76s10.29,10.09,15.84,15.67"/><path class="cls-6" d="M67.19,333.8s4.82-12.65,8.07-19.01c2.28-4.46,11.74-22,11.74-22,0,0,5.97-12.29,10.12-23.79,4.16-11.5,14.74-16.84,25.89-15.38,6.26.82,11.18.95,16.43,7.89,7.07,9.33,12.43,20.79,12.43,20.79,0,0,5.47,18.96,7.67,23.85,6.25,13.89,13.01,21.42,13.19,32.63.36,21.9-6.25,27.08-6.25,27.08,0,0-5.99,6.4-27.65,13.01-30.92,9.43-59.56-3.85-68.18-20.29-6.83-13.02-3.48-24.78-3.48-24.78"/><path class="cls-8" d="M132.1,375.86l-.78-5.79-14.74.45.24,18.71c.7,14.61,1.03,28.55,1.03,28.55l16.3-.22-2.05-41.71Z"/></svg>