<?xml version="1.0" encoding="UTF-8"?><svg id="_레이어_1" xmlns="http://www.w3.org/2000/svg" viewBox="0 0 340 90"><defs><style>.cls-1{fill:#231815;}.cls-2{stroke:#fff;}.cls-2,.cls-3,.cls-4,.cls-5,.cls-6,.cls-7,.cls-8,.cls-9{stroke-width:2.5px;}.cls-2,.cls-3,.cls-4,.cls-5,.cls-6,.cls-7,.cls-8,.cls-9,.cls-10{fill:none;}.cls-11{fill:#fff;}.cls-3,.cls-4,.cls-9{stroke:#c8dfee;}.cls-3,.cls-7{stroke-dasharray:7.34 4.84;}.cls-4,.cls-8{stroke-dasharray:7.5 5;}.cls-5{stroke:#efefef;}.cls-6,.cls-7,.cls-8,.cls-10{stroke:#a3c9e3;}.cls-12{fill:#ee7fab;}.cls-13{fill:#efefef;}.cls-14{fill:#1d1d1b;}.cls-10{stroke-width:2px;}</style></defs><rect class="cls-11" x="0" y="0" width="340" height="90" rx="45" ry="45"/><line class="cls-10" x1="96" y1="15" x2="96" y2="75"/><path class="cls-1" d="M38.82,45.78c1.22,0,2.32-.02,3.37-.05v-1.1c-2.22-.22-3.47-1.27-3.47-2.67,0-1.55,1.6-2.7,4.45-2.7h1.05c2.85,0,4.47,1.15,4.47,2.7,0,1.42-1.27,2.45-3.52,2.67v1c1.95-.1,3.4-.28,4.72-.53.05.62.12,1.25.2,1.88-2.42.5-7.5.8-12.82.8v-2.02c.52,0,1.05.02,1.55.02ZM49.6,36.45v2.07h-12v-2.07h12ZM54,48.7v4.72h-11.45v1.15h12.05v2h-15.02v-4.85h11.45v-1.08h-11.45v-1.95h14.42ZM46.85,33.21v2.15h-6.2v-2.15h6.2ZM43.25,42.9h.92c1.12,0,1.72-.28,1.72-.95s-.6-.97-1.72-.97h-.92c-1.1,0-1.72.33-1.72.97s.62.95,1.72.95ZM54,33.3v7.07h2.87v2.42h-2.87v4.85h-2.97v-14.35h2.97Z"/><path class="cls-1" d="M65.62,44.1v-2.07h-5.75v-8.25h14.7v2.45h-11.75v3.38h11.75v2.42h-6v2.07h7.82v2.45h-18.65v-2.45h7.87ZM66.45,47.75h1.25c4.9,0,7.1,1.55,7.1,4.27s-2.22,4.25-7.1,4.25h-1.25c-4.92,0-7.1-1.62-7.1-4.25s2.2-4.27,7.1-4.27ZM66.5,53.85h1.12c2.85,0,4.15-.6,4.15-1.85s-1.3-1.8-4.15-1.8h-1.12c-2.87,0-4.1.58-4.1,1.8s1.25,1.85,4.1,1.85Z"/><path class="cls-1" d="M270.05,41.55c-2.4.47-6.25.77-8.77.77h-2.17v-9.92h2.97v7.47c2.7,0,5.55-.23,7.67-.65l.3,2.33ZM260.2,48.65v-2.15h16v2.15h-16ZM267.7,49.45h1.2c4.3,0,5.82,1.08,5.82,2.92s-1.55,2.92-5.82,2.92h-1.2c-4.32,0-5.87-1.05-5.87-2.92s1.57-2.92,5.87-2.92ZM267.72,53.3h1.08c2.25,0,3.07-.33,3.07-.92s-.83-.95-3.07-.95h-1.08c-2.22,0-3.02.35-3.02.95s.83.92,3.02.92ZM271.5,43.18v2.22h-6.42v-2.22h6.42ZM275.55,32.05v11.35h-3v-5.95h-6.12v-2.37h6.12v-3.02h3Z"/><path class="cls-1" d="M289.85,33.3v1.32c0,6.42-2.15,12.52-9.6,16.27l-1.5-2.4c5.97-2.77,8.05-7.62,8.05-12.67h-7.22v-2.52h10.27ZM295.75,32.05v22.84h-3v-22.84h3Z"/><rect class="cls-13" x="114" y="35" width="97.5" height="37.5"/><rect class="cls-5" x="114" y="35" width="97.5" height="37.5"/><line class="cls-4" x1="114" y1="43.75" x2="114" y2="66.25"/><line class="cls-3" x1="122.52" y1="72.5" x2="205.41" y2="72.5"/><line class="cls-4" x1="211.5" y1="63.75" x2="211.5" y2="41.25"/><line class="cls-3" x1="202.98" y1="35" x2="120.09" y2="35"/><path class="cls-9" d="M117.67,35h-3.67v3.75M211.5,38.75v-3.75h-3.67M207.83,72.5h3.67v-3.75M114,68.75v3.75h3.67"/><rect class="cls-11" x="134" y="15" width="97.5" height="37.5"/><path class="cls-1" d="M166.57,22.63v7.95c3.25,0,6.37-.27,8.65-.8l.3,2.33c-2.32.62-6.75.9-10.1.9h-1.8v-10.37h2.95ZM179.95,37.2h-11.55v1.55h11.32v2.2h-11.32v1.6h11.92v2.27h-14.87v-9.92h14.5v2.3ZM179.75,22.05v4.62h2.87v2.45h-2.87v4.5h-2.97v-11.57h2.97Z"/><path class="cls-1" d="M194.32,32.83h-10.62v-9.95h10.62v9.95ZM199.95,34.65v6.2h-11.52v1.72h12.1v2.42h-15.07v-6.37h11.52v-1.62h-11.52v-2.35h14.5ZM191.37,25.3h-4.72v5.1h4.72v-5.1ZM199.95,22.05v4.52h2.88v2.42h-2.88v4.47h-2.97v-11.42h2.97Z"/><rect class="cls-2" x="134" y="15" width="97.5" height="37.5"/><line class="cls-8" x1="134" y1="23.75" x2="134" y2="46.25"/><line class="cls-7" x1="142.52" y1="52.5" x2="225.41" y2="52.5"/><line class="cls-8" x1="231.5" y1="43.75" x2="231.5" y2="21.25"/><line class="cls-7" x1="222.98" y1="15" x2="140.09" y2="15"/><path class="cls-6" d="M137.67,15h-3.67v3.75M231.5,18.75v-3.75h-3.67M227.83,52.5h3.67v-3.75M134,48.75v3.75h3.67"/><path class="cls-11" d="M217.23,36.23s2.51-.97,4.59,2.39,4.09,9.15,4.09,9.15c0,0,3.51-7.04,8.09-.75,0,0,3.96-5.47,7.69.4,0,0,4.83-6.02,7.54-.31,2.71,5.71,5.94,13.11,6.96,15.86,1.02,2.75,1.44,12.75-6.74,17.55-8.17,4.8-16.13,1.84-22.04-2.16-5.91-4-18.39-6.86-17.22-11.73,1.18-4.86,6.91-2.98,15.76-.4,0,0-9.18-19.81-10.28-22.95-1.09-3.14-1.58-5.29,1.55-7.05"/><path class="cls-14" d="M247.55,82.9c-5.68,2.5-12.18,1.94-16.97-1.46-3.87-2.76-7.44-4.8-10.92-6.26l-7.84-3.28c-2.53-1.05-3.78-4-2.79-6.56.49-1.27,1.46-2.28,2.71-2.83,1.06-.47,2.21-.56,3.33-.27l8.93,2.25-9.91-22.5c-.81-1.84-.32-4.31,1.13-5.62,1.49-1.35,3.46-1.73,5.28-1.03,1.24.48,2.22,1.42,2.76,2.64l3.12,7.09c.47-.65,1.12-1.18,1.9-1.53,1.16-.51,2.44-.54,3.61-.08,1.08.43,1.95,1.22,2.48,2.24.47-.65,1.12-1.19,1.9-1.53,1.15-.51,2.43-.54,3.6-.08.87.34,1.61.92,2.13,1.66.48-.69,1.14-1.26,1.96-1.62,1.15-.51,2.43-.54,3.6-.08,1.17.45,2.1,1.34,2.6,2.49l6.61,15c.62,1.41,1.02,2.92,1.18,4.47.7,6.93-3.58,13.87-10.41,16.88M212.69,64.66c-.67.3-1.19.84-1.46,1.53-.54,1.38.14,2.97,1.5,3.53l7.84,3.28c3.64,1.52,7.36,3.65,11.38,6.51,4.11,2.93,9.72,3.4,14.65,1.22,5.91-2.6,9.62-8.56,9.02-14.49-.13-1.3-.47-2.57-.99-3.76l-6.61-15c-.25-.58-.72-1.02-1.3-1.25-.59-.23-1.23-.21-1.8.04-1.19.52-1.73,1.92-1.2,3.1.26.59,0,1.29-.6,1.55-.6.26-1.29,0-1.55-.6l-1.24-2.81c-.25-.57-.72-1.02-1.31-1.25-.58-.23-1.22-.21-1.8.04-1.19.52-1.73,1.92-1.21,3.1.26.6,0,1.29-.6,1.55-.59.26-1.29,0-1.55-.6l-1.53-3.47c-.25-.57-.72-1.02-1.31-1.25-.58-.23-1.22-.21-1.79.04-1.19.52-1.73,1.92-1.21,3.11.26.59,0,1.29-.6,1.55s-1.29,0-1.55-.6l-4.77-10.83c-.29-.65-.81-1.15-1.46-1.4-.97-.38-2.03-.16-2.85.58-.69.62-.95,2.02-.55,2.92l10.88,24.71c.18.41.11.89-.18,1.23-.29.34-.75.49-1.19.38l-11.27-2.84c-.61-.16-1.23-.11-1.8.14"/><path class="cls-14" d="M244.83,54.84c-.6.26-1.29,0-1.55-.6l-1.72-3.9c-.26-.59,0-1.29.6-1.55.59-.26,1.29,0,1.55.6l1.72,3.9c.26.6,0,1.29-.6,1.55"/><path class="cls-14" d="M237.1,54.81c-.6.26-1.29,0-1.55-.6l-1.72-3.9c-.26-.6,0-1.29.6-1.55.59-.26,1.29,0,1.55.6l1.72,3.9c.26.6,0,1.29-.6,1.55"/><path class="cls-14" d="M229.13,54.25c-.6.26-1.29,0-1.55-.6l-1.72-3.9c-.26-.6,0-1.29.6-1.55.59-.26,1.29,0,1.55.6l1.72,3.9c.26.6,0,1.29-.6,1.55"/><path class="cls-12" d="M215.83,33.24s-.01,0-.02,0c-.6.26-1.29-.02-1.54-.62l-2.09-4.93c-.25-.59.02-1.28.61-1.54,0,0,.01,0,.01,0,.6-.25,1.29.02,1.54.62l2.09,4.93c.25.59-.02,1.28-.61,1.54"/><path class="cls-12" d="M225.09,32.78c-.28.12-.61.14-.92.01-.6-.24-.9-.93-.65-1.53l2.01-4.97c.24-.6.93-.9,1.53-.65.6.24.89.93.65,1.53l-2,4.97c-.12.3-.35.52-.62.64"/><path class="cls-12" d="M234.29,37.96s-.01,0-.02,0l-4.93,2.1c-.6.25-1.29-.03-1.54-.62-.25-.6.03-1.28.62-1.54l4.93-2.1c.6-.25,1.29.03,1.54.62.25.59-.02,1.28-.61,1.54"/><path class="cls-12" d="M212.12,48.45s-.01,0-.02,0l-4.93,2.1c-.6.25-1.29-.03-1.54-.62-.25-.6.02-1.31.62-1.54l4.93-2.1c.6-.25,1.29.03,1.54.62.25.59-.02,1.28-.61,1.54"/><path class="cls-12" d="M209.61,40.11c-.28.12-.61.14-.92.01l-4.97-2.01c-.6-.24-.89-.93-.65-1.53.24-.6.93-.9,1.53-.65l4.97,2.01c.6.24.89.93.65,1.53-.12.3-.35.52-.62.64"/></svg>