<?xml version="1.0" encoding="UTF-8"?><svg id="_레이어_1" xmlns="http://www.w3.org/2000/svg" viewBox="0 0 340 90"><defs><style>.cls-1{fill:#423d30;}.cls-2{fill:#231815;}.cls-3{fill:#fff;}.cls-4{fill:#ffd680;}.cls-5{fill:#b8b5b3;}.cls-6{fill:#e0dcdb;}.cls-7{fill:#de4747;}.cls-8{stroke:#231815;}.cls-8,.cls-9{fill:none;stroke-width:2px;}.cls-10{fill:#ffe8ba;}.cls-9{stroke:#a3c9e3;}.cls-11{fill:#ffc75e;}</style></defs><rect class="cls-3" x="0" y="0" width="340" height="90" rx="45" ry="45"/><line class="cls-9" x1="96" y1="15" x2="96" y2="75"/><path class="cls-2" d="M38.82,45.78c1.22,0,2.32-.02,3.37-.05v-1.1c-2.22-.22-3.47-1.27-3.47-2.67,0-1.55,1.6-2.7,4.45-2.7h1.05c2.85,0,4.47,1.15,4.47,2.7,0,1.42-1.27,2.45-3.52,2.67v1c1.95-.1,3.4-.28,4.72-.53.05.62.12,1.25.2,1.88-2.42.5-7.5.8-12.82.8v-2.02c.52,0,1.05.02,1.55.02ZM49.6,36.45v2.07h-12v-2.07h12ZM54,48.7v4.72h-11.45v1.15h12.05v2h-15.02v-4.85h11.45v-1.08h-11.45v-1.95h14.42ZM46.85,33.21v2.15h-6.2v-2.15h6.2ZM43.25,42.9h.92c1.12,0,1.72-.28,1.72-.95s-.6-.97-1.72-.97h-.92c-1.1,0-1.72.33-1.72.97s.62.95,1.72.95ZM54,33.3v7.07h2.87v2.42h-2.87v4.85h-2.97v-14.35h2.97Z"/><path class="cls-2" d="M65.62,44.1v-2.07h-5.75v-8.25h14.7v2.45h-11.75v3.38h11.75v2.42h-6v2.07h7.82v2.45h-18.65v-2.45h7.87ZM66.45,47.75h1.25c4.9,0,7.1,1.55,7.1,4.27s-2.22,4.25-7.1,4.25h-1.25c-4.92,0-7.1-1.62-7.1-4.25s2.2-4.27,7.1-4.27ZM66.5,53.85h1.12c2.85,0,4.15-.6,4.15-1.85s-1.3-1.8-4.15-1.8h-1.12c-2.87,0-4.1.58-4.1,1.8s1.25,1.85,4.1,1.85Z"/><path class="cls-2" d="M161,46.93c-2.77-1.08-4.62-3.02-5.35-4.92-.7,1.9-2.47,3.92-5.27,5.25l-1.27-2.25c3.02-1.33,5.05-4.02,5.05-7.45v-3.47h3.1v3.47c0,3.37,1.75,5.67,4.95,6.97l-1.2,2.4ZM155.27,47.95v5.52h11.87v2.42h-14.85v-7.95h2.97ZM166.7,33.3v16.85h-3v-9.45h-3.67v-2.4h3.67v-5h3Z"/><path class="cls-2" d="M169.67,45.15v-2.45h12.92c.35-1.4.7-4,.65-6.25h-11.45v-2.45h14.4v1.4c0,2.72-.35,5.55-.83,7.3h2.92v2.45h-18.62ZM171.55,55.85l-.92-2.4c4-.73,6.8-2.4,6.8-5.3v-1.17h3.12v1.17c0,2.9,2.8,4.57,6.77,5.3l-.9,2.4c-3.5-.6-6.4-2.12-7.45-4.2-1.02,2.07-3.9,3.6-7.42,4.2Z"/><path class="cls-2" d="M201.17,34.55v1.32c0,6.42-2.15,12.52-9.6,16.27l-1.5-2.4c5.97-2.77,8.05-7.62,8.05-12.67h-7.22v-2.52h10.27ZM207.07,33.3v22.84h-3v-22.84h3Z"/><line class="cls-8" x1="114" y1="69" x2="245" y2="69"/><path class="cls-7" d="M303.02,29.37c.98-.98.98-2.59,0-3.58l-9.81-9.81c-.98-.98-2.59-.98-3.58,0l-2.69,2.69c-.98.98-.98,2.59,0,3.58l9.8,9.81c.99.98,2.59.98,3.58,0l2.69-2.69Z"/><rect class="cls-11" x="251.08" y="39.55" width="37.81" height="18.93" transform="translate(44.42 205.27) rotate(-45)"/><rect class="cls-4" x="251.08" y="44.51" width="37.81" height="9" transform="translate(44.42 205.27) rotate(-45)"/><polygon class="cls-10" points="244 75 249.93 55.69 263.31 69.07 244 75"/><polygon class="cls-1" points="244 75 245.9 68.82 250.18 73.1 244 75"/><rect class="cls-6" x="281.22" y="21.03" width="14.58" height="18.93" transform="translate(62.94 212.94) rotate(-45)"/><rect class="cls-5" x="285.78" y="22.76" width="2" height="18.93" transform="translate(61.21 212.22) rotate(-45)"/><rect class="cls-5" x="289.24" y="19.29" width="2" height="18.93" transform="translate(64.68 213.66) rotate(-45)"/></svg>