<?xml version="1.0" encoding="UTF-8"?><svg xmlns="http://www.w3.org/2000/svg" viewBox="0 0 300 300"><defs><style>.cls-1{fill:#b17e4f;}.cls-2{fill:#f9d6b6;}.cls-3{opacity:.3;}.cls-4{fill:#becbf4;}.cls-5{fill:#dce6ff;}.cls-6{fill:#fff;}.cls-7{fill:none;}.cls-8{fill:#f28475;}.cls-9{opacity:.35;}.cls-10{fill:#5f6da8;}.cls-11{opacity:.7;}</style></defs><g id="base"><rect class="cls-7" width="300" height="300"/></g><g id="_레이어_2"><g class="cls-11"><path class="cls-6" d="M150,295c-79.95,0-145-65.05-145-145S70.05,5,150,5s145,65.05,145,145-65.05,145-145,145Z"/><path class="cls-10" d="M150,10c37.4,0,72.55,14.56,98.99,41.01s41.01,61.6,41.01,98.99-14.56,72.55-41.01,98.99-61.6,41.01-98.99,41.01-72.55-14.56-98.99-41.01S10,187.4,10,150s14.56-72.55,41.01-98.99S112.6,10,150,10M150,0C67.16,0,0,67.16,0,150s67.16,150,150,150,150-67.16,150-150S232.84,0,150,0h0Z"/></g><path class="cls-10" d="M74.58,245.78l-.73,1.12,24.54,15.92c1.12.73,1.44,2.25.72,3.37-.83,1.27-2.28,1.48-3.4.76l-29.41-19.07c-1.2-.78-1.56-2.16-.73-3.43l3.23-4.98c.67-1.04,2.02-1.26,3.03-.61l24,15.57.7-1.08-24.08-15.62c-1.08-.7-1.42-2.12-.69-3.24.7-1.08,2.14-1.35,3.22-.65l29.06,18.84c1.16.75,1.42,2.12.72,3.21l-3.15,4.86c-.68,1.04-1.99,1.29-3.03.61l-24-15.57ZM78.25,227.11l30.79,19.97c1.31.85,1.7,2.53.85,3.84-.85,1.31-2.52,1.6-3.83.75l-30.79-19.97c-1.31-.85-1.73-2.49-.88-3.8.85-1.31,2.54-1.64,3.86-.79ZM114.63,235.84c1,.65,1.29,1.99.64,2.99-.65,1-1.99,1.29-2.99.64l-23.66-15.34-.7,1.08,24.16,15.67c1.12.73,1.44,2.25.72,3.37-.83,1.27-2.28,1.48-3.4.76l-29.02-18.82c-1.2-.78-1.56-2.16-.73-3.43l3.2-4.94c.68-1.04,2.03-1.26,3.03-.61l28.75,18.64ZM89.01,212.21l29.25,18.97c1.08.7,1.42,2.12.72,3.21-.73,1.12-2.16,1.39-3.24.69l-29.25-18.97c-1.08-.7-1.42-2.12-.69-3.24.7-1.08,2.14-1.35,3.22-.65Z"/><path class="cls-10" d="M135.91,270.53c2.82-.66,5.23-2.43,5.63-5.53l.07-.5c.24-1.83,2.14-2.92,4.42-2.63,2.28.29,3.84,1.84,3.61,3.67l-.06.5c-.33,2.51,1.13,4.51,4.43,6.6,1.2.76,1.75,1.9,1.56,3.36-.24,1.87-1.94,3.18-3.81,2.94-.41-.05-.9-.21-1.29-.4-2.49-1.2-4.53-3-5.8-5.34-2.67,3.09-6.52,4.12-9.62,4.04-3.02-.72-6.47-2.69-8.32-6.32-1.82,1.9-4.25,3.11-6.92,3.65-.43.08-.94.11-1.35.06-1.87-.24-3.18-1.94-2.94-3.81.19-1.46,1.01-2.42,2.36-2.85,3.73-1.19,5.64-2.75,5.97-5.26l.07-.5c.24-1.83,2.14-2.92,4.42-2.63,2.28.3,3.84,1.84,3.61,3.67l-.06.5c-.4,3.1,1.34,5.42,4.04,6.79ZM118.77,257.09c-1.73-.22-2.96-1.82-2.74-3.56l1.17-9.08c.22-1.73,1.82-2.96,3.56-2.74l11.13,1.44.35-2.74-11.36-1.47c-1.73-.22-2.96-1.82-2.74-3.55.22-1.73,1.82-2.97,3.56-2.74l16.33,2.11c1.73.22,2.96,1.82,2.74,3.56l-1.14,8.81c-.23,1.78-1.83,3.01-3.61,2.78l-11.09-1.44-.38,2.97c5.66.73,11.57,1.31,17.18.92.23-.02.56-.02.83.02,1.73.22,2.96,1.82,2.74,3.55-.19,1.46-1.35,2.56-2.76,2.7-6.43.56-14.06-.29-21.5-1.25l-2.28-.29ZM148.56,252.36l-4.88-.63c-1.64-.21-2.34-1.6-2.13-3.24.22-1.73,1.26-2.9,2.9-2.69l4.88.63.19-1.46-4.88-.63c-1.64-.21-2.34-1.6-2.13-3.25.22-1.73,1.26-2.9,2.9-2.69l4.88.63.02-.14c.3-2.33,2.3-3.41,4.58-3.12s3.94,1.85,3.63,4.18l-2.46,19.03c-.31,2.37-2.36,3.87-4.64,3.57s-3.88-2.26-3.58-4.64l.72-5.57Z"/><path class="cls-10" d="M175.07,266.99c2.58-.84,5.28-2.05,7.81-3.79.4-.27.67-.46,1.15-.62,1.84-.59,3.75.38,4.35,2.22.5,1.53-.08,3.02-1.47,3.96-3.22,2.15-7.77,4.07-12.15,5.48l-2.19.71c-1.66.54-3.46-.38-4-2.04l-10.09-31.16c-.68-2.1.5-4.42,2.52-5.07,2.19-.71,4.42.5,5.1,2.6l8.97,27.7ZM185.23,250.59l-4.86,1.57c-1.93.62-3.73-.48-4.36-2.41-.62-1.92.19-3.88,2.12-4.51l4.86-1.57-3.28-10.11c-.68-2.1.49-4.32,2.54-4.98,2.14-.69,4.35.43,5.03,2.53l10.87,33.57c.69,2.14-.44,4.3-2.59,5-2.06.67-4.29-.4-4.98-2.54l-5.36-16.54ZM189.25,230.29c-.69-2.14.47-4.36,2.57-5.04,2.14-.69,4.39.42,5.08,2.56l10.99,33.92c.71,2.19-.47,4.36-2.62,5.05-2.1.68-4.33-.39-5.04-2.57l-10.99-33.92Z"/><path class="cls-10" d="M213.14,238.03c-2.16-2.75-2.4-4.25-1.22-7.52l.63-1.73c.87-2.32,1.02-4.37-.09-5.78-1.16-1.48-3.41-1.88-5.51-.24-2.03,1.59-2.49,3.53-1.67,5.7.7,1.79-.33,3.59-2.22,4.32-1.75.67-3.46.14-4.39-1.64-2.18-4.19-1.04-9.82,3.62-13.48,5.86-4.6,12.25-4.35,16.2.67,2.7,3.44,2.36,7.1.95,11.19l-.55,1.6c-.36,1.1-.18,1.78.44,2.58l.57.72c1.48,1.88,1.14,3.84-.67,5.26-1.81,1.42-3.79,1.28-5.27-.6l-.82-1.05ZM221.22,242.21c1.99-1.56,4.96-1.2,6.52.79,1.56,1.99,1.2,4.96-.79,6.52-1.99,1.56-4.96,1.2-6.52-.79-1.56-1.99-1.2-4.96.79-6.52Z"/><path class="cls-1" d="M129.3,141.99s-28.86,21.61-17.89,35.47c5.85,7.38,18.54,2.48,18.54,2.48l-.65-37.95Z"/><path class="cls-10" d="M121.18,182.5c-3.71,0-7.76-.98-10.5-4.45-2.17-2.75-3.04-5.97-2.57-9.57,1.68-12.92,19.86-26.66,20.63-27.24l1.48-1.11.69,40.46-.62.24c-.3.12-4.44,1.68-9.12,1.68ZM128.39,143.92c-4.39,3.58-17.11,14.74-18.41,24.8-.4,3.08.33,5.83,2.18,8.16,4.64,5.86,14.31,3.22,16.84,2.39l-.61-35.35Z"/><path class="cls-6" d="M129.95,179.94s-3.18,1.23-7.09,1.53c-3.9.3-8.52-.32-11.44-4.01-8.33-10.51,6.26-25.48,13.79-32.1,1.7-1.49,3.04-2.56,3.68-3.06.27-.21.41-.31.41-.31l.04,2.06.05,2.73.42,24.68.15,8.48Z"/><path class="cls-5" d="M129.95,179.94s-12.69,4.91-18.54-2.47c-2.19-2.77-2.8-5.84-2.36-8.99.28,1.86,1.03,3.65,2.36,5.34,5.6,7.08,17.5,2.86,18.47,2.5l.06,3.63Z"/><path class="cls-5" d="M129.81,171.46c-.09,0-.19,0-.28,0-10.11-.73-14.48.86-14.7-.3-.14-.79,4.42-1.84,4.42-2.24s-5.64-.11-5.64-.84,5.15-1.17,5.21-2.16c.06-1-2.92-1.85-2.8-2.7.12-.84,3.18.97,4.87-.69,1.11-1.09,1.5-4.59,2.9-7.92,2.26-5.37,5.41-11.04,5.41-11.04,0,0,.05.17.14.49l.47,27.41Z"/><path class="cls-10" d="M121.18,182.5c-3.71,0-7.76-.98-10.5-4.45-2.17-2.75-3.04-5.97-2.57-9.57,1.68-12.92,19.86-26.66,20.63-27.24l1.48-1.11.69,40.46-.62.24c-.3.12-4.44,1.68-9.12,1.68ZM128.39,143.92c-4.39,3.58-17.11,14.74-18.41,24.8-.4,3.08.33,5.83,2.18,8.16,4.64,5.86,14.31,3.22,16.84,2.39l-.61-35.35Z"/><path class="cls-6" d="M148.47,215.56c-1.86,1.82-4.86-.66-4.86-.66,0,0-6.8,6.56-9.63,5.82-2.83-.74-.1-3.5-.35-3.74-.25-.24-4.9,3.14-5.86,1.65-1.06-1.65,2-3.98,2.04-4.12.09-.32-5.61,1.65-5.11-.78.15-.74,2.61-2.19,4.84-3.37,1.91-1.01,3.66-1.82,3.66-1.82l9.62-1.58s1.91,1.72,3.56,3.66c1.63,1.91,3.02,4.03,2.09,4.94Z"/><path class="cls-6" d="M115.65,180.31c.04.1.08.2.13.3,0,0-3.06-.95-3.9,1.02-.85,1.97.53,5.77,6.37,6.77,5.84,1.01,12.16-2.23,12.64-8.92.4-5.69-3.93-9.81-10.87-7.83-3.7,1.06-5.77,5.08-4.36,8.66Z"/><path class="cls-10" d="M120.34,189.53c-.75,0-1.51-.06-2.26-.19-4.34-.75-6.08-2.89-6.74-4.09-.72-1.32-.85-2.81-.34-3.98.64-1.48,2.09-1.87,3.41-1.83-.32-1.59-.11-3.27.63-4.75.95-1.92,2.67-3.35,4.72-3.94,3.6-1.03,6.84-.57,9.13,1.28,2.09,1.7,3.17,4.44,2.95,7.53-.22,3.07-1.57,5.66-3.9,7.48-2.06,1.62-4.79,2.49-7.58,2.49ZM114.18,181.33c-.59,0-1.21.14-1.44.68-.21.5-.26,1.37.27,2.34.49.91,1.85,2.52,5.4,3.13,3.02.52,6.15-.2,8.35-1.93,1.9-1.49,3-3.61,3.18-6.13.18-2.46-.65-4.62-2.25-5.93-1.79-1.45-4.42-1.78-7.42-.93-1.54.44-2.83,1.52-3.54,2.95-.7,1.42-.77,3-.2,4.45,0,0,0,0,0,0,.04.09.07.18.11.27.15.34.09.73-.16,1.01-.25.28-.63.38-.99.27-.01,0-.65-.19-1.32-.19Z"/><path class="cls-2" d="M115.63,180.26s1.49,2.26,3.29,2.72"/><path class="cls-10" d="M116.42,179.74c.09.28.26.61.41.91.16.3.34.6.54.89.4.57.88,1.1,1.54,1.44-.37-.02-.75-.11-1.12-.23-.36-.13-.72-.31-1.06-.5-.34-.2-.67-.42-.98-.66-.32-.25-.61-.48-.92-.8l-.04-.04c-.38-.39-.37-1,.01-1.38.39-.38,1-.37,1.38.01.1.11.18.24.23.37Z"/><path class="cls-5" d="M142.82,206.96s1.91,1.72,3.56,3.66c-3.16,4.22-9.39,4.31-11.93,3.26-2.08-.85-3.68-2.06-4.91-3.52,1.91-1.01,3.66-1.82,3.66-1.82l9.62-1.58Z"/><path class="cls-10" d="M134.42,221.71c-.24,0-.46-.03-.68-.08-.94-.24-1.56-.71-1.84-1.4-.18-.44-.19-.88-.12-1.31-1.77.9-3.88,1.68-4.82.21-.72-1.13-.3-2.33.36-3.31-1.32.16-2.45.1-3.13-.58-.25-.25-.63-.8-.44-1.71.13-.62.62-1.48,4.83-3.75,2.09-1.13,4.11-2.07,4.2-2.11l.12-.05,10.2-1.67.34.3c1.04.93,6.21,5.73,6.27,8.48.01.59-.19,1.11-.58,1.49-1.67,1.63-3.96.85-5.44-.11-1.81,1.68-6.36,5.59-9.27,5.59ZM133.64,216.02c.23,0,.43.08.64.27.62.57.2,1.3-.08,1.77-.18.32-.67,1.15-.55,1.44.03.06.17.19.57.29,1.58.41,6.14-3.09,8.73-5.59l.61-.59.65.54s2.39,1.89,3.6.71c0,0,.25-.9-2.39-3.92-1.13-1.29-2.34-2.46-2.91-2.99l-9.04,1.48c-3.38,1.59-7.22,3.71-7.84,4.51.39.15,1.42.05,3.06-.27.96-.19,1.4-.28,1.81.17l.36.39-.14.53c-.08.27-.23.41-.5.67-1.77,1.65-1.79,2.37-1.68,2.63.64.14,2.74-1,3.44-1.38.74-.4,1.24-.67,1.66-.67Z"/><path class="cls-6" d="M155.41,180.12c-3.82,5.99-4.91,7.02-7.17,12.26-3.11,7.2,2.38,19.28-10.73,18.82-3.53-.12-6.45-2.07-8.67-5.21-3.38-4.78-5.13-12.31-4.93-20.38.14-5.55,1.2-11.36,3.3-16.69l28.19,11.21Z"/><path class="cls-5" d="M155.41,180.12c-3.82,5.99-4.91,7.02-7.17,12.26-3.11,7.2,2.38,19.28-10.73,18.82-3.53-.12-6.45-2.07-8.67-5.21,4.64,2.96,9.83,2.33,11.96.64,3.77-3,2.52-6.63,1.09-7.79-2.53-2.06-12.22-2.83-17.98-13.24.14-5.55,1.2-11.36,3.3-16.69l28.19,11.21Z"/><path class="cls-10" d="M138.23,212.15c-.24,0-.49,0-.75-.01-3.85-.14-7.23-2.27-9.79-6.17-5.73-8.74-6.31-24.82-1.35-37.4.09-.23.27-.42.5-.52.23-.1.49-.1.72-.01l28.19,11.21c.26.1.46.32.55.59.09.27.05.56-.1.8-.98,1.54-1.77,2.73-2.46,3.78-1.99,3.01-2.98,4.52-4.63,8.34-.91,2.11-1.04,4.8-1.15,7.39-.26,5.64-.55,12.01-9.73,12.01ZM127.77,170.15c-4.39,11.92-3.78,26.72,1.51,34.79,2.2,3.36,5.07,5.2,8.28,5.31,8.04.29,8.25-4.34,8.52-10.19.13-2.76.26-5.62,1.31-8.05,1.72-3.97,2.81-5.63,4.79-8.63.54-.82,1.13-1.72,1.83-2.79l-26.23-10.43Z"/><path class="cls-6" d="M170.42,179.43s11.37,2.53,17.13-7.94c5.64-10.24-4.7-22.89-4.66-32.32.06-12.76,8.98-23.95,23.5-19.89,14.73,4.12,12.53,22.17,5.14,26.6-4.35,2.61-8.02,1.41-9.2-3.39s4.96-7.72,2.9-11.51-10.11-3.82-11.96,3.98c-1.85,7.79,4.59,21.39,4.88,30.08.27,8.12-4.73,16.04-11.9,19.76-8.55,4.44-15.55,3.31-15.55,3.31l-.29-8.68Z"/><path class="cls-5" d="M198.17,165.29c.16,8.03-4.81,15.82-11.91,19.51-8.55,4.44-15.55,3.31-15.55,3.31l-.15-4.4c2.8.05,8.53-.32,15.1-3.48,6.24-2.99,10.98-8.65,12.5-14.94Z"/><g class="cls-3"><path class="cls-10" d="M193.28,134.96c-.04.17-.08.34-.11.52-.17-1.87-.11-3.6.28-5.11,2.04-7.8,10.8-7.8,13.03-4.01,1.05,1.79.12,3.39-1.03,5.08-.06-.15-.13-.3-.21-.45-2.06-3.8-10.11-3.82-11.96,3.98Z"/></g><path class="cls-5" d="M216.72,138.1c-.89,3.41-2.76,6.33-5.18,7.78-4.35,2.61-8.02,1.41-9.2-3.39-.44-1.79.14-3.31.93-4.72,0,.03.01.07.02.1,1.26,4.8,5.25,5.99,10,3.36,1.31-.73,2.47-1.81,3.43-3.14Z"/><path class="cls-10" d="M172.93,189.19c-1.42,0-2.27-.13-2.37-.15l-.77-.12-.36-10.67,1.19.26c.44.1,10.76,2.23,16.1-7.47,3.3-5.99.74-12.98-1.73-19.75-1.57-4.31-3.06-8.38-3.04-12.12.03-7.6,3.09-14.43,8.19-18.27,4.52-3.41,10.23-4.28,16.51-2.53,6.41,1.79,10.58,6.47,11.44,12.83.84,6.25-1.76,12.91-6.06,15.49-2.52,1.51-4.89,1.88-6.85,1.07-1.83-.76-3.13-2.51-3.75-5.04-.67-2.75.67-4.89,1.85-6.78,1.19-1.9,1.88-3.14,1.14-4.51-.76-1.41-2.69-2.21-4.68-1.94-2.7.36-4.77,2.48-5.53,5.69-1.02,4.31.69,10.73,2.34,16.94,1.25,4.71,2.44,9.15,2.57,12.89.28,8.34-4.71,16.63-12.41,20.63-5.82,3.03-10.93,3.55-13.77,3.55ZM171.63,187.25c1.99.13,7.64.11,14.19-3.29,7.07-3.67,11.65-11.27,11.4-18.89-.12-3.52-1.28-7.87-2.5-12.47-1.72-6.44-3.49-13.09-2.36-17.86.95-3.99,3.61-6.66,7.12-7.12,2.79-.37,5.44.8,6.59,2.92,1.31,2.41-.02,4.54-1.2,6.41-1.08,1.72-2.1,3.35-1.61,5.33.47,1.93,1.38,3.22,2.64,3.74,1.38.58,3.17.25,5.15-.94,3.63-2.18,5.9-8.16,5.16-13.62-.44-3.28-2.34-9.1-10.07-11.27-5.7-1.59-10.83-.83-14.86,2.22-4.62,3.49-7.4,9.76-7.44,16.77-.02,3.4,1.41,7.32,2.93,11.46,2.49,6.83,5.32,14.57,1.61,21.31-4.91,8.92-13.78,8.91-16.98,8.58l.22,6.72Z"/><path class="cls-6" d="M178.7,184.29c-.16.43-.34.86-.55,1.27-7.71,15.62-46.09,15.05-55.3-4.09-1.02-2.12-1.68-4.46-1.9-7.03-.45-5.11,1.51-10.27,3.6-15.63,1.55-3.97,3.16-8.05,3.91-12.3.16-.89.28-1.78.35-2.68.04-.5.07-1.01.08-1.52.02-1.24-.04-2.49-.23-3.76-.35-2.44-1.12-4.95-2.47-7.52-8.38-16,36.65-1.31,36.65-1.31,0,0,2.45,2.73,5.54,8.47.56,1.04,1.14,2.17,1.72,3.4.4.84.81,1.73,1.22,2.66.33.76.67,1.56,1,2.39,1.14,2.82,2.22,5.56,3.19,8.21.54,1.47,1.05,2.92,1.52,4.35,3.08,9.36,4.41,17.64,1.67,25.09Z"/><path class="cls-5" d="M180.04,178.47c-.21,2-.64,3.93-1.33,5.82-6.33,17.24-47.96,16.82-56.36-3.99,10.34,17.71,48.82,15.27,57.13,1.45.55-.91.22-2.31.56-3.28Z"/><path class="cls-5" d="M170.11,141.59c-8.91,6.11-20.86,7.75-28.05,7.46-2.11-.33-7.1-.68-12.67-2.27-.31-.09-.61-.18-.92-.27-1.07-.33-1.04-.43-2.13-.87,1.7-1.49,2.55-2.08,3.19-2.58.02-1.24-.67-3.25-.85-4.52-.35-2.44-1.12-4.95-2.47-7.52-8.38-16,36.65-1.31,36.65-1.31,0,0,2.45,2.73,5.54,8.47.56,1.04,1.14,2.17,1.72,3.4Z"/><path class="cls-4" d="M163.45,173.67c0,9.09-6.74,18.46-19.8,17.74-10.06-.55-17.81-10.36-17.79-17.65.02-10.08,9.77-21.46,19.02-21.01,9.98.49,18.57,11.74,18.57,20.92Z"/><path class="cls-10" d="M153.41,197.56c-2.14,0-4.28-.14-6.36-.42-12.26-1.63-25.79-8.43-27.03-22.62-.47-5.43,1.59-10.74,3.78-16.37,3.26-8.36,6.62-17.01,1.56-26.69-1.46-2.79-1.53-4.99-.2-6.56,2.44-2.88,9.42-3.05,21.35-.52,8.54,1.81,16.55,4.41,16.63,4.44.16.05.3.14.41.27.2.22,5,5.63,9.66,17.21,6.06,15.07,10.38,27.46,6.39,38.33-3.26,8.89-14.73,12.94-26.18,12.94ZM132.93,124.5c-4.1,0-5.71.88-6.34,1.63-.78.92-.63,2.42.43,4.46h0c5.47,10.44,1.78,19.91-1.47,28.26-2.11,5.41-4.1,10.52-3.66,15.52,1.14,13.07,13.87,19.37,25.4,20.91,12.19,1.62,27.03-1.78,30.52-11.3,3.76-10.24-.46-22.29-6.37-36.97-4.05-10.07-8.29-15.43-9.15-16.47-1.42-.45-8.59-2.7-16.19-4.31-6.03-1.28-10.23-1.73-13.16-1.73Z"/><path class="cls-10" d="M174.16,48.84c0,.65.31,1.18.93,1.6v-.37c0-.35.13-.64.39-.87.26-.24.59-.35.99-.35,1.09,0,1.64.55,1.64,1.64,0,.72-.29,1.32-.86,1.8-.57.48-1.28.73-2.12.73-1.09,0-1.99-.37-2.7-1.1-.71-.73-1.06-1.67-1.06-2.81,0-2.08.89-3.8,2.66-5.15,1.77-1.35,4.05-2.03,6.83-2.03s4.97.65,6.64,1.93c1.67,1.29,2.51,2.99,2.51,5.1,0,2.65-1.31,4.65-3.94,5.99-.45.22-1.02.48-1.71.78-1.46.62-2.46,1.22-2.99,1.79-.53.57-.8,1.33-.8,2.27,0,.69-.06,1.17-.19,1.41-.2.37-.6.56-1.19.56-1.04,0-1.56-.64-1.56-1.93,0-1.19.3-2.21.89-3.05.74-1.02,2.11-2.07,4.09-3.16,1.79-.97,2.94-1.75,3.46-2.34.52-.6.78-1.4.78-2.42,0-1.36-.56-2.46-1.67-3.29-1.12-.83-2.59-1.25-4.43-1.25s-3.42.44-4.69,1.32c-1.26.88-1.9,1.95-1.9,3.22ZM179.52,68.19c-.65,0-1.2-.23-1.66-.69-.46-.46-.69-1.01-.69-1.66s.23-1.2.69-1.66c.46-.46,1.01-.69,1.66-.69s1.19.23,1.64.69c.45.46.67,1.01.67,1.66s-.22,1.2-.67,1.66c-.45.46-.99.69-1.64.69Z"/><path class="cls-10" d="M138.02,29.01c0,.65.31,1.18.93,1.6v-.37c0-.35.13-.64.39-.87.26-.24.59-.35.99-.35,1.09,0,1.64.55,1.64,1.64,0,.72-.29,1.32-.86,1.8-.57.48-1.28.73-2.12.73-1.09,0-1.99-.37-2.7-1.1-.71-.73-1.06-1.67-1.06-2.81,0-2.08.89-3.8,2.66-5.15,1.77-1.35,4.05-2.03,6.83-2.03s4.97.65,6.64,1.93c1.67,1.29,2.51,2.99,2.51,5.1,0,2.65-1.31,4.65-3.94,5.99-.45.22-1.02.48-1.71.78-1.46.62-2.46,1.22-2.99,1.79-.53.57-.8,1.33-.8,2.27,0,.69-.06,1.17-.19,1.41-.2.37-.6.56-1.19.56-1.04,0-1.56-.64-1.56-1.93,0-1.19.3-2.21.89-3.05.74-1.02,2.11-2.07,4.09-3.16,1.79-.97,2.94-1.75,3.46-2.34.52-.6.78-1.4.78-2.42,0-1.36-.56-2.46-1.67-3.29-1.12-.83-2.59-1.25-4.43-1.25s-3.42.44-4.69,1.32c-1.26.88-1.9,1.95-1.9,3.22ZM143.37,48.36c-.65,0-1.2-.23-1.66-.69-.46-.46-.69-1.01-.69-1.66s.23-1.2.69-1.66c.46-.46,1.01-.69,1.66-.69s1.19.23,1.64.69c.45.46.67,1.01.67,1.66s-.22,1.2-.67,1.66c-.45.46-.99.69-1.64.69Z"/><path class="cls-10" d="M99.49,48.84c0,.65.31,1.18.93,1.6v-.37c0-.35.13-.64.39-.87.26-.24.59-.35.99-.35,1.09,0,1.64.55,1.64,1.64,0,.72-.29,1.32-.86,1.8-.57.48-1.28.73-2.12.73-1.09,0-1.99-.37-2.7-1.1-.71-.73-1.06-1.67-1.06-2.81,0-2.08.89-3.8,2.66-5.15,1.77-1.35,4.05-2.03,6.83-2.03s4.97.65,6.64,1.93c1.67,1.29,2.51,2.99,2.51,5.1,0,2.65-1.31,4.65-3.94,5.99-.45.22-1.02.48-1.71.78-1.46.62-2.46,1.22-2.99,1.79-.53.57-.8,1.33-.8,2.27,0,.69-.06,1.17-.19,1.41-.2.37-.6.56-1.19.56-1.04,0-1.56-.64-1.56-1.93,0-1.19.3-2.21.89-3.05.74-1.02,2.11-2.07,4.09-3.16,1.79-.97,2.94-1.75,3.46-2.34.52-.6.78-1.4.78-2.42,0-1.36-.56-2.46-1.67-3.29-1.12-.83-2.59-1.25-4.43-1.25s-3.42.44-4.69,1.32c-1.26.88-1.9,1.95-1.9,3.22ZM104.85,68.19c-.65,0-1.2-.23-1.66-.69-.46-.46-.69-1.01-.69-1.66s.23-1.2.69-1.66c.46-.46,1.01-.69,1.66-.69s1.19.23,1.64.69c.45.46.67,1.01.67,1.66s-.22,1.2-.67,1.66c-.45.46-.99.69-1.64.69Z"/><path class="cls-2" d="M181.65,104.97s1.18-7.1,8.81-7.14c7.32-.04,10.66,7.05,9.85,12.41-.85,5.62-3.78,8.63-8.17,10.03-4.59,1.46-9.38.39-9.38.39"/><path class="cls-8" d="M181.66,108.11s.68-3.85,5.08-3.88c4.22-.02,6.14,3.83,5.67,6.73-.49,3.05-2.18,4.69-4.71,5.45-2.64.79-5.41.22-5.41.22"/><path class="cls-10" d="M184.61,117.77c-1.41,0-2.43-.21-2.5-.22-.51-.11-.84-.61-.73-1.12.11-.51.61-.84,1.12-.73.02,0,2.57.52,4.94-.2,2.36-.71,3.65-2.2,4.05-4.69.23-1.41-.22-2.98-1.16-4.08-.61-.71-1.72-1.55-3.54-1.55-.01,0-.02,0-.03,0-3.47.02-4.09,2.79-4.15,3.1-.1.51-.59.85-1.1.76-.51-.09-.85-.58-.76-1.09.28-1.6,1.9-4.64,6-4.66h.04c2.54,0,4.11,1.2,4.98,2.22,1.3,1.51,1.91,3.66,1.59,5.61-.51,3.2-2.32,5.28-5.37,6.2-1.18.35-2.37.46-3.37.46Z"/><path class="cls-10" d="M186.77,121.98c-2.37,0-4.1-.37-4.22-.4-.51-.11-.83-.62-.72-1.13.11-.51.62-.83,1.13-.72.04,0,4.61.99,8.88-.37,4.39-1.4,6.78-4.34,7.52-9.27.44-2.93-.5-6.24-2.39-8.44-1.64-1.9-3.91-2.9-6.51-2.88-6.75.04-7.84,6.09-7.88,6.35-.09.52-.57.86-1.09.78-.51-.09-.86-.57-.78-1.09.01-.08,1.41-7.89,9.73-7.93.02,0,.04,0,.07,0,3.16,0,5.88,1.22,7.88,3.54,2.28,2.64,3.36,6.45,2.83,9.96-.85,5.64-3.74,9.17-8.82,10.79-1.98.63-3.97.82-5.65.82Z"/><path class="cls-6" d="M106.66,105.3s-1.24-7.09-8.87-7.06c-7.32.02-10.59,7.15-9.74,12.49.9,5.62,3.86,8.6,8.26,9.96,4.6,1.42,9.38.31,9.38.31"/><path class="cls-5" d="M88.06,110.73c.9,5.62,3.86,8.6,8.26,9.96,4.6,1.42,9.38.31,9.38.31l.21-3.36c-1.82.26-5.51.56-9.09-.55-4.47-1.38-7.58-4.29-8.79-9.62-.14,1.11-.14,2.22.03,3.25Z"/><g class="cls-3"><path class="cls-10" d="M200.3,110.24c-.85,5.63-3.78,8.63-8.17,10.03-4.59,1.46-9.38.39-9.38.39l-.24-3.36c1.82.25,5.51.51,9.09-.63,4.46-1.42,7.54-4.35,8.7-9.69.15,1.11.15,2.21,0,3.25Z"/></g><path class="cls-8" d="M106.68,108.44s-.71-3.85-5.11-3.83c-4.22.01-6.11,3.88-5.61,6.78.52,3.05,2.22,4.67,4.76,5.4,2.65.77,5.41.17,5.41.17"/><path class="cls-5" d="M95.95,111.39c.52,3.05,2.22,4.67,4.76,5.4.29.08.58.15.87.21,2.35.44,4.54-.04,4.54-.04l.56-8.52s-.19-1.01-.97-2c-.74-.94-2-1.84-4.15-1.84-4.22.02-6.11,3.88-5.61,6.78Z"/><path class="cls-6" d="M100.98,114.2c.28,1.24.91,2.16,1.82,2.84,2.35.33,4.54-.03,4.54-.03l.57-6.4s-.19-.76-.96-1.5c-.11,0-.23,0-.35,0-4.22.02-6.11,2.92-5.62,5.1Z"/><g class="cls-3"><path class="cls-10" d="M188.5,113.82c-.27,1.24-.89,2.17-1.8,2.85-2.35.35-4.54,0-4.54,0l-.62-6.4s.18-.76.95-1.51c.11,0,.23,0,.35,0,4.22-.02,6.14,2.87,5.67,5.05Z"/></g><path class="cls-10" d="M103.69,118.13c-.97,0-2.11-.1-3.25-.43-3.06-.89-4.88-2.96-5.43-6.15-.33-1.95.26-4.1,1.54-5.63.86-1.03,2.43-2.25,5-2.26h.03c4.08,0,5.72,3.01,6.02,4.6.1.51-.24,1.01-.76,1.1-.51.1-1-.24-1.1-.75-.06-.32-.72-3.06-4.16-3.06,0,0-.01,0-.02,0-1.84,0-2.95.87-3.56,1.59-.94,1.11-1.37,2.68-1.13,4.09.42,2.49,1.72,3.97,4.09,4.65,2.38.69,4.92.16,4.94.15.51-.11,1.01.21,1.12.72.11.51-.21,1.01-.72,1.12-.07.02-1.15.25-2.63.25Z"/><path class="cls-10" d="M101.5,122.36c-1.63,0-3.55-.18-5.46-.77-5.09-1.57-8.01-5.08-8.91-10.71-.56-3.5.49-7.33,2.75-9.98,2-2.35,4.73-3.6,7.92-3.61h.05c8.29,0,9.74,7.77,9.76,7.84.09.51-.25,1-.77,1.09-.52.09-1-.25-1.09-.77-.05-.27-1.23-6.28-7.9-6.28-.01,0-.02,0-.04,0-2.62,0-4.86,1.03-6.48,2.94-1.88,2.21-2.79,5.53-2.32,8.46.79,4.92,3.21,7.85,7.6,9.2,4.29,1.32,8.84.3,8.89.29.51-.12,1.02.2,1.13.71.12.51-.2,1.02-.71,1.13-.12.03-1.94.44-4.41.44Z"/><path class="cls-1" d="M154.52,62.34l-1.68-.33c.56.1,1.12.2,1.68.33Z"/><path class="cls-6" d="M186.62,100.73c-.31,6.17-1.96,12.74-5.06,17.17,1.97.35,3.25,1.77,4,3.55.97,2.33,1.03,5.3.5,7.33-1.31,5.03-5.6,7.93-11.65,9.94l-59.86.26c-6.07-1.96-10.38-4.83-11.73-9.84-.5-1.86-.52-4.5.21-6.73.68-2.07,2-3.79,4.19-4.2-3.14-4.4-4.85-10.95-5.21-17.13-.89-15.32,8.51-28.67,22.08-35.29h0c-.16-4.34.89-7.4,1.53-8.85.22-.49.84-.64,1.26-.32,1.22.94,2.53,2.54,3.37,3.02.46.26,1.04.03,1.2-.48.69-2.27,1.86-5.15,2.59-6.31.3-.48.99-.52,1.34-.08,1.29,1.6,4.44,4.7,8.85,6.43,4.05,1.59,6.89,2.39,8.56,2.78,0,0,0,0,.01,0,0,0,0,0,0,0s0,0,0,0c1.06.25,1.65.33,1.77.35,0,0,0,0,.01,0t0,0h0c18.5,3.99,32.9,19.64,31.98,38.36Z"/><path class="cls-5" d="M186.06,128.78c-1.31,5.03-5.6,7.93-11.65,9.94l-59.86.26c-6.07-1.96-10.38-4.83-11.73-9.84-.5-1.86-.52-4.5.21-6.73.7,2.01,2.15,4.5,5.05,7.09,6.33,5.64,62.65,13.48,73.46-.97,2.13-2.85,3.34-4.7,4.02-7.09.97,2.33,1.03,5.3.5,7.33Z"/><path class="cls-10" d="M114.55,139.93c-.1,0-.19-.01-.29-.05-7.12-2.3-11.05-5.63-12.36-10.5-.68-2.51-.6-6.48,1.16-9.28.7-1.11,1.61-1.92,2.68-2.41-2.61-4.2-4.3-10.14-4.67-16.55-.44-7.54,1.56-14.97,5.77-21.48,3.92-6.06,9.55-11.04,16.3-14.45-.05-4.21.99-7.21,1.63-8.66.22-.5.65-.86,1.18-.99.53-.13,1.08-.02,1.52.31.62.47,1.25,1.1,1.8,1.65.49.48.99.98,1.33,1.22.67-2.15,1.82-5.08,2.65-6.39.31-.48.83-.79,1.4-.82.57-.03,1.12.21,1.48.66.56.69,3.59,4.24,8.46,6.15,4,1.57,6.81,2.36,8.44,2.74h0s.02,0,.02,0c.58.1,1.12.21,1.64.32l.11.02h0s.02,0,.02,0c9.34,2.02,17.79,6.98,23.79,13.97,6.21,7.23,9.38,16.24,8.93,25.37-.32,6.41-1.95,12.37-4.53,16.59,1.07.47,1.99,1.28,2.7,2.38,1.78,2.78,1.89,6.76,1.24,9.27-1.26,4.87-5.16,8.24-12.26,10.6-.5.16-1.03-.1-1.2-.6-.16-.5.1-1.03.6-1.2,6.53-2.17,9.93-5.03,11.03-9.28.56-2.14.39-5.6-1-7.78-.7-1.09-1.62-1.74-2.75-1.94l-1.46-.26.85-1.21c2.78-3.97,4.56-10.04,4.89-16.67.86-17.55-12.23-33.25-31.14-37.37h0l-.09-.02c-.21-.03-.81-.12-1.81-.35h-.06c-1.72-.42-4.6-1.23-8.68-2.84-5.06-1.99-8.31-5.6-9.13-6.59-.67,1.13-1.74,3.78-2.4,5.94-.16.52-.53.93-1.03,1.13-.5.2-1.06.17-1.53-.1-.56-.32-1.17-.91-1.86-1.6-.5-.49-1.01-1-1.5-1.39-.61,1.42-1.54,4.28-1.39,8.29v.33s-.33.45-.33.45l-.21.1c-13.91,6.78-22.37,20.28-21.55,34.39.38,6.53,2.26,12.74,5.04,16.63l.86,1.2-1.46.27c-1.13.21-2.05.87-2.73,1.97-1.38,2.19-1.51,5.65-.93,7.79,1.14,4.24,4.57,7.07,11.11,9.19.5.16.77.69.61,1.19-.13.4-.5.66-.9.66Z"/><path class="cls-6" d="M144.19,92.8c-.04-10-20.04-18.62-31.22-1-.07.11-.13.22-.2.32-8.17,13.34.08,28.7.08,28.7,0,0-6.28,1.71-6.16,7.7.07,3.56,3.4,8.56,7.87,10.56,2.38,1.08,5.44,2.01,8.68,2.8,13.85,3.38,28.34,3.3,42.18-.14,3.34-.83,6.51-1.8,9-2.92,4.45-2.04,7.74-7.07,7.77-10.63.07-5.99-6.22-7.65-6.22-7.65,0,0,8.12-15.44-.18-28.7-.07-.11-.13-.22-.2-.32-11.33-17.52-31.26-8.72-31.21,1.28"/><path class="cls-5" d="M182.18,128.19c-.44,22.47-80.37,21.28-75.28-1.67,4.24,20.23,72.99,17.91,75.06-.26.15.59.23,1.23.22,1.93Z"/><path class="cls-10" d="M143.99,145.3c-7.07,0-14.13-.84-20.98-2.51-3.64-.89-6.62-1.85-8.85-2.85-4.94-2.21-8.35-7.68-8.42-11.4-.09-4.61,3.3-7.22,5.79-8.26-1.7-3.68-6.83-16.81.43-28.66l.06-.1c.05-.08.1-.16.15-.24,6.46-10.18,15.83-11.77,22.44-9.86,4.54,1.31,8.09,4.19,9.65,7.59,1.53-3.41,5.05-6.32,9.58-7.67,6.6-1.96,15.98-.45,22.53,9.68.07.1.14.22.22.34,7.36,11.77,2.35,24.95.68,28.64,2.49,1.02,5.91,3.6,5.86,8.21-.04,3.72-3.39,9.22-8.33,11.48-2.32,1.04-5.4,2.04-9.16,2.98-7.09,1.77-14.38,2.65-21.65,2.65ZM129.52,82.6c-4.39,0-10.68,1.69-15.76,9.7-.05.07-.09.14-.13.2l-.07.11c-7.78,12.7.03,27.61.11,27.76l.56,1.05-1.14.31c-.23.06-5.57,1.61-5.46,6.77.06,3.07,3.08,7.82,7.31,9.72,2.13.96,4.99,1.88,8.52,2.74,13.6,3.32,28.03,3.27,41.73-.14,3.65-.91,6.62-1.87,8.84-2.87,4.21-1.93,7.18-6.7,7.22-9.78.06-5.17-5.29-6.66-5.52-6.72l-1.14-.31.55-1.05c.08-.15,7.76-15.13-.14-27.76-.06-.11-.12-.2-.19-.3-7.54-11.66-17.53-9.76-20.41-8.9-5.27,1.57-9.08,5.63-9.07,9.65,0,.52-.42.95-.94.95-.03,0-.06,0-.09,0-.03,0-.06,0-.1,0-.52,0-.94-.42-.95-.94-.02-4.02-3.87-8.05-9.15-9.57-.91-.26-2.54-.62-4.57-.62Z"/><ellipse class="cls-4" cx="158.85" cy="128.81" rx="4.68" ry="2.6" transform="translate(-.56 .7) rotate(-.25)"/><ellipse class="cls-4" cx="129.71" cy="128.94" rx="4.68" ry="2.6" transform="translate(-.56 .57) rotate(-.25)"/><path class="cls-10" d="M145.97,125.31c-.2.06-.39-.11-.36-.32.08-.62.36-1.69,1.26-1.83,1.19-.19,1.33.84,1.22,1.15-.12.36-.42.59-1.02.71-.36.08-.79.19-1.1.28Z"/><path class="cls-10" d="M142.71,125.32c.2.06.39-.11.36-.32-.09-.62-.38-1.68-1.28-1.82-1.19-.18-1.32.85-1.21,1.16.13.36.43.58,1.03.71.37.07.79.18,1.1.27Z"/><ellipse class="cls-10" cx="128.56" cy="116.48" rx="7.43" ry="7.69" transform="translate(-.51 .56) rotate(-.25)"/><ellipse class="cls-6" cx="130.06" cy="114.24" rx="2.97" ry="3.07" transform="translate(-.5 .57) rotate(-.25)"/><ellipse class="cls-10" cx="160.37" cy="116.34" rx="7.03" ry="7.69" transform="translate(-.51 .7) rotate(-.25)"/><ellipse class="cls-6" cx="161.64" cy="114.1" rx="3.1" ry="3.21" transform="translate(-.5 .71) rotate(-.25)"/><path class="cls-10" d="M141.35,131.57c.2-.23.41-.46.63-.68.25-.2.48-.42.76-.59.28-.17.56-.34.89-.44.16-.06.32-.12.49-.15.17-.03.34-.07.52-.08.71-.07,1.42.12,2.03.43.15.09.29.17.43.27.13.11.26.21.37.33.24.24.42.49.58.83.11.24,0,.53-.24.63-.14.07-.31.05-.43-.02l-.08-.05c-.43-.25-.86-.54-1.27-.74-.42-.22-.86-.33-1.3-.32-.45.02-.91.14-1.36.36-.12.04-.22.12-.33.19l-.34.2c-.21.16-.43.32-.65.48l-.05.03c-.21.15-.51.1-.66-.11-.13-.18-.11-.42.03-.58Z"/><path class="cls-6" d="M168.73,142.01s11.56-5.05,14.83-18.73c2.06-8.61.17-14.54.31-17.3l2.48-14.02s5.03-8.83,17.66,9.22c7.19,10.29,10.98,48.37-30.04,55.73"/><g class="cls-9"><path class="cls-6" d="M203.65,138.34c6.03-13.19,3.02-28.34-1.13-34.26-9.14-13.06-14.3-12.05-16.45-10.49l.29-1.64s5.03-8.83,17.66,9.22c4.45,6.37,7.6,23.38-.37,37.16Z"/></g><path class="cls-5" d="M178.7,184.29c-.16.44-.34.86-.55,1.27-.79.51-2.94-1-2.97-.99.83-1.86,3.87-4.43,2.26-14.13-1.58-9.57-11.98-15.23-4.3-19.31,3.67-1.95,8.46-1.01,17.52-5.43,16.27-7.94,17.51-25.95,17.87-26,.37.62.91,16.98-14.92,29.5-7.21,5.7-17.05,7.54-17.05,7.54,0,0,.54,2.3.64,2.47-.06,0-.12-.01-.17-.02,3.08,9.36,4.41,17.64,1.67,25.09Z"/><path class="cls-10" d="M168.6,141.72c2.83-1.97,5.45-4.2,7.69-6.73,1.12-1.27,2.14-2.62,3.03-4.06.89-1.43,1.67-2.94,2.27-4.53,1.21-3.16,1.82-6.58,1.96-9.98.07-1.71,0-3.41-.16-5.13-.08-.86-.18-1.72-.28-2.59-.09-.88-.21-1.76-.18-2.78v-.05s.01-.07.01-.07l2.48-14.02.03-.17.08-.13c.07-.11.1-.16.15-.23.05-.07.09-.13.14-.19.1-.12.19-.24.3-.35.2-.23.43-.43.67-.62.48-.38,1.02-.69,1.6-.9.58-.21,1.19-.32,1.79-.33.3-.02.6.02.9.03.29.05.58.08.86.15,1.13.27,2.15.75,3.08,1.32.94.56,1.78,1.23,2.59,1.92,1.6,1.4,3.01,2.95,4.32,4.56.33.4.66.81.97,1.22.31.41.64.82.93,1.24l.91,1.26c.15.22.29.45.44.68.14.23.3.45.42.69,1.05,1.88,1.78,3.87,2.36,5.88.58,2.02.96,4.08,1.21,6.15.14,1.04.19,2.08.27,3.12.02,1.04.08,2.09.03,3.13-.02.52-.01,1.04-.06,1.56l-.12,1.56c-.04.52-.13,1.04-.19,1.56-.07.52-.13,1.04-.23,1.55l-.29,1.54c-.11.51-.25,1.02-.37,1.53l-.19.76c-.06.25-.15.5-.23.75l-.47,1.5c-.17.49-.37.98-.56,1.47l-.28.73c-.09.25-.21.48-.32.72l-.66,1.43c-.23.47-.5.92-.74,1.39-.48.94-1.08,1.8-1.64,2.68-.27.45-.61.85-.92,1.28-.32.42-.63.84-.96,1.25-1.37,1.59-2.81,3.13-4.43,4.46l-1.21,1.01c-.41.32-.85.61-1.27.92-.43.3-.85.61-1.29.9l-1.34.81c-.45.26-.89.55-1.35.79l-1.4.71-.7.36c-.23.12-.46.25-.7.35l-1.43.62-1.43.63-1.47.53c-.49.17-.98.34-1.48.5-.49.16-1,.27-1.51.39-.51.12-1.01.24-1.52.35-.25.05-.51.11-.76.15l-.77.1c-1.04.11-2.07.19-3.12.17-.18,0-.32-.15-.31-.33,0-.13.08-.23.19-.28h.02c.95-.45,1.92-.78,2.88-1.09l.72-.22c.24-.09.48-.17.71-.25.48-.16.96-.31,1.44-.46.24-.07.48-.15.72-.22.24-.07.48-.14.72-.23.47-.17.94-.33,1.42-.49l1.43-.47c.47-.18.93-.37,1.39-.56,3.71-1.5,7.18-3.56,10.22-6.12,1.54-1.26,2.9-2.71,4.2-4.22.31-.39.6-.79.9-1.18.29-.4.62-.78.87-1.21.54-.84,1.1-1.65,1.55-2.54.23-.44.49-.86.71-1.31l.63-1.35c.1-.23.22-.45.3-.68l.27-.7c.18-.47.36-.93.53-1.39l.45-1.42c.07-.24.16-.47.22-.71l.18-.73c.12-.48.25-.96.35-1.45l.28-1.47c.1-.49.16-.98.22-1.48.06-.5.15-.99.18-1.49l.12-1.49c.05-.5.04-1,.06-1.5.05-1,0-2-.02-3-.07-1-.12-1.99-.26-2.98-.24-1.98-.6-3.95-1.15-5.86-.55-1.91-1.25-3.77-2.19-5.47-.11-.22-.25-.41-.37-.61-.13-.2-.25-.4-.39-.61l-.88-1.23c-.29-.41-.61-.8-.91-1.21-.3-.4-.62-.79-.93-1.18-1.27-1.55-2.61-3.03-4.09-4.33-.74-.63-1.51-1.24-2.33-1.73-.81-.49-1.67-.89-2.53-1.09-.21-.06-.43-.08-.64-.12-.21,0-.43-.04-.63-.02-.42,0-.82.08-1.2.22-.38.14-.74.34-1.06.6-.16.13-.31.27-.45.42-.07.07-.13.15-.2.23-.03.04-.06.08-.09.12l-.06.09.11-.3-2.48,14.02v-.12c-.01.74.09,1.61.18,2.46.1.87.21,1.75.29,2.63.17,1.77.24,3.58.17,5.38-.15,3.6-.79,7.17-2.04,10.58-1.25,3.4-3.15,6.59-5.62,9.24-1.23,1.33-2.6,2.53-4.09,3.56-.74.51-1.52.98-2.32,1.39-.81.41-1.62.77-2.51,1.02-.17.05-.34-.05-.39-.22-.04-.13.02-.27.12-.35h.02Z"/><path class="cls-6" d="M201.31,102.87c-2.17,1.35-4.37,1.41-6.84,1.78-.86.13-1.75.29-2.68.56-1.65.48-2.94.92-3.79,1.26-.77.31-1.57.41-2.38.32-1.61-.16-3.23-1.01-4.55-2.22-.36-.33-.69-.68-1-1.05-.95-1.16-1.64-2.49-1.86-3.81-.27-1.57-.02-2.71.47-3.54,1.1-1.87,3.37-2.15,3.37-2.15,0,0-1.68-.7-5.46.02-3.23.62-5.24-.82-5.2-2.49,0-.4.14-.82.4-1.23,3.31-5.07,12.41-4.67,17.48-2.67,7.45,2.93,17.56,11.78,12.04,15.21Z"/><path class="cls-5" d="M185.38,97c-3.58,1.79-4.21,5.77-4.3,7.58-.36-.33-.69-.68-1-1.05.01-1.73.23-4.55,1.41-5.59,2.04-1.81,3.9-.93,3.9-.93Z"/><path class="cls-5" d="M182.04,94.03s-1.68-.7-5.46.02c-3.23.62-5.24-.82-5.2-2.49,1.41.7,3.76.99,6.42.65,1.54-.2,4.86.04,6.17.42,1.19.35,2.46.84,1.9,1.38-.63.61-3.11.3-7.19,2.17,1.1-1.87,3.37-2.15,3.37-2.15Z"/><path class="cls-5" d="M194.47,104.65c-.86.13-1.75.29-2.68.56-1.65.48-2.94.92-3.79,1.26-.77.31-1.57.41-2.38.32,1.71-1.29,2.46-4.09,3.38-5.11,2.03-2.25,6.27.24,7.98,2.22.23.27-2.92.62-2.52.75Z"/><path class="cls-10" d="M186.16,107.77c-1.21,0-2.47-.35-3.71-1.03-2.63-1.46-4.71-4.21-5.17-6.86-.32-1.85-.03-3.4.87-4.61.15-.2.31-.39.48-.55-.55.05-1.17.13-1.87.26-2.56.49-4.78-.15-5.8-1.68-.71-1.06-.69-2.36.04-3.48,3.67-5.62,13.28-5.14,18.62-3.04,5.64,2.22,13.76,8.26,14.2,13.07.15,1.59-.55,2.91-2.01,3.82-1.97,1.22-3.91,1.48-5.96,1.74-1.22.16-2.47.32-3.8.7-1.48.43-2.79.86-3.69,1.23-.69.28-1.43.42-2.2.42ZM179.72,92.77c1.7,0,2.55.33,2.68.38.4.17.63.58.57,1-.06.42-.4.76-.82.81-.01,0-1.61.23-2.5,1.44-.57.78-.74,1.84-.52,3.15.36,2.08,2.1,4.35,4.22,5.53,1.51.84,3.03,1.02,4.28.51.68-.28,1.91-.73,3.88-1.29,1.46-.42,2.79-.59,4.08-.76,1.93-.25,3.59-.46,5.21-1.47h0c.85-.53,1.2-1.18,1.12-2.05-.32-3.55-7.43-9.28-13.01-11.48-4.95-1.95-13.38-2.23-16.34,2.31-.22.34-.41.86-.05,1.39.44.66,1.73,1.29,3.88.87,1.34-.26,2.44-.34,3.32-.34Z"/><path class="cls-10" d="M182.11,106.53c-.47-.3-.93-.76-1.21-1.32-.29-.55-.38-1.15-.4-1.68-.01-.54.05-1.04.15-1.52.09-.46.24-.97.44-1.43.39-.93.99-1.75,1.69-2.41.7-.67,1.49-1.2,2.37-1.58.24-.1.52,0,.62.25.09.21.02.44-.16.57h-.02c-.66.5-1.27,1.09-1.75,1.73-.48.64-.86,1.34-1.08,2.07-.2.7-.33,1.57-.3,2.25.02.34.08.64.19.88.11.24.28.44.52.65l.04.04c.4.34.44.94.1,1.33-.31.36-.84.43-1.23.18Z"/><path class="cls-10" d="M191.18,103.42c-.24-.11-.41-.1-.51-.03-.11.06-.25.2-.39.4-.28.4-.53.95-.74,1.5-.04.12-.14.35-.24.53-.1.19-.22.37-.35.55-.27.34-.61.64-.99.87-.75.45-1.6.62-2.44.54-.52-.05-.9-.52-.85-1.04.05-.46.42-.82.87-.85h.07c.47-.04.95-.16,1.32-.38.19-.11.36-.24.5-.4.07-.08.14-.16.2-.26.07-.1.1-.16.2-.35.35-.62.73-1.24,1.35-1.79.31-.26.72-.53,1.27-.58.27-.02.54.04.77.14.23.1.4.25.54.4.18.19.17.49-.03.67-.14.13-.35.16-.51.09l-.05-.02Z"/><path class="cls-6" d="M178.89,214.24c-.63,2.39-4.88-.11-4.73.2.07.13,2.55,3.93.12,4.77-2.22.76-5.23-2.68-5.44-2.41-.21.28.51,4.27-2.45,4.34-2.55.06-4.85-4.97-4.85-4.97,0,0-5.12,2.07-6.01-.27-.52-1.36.63-2.73,2-3.8,1.57-1.22,3.43-2.05,3.43-2.05l9.78-1.29s1.86.7,3.8,1.67c2.27,1.13,4.66,2.63,4.35,3.8Z"/><path class="cls-5" d="M174.55,210.44c-1.16,1.79-3,3.09-6.01,3.65-4.6.86-8.23.08-10.99-1.98,1.57-1.22,3.43-2.05,3.43-2.05l9.78-1.29s1.86.7,3.8,1.67Z"/><path class="cls-10" d="M166.35,222.09c-2.45,0-4.44-3.19-5.27-4.74-1.24.4-3.53.97-5.05.31-.65-.29-1.13-.77-1.37-1.41-1.39-3.65,5.17-6.71,5.93-7.05.08-.04.17-.06.26-.07l9.78-1.29c.15-.02.31,0,.46.05.09.03,2.26.86,4.39,1.96,3.38,1.76,4.72,3.19,4.33,4.63-.18.67-.58,1.18-1.16,1.48-.8.4-1.78.31-2.67.08.31.9.44,1.82.15,2.61-.25.69-.78,1.19-1.54,1.45-1.75.6-3.65-.61-4.92-1.57-.16,1.47-.78,3.5-3.26,3.56-.02,0-.05,0-.07,0ZM161.55,215.24c.36,0,.7.21.86.55.85,1.85,2.64,4.46,3.97,4.41,1.06-.03,1.44-.77,1.47-2.82,0-.52.01-.84.24-1.14.16-.21.4-.35.66-.39.5-.06.83.2,1.51.74.86.68,2.65,2.1,3.72,1.73.26-.09.34-.2.38-.31.15-.4-.02-1.44-.96-3.01-.04-.07-.07-.12-.08-.13-.18-.35-.12-.79.15-1.08.47-.51,1.02-.28,1.55-.07.54.21,2.17.87,2.78.56.04-.02.12-.06.17-.25-.12-.82-3.58-2.84-7.34-4.28l-9.4,1.24c-1.83.85-5.39,3.07-4.81,4.6.04.12.12.25.36.35,1,.44,3.23-.15,4.41-.62.12-.05.23-.07.35-.07Z"/><path class="cls-6" d="M177.87,183.58c-2.09,5.72-3.13,9.33-3.47,14.65-.44,6.82-.64,12.82-7.22,14.23-7.13,1.53-11.58-2.1-13.94-8.86-1.08-3.08-1.72-6.8-1.98-10.98,0,0,8.23-6.61,16.2-9.9,4.78-1.98,7.57-1.27,9.04-.39.38.23.67.47.88.67.34.33.49.58.49.58Z"/><path class="cls-5" d="M177.87,183.58c-2.09,5.72-3.13,9.33-3.47,14.65-.44,6.82-.64,12.82-7.22,14.23-7.13,1.53-11.58-2.1-13.94-8.86,4.91,6.13,9.4,7.1,13.59,5.17,6.94-3.19,6.29-13.61,5.63-16.29-.89-3.62-3.23-3.96-2.89-4.67.35-.74,4.59-.05,6.93-5.48h0c.38.23.67.46.88.67.34.33.49.58.49.58Z"/><path class="cls-10" d="M151.56,192.6c.57,1.25.82,2.51,1.03,3.76.23,1.25.41,2.5.66,3.74.24,1.24.59,2.45,1.03,3.61.43,1.17.96,2.29,1.6,3.33,1.27,2.07,3.1,3.74,5.36,4.41,1.11.36,2.31.45,3.51.39l.45-.03.45-.06.45-.06.45-.08c.61-.1,1.17-.25,1.72-.46,1.09-.4,2.03-1.04,2.73-1.92.71-.87,1.18-1.97,1.5-3.13.63-2.35.75-4.93.92-7.51.15-2.61.5-5.28,1.16-7.85.16-.64.34-1.28.52-1.91l.53-1.9c.18-.63.43-1.24.72-1.83.3-.58.67-1.14,1.23-1.63.15-.13.38-.12.51.03.05.05.08.12.09.18h0c.11.73.04,1.39-.08,2.03-.14.63-.32,1.25-.53,1.85-.22.6-.45,1.2-.63,1.81-.18.61-.35,1.22-.5,1.84-.62,2.46-.96,4.95-1.1,7.51-.08,1.29-.16,2.6-.3,3.91-.14,1.32-.33,2.65-.69,3.98-.37,1.32-.93,2.67-1.85,3.82-.92,1.16-2.2,2.01-3.54,2.5-.67.25-1.37.44-2.03.54l-.5.09-.51.07-.51.06-.52.03c-1.38.07-2.81-.04-4.17-.47-1.36-.42-2.64-1.12-3.71-2.04-1.08-.92-1.98-2.01-2.69-3.18-.72-1.17-1.29-2.41-1.76-3.67-.47-1.26-.82-2.55-1.16-3.84-.33-1.29-.6-2.59-.7-3.91-.12-1.32-.11-2.65.28-3.98.05-.18.24-.28.42-.23.1.03.17.1.21.18h0Z"/></g></svg>