<?xml version="1.0" encoding="UTF-8"?><svg xmlns="http://www.w3.org/2000/svg" viewBox="0 0 300 300"><defs><style>.cls-1{fill:#d7edf4;}.cls-2{fill:#ffaa39;}.cls-3,.cls-4,.cls-5{stroke:#5f6da8;}.cls-3,.cls-4,.cls-5,.cls-6{fill:#5f6da8;}.cls-3,.cls-5{stroke-miterlimit:10;}.cls-7{fill:#dce6ff;}.cls-8{fill:#fff;}.cls-9{fill:none;}.cls-4{stroke-linecap:round;stroke-linejoin:round;}.cls-5{stroke-width:2px;}.cls-10{opacity:.7;}</style></defs><g id="base"><rect class="cls-9" width="300" height="300"/></g><g id="_레이어_2"><g class="cls-10"><circle class="cls-8" cx="150" cy="150" r="150"/></g><path class="cls-5" d="M68.44,59.56c-2.55-4.31-3.25-10.35,3.03-14.3,5.18-3.25,9.7-1.93,12.54,1.88l3.72-2.06-3.11-5.99c-.74-1.36.67-2.12,1.56-2.49,1.02-.21,1.94-.3,2.65,1.02l8.64,16.47c1.21,2.25-2.66,4.33-3.68,2.44l-4.44-8.46-3.67,2.04c1.78,4.15,1.08,8.22-4.47,11.84-5.44,3.61-10.28,1.79-12.76-2.39ZM79.31,58.98c3.73-2.46,3.74-4.97,1.3-8.65-1.79-2.9-4.59-4.4-7.56-2.12-3.27,2.16-2.86,5.97-1.22,8.49,2.07,3.43,5.03,4.17,7.47,2.28ZM104.96,65.9c1.42.43,1.76,1.27,1.48,2.33-.39,1.17-.93,2.38-2.11,1.88-2.82-.92-6.96-1.42-11.32-1.51-.73,4.03-2.69,7.76-4.56,10.3-.86,1.26-1.56,1.64-2.7,1.11-1.11-.37-1.44-.99-.71-1.95,2.69-3.66,5.32-9.63,3.7-15.28-.23-.84.55-1.72,1.39-2.17,1.33-.38,2.45.22,2.79,1.28.23,1.07.4,2.11.36,3.1,4.23.05,8.72-.04,11.68.92Z"/><path class="cls-5" d="M110.65,52.7c.36,1.09-.57,1.93-1.62,2.27-1,.33-2.18.09-2.42-.94l-6.36-19.17c-.52-1.57.26-2.56,1.38-2.83,1.14-.38,2.45.24,2.91,1.62l6.11,19.04ZM112.14,64.32c-2.34.57-3.97-.53-4.44-1.95-.33-1.63.26-3.67,2.63-4.14,2.13-.39,3.83.26,4.33,1.78.49,1.47-.64,3.79-2.52,4.31Z"/><path class="cls-5" d="M144.87,22.21c2.04-.21,2.69,3.13.06,3.41l-18.28,2.12.26,2.44,17.53-2.05c2.19-.23,2.7,2.68.11,2.96l-17.31,2.27.14,1.29c.06.55.36,1.52,1.09,1.24l15.48-1.93c1.54-.16,2.27.06,2.49,1.2.3,1.93-.61,1.87-1.63,2.13l-17.71,2.27c-2.14.22-3.48-.59-3.74-3.03l-1.22-9.68c-.02-1.15-.09-1.85,1.04-2.07l21.7-2.58ZM147.1,40.53c1.04-.11,1.84.76,1.93,1.66.08.75-.46,1.41-1.8,1.55l-21.26,2.94c-1.64.17-2.09-.28-2.39-1.26-.09-.85,0-1.96,1.53-2.22l21.99-2.67ZM144.09,53.97l.04-1.56c-.07-.7-.04-1.3-1.03-1.2l-15.82,2.07c-1.39.15-1.98-.19-2.1-1.34-.13-1.24.15-1.47,1.17-1.78l19.25-2.43c2.14-.23,2.64.73,2.79,3.12l.24,4.2c-.03.71-.47,1.26-1.32,1.34l-15.28,1.96.21,2.04c.06.6.25.98,1.05.9l13.64-1.74c1.34-.14,1.76.02,1.9,1.36.12,1.19-.35,1.5-1.39,1.6l-16.06,2.19c-2.14.22-3.47-.49-3.73-2.93l-.52-3.97c-.1-1-.17-1.64,1.06-1.87l15.88-1.97Z"/><path class="cls-5" d="M182.47,60.62c.79,1.22.57,2.05-.29,2.74-1.01.72-2.15,1.26-2.82.31-1.47-2.08-2.8-3.78-4.74-5.42-1.84,1.91-4.01,3.37-5.81,4.28-1.31.72-1.78.46-2.49-.61-.58-.89-.75-1.82.33-2.33.21-.07.44-.24.76-.4-1.42-1.36-2.69-2.05-4.21-3.07-1.82,1.81-3.97,3.08-5.97,4-1.39.56-1.82.4-2.58-.67-.55-1.09-.78-1.98.44-2.41,2.91-.95,5.99-3.4,7.77-7.44.27-.87,1.82-1.06,2.76-.92,1.34.49,1.35,1.55,1.04,2.62-.41.75-.7,1.37-1.19,2,1.88,1.33,3.41,2.35,4.85,3.92,1.67-1.43,3.13-3.19,4.22-5.92.27-.82,1.31-1.08,2.34-.83,1.26.38,1.76,1.51,1.4,2.57-.37.81-.78,1.56-1.28,2.29,2.21,1.88,3.97,3.39,5.47,5.27ZM168.49,33.43l.89-4.12c.08-.54.27-1.22-.72-1.36l-10.12-.93c-1.24-.18-1.92-.37-1.75-1.56.17-1.24.77-1.86,1.77-1.82l13.38,1.44c2.13.3,2.77,1.86,2.21,4.35l-1.41,6.77c-.2.68-.83.89-1.72.77l-10.46-1.03-.56,3.96c-.08.59.02,1.32.56,1.39,3.32.47,6.4.8,10.32.96,1.35.09,1.85.16,2.01,1.14.58,1.95-.65,2.48-1.52,2.56-4.91-.29-7.88-.71-13.27-1.17-2.14-.2-3.14-1.35-2.8-3.78l.97-6.83c.17-1.19.26-1.83,1.43-1.87l10.8,1.12ZM178.21,41.12l-3.08-.33c-1.14-.16-1.44-.91-1.33-1.65.14-.99.52-1.54,1.66-1.38l3.18.35.69-4.2-3.18-.35c-1.14-.16-1.44-.91-1.32-1.7.13-.94.51-1.49,1.65-1.33l3.28.36.46-3.27c.22-1.54,1.8-1.31,2.73-1.08.96.34,1.75.8,1.54,2.29l-2.87,18.89c-.34,2.43-4.6,1.82-4.31-.21l.9-6.39Z"/><path class="cls-5" d="M212.98,38.67c1.79.78.54,4.27-1.75,3.27l-10.62-4.41-8.68,19.18c-.32.73-.47,1.59.29,1.71,2.74,1.09,7.72,2.55,11.53,3.33,1.32.36,1.6.7,1.46,1.78.07,2.1-1.12,2.07-2.16,1.84-4.46-.53-9.4-2.08-14.34-4.01-2.06-.9-2.78-2.14-1.76-4.47l9.92-22.78c.7-1.11.92-1.62,2.02-1.25l14.1,5.81ZM216.83,54.25l4.29,1.54c1.19.52,1.29,1.43.93,2.26-.34.78-1.21,1.77-2.35,1.27l-4.38-1.58-6.4,14.45c-1.07,2.21-4.92.53-4.1-1.35l13.04-29.71c.6-1.38,2.02-.76,2.85-.29.84.58,1.46,1.29.88,2.62l-4.76,10.8Z"/><path class="cls-5" d="M216.76,78.43c-1.89-1.5-2.03-3.45-1.19-4.7,1.08-1.26,3.05-2.05,4.88-.47,1.62,1.44,2.15,3.17,1.26,4.51-.86,1.29-3.38,1.83-4.95.67ZM225.01,70.11c-.64.96-1.87.74-2.79.12-.87-.58-1.42-1.66-.75-2.48l11.2-16.81c.92-1.37,2.18-1.37,3.08-.65,1,.67,1.32,2.08.51,3.29l-11.26,16.53Z"/><path class="cls-8" d="M140.89,238.16v10.71c6.28,5.19,10.92,12.16,9.17,16.22-.54,1.25-1.84,2-3.21,1.93-1.34-.07-2.68-.26-4.02-.62-1.65,1.98-3.48,3.67-5.59,4.89-1.77,1.02-3.94,1.02-5.71,0-2.11-1.22-3.93-2.91-5.59-4.89-1.34.35-2.68.55-4.02.62-1.36.07-2.67-.68-3.21-1.93-1.74-4.06,2.9-11.03,9.17-16.22v-10.71h12.99Z"/><path class="cls-7" d="M128.16,248.45c-.14,1.32.72,2.55,1.75,3.38,1.63,1.32,3.78,1.98,5.87,1.79,1.61-.15,3.25-.85,4.14-2.2.94-1.43.88-3.28.79-4.99-.09-1.6-.18-3.19-.27-4.79,0-.16-.02-.33-.1-.47-.09-.18-.27-.29-.45-.39-1.8-1.04-3.92-1.37-5.97-1.69-1.73-.27-3.47-.53-5.22-.45-.13,0-.28.02-.38.11-.12.11-.12.29-.12.45,0,.69.01,1.38.02,2.06.02,2.48.04,4.97.06,7.45"/><path class="cls-7" d="M148.75,263.97c-.64.36-1.37.49-2.1.45-.86-.05-1.73-.16-2.59-.33-.75-.15-1.52.1-2.03.67-1.43,1.58-3,2.93-4.76,3.94-1.77,1.02-3.94,1.02-5.71,0-1.76-1.02-3.33-2.37-4.76-3.94-.51-.57-1.28-.82-2.03-.67-.86.17-1.73.27-2.59.33-.73.05-1.47-.09-2.1-.45-.94-.53-1.34-1.31-1.55-2.17-.24,1.22-.18,2.34.23,3.3.54,1.26,1.85,2,3.21,1.93,1.34-.07,2.67-.26,4.01-.62,1.65,1.98,3.48,3.67,5.59,4.89,1.77,1.02,3.94,1.02,5.71,0,2.11-1.22,3.93-2.91,5.59-4.89,1.34.35,2.68.55,4.01.62,1.37.07,2.67-.67,3.21-1.93.41-.96.46-2.08.23-3.3-.21.86-.61,1.64-1.55,2.17Z"/><path class="cls-4" d="M134.4,273.03c-1.16,0-2.31-.3-3.34-.89-1.91-1.1-3.7-2.63-5.45-4.64-1.16.27-2.37.44-3.62.5-1.8.1-3.47-.92-4.16-2.52-2.04-4.75,3.23-12.1,9.1-17.06v-10.26c0-.54.44-.97.97-.97h12.99c.54,0,.97.44.97.97v10.26c5.87,4.96,11.13,12.31,9.1,17.06-.69,1.6-2.36,2.62-4.16,2.52-1.24-.07-2.46-.23-3.62-.5-1.75,2.02-3.54,3.54-5.45,4.64-1.03.59-2.19.89-3.34.89ZM125.96,265.43c.28,0,.56.13.75.35,1.73,2.07,3.47,3.6,5.32,4.67,1.46.84,3.28.84,4.74,0,1.85-1.07,3.6-2.6,5.32-4.67.24-.29.63-.41,1-.32,1.23.32,2.48.52,3.82.59.98.06,1.89-.49,2.26-1.34,1.4-3.25-2.43-9.74-8.9-15.09-.22-.19-.35-.46-.35-.75v-9.74h-11.04v9.74c0,.29-.13.57-.35.75-6.47,5.35-10.3,11.83-8.9,15.09.37.86,1.28,1.4,2.26,1.34,1.34-.07,2.59-.26,3.82-.59.08-.02.17-.03.25-.03Z"/><path class="cls-4" d="M141.85,249.05c-1.01,3.98-5.04,5.63-8.75,4.37,2.35.31,5.08-.45,6.24-2.62.35-.65.54-1.37.59-2.1.04-.54.51-.95,1.05-.91.62.04,1.05.67.87,1.25h0Z"/><path class="cls-8" d="M167.19,238.16v10.71c-6.28,5.19-10.92,12.16-9.17,16.22.54,1.25,1.84,2,3.21,1.93,1.34-.07,2.68-.26,4.02-.62,1.65,1.98,3.48,3.67,5.59,4.89,1.77,1.02,3.94,1.02,5.71,0,2.11-1.22,3.93-2.91,5.59-4.89,1.34.35,2.68.55,4.02.62,1.36.07,2.67-.68,3.21-1.93,1.74-4.06-2.9-11.03-9.17-16.22v-10.71h-12.99Z"/><path class="cls-7" d="M179.93,248.45c.14,1.32-.72,2.55-1.75,3.38-1.63,1.32-3.78,1.98-5.87,1.79-1.61-.15-3.25-.85-4.14-2.2-.94-1.43-.88-3.28-.79-4.99.09-1.6.18-3.19.27-4.79,0-.16.02-.33.1-.47.09-.18.27-.29.45-.39,1.8-1.04,3.92-1.37,5.97-1.69,1.73-.27,3.47-.53,5.22-.45.13,0,.28.02.38.11.12.11.12.29.12.45,0,.69-.01,1.38-.02,2.06-.02,2.48-.04,4.97-.06,7.45"/><path class="cls-7" d="M159.34,263.97c.64.36,1.37.49,2.1.45.86-.05,1.73-.16,2.59-.33.75-.15,1.52.1,2.03.67,1.43,1.58,3,2.93,4.76,3.94,1.77,1.02,3.94,1.02,5.71,0,1.76-1.02,3.33-2.37,4.76-3.94.51-.57,1.28-.82,2.03-.67.86.17,1.73.27,2.59.33.73.05,1.47-.09,2.1-.45.94-.53,1.34-1.31,1.55-2.17.24,1.22.18,2.34-.23,3.3-.54,1.26-1.85,2-3.21,1.93-1.34-.07-2.67-.26-4.01-.62-1.65,1.98-3.48,3.67-5.59,4.89-1.77,1.02-3.94,1.02-5.71,0-2.11-1.22-3.93-2.91-5.59-4.89-1.34.35-2.68.55-4.01.62-1.37.07-2.67-.67-3.21-1.93-.41-.96-.46-2.08-.23-3.3.21.86.61,1.64,1.55,2.17Z"/><path class="cls-4" d="M173.69,273.03c-1.16,0-2.31-.3-3.34-.89-1.91-1.1-3.7-2.63-5.45-4.64-1.17.27-2.35.43-3.62.5-1.8.09-3.47-.92-4.16-2.52-2.04-4.75,3.23-12.1,9.1-17.06v-10.26c0-.54.44-.97.97-.97h12.99c.54,0,.97.44.97.97v10.26c5.87,4.96,11.14,12.31,9.1,17.06-.69,1.6-2.36,2.62-4.16,2.52-1.26-.07-2.45-.23-3.62-.5-1.75,2.02-3.54,3.54-5.45,4.64-1.03.59-2.19.89-3.34.89ZM165.24,265.43c.28,0,.56.13.75.35,1.73,2.07,3.47,3.6,5.32,4.67,1.46.84,3.28.84,4.74,0,1.85-1.07,3.6-2.6,5.32-4.67.24-.29.63-.41,1-.32,1.23.32,2.48.52,3.82.59.98.06,1.89-.49,2.26-1.34,1.4-3.25-2.43-9.74-8.9-15.09-.22-.19-.35-.46-.35-.75v-9.74h-11.04v9.74c0,.29-.13.57-.35.75-6.47,5.35-10.3,11.83-8.9,15.09.37.86,1.28,1.4,2.26,1.34,1.34-.07,2.59-.26,3.82-.59.08-.02.17-.03.25-.03ZM167.19,248.87h0,0Z"/><path class="cls-4" d="M168.15,248.7c.09,2.37,2,4.27,4.33,4.64.81.16,1.66.17,2.51.08-.81.25-1.67.41-2.55.41-2.9.07-5.51-1.93-6.2-4.78-.34-1.39,1.75-1.77,1.92-.35h0Z"/><path class="cls-8" d="M154.65,244.65h-.77c-62.01-1.95-38.31-45.78-39.94-49.68l4.87-17.09,2.41-.14,21.94-1.27,25.65,1.3,12.03,1.62,1.65,1.87,12.09,13.71c-1.62,3.9,22.08,47.73-39.94,49.68Z"/><path class="cls-7" d="M182.49,181.27c-4.16,9.85-16.05,16.96-30.07,16.96-15.65,0-28.64-8.85-31.2-20.48l21.94-1.27,25.65,1.3,12.03,1.62,1.65,1.87Z"/><path class="cls-7" d="M154.63,234.91h-.73c-30.41-1-39.3-12.97-40.94-24.94-1.64,14.22,2.09,33.41,40.94,34.68h.73c38.85-1.27,42.58-20.47,40.94-34.68-1.65,11.97-10.54,23.95-40.94,24.94Z"/><path class="cls-4" d="M153.88,245.63c-19.27-.6-32.37-5.34-38.97-14.07-8.02-10.61-4.58-24.39-2.73-31.8.46-1.85.99-3.94.85-4.43-.08-.2-.09-.41-.03-.62l4.87-17.1c.11-.4.47-.68.88-.71l24.35-1.41s.07,0,.11,0l25.65,1.3s.05,0,.08,0l12.03,1.62c.23.03.45.15.6.32l13.74,15.58c.24.28.31.66.17,1.01-.13.5.39,2.58.86,4.42,1.85,7.4,5.3,21.18-2.73,31.8-6.6,8.73-19.7,13.47-38.94,14.07h-.8ZM114.96,194.98c.18.94-.17,2.42-.88,5.25-1.77,7.09-5.07,20.28,2.39,30.15,6.23,8.24,18.83,12.71,37.45,13.3h.74c18.59-.58,31.19-5.06,37.42-13.3,7.46-9.87,4.16-23.06,2.39-30.15-.64-2.56-.99-4.02-.92-4.97l-13.18-14.95-11.63-1.57-25.56-1.29-23.61,1.37-4.61,16.17Z"/><path class="cls-8" d="M205.46,141.49c0,.08,0,.17,0,.25,0,.24-.02.48-.03.72-.02.57-.05,1.14-.09,1.71-.02.28-.04.56-.07.85-.02.28-.05.57-.08.85-.08.85-.19,1.69-.31,2.53-.04.28-.08.56-.13.84-.04.28-.09.56-.14.84-.09.56-.2,1.12-.32,1.68-.04.19-.08.38-.12.56-.03.13-.06.27-.09.4-.17.77-.36,1.54-.57,2.3-.06.23-.13.46-.19.69-.02.06-.04.13-.06.19-.07.24-.14.49-.22.73-.08.27-.17.54-.25.8-.17.53-.35,1.06-.54,1.59-.08.23-.17.45-.25.68-.04.09-.07.19-.11.28-.08.2-.16.41-.24.61-.17.45-.36.89-.55,1.33-.09.22-.19.44-.29.67-.07.18-.16.36-.24.54-.07.16-.14.32-.22.47-.03.08-.07.15-.11.23-.09.19-.19.39-.28.58-.13.26-.26.51-.39.77-.1.2-.2.4-.31.59-.02.04-.04.07-.06.11,0,0,0,0,0,0-6.77,12.56-19.11,22.08-37.53,24.21-5.4.26-10.66.23-15.75-.16-55.03-4.06-69.64-66.4-25-100.65.08-3.11.61-6.15,1.58-8.65,0,0,0,.01-.01.02.09-.24.19-.48.29-.71.02-.04.04-.07.05-.11.05-.11.1-.22.15-.33.18-.37.36-.72.56-1.05.06-.09.11-.19.17-.28.08-.12.16-.24.24-.36.05-.08.11-.15.16-.23.04-.06.08-.11.12-.16.06-.08.12-.15.18-.22.06-.07.12-.15.18-.21.11-.13.23-.25.34-.37.06-.06.11-.12.17-.18.07-.07.15-.14.22-.21.06-.05.11-.09.17-.14.13-.11.26-.22.4-.31.53-.38,1.26-.23,1.59.32.11.18.21.35.32.53.21.35.43.7.65,1.04,1.42,2.24,2.94,4.29,4.65,5.94,2.42-4.57,5.01-8.74,8.99-9.58.68-.15,1.31.41,1.26,1.1-.21,2.81.17,5.54,1.44,8.16,1.44-.15,2.86-.24,4.25-.3.54-.02,1.07-.04,1.61-.04.28,0,.56,0,.84,0s.54,0,.81,0c.27,0,.54,0,.81.02.26,0,.52.01.78.03.59.02,1.19.05,1.77.09.19.01.38.03.57.04.28.02.56.05.84.07.39.04.77.07,1.15.12.08,0,.16.02.23.03.2.02.41.05.61.07.2.03.41.05.61.08.2.03.4.06.6.09.4.06.8.13,1.19.19.13.02.25.04.38.06.16.03.32.06.48.09.26.05.51.1.77.15.14.03.28.06.42.09.29.06.58.13.87.19.06.01.13.03.2.05.22.05.45.11.67.16.66.17,1.31.34,1.96.53.19.05.37.11.55.17.12.04.23.07.35.11.21.06.42.13.62.2.22.07.44.15.67.22.36.12.72.25,1.07.38h0c5.68,2.07,10.7,5.07,15.04,8.74.41.35.81.7,1.21,1.06.2.18.39.36.59.54.19.18.39.37.58.55.01.01.02.02.03.03.37.36.74.72,1.1,1.09.19.19.37.38.55.57.18.19.36.39.55.58.18.19.36.39.53.59.36.39.7.79,1.05,1.2.17.2.34.41.51.61.34.41.67.82.99,1.24.14.18.28.37.42.55.02.03.04.06.06.09.16.21.31.42.46.63.15.21.31.43.46.65.3.43.6.87.89,1.31,0,0,.01.02.02.03.43.65.85,1.31,1.25,1.98.39.65.77,1.31,1.14,1.97.02.03.03.06.05.09.38.69.75,1.4,1.1,2.11.12.24.23.47.35.71,0,0,0,.02.01.02.22.47.44.94.66,1.42.32.72.64,1.45.93,2.19,0,0,0,.01,0,.02.09.24.19.48.28.72.67,1.73,1.26,3.48,1.77,5.26.29,1.02.56,2.04.8,3.07.18.77.34,1.55.49,2.33,0,0,0,0,0,0,.3,1.55.54,3.11.72,4.68.33,2.89.46,5.79.39,8.67Z"/><path class="cls-2" d="M143.32,75.67c0-.18.02-.36.03-.54.03-.44-.21-.82-.56-1,.14.52.32,1.04.53,1.55Z"/><path class="cls-7" d="M173.93,182.14c-5.02,1.24-10.17,1.86-15.34,1.95-4.52.08-8.95-.02-13.27-.31-16.84-1.08-30.38-6.32-40.21-14.06,8.67,11.08,22.5,18.88,40.82,20.23,5.09.39,10.35.43,15.75.16,15.17-1.76,26.21-8.53,33.42-17.87-5.69,4.38-12.73,7.82-21.16,9.9Z"/><path class="cls-3" d="M145.93,189.95c-11.33.84-23.7-4-32.68-10.76-14.3-10.65-21.66-29.17-19.43-46.76,1.61-14.66,9.2-28.22,19.85-38.26,2.12-2.01,4.36-3.89,6.68-5.65l-.38.75c.19-4.49.96-9.29,3.89-12.89.53-.61,1.13-1.22,1.86-1.61.89-.4,2.02-.09,2.55.73.51.83,1.04,1.7,1.58,2.51,1.18,1.77,2.46,3.47,3.95,4.9l-1.53.25c1.44-2.67,2.96-5.46,5.21-7.62,1.33-1.24,3.02-2.33,4.91-2.5.98.01,1.86.8,1.96,1.78.03.18.01.38,0,.56-.19,2.56.22,5.19,1.35,7.5,0,0-.97-.54-.97-.54,7.06-.72,14.28-.45,21.19,1.33,36.3,8.69,52.04,56.51,31.75,86.68-7.92,11.71-21.67,19.9-35.96,19.78,6.73-1.79,13.41-3.53,19.47-6.98,25.25-14.03,29.04-49.12,15.61-72.72-10.66-19.16-30.29-28.34-51.86-26.15-.42.05-.81-.19-.98-.55-.93-1.91-1.45-4.02-1.56-6.12-.05-.85-.03-1.69.03-2.53,0-.04-.03-.07-.07-.07-4.16.99-6.38,5.56-8.35,9.09-.29.57-1.08.69-1.53.25-2.35-2.28-4.1-4.93-5.76-7.68-.02-.04-.02-.03-.03-.04-.03-.05-.1-.06-.15-.04,0,0-.01,0-.02.01-.02,0-.08.07-.12.1-.37.29-.72.61-1.02.98-2.59,3.23-3.25,7.63-3.42,11.67,0,.31-.16.57-.38.75-4.46,3.52-8.6,7.47-12.17,11.89-26.03,32.01-13.59,77.29,28.17,86.04,2.74.69,5.66,1.25,8.4,1.95h0Z"/><path class="cls-6" d="M119.02,89.55c1.88-.93,3.88-1.78,5.96-2.04-1.78,1.13-3.27,2.57-5.01,3.74-1.16.68-2.14-1.06-.95-1.7h0Z"/><ellipse class="cls-8" cx="128.72" cy="147.74" rx="9.9" ry="10.23"/><ellipse class="cls-8" cx="128.72" cy="147.74" rx="9.9" ry="10.23"/><path class="cls-8" d="M137,147.74c0,.71-.08,1.4-.24,2.05-.89,3.73-4.15,6.5-8.04,6.5-3.17,0-5.92-1.83-7.31-4.53-.62-1.2-.97-2.56-.97-4.02,0-4.72,3.71-8.55,8.28-8.55s8.28,3.83,8.28,8.55Z"/><path class="cls-1" d="M137.07,148.49c-.92,3.73-4.32,6.5-8.35,6.5-3.29,0-6.15-1.83-7.6-4.53-.53-.98-.86-2.07-.97-3.22-.03.27-.04.55-.04.83,0,1.45.36,2.82,1.01,4.02,1.45,2.7,4.31,4.53,7.6,4.53,4.04,0,7.43-2.77,8.35-6.5.16-.66.25-1.34.25-2.05,0-.28-.01-.56-.04-.83-.04.43-.11.85-.21,1.26Z"/><path class="cls-6" d="M128.72,158.78c-5.91,0-10.71-4.95-10.71-11.04s4.81-11.04,10.71-11.04,10.71,4.95,10.71,11.04-4.81,11.04-10.71,11.04ZM128.72,138.32c-5.01,0-9.09,4.22-9.09,9.42s4.08,9.42,9.09,9.42,9.09-4.22,9.09-9.42-4.08-9.42-9.09-9.42Z"/><path class="cls-8" d="M131.76,151.71c-.12.2-.27.39-.44.56-.56.52-1.43.66-2.12.34-.7-.32-1.13-1.01-1.68-1.56.39-.71,1.14-1.19,2-1.19,1.12,0,2.04.8,2.23,1.86Z"/><circle class="cls-6" cx="129.53" cy="148.1" r="1.95"/><ellipse class="cls-8" cx="178.07" cy="147.74" rx="9.9" ry="10.23"/><ellipse class="cls-8" cx="178.07" cy="147.74" rx="9.9" ry="10.23"/><path class="cls-8" d="M169.79,147.74c0,.71.08,1.4.24,2.05.89,3.73,4.15,6.5,8.04,6.5,3.17,0,5.92-1.83,7.31-4.53.62-1.2.97-2.56.97-4.02,0-4.72-3.71-8.55-8.28-8.55s-8.28,3.83-8.28,8.55Z"/><path class="cls-1" d="M169.71,148.49c.92,3.73,4.32,6.5,8.35,6.5,3.29,0,6.15-1.83,7.6-4.53.53-.98.86-2.07.97-3.22.03.27.04.55.04.83,0,1.45-.36,2.82-1.01,4.02-1.45,2.7-4.31,4.53-7.6,4.53-4.04,0-7.43-2.77-8.35-6.5-.16-.66-.25-1.34-.25-2.05,0-.28.01-.56.04-.83.04.43.11.85.21,1.26Z"/><path class="cls-6" d="M178.07,158.78c-5.91,0-10.71-4.95-10.71-11.04s4.81-11.04,10.71-11.04,10.71,4.95,10.71,11.04-4.81,11.04-10.71,11.04ZM178.07,138.32c-5.01,0-9.09,4.22-9.09,9.42s4.08,9.42,9.09,9.42,9.09-4.22,9.09-9.42-4.08-9.42-9.09-9.42Z"/><path class="cls-8" d="M175.02,151.71c.12.2.27.39.44.56.56.52,1.43.66,2.12.34.7-.32,1.13-1.01,1.68-1.56-.39-.71-1.14-1.19-2-1.19-1.12,0-2.04.8-2.23,1.86Z"/><circle class="cls-6" cx="177.26" cy="148.1" r="1.95"/><path class="cls-8" d="M170.78,165.38c-.25,1.18-.95,2.21-1.87,3-5.34,4.59-7.77,11.26-13.32,12.86-.65.19-1.33.26-2,.26h-.06c-.68,0-1.35-.07-2-.26-5.55-1.61-7.98-8.28-13.32-12.86-.92-.79-1.61-1.81-1.87-3-.39-1.82-.01-3.64,1.29-4.84.69-.64,1.66-1.11,2.91-1.32.99-.17,1.89-.71,2.46-1.54,2.26-3.23,4.64-5.72,9.75-5.72h1.63c5.12,0,7.5,2.49,9.75,5.72.57.83,1.47,1.37,2.46,1.54,1.88.31,3.1,1.22,3.76,2.41.6,1.09.72,2.42.44,3.75Z"/><path class="cls-7" d="M170.78,165.38c-.25,1.18-.95,2.21-1.87,3-5.34,4.59-7.77,11.26-13.32,12.86-.65.19-1.33.26-2,.26h-.06c-.68,0-1.35-.07-2-.26-5.55-1.61-7.98-8.28-13.32-12.86-.92-.79-1.61-1.81-1.87-3-.34-1.61-.09-3.22.87-4.4.29-.35.76-.54,1.2-.45,0,0,0,0,0,0,.8.16,1.41.78,1.97,1.37,2.55,2.67,5.27,5.39,8.78,6.52,1.17.38,2.39.56,3.62.68,3.32.31,6.98,0,9.47-2.22,1.12-1,1.91-2.31,2.9-3.43.99-1.12,2.31-2.11,3.81-2.12,0,0,0,0,.01,0,.84,0,1.59.59,1.79,1.41.2.82.2,1.72,0,2.63Z"/><path class="cls-6" d="M163.95,164.62c-1.71,2.37-2.38,4.94-3.31,7.16-1.11,2.65-2.6,4.8-6.68,5.5-.09.03-.19.03-.31,0-3.58-.62-5.17-2.36-6.25-4.56-1.19-2.41-1.78-5.39-3.74-8.1,4.06,1.62,5.93-1.62,9.99-1.62h.31c4.06,0,5.93,3.25,9.99,1.62Z"/><path class="cls-8" d="M160.63,171.78c-1.11,2.65-2.6,4.8-6.68,5.5-.09.03-.19.03-.31,0-3.58-.62-5.17-2.36-6.25-4.56.69-2.4,3.48-4.2,6.81-4.2,2.89,0,5.36,1.34,6.43,3.26Z"/><path class="cls-6" d="M153.58,182.32h-.05c-.81,0-1.56-.1-2.23-.29-3.63-1.05-5.97-4.06-8.45-7.24-1.55-1.99-3.15-4.05-5.18-5.79-1.12-.96-1.85-2.15-2.13-3.44-.38-1.77-.1-3.45.78-4.74.87-1.27,2.28-2.1,4.08-2.4.78-.13,1.49-.57,1.93-1.2,2.14-3.07,4.71-6.07,10.42-6.07h1.63c5.71,0,8.28,3,10.42,6.07.44.63,1.14,1.07,1.93,1.2,1.8.3,3.21,1.13,4.08,2.4.88,1.29,1.16,2.97.78,4.74-.28,1.29-1.01,2.48-2.13,3.44-2.03,1.74-3.63,3.8-5.18,5.79-2.48,3.18-4.82,6.19-8.45,7.24h0c-.67.19-1.42.29-2.23.29ZM155.59,181.24h0,0ZM152.74,152.77c-4.49,0-6.65,1.89-9.09,5.38-.69.99-1.78,1.67-2.99,1.87-1.37.23-2.38.8-3,1.71-.63.92-.82,2.16-.53,3.48.2.94.75,1.82,1.6,2.55,2.15,1.85,3.8,3.97,5.4,6.02,2.41,3.1,4.49,5.77,7.62,6.67.53.15,1.12.23,1.78.23h.05c.66,0,1.25-.08,1.78-.23h0c3.13-.91,5.21-3.58,7.62-6.67,1.6-2.05,3.25-4.18,5.4-6.02.85-.73,1.4-1.61,1.6-2.55.28-1.33.09-2.56-.53-3.48-.62-.91-1.63-1.49-3-1.71-1.21-.2-2.3-.88-2.99-1.87-2.43-3.49-4.6-5.38-9.09-5.38h-1.63Z"/><path class="cls-6" d="M153.81,178.1c-.1,0-.21-.01-.32-.04-4.2-.73-5.8-2.94-6.82-5-.44-.89-.79-1.83-1.16-2.82-.64-1.72-1.31-3.5-2.51-5.16-.21-.29-.2-.68.02-.96s.59-.38.92-.25c2.05.82,3.4.24,5.11-.5,1.28-.55,2.72-1.18,4.59-1.18h.31c1.86,0,3.31.63,4.59,1.18,1.71.74,3.06,1.32,5.11.5.33-.13.71-.03.92.25.22.28.23.67.02.96-1.19,1.66-1.86,3.43-2.5,5.14-.24.65-.47,1.26-.73,1.86-1.1,2.63-2.74,5.18-7.23,5.97-.1.03-.21.04-.32.04ZM153.71,176.53s0,0,0,0c0,0,0,0,0,0ZM145.35,165.85c.71,1.31,1.2,2.63,1.65,3.84.36.95.69,1.85,1.1,2.68.88,1.79,2.17,3.53,5.67,4.13,0,0,.01,0,.02,0,0,0,.01,0,.02,0,3.57-.62,4.97-2.38,6.08-5.03.24-.58.47-1.17.7-1.8.45-1.2.94-2.52,1.64-3.82-1.67.14-3.02-.44-4.33-1.01-1.24-.54-2.42-1.05-3.96-1.05h-.31c-1.54,0-2.71.51-3.95,1.05-1.32.57-2.66,1.15-4.33,1.01Z"/><path class="cls-6" d="M117.19,125.16c1.51.23,2.99.42,4.3.45,2.6.06,5-1.57,5.87-4.11.5-1.45.58-3.15.21-5.1-2.64,3.62-6.09,6.55-10.39,8.75Z"/><path class="cls-6" d="M188.2,125.16c-1.51.23-2.99.42-4.3.45-2.6.06-5-1.57-5.87-4.11-.5-1.45-.58-3.15-.21-5.1,2.64,3.62,6.09,6.55,10.39,8.75Z"/><path class="cls-6" d="M124.92,97c-.17.31-.2.72-.25,1.07-.06.36-.09.72-.07,1.09.02.71.17,1.45.55,2.06.73,1.15,2.06,1.62,3.37,1.61.72,0,1.53-.14,2.12-.57.18-.13.11-.37-.11-.4-1.35-.15-2.83.33-4.03-.54-.57-.42-.87-1.09-.96-1.78-.05-.39-.03-.78-.02-1.17,0-.41.12-.87.04-1.27-.06-.3-.5-.34-.64-.08h0Z"/><path class="cls-6" d="M121.43,98.82c.12.35.35.62.54.94.18.3.32.62.41.96.19.69.18,1.41-.05,2.09-.21.64-.65,1.21-1.18,1.62-.28.22-.6.37-.91.55-.27.15-.63.32-.83.55-.07.08-.06.18.03.24.31.2.82.15,1.16.06.43-.11.82-.37,1.16-.65.68-.53,1.2-1.25,1.49-2.07.29-.83.29-1.76.06-2.6-.21-.76-.67-1.82-1.5-2.07-.22-.07-.46.16-.38.38h0Z"/><path class="cls-6" d="M123.4,108.13c-.02-1.47,1.02-2.75,2.41-3.17.75-.23,1.55-.2,2.31,0,.78.21,1.47.7,2.29.72.09,0,.17-.1.14-.18-.34-.92-1.4-1.3-2.28-1.52-.94-.23-2-.26-2.9.11-1.56.62-2.87,2.36-2.35,4.09.06.21.39.18.39-.05h0Z"/><path class="cls-8" d="M105.65,201.18c10.72,4.08,18.56-1.83,20.39-13.47.5-3.15.44-6.35,0-9.5-1.3-9.13-4.51-17-10.79-22.84-2.05,2.3-2.96,5.14-2.92,8.44l-1.5-1.72c-.53-.61-1.46-.7-2.07-.18-1.47,1.24-2.09,3.8-1.62,8.06-6.17,4.87-.16,12.04-.97,15.91-3.67,1.96-4.29,6.42-4.1,10.3.11,2.22,1.52,4.2,3.6,4.99Z"/><path class="cls-7" d="M124.33,177.75c-.43-3.09-1.09-6.02-2.01-8.77.33,1.44.6,2.92.81,4.44.42,3,.47,6.05,0,9.04-1.7,11.06-8.98,16.69-18.94,12.81-.86-.34-1.6-.9-2.16-1.6,0,.4,0,.79.03,1.18.1,2.11,1.41,3.99,3.34,4.74,9.96,3.88,17.24-1.74,18.94-12.81.46-2.99.41-6.04,0-9.04Z"/><path class="cls-3" d="M112.11,203.44c-2.15,0-4.43-.45-6.8-1.35h0c-2.44-.93-4.1-3.22-4.23-5.85-.27-5.4,1.14-9.08,4.17-10.95.06-1.04-.36-2.45-.81-3.93-1.04-3.47-2.44-8.19,1.66-11.79-.39-4.18.27-6.92,2.01-8.39.99-.84,2.49-.73,3.38.22.36-2.59,1.37-4.82,3.02-6.67.17-.2.42-.31.68-.33.27-.01.52.08.71.26,6.01,5.59,9.64,13.24,11.09,23.41.49,3.42.49,6.72,0,9.79-1.02,6.46-3.9,11.37-8.11,13.81-2.03,1.18-4.32,1.77-6.78,1.77ZM109.68,162.55c-.11,0-.22.04-.31.11-1.26,1.06-1.69,3.49-1.28,7.21.04.33-.1.66-.36.87-3.57,2.82-2.48,6.5-1.42,10.05.57,1.93,1.12,3.75.79,5.29-.06.28-.24.52-.49.66-2.62,1.4-3.82,4.56-3.59,9.39.09,1.85,1.26,3.47,2.97,4.13h0c4.51,1.72,8.63,1.62,11.91-.28,3.7-2.14,6.24-6.56,7.17-12.43.45-2.88.45-5.99,0-9.21-1.32-9.27-4.51-16.33-9.73-21.54-1.4,1.91-2.06,4.21-2.04,6.99,0,.41-.25.77-.63.92-.38.15-.81.04-1.08-.27l-1.5-1.72c-.11-.12-.26-.19-.4-.19Z"/><path class="cls-4" d="M107.17,184.39c.19,1.86-.46,3.67.02,5.47.17.55.48,1.08.91,1.55-1.18-.58-1.93-1.86-2.2-3.13-.3-1.29-.39-2.56-.68-3.69l1.94-.2h0Z"/><path class="cls-4" d="M108.01,168.95c.29,4.37,2.53,8.59,2.04,13.04-.21-3.41-1.95-6.33-3.1-9.48-.39-1.08-.7-2.22-.88-3.39l1.94-.17h0Z"/><path class="cls-4" d="M113.31,162.98c-.04,1.9.3,3.8.84,5.65.53,1.92,1.38,3.87,1.42,5.9-.72-2.99-2.71-5.43-3.58-8.39-.32-1.01-.55-2.06-.63-3.16h1.95Z"/><path class="cls-8" d="M199.71,201.18c-10.72,4.08-18.56-1.83-20.39-13.47-.5-3.15-.44-6.35,0-9.5,1.3-9.13,4.51-17,10.79-22.84,2.05,2.3,2.96,5.14,2.92,8.44l1.5-1.72c.53-.61,1.46-.7,2.07-.18,1.47,1.24,2.09,3.8,1.62,8.06,6.17,4.87.16,12.04.97,15.91,3.67,1.96,4.29,6.42,4.1,10.3-.11,2.22-1.52,4.2-3.6,4.99Z"/><path class="cls-7" d="M181.03,177.75c.43-3.09,1.09-6.02,2.01-8.77-.33,1.44-.6,2.92-.81,4.44-.42,3-.47,6.05,0,9.04,1.7,11.06,8.98,16.69,18.94,12.81.86-.34,1.6-.9,2.16-1.6,0,.4,0,.79-.03,1.18-.1,2.11-1.41,3.99-3.34,4.74-9.96,3.88-17.24-1.74-18.94-12.81-.46-2.99-.41-6.04,0-9.04Z"/><path class="cls-3" d="M193.25,203.44c-2.46,0-4.75-.59-6.78-1.77-4.21-2.44-7.1-7.35-8.11-13.81-.48-3.08-.48-6.37,0-9.79,1.45-10.17,5.08-17.83,11.09-23.41.19-.18.44-.27.71-.26.26.01.51.13.68.33,1.65,1.85,2.66,4.08,3.02,6.67.89-.95,2.39-1.06,3.38-.22,1.74,1.47,2.4,4.22,2.01,8.39,4.1,3.6,2.7,8.32,1.66,11.79-.44,1.48-.86,2.89-.81,3.93,3.03,1.87,4.44,5.55,4.17,10.95-.13,2.63-1.79,4.92-4.23,5.85-2.37.9-4.65,1.35-6.8,1.35ZM190.03,156.8c-5.22,5.21-8.41,12.27-9.73,21.54-.46,3.23-.46,6.33,0,9.21.92,5.87,3.47,10.28,7.17,12.43,3.28,1.9,7.4,2,11.91.28h0c1.71-.65,2.88-2.27,2.97-4.13.24-4.84-.97-8-3.59-9.39-.25-.14-.44-.38-.49-.66-.32-1.54.22-3.36.79-5.29,1.06-3.55,2.15-7.23-1.42-10.05-.26-.21-.4-.54-.36-.87.41-3.72-.02-6.15-1.28-7.21-.2-.17-.52-.14-.71.07l-1.5,1.72c-.27.31-.7.41-1.08.27-.38-.15-.63-.51-.63-.92.03-2.79-.64-5.08-2.04-6.99Z"/><path class="cls-4" d="M200.13,184.59c-.32,2.37-.29,5.71-2.87,6.82.46-.43.81-.95,1-1.5.56-1.84-.07-3.53-.07-5.52,0,0,1.94.2,1.94.2h0Z"/><path class="cls-4" d="M199.29,169.12c-.37,4.6-3.59,8.29-3.98,12.87-.18-2.24.3-4.51.9-6.67.57-2.1,1.14-4.22,1.14-6.38,0,0,1.94.17,1.94.17h0Z"/><path class="cls-4" d="M194,162.97c-.04,2.15-.79,4.19-1.73,6.07-.87,1.83-1.99,3.5-2.48,5.49.2-3,1.78-5.77,2.16-8.73.14-.95.18-1.9.1-2.82h1.95Z"/></g></svg>