<?xml version="1.0" encoding="UTF-8"?><svg xmlns="http://www.w3.org/2000/svg" viewBox="0 0 300 300"><defs><style>.cls-1{fill:#c63380;stroke:#c63380;stroke-miterlimit:10;stroke-width:2px;}.cls-2{fill:#fff;}.cls-3{fill:#ff0092;}.cls-4{fill:none;}.cls-5{opacity:.7;}</style></defs><g id="base"><rect class="cls-4" width="300" height="300"/></g><g id="_레이어_2"><g class="cls-5"><path class="cls-2" d="M149.75,295c-79.95,0-145-65.05-145-145S69.8,5,149.75,5s145,65.05,145,145-65.05,145-145,145Z"/><path class="cls-3" d="M149.75,10c37.4,0,72.55,14.56,98.99,41.01,26.44,26.44,41.01,61.6,41.01,98.99s-14.56,72.55-41.01,98.99c-26.44,26.44-61.6,41.01-98.99,41.01s-72.55-14.56-98.99-41.01c-26.44-26.44-41.01-61.6-41.01-98.99s14.56-72.55,41.01-98.99c26.44-26.44,61.6-41.01,98.99-41.01M149.75,0C66.91,0-.25,67.16-.25,150s67.16,150,150,150,150-67.16,150-150S232.6,0,149.75,0h0Z"/></g><path class="cls-1" d="M54.15,244.23c-1.17-1.07-1.47-1.87-.21-3.25l5.06-5.52c.55-.6,1.56-.85,2.2-.26l12.89,11.3c1.49,1.36,1.46,2.25-.07,3.77l-4.75,4.76c-.71.78-1.99,1.11-2.76.53l-12.34-11.32ZM66.73,251.6l2.98-3.25c.39-.42.95-.75.17-1.47l-8.65-7.61-3.24,3.54c-.38.56.11,1.01.47,1.34l8.27,7.46ZM82.14,226.85c1.52,1.4-.34,3.85-2.01,2.19l-3.93-3.6c-1.35,1.04-2.7,1.88-4.08,2.38.94,2.88,1.46,5.51,1.75,8.18-.01,1.29-.7,1.9-1.65,1.94-1.26.02-2.44.04-2.29-1.19.09-2.59-.08-4.89-.86-8.08-3.16.68-6.29.61-8.95.32-1.4-.25-1.98-.9-1.86-2.23.06-1.06.38-1.41,1.54-1.26,4.65.62,8.76-.04,13.05-3.01l-5.23-4.8c-.71-.65-.52-1,.23-1.81.62-.67,1.08-1.03,1.85-.45l12.45,11.42ZM77.11,212.73l7.12,8.29c.61.82.29,1.31-.94,1.94-.92.65-1.34.4-2.19-.38l-6.98-8.16c-.62-1.09-.1-1.52.66-1.93.62-.47,1.61-.41,2.32.24ZM88.49,227.6c1.01-1.1,2.1-.09,2.71.6.58.79.95,1.59-.02,2.65l-6.36,6.87,3.07,2.55c.85.78.65,1.7.13,2.27-.55.6-1.42.98-2.27.2l-3.14-2.62-4.55,4.82c-1.59,1.73-4.63-1.06-3.3-2.51l13.73-14.83Z"/><path class="cls-1" d="M83.2,262.45c-1.88-1.35-2.11-3.21-1.37-4.45.98-1.26,2.83-2.12,4.66-.69,1.63,1.3,2.21,2.94,1.43,4.26-.76,1.28-3.16,1.92-4.71.88ZM90.71,254.07c-.57.95-1.76.79-2.67.25-.87-.52-1.44-1.53-.84-2.34l9.93-16.66c.81-1.36,2.02-1.42,2.92-.77.99.59,1.36,1.93.65,3.13l-10,16.39Z"/><path class="cls-1" d="M124.13,257.55c.61,1.1.27,2-.54,2.44-1.1.61-2.17.92-2.72-.21-.99-2.09-2.45-3.91-4.75-6.34-2.63,2.29-5.54,3.76-7.89,4.39-1.47.31-2.17.13-2.75-1.06-.43-1-.29-1.56.77-1.83,4.28-1.22,8.04-3.81,10.42-8.79l-7.07-1.79c-1.02-.27-.93-.99-.67-2.01.25-.98.47-1.42,1.51-1.24l17,4.43c2,.52,1.44,3.8-.81,3.11l-5.74-1.4c-.61,1.38-1.45,2.7-2.42,3.78,2.37,2.15,4.11,4.2,5.64,6.53ZM108.95,270.9c.24-.93.62-1.23,1.66-1.05l14.16,3.14c.31-.81.94-2.48,1.13-3.18.12-.46-.09-.82-.74-.99l-13.22-2.75c-1.25-.33-1.76-.86-1.45-2.06.33-1.25.8-1.73,1.82-1.46l16.23,3.78c2.09.54,2.4,1.47,1.78,3.84-.35,1.35-1.16,4.06-1.72,5.26-.31.81-.58,1.09-1.7.8l-14.13-2.89c-.21.79-.9,2.3-.87,2.95-.08.67.2.75.95.94l13.66,3.16c1.25.33,2.04.73,1.71,1.98-.29,1.12-1.1,1.55-2.1,1.39l-16.19-3.92c-2.18-.57-2.93-1.51-2.31-3.88.12-.46.71-3.09,1.32-5.06ZM131.85,247.36c.38-1.44,1.81-1.06,2.67-.74.86.52,1.56,1.05,1.2,2.45l-1.32,4.87,3.9.82c1.11.29,1.39,1.15,1.2,1.85-.22.84-.79,1.53-1.91,1.24l-4.02-.75-1.53,5.5c-.62,2.37-4.61,1.33-4.09-.67l3.89-14.56Z"/><path class="cls-1" d="M154.29,252.24c2.06-.13,2.55,3.11.2,3.16l-12.97,1c-.91.06-1.05-.56-1.12-1.71-.06-.91,0-1.49.91-1.64l12.98-.81ZM142.96,246.41l10.42.46c1.07.13,1.2.7.8,2.02-.22,1.12-.64,1.24-1.79,1.31l-10.23-.47c-1.27-.31-1.22-.98-.98-1.81.14-.78.87-1.45,1.78-1.51ZM141.1,265.91c-.32-3.54,1.43-7.21,7.03-7.65,4.83-.49,8.14,1.66,8.37,5.39.35,4.11-2.08,6.77-7.06,7.17-4.74.3-7.91-1.19-8.34-4.92ZM149.02,267.87c2.49-.16,4.1-1.41,3.65-3.98-.27-2.05-2.17-3.14-4.36-2.81-2.63.21-4.08,2.37-3.68,4.22.3,1.67,2.04,2.71,4.39,2.56ZM173.11,278.53c1.07.99.99,1.91.27,2.72-.81.87-1.97,1.61-2.83.85-1.83-1.67-3.22-3.02-5.17-4.29-1.36,2.15-3.13,3.85-4.72,5.25-1.09,1.03-1.83.79-2.75-.07-.77-.72-.72-1.59.15-2.27.19-.11.28-.21.46-.41-1.46-1.11-2.66-1.81-4.1-2.49-1.45,2.16-3.32,3.77-5.11,5.22-1.15.89-1.93.75-2.84-.11-.68-.92-.82-1.63.24-2.37,2.54-1.75,4.99-3.97,5.87-8.5.14-.87,1.31-1.33,2.32-1.4,1.46.2,1.81,1.19,1.58,2.26-.14.78-.39,1.42-.64,2.01,1.83.8,3.57,1.65,5.22,2.75,1.25-1.57,2.32-3.61,2.83-6.29.14-.83.84-1.25,1.99-1.23,1.31.11,2.13,1.07,1.91,2.14-.24.83-.48,1.62-.72,2.31,2.44,1.34,4.29,2.43,6.06,3.9ZM162.95,258.43l4.83-.45-.54-10.12c-.09-1.39.78-1.44,1.88-1.51.96-.06,1.78.08,1.87,1.47l1.09,20.47c.05,2.35-3.5,2.58-3.62.61l-.48-7.67-4.92.5.42,6.8c.05,2.35-3.5,2.58-3.62.61l-1.18-20.37c-.09-1.49.91-1.55,1.88-1.56,1.1-.07,1.78.08,1.87,1.52l.51,9.68Z"/><path class="cls-1" d="M178.55,261.96c-4.38-10.24-2.84-15.97,1.97-18.29,5.13-2.56,9.34-.67,13.38,8.58l4.83-2.02-4.34-10.93c-.53-1.34.9-1.91,1.78-2.15.96-.18,1.86-.12,2.38,1.17l10.96,28.08c.78,2.22-2.97,3.71-3.69,1.88l-5.85-14.72-4.78,2c3.77,10.28,1.92,14.32-2.69,16.62-5.2,2.38-9.6-.11-13.93-10.22ZM190.84,268.59c2.55-1.12,3.1-4.28-.27-13.01-2.64-6.9-5.71-9.82-8.56-8.68s-2.81,5.15.28,12.91c3.56,8.96,6.07,10.19,8.55,8.79Z"/><path class="cls-1" d="M208.24,244.19c-3.51-4.5-4.34-11.35,1.63-16.49,5.52-4.79,12.26-4.81,16.07.08,2.66,3.34,3.42,6.65,2.52,9.79.22.13.48.3.68.56l4.4,6.19,2.36-1.96c1.7-1.33,4.04,1.36,2.03,2.92l-15.71,13.03c-1.25.97-1.65.62-2.51-.17-.5-.64-1.27-1.63-.23-2.56l2.16-1.68-5.11-5.93c-.09-.11-.18-.23-.23-.37-3.23.39-6.11-.89-8.06-3.39ZM222.04,241.04c3.62-3.31,2.93-7.4.57-10.43-2.87-3.36-6.92-3.49-10.45-.44-3.93,3.31-3.08,7.76-.66,10.86,2.67,3.27,6.79,3.71,10.53,0ZM220.53,246.29l4.1,5.02.06.08,5.89-4.78-4.1-5.26c-.57.75-1.32,1.51-2.09,2.24-1.27,1.18-2.58,2.07-3.86,2.7Z"/><path class="cls-1" d="M240.91,227.95c.82.73.45,1.88-.25,2.67-.67.75-1.77,1.12-2.46.38l-14.47-12.9c-1.18-1.05-1.01-2.25-.21-3.01.77-.86,2.15-.97,3.19-.05l14.2,12.92ZM247.72,236.91c-1.68,1.59-3.55,1.46-4.63.5-1.05-1.2-1.54-3.17.21-4.7,1.59-1.35,3.31-1.62,4.45-.6,1.11.99,1.29,3.46-.03,4.79Z"/><path class="cls-3" d="M149.89,42.39l-6.81,3.19c-1.71.8-3.64-.6-3.41-2.47l.93-7.46-5.14-5.49c-1.29-1.38-.56-3.65,1.3-4l7.38-1.42,3.63-6.58c.91-1.66,3.3-1.66,4.21,0l3.63,6.58,7.38,1.42c1.86.36,2.59,2.62,1.3,4l-5.14,5.49.93,7.46c.23,1.88-1.69,3.28-3.41,2.47l-6.81-3.19Z"/><path class="cls-3" d="M203.69,56.8l-7.49-.64c-1.89-.16-2.85-2.34-1.71-3.85l4.54-5.99-1.71-7.32c-.43-1.84,1.34-3.44,3.13-2.82l7.1,2.46,6.44-3.89c1.62-.98,3.68.21,3.65,2.1l-.15,7.52,5.68,4.92c1.43,1.24.94,3.57-.88,4.12l-7.19,2.18-2.92,6.93c-.74,1.74-3.1,1.99-4.19.44l-4.3-6.17Z"/><path class="cls-3" d="M243.08,96.19l-6.17-4.3c-1.55-1.08-1.3-3.45.44-4.19l6.93-2.92,2.18-7.19c.55-1.81,2.88-2.31,4.12-.88l4.92,5.68,7.52-.15c1.89-.04,3.08,2.03,2.1,3.65l-3.89,6.44,2.46,7.1c.62,1.79-.97,3.56-2.82,3.13l-7.32-1.71-5.99,4.54c-1.51,1.14-3.69.17-3.85-1.71l-.64-7.49Z"/><path class="cls-3" d="M96.08,56.8l-4.3,6.17c-1.08,1.55-3.45,1.3-4.19-.44l-2.92-6.93-7.19-2.18c-1.81-.55-2.31-2.88-.88-4.12l5.68-4.92-.15-7.52c-.04-1.89,2.03-3.08,3.65-2.1l6.44,3.89,7.1-2.46c1.79-.62,3.56.97,3.13,2.82l-1.71,7.32,4.54,5.99c1.14,1.51.17,3.69-1.71,3.85l-7.49.64Z"/><path class="cls-3" d="M56.69,96.19l-.64,7.49c-.16,1.89-2.34,2.85-3.85,1.71l-5.99-4.54-7.32,1.71c-1.84.43-3.44-1.34-2.82-3.13l2.46-7.1-3.89-6.44c-.98-1.62.21-3.68,2.1-3.65l7.52.15,4.92-5.68c1.24-1.43,3.57-.94,4.12.88l2.18,7.19,6.93,2.92c1.74.74,1.99,3.1.44,4.19l-6.17,4.3Z"/><path class="cls-3" d="M131.55,187.15s-.04-.09-.07-.13c-.13-.21-.19-.3-.34-.46-.14-.15-.3-.29-.41-.37-.17-.11-.34-.21-.53-.29,0,0-.11-.04-.12-.05-.05-.02-.09-.03-.14-.04-.09-.03-.18-.05-.28-.07-.06-.01-.13-.02-.19-.04-.02,0-.03,0-.03,0,0,0-.01,0-.03,0-.1-.01-.21-.02-.31-.02-.1,0-.21,0-.31,0-.06,0-.11,0-.17.01,0,0,0,0,0,0-.02,0-.03,0-.05,0-.2.03-.4.09-.59.16-.03.01-.07.03-.1.04,0,0,0,0,0,0-.04.02-.08.04-.13.06-.09.05-.18.1-.26.15-.05.03-.09.06-.14.09,0,0,0,0,0,0-.02.01-.03.03-.05.04-.08.07-.15.14-.23.21-.3.3-.48.57-.67.97,0,.01-.01.03-.02.05-.01,1.72.92,2.49,3.43,2.26.79-.07,1.71-1.22,1.77-2.07.01-.19,0-.36-.02-.52Z"/><path class="cls-3" d="M132.66,193.39c0-.35-.2-.68-.37-1.01,0,0,0,0,0,0-.11-.12-.28-.27-.35-.33-.34-.25-.6-.37-1-.44-.06,0-.06,0-.02,0-.03,0-.06,0-.1,0-.04,0-.08,0-.12,0-.09,0-.18,0-.26,0-.22.01-.29.01-.5.06-.65.16-1.24.63-1.43,1.31-.07.26-.1.54-.07.81.22.39.47.7.83,1,.06.05.17.13.28.2.11.07.22.12.33.18.02,0,.08.03.08.03,0,0,0,0,0,0,1.41.11,2.72.1,2.69-1.81Z"/><path class="cls-3" d="M174.29,193.46c-.31.96-2.8,1.03-3.14-.67-.64-3.18,4.31-3,3.14.67Z"/><path class="cls-3" d="M174.86,186.88c-.26-.09-.53-.19-.8-.22-.28-.03-.49.02-.71.16-.03.02,0-.01-.04.04-.02.02-.05.05-.07.07-.02.02-.03.04-.05.06,0,0,0,0,0,0,0,0,0,0-.01.02-.07.1-.12.2-.17.31,0,.01,0,.02-.01.02,0,0,0,.02-.01.03,0,.02-.02.05-.03.07-.02.06-.04.11-.06.17-.04.12-.07.24-.1.37-.05.25-.08.52-.02.76.05.18.22.33.39.44.2.12.36.18.6.24,1.45.12,2.59-1.38,1.08-2.54Z"/><path class="cls-3" d="M196.12,160.86s-.06-.06-.07-.06c-.02-.02-.04-.03-.06-.04-.06-.04-.12-.08-.19-.11-.01,0-.05-.02-.06-.03-.02,0-.04-.02-.07-.02-.03,0-.06-.02-.09-.03,0,0-.08-.01-.09-.02-.23-.03-.53.07-.77.2-.3.16-.57.37-.85.56-1.2.85-2.65,1.35-4.1,1.56-.68.16-1.38.24-2.08.22-1.46-.04-2.88-.45-4.2-1.07-.01,0-.03-.01-.04-.02-1.94-.58-3.73-1.66-5.13-3.14-.16-.17-.31-.34-.45-.51-.23-.21-.44-.43-.64-.66-.59-.66-1.65-2.57-1.92-3.41-.46-1.43-.07-2.74-.77-3.86-.86-.36-1.37,1.57-1.43,2.12-.44,3.59,3.44,8.76,6.44,10.4,2.36,1.29,5.83,2.3,8.38,2.74,1.12.19,4.76-.64,5.9-1.11.1-.04,1.69-1.08,1.77-1.16.69-.66.69-1.57.66-2.45-.03-.04-.07-.07-.11-.11Z"/><path class="cls-3" d="M208.26,161.47c0-.05,0-.1,0-.15,0-.21-.02-.31-.05-.47-.03-.18-.07-.36-.13-.53-.07-.21-.11-.32-.2-.49-.08-.16-.16-.31-.26-.45-.2-.32-.4-.56-.69-.84-.29-.28-.61-.53-.96-.74-.01,0-.02,0-.03,0-.05-.01-.08-.04-.11-.08-.25-.15-.52-.27-.79-.39-.27-.11-.54-.21-.81-.31-.08-.02-.15-.03-.23-.04-.1,0-.2-.02-.29-.02-4.52,0-2.63,4.4-.05,5.8,2.31,1.26,3.99.6,4.6-1.28Z"/><path class="cls-3" d="M172.11,139.87c-.61-.72-3.31-1.36-4.29-1.14-.29.17-.54.39-.76.67-.99,1.25-.57,3.07.4,4.19.21.24.45.46.7.65,1.66.59,4,.73,4.59-.28.58-.99.05-3.26-.65-4.08Z"/><path class="cls-3" d="M204.77,148.91c-.09-.26-.25-.53-.48-.73-.18-.16-.45-.3-.72-.38-.32-.09-.52-.11-.89-.1-.1,0-.19.01-.29.02-.01,0-.03,0-.03,0-.05,0-.1.02-.15.03-.01,0-.02,0-.04,0-.05.02-.09.03-.14.05-.12.11-.24.22-.35.33-.3.3-.59.61-.83.96-.47.69-.78,1.53-.66,2.36.04.29.14.57.29.83.15.26.34.49.57.67.09.07.27.17.4.24,0,0,.01,0,.02.01,0,0,0,0,.02,0,.04.01.08.03.11.04.08.02.16.04.23.06.05,0,.12.01.22.01.08,0,.2,0,.24-.01.06,0,.14-.02.22-.05.67-.28,1.32-.88,1.81-1.58.31-.57.51-1.24.53-1.86.01-.37-.01-.59-.13-.93Z"/><path class="cls-3" d="M176.19,140.68c.07.07.15.14.23.2,0,0,.05.04.06.05,0,0,.02.02.02.02.05.04.1.07.15.11.09.07.19.13.29.19.06.04.13.07.19.11.5.05,1.07-.03,1.68-.23,1.39-.47,1.89-4.68.69-5.07-.76-.24-1.47-.17-2.07.13-.32.24-.6.51-.84.83-.3.39-.48.84-.6,1.32-.06.26-.09.45-.1.7,0,.21,0,.52.02.67.05.37.14.67.29.97Z"/><path class="cls-3" d="M131.07,150.6c-.12-.46-.25-.91-.4-1.36-.13-.39-.26-.83-.41-1.15-.15-.32-.36-.65-.63-.86-.02-.02-.04-.03-.07-.05-.55,0-1.41.36-1.87.55-3.63,1.5-7.29,3.32-11.1,4.78l-15.06,3.76c-.37.25-.3.65-.2,1.03,1.72,6.64,6.73,11.35,13.46,12.2,7.08.9,15.73-6.2,16.75-13.23.14-.97.11-2.05.06-3.15-.13-.85-.31-1.69-.53-2.52ZM124.87,162.71c-.06.06-.13.11-.19.17-.74.95-1.64,1.77-2.68,2.38-1.06.62-2.21,1.02-3.41,1.22-.02.01-.03.02-.05.03-3.87.91-10.86-1.39-13.03-4.91-.46-.74-.72-1.51-1.23-2.38-.6-1.01-.95-1.29.21-1.62,5.05-1.43,10.42-1.76,15.24-3.73,1.83-.74,3.94-1.8,6.05-2.6.99-.38,1.96-.74,3.05-.58.24,4.53-.57,8.82-3.95,12.01Z"/><path class="cls-3" d="M97.63,153.78c.77.7,1.01,3.13.2,3.71-1.25.9-4.23,1.68-5.68,1.09s-2.21-1.34-1.65-2.96c.82-2.38,5.41-3.41,7.13-1.83Z"/><path class="cls-3" d="M99.83,145.59c.12.05,1.58,1.78,1.63,2.03.13.57.18,1.77.06,2.33-.02.09-1.19,1.26-1.28,1.28-1.08.24-2.14-.25-2.69-1.19-.65-1.12-.91-2.48-.65-3.78.17-.84,2.22-.93,2.92-.66Z"/><path class="cls-3" d="M259.46,152.72c-.3-.87-1.12-1.52-2.06-1.55-.64-.03-1.21.21-1.83.32-.68.13-.32-.75-.16-1.05.23-.46.54-.88.83-1.3.02-.02.05-.04.09-.08.08-.07.16-.16.23-.24,0,0,.02-.03.03-.03,0-.01.02-.03.03-.04.03-.04.05-.08.08-.12.06-.09.11-.19.16-.29,0-.02.04-.1.04-.1.01-.04.03-.08.04-.11.04-.1.07-.21.09-.32.01-.05.02-.09.03-.14,0-.02,0-.05.01-.07,0,0,0,0,0,0,0,0,0,0,0,0,.02-.17.02-.34.01-.51.02-.88-.52-1.71-1.38-2-.06-.02-.12-.04-.19-.05-.01,0-.02,0-.03-.01-.1-.03-.2-.06-.31-.08-.04,0-.09-.02-.13-.02-.03,0-.05,0-.08,0-.2-.02-.39-.03-.59-.01-.01,0-.13.01-.12.01-.04,0-.08.01-.12.02-.09.02-.18.04-.27.07-.06.03-.12.06-.18.09-.11.06-.22.11-.33.16-.03.02-.06.03-.09.04-.43.17-.89.24-1.33,0-.1-.06-.19-.14-.27-.22-.03-.06-.07-.11-.09-.18-.09-.28-.05-.6-.07-.89-.02-.24-.09-.48-.2-.69-.5-.92-1.61-1.29-2.59-1.05-.95.23-1.7.86-2.27,1.63-.1.1-.2.21-.3.31-.08.12-.15.24-.22.36-.13.23-.25.46-.36.69-.11.22-.22.48-.29.66-.4.97-.7,1.97-1,2.98-.13.44-.8.46-.92,0-.02-.09-.05-.17-.08-.26,0,0-.04-.09-.03-.08,0-.02-.02-.04-.03-.06-.07-.15-.16-.29-.26-.42,0-.01-.01-.02-.02-.02,0,0-.01-.01-.02-.02-.02-.02-.04-.05-.06-.07-.06-.07-.12-.13-.19-.2-.06-.05-.11-.1-.17-.15-.01,0-.02-.02-.02-.02,0,0-.01,0-.02-.02-.03-.02-.06-.04-.09-.07-.13-.09-.26-.16-.4-.23-.03-.02-.07-.03-.1-.05.02,0,.08.03-.01,0-.06-.02-.13-.05-.19-.07-.14-.05-.29-.08-.44-.11,0,0-.01,0-.02,0,0,0,0,0-.01,0-.03,0-.06,0-.09,0-.08,0-.15,0-.23,0-.52,0-1.02.15-1.4.47-.11.1-.22.21-.32.32-.05.05-.09.11-.14.16,0,.01-.06.08-.07.1-.07.11-.14.22-.2.34-.27,2.2.73,5.61.05,6.8-.2.34-2.22,1.89-2.7,2.21-3.73,2.48-7.35,5.29-10.88,8.09-.64.51-1.12,2.09-2.54,1.82-.1-.44.18-.67.39-.99,8.02-12.55,10.93-25.43,5.12-39.85-.63-1.57-1.4-2.91-2.1-4.27-.17-.24-.35-.48-.52-.72-.41-.56-.81-1.11-1.21-1.67-.2-.27-.4-.55-.59-.83-.19-.28-.33-.59-.52-.87-.05-.07-.06-.14-.05-.21-.02-.19.09-.37.3-.45.4-.15.82-.29,1.24-.39,1.56-.47,3.79.39,3.67-1.72-.07-1.29-2.55-2.38-3.61-2.9-.15-.07-.17-.41-.42-.51-1.04-.44-2.77-.45-3.9-.68-.32-2.09-.61-3.9-1.91-5.67-.79-1.08-1.02-.55-1.97-.77-.24-.06-1.88-1.4-3.08-1.61-.26-.05-.97-.08-1.4-.04-.03,0-.05.01-.08.02-.1.03-.18.05-.24.09l-.17.52c.1.22.22.34.39.51.17.17.36.33.52.51.42.45.74,1,.93,1.58.02.05.04.11.05.17,0,0,0,.01.01.02.12.22.24.44.31.67.07.25.09.52-.03.76-.13.25-.42.42-.7.4-.34-.02-.55-.23-.79-.43-.17-.15-.37-.28-.55-.42-.1-.08-.21-.16-.31-.24-.57-.35-1.14-.7-1.72-1.04-1.23-.72-2.49-1.39-3.77-2.02-.09-.03-.17-.05-.25-.08-11.81-3.95-19.43-4.45-30.33,0-1.4.57-2.23.51-3.52,1.28-6.27,3.74-9.49,6.04-13.58,11.84-1.98,2.8-4.39,6.12-5.71,9.56-.27.72-.43,2.01-.7,2.79l-.82.27c-1.01-2.3-1.71-4.75-2.82-7-2.18-4.41-5.73-9.05-9.44-12.25-1.36-1.18-2.89-2.11-4.22-3.31.43-1.21.17-2.61,1.73-2.55,1.47.06,3.93.86,5.66,1.61.53.33,1.05.68,1.56,1.05.45.32.88.67,1.34.98.03.02.05.04.08.06.29.22.62.38.98.39.17,0,.33-.02.48-.09.38-.16.58-.51.68-.89.55-1.35.91-3.18.84-3.76-.27-2.25-3.11-2.94-2.99-5.35l2.11-.07c1.35-1.16-1.18-8.69-1.56-10.45-.19-.91.46-2.3-.98-2.57-3.09-.58-6.72.56-9.45,1.94-1.91.96-2.91,2.17-4.53,3.43-.42.33-1.05.25-1.33.45-1.42,1.02-2.85,2.83-3.66,4.39-.34.66-.82,1.66-.8,2.33-.99.22-1.52-.55-2.34-.8-3.58-1.04-4.64,1.14-6.58,3.51-6.99-.84-14.17.83-20.45,3.38-3.75,1.52-4.1,1.58-6.98,3.74-1.65,1.24-3.15,2.74-4.77,4.05-1.4,1.14-1.32-.84-2-1.18-3.02-1.48-7.29,1.15-7.36,4.48-.91.35-1.05-.4-1.17-.45-6.42-2.82-11.24-3.24-18.25-1.38-1.39.37-4.15,1.23-5.14,2.23-.99.99-.25,4.1.03,5.45.33,1.59,1.42,4.07,1.62,5.48.13.98.03,2.36,0,3.5.03.04.05.08.08.12-.02-.03-.01-.02.03.02.02.03.05.05.07.07,0,0,.08.06.08.07.05.04.1.07.16.1,0,0,.08.04.09.04.38.15.73.12,1.12.03.48-.12.91-.36,1.35-.59.42-.22.91-.46,1.37-.24.57.27.52.96.2,1.4-.08.1-.16.19-.25.28-.08.13-.19.25-.29.36-.05.05-.11.11-.16.16-.01.02-.03.03-.04.05-.02.03-.04.06-.07.1-.13.2-.22.37-.3.56-.02.05-.03.09-.05.14-.1.32-.12.52-.13.83,0,.42.06.82.18,1.23.13.26.27.51.43.75.28.42.56.78.94,1.14.15.15.31.29.48.42.02,0,.03,0,.05,0,.07-.02.13-.05.2-.08.36-.34.73-.68,1.1-1.01.05-.04.1-.08.15-.13.15-.19.29-.4.43-.6.06-.08.12-.16.19-.24.01-.03.03-.06.05-.09,1.8-2.11,4.49-4.32,7.16-5.9.55-.42,1.11-.82,1.67-1.22.4-.29.86-.58,1.35-.75.23-.16.53-.28.82-.28.35,0,.73.11,1.03.32,0,0,0,0,0,0,.23.16.42.39.49.67,0,.01,0,.03,0,.04.31.39.67.82,1,1.13l.08.06s.05.04.08.07c.04.03.07.06.11.09.12.08.23.14.33.16.22.88-.89,3.74-1.08,4.88-1.16,7.18-.38,15.08,2.39,21.85.81,1.98,2.01,3.8,3,5.65,0,0,0,0,0,0,.94,1.05,1.89,2.1,2.8,3.18.23.28.47.55.7.83.19.2.39.39.58.59.31.32.62.64.94.96.05.05.09.09.14.14.18.18.37.36.54.55.11.11.22.21.33.32.35.33.59.81.28,1.26-.26.37-.76.54-1.19.39-.41-.13-.74-.47-1.04-.76-.31-.29-.61-.59-.89-.91-.3-.34-.6-.68-.87-1.03,0,0,0-.01-.01-.02-.32-.35-.62-.7-.92-1.06-.06-.07-.12-.15-.18-.22-.44-.46-.85-.94-1.25-1.44-.24-.3-.47-.6-.69-.91-.07-.09-.13-.17-.2-.26-2.56-2.61-4.83-6.22-7.19-8.69-.2-.21-.69-.33-.76-.45-.36-.61.11-6.84-.05-8.27-.29-2.58-3.05-2.78-5.17-2.34-.18-1.24-1.51-2.23-2.93-2.59-.43-.18-.9-.28-1.39-.25-.62.04-1.2.31-1.63.75-.39.41-.72,1.09-1.32,1.21-.21.04-.42,0-.62,0-.11,0-.23,0-.34,0-.51-.09-1.04.1-1.45.43-.02.01-.03.02-.05.03,0,0-.02.01-.03.02-.01,0-.03.02-.03.02-.02.02-.05.04-.07.06-.07.06-.14.13-.2.21-.07.07-.08.1-.16.21-.06.09-.11.18-.15.28,0,.01,0,.01,0,.01,0,0,0,.01-.01.03,0,.02-.02.05-.02.07-.02.05-.03.09-.04.14,0,.02-.01.05-.02.07-.11.31-.17.63-.19.95-.03.51.12,1.34-.53,1.51-.35.09-.69-.02-1.04-.05-.18-.02-.36,0-.53.06-.23.02-.45.1-.65.25-.49.37-.65,1.03-.5,1.61.08.32.23.61.4.88.18.28.38.55.49.87.07.2.11.49,0,.69-.1.1-.22.18-.35.24-.21.02-.42.02-.62.06-.45.07-.87.3-1.18.64-.68.72-.83,1.73-.53,2.65.06.18.13.35.22.51,0,0,0,.01,0,.02.43,1.19,1.34,1.63,2.43,2.64.42.38,1.19,1.42,1.5,1.64,1.61,1.13,3.84,1.4,5.68,1.88.97,6.23,3.09,12.36,6.33,17.83.28.35.57.69.86,1.04.04.05.08.1.12.14.18.2.37.4.56.59.2.17.4.33.61.48.36.26.67.58,1,.88.65.6,1.3,1.19,1.94,1.79,1.15,1.05,2.29,2.11,3.44,3.16.92.85,1.97,1.67,2.57,2.79.02.01.04.03.06.04.03.07.06.17.09.27,0,.02.02.04.03.06.27.66.34,1.36.32,2.06.31,2.64.56,6.38,1.12,6.83.18.15.36.19.58.24.46.09,1.01-.02,1.49,0-.2-2.95.74-9.7-1.19-11.93-.21-.24-1.47-.58-1.72-.72-.38-.2-.78-.37-1.09-.54-8.11-4.54-11.32-14.4-13.53-23.17,0,0,0-.01,0-.02-.03-.3-.06-.6-.09-.9,1.21-.89,2.71-1.36,3.92-2.22,1.75-1.24,2.43-3.86,4.32-1.33,1.68,2.27,3.33,4.73,5.31,6.84,1.31,1.39,5.44,5.28,6.75,5.86,1.73.76,4.2.75,5.5,1.26,1.4.55,4.74,3.57,6.18,4.45,3.94,2.42,10.94,4.26,15.26,4.93.73.11,1.56-.04,2.31.01,0,.01,0,.03,0,.04.08.01.15.05.18.14.4.93.94,1.82,1.54,2.63.13.17.26.34.4.51,3.22,2.58,7.41,3.04,11.12,1.66.29-.21.58-.44.85-.66,1.08-.87,2.13-1.8,3.42-2.33,1.69-.69,3.53-.26,5.28-.19.43.02.86.01,1.29-.03.13-.01.1-.01.25-.03.08-.01.16-.03.25-.05.16-.03.33-.07.49-.12.72-.2,1.3-.45,1.94-.86.13-.08.26-.17.39-.26.8-.93,1.36-2.21,1.75-3.22.31-1.14.55-2.28.72-3.45.03-.2.06-.4.08-.61-.02-1.12-.09-2.21-.2-2.84-.08-.49-.59-.81-.55-1.35.54-.7,1.53-.91,2.1-1.37,2.28-1.86,3.3-4.58,4.64-6.95,1.73-3.05,4.01-6.02,4.47-9.59.83-.02,1.1.29,1.21.73.06.14.11.28.15.42.06.12.11.24.17.37.17.36.32.73.47,1.1.14.36.28.72.42,1.09,1.59,3.65,3.92,7.22,5.86,10.67.78,1.39,4.61,4.15,6.12,5.52,1.24,1.11,1.77.56,1.4,2.87-.14.9-.7,1.21-.52,2.45.16,1.1,1.76,4.8,2.79,5.25.59.26,2.48.92,3.15,1.1,1.64.44,2.05.27,3.95.95,6.3,2.26,8.85,1.37,14.15-2,.39-.25.68-.86.99-1.04,1.67-.98,2.88-.35,4.57-.55,3.18-.39,6.5-1.5,9.63-2.65,4.09-1.51,6.22-3.94,9.85-5.69,4.65-2.24,7.64-2.9,11.96-6.03,3.35-2.43,7.84-5.91,10.87-8.66.6-.54,1.03-1.95,2.11-1.76.3.05,4.13,3.56,4.53,3.99.6.66,1.84,2.32,1.64,3.14-1.72,1.34-2.81,3.33-4.47,4.72-1.58,1.32-2.13,1.66-3.56,3.13-4.05,4.14-9.19,7-13.69,10.59-1.12.9-2.5.73-3.21,2.25-.56,1.19-1.79,5.96-1.82,7.21-.02,1.17.8,2.45,1.68,2.63.04-.02.08-.05.11-.07,0,0,.09-.08.11-.09.03-.03.06-.06.09-.09.07-.06.13-.13.19-.2.06-.07.17-.23.25-.36.19-.33.29-.59.4-.98.11-.42.14-.83.16-1.28.05-.95.03-1.91.19-2.85.06-.35.16-.68.3-1,.21-.64.53-1.25.95-1.79.57-.73,1.32-1.32,2.08-1.84.85-.58,1.75-1.09,2.64-1.62,1.87-1.14,3.75-2.27,5.63-3.4.43-.32.86-.63,1.28-.96,1.13-.85,2.24-1.73,3.33-2.62.18-.15.37-.3.55-.45,2.91-3.47,7.12-5.81,9.74-9.46.17-.24.09-1.11.71-1.46.26-.02.53-.03.79-.03.03-.01.07-.03.1-.04.89-.31,1.89-.2,2.82-.28.9-.07,1.86-.25,2.67-.66.38-.19.71-.42,1-.67.14-.13.28-.26.4-.41.11-.14.22-.3.33-.46.1-.18.17-.31.22-.46.04-.12.08-.24.1-.36.15-.29.24-.62.25-.98.02-.61-.24-1.19-.7-1.59-.24-.22-.53-.36-.81-.52-.24-.13-.55-.35-.55-.66,0-.32.38-.59.6-.75.02-.02.05-.03.07-.05.37-.14.75-.24,1.1-.43.86-.48,1.41-1.48,1.55-2.43.06-.41.04-.89-.25-1.21ZM66.5,147.22c0,.39-.02.79-.04,1.18-.03.4-.06.81-.11,1.21,0,.33-.02.66-.04.98-.05.8-.15,1.6-.29,2.39-.03.15-.06.3-.08.45,0,.2-.01.4-.02.58.04.12.07.25.09.37.05.25.08.5.08.74,0,.46-.11.94-.36,1.32-.19.3-.44.57-.73.79-.57.61-1.28,1.08-2.03,1.45-.88.44-1.83.75-2.8.91-.54.09-1.08.14-1.62.15-.19.02-.39.03-.58.03-.63.02-1.27-.07-1.89-.19-.05,0-.09-.03-.12-.06-.28-.04-.56-.09-.84-.16-.87-.22-1.74-.58-2.46-1.12-.37-.27-.73-.58-1.03-.92-.21-.24-.4-.5-.57-.77-.38-.35-.7-.76-.99-1.21-.25-.38-.51-.78-.59-1.24-.06-.34,0-.68.18-.95.12-.1.26-.18.4-.22.45-.13.9.22,1.26.43.39.24.82.39,1.28.39.05,0,.11,0,.17,0,.16,0,.31-.03.46-.09.35-.17.54-.55.3-.89-.24-.33-.6-.6-.9-.87-.32-.29-.63-.58-.91-.9-.27-.32-.51-.66-.67-1.05-.04-.16-.06-.33-.04-.5,0-.1.03-.2.07-.29.12-.17.3-.31.52-.39.14-.05.28-.07.43-.07.2.08.39.23.54.36.33.3.63.6,1.02.82.36.2.83.4,1.25.3.39-.09.65-.43.73-.81.09-.42-.08-.84-.27-1.2-.2-.39-.43-.76-.64-1.15-.24-.43-.46-.88-.59-1.36-.03-.13-.07-.3-.08-.47.08-.15.2-.27.37-.38.86-.52,1.4.29,1.92.88.38.64.7,1.31,1.28,1.79.21.18.46.35.75.31.29-.04.54-.28.55-.58,0-.15-.02-.32-.06-.48-.04-.25-.1-.49-.15-.73-.16-.71-.37-1.46-.26-2.19.09-.58.55-.92,1.13-.96.01,0,.02,0,.03,0,.64.08,1.17.54,1.5,1.11.18.31.32.65.41,1.01.12.19.21.39.28.6.61,1.8-.7,3.54-1.99,4.65-.73.63-1.52,1.18-2.19,1.87-.21.22-.39.43-.55.67-.16.26-.27.5-.35.8-.04.16-.04.18-.04.35,0,.03,0,.06,0,.09,0,0,0,.04,0,.05,0,.02,0,.05,0,.05,0,.03.01.06.02.09.02.07.04.13.06.2,0,.02.02.04.02.06,0,.01.01.03.02.03.03.05.06.11.09.16.01.02.03.04.04.06,0,0,.01.02.01.02.04.05.09.09.14.13,0,0,.08.06.1.07.02.01.04.02.06.03.06.02.12.04.18.05.22.04.46-.03.68-.14.28-.15.48-.34.68-.59.39-.48.72-1.01,1.16-1.48.45-.49.96-.92,1.51-1.29.44-.29.92-.51,1.37-.78.36-.27.68-.68.95-1.49.03-.08.14-.73.31-1.45,0-.04.01-.08.03-.12.06-.25.13-.51.2-.75.01-.11.02-.23.04-.34.05-.37.22-.74.5-1,.28-.26.63-.4,1-.27.36.13.59.45.67.81.07.35.06.71.05,1.07ZM126.62,99.18c.22-.7.42-1.34.66-1.94.36-.74.83-1.43,1.39-2.04.56-.6,1.21-1.1,1.85-1.61.7-.56,1.4-1.12,2.11-1.68.67-.54,1.36-1.06,2.1-1.51.22-.13.45-.26.69-.39,2.5-1.26,5.6-2.72,8.36-1.74l1.67,8.1c-.37.54-4.75-.13-5.56,1.67-.93,2.05,1.07,1.94,2.28,2.62,1.34.75,2.83,1.72,3.27,3.12.17.35.3.73.37,1.13.07.43.04.94-.3,1.27-.22.22-.52.3-.83.25-.26-.05-.47-.19-.68-.34-.43-.31-.87-.6-1.29-.93-.49-.27-.99-.53-1.5-.77-.44-.2-.87-.41-1.31-.59-1.3-.35-2.62-.71-4.14-1.11-.38-.1-.87.05-1.29-.07-1.1-.33-2.03-2.3-3.92-2.38-1.88-.07-2.18.58-3.56,1.28-.24.12-.36.32-.53.27-.04-.88.01-1.75.16-2.62ZM71.98,121.22c-1.7,1.5-.69,3.21-.93,3.49-.49.56-5.01,2.38-5.29,2.61-1.06.88-3.91,3.21-6.01,4.89-.48.49-.97.98-1.46,1.47-.19.19-.38.38-.57.57-.18.18-.38.35-.63.41-.54.13-1.01-.2-1.18-.71-.18-.52.07-1.03.39-1.43.32-.4.67-.77,1.01-1.15.05-.06.1-.12.15-.17.72-1.04,2.49-2.4,2.33-3.5-1.89-2.19-4.34.8-6.55.63,0-.38.04-.78-.06-1.16-.49-1.81-2.23-7.33-2.14-8.81.1-1.64,4.21-2.48,5.69-2.79,7.07-1.5,11.87-.51,18.27,2.6.6.29-.35,1.41-.37,1.9l-2.64,1.16ZM74.24,144.96c-.06-.31-.05-.64-.06-.96,0-.23,0-.46,0-.69,0,0,0-.01,0-.02,0-.11,0-.22.01-.32,0-.07.01-.13.02-.2-.17-2.63,1.05-11.4,2.29-13.28.16-.25,1.23-.61,1.69-1.18.35-.43.96-1.61,1.38-2.65,0-.03,0-.07.01-.1,0-.04.01-.05.02-.04,0-.02,0-.04,0-.07,0-.12.05-.24.08-.35,0,.03,0,.02,0-.03,0-.05.01-.1.02-.15.01-.07,0,0,0-.08,0-.11,0-.22,0-.33,0-.22,0-.44.01-.67,0-.01,0-.02,0-.04,0-.01,0-.03,0-.04-.01-.03-.03-.07-.04-.1.03.06-.05-.11-.06-.12-.01-.04-.01-.04-.01-.04,0,0,0,0,0-.02-.02-.04-.04-.09-.07-.13-.05-.09-.11-.18-.15-.27-.13-.16-.23-.32-.29-.52-.1-.34-.08-.76.02-1.09,0-.03.02-.06.04-.08.05-.27.14-.54.29-.77.13-.2.29-.38.46-.53.02-.04.03-.09.06-.12.03-.05.06-.08.1-.12.06-.07.13-.13.2-.19.03-.03.06-.05.09-.08.01-.01.02-.02.04-.03.04-.04.08-.06.13-.08,0,0,0,0,.01,0,.04-.03.08-.06.12-.08.05-.03.09-.05.14-.08.07-.04.14-.08.21-.11.06-.03.13-.05.2-.07.04-.01.09-.02.14-.01.03-.01.05-.02.07-.03.1-.05.19-.09.31-.11.15-.06.3-.08.47-.09.1,0,.19-.02.29-.03.01,0,.03,0,.04,0,.77-.31,1.32-1.02,1.44-1.86.04-.32.08-.59.11-.7.3-1.15,3.44-4.92,5.15-5.85,2.08-1.13,2.19-1.65,8.39-4.44,5.5-2.47,11.41-2.54,17.44-1.96,3.04.29,3.13,3.36,6.79,2.72,1.09-.19,2.49-1.78,3.27-.51.73,1.19.34,1.51,1.67,2.84,2.06,2.05,4.17.24,6.18.99.34.13.61.81.86.97,3.36,2.2,8.28,6.58,10.4,10.2.92,1.58,1.82,3.26,1.8,5.16-7.52-.7-14.89-.06-22.22,1.64-.47-.05-3.86-2.17-4.51-2.61-.59-.4-.93-1.31-1.73-1.18-1.3.33-1.51,4.16-2.03,5.35-.57,1.34-2.09.74-3.2.9-.4.06-.88.11-1.4.15-.11.04-.22.08-.33.12-1.4.49-2.86.8-4.28,1.19-3.19.87-6.34,1.89-9.44,3.05-3.07,1.16-6.07,2.47-9.04,3.89-2.98,1.43-5.88,3.06-8.7,4.79-.35.22-.71.44-1.06.66-.09.06-.19.12-.28.18-.1.08-.21.17-.31.25-.31.24-.62.47-.94.71-.32.27-.73.46-1.14.48-.6.03-1.08-.47-1.18-1.04ZM123.64,184.53c-.71.16-1.4.31-2.1.43-.13.05-.26.1-.4.13-.34.1-.69.19-1.04.27-1.16.25-2.36.32-3.52.02-.49-.13-1.01-.31-1.43-.6-.4-.27-.73-.62-1.03-1-.32-.31-.61-.65-.88-1.01-.09-.12-.05-.29.05-.39l-.02-.02s.02,0,.03.01c.04-.04.08-.07.14-.08.23-.05.43-.12.66-.13.2-.01.4.01.6.04.25.03.5.07.74.12,1.17-.22,2.35-.57,2.67-.44.06.02.3.61.89.87,1.13.5,2.92,1.03,4.21,1.26.45.08.47-.19.42.53ZM128.66,179.3c-.01.07-.04.14-.06.2-.05.28-.14.55-.28.79-.32.56-.85,1.03-1.45,1.31-.44.28-.9.38-1.37.37-.49.09-.99.09-1.48.06-.29-.02-.57-.04-.85-.07-.24-.03-.5-.08-.72-.19-.22-.06-.39-.25-.45-.47-.05-.11-.08-.23-.07-.36,0-.19.08-.35.2-.47.13-.2.33-.35.55-.44.61-.27,1.24-.47,1.86-.7.61-.23,1.22-.45,1.83-.68.59-.22,1.3-.6,1.9-.23,0,0,.02.01.03.02.15.05.28.16.31.32,0,.02,0,.04,0,.06.07.15.09.32.05.5ZM136.91,178.72c-.02.06-.51,1.03-.54,1.09-.83,1.3-2.33,2.07-3.91,2.39-.54.23-1.1.38-1.69.45-.38.04-.85.1-1.19-.1-.24-.14-.39-.38-.41-.65-.02-.2.05-.41.11-.54.18-.42.44-.8.67-1.18.24-.39.47-.79.71-1.19.25-.4.49-.81.74-1.21.17-.26.34-.52.52-.78.08-.19.17-.37.26-.56l4.44-2.8c.63-.14.89,1.05.94,1.48.08.73-.38,2.9-.64,3.61ZM149.85,144.03c-.08.64-.4,1.85-.55,3-3.55,26.45-33.83,40.05-55.72,27.37-8.48-5.24-14.78-11.89-17.61-22.01-.25-.89-.84-3.2-.63-3.95.05-.17,2.44-1.86,2.84-2.15,2.2-1.58,5.06-2.84,7.89-4,.06-.03.12-.07.18-.1,1.87-1.03,3.78-1.98,5.72-2.85,1.18-.53,2.39-1.02,3.6-1.48,6.5-2.64,13.57-4.56,20.78-5.79.25-.11.48-.25.7-.41.13-.09.25-.2.36-.31.73-.84.85-1.93.82-3.11-.06-.26-.14-.52-.24-.78-.08-.19.05-.43.22-.53.19-.11.41-.07.57.07.68.61,1.45,1.15,2.22,1.64,1.2.77,2.47,1.39,3.82,1.79,1.84-.37,3.7-.75,5.55-.98,3.86-.49,8.37-.84,12.24-.58.68.05,4.73.64,4.98.89.1.1,1.01,2.31,1.09,2.59.57,2.09,1.46,9.57,1.19,11.68ZM220.22,113.32c1.43-.13,2.75.66,4.09,1.1.5.62-1.87,1.36-2.48,1.24-.52-.1-1.77-2.2-1.61-2.34ZM216.59,106.58c1.02.94,1.78,3.38.76,4.55-2.4-1.25-2.03-2.8-2.32-5.18.12-.13,1.36.45,1.55.63ZM159.41,119.82c2.64-3.06,5.67-5.87,8.87-8.26.69-.52,1.72-1.53,2.38-1.98,10.36-7.07,27.12-7.34,38.26-1.06,4.3,2.42,14.37,11.63,15.82,16.51,2.85,9.57,4.69,17.06,1.97,27.09l-2.12,5.66-.99-1.18c-2.23-4.97-5.77-9.59-9.77-13-3.32-2.82-6.23-5.57-9.8-8.08-.52-.37-2.98-1.61-3.19-1.94-.14-1.37.99-7.41-.71-7.95-2.68-.86-5.22,3.58-7.55,3.96-3.25-.97-6.36-2.48-9.61-3.44-6.81-1.99-13.92-2.25-21-1.94-.95.04-4.22.86-4.76.28l2.21-4.68ZM171.65,182.07c-.28.31-1.36-.73-2.07-1.55-.25-.2-.47-.51-.62-.73-.23-.34-.41-.73-.53-1.13-.12-.42-.21-.93-.11-1.35.03-.11.07-.23.13-.33.05-.25.23-.48.64-.61,1.9-.62,2.61,4.42,2.55,5.7ZM176.22,181.48c-.13.05-.25.11-.38.16-.63.44-1.26.76-1.67-.03-.33-.63-.8-2.7.27-2.57.29-.1.59-.02.87.06.43.13.88.23,1.3.39.2.08.41.17.56.34.19.21.28.51.17.78-.18.47-.69.67-1.12.86ZM185.99,183.72c-.63.5-2.2.63-3.84.62-.26.03-.52.05-.78.06-1.19.07-2.38.05-3.56-.08-.21-.02-.4-.13-.46-.35-.06-.21.04-.43.22-.54.53-.33,1.06-.65,1.59-.98.8-.7,1.62-1.44,2.26-1.11,1.2.61,3.27.81,4.85,1,.87.1.07,1.11-.27,1.37ZM200.37,178.18c-8.47,2.34-19.43,1.26-26.98-2.75-1.18-.63-1.38-1.32-2.51-2.06-4.07-2.65-9.57-5.89-11.95-10.76-.79-1.61-1.2-3.24-2.18-5.04-3.59-6.54-4.59-14.73-3.35-22.83.5-1.11,1.99-7.32,2.92-7.5,1.71.36,3.34-.46,4.85-.56,8.49-.56,15.83.75,23.86,3.14,1.33.39,2.5.71,3.84,1.07.76.21,2.59,1.22,3.99,1.61.13-.03.26-.07.38-.11.31-.11.59-.26.86-.45.14-.14.27-.29.4-.44.43-.48.85-.97,1.3-1.44.14-.22.28-.43.43-.65.38-.59.77-1.29,1.45-1.6.37-.16.78-.17,1.14.04.31.19.5.54.56.89.12.72-.24,1.39-.4,2.07-.27,1.18-.22,2.45.11,3.63,0,.02.01.04.02.07.09.13.18.26.28.39.13.17.25.35.38.52,1.92,1.37,8.77,7.33,9.85,8.3,6.2,5.56,7.95,9.47,12.46,16.19.47.71,1.31.49.74,1.69-.53,1.13-2.61,3.78-3.5,4.83-3.99,4.75-12.97,10.11-18.94,11.76ZM253.5,161.67s-.02,0-.03,0c-.84.02-2.15.02-3.21-.03-.31,0-.63,0-.93-.05-.37-.03-.64-.07-.74-.12-.03-.02-.08-.05-.13-.09-.17-.06-.34-.13-.51-.21-.69-.34-1.26-.9-1.8-1.44-.63-.63-1.26-1.26-1.89-1.9-.25-.25-.49-.5-.72-.76-.75-.64-1.95-1.69-2.05-1.86-.14-.25-.23-.68-.3-1.19-.23-.63-.45-1.25-.6-1.9-.1-.42-.17-.85-.23-1.28-.05-.37-.09-.75.05-1.1.14-.35.43-.6.82-.6.38,0,.68.23.9.52.18.25.29.58.4.83.11.25.23.5.36.74.43.46.87.91,1.32,1.36,1.47,1.45,2.93,2.92,4.4,4.37.35.35.7.7,1.06,1.04.08.07.11.1.18.12.02,0,.03,0,.05.01,0,0,.07,0,.08,0,0,0,.01,0,.02,0,0,0,.01,0,.02-.01,0,0,.07-.03.08-.03.02-.01.05-.03.07-.04,0,0,.03-.02.04-.03.04-.04.08-.08.12-.12,0,0,0,0,0,0,.34-1.94-3.93-5.74-4.98-6.84.68-1.86.81-4.71,2.41-6.04.05-.08.11-.15.17-.22.25-.26.65-.42,1.01-.39.01,0,.02,0,.03,0,.02,0,.04.01.06.02.03,0,.06,0,.09.02.5.14.76.66.71,1.15-.05.5-.26.94-.48,1.38-.21.42-.43.83-.62,1.25-.18.39-.32.8-.38,1.22-.02.18-.03.43,0,.64,0,.03.03.16.05.22.01.06.03.11.05.17,0,.01,0,.02,0,.03,0,0,.01.02.02.03.17.29.3.46.6.62.02.01.05.02.07.04.03.01.07.03.11.04.04.01.09.02.13.03,0,0,.01,0,.02,0,0,0,0,0,.01,0,.03,0,.07,0,.1,0,.14-.03.26-.08.35-.15.4-.93.93-1.78,1.58-2.56.11-.13.22-.25.33-.38.18-.24.37-.47.58-.69.35-.38.87-.82,1.41-.92,0,0,0,0,.01,0,.13-.08.3-.07.43,0,.12.02.25.06.37.14.44.26.56.79.45,1.26-.11.47-.42.85-.73,1.2-.57.65-1.22,1.26-1.65,2.02-.19.33-.34.73-.37,1.08-.01.12-.01.25,0,.37,0,.12,0,.09.03.19.02.07.04.14.06.21,0,0,.04.09.04.09.02.04.05.09.07.13.06.1.06.1.13.18.05.06.11.12.17.17.03.03.09.07.18.12.03.02.06.03.08.05.01,0,.02.01.03.02,0,0,.02,0,.03,0,.06.02.12.03.18.05,0,0,.02,0,.04,0,.04,0,.08,0,.12,0,0,0,.09,0,.09,0,.17-.02.32-.08.45-.15.4-.19.76-.46,1.18-.6.36-.13.79-.18,1.17-.06.42.13.77.46.88.9.11.43,0,.91-.24,1.28-.46.69-1.41.94-2.12,1.27-.19.09-.37.18-.55.29-.14.09-.27.17-.36.25-.15.13-.27.26-.36.39-.04.06-.07.11-.1.17,0,.01-.03.08-.03.07,0,.03-.02.05-.03.08-.02.07-.04.14-.05.21,0-.03-.01.12-.01.15,0,.08,0,.15,0,.23,0,0,0,0,0,0,0,.04.02.08.03.12.01.04.03.09.04.13,0,0,0,0,0,0,0,0,0,0,0,0,.02.03.03.07.05.1,0,0,.03.03.04.05.03.03.05.06.08.08,0,0,.09.06.12.07.04.01.08.03.11.03-.02,0,.15.03.11.02.08.01.2,0,.29,0,.08,0,.16,0,.24-.01.24-.04.49-.06.73-.05.73.03,1.5.45,1.67,1.21.17.76-.42,1.36-1.12,1.52-.73.17-1.52.1-2.26,0Z"/><path class="cls-3" d="M128.73,138.23c-2.35-2.15-4.61.5-4,3.27,0,.01.02.04.04.07,0,0,0,0,0,0,.26,1,1.18,1.87,2.26,1.74,2.31.32,3.19-3.72,1.7-5.08Z"/><path class="cls-3" d="M139.26,141.3c-.32-.48-.82-.8-1.37-.97-1.18-.36-2.52-.22-3.66.21-.52.19-1.03.46-1.42.85-.04.03-.08.05-.12.08,0,0,0,0,0,0-.17.23-.32.49-.44.75-.02.03-.03.07-.05.11-.07.46-.06.99.05,1.43.03.13.07.26.12.39.05.13.06.17.13.31.06.13.14.25.22.37.09.13.11.16.2.26.11.13.22.24.33.34.12.05.24.1.36.14.17.05.34.1.51.13.05,0,.1.02.15.03,0,0,.02,0,.03,0,.08.01.17.02.25.03.15.01.3.02.44.01.41-.08.83-.19,1.26-.33.06-.02.18-.07.34-.14.73-.18,1.36-.62,1.9-1.14.05-.05.1-.1.15-.15.37-.31.71-.68.86-1.14.17-.53.08-1.09-.23-1.55Z"/></g></svg>