<?xml version="1.0" encoding="UTF-8"?><svg xmlns="http://www.w3.org/2000/svg" viewBox="0 0 300 300"><defs><style>.cls-1{fill:#dce6ff;}.cls-2{fill:#fff;}.cls-3{fill:none;}.cls-4{stroke-linecap:round;stroke-linejoin:round;}.cls-4,.cls-5{stroke:#5f6da8;}.cls-4,.cls-5,.cls-6{fill:#5f6da8;}.cls-5{stroke-miterlimit:10;stroke-width:2px;}.cls-7{opacity:.7;}</style></defs><g id="base"><rect class="cls-3" width="300" height="300"/></g><g id="_레이어_2"><g class="cls-7"><path class="cls-2" d="M150,295c-79.95,0-145-65.05-145-145S70.05,5,150,5s145,65.05,145,145-65.05,145-145,145Z"/><path class="cls-6" d="M150,10c37.4,0,72.55,14.56,98.99,41.01,26.44,26.44,41.01,61.6,41.01,98.99s-14.56,72.55-41.01,98.99c-26.44,26.44-61.6,41.01-98.99,41.01s-72.55-14.56-98.99-41.01c-26.44-26.44-41.01-61.6-41.01-98.99s14.56-72.55,41.01-98.99c26.44-26.44,61.6-41.01,98.99-41.01M150,0C67.16,0,0,67.16,0,150s67.16,150,150,150,150-67.16,150-150S232.84,0,150,0h0Z"/></g><path class="cls-5" d="M30.17,102.81l6.37-8.16c.61-.74,1.13-.56,1.98.42.82.75.7,1.15.18,2.1l-6.26,7.96c-.86.81-1.37.43-1.93-.13-.54-.5-.75-1.44-.34-2.19ZM42.14,96.13c.93-1.7,3.74-.46,2.6,1.43l-6.54,12.32c-.43.79-.99.59-1.94.07-.75-.41-1.18-.75-.83-1.58l6.7-12.23ZM41.25,88.67c-1.18-.65-.49-1.91,0-2.62.59-.7,1.27-1.2,2.42-.57l24.69,13.74c1.89,1.14.07,4.45-1.54,3.57l-25.57-14.11ZM48.42,117.17c-4.73-1.77-6.74-6.15-4.83-11.42,1.96-5.44,6.62-7.4,10.88-5.63,4.64,1.93,6.96,6.48,4.81,11.82-2.06,5.08-6.73,7.04-10.87,5.23ZM56.46,110.91c1.12-2.98-.43-5.57-3.48-6.94-2.9-1.18-5.64-.37-6.68,2.65s.5,5.46,3.73,6.87c2.5.96,5.49.29,6.44-2.58Z"/><path class="cls-5" d="M55.8,81.73c-3.3-3.07-5.25-7.91-.84-12.92,3.87-4.41,8.48-4.55,11.81-1.19,3.33,3.36,5.03,7.37.49,12.76-3.8,4.47-8.26,4.33-11.46,1.35ZM64.88,78.3c2.59-3.08,2.12-5.08-.92-7.64-2.28-2.05-4.89-2.44-6.88.29-2.27,2.7-1.14,5.69.92,7.45,2.66,2.43,5.21,2.12,6.87-.1ZM64.86,60.13c-.98-.99.04-2,.71-2.54.77-.51,1.53-.82,2.48.14l10.74,11.09c1.55,1.57-1.2,4.29-2.49,2.98l-11.44-11.66ZM73.01,89.88c-2.66-2.81-3.28-7.52,1.9-12.53,4.19-4.28,8.61-5.44,11.62-1.89,2.53,3.07,3.12,6.79-2.28,12.15-4.99,4.94-8.49,5.06-11.24,2.28ZM82.1,85.43c3.35-3.07,3.17-5.11,1.49-7.06-1.96-2.36-4.29-1.58-7.04,1.15-2.91,3.27-2.35,5.56-1.11,7.06,2.09,2.11,3.91,1.58,6.66-1.15Z"/><path class="cls-5" d="M96.22,78.09c-.05,1.06-.61,1.76-1.23,1.96-.84.29-1.59-.18-1.89-1.12-.72-2.28-2.17-4.77-3.16-7.21-.55-1.31.6-2.41,1.36-2.81.92-.4,2.71-.57,3.18.3,1.06,2.54,1.66,6.26,1.73,8.87Z"/><path class="cls-5" d="M109.98,34.89c1.66-.57,2.95,2.51.82,3.24l-9.73,3.53,5.89,18.01c.23.68.65,1.35,1.23.96,2.48-.95,6.68-3,9.68-4.79,1.09-.56,1.49-.51,2.05.3,1.32,1.36.52,2.06-.32,2.54-3.28,2.36-7.51,4.33-11.96,6.05-1.92.66-3.14.27-3.89-1.9l-7.25-21.16c-.21-1.17-.37-1.63.58-2.05l12.9-4.7ZM122,42.9l3.79-1.58c1.11-.38,1.72.17,1.99.94.25.72.27,1.9-.79,2.27l-3.87,1.61,4.52,13.48c.63,2.12-2.95,3.34-3.54,1.59l-9.38-27.66c-.44-1.28.88-1.73,1.72-1.92.91-.12,1.75-.03,2.17,1.21l3.4,10.06Z"/><path class="cls-5" d="M151.54,52.08c.71.96.75,2-.44,2.85-.88.71-2.16,1.29-2.69.37-1.35-2.43-4.56-6.63-7.37-9.41-1.85,4.97-4.19,8.48-6.32,10.77-.91.98-2.31.8-3.15-.07-.66-.83-.67-1.01-.06-1.75,4.62-5.53,7.76-13.34,7.96-25.14.06-.77,1.34-1.44,2.34-1.39,1.22.14,1.96.74,1.99,1.59-.1,4.64-.76,8.72-1.67,12.17,3.61,2.71,7.57,7.56,9.41,10.01ZM153.03,28.62c-.05-1.35,1.39-1.4,2.25-1.34.91.15,1.68.48,1.73,1.78l.85,28.25c0,2.21-3.79,2.34-3.85.5l-.97-29.19Z"/><path class="cls-5" d="M170.63,49.68c1.02-4.93,4.16-8.14,8.67-7.31,4.99.85,6.94,4.74,5.93,9.25-1.1,4.9-4.18,8.22-8.99,7.39-4.96-.93-6.65-5.03-5.61-9.33ZM176.52,55.97c2.49.37,4-1.96,4.83-5.1.66-3.05-.2-5.39-2.35-5.65-2.6-.32-3.97,1.88-4.76,5.32-.47,2.64.09,5.17,2.28,5.44ZM187.77,39.03c1.83.62,1.1,3.61-.96,2.81l-11.6-3.77c-.81-.28-.71-.86-.36-1.88.3-.89.54-1.29,1.37-1.1l11.54,3.94ZM180.81,29.05l9.09,4.86c.88.49.79,1.03.06,2.06-.77.88-1.12.76-2.09.43l-8.96-4.82c-.95-.7-.77-1.21-.17-1.87.39-.58,1.23-.96,2.08-.67ZM192.91,49.58l4.36,1.3,4.12-11.81c.44-1.28,1.42-.94,2.32-.54.67.42,1.4,1.05.98,2.28l-9.29,26.69c-.8,2.06-4.12.92-3.52-.82l4.39-12.86-4.36-1.3-3.88,11.09c-.83,2.14-4.15,1.01-3.55-.74l8.99-26.08c.45-1.32,1.51-.96,2.34-.58.75.45,1.4,1.05.98,2.28l-3.88,11.09Z"/><path class="cls-5" d="M206.02,56.75c5.98-8.56,11.3-10.17,15.54-7.5,4.79,2.98,5.23,7.54-1.07,16.09-7,9.49-11.33,10.21-15.69,7.56-4.47-2.96-4.67-7.69,1.23-16.15ZM206.84,69.82c2.15,1.48,4.94.35,10.22-6.67,4.18-5.52,4.98-9.41,2.66-11.12s-5.49.32-10.13,6.62c-5.37,7.28-5.1,9.88-2.75,11.17ZM227.21,76c.94.69.9,1.5.42,2.16-.48.65-1.28,1.13-2.22.43-1.12-.83-2.08-1.42-3.17-2-1.76,2.39-3.52,4.62-4.96,6.58-1.38,1.72-4.42-.52-3.33-2.01,5.44-7.23,12.78-17.19,17.35-23.38.85-1.16,1.98-.33,2.61.25.62.68,1.02,1.42.14,2.62l-3.34,4.53c1,.62,1.95,1.22,3,1.99.94.69.88,1.54.42,2.16-.48.65-1.28,1.13-2.22.43-1.12-.83-2.08-1.42-3.13-1.97-1.47,1.99-3.11,4.14-4.63,6.2,1.03.65,1.99,1.24,3.04,2.02Z"/><path class="cls-5" d="M228.51,81.02c3.66-3.46,8.07-4.28,11.3-1.01,3.6,3.55,2.96,7.87-.45,10.97-3.71,3.38-8.15,4.34-11.6.9-3.53-3.61-2.57-7.93.76-10.86ZM229.73,89.55c1.82,1.73,4.4.68,6.88-1.41,2.29-2.12,2.93-4.54,1.32-5.98-1.95-1.75-4.33-.74-6.95,1.62-1.9,1.89-2.89,4.28-1.25,5.76ZM246.83,93.72l2.83,3.56,10.15-7.31c1.09-.8,1.7.04,2.21.89.31.72.55,1.66-.51,2.43l-22.92,16.53c-1.83,1.23-3.9-1.61-2.42-2.69l10.97-8.02-2.83-3.56-9.54,6.86c-1.91,1.28-3.98-1.55-2.49-2.64l22.32-16.2c1.13-.82,1.79.09,2.25.87.36.8.55,1.66-.51,2.43l-9.54,6.86ZM248.66,82.12c1.14,1.56-1.17,3.58-2.4,1.75l-7.34-9.74c-.5-.69-.09-1.11.79-1.75.76-.56,1.18-.75,1.76-.11l7.2,9.85ZM248.69,69.96l4.66,9.19c.44.91.06,1.3-1.14,1.72-1.14.27-1.35-.02-1.96-.85l-4.58-9.08c-.37-1.12.06-1.44.93-1.63.65-.25,1.56-.08,2.09.65Z"/><path class="cls-5" d="M242.53,116.32c1,2.27-.06,4.99-2.33,5.99-2.27,1-4.99-.06-5.99-2.33-1-2.27.06-4.99,2.33-5.99,2.27-1,4.99.06,5.99,2.33Z"/><path class="cls-2" d="M188.67,184.59s13.7,17.04,14.19,42.71c0,0,3.59-.93,4.8,1.49,1.21,2.42,1.09,6.06,1.09,6.06,0,0,4.36-2.3,5.57,0,1.21,2.3-8.72,27.49-35.24,26.77,0,0-5.93,3.63-20.47,1.86l-8.96,1.37s-2.83,5.73-7.99,5.73-7.99-5.65-7.99-5.65l-7.91-1.78-14.21.24s-3.96,4.44-9.29,3.15c-5.33-1.29-17.04-28.99-17.28-31.41-.24-2.42,4.44-3.15,7.11.97,0,0,.4-8.15,3.96-8.52,3.55-.36,6.06,7.47,6.06,7.47,0,0,1.61-4.76,4.2-5.01,2.58-.24,3.63,2.42,3.63,2.42,0,0-.32-11.47,3.31-18.97,3.63-7.51,9.32-12.43,11.56-18.73,2.25-6.3,51.54-15.26,63.87-10.17Z"/><path class="cls-2" d="M112.13,250s-.32-10.37-1.81-15.27c-1.49-4.9-2.52-4.76-4.03-4.68-1.51.08-3.86,4.15-3.86,4.15,0,0-.13.47-.7-.14s-2.67-7.13-5.92-6.44c-3.25.69-3.86,7.64-3.86,7.64l-.4.12s-2.96-2.94-5.24-2.06c-2.28.88-.86,3.28-.34,4.92.52,1.64,5.91,14.87,10.71,22.17,4.8,7.3,5.32,6.52,8.3,6.33,2.97-.19,5.87-3.34,6.56-3.35.68-.01,12.46.02,12.56-.24s0-1.26,0-1.26c0,0-2.03-2.07-2.14-2.2-.11-.13-2.75-4.39-3.24-4.94-.49-.56-1.61-2.42-1.61-2.42l-4.09-.65-.88-.48v-1.21Z"/><path class="cls-2" d="M126.6,249.15s-3.45-10.13-1.31-13.26c2.15-3.13,8.17,1.72,8.17,1.72l.57-.08s-.76-6.32,4.26-7.12c5.02-.8,8.46,6.34,8.46,6.34l.44.24s2.86-3.84,6.54-2.91c3.67.94,3.15,6.27,2.36,10.02-.79,3.75-2.39,9.58-2.39,9.58l.41.42s5.35-1.17,7.61-1.08c2.26.09,4.03,2.21,3.39,6.17-.64,3.97-4.66,4.01-7.38,4.43-2.72.42-7.27,1.32-7.27,1.32,0,0-.81.07-1.34.83-.53.76-2.42,4.66-7.46,4.82-5.05.16-8.17-4.82-10.41-9.73s-4.65-11.7-4.65-11.7Z"/><path class="cls-1" d="M88.37,244.04s10.57,15.82,15.68,16.46c5.12.64,6.99-6.84,7.33-6.72.33.12.6,1.15.6,1.15l6.91.79,3.54,4.21,1.3,1.64s-10.77-.67-12.56-.37c-1.79.3-3.03,3.81-7.33,3.54-4.3-.27-7.96-6.09-7.96-6.09,0,0-3.78-6.54-3.88-6.66-.09-.12-3.63-7.95-3.63-7.95Z"/><path class="cls-1" d="M111.11,238.36s.9-16.26,6.43-24.4c3.01-4.42,6.43-5.99,6.43-5.99,0,0-12.45,15.72-8.37,37.19l1.18,4.96.38,1.03s-.76.94-.91.91c-.15-.03-2.9-.31-2.9-.31l-.89-.99-1.36-12.39Z"/><path class="cls-1" d="M115.61,245.16s4.41,7.82,14.1,12.42l-2.75-8.44s10.17,13.04,15.58,13.52,12.03-13,12.03-13l-2.68,9.38s5.83.35,8.25-.89c2.42-1.23,1.57-5.15,1.57-5.15,0,0,1.54-.09,2.85,2s.11,6.72-1.97,7.47c-2.08.76-9.92,1.6-10.49,1.72-.57.12-1.98.32-1.98.32l-.07-.67s-4.53,4.75-8.33,4.71c-3.79-.04-9.41-7.27-9.41-7.27l.58,2.5s-1.43.36-1.55.36-4.55-1.17-4.72-1.01-2.54-1.26-2.54-1.26c0,0-7.86-8.17-8.49-16.74Z"/><path class="cls-1" d="M152.79,233.94s3.2-21.61,12.33-34.69c0,0-4.69,13.79-5.96,22.52-1.27,8.73,4.48,23.08,5.15,21.93.67-1.15-1.03-8.9,3.57-13.75,1.51-1.21,1.92,8.47,4.48,10.54,2.56,2.07,2.66-1.94,2.66-1.94,0,0,1.03-3.27,1.03-5.33s-.67-5.65-.67-5.65v-.73s3.51,4.14,4.3,3.51c.79-.64-1.27-8.51,0-10.57,1.27-2.06,2.72.97,3.75,1.03,1.03.06,5.09-8.43.73-19.02,0,0,3.06,4.67,4.47,9.82,1.41,5.15.56,11.59-3.26,17.14,0,0,1.88,8.05-.97,9.02-2.85.97-5.75-.85-5.75-.85,0,0,.06,10.84-3.63,11.81-2.12.42-3.99-.48-3.99-.48,0,0-.19,4.72,3.39,5.87,3.57,1.15,13.26-6.9,13.75-5.81s0,5.21,0,5.21c0,0,9.57-1.7,15.99-6.72,6.42-5.03,9.75-11.63,9.75-11.63,0,0,.55,5.85-5.99,12.49-6.54,6.64-18.54,11.37-26.74,11.64l1.02-1.12s-7.69,4.51-18.27,3.19c0,0,2.04-1.93,1.09-5.2-.95-3.26-2.4-3.57-2.4-3.57l-8.05,1.4-.76-.65s3.19-10.98,2.7-15.2-3.71-4.22-3.71-4.22Z"/><path class="cls-4" d="M141.65,271.78c-4.91,0-7.88-4.28-8.78-5.8l-7.25-1.63-13.58.23c-1.2,1.16-5.06,4.34-10.08,3.12-.99-.24-4.01-.97-11.34-15.92-3.29-6.71-6.69-14.91-6.85-16.54-.14-1.36.68-2.55,2.08-3.04,1.5-.52,3.55-.21,5.33,1.16.49-2.77,1.7-6.67,4.72-6.98,2.93-.29,5.08,3.09,6.27,5.64.88-1.47,2.21-3.02,3.99-3.18,1.01-.09,1.88.15,2.58.55.16-4.01.82-11.11,3.39-16.43,1.75-3.63,3.92-6.6,6.02-9.47,2.24-3.07,4.36-5.97,5.49-9.14.47-1.32,2.05-2.54,4.96-3.84,6.29-2.8,18.45-5.67,30.98-7.33,6.56-.87,22.58-2.57,29.51.29.19.08.35.2.48.36.56.7,13.5,17.06,14.41,42.09,1.67-.08,3.74.37,4.72,2.33.77,1.53,1.05,3.44,1.16,4.82,1.09-.36,2.5-.64,3.68-.27.8.25,1.43.76,1.81,1.49.92,1.75-1.16,6.84-3.59,10.74-3.37,5.41-13.11,17.79-31.59,17.79-.27,0-.55,0-.83,0-1.47.75-7.79,3.41-20.74,1.86l-8.22,1.26c-.93,1.57-3.89,5.84-8.76,5.84ZM125.75,261.96c.09,0,.18,0,.26.03l7.91,1.78c.35.08.65.31.81.63.02.05,2.57,4.99,6.92,4.99s6.89-5.02,6.92-5.07c.17-.35.51-.59.89-.65l8.96-1.37c.11-.02.22-.02.33,0,13.83,1.69,19.65-1.66,19.7-1.69.19-.12.42-.18.65-.17,13.73.38,22.46-6.39,27.35-12.14,5.1-5.99,6.88-11.82,6.76-12.93-.54-.75-2.83,0-3.91.57-.38.2-.83.18-1.19-.05-.36-.23-.58-.63-.56-1.05,0-.03.09-3.36-.96-5.48-.76-1.52-3.41-.87-3.44-.87-.35.09-.73.01-1.02-.21-.29-.22-.47-.56-.47-.93-.44-23.31-12.11-39.58-13.74-41.74-4.6-1.72-15.01-1.73-27.99-.02-12.32,1.63-24.23,4.43-30.32,7.14-3.17,1.41-3.62,2.29-3.68,2.45-1.25,3.5-3.46,6.54-5.81,9.75-2.04,2.79-4.14,5.67-5.8,9.1-3.46,7.15-3.19,18.31-3.19,18.42.02.58-.39,1.09-.96,1.21-.57.12-1.14-.19-1.36-.74-.03-.07-.76-1.82-2.41-1.67-1.23.12-2.62,2.57-3.18,4.2-.17.49-.62.81-1.15.81-.52,0-.97-.34-1.13-.83-.89-2.78-3.03-6.82-4.79-6.64-1.72.18-2.74,4.51-2.88,7.39-.03.52-.38.96-.89,1.1-.5.14-1.03-.07-1.32-.51-1.47-2.28-3.49-2.61-4.42-2.28-.52.18-.5.44-.49.54.12,1.02,3.01,8.38,6.65,15.78,5.02,10.23,8.32,14.24,9.72,14.58,4.54,1.1,8.07-2.74,8.11-2.78.22-.25.54-.39.87-.4l14.21-.24s.01,0,.02,0ZM213.21,235.29h0s0,0,0,0Z"/><path class="cls-4" d="M165.21,250.35c-1.01,0-2-.54-2.95-1.59-3.42-3.81-6.15-14.2-4.48-25.94,2.06-14.39,6.2-24.57,6.38-24.99.25-.61.95-.9,1.56-.65.61.25.9.95.65,1.56-.04.1-4.21,10.34-6.22,24.42-1.67,11.7,1.27,21.08,3.89,24,.53.59.95.8,1.17.8,0,0,0,0,.01,0,.16,0,.31-.05.47-.25.97-1.17.91-5.07.56-7.46-.08-.57.25-1.12.79-1.31.55-.19,1.15.04,1.43.54.83,1.45,3.05,4.32,4.63,3.97,0,0,1.04-.63,1.38-6.06.19-3.05.05-6.01.05-6.04-.02-.52.29-1,.79-1.18.49-.18,1.05-.02,1.36.4,1.29,1.69,3.07,3.18,3.79,3.19.55-.7.89-4.16.72-7.43-.03-.49.25-.95.7-1.15.19-.09,4.83-2.37,5.48-10.09.67-7.97-6.99-16.19-7.07-16.27-.45-.48-.43-1.24.05-1.69.48-.45,1.24-.43,1.69.05.35.37,8.47,9.09,7.71,18.12-.62,7.36-4.49,10.6-6.14,11.66.15,4.06-.22,8.66-2.56,9.16-1.38.29-2.88-.62-4.09-1.68,0,1.01-.04,2.18-.12,3.37-.35,5.11-1.34,7.58-3.23,8-1.79.4-3.46-.63-4.74-1.87-.03,1.94-.33,4.09-1.36,5.33-.58.7-1.35,1.08-2.23,1.11-.03,0-.07,0-.1,0Z"/><path class="cls-4" d="M166.26,240.23c-.3-1.84-.12-3.67.39-5.45.18-.59.48-1.18,1.13-1.58.07-.04.16-.01.19.06.52,1.25.27,2.19.4,3.41.07.95.22,2.36.27,3.29.06,1.49-2.1,1.74-2.38.28h0Z"/><path class="cls-4" d="M174.6,231.63c-.36-1.15-.33-2.36-.24-3.55.03-.38.13-.78.56-1.22.05-.05.13-.06.2-.03.54.3.75.65.89,1.01.28.7.52,1.42.7,2.15.1.43.22.86.17,1.3-.06,1.29-1.85,1.55-2.28.35h0Z"/><path class="cls-4" d="M181.24,226.52c-.3-.91-.32-1.89-.28-2.85,0-.33.1-.67.5-1.09.05-.05.13-.07.19-.04.55.2.78.47.93.76.45.85.86,1.74.99,2.69.16,1.44-1.87,1.89-2.34.54h0Z"/><path class="cls-4" d="M133.66,266.13c-.38,0-.75-.18-.98-.51-4.83-6.83-10.41-23.26-9.02-28.95.27-1.11.8-1.88,1.58-2.28,2.84-1.47,5.87,0,7.76,1.32.25-1.63.84-3.72,2.23-5.09,1.05-1.04,2.37-1.52,3.94-1.45,4.22.19,6.85,3.72,8.09,5.92,2.09-2.03,4.91-2.91,7.1-2.07,1.57.6,4.09,2.57,3.26,9-1.34,10.34-6.64,22.77-6.87,23.29-.26.61-.97.89-1.57.63-.61-.26-.89-.97-.63-1.57.05-.13,5.4-12.65,6.69-22.65.45-3.51-.18-5.86-1.74-6.46-1.62-.62-4.1.59-5.53,2.68-.25.37-.69.57-1.13.51-.44-.05-.82-.35-.98-.76-.02-.06-2.34-5.93-6.81-6.13-.87-.04-1.58.21-2.15.76-1.48,1.45-1.72,4.65-1.69,5.76.01.49-.28.95-.73,1.14-.45.19-.98.09-1.33-.27-.04-.04-3.96-3.92-6.83-2.44-.07.04-.23.23-.35.72-1.13,4.61,3.88,20.26,8.65,27,.38.54.25,1.29-.29,1.67-.21.15-.45.22-.69.22Z"/><path class="cls-4" d="M158.61,264.68c-.64,0-1.17-.5-1.2-1.14-.03-.66.48-1.22,1.14-1.25,4.79-.22,5.5-2.84,5.49-4.39,0-2.08-1.22-3.65-1.85-3.67-2.95-.11-8.34,1.17-8.4,1.18-.64.15-1.29-.24-1.44-.89-.15-.64.24-1.29.89-1.44.23-.06,5.77-1.37,9.05-1.24,2.2.08,4.14,2.92,4.15,6.06.01,3.11-2.03,6.53-7.78,6.79-.02,0-.04,0-.06,0Z"/><path class="cls-4" d="M177.9,261.86c-.19-1.2,1.02-2.01,1.74-2.73.39-.35,1.17-1.08,1.56-1.44,1.14-1.01,1.75-2.14,3.11-3.01.07-.05.17,0,.18.08.15.88-.1,1.66-.46,2.34-.93,1.87-2.39,3.42-3.83,4.89,0,0-.02.02-.02.02h0s.07-.18.08-.25c.02-.09.03-.26,0-.38.26,1.56-1.99,2.01-2.35.47h0Z"/><path class="cls-4" d="M204.05,227.25c.12,1.73,0,3.4-.21,5.1-.29,1.72-.3,3.45-1.42,4.93-.05.07-.17.05-.2-.03-.69-1.7-.38-3.29-.5-5.02-.03-1.43-.09-3.52-.07-4.91.05-1.53,2.24-1.59,2.39-.08h0Z"/><path class="cls-4" d="M125.75,264.35c-.2,0-.41-.05-.6-.16-.4-.23-9.72-5.79-11.21-22.57-.06-.66.43-1.24,1.09-1.3.66-.06,1.24.43,1.3,1.09,1.37,15.46,9.94,20.66,10.03,20.71.57.33.76,1.07.43,1.64-.22.38-.62.6-1.04.6Z"/><path class="cls-4" d="M116.79,253.53c-.06,0-.13,0-.19-.02l-4.52-.73c-.55-.09-.96-.54-1-1.09,0-.11-.9-11.57-2.32-19-.12-.65.3-1.28.95-1.4.65-.13,1.28.3,1.4.95,1.21,6.31,2.03,15.4,2.28,18.33l3.59.58c.65.11,1.1.72.99,1.37-.09.59-.6,1.01-1.18,1.01Z"/><path class="cls-4" d="M114.04,242.61c-.83-6.15-.02-12.46,1.63-18.41.07-.28.23-.83.33-1.11.36-1.06.69-2.25,1.12-3.27,1.08-2.83,2.41-5.69,4.02-8.25.81-1.29,1.77-2.5,2.75-3.66.07-.08.22,0,.17.11-.52,1.4-1.25,2.77-1.83,4.15-.9,2.05-1.81,4.08-2.59,6.18-.42,1.26-1.03,2.98-1.35,4.24-.1.36-.35,1.26-.45,1.6-.92,3.77-1.5,7.62-1.65,11.49-.1,2.18-.05,4.41.22,6.56.17,1.54-2.06,1.89-2.37.36h0Z"/><path class="cls-4" d="M113.46,251.61c.06,1.55-.28,3.04-.86,4.47-.2.47-.5.94-1.13,1.22-.07.03-.15,0-.18-.07-.29-.62-.33-1.07-.31-1.53.04-1.32-.02-2.83.09-4.13.16-1.47,2.29-1.42,2.39.04h0Z"/><path class="cls-1" d="M122.13,200.76s42.06,7.54,62.28-13.18c0,0-7.62-.48-16.79,0-9.17.48-27.09,5.33-28.22,5.49s-11.3.65-11.3.65c0,0-2.96.14-3.29,1.05-.34.91-2.67,5.99-2.67,5.99Z"/><path class="cls-2" d="M138.26,196.62s-34.4.81-40.85-17.28c-3.88-10.17.48-11.3-2.26-26.32-2.75-15.02-1.61-41.5,20.91-51.35,1.21-.81-2.5-2.58-8.32-1.78,0,0,4.2-7.75,17.12-7.27,0,0-3.07-4.52-.48-11.95,0,0,8.72,5.81,23.09,6.62,14.37.81,38.27,3.71,53.61,33.1,15.34,29.39,5.61,57.2-17.76,66.85-22.28,9.2-45.05,9.37-45.05,9.37Z"/><path class="cls-2" d="M111.38,178.84c.04-.47-3.63-1.33-2.91-4.97.73-3.63,4.66-2.79,5.63-3.15.97-.36,4.6-2.54,4.78-5.45.18-2.91,4.3-5.33,8.17-5.33s5.39,4.06,5.39,4.06c0,0,8.11-2,8.72,4.48.61,6.48-5.03,10.23-5.15,10.35-.12.12-2.54,5.75-7.21,5.75s-8.42-2.91-11.2-3.03c-2.79-.12-6.6,1.09-6.24-2.72Z"/><path class="cls-1" d="M112.16,176.48c.08-.08,2.4-1.51,5.05-1.59,2.64-.08,7.21.5,9.67-1.92,2.46-2.42,9.29-5.85,11.3-4.08,2.02,1.78-2.62,9.95-2.62,9.95,0,0-1.17,3.36-3.11,4.25s-3.54,1.73-5.27,1.39-5.92-2.59-6.2-2.67-2.92-.65-2.92-.65c0,0,6.07.24,9.58-1.9,3.51-2.14,3.9-6.06,7.18-7.15,0,0-1.01-.88-3.73.94-2.72,1.82-5.74,4.42-8.59,4.74-2.85.31-6.24-1.44-7.51-1.44s-2.83.12-2.83.12Z"/><path class="cls-1" d="M97.41,179.35s7.47,13.16,46.55,10.09c39.08-3.07,57.12-26.73,60.68-43.84,2.58-12.19-2.64-23.39-2.64-23.39,0,0,15.51,30.64-2.64,53.2,0,0-7.37,9.62-25.39,15.21-18.02,5.59-40.34,7.86-55.1,3.82-14.76-4.04-20-9.89-21.46-15.1Z"/><path class="cls-4" d="M137.53,197.83c-2.32,0-9.59-.15-17.53-1.89-12.73-2.79-20.93-8.38-23.72-16.19-2.11-5.54-1.88-8.52-1.59-12.3.26-3.37.56-7.19-.73-14.21-.82-4.5-2.37-16.24,1-28.16,3.16-11.15,9.57-19.14,19.07-23.8-1.21-.33-3.29-.6-6.13-.2-.45.06-.89-.13-1.15-.5-.26-.37-.28-.86-.07-1.25.18-.33,4.27-7.62,16.28-7.91-.77-2.14-1.51-6,.28-11.13.12-.35.4-.62.75-.74.35-.12.74-.07,1.05.14.08.06,8.66,5.64,22.49,6.42,7.92.45,17.32,1.5,26.88,5.94,11.58,5.38,20.9,14.73,27.73,27.8,7.98,15.29,9.7,31.08,4.83,44.45-4,10.99-12.24,19.54-23.2,24.07-22.04,9.1-44.85,9.45-45.49,9.46-.07,0-.33,0-.75,0ZM110.6,98.5c3.45,0,6.25.87,6.79,2.27.27.71.01,1.46-.66,1.91-.06.04-.12.07-.18.1-20.07,8.77-23.43,32.44-20.21,50.04,1.34,7.33,1.02,11.49.76,14.83-.28,3.61-.48,6.22,1.44,11.28,6.11,17.1,39.37,16.51,39.71,16.51,0,0,.01,0,.02,0,.23,0,22.81-.27,44.6-9.28,10.33-4.27,18.1-12.32,21.86-22.67,4.63-12.73,2.96-27.83-4.7-42.52-15.87-30.4-41.62-31.84-52.62-32.46-11.42-.64-19.3-4.34-22.32-6.01-1.54,5.85.68,9.32.78,9.47.25.37.27.86.05,1.25-.22.39-.64.63-1.09.61-7.93-.3-12.33,2.6-14.43,4.67.07,0,.14,0,.21,0Z"/><path class="cls-6" d="M146.06,128c4.49,5.72,9.56,9.07,16.8,10.26.22.04.37.25.33.47-.03.17-.17.3-.34.32-1.8.28-3.66.19-5.49-.16-4.56-.93-8.76-3.88-10.99-7.99-.44-.82-.82-1.65-1.04-2.59-.05-.22.08-.44.3-.49.17-.04.34.03.43.17h0Z"/><path class="cls-6" d="M112.26,131.62c-.02,4.77-4.17,8.48-8.49,9.73-1.2.33-2.45.51-3.69.53-.22,0-.41-.17-.42-.39,0-.18.1-.32.25-.39,1.79-.86,3.59-1.6,5.23-2.72,2.12-1.34,3.89-3.18,5.31-5.24.37-.54.72-1.14,1.05-1.71.19-.35.76-.2.76.19h0Z"/><ellipse class="cls-6" cx="154.27" cy="152.38" rx="8.29" ry="10.9" transform="translate(-8.31 8.9) rotate(-3.22)"/><ellipse class="cls-2" cx="152.89" cy="148.65" rx="2.63" ry="3.07" transform="translate(-27.7 35.26) rotate(-12.07)"/><ellipse class="cls-1" cx="157.55" cy="157.15" rx="1.87" ry="1.05" transform="translate(-54.84 90.76) rotate(-27.57)"/><ellipse class="cls-6" cx="110.02" cy="154.78" rx="7.32" ry="10.4" transform="translate(-20.47 16.81) rotate(-8)"/><ellipse class="cls-2" cx="110.55" cy="151.06" rx="2.33" ry="2.92" transform="translate(-6.12 4.67) rotate(-2.36)"/><path class="cls-1" d="M106.42,159.26c-.14.52.46,1.19,1.34,1.49.88.3,1.71.11,1.85-.41.14-.52-.46-1.19-1.34-1.49-.88-.3-1.71-.11-1.85.41Z"/><path class="cls-6" d="M128.82,185.79c-2.93,0-5.53-1.05-7.61-1.9-1.43-.58-2.67-1.09-3.64-1.13-.53-.02-1.11,0-1.73.04-1.79.09-3.65.19-4.81-1.02-.57-.59-.86-1.4-.87-2.42-.99-.62-3.56-2.23-2.86-5.72.74-3.72,4.09-3.9,5.69-3.98.26-.01.61-.03.72-.06.75-.28,3.85-2.2,3.98-4.39.24-3.8,5.13-6.45,9.37-6.45,3.42,0,5.29,2.51,6.07,3.91,1.54-.22,4.6-.4,6.8,1.17,1.43,1.01,2.25,2.54,2.43,4.55.56,5.95-3.5,9.8-5.41,11.27-2.09,3.97-4.98,6.15-8.14,6.15ZM117.17,180.36c.17,0,.33,0,.49.01,1.38.06,2.87.66,4.44,1.3,1.99.81,4.25,1.73,6.71,1.73,2.24,0,4.38-1.75,6.04-4.92.11-.21.18-.34.32-.48.02-.02.09-.08.21-.18,1.53-1.15,5.04-4.34,4.59-9.22-.12-1.29-.59-2.21-1.43-2.81-2.09-1.49-5.77-.63-5.81-.62-.59.14-1.2-.18-1.41-.75-.05-.13-1.29-3.28-4.27-3.28-3.39,0-6.85,2.08-6.98,4.21-.22,3.45-4.15,5.97-5.56,6.5-.39.15-.84.17-1.41.2-1.81.1-3.12.3-3.47,2.06-.35,1.74.61,2.49,1.79,3.23.54.34,1.21.76,1.13,1.62-.05.57.01.99.18,1.17.41.42,1.82.35,2.95.29.48-.03.98-.05,1.47-.05ZM110.18,178.73s0,0,0,0c0,0,0,0,0,0h0Z"/><path class="cls-6" d="M110.18,178.84c.01-1.78,1.72-3.05,3.27-3.27,1.36-.24,2.59-.12,3.78.11,2.15.4,4.07,1.31,6.17.95,2-.38,3.79-1.76,5.48-2.92,1.86-1.37,4.15-3.06,6.52-1.53.09.05.05.2-.06.19-.57-.03-1.11-.06-1.6.04-1.56.34-2.59,1.68-3.84,2.62-2.06,1.68-4.21,3.55-7.02,3.83-3.02.35-6.05-1.41-8.96-.91-.64.15-1.14.34-1.33.91,0,0,0,.07,0-.02-.04,1.58-2.35,1.59-2.4,0h0Z"/><path class="cls-6" d="M113.97,169.7c2.03.58,4.14,1.05,6.27.96.72-.04,1.41-.09,2.31.07.08.01.12.11.08.18-1.51,2.17-5.97,1.99-8.27,1.42-.41-.1-.78-.21-1.22-.39-1.44-.61-.64-2.72.84-2.25h0Z"/></g></svg>