<?xml version="1.0" encoding="UTF-8"?><svg xmlns="http://www.w3.org/2000/svg" viewBox="0 0 300 300"><defs><style>.cls-1{fill:#bd5a2f;}.cls-2{fill:#fff;}.cls-3{fill:#ff0092;}.cls-4{fill:#ffc79c;}.cls-5{fill:none;}.cls-6{fill:#5d3a99;}.cls-7{fill:#c63380;}.cls-8{fill:#e6a87a;}.cls-9{opacity:.7;}</style></defs><g id="base"><rect class="cls-5" width="300" height="300"/></g><g id="_레이어_2"><g class="cls-9"><path class="cls-2" d="M149.96,296.5C69.18,296.5,3.46,230.78,3.46,150S69.18,3.5,149.96,3.5s146.5,65.72,146.5,146.5-65.72,146.5-146.5,146.5Z"/><path class="cls-3" d="M149.96,7c38.2,0,74.11,14.87,101.12,41.88,27.01,27.01,41.88,62.92,41.88,101.12s-14.87,74.11-41.88,101.12c-27.01,27.01-62.92,41.88-101.12,41.88s-74.11-14.87-101.12-41.88S6.96,188.2,6.96,150s14.87-74.11,41.88-101.12S111.77,7,149.96,7M149.96,0C67.12,0-.04,67.16-.04,150s67.16,150,150,150,150-67.16,150-150S232.81,0,149.96,0h0Z"/></g><path class="cls-7" d="M29.92,198.88c-3.04-7.78-2.88-12.3.54-13.58l9.03-3.54c1.72-.67,2.85-.26,3.42,1.19l6.69,17.09c.62,1.58.05,2.61-1.74,3.1l-9.97,3.9c-1.12.44-2.24.18-3.34-.84-2.03-2.16-3.58-4.62-4.63-7.32ZM43.46,198.63l-4.01-10.25c-.09-.23-.22-.29-.41-.22l-5.03,1.97c-.7.27-1.02.83-.91,1.65.08.88.59,2.61,1.61,5.22.67,1.72,1.44,3.14,2.32,4.14l6.43-2.51ZM48.74,187.55c-.2-.51-.26-1.08-.17-1.81.29-3.66,1.09-6.82,2.35-9.51-2.68-.4-5.91-1.66-9.61-3.7-.56-.48-.9-.94-1.09-1.4-.24-.61-.36-1.2-.38-1.79.43-.97,1.07-1.65,1.86-1.96.33-.13.85-.17,1.58-.08.09.23,1.29.84,3.69,1.89,1.6.66,2.93,1.16,4,1.44,1.52.32,2.99.5,4.36.44l2.47-.97-2.48-6.33c-.11-.98.56-1.72,2.1-2.32,1.62-.53,2.52-.56,2.72-.04l7.25,18.54c.2.51-.46,1.15-2.02,1.97-1.49.58-2.53.4-3.14-.49l-2.33-5.96-2.79,1.09c-1.06.85-2.13,4.43-3.2,10.76-.36.73-.97,1.24-1.8,1.56-.93.36-2.8.13-3.36-1.32ZM68.81,204.67c-1.69.61-2.68.56-2.95-.13l-2.39-6.1c-.09-.23-.22-.29-.45-.2l-7.5,2.93c-.65.25-1.37-.48-2.13-2.28-.66-1.83-.64-2.87.06-3.14l20.26-7.92c.88-.35,1.7.36,2.45,2.15.66,1.83.54,2.9-.25,3.21l-7.36,2.88c-.14.05-.15.17-.06.4l2.39,6.1c.27.7-.42,1.4-2.08,2.1ZM70.95,177.62c-1.59.46-2.53.4-2.78-.25-1.73-4.42-3.43-9.45-5.05-15.1.19-.88.81-1.5,1.83-1.9.79-.31,1.79-.38,3-.15,2.01,6.52,3.7,11.65,5.11,15.4-.5,1.05-1.21,1.71-2.11,2.01Z"/><path class="cls-7" d="M64.2,230c-1.66.74-4.41.5-8.32-.65,0-4.51.46-7.31,1.4-8.36.86-.92,1.79-1.37,2.78-1.36,1.17,0,2.09.46,2.76,1.34.59.94.69,1.83.25,2.79.9-.17,1.77.01,2.61.62,1,1.12,1.23,2.24.7,3.4-.33.93-1.03,1.65-2.18,2.22ZM58.05,223.61l1.19-1c.48-.21,1.07-.44,1.76-.7-.51-.61-1.15-.67-1.94-.13-.82.5-1.16,1.11-1.01,1.83ZM85,209.98l-13.28,11.16c-1.3,1.02-2.16,1.55-2.66,1.58-1.23.25-2.29-.23-3.21-1.42-1.42-1.68-1.28-3.23.44-4.68l14.09-11.84c1.61-1.35,3.22-1.07,4.82.84,1.39,1.97,1.02,3.32-.2,4.35ZM81.21,206.95c.57-.48,1.91-.76,1.75-.95-.35-.42-.98-.94-2.36.22-1.65,1.38-1.45,1.61-1.29,1.8.16.19,1.29-.56,1.9-1.08Z"/><path class="cls-7" d="M108.13,249.15c-.51-.21-1-.58-1.47-1.16-2.47-2.77-4.15-5.75-5.02-8.99-2.15,1.65-5.29,3.05-9.33,4.28-.78.05-1.39-.04-1.81-.21-.6-.25-1.11-.57-1.48-1-.42-.94-.48-1.83-.12-2.7.14-.32.45-.68,1.02-1.14.23.1,1.5-.35,3.83-1.38,1.68-.65,2.98-1.3,3.91-1.83,1.27-.83,2.4-1.71,3.31-2.73l2.57-6.13-6.23-2.61c-.78-.6-.89-1.62-.26-3.14.71-1.44,1.34-2.04,1.85-1.83l18.31,7.66c.65.38.67,1.25.12,2.7-.62,1.48-1.47,2.09-2.63,1.88l-5.81-2.43-2.66,6.37c-.28,1.83,1.46,5.33,5.19,10.52.34.74.35,1.5-.02,2.38-.41.97-1.95,2.06-3.28,1.5ZM116.3,272.63c-.3.85-.97,1.28-1.98,1.23-1,.07-2.4-.08-4.2-.46-2.25-.45-4.1-.96-5.62-1.59-8.13-3.24-11.28-6.73-9.44-10.35l2.03-4.84c.6-1.43,1.55-1.9,2.89-1.34l12.92,5.4c.37.15.59.14.69-.09l.71-1.71s-.15-.17-.51-.32l-13.01-5.44c-.6-.25-.57-1.22.12-2.88.69-1.66,1.37-2.36,2.06-2.07l16.33,6.83c1.52.64,1.9,1.93,1.07,3.92l-2.76,6.6c-.66,1.57-1.72,2.04-3.15,1.45l-13.28-5.56-.79,1.89c.15.82,2.15,1.98,6.04,3.56,1.91.75,3.76,1.25,5.62,1.59s3.04.51,3.56.57c.67.22,1.04.76,1.07,1.59.03.83-.1,1.53-.36,2.02ZM132.87,245.47c-.74,1.64-1.46,2.32-2.1,2.05l-5.67-2.37c-.23-.1-.43-.02-.52.21l-2.74,6.55c-.29.69-1.32.69-3.14-.01-1.78-.8-2.48-1.58-2.19-2.27l8.15-19.47c.29-.69,1.27-.71,2.91-.08,1.92.86,2.73,1.63,2.46,2.28l-3.13,7.47c-.06.14.06.24.29.34l5.86,2.45c.51.21.48,1.18-.17,2.86Z"/><path class="cls-7" d="M156.65,240.67c.13,1.64-.1,2.47-.65,2.51l-20.83,1.68c-.55.04-.91-.68-1.02-2.12-.16-1.99.06-3.01.61-3.06l20.83-1.68c.55-.04.92.83,1.07,2.67ZM153.45,233.96c-.02,1.61-.36,2.44-1.05,2.49-4.73.38-9.89.55-15.36.43-.73-.39-1.15-1.16-1.24-2.31-.07-.85.15-1.82.67-2.91,6.98.09,12.24.02,15.73-.21.86.73,1.28,1.55,1.25,2.51ZM155.33,252.36c.18,2.29-.5,4.35-2.11,6.24-1.52,1.68-3.65,2.65-6.29,2.86-2.54.2-4.75-.42-6.58-1.93-1.83-1.51-2.83-3.43-3.02-5.73-.17-2.14.47-4.1,1.98-5.93,1.5-1.88,3.58-2.9,6.27-3.11,2.54-.2,4.75.47,6.64,2.07,1.88,1.55,2.93,3.38,3.1,5.52ZM149.95,252.8c-.08-.95-.44-1.72-1.14-2.32-.81-.69-1.73-.96-2.83-.88-2.24.23-3.41,1.83-3.26,3.77.18,2.19,1.63,3.43,3.82,3.25,2.19-.18,3.58-1.64,3.4-3.83ZM165.73,268.13c0-.6-.14-2.4-.43-5.33-.04-1.8.83-2.78,2.57-2.92,2.08-.27,3.12.7,3.14,2.91l.38,4.78c1.03,1.57,3.22,3.25,6.62,5.03.65.55,1.01,1.27,1.07,2.12.09,1.15-1.05,2.54-2.45,2.65-.55.04-1.11-.06-1.78-.31-3.19-1.65-5.09-2.85-5.61-3.66-.59,1.4-2.21,3.09-4.92,4.96-.62.4-1.21.6-1.75.64-.7.06-1.32-.2-1.86-.7-.58-.4-.92-.78-.99-1.12-2.17-1.38-3.5-2.38-3.91-3.05-.59,1.45-2.25,3.14-4.96,5.06-.62.35-1.16.54-1.71.59-1.54.12-2.86-1.22-2.94-2.27-.07-.9.12-1.61.62-2.21,2.91-1.89,4.69-4.04,5.45-6.41.01-.45-.13-2.2-.41-5.13-.04-1.8.83-2.78,2.57-2.92,2.09-.27,3.12.7,3.14,2.91l.37,4.58c.92,1.43,2.49,2.86,4.76,4.28,1.45-1.27,2.44-2.75,3-4.5ZM178.6,256.06c.05.6-.82,1.07-2.59,1.41-2.05.11-3.12-.2-3.18-.85l-.64-7.92c-.02-.25-.18-.39-.43-.37l-3.54.28c-.2.02-.29.12-.27.37l.61,7.58c-.17.97-1.08,1.54-2.82,1.68-1.8.09-2.78-.28-2.9-1.12l-1.75-21.68c-.02-.85.84-1.37,2.67-1.67,1.74-.14,2.74.33,3.08,1.46l.68,8.42c.01.15.12.19.32.17l3.54-.28c.25-.02.39-.08.38-.23l-.72-8.92c-.06-.75.85-1.27,2.78-1.58,1.96,0,2.94.37,3,1.16l1.78,22.08Z"/><path class="cls-7" d="M195.99,225.94c1.53,1.4,2.53,4.31,3.07,8.75-4.25,2.08-7.31,2.93-9.17,2.51-1.13-.29-2.03-.97-2.69-2.03-.58-1.11-.6-2.28,0-3.48,1.1-1.34,2.24-1.88,3.5-1.67-.7-.92-.83-2.08-.45-3.44.99-1.33,1.93-1.92,2.84-1.78,1.1-.04,2.07.29,2.9,1.13ZM191.08,257.71c-1.44-1.45-2.4-3.16-2.87-5.04-.22-2.23.38-4.19,1.72-5.92,2.21-2.03,4.35-2.67,6.5-1.96-.36-1.9.35-3.76,2.15-5.6,2.04-1.93,4.11-2.58,6.25-1.98,1.79.41,3.25,1.5,4.39,3.33.32.51.6,1.04.83,1.6l7.07-4.44c.21-.13.31-.26.23-.38l-4.25-6.77c-.4-.63.28-1.53,2.06-2.65,1.48-.93,2.46-1.07,2.88-.39l11.99,19.1c.35.55-.27,1.35-1.92,2.39-1.65,1.04-2.62,1.29-2.96.74l-4.71-7.5c-.13-.21-.34-.26-.55-.13l-7.92,4.97c-.3.19-.6.26-.95.18.2,3.24-.19,7.32-1.07,12.3-9.7,1.19-15.98.59-18.87-1.85ZM205.78,215.01c.25-1.57,1.04-2.66,2.41-3.22,1.14-.54,2.17-.59,3.08-.17,1.76.73,2.69,2.21,2.84,4.53.09,3.9-1.55,7.41-4.92,10.59-5.16-.6-8.62-2.44-10.38-5.53-1.21-2.96-.84-5.2,1.07-6.75,2.13-1.4,4.06-1.25,5.83.53l.07.02ZM207.1,217.13c0,1.3-.36,1.41-1.08.26-1.39-2.02-2.76-2.52-4.08-1.51-1.18,1.04-1.36,2.45-.53,4.23,1.24,2.17,3.69,3.53,7.35,4,2.39-2.68,3.31-5.44,2.79-8.25-.21-.99-.61-1.63-1.18-1.97-.59-.28-1.26-.21-1.93.21-.96.72-1.41,1.71-1.35,3.03ZM207.68,246.35c.48-1.96-.07-3.68-1.61-5.19-1.77-1.31-3.28-1.37-4.53-.17,1.79.59,2.95,1.22,3.54,1.97,1.34,1.11,2.2,2.28,2.6,3.39Z"/><path class="cls-7" d="M264.46,198.94c1.61,1.21,2.02,2.27,1.16,3.21l-16.97,28.07c-.24.5-1.19.33-2.81-.47-1.51-1.08-2.09-1.85-1.81-2.32l4.04-6.67-9.11-5.51c-.17-.1-.32-.25-.37-.46-2.89.82-5.66.38-8.44-1.31-2.91-1.76-4.61-4.07-5.11-7-.61-3.05,0-6.08,1.87-9.09,1.73-2.87,4.1-4.65,7.12-5.4,3.05-.9,5.83-.56,8.47.97,2.78,1.68,4.43,4.08,4.99,7.11.23-.09.46-.08.63.03l9.11,5.51,3.93-6.5c.82-.97,1.9-1.01,3.31-.16ZM229.8,180.21c-.25-1.03-.04-1.96.6-2.73.62-.74,1.32-1.13,2.11-1.18,1.54-.12,2.78.63,3.68,2.22,1.44,2.74,1.55,5.84.29,9.29-3.86,1.46-7.02,1.37-9.43-.15-1.99-1.73-2.59-3.55-1.81-5.42.98-2.1,2.59-2.64,4.73-1.64l-.17-.39ZM231.63,181.72c.37,1.04.1,1.29-.84.72-1.68-.9-2.76-.85-3.27.19-.52,1.15-.11,2.21,1.18,3.17,1.55,1.11,3.74,1.15,6.49.18.71-2.72.42-4.95-.92-6.69-.51-.6-1-.96-1.51-.97-.54.02-.94.31-1.25.82-.45.84-.38,1.7.13,2.59ZM239.61,197.7c-1.41-.85-2.95-1.02-4.6-.5-1.42.42-2.63,1.45-3.63,3.01-.95,1.47-1.27,2.97-1.05,4.45.34,1.66,1.31,2.95,2.83,3.93,1.4.96,2.91,1.18,4.57.66,1.48-.33,2.71-1.4,3.59-3.14.96-1.58,1.28-3.08,1.01-4.47-.31-1.71-1.22-3.01-2.71-3.92ZM245.72,208.76c-.57.94-1.17,1.75-1.79,2.48l7.23,4.37,2.95-4.88-7.19-4.34c-.31.8-.73,1.6-1.2,2.37Z"/><path class="cls-7" d="M237.05,165.73l16.92,3.87c1.6.42,2.54.79,2.86,1.17.94.83,1.19,1.96.81,3.42-.49,2.15-1.81,2.97-4,2.47l-17.94-4.1c-2.05-.47-2.79-1.92-2.24-4.36.73-2.3,2.03-2.82,3.59-2.46ZM236.92,170.57c-.73-.17-1.76-1.07-1.81-.82-.12.54-.16,1.35,1.6,1.75,2.1.48,2.16.19,2.22-.06s-1.23-.69-2.01-.87ZM265.57,170.24c1.6.88,3.06,3.21,4.5,7.03-3.6,2.72-6.1,4.04-7.51,3.93-1.25-.13-2.17-.6-2.76-1.4-.71-.93-.89-1.95-.6-3.01.39-1.04,1.05-1.66,2.07-1.89-.68-.62-1.06-1.42-1.08-2.45.29-1.47,1.04-2.33,2.29-2.61.94-.3,1.94-.17,3.09.4ZM264.18,179.01l-1.51-.35c-.45-.26-1-.59-1.62-.99-.18.78.16,1.32,1.06,1.63.89.36,1.58.26,2.07-.3Z"/><path class="cls-4" d="M201.38,99.93l-32.75,3.49s-12.01-12.21-21.7-15.5c-8.53-9.88-8.52-37.21-13.56-38.17-5.98-1.14-19.38,5.77-17.83,23.41.95,10.84,7.19,19.34,7.19,19.34,0,2.33-1.45,4.43-1.45,4.43,0,0-28.56,1.36-31.9,6.49-3.34,5.13,4.94,69.22,14.68,72.28,9.74,3.05,52.32-1.74,62.35-11.63l34.98,2.76v-66.9Z"/><path class="cls-4" d="M127.23,101.39l-32.18-1.09c-5.56-.22-10.18,4.23-10.18,9.79v6.04c0,5.56,4.63,10.01,10.18,9.79l32.18-1.09c5.65-.22,10.11-4.86,10.11-10.51v-2.42c0-5.65-4.46-10.29-10.11-10.51Z"/><path class="cls-4" d="M130.18,122.49l-32.36-1.07c-5.44-.21-9.97,4.14-9.97,9.58v5.91c0,5.44,4.53,9.8,9.97,9.58l32.36-1.07c5.52-.22,9.89-4.76,9.89-10.28v-2.37c0-5.53-4.37-10.07-9.89-10.28Z"/><path class="cls-4" d="M129.14,140.44l-29.81-1.01c-5.15-.2-9.44,3.92-9.44,9.07v5.6c0,5.15,4.29,9.28,9.44,9.07l29.81-1.01c5.23-.2,9.36-4.5,9.36-9.74v-2.24c0-5.23-4.13-9.53-9.36-9.74Z"/><path class="cls-4" d="M131.38,156.56l-25.26-.98c-5-.2-9.15,3.8-9.15,8.8v5.43c0,5,4.16,9,9.15,8.8l25.26-.98c5.07-.2,9.08-4.37,9.08-9.45v-2.17c0-5.08-4.01-9.25-9.08-9.45Z"/><path class="cls-8" d="M138.9,166.53c-.18-2.95-.68-6.15-3.03-8.12,1.56-1.94,2.38-4.47,2.29-6.95-.12-3.21-1.62-6.21-3.85-8.49.48-.37.92-.82,1.31-1.37.88-1.24,1.37-2.75,1.66-4.24.36-1.82.53-3.71.4-5.57-.24-3.53-1.67-6.96-4.46-9.19.34-.22.67-.45.98-.72,3.98-3.47,4-9.44,2.53-14.11-.67-2.12-1.84-4.24-3.89-5.28-2.31-1.18-5.16-1.02-7.67-1.16-6.87-.37-17.19-.73-24.06-1.1-.73-.04-.73,1.1,0,1.14l20.39.9c2.69.14,5.44.16,8.12.48,1.21.14,2.43.46,3.42,1.19.9.67,1.54,1.63,2.02,2.63,1.06,2.23,1.52,4.91,1.44,7.37-.08,2.33-.81,4.7-2.4,6.46-1.68,1.86-4.06,2.52-6.48,2.72-2.69.23-5.42.22-8.12.28-6.38.13-12.77.14-19.15.02-.73-.01-.73,1.13,0,1.14,6.1.11,12.2.11,18.3,0,2.94-.06,5.91-.05,8.85-.28,1.61-.13,3.21-.43,4.66-1.08,2.66,1.87,4.07,5.04,4.36,8.21.17,1.81.05,3.66-.29,5.45-.26,1.4-.67,2.81-1.47,4-1.94,2.89-5.62,2.62-8.69,2.62-3.78.01-7.57.02-11.35.03-4.35.01-8.7.03-13.05.04-.73,0-.73,1.14,0,1.14,8.42-.03,16.83-.05,25.25-.08,2.22,0,4.52-.06,6.41-1.03,1.97,1.95,3.4,4.51,3.66,7.3.24,2.69-.65,5.47-2.55,7.42-2.21,2.26-5.38,2.69-8.38,2.84-3.45.18-6.9.28-10.35.37-3.97.11-7.95.2-11.93.25-.73,0-.73,1.15,0,1.14,3.88-.05,7.76-.13,11.64-.24,3.79-.11,7.59-.17,11.37-.43,3.01-.2,6.09-.82,8.32-3.01,2.1,1.69,2.48,4.63,2.65,7.17.15,2.41.15,5.1-1.24,7.19-1.6,2.41-4.69,3.06-7.38,3.25-3.17.22-6.35.29-9.52.42l-10.79.46c-.73.03-.73,1.17,0,1.14,3.6-.15,7.2-.3,10.79-.46,3.43-.14,6.9-.14,10.31-.49,2.85-.29,5.81-1.18,7.52-3.66,1.54-2.23,1.62-5.14,1.46-7.74Z"/><path class="cls-8" d="M111.21,100.71c-1.29-.73-2.58-1.47-3.88-2.2-.27-.15-.62-.06-.78.2-.15.26-.06.63.2.78,1.29.73,2.58,1.47,3.88,2.2.27.15.62.06.78-.2.15-.26.06-.63-.2-.78Z"/><path class="cls-8" d="M169.79,106.84c-.08-.72-1.22-.73-1.14,0,1.2,11.26,1.44,22.61.73,33.91-.05.73,1.09.73,1.14,0,.71-11.3.47-22.65-.73-33.91Z"/><path class="cls-8" d="M172.77,106.98c-.06-.72-1.2-.73-1.14,0,.51,6.12,1.02,12.24,1.53,18.35.06.72,1.2.73,1.14,0-.51-6.12-1.02-12.24-1.53-18.35Z"/><path class="cls-6" d="M179.02,95.19s-2.81,48.71-1.53,77.53h35.53v-77.53h-34Z"/><circle class="cls-2" cx="190.92" cy="106.29" r="6.82" transform="translate(-26.28 82.31) rotate(-22.81)"/><polygon class="cls-1" points="79.2 47.19 108.99 80.97 98.52 37.95 79.2 47.19"/><polygon class="cls-1" points="112.55 63.51 106.09 35.73 120.7 36.63 112.55 63.51"/><polygon class="cls-1" points="104.35 81.44 76.85 62.9 71.36 79.89 104.35 81.44"/></g></svg>