<?xml version="1.0" encoding="UTF-8"?><svg xmlns="http://www.w3.org/2000/svg" viewBox="0 0 300 300"><defs><style>.cls-1{stroke:#c63380;stroke-miterlimit:10;stroke-width:2px;}.cls-1,.cls-2{fill:#c63380;}.cls-3{fill:#fff;}.cls-4{fill:none;}.cls-5,.cls-6{fill:#ffccec;}.cls-7{isolation:isolate;}.cls-6{mix-blend-mode:multiply;}.cls-8{opacity:.7;}</style></defs><g class="cls-7"><g id="base"><rect class="cls-4" width="300" height="300"/></g><g id="_레이어_2"><g class="cls-8"><circle class="cls-3" cx="149.69" cy="150" r="150"/></g><path class="cls-1" d="M35.14,197.22c.31-.04,1.93-.36,2.16-.58.59-.28,1.43-.95,2.03-1.56,1.07-1,2.56-4.3,3.95-5.23.59-.39,1.07-1.61,2.38-.35,1.25,1.12.8,2.17.3,3.56-.05.25,0,.6.22.94.06.14.79.51.92.67,2.32,3.05,5.7,7.15,6.06,7.7.13.27.53,1.13.68,1.67.23.83-.37,2.5-1.01,3.13-.87.85-4.13,1.78-4.86,2.12-.54.26-3.9,1.12-5.23,1.69-.45.21-.87.85-1.52.88-.74.07-1.76-.33-2.17-1.08-1.24-2.4-1.85-4.16-2.84-6.02-.54-1.02-2.44-2.83-2.71-3.86,0,0-1.16-2.22-.72-2.59.59-.5,1.26-1.09,2.35-1.11ZM39.99,199.52l-1.45.68c-.63.08-.78.81-.61,1.06.75,1.25,1.39,1.78,2.27,3.3.32.57,1.07,2.15,1.87,2.44,1.4-.66,7.72-2.04,7.48-3.14-.4-1.91-4.91-7.14-6.01-7.34-1.17,1.38-1.5,2.2-3.56,3ZM48.64,176.37c.31.3,3.53,3.26,3.99,3.54,1.86,1,6.81,2.37,8.84,2.57.45,0,.25-.4.25-.4-.23-.5-1.43-2.09-1.64-2.54-.62-1.31-1.48-2.9-1.88-3.98-.11-.23-.3-1.68.24-2.54.23-.33,1.13-.53,1.49-.7.59-.28,1.06.72,1.25,1.12,1.15,2.33,2.77,6.1,3.62,7.08.39.48,1.54,2.21,2.2,2.78.18.14.8,2.28.61,2.81-.05.36-1.82,1.41-2.36,1.33-1.03-.07-3.24-1.13-5-1.35-1.23-.14-1.08.29-1.17,1.05-.14,1.12-1.37,4.13-1.5,5.74-.23.44-.96.78-2.37,1.06-.27.13-.71-.11-.78-.13-.38-.21-1.05-.94-.79-1.67-.01-.49,1.76-5.53,2.11-7.13-1.58-.3-4.79-1.61-5.46-2.07-1.08-.76-3.38-3.05-3.84-3.44-.51-.26-.39-2.25.07-2.91,1.02-1.36,1.34-1.02,2.11-.22ZM64.31,198.23c1.4-.66,7.03-2.43,11.31-5.33.55-.37,2.26-3.17,2.34-3.7.51-.91,1.79-1.12,2.3-.98.25.05,1.42.66,1.61,1.89.2,1.24-2.33,4.8-3.13,5.68-1.24,1.36-2.57,1.93-3.97,2.59-.68.32-3.57,1.35-4.36,1.78-.13.06-.27.24-.34.44,1.05,2.1,2.7,5.36,3.7,7.49.19.41-.03,1.12-.28,1.51-.58.88-3.07,1.23-3.62-.06-1.1-2.58-2.05-4.34-3.07-6.51-.19-.41-.63-.86-.87-1.03-1.04.49-6.89,2.15-7.68,2.46-.56.21-.67-.02-1.05-.11-.26-.21-1.62-1.33-1.86-1.83-.13-.27-.26-.54-.2-.9.2-.87,6.79-2.26,9.18-3.39ZM70.05,171.36c.8.06,1.02.4,1.3.99.17.36-.2,1.81-.19,2.19.02,3.09.77,4.33,1.5,6.7.31,1.01-.53,1.46-2.2,2.25-.41.19-1.5-.01-2.42-2.56-.82-2.21-.61-7.51-.3-8.48.17-.58,1.55-1.17,2.31-1.09Z"/><path class="cls-1" d="M66.06,235.64c-.43.92-1.42,1.69-2.13,2.39-1.64,1.62-4.27-.7-5.15-2.08-.32-.46-.2-1.84.12-2.3.78-1.06,1.5-1.97,2.91-2.53.71-.28,2.3.05,4.02,1.86.74.75.7,1.7.23,2.65ZM70.83,223.11c.53-.53,3.27-2.39,3.73-2.84,1-.98,6.12-6.9,7.12-7.88l6.47-6.4c.5-.49,1.49-.56,1.98-.06l1.16,1.17c.63.64.38,1.59-.08,2.05l-18.67,18.39c-.39.6-1.38.52-1.91-.01l-.7-.71c-.67-.67-1.23-1.6-.55-2.27l1.46-1.44Z"/><path class="cls-1" d="M102.74,241.18s.64-.9.97-.8c.81.25,1.77.38,2.63.27,1.94-.2,8.97-4.14,10.48-6.03.26-.34-.05-.54-.19-.58-.24-.07-.63.02-.73-.01-2.1-.48-2.92-.72-6.37-1.92-.75-.28-1.23-1.1-1.05-1.72.09-.29.04-.67.26-1.38.12-.38.57-.51,1.19-.32.86.26,1.67.71,2.51,1.02,1.22.47,3.57.81,4.91,1.22.86.26,4.55-.04,6.24-.26.27-.02,1.18.25,1.39.42.42.33.43,1.02.46,1.6,0,.32-.37,1.04-.92,1.5-1.62,1.39-5.69,4.34-8.09,5.55.17.31,2.99,3.77,3.49,4.55l2.01.61c.13.25.12.98-.4,2.7-.26.86-2.57,1.42-3.18.5-.53-.84-3.92-5.36-4.46-6.15-.24-.07-.56-.74-1.1-.33-.93.66-5.29,2.84-6.35,3.05-.33.06-2.38-.77-2.39-.72-.33-.1-1.8-1.12-1.66-1.6l.35-1.15ZM106.04,260.39c-.02-.27.09-1.17.29-1.48.64-.9,1.55-.99,2.17-.81,4.69,1.41,8.91,2.32,13.72,3.14.26-.34,1.2-2.41,1.36-3.14.33-1.1-.16-1.2-.35-1.25-.96-.29-2.66-.54-2.66-.54-.96-.29-8.88-1.37-10.7-2.08-.62-.19-.09-1.96.06-2.44.07-.24.41-.5.62-.49.71.06,1.48-.07,2.16.13,4.98,1.5,9.79,1.28,13.22,2.05.26-.34,2.18-7.07,2.9-8.58.97-2.01,1.8-4.26,2.08-5.53.09-.29.84-3.66.86-4.23.06-2.12-1.66-5.41-2.14-6.6-.39-.95.4-2.18,1.03-3.08.29-.44,1.2-.68,1.62-.35,1.87,1.61,2.03,4.53,3.08,6.77.11.34.63,3.11.63,3.79-.17.58-1.68,5.76-1.8,5.98-.16.37.32.67.75.8,2.39.72,4.51,1.15,6.71,1.81.72.22.67,1.09.71,1.1-.09.81-.84,2.25-1.76,2.39-1.58-.48-4.32-1.09-6.09-1.63-1-.3-1.78-.69-2.11.41-.03.1-.51,1-.6,1.28-1.85,6.13-2.49,7.24-2.73,7.17.46.71.3,1.08-.05,1.55-.15.16-.67,1.36-1.14,2.58-.31.85-1.34,2.89-1.61,3.95-.06.19.28.97.21,1.21-.62,1.54-1.48,1.28-2.49,1.34-3.97-1.2-7.27-2.03-12.06-3.11-.7-.11-.97.44-1.18.79-.71,1.3-.09,2.74.25,4.2.09.39.81,1.65,1.68,2.23.84.51,4.24,1.54,6.8,2.05.24.07,1.03-.31,1.2-.53.18-.26,1.52-.01,2.34.55.26.18.86,1.15.75,1.48-.06.19-.44,1.28-.67,1.52-.96.91-3.98.73-4.33.68-2.62-.48-5.96-1.53-8.19-2.47-.05-.01-2.71-1.75-3.29-3.65-.87-2.82-1.25-3.82-1.26-8.99Z"/><path class="cls-1" d="M142.23,240.71c.24-.13.83-.21.99-.18,1.03.17,2.36.71,3.35.58l6.05-.77c.84-.11,2-.56,2.65-.94.42-.26,2.41-.51,2.91-.52.3.01.66.42.73.61.09.29.34,1.92.27,2.13-.1.42-.67,1.04-1.19,1.31-.69.09-5.08.9-5.72.98l-6.3.8c-.84.11-1.59-.2-2.57-.38-.42-.1-1.6-.7-1.7-1.04-.26-.87-.13-2.25.53-2.59ZM144.42,232.93c.12-.22.78-.25,1.14-.15.83.2,3.19,1.31,4.23,1.58.58.18,1.2.3,1.4.33,1.12.06,3.08.42,4.56.23.6-.08.86,1.6.72,2.13-.22.68-.84.91-1.13,1.05-.19.12-1.22.31-1.42.33-.56-.03-1.43-.17-2.05-.24-1.48-.11-2.06-.34-3.05-.57-.47-.14-3.62-1.15-4.15-1.69-.47-.5-.78-1.77-.28-2.99ZM146.32,251.08c.37-1.05.78-2.17,1.41-3.15.95-1.63,3.02-2.8,4.81-3.03.89-.11,1.78.53,3.18.81.89-.11,2.31.36,2.73.86.58.63,1.16,1.16,1.55,1.92.39.71.47,2.92.42,3.32-.52,3.09-2.04,5.75-5.02,6.94-1.12.34-2.78,1.11-4.18.78-1.05-.32-2.98-.83-4.15-2.55-.62-.88-1.37-4.01-.75-5.9ZM150.67,255.17c.56.43,1.04.62,1.7.69,1.28.19,3.24-1.07,3.79-2.3.62-1.44.63-2.95-.54-4.22-.23-.22-1.79-.63-1.95-.66-1.4-.28-2.87.01-3.62,1.67-.23.58-.51,1.58-.41,2.32.13.99.34,1.87,1.02,2.49ZM156.92,266.27c.35-.8,1.39-5.72,1.96-6.4.17-.22.98-1.03,2.84-1.02,1.16,0,1.38,2.9.62,3.65l-.76,2.31,5.16,1.71c.42.15,1.57.05,1.84-.23,0,0,.88-1.37,1.01-1.99.25-1.24,1.18-4.59,2.05-6.06.33-.55,1.51-.39,1.79-.23.38.2,1.34,1.39,1.29,2.61l-.76,3.52c1.16.81,1.89.97,3.35,1.74,2.37,1.21,4.96,1.79,7.2,2.31.46.09.49,1.5.35,1.97-.34,1.25-2.12,1.98-3.49,1.5-2.1-.69-5.31-2.55-8.73-4.03-.79,1.71-3.27,6.01-5.96,7.81-.74.5-2.43,1.52-2.94.68-.37-.56-1.1-1.52-.46-2.41.39-.5,2.23-2.65,2.68-3.47-1.17-.91-3.51-1.02-4.82-1.45-.42-.15-.85-.35-1.24.16l-.39,1.31c-1,1.69-3.62,4.85-5.21,6.21-.46.36-1.82,1.54-2.36.85-.98-.98-1.47-2.03-.67-2.89,2.14-2.24,4.21-4.57,5.67-8.18ZM175.22,254.37l.05-1.22c-.4-3.12-.42-4.94-.83-8.11-.94.52-3.5,1.45-4.71,1.41.17,1.74-.06,3.08.31,4.8.37,1.72.47,2.51.52,3.26.04.7-.53,1.38-1.09,1.7-.38.2-2.39,1.41-2.55.12-.34-2.68-.3-3.54-.64-5.87-.3-1.93-.42-4.48-.68-6.52-.27-2.13-.46-4.02-1.1-5.91-.64-1.83-1.79-3.35-3.82-4.66-.32-.11.07-1.07.11-1.53.15-1.23,1.36-1.58,2.04-1.37,2.85,1,5.14,4.34,5.7,6.74.22.98.17.53.55,3.51l.19,1.49c.3.42.92.08,1.36.03,1.09-.14,2.54-.67,3.69-1.53-.08-.24-.12-.54-.16-.84l-.4-3.17c-.13-.99.01-3.88-2.58-5.62-.11-.04-.22-.17-.33-.21-.39-.25-.94-.64-1.19-1.06-.32-.56-.2-2.34.45-2.43l.25-.03c.39-.1,1.18-.2,1.87.06,3.92,1.87,4.34,3.58,4.99,6.73.08.64.18,1.44.35,2.37l.3,2.33c.16,1.29.41,2.82.64,4.66.21,1.69.35,8.32.57,10.01.11.89-.73,2.61-1.81,2.85-.49.11-1.63.26-1.85-.27-.24-.32-.22-.93-.17-1.74Z"/><path class="cls-1" d="M219.33,245.17c-.06-.2-.22-.75-.31-1.28-.11-.57-.2-1.11-.25-1.19-.41-.68-.97-1.69-1.62-2.88-.68-1.22-1.6-2.83-2.25-3.9-.39-.64-.88-1.45-1.21-1.9-.67-.82-1.24-1.76-1.53-2.23l-9.31,6.34c1,1.26,1.87,2.9,2.03,5.08.1.64-1.58,7.62-4.23,9.23-3.04,1.84-5.58,2.27-9.3.08-1.55-1.4-4.92-11.4-2.06-15.65.65-.86,1.56-1.76,2.59-2.39s2.18-1.03,3.36-1.21c1.13-.16,4.18.04,5.55,1.73.43-.26,1.21-.79,2.29-1.62,1.61-1.21,4.04-2.98,6.36-4.55.43-.26.75-.69.54-1.32-.32-.62-.65-1.36-.99-1.92-.93-1.54-2.18-2.83-4.39-3.19l-2.09-.37c-.59-.11-1.02-.14-1.02-.14-.89-.22-1.39-1.14-1.46-1.74.03-.72.74-1.38,1.75-1.65,1.79-.33,4.52.42,6.11.92.16.08.58.18.64.19.51.16,1.69.96,1.97,1.32,1.22,1.72,2.66,4,3.98,6.18,1.19,1.97,2.42,4.09,3.62,6.17,1.17,2.04,2.71,4.67,3.88,6.6.08.13.14.33.24.5.59,1.16,1.43,2.94.53,4.35-.14.26-.89.95-1.19,1.13-1.45.88-1.92.11-2.23-.69ZM193.61,248.06c.26.43.59.87,1,1.27,1.08.92,3.09,1.05,3.83-.04,1.26-1.58,2.86-4.07,2.22-6.67-.18-.59-.62-1.61-1.25-2.64-.52-.86-1.22-1.72-1.98-2.31-.81-.56-1.93-1.05-2.82-.69-1.5.62-2.18,1.91-2.31,4.2-.14,2.37.13,4.95,1.3,6.87Z"/><path class="cls-1" d="M215.16,207.02c0-1.25,2.23-4.45,3.54-5.78.84-.87,4.88-2.08,6.7-1.83,1.02.14,3.03,1.22,4.53,3.29.98,1.36,1.85,3.27,2.04,5.1.1.7-.69,4.74-2.18,6.31-2.87,2.72-5.74,3.38-9.38,1.82-1.61-.77-2.72-1.55-3.39-2.56-.87-1.34-1.86-4.84-1.86-6.34ZM222.4,212.28c2.73.87,3.41.63,5.3-1.64.48-.64.66-2.45.11-4.3-.51-1.07-1.62-2.91-2.26-3.15-1.4-.55-3.26-.08-4.04.46-.58.44-2.24,1.82-2.56,3.39-.08.44.21,3.04.88,3.73.6.7,1.46,1.22,2.57,1.5ZM235.23,234.47c-.37.41-1.03.29-1.5-.25-.44-.33-1.29-1.03-1.29-1.53,0-.57,1.62-2.73,1.92-3.13l3.43-4.55c.06-.08.23-.39-.09-.63-1.34-.88-2.52-1.9-4.29-2.04-.29-.03-2.53.29-3.19.16l-.56-.42c-.36-.27-.74-2.5-.62-2.66.12-.16.23-.39.6-.55,1.42-.56,2.7-.59,3.91-.37,2.49.44,4.45.91,6.7,2.73.17.19.34.13.51-.18.57-1.01.87-1.16,1.56-2.08.24-.32.64-1.27.26-1.68-1.76-1.82-3.98-4.19-5.84-5.46-.51-.32-1.85-.2-2.01-.82-.3-1.35-.19-2.4,1.16-3.45.35-.3,1.25-.5,2.07,0,.82.49,4.3,3.43,5.06,4,.56.42,1.5,2.25,1.99,2.5.2.15.76.07.76.07.33-.44,1.87-3.98,3.21-6.91.11-.23.23-.89.18-1.24,0,0,.09-1.12.69-1.17.28-.04,1.97.29,1.97.29.93.26,1.59,1.63,1.18,2.58-1.66,3.95-5.67,10.69-5.76,10.81-.99,1.32-2.88,4.15-4.09,5.68-2.53,3.1-5.23,7.02-7.94,10.29Z"/><path class="cls-1" d="M250.2,189.76c-.71-.25-3.56-1.91-4.18-2.13-1.32-.47-8.86-2.53-10.18-3.01l-8.57-3.07c-.66-.24-1.15-1.1-.91-1.76l.56-1.55c.3-.85,1.27-1.03,1.88-.81l24.65,8.87c.71.09,1.07,1.02.82,1.73l-.34.94c-.32.89-.91,1.8-1.8,1.48l-1.93-.69ZM263.55,188.64c1.01,0,2.14.55,3.08.89,2.17.77,1.22,4.15.35,5.54-.28.48-1.57.98-2.12.89-1.29-.25-2.42-.5-3.54-1.53-.56-.52-.95-2.09-.06-4.43.35-.99,1.23-1.36,2.29-1.36Z"/><path class="cls-3" d="M111.95,144.12l-11.95,3.28-6.88,1.52-2.52,2.35c.25,3.37-1.96,5.87,2.56,8.81,12.2,6.13,38.1,3.86,18.8-15.97Z"/><path class="cls-2" d="M92.63,150.27c.56-.69.84-.4,1.66-.45,2.4,0,5.02-.81,7.31-.92,2.46-.83,5.18-1.87,7.51-2.89,2.5-.55,1.9-2.35-.33-1.74-1.45.28-3.67.8-4.75,1-2.21.22-5.08,1.1-7.51,1.32-1.67.31-3.67.15-5.04,1.37-1.74.55-2.74,6.91-.03,4.5.21-.73.44-1.76,1.18-2.19Z"/><path class="cls-2" d="M106.95,162.16c-1.41.23-2.55-.14-3.99-.24-1.89-.28-4.11-.45-5.61-1.45-2.31-.69-5.17-1.57-6.18-4-.69-5.17-3.14.44-.63,2.94,4.08,4.66,10.77,6.15,16.8,5.26,1.12-.67,4.25-.4,3.61-2.26-.64-.98-2.66.05-3.99-.25Z"/><path class="cls-3" d="M109.71,170.96c-.04.6-6.85,15.17-9.17,19.18-1.72,6.61.56,7.13,2.34,8.84,1.78,1.71,5.81,4.83,6.92,3.88,0,0,6.85-1.41,10.21-3.91.99-.74,11.76-7.52,12.39-8.03,2.73-2.21-17.59-21.92-22.68-19.97Z"/><path class="cls-3" d="M133.48,143.06c-8.34-.12-16.75.63-24.94-1.98,7.88,4.22,5.01,5.1,1.81,11.11-3.88,13.48-6.23,23.92-2.04,37.59,2.99.42,18.48,1.46,20.82,2.94,3.05.18,9,1.11,11.93,1.92,3.51.41,10.75,1.57,14.25,2.23,0,0,6.34-.48,6.34-.48l4.44,1.06c3.77-.41,20.59,4.12,22.59-7.21,2.72-11.87,3.51-24.59,3.14-36.22-.03-.89.49-1.7,1.31-2.05l-.11-.56c1.71-.13,3.36-.29,4.94-.48-21.76-.87-43.08-4.64-64.48-7.87Z"/><path class="cls-3" d="M217.41,81.25c-.03,3.69.16,12.95,2.54,20.41,11.49,25.32,2.79,46.39-25.12,48.43.32,1.24-1.52,1.81-2.19,1.83-14.73.49-29.02.22-43.4-1.16-14.52-1.39-28.33-4.33-43.19-7.25-.56-.11-.95-1.98-1.52-2.08,0,0,0,0,0,0-27.7-7.66-31.14-30.09-15.44-52.33,3.69-6.74,5.63-15.6,6.34-19.35,5.1-43.55,79.41-41.22,106.86-20.35,14.19,11.65,15.13,31.85,15.13,31.85Z"/><path class="cls-2" d="M222.06,129.62c3.94-14.11-6.24-27.02-6.56-40.99.12-8.41-1.44-20.43-6.1-27.51-1.41-2.72-3.72-5.2-5.98-7.34-1.23-1.27-2.5-2.85-3.95-3.89l2.47-3.18c9.23,7.16,15.39,18.02,16.56,29.66.69,2.21.7,5.98.77,8.31.33,2.22.47,4.86.72,7.08-.13,6.19,2.84,11.54,4.59,17.58,2.19,6.8,3.5,14.36,1.36,21.35l-3.88-1.07Z"/><path class="cls-2" d="M167.21,37.95c11.13,2.41,23.2,4.4,32.19,12.03l2.47-3.18c-5.58-4.39-12.18-7.45-19.07-9.07-4.62-1.39-9.39-2.27-14.19-2.48-1.54-.47-5.03,1.24-1.39,2.7Z"/><path class="cls-2" d="M196.63,148.53c10.66-2.74,22.88-6.58,25.32-18.95l3.88,1.07c-2.15,10.26-11.3,16.71-20.96,19.28-2.77.61-5.41,1.48-8.35,1.25-.23-.07-.74-.07-.74-.32.02-.34-.58-.45-.75-.78-.27-.83.92-1.24,1.6-1.55Z"/><path class="cls-2" d="M102.92,139.53c-10.16-4.79-21.5-11.09-21.25-23.99l-4.02.22c-.09,10.67,7.63,19.07,16.79,23.51,2.64,1.15,5.1,2.53,8.08,2.89.23,0,.79.05.81-.17.03-.21.29-.31.58-.41,1.11-.55-.31-1.64-.99-2.04Z"/><path class="cls-2" d="M120.59,41.2c-10.72,4.61-18.76,14.23-22.19,25.3-1.5,6.27-3.24,12.56-5.32,18.66-2.31,7.39-8.01,12.42-10.02,20.09-.76,3.34-1.53,6.87-1.51,10.3l-4.02.22c-.37-6.64,1.86-13.13,4.82-18.99,1.95-3.74,4.8-7.28,6.32-11.23,2.25-5.38,3.66-11.13,4.89-16.83,4.07-13.49,11.79-25.51,25.39-31.2l1.63,3.68Z"/><path class="cls-2" d="M155.39,36.8c-11.63-.04-23.97-.77-34.76,4.5l-1.63-3.68c6.6-2.92,13.78-4.39,20.99-4.45,4.9-.29,9.79-.13,14.61.68,1.61-.12,4.74,2.33.8,2.95Z"/><path class="cls-2" d="M138.7,36.19c2.5.55,5,.22,7.6.15,4.68.41,9.4.36,14.03,1.14l.41-3.72c-1.57-.38-29.44-2.48-22.05,2.42Z"/><path class="cls-2" d="M181.86,40.71c-2.58.12-5-.71-7.55-1.31-4.67-.56-9.28-1.65-13.97-1.92l.41-3.72c5.8.51,11.46,1.8,17.13,3.04,1.24.4,2.76.64,3.97,1.18,1.17.03,2.37,2.44.01,2.72Z"/><path class="cls-2" d="M153.89,97.4c-5.36-1.25-9.73,5.79-.73,7.04,9.94,1.04,7.81-7.22.73-7.04Z"/><path class="cls-2" d="M182.97,102.58c11.29-.3,8.24-20.61-2.77-15.86-7.12,4.35-3.83,16.32,2.77,15.86Z"/><path class="cls-2" d="M152.75,114.45c-.71,0-1.27-.64-1.19-1.34.64-5.78,1.45-10.79,1.45-10.84.23-1.55,2.66-1.16,2.39.39,0,.05-.81,5.01-1.44,10.72-.07.62-.6,1.08-1.21,1.08Z"/><path class="cls-6" d="M167.78,115.31s6.34,2.6,4.04,8.32c-5.19,9.12-14.51,1.89-11.64-4.79"/><path class="cls-2" d="M165.55,128.7c-6.07.45-7.91-7.57-6.28-10.26.51-1.18,2.35-.36,1.81.81-.03.08-.87,2.08.13,4.7,5.44,8.14,15.22-2.98,6.12-7.76-1.15-.56-.24-2.37.9-1.77.12.06,2.94,1.51,4.23,4.35,2.12,4.64-1.64,10.25-6.9,9.93Z"/><path class="cls-2" d="M166.32,123.04c-.8.22-2.21-4.27-2.56-4.66-.39-.83.92-1.43,1.29-.59.02.72,3.24,5.19,1.27,5.25Z"/><path class="cls-6" d="M127.62,74.45c-17.56-4.36-29.83,25.37-5.13,30.5,24.49,4.55,26.07-29.1,5.13-30.5Z"/><path class="cls-2" d="M124.36,97.53c-11.07-2.23-4.6-21.71,5.44-15.15,6.27,5.51.99,16.74-5.44,15.15Z"/><path class="cls-3" d="M125.7,81.15c9.58-.08,8.66,16.53-.25,16.46-9.3.34-9.56-16.07.25-16.46M125.72,79.34c-12.45.47-11.83,20.15-.29,20.09,12.79-.69,10.76-20.9.29-20.09h0Z"/><path class="cls-2" d="M145.84,118.13c-11.18.25-10.18-14.88-6.73-9.04-.01.24-.19,5.59,5.31,6.49,5.83.96,7.39-3.59,7.45-3.79,4.38-3.76,2.24,6.69-6.03,6.33Z"/><path class="cls-2" d="M160.91,119.7c-9.69.22-10.61-11.96-6.58-7.33.03.2.91,4.95,6.76,4.92,5.58-.02,6.24-5.35,6.27-5.57,4.07-5.02,3.08,8.52-6.45,7.99Z"/><path class="cls-2" d="M127.88,69.08c-3.4-2.15,1.83-3.73,4.19-2.96,2.74.12,6.41,3.91,2.58,4.4,0,0-6.77-1.44-6.77-1.44Z"/><path class="cls-2" d="M185.91,74.55c3.92-1.28-.94-4.02-3.37-3.86-2.69-.54-7.16,2.28-3.55,3.66,0,0,6.92.2,6.92.2Z"/><path class="cls-6" d="M119.8,111.33c-1.12,8.59-20.09,5.64-18.56-2.88,1.12-8.59,20.09-5.64,18.56,2.88Z"/><path class="cls-6" d="M204.66,117.23c.51,8.65-18.68,9.32-18.77.66-.51-8.65,18.68-9.32,18.77-.66Z"/><path class="cls-2" d="M111.47,113.15c-.34-.03-.62-.31-.64-.67,0-.08-.1-2.03,1.16-4.59.39-.83,1.69-.2,1.27.63-1.7,3.04-.15,4.12-1.79,4.63ZM107.94,111.14s.39-1.93,2.18-3.45c.3-.25.33-.7.08-1-.25-.3-.7-.33-1-.08-2.19,1.86-2.64,4.17-2.66,4.27-.18.9,1.23,1.17,1.39.26Z"/><path class="cls-2" d="M193.66,120.62c-1.34-.99.28-1.52-.83-4.86-.11-.38.11-.77.49-.88,1.82-.29,1.68,6.7.34,5.73ZM198.25,120c1.75.73-.03-6.35-2.07-5.49-.3.25-.35.7-.1,1,2.19,2.61.73,3.83,2.17,4.49Z"/><path class="cls-2" d="M134.89,149.71c3.61,1.84,8,2.02,11.93,2.77l.24-2.23c-2.8-.37-5.59-.75-8.36-1.28-.97-.24-2.01-.53-3-.67-.51-.32-1.86.63-.82,1.4Z"/><path class="cls-2" d="M159.04,152.51c-3.95.83-8.22.1-12.21-.03l.24-2.23c2.83.25,5.63.49,8.45.6,1.01.01,2.1-.04,3.1.09.59-.18,1.63,1.1.42,1.57Z"/><path class="cls-2" d="M107.02,175.7c-.3-9.08,3.04-17.89,7.13-25.75-.86-.54-1.73-1.07-2.59-1.6-4.55,9.69-7.71,18.02-7.46,26.55,0,1.38,1.1,8.05,2.83,4.43h0c.07-1.21.07-2.44.08-3.63Z"/><path class="cls-2" d="M106.23,170.47c.58-1.51,1.08-3.27,1.66-4.82.25-1.12.39-2.05,1.11-2.98.11-.53.42-1.27.43-1.82,0-1.02.92-1.6.9-2.64.46-1.48,1.03-3.02,1.38-4.48.9-1.39-.65-2.23-1.42-.85-1.29,2.09-2.35,4.07-3.31,6.18-.56,1.3-.57,2.45-1.32,3.62-.67,2.51-.86,4.94-1.08,7.67-.17,1.59,1.59,1.76,1.65.12Z"/><path class="cls-2" d="M101.71,196.97c-.95-.68-1.44-2.14-1.19-3.16.67-1.95,1.76-3.22,2.92-4.58,1.06-2.1,1.78-4.56,2.69-6.69.13-.27.55-1.78.61-1.89,1.43-2.52-.57-3.41-1.75-1.05-2.03,3.67-3.55,5.95-5.8,9.49-3.49,4.48-2.72,8.54,2.37,11.06,1.11,1.06,3.73,1.11,2.63-.91-.35-.33-1.97-1.45-2.47-2.27Z"/><path class="cls-2" d="M127.69,192.29c-1.56,1.49-3.23,2.03-5.04,3.09-1.99.88-2.87,2.37-4.86,3.15-.11.06-1.99,1.04-2.1,1.1-2.78,1.54-4.41,3.19-7.79,1.88-1.61-.22-3.1-2.1-3.93-.55.99,2.45,5.58,3.94,7.92,3.78,2.43-.81,7.89-3.07,9.45-4.47,1.78-.69,3.73-2.51,5.39-3.03,1.18-.58,2.29-1.82,3.47-2.39,3.44-1.86,1.82-5.74-2.52-2.56Z"/><path class="cls-3" d="M163.05,180.87s-10.59,15.61-12.3,22.21c-1.72,6.61,3.5,5.86,5.28,7.57,1.78,1.71,6.01,3.06,7.12,2.12,0,0,7.73-5.46,10.46-7.67.44-.36,2.81-.75,5.25-2.54,20.02-13.79-6.83-22.18-15.79-21.69Z"/><path class="cls-2" d="M156.73,209.53c-1.2-.59-.94-.47-1.82-1.42-1.05-.88-2.72-2.09-2.8-3.62,1.49-3.22,2.96-6.78,3.13-10.26.47-1.74.03-2.15-.66-2.26-1.09-.32-1.58,3.01-2.06,3.88-1.06,3.6-3.1,4.09-3.7,7.97-.68,4.85,4.68,7.74,8.66,8.99.87.47,2.25.84,2.49-.49.61-.63-2.18-1.84-3.23-2.79Z"/><path class="cls-2" d="M175.91,202.06c-1.53,1.68-3.22,3.1-5,4.5-1.72,2.35-4.17,3.19-6.59,4.76-1.73,1.15-3.53.63-5.4.26-2.81-1.61-3.72.39-.98,1.79,3.29,1.87,6.61,1.74,9.67-.37,1.33-.39,3.63-1.65,4.2-2.56.74-.46,1.87-1.24,2.37-1.97,1.14-1.15,1.74-1.31,2.64-2.35.53-.87,1.27-1.28,2.03-1.94,2.91-2.45-.17-4.92-2.93-2.13Z"/><path class="cls-2" d="M152.78,193.11c-2.91.49-36.29-8.36-33.17-2.79,1.39,2.16,5.64,1.78,7.93,2.42,8.47,1.56,17.3,2.64,25.89,4.19.61-1.08-.16-2.56.17-3.72-.27-.03-.55-.06-.82-.1Z"/><path class="cls-2" d="M188.73,166.93c.35,2.88-.27,5.51-.37,8.38.29,5.33-.53,10.8-1.23,16.06-.05.29-.4,2.18-.49,2.43-.32,1.01-1.25,2.09-.43,2.86,1.11.78,2.92-4.09,3.15-5.26.86-3.91,2.18-10.2,1.99-13.76.14-1.03.32-2.68.19-3.71.07-2.35.51-3.75.23-5.89-.1-1.07.07-1.21,0-2.29.09-4.27-3.35-4.18-3.04,1.19Z"/><path class="cls-2" d="M180.62,202.68c1.9-1.75,3.74-2.74,5.34-4.86,2.11-3.46,3.84-7.34,4.39-11.38.42-1.85.38-4.02.31-5.82.26-2.02-.18-2.4-.91-2.45-1.24-.19-1.28,3.72-1.66,4.76-.74,3.45-.98,5.49-2.81,8.33-.75,2.32-1.49,2.9-2.54,4.73-.89,1.2-1.57,1.37-2.6,2.38-.84.91-1.27,1.17-2.26,1.73-3.66,1.99-.85,5.21,2.73,2.57Z"/><path class="cls-2" d="M191.8,174.44c-.33-1.22.16-2.28.1-3.52-.61-1.65-.26-3.39-.8-5.07-.09-.89-.47-1.82-.73-2.62-.04-.94-.44-1.07-1.02-1.02-.92-.02-.63,1.73-.67,2.4.15,1.49-.04,1.77.18,3.14.04.16-.23,1.01-.21,1.17.13,1.1.19,1.05.24,1.19-.2.84.27,1.96-.1,2.71-.11.57.25,1.27.09,1.85-.35,1.61,3.01,2.36,2.91-.23Z"/><path class="cls-3" d="M200.72,147.67c5.37,8.82,1.94,20.05-13.49,16.12-1.63-.63.85-8.81.85-8.81,0,0,10.19-10.18,12.64-7.31Z"/><path class="cls-2" d="M193.46,165.73c5.71.18,9.03-2.47,11.16-7.74.78-3.53-.56-7.71-1.78-10.95-.45-1.26-.74-2.3-1.71-1.9-.73.32.74,3.95.71,4.97,1.41,5.78-.42,12.05-6.84,13.18-1.32.15-2.63.34-3.97.27-1.34-.46-3.69.22-1.92,1.35.53.3,3.17.71,4.36.82Z"/><path class="cls-3" d="M189.56,130.93s-1.44-13.64,9.66-13.71,2.06,17.23,2.06,17.23c0,0,2.44,10.87-2.94,19.4-5.37,8.52-14.16,4.86-20.49.4-3.01-2.12-1.22-14.05-1.41-14.46-4.31-8.37,2.95-10.98,13.11-8.86Z"/><path class="cls-2" d="M191.07,130.65c-2.48-1.28-5.79-2.23-8.57-1.8-1.56-.16-2.92-.04-4.44.7-1.74.78-3.4,1.74-3.91,3.7-.16,1.1-.64,2.78.69,2.81.93-.39.44-2.02,1.27-2.7,1.84-2.28,7.74-2.14,10.61-1.62,1.52.39,3.62.77,5.07,1.59.66.8,2.7,1.01,2-.49-.22-.44-1.92-1.69-2.72-2.2Z"/><path class="cls-2" d="M191.48,156.02c-4.49.58-9.53-.38-12.75-3.75l-1.85,1.88c2.76,2.77,6.69,4.19,10.55,4.36,1.39.08,3,.03,4.27-.6,1.07-.23,1.28-1.94-.22-1.89Z"/><path class="cls-2" d="M177.83,139.45c-.37,1.93-1.38,3.71-1.38,5.75.13,2.49.23,5.34,2.28,7.07l-1.85,1.88c-6.31-5.39-.34-20.33.95-14.69Z"/><path class="cls-2" d="M203.36,132.28c.83-1.76,2.05-3.88,2.19-5.88.93-2.19.3-5.03-.93-7-.64-.76-1.33-1.83-2.01-.89-.32.45-.04.62.24,1.23.26.46.7,1.73.63,2.12,0,3.19-1.13,6.54-2.22,9.63.11,1.08-1.39,2.37.14,3.01.51.5,1.38-1.39,1.96-2.21Z"/><path class="cls-2" d="M199.34,115.8c-4.48-.34-7.32,1.5-9.36,5.47-.85,2.67-.72,5.94-.19,8.6.08,1.64.53,1.88,1.05,1.78.87-.05.4-3.1.57-3.93.17-4.93,2.25-9.71,7.89-9.67.58-.07.91-.12,1.51.11.77.63,2.82.51,1.87-.85-.29-.42-2.35-1.41-3.34-1.51Z"/><path class="cls-2" d="M180,139.2c-.38.04-.62-.28-1.02-.35-.44-.2-1.08-.2-1.33-.61-.53-.12-1.08-.19-1.53-.53-.5-.23-.61-.76-1.26-.47-.89.48.48,1.8.88,2.19.41.47,1.03.89,1.77,1.02.71.39,1.55.48,2.38.45.57-.35,1.24.16,1.14-1.03.05-.52-.62-.43-1.05-.68Z"/><polygon class="cls-2" points="188.3 129.64 189.92 127.99 190.57 131.1 188.3 129.64"/><path class="cls-2" d="M193.96,155.95s-.52-.75.34-1.29c2-.78,1.01,2.48-.34,1.29Z"/><path class="cls-2" d="M194.77,163.25c-.82.42-1.46.11-2.34.14-.98.13-1.54.28-2.52-.02-.9-.09-1.87-.29-2.69-.63-.71-.15-1.39-1.09-1.94-.42-.78.98,1.91,2.38,2.52,2.66.8.26,2.91,1.11,3.53.79.76.23,1.76-.15,2.45.08.53.05,1.11-.33,1.63-.31,1.45.02,1.31-2.74-.64-2.28Z"/><path class="cls-2" d="M200.95,151.4c.62-1,1.39-2.26,1.46-3.48.4-.68.32-1.64.19-2.38.04-.67-.12-1.39-.24-2,.02-.7-.24-.82-.6-.79-.58-.03-.44,1.24-.54,1.67-.19,1.73-.42,3.17-1.03,4.83-.31.61-.51,1.52-.82,2.17-.22.26-.44.7.13,1.07.27.4,1.01-.62,1.44-1.08Z"/><path class="cls-2" d="M201.59,150.13c.34-1.08.91-1.81,1.16-2.94.45-1.33.39-3.34.72-4.63-.11-1.59-.56-3.28-.88-4.81-.03-.2-.4-1.2-.42-1.28-.22-1.93-1.76-1.55-1.47.14.1,1.09.23,2.77.22,3.57-.15,2-.03,4.49-.64,6.59-.36,1.14-.57,2.74-.99,3.92-.62.56-.2,2.24.86,1.56.51-.51.97-1.46,1.42-2.12Z"/><path class="cls-2" d="M96.2,139.26c1.33,1.31,3.14,1.81,4.9,2.43,3.03,1.58,6.35,2.47,9.56,3.58l.85-3.32c-3.45-1-6.81-2.2-10.2-3.37-1.19-.49-2.48-1.07-3.73-1.35-.66-.54-2.55.86-1.39,2.03Z"/><path class="cls-2" d="M109.32,154.85c-.04-1.46.59-2.43,1.09-3.82,1.03-1.55,1.19-3.59,2.27-5.08.16-.08.07-.3-.09-.29-.01-.02,0-.19-.11-.15-.47.06-1.26-.06-1.81-.24l.85-3.32c7.88.98,4.47,4.01,2.37,8.97-.81,1.4-1.27,3.04-2.15,4.39-.09.84-2.41,1.18-2.42-.46Z"/><path class="cls-6" d="M193.19,195.19c1.34-12.38,15.62-9.32,7.09-2.17,11.9,1.37,3.02,13.8-7.09,2.17Z"/><path class="cls-2" d="M195.29,187.69c-1.59,1.6-2.32,3.85-2.57,6.01.03.48-.15,1.81.56,1.51.18-.18.31-.2.36-.06.74-2.07,1.69-4.17,3.44-5.62l-1.78-1.85s0,0-.01.01Z"/><path class="cls-2" d="M197.1,189.53c1.41-1.45,3.25-2.84,5.2-1.53,1.61-.33-.57-2.09-1.41-2.13-1.96-.49-4.13.52-5.58,1.81l1.78,1.85h0Z"/><path class="cls-2" d="M199.21,200.89c2.33.66,5.4.48,6.82-1.7.41-.65.6-2.14-.5-1.73-.97,2.24-3.71,1.66-5.56.98l-.78,2.45s.01,0,.02,0Z"/><path class="cls-2" d="M199.97,198.43c-2.11-.55-4.06-1.69-5.77-2.95-.28-.34-1.11-.49-1.2.12.29.88,1.14,1.63,1.77,2.33,1.27,1.22,2.72,2.39,4.43,2.95l.78-2.45h-.01Z"/><path class="cls-2" d="M203.08,192.26c-.24.08-.21-.03-.19-.23.29-.55.67-1.35.69-2.06.2-.82-.38-2.79-1.32-1.76-.04.5-.01,1.09-.23,1.59-.46,1.41-3.94,2.61-2.08,4.25l3.14-1.79h0Z"/><path class="cls-2" d="M199.96,194.06c2.48.88,4.52.28,5.72,3.23,1.17.57.89-1.16.7-1.85-.53-1.44-1.93-2.52-3.28-3.1-.02-.03.02-.07-.02-.08l-3.14,1.79s.01,0,.02,0Z"/><path class="cls-2" d="M193.79,197.39c.99.06,5.84-2.98,3.43-3.51-1.21.52-2.5.9-3.82.97l.38,2.54h.01Z"/><path class="cls-2" d="M193.39,194.85c-1.13.3-2.35.26-3.45-.13-.32-.22-.9.19-.93.53.29.71,1.11,1.21,1.77,1.55.92.45,1.96.75,2.99.6l-.38-2.54h0Z"/><path class="cls-2" d="M137.87,174.31c-3.33-2.96-3.13-.49-.69,1.71l1.22-1.19c-.14-.15-.38-.38-.53-.52Z"/><path class="cls-2" d="M140.97,177.56c-.75-.88-1.74-1.86-2.56-2.73l-1.22,1.19c.77.9,1.72,1.82,2.52,2.69l1.26-1.14Z"/><path class="cls-2" d="M140.2,179.25c3.17,3.19,3.06.59.76-1.68l-1.26,1.14c.14.15.36.38.5.54Z"/><path class="cls-2" d="M135.99,177.33c-3.22,3.1-.91,3.14,1.63.88l-1.02-1.36c-.17.13-.43.34-.6.48Z"/><path class="cls-2" d="M139.87,174.75c-1.1.54-2.25,1.34-3.28,2.09l1.02,1.36c1-.66,1.99-1.39,3.05-1.95l-.8-1.5Z"/><path class="cls-2" d="M141.3,175.93c4.12-2.02,1.28-2.76-1.43-1.17l.8,1.5c.18-.09.45-.25.63-.33Z"/><path class="cls-2" d="M186.13,129.27c-5.76-2.25-14.04.61-12.71,7.98l2.79-.77c-.6-3.26,2.39-5.21,5.32-5.3,1.24-.06,2.57.05,3.81.04.7.31,2.26-1.15.79-1.95Z"/><path class="cls-2" d="M175.45,151.98c-2.63-3.24-1.65-8.65-.07-12.21-.1.05-.13.34-.1.4-.58-1.03-1.66-1.65-1.85-2.91l2.79-.77c.07.45.49.89.68,1.24,1.01.8,1.75,2.44.84,3.67-.98,2.02-1.43,4.49-1.17,6.76-.01,1.05.48,2.04.62,3.08,0,.72-.83,1.6-1.74.76Z"/><path class="cls-2" d="M185.39,131.11c1.36.42,2.7.89,4.11,1.06,1.35-.1,2.56-2.24,2.03-3.65-.29-3.77,1.01-8.32,4.74-9.9l-1.24-2.62c-4.82,2.17-6.84,8.03-6.02,12.96.14.21-.15.52-.38.42-1.32-.57-6.18-.3-3.25,1.72Z"/><path class="cls-2" d="M202.66,129.05c.22-2.53,1.56-5.03.99-7.62-.86-3.06-4.73-4.27-7.37-2.8l-1.24-2.62c3.6-1.83,8.71-.58,10.64,3.09,2.28,4.11-1.9,15.22-3.02,9.96Z"/><path class="cls-2" d="M204.48,156.68c.99-1.22.71-5.21-.03-6.52-.01-.07.14-.11.17-.12,0,0-.05-.16,0-.16.21.25.62.02.87-.01l-.78-3.06c-1.67.06-3.56,1.06-3.46,2.97.25,1.17.89,2.24.91,3.43.25.92,0,1.92.16,2.84-.25.48,1.55,1.52,2.16.65Z"/><path class="cls-2" d="M214.7,144.98c-.6,1.55-2.35,1.9-3.67,2.67-1.66,1.1-3.72,1.44-5.54,2.21l-.78-3.06c2.15-.66,4.21-1.34,6.26-2.22.67-.35,1.33-.8,2.03-1.08.23-.4,2.14.5,1.69,1.48Z"/><path class="cls-2" d="M106.34,143.5c.14.41.38.36.38.64.17.15.34,0,.43.12.01.02-.49.1-.14.05.7-.09.08.09-.12.08-.02,0,.24.05.2.07-.08.02-.34-.05-.39-.01l4.28,1.6c.4-.26,1.01-.45,1.28-.83.36-.49,1-.93.61-1.59-.06-.09.07,0,.03-.07-.39-.08-.51-.31-.65-.7-1.05-.67-2.18-.41-3.34-.76-.18-.05-1.12-.53-1.33-.46-.32-.35-1.7,1.15-1.25,1.86Z"/><path class="cls-2" d="M101.36,146.42c.64-.71,1.62-.73,2.51-.86.33-.08.72-.3.99-.48.6-.24,1.24-.04,1.74-.55.09.04.32.18.08-.06.02-.06,4.28,1.6,4.3,1.59-2.18,1.2-4.55,1.92-6.93,2.27-.65.16-1.41.34-2.07.25-.48.26-1.24-1.59-.63-2.16Z"/><path class="cls-2" d="M98.22,195.27c.21,1.14,1.09,1.96,1.89,2.77,1.2,1.77,2.9,3.09,4.53,4.42l1.46-2.19c-1.7-1.22-3.18-2.65-4.64-4.15-.49-.58-.99-1.25-1.58-1.73-.18-.51-1.86-.08-1.66.88Z"/><path class="cls-2" d="M114.58,203c-2.26,2.71-7.36.94-9.93-.55l1.46-2.19c1.77,1.01,3.87,1.95,5.93,1.66.45,0,.9-.29,1.33-.36.32-.37,1.76.61,1.21,1.44Z"/><path class="cls-2" d="M151.05,207.98c.39,1.14,1.43,1.79,2.41,2.43,1.53,1.48,3.51,2.38,5.4,3.29l.91-2.47c-2.08-.89-4.09-1.95-5.86-3.39-.59-.33-.97-.92-1.65-1.08-.3-.05-.37.35-.73.28-.48-.12-.61.57-.47.94Z"/><path class="cls-2" d="M168.53,212c-1.81,3.35-6.62,2.61-9.67,1.7l.91-2.47c1.79.54,3.74,1.06,5.56.59.6-.23,1.15-.65,1.71-.95.24-.44,1.84.22,1.5,1.14Z"/><path class="cls-5" d="M188.09,41.82s15.79,7.5,19.03,23.6c2.61,39.09,42.2,28.02,28.51-.37-5.59-10.94-21.7-24.8-37.01-23.17"/><path class="cls-5" d="M131.36,36.37s-16.93,4.36-23.17,19.54c-10,37.88-46.76,19.47-27.91-5.79,7.57-9.68,26.02-20.21,40.74-15.7"/><path class="cls-2" d="M119.84,32.63c-9.91-3.8-24.82,2.6-33.08,8.45l2.44,3.21c6.75-4.92,14.86-8.34,23.2-9.16,2.46-.37,4.52.03,7.12.13,1.49,0,2.5-1.45.32-2.62Z"/><path class="cls-2" d="M111.63,53.34c-2.16,3.58-3.32,7.78-5.06,11.55-4.05,7.89-8.7,15.17-18.67,14.58-4.53.2-8.61-2.4-11.44-5.77-9.16-10.71.56-25.95,10.36-32.53l2.44,3.21c-6.56,4.94-13.2,12.33-12.42,21.09.93,4.81,4.58,9.33,9.71,9.77,1.11.08,2.45.47,3.59.47,2.01-.28,4.07-1.07,5.76-2.29,3.91-3.2,5.94-8.36,8.18-12.83,1.21-3.1,2.2-6.41,4.08-9.28l3.48,2.03Z"/><path class="cls-2" d="M122.49,32.92c3.17-1.76,10.01.54,8.75,4.56-1.27,1.81-4.55,2.14-6.38,3.5-5.2,3.22-10.31,6.86-13.13,12.42l-3.48-2.03c3.8-7.15,11.11-11.9,17.94-15.18-.81-.99-2.4-.51-3.49-.63-1.74,0-2.1-1.97-.22-2.64Z"/><path class="cls-2" d="M127.92,35.2c-3.35-2.23-7.98-1.27-11.58-.07l.61,1.61c2.39-.89,4.93-1.44,7.48-1.2.89.1,1.8.37,2.65.61.38.31,1.73-.11.83-.95Z"/><path class="cls-2" d="M106.69,41.43c2.58-2.82,6.19-4.76,9.65-6.3l.61,1.61c-2.44.95-4.7,2.27-6.87,3.72-.78.52-1.53,1.22-2.34,1.69-.31.42-1.73.29-1.05-.72Z"/><path class="cls-2" d="M192.02,42.42c3.54-.38,7.21.43,10.14,2.53l.91-1.47c-2.35-1.53-5.1-2.57-7.92-2.65-1.01-.08-2.15,0-3.11.33-.72.09-1.17,1.2-.02,1.27Z"/><path class="cls-2" d="M210.46,52.2c-2.69-2.44-5.02-5.51-8.3-7.25l.91-1.47c1.03.07,11.59,9.64,7.4,8.72Z"/><path class="cls-2" d="M200.32,43.01c10.44,1.19,20.75,6.65,27.62,14.65l3-2.69c-6.01-6.93-14.32-11.61-23.06-14.19-2.21-.43-4.25-.95-6.66-.67-1.79-.22-4.37,2.26-.89,2.89Z"/><path class="cls-2" d="M207.88,60.96c.82,2.23,1.27,4.87,1.67,7.2.66,2.29,1.41,4.84,1.84,7.2,1.32,6.97,5.37,13.54,13.28,13.02,8.9.98,13.36-8.84,11.75-16.46-1.49-5.38-5.13-9.89-8.4-14.35l3-2.69c5.25,6.33,10.47,14.09,9.52,22.7-.71,9.48-9,16.72-18.55,14.54-4.25-.89-7.95-2.33-10.42-6.18-2.87-4.08-4.19-9.4-5.17-14.3-.33-1.71-.89-3.25-1.3-5.01-.35-1.39-.47-2.99-1.03-4.36l3.8-1.33Z"/><path class="cls-2" d="M196.38,42.56c-6.77-1-.04,2.18,1.58,3.73,4.33,4.14,7.92,9.04,10.03,14.63l-3.8,1.33c-2.67-7.71-8.77-13.68-15.32-18.19-2.66-2.95,1.56-4.8,4.24-5.09,2.89-.85,8.61,3.67,3.27,3.59Z"/></g></g></svg>