<?xml version="1.0" encoding="UTF-8"?><svg xmlns="http://www.w3.org/2000/svg" viewBox="0 0 300 300"><defs><style>.cls-1{fill:#fff;}.cls-2{fill:#ff0092;}.cls-3{fill:none;}.cls-4{fill:#c63380;stroke:#c63380;stroke-miterlimit:10;}.cls-5{opacity:.7;}</style></defs><g id="base"><rect class="cls-3" width="300" height="300"/></g><g id="_레이어_2"><g class="cls-5"><path class="cls-1" d="M150,295c-79.95,0-145-65.05-145-145S70.05,5,150,5s145,65.05,145,145-65.05,145-145,145Z"/><path class="cls-2" d="M150,10c37.4,0,72.55,14.56,98.99,41.01,26.44,26.44,41.01,61.6,41.01,98.99s-14.56,72.55-41.01,98.99c-26.44,26.44-61.6,41.01-98.99,41.01s-72.55-14.56-98.99-41.01c-26.44-26.44-41.01-61.6-41.01-98.99s14.56-72.55,41.01-98.99c26.44-26.44,61.6-41.01,98.99-41.01M150,0C67.16,0,0,67.16,0,150s67.16,150,150,150,150-67.16,150-150S232.84,0,150,0h0Z"/></g><path class="cls-4" d="M48.36,74.83c-.2-.61-.02-.87.32-1.25.21-.24,1.38-.41,1.66-.54,2.25-.97,2.93-1.91,4.43-3.17.64-.54,1.23-.07,2.33.91.27.24.46,1.1-1.12,2.56-1.36,1.29-5.3,2.77-6.11,2.84-.47.05-1.34-.77-1.51-1.35ZM58.65,88.92c.12-.32,1.29-3.58,1.35-4.01.16-1.67-.38-5.71-.86-7.26-.13-.33-.37-.06-.37-.06-.29.33-1.09,1.69-1.35,1.99-.77.86-1.66,1.98-2.33,2.6-.13.15-1.14.74-1.93.61-.31-.07-.74-.66-.98-.87-.38-.34.2-.99.44-1.26,1.35-1.56,3.6-3.91,4.06-4.84.23-.43,1.13-1.81,1.35-2.46.05-.17,1.42-1.29,1.87-1.31.28-.07,1.6.89,1.7,1.31.27.77.18,2.72.57,4.07.28.94.55.7,1.13.53.86-.25,3.44-.28,4.66-.68.39.03.87.46,1.51,1.4.18.16.14.55.15.61-.04.34-.36,1.06-.98,1.09-.36.16-4.58.43-5.86.67.27,1.25.31,4,.18,4.63-.22,1.02-1.19,3.41-1.33,3.87-.03.45-1.52.98-2.14.85-1.31-.32-1.16-.67-.81-1.47ZM69.77,70.71c-.92-.82-3.96-4.39-7.4-6.61-.44-.28-3.02-.67-3.43-.57-.82-.09-1.38-.96-1.43-1.38-.04-.19.04-1.24.88-1.76s4.23.21,5.12.53c1.38.48,2.21,1.28,3.12,2.1.44.4,2.09,2.19,2.65,2.63.09.08.26.13.43.12,1.21-1.42,3.08-3.63,4.33-5.02.24-.27.83-.33,1.19-.26.82.15,1.85,1.86,1.08,2.67-1.54,1.6-2.54,2.84-3.81,4.26-.24.27-.44.73-.48.95.68.61,3.7,4.37,4.18,4.85.33.35.2.5.24.8-.07.26-.47,1.6-.76,1.93-.16.18-.32.35-.59.43-.7.12-3.75-4.26-5.32-5.66ZM78.07,92.33c-.12-.22-.86-1.3-1.09-1.4-.38-.34-1.14-.75-1.77-1-1.07-.47-3.94-.54-5.04-1.26-.47-.31-1.5-.28-.99-1.63.44-1.26,1.33-1.25,2.51-1.32.19-.04.44-.19.62-.46.08-.09.13-.74.2-.88,1.51-2.64,3.46-6.38,3.75-6.81.16-.18.66-.74,1.01-1.01.54-.42,1.94-.5,2.6-.23.89.37,2.58,2.47,3.06,2.89.35.32,2.02,2.5,2.85,3.3.3.26.89.37,1.11.84.28.52.3,1.39-.12,1.92-1.37,1.65-2.46,2.64-3.52,3.94-.58.71-1.31,2.66-1.99,3.17,0,0-1.26,1.53-1.67,1.33-.55-.28-1.18-.58-1.54-1.38ZM78.25,88.08l.95.85c.25.44.83.32.96.11.68-.94.87-1.57,1.7-2.68.31-.41,1.24-1.45,1.2-2.12-.92-.82-3.88-5.01-4.61-4.49-1.27.89-3.69,5.8-3.5,6.66,1.37.43,2.08.42,3.3,1.67Z"/><path class="cls-4" d="M89.44,64.17c-.33-.5-1.36-2.91-1.65-3.34-.62-.92-4.44-5.81-5.06-6.74l-4-6.01c-.31-.46-.21-1.24.25-1.55l1.09-.73c.59-.4,1.3-.05,1.58.38l11.49,17.33c.41.4.2,1.16-.3,1.49l-.66.44c-.63.42-1.43.71-1.85.09l-.9-1.35ZM98.47,69.79c.65.47,1.1,1.37,1.54,2.03,1.01,1.52-1.19,3.22-2.4,3.7-.41.18-1.46-.12-1.77-.44-.7-.77-1.31-1.46-1.53-2.65-.11-.59.39-1.78,2.06-2.85.69-.46,1.43-.29,2.1.22Z"/><path class="cls-4" d="M110.79,45.68s.09-.87.36-.94c.66-.15,1.37-.43,1.92-.84,1.26-.9,4.57-6.37,4.87-8.27.04-.34-.24-.35-.36-.33-.19.04-.43.26-.51.28-1.64.49-2.29.64-5.15,1.17-.63.1-1.28-.28-1.4-.78-.05-.23-.23-.48-.36-1.06-.07-.31.2-.57.7-.69.7-.16,1.43-.16,2.13-.28,1.02-.15,2.78-.84,3.87-1.08.7-.16,3.13-1.81,4.21-2.63.18-.12.91-.29,1.12-.26.42.07.69.53.94.92.13.21.16.86-.05,1.4-.57,1.6-2.23,5.23-3.41,7,.24.15,3.54,1.43,4.19,1.77l1.62-.37c.19.12.47.63.79,2.02.16.7-1.22,1.99-2,1.59-.69-.37-4.81-2.16-5.49-2.5-.19.04-.68-.29-.89.2-.38.82-2.54,4.04-3.19,4.59-.21.17-1.94.4-1.93.44-.27.06-1.68-.06-1.77-.45l-.21-.93ZM120.6,57.66c-.12-.18-.4-.85-.38-1.13.09-.87.68-1.29,1.18-1.41,3.79-.86,7.06-1.89,10.71-3.21.04-.34-.12-2.13-.29-2.7-.2-.89-.58-.76-.74-.73-.77.18-2.04.67-2.04.67-.77.18-6.67,2.53-8.2,2.76-.5.11-.83-1.32-.92-1.7-.04-.19.09-.51.23-.58.52-.24,1-.63,1.54-.76,4.02-.92,7.26-2.96,9.93-3.77.05-.34-1.26-5.74-1.36-7.06-.12-1.76-.42-3.65-.73-4.64-.05-.23-.85-2.86-1.07-3.26-.79-1.49-3.27-3.08-4.06-3.72-.64-.5-.58-1.66-.5-2.53.03-.41.56-.94.98-.87,1.92.38,3.18,2.33,4.78,3.47.21.2,1.65,1.9,1.92,2.37.11.46,1.1,4.63,1.1,4.84.03.32.48.34.83.26,1.94-.44,3.56-.97,5.34-1.38.58-.13.88.49.92.48.26.59.31,1.88-.28,2.34-1.28.29-3.41.94-4.84,1.26-.81.19-1.5.22-1.29,1.11.02.08.04.89.09,1.12,1.13,4.95,1.12,5.97.92,6.02.6.31.63.63.57,1.09-.04.17.07,1.21.22,2.23.12.71.21,2.52.44,3.36.04.15.58.56.62.75.17,1.3-.52,1.46-1.2,1.9-3.21.73-5.82,1.45-9.55,2.58-.52.2-.5.68-.5,1.01.02,1.17,1.01,1.93,1.82,2.8.22.24,1.21.82,2.03.88.78.03,3.53-.6,5.5-1.25.19-.04.59-.62.62-.83.02-.25,1.04-.6,1.83-.54.25.02,1.04.46,1.1.73.04.15.2,1.05.14,1.31-.3,1-2.46,2.07-2.72,2.17-2,.7-4.72,1.28-6.62,1.51-.04,0-2.56-.15-3.7-1.23-1.71-1.61-2.36-2.15-4.39-5.72Z"/><path class="cls-4" d="M145.62,29.28c.21-.06.68-.02.79.03.77.31,1.71.95,2.5,1.02l4.82.44c.67.06,1.64-.09,2.22-.28.37-.13,1.95.02,2.34.09.23.06.44.44.46.6.02.24-.06,1.55-.15,1.7-.15.31-.7.69-1.15.81-.55-.05-4.09-.17-4.6-.22l-5.02-.45c-.67-.06-1.2-.43-1.93-.73-.31-.15-1.12-.82-1.14-1.1-.05-.72.28-1.77.85-1.92ZM152.65,51.58c.41-.56,2.05-4.2,2.61-4.62.17-.14.93-.63,2.38-.3.9.2.57,2.48-.15,2.94l-.99,1.66,3.71,2.21c.3.19,1.21.31,1.46.13,0,0,.92-.91,1.12-1.37.4-.92,1.7-3.35,2.62-4.34.35-.37,1.24-.05,1.42.13.26.22.8,1.31.55,2.24l-1.19,2.6c.76.83,1.3,1.07,2.3,1.92,1.63,1.34,3.54,2.23,5.19,3.02.34.15.13,1.25-.06,1.59-.48.91-1.98,1.18-2.96.57-1.51-.89-3.68-2.88-6.08-4.61-.9,1.19-3.56,4.1-5.95,5.04-.66.26-2.14.76-2.39.02-.19-.5-.59-1.37.06-1.95.39-.32,2.18-1.68,2.67-2.23-.75-.9-2.54-1.39-3.49-1.95-.3-.19-.6-.41-.99-.09l-.52.95c-1.06,1.14-3.63,3.14-5.1,3.92-.42.2-1.67.88-1.98.26-.59-.93-.79-1.82-.03-2.35,2.04-1.37,4.04-2.82,5.79-5.37ZM147.03,38.01c.47-.75.98-1.54,1.63-2.2,1.02-1.1,2.82-1.66,4.24-1.53.71.06,1.29.71,2.33,1.17.71.06,1.73.67,1.97,1.13.35.59.7,1.1.88,1.75.18.61-.13,2.34-.24,2.65-.93,2.31-2.56,4.11-5.07,4.52-.92.08-2.35.39-3.38-.11-.76-.43-2.17-1.15-2.79-2.68-.33-.79-.38-3.34.42-4.7ZM148.65,23.61c.13-.15.64-.06.91.08.61.29,2.25,1.56,3.01,1.95.42.24.88.44,1.03.49.85.24,2.31.85,3.5.95.47.04.39,1.39.2,1.77-.28.49-.81.56-1.05.62-.17.06-1,.03-1.16.02-.43-.12-1.08-.38-1.55-.54-1.12-.34-1.54-.62-2.26-.96-.34-.19-2.61-1.51-2.93-2.02-.28-.46-.3-1.5.29-2.36ZM149.7,41.92c.36.43.7.66,1.2.83.96.37,2.69-.27,3.33-1.13.73-1.01.99-2.18.3-3.36-.14-.21-1.28-.79-1.4-.84-1.04-.45-2.23-.48-3.09.68-.28.41-.66,1.14-.71,1.73-.07.79-.06,1.51.37,2.1ZM168.86,45.48l.24-.93c.23-2.49.51-3.9.74-6.43-.82.24-2.96.53-3.89.29-.16,1.38-.57,2.38-.58,3.77,0,1.39-.06,2.03-.16,2.62-.09.55-.65.98-1.14,1.13-.33.09-2.09.69-2-.34.19-2.13.37-2.79.5-4.66.1-1.54.44-3.55.59-5.17.15-1.7.33-3.2.15-4.77-.18-1.53-.81-2.9-2.17-4.26-.23-.14.23-.82.34-1.16.32-.93,1.33-1,1.82-.71,2.04,1.26,3.24,4.24,3.27,6.19,0,.8.04.44-.17,2.81l-.11,1.19c.17.37.7.22,1.05.25.87.08,2.08-.09,3.12-.56-.02-.2,0-.44.02-.68l.23-2.53c.07-.79.67-3.01-1.04-4.8-.08-.05-.14-.17-.22-.22-.26-.26-.62-.65-.74-1.02-.16-.49.25-1.85.76-1.8l.2.02c.32-.01.95.05,1.44.37,2.72,2.12,2.75,3.52,2.72,6.06-.05.51-.1,1.15-.13,1.9l-.17,1.86c-.09,1.03-.16,2.26-.3,3.72-.12,1.34-1.15,6.51-1.27,7.85-.06.71-1.01,1.9-1.88,1.9-.4,0-1.31-.08-1.39-.52-.13-.29-.01-.76.17-1.38Z"/><path class="cls-4" d="M195.55,63.53c.1-.13.38-.49.68-.79.32-.34.62-.64.65-.71.25-.58.64-1.41,1.1-2.38.47-1.01,1.08-2.34,1.47-3.25.23-.55.53-1.24.66-1.66.22-.81.56-1.62.73-2.02l-8.4-3.06c-.35,1.23-1,2.55-2.34,3.66-.37.36-5.64,2.51-7.91,1.55-2.59-1.1-4.05-2.55-4.36-5.96.18-1.65,5.07-8.45,9.13-8.57.85.02,1.86.19,2.74.56s1.67.93,2.34,1.6c.63.66,1.91,2.71,1.46,4.37.37.16,1.07.41,2.11.73,1.52.48,3.79,1.23,5.88,1.99.36.16.79.17,1.1-.26.25-.5.58-1.05.78-1.52.56-1.31.81-2.72.02-4.3l-.73-1.52c-.2-.43-.38-.72-.38-.72-.27-.68.09-1.43.45-1.75.48-.31,1.23-.16,1.87.37,1.04,1,1.82,3.11,2.24,4.36.03.14.15.45.17.51.13.4.17,1.54.06,1.88-.54,1.58-1.35,3.57-2.14,5.43-.72,1.68-1.51,3.45-2.3,5.19-.77,1.7-1.75,3.91-2.45,5.55-.05.11-.15.24-.21.39-.48.92-1.23,2.28-2.56,2.36-.23.03-1.02-.13-1.28-.24-1.24-.53-.96-1.19-.59-1.76ZM181.77,48.3c-.16.36-.29.78-.35,1.23-.09,1.13.75,2.48,1.8,2.45,1.6.08,3.94-.04,5.32-1.66.3-.39.75-1.15,1.12-2.02.31-.73.54-1.58.57-2.35-.01-.78-.21-1.73-.86-2.13-1.09-.68-2.24-.52-3.78.46-1.59,1-3.13,2.38-3.83,4.02Z"/><path class="cls-4" d="M201.19,67.63c-.31-.31-.19-.83.25-1.18.28-.34.86-.98,1.26-.97.45.01,2.11,1.38,2.41,1.63l3.49,2.88c.06.05.3.2.5-.05.75-1.03,1.59-1.93,1.77-3.33.03-.23-.14-2.02-.02-2.54l.35-.43c.23-.28,2.01-.5,2.13-.4.12.1.3.2.41.5.39,1.15.38,2.16.16,3.11-.43,1.96-.88,3.5-2.4,5.22-.16.13-.12.26.12.41.78.49.89.73,1.59,1.31.24.2.98.55,1.32.27,1.51-1.33,3.46-3.01,4.54-4.44.27-.39.23-1.46.72-1.56,1.08-.19,1.91-.07,2.69,1.04.22.29.35,1.01-.07,1.64-.42.63-2.87,3.29-3.35,3.87-.35.43-1.84,1.11-2.05,1.49-.13.15-.08.6-.08.6.34.28,3.09,1.62,5.37,2.78.18.1.7.21.98.19,0,0,.88.11.9.59.02.22-.3,1.55-.3,1.55-.24.73-1.35,1.2-2.09.85-3.07-1.45-8.28-4.87-8.37-4.95-1.01-.83-3.19-2.43-4.36-3.44-2.37-2.11-5.38-4.39-7.88-6.66ZM223.66,52.68c.99.05,3.45,1.92,4.46,3.01.66.7,1.48,3.95,1.22,5.38-.15.8-1.07,2.36-2.77,3.48-1.11.73-2.66,1.35-4.12,1.44-.56.05-3.73-.71-4.92-1.95-2.06-2.37-2.48-4.67-1.11-7.5.67-1.25,1.32-2.1,2.15-2.6,1.09-.64,3.91-1.3,5.1-1.25ZM219.23,58.23c-.78,2.13-.62,2.68,1.11,4.26.49.4,1.92.61,3.41.24.87-.36,2.37-1.19,2.57-1.68.49-1.09.18-2.58-.22-3.22-.33-.48-1.36-1.84-2.6-2.15-.35-.08-2.42.06-2.99.57-.58.45-1.02,1.11-1.28,1.98Z"/><path class="cls-4" d="M226.47,93.08c-.43.68-1.29,1.19-1.92,1.67-1.45,1.11-3.3-.97-3.85-2.14-.2-.39.02-1.47.32-1.8.72-.75,1.37-1.41,2.54-1.71.58-.15,1.8.26,2.98,1.86.51.66.38,1.41-.08,2.11ZM231.46,83.69c.47-.36,2.81-1.56,3.21-1.87.88-.68,5.5-4.83,6.38-5.51l5.72-4.4c.44-.34,1.23-.29,1.57.15l.8,1.04c.44.57.14,1.29-.27,1.61l-16.5,12.65c-.37.43-1.14.28-1.5-.2l-.48-.63c-.46-.6-.81-1.38-.21-1.84l1.29-.99Z"/><path class="cls-2" d="M149.96,253.01l6.81-3.19c1.71-.8,3.64.6,3.41,2.47l-.93,7.46,5.14,5.49c1.29,1.38.56,3.65-1.3,4l-7.38,1.42-3.63,6.58c-.91,1.66-3.3,1.66-4.21,0l-3.63-6.58-7.38-1.42c-1.86-.36-2.59-2.62-1.3-4l5.14-5.49-.93-7.46c-.23-1.88,1.69-3.28,3.41-2.47l6.81,3.19Z"/><path class="cls-2" d="M96.15,238.59l7.49.64c1.89.16,2.85,2.34,1.71,3.85l-4.54,5.99,1.71,7.32c.43,1.84-1.34,3.44-3.13,2.82l-7.1-2.46-6.44,3.89c-1.62.98-3.68-.21-3.65-2.1l.15-7.52-5.68-4.92c-1.43-1.24-.94-3.57.88-4.12l7.19-2.18,2.92-6.93c.74-1.74,3.1-1.99,4.19-.44l4.3,6.17Z"/><path class="cls-2" d="M56.76,199.2l6.17,4.3c1.55,1.08,1.3,3.45-.44,4.19l-6.93,2.92-2.18,7.19c-.55,1.81-2.88,2.31-4.12.88l-4.92-5.68-7.52.15c-1.89.04-3.08-2.03-2.1-3.65l3.89-6.44-2.46-7.1c-.62-1.79.97-3.56,2.82-3.13l7.32,1.71,5.99-4.54c1.51-1.14,3.69-.17,3.85,1.71l.64,7.49Z"/><path class="cls-2" d="M203.76,238.59l4.3-6.17c1.08-1.55,3.45-1.3,4.19.44l2.92,6.93,7.19,2.18c1.81.55,2.31,2.88.88,4.12l-5.68,4.92.15,7.52c.04,1.89-2.03,3.08-3.65,2.1l-6.44-3.89-7.1,2.46c-1.79.62-3.56-.97-3.13-2.82l1.71-7.32-4.54-5.99c-1.14-1.51-.17-3.69,1.71-3.85l7.49-.64Z"/><path class="cls-2" d="M243.15,199.2l.64-7.49c.16-1.89,2.34-2.85,3.85-1.71l5.99,4.54,7.32-1.71c1.84-.43,3.44,1.34,2.82,3.13l-2.46,7.1,3.89,6.44c.98,1.62-.21,3.68-2.1,3.65l-7.52-.15-4.92,5.68c-1.24,1.43-3.57.94-4.12-.88l-2.18-7.19-6.93-2.92c-1.74-.74-1.99-3.1-.44-4.19l6.17-4.3Z"/><path class="cls-2" d="M136.37,125.42c1.68,1.05,3.35,2.13,4.92,3.32.8.61,1.61,1.2,2.22,2.01.71.95,1.4,1.92,2.08,2.88.5.7,1.18,1.42,1.55,2.2.32.67.53,1.34.92,1.99.89,1.49,1.97,2.86,2.75,4.41.04.08.08.16.15.2.19.11.4-.1.51-.29,1.88-2.93,3.76-5.86,5.63-8.79,1.61-2.51,3.9-4.4,6.61-5.67-.49-.73-.8-1.78-1.17-2.59-.38-.86-.75-1.72-1.1-2.59-.77-1.92-1.46-3.86-2.08-5.83-1.31-4.19-2.31-8.52-2.67-12.9-.33-3.98-.16-8.17,1.35-11.91.53-1.31,1.22-2.55,2.1-3.65.44-.54.91-1.05,1.43-1.52.39-.35,1.19-1.23,1.71-1.31,15.18-2.26,18.5,23.9,18.51,35.35,10.42-1.79,20.96.59,29.8,5.31,15.16-43.05,56.01-19.13,16.33,10.39-5.73,1.68-2.92,3.44-1.33,7.56,3.81,8.64,3.63,19.29.66,28,2.26-.62,4.51-.11,5.74,2.01,2.88-.44,6.44,1.41,6.66,4.69-.07.73-.13,1.47-.17,2.21-.08,1.6.07,3.21-.04,4.81-.07.96-.46,1.61-1.3,2.09-.63.36-1.32.62-1.99.88-1.33.51-2.45,1.26-3.52,2.2-1.44,1.27-2.82,2.65-4.56,3.46-.3.14-.43.36-.69.54-.24.16-.49.32-.74.48-.51.32-1.03.64-1.55.95-1.05.61-2.12,1.19-3.21,1.73-1.84.91-3.8,1.85-5.83,2.26-.45.09-1.13.25-1.56-.02-.4-.25-.22-.75-.05-1.09,5.67-3.51,13.13-6.67,17.71-11.56,1.42-.55,3.36-.21,4.61-1.59.37-.61.65-1.24.77-1.95.09-.48.1-.99-.06-1.45s-.51-.88-.98-1.02c.91-1.61,1.15-3.76-.39-5.07-.51-.44-1.16-.64-1.82-.69-.2-.01-2.06.18-2.06.19-.83-1.61-3.89-3.21-5.2-.87,0,3.45-2.45,2.76-4.56,4.33-3.36,7.5-13.13,15.62-21.41,16.3-1.03,1.05-.11,2.11-2.07,2.97,2.39,5.51-5.03,7.84-8.92,4.71-3.35-2.76-6.55-4.91-10.66-4.46-4.92,1.95-21.05,2.38-13.29-6.26.44-2.09-1.28-1.61-2.32-2.11-3.6-1.75-6.52-4.63-9.12-7.61-8.8-17.64-1.45,4.99-28.41,15.14-13.29,3.58-32.74,3.39-42.56-7.41-1.97-1.58-2.03-.77-4.06-1.11-3.26-.45-5.09-2.43-7.63-4.37-.99-1.73-3.09,1.16-2.61,1.86-.07.07-1.45,0-2.02.12-2.78.65-2.44,3.15-1,5.07.19.26-.63.66-.76.77-.31.27-.52.66-.59,1.06-.08.49.04,1.01.33,1.41.57.77,1.29,1.22,2.26,1.29.43.03.86,0,1.28-.08.19-.03.38-.07.57-.12.07-.02.44-.17.49-.14,2.45,1.51,5.04,3.12,7.95,3.69,4.45,1.45,9.85,2.3,14.17,3.5.48,2.01-.64,2.03-2.38,1.87-6.67-.81-13.98-4.12-20-6.77-5.38.61-6.87-2.85-6.14-7.75-.77-3.11,1.65-5.44,4.5-5.76.19-.68,1.24-1.87,2.01-2.2,4.43-.63,5.63,5.33,9.8,4.79,1.6.16-.43-1.28-.66-1.88-3.02-4.23-4.14-9.84-5.81-14.39-.99-5.8-.34-11.78,1.44-17.4,1.35-2.79-2.87-1.25-4.42-6.63-.14-1.55-.03-3.22-.55-4.71-.56-1.61-2.07-2.39-3.13-3.63-1.97-2.29-3.94-4.59-5.67-7.07-.15-.22-.3-.44-.46-.65-.76-1.01-1.73-1.87-2.35-2.98-.42-.76-.85-1.46-1.19-2.27-1.22-2.92-1.91-6.13-1.92-9.3-.01-2.78.51-5.86,2.41-8.02,2.13-2.42,5.44-2.72,8.43-2.14,6.9,2.03,13.67,8.33,17.26,14.36,0,0,3.57,7.37,3.57,7.37,1.03-.76,1.97-1.62,3.27-1.87.37-.07.76-.1,1.14-.13,1.37-.1,3.51-.1,4.53.99,2.2-1.28,4.67-1.95,7.13-2.56.92-.23,1.84-.45,2.75-.69.92-.25,1.86-.38,2.8-.47.48-.05.96-.08,1.44-.12.61-.06,1.23.07,1.82-.03.43-.07.89-.01,1.32-.03.75-.03,1.73-.12,2.17-.81.1-.16.17-.35.2-.54.04-.25.02-.5-.02-.75-.06-.31-.26-.64-.29-.94-.37-3.93.06-8.01,1.3-11.76.92-2.77,2.42-6.11,5.04-7.64,1.7-.99,3.62-1.52,5.53-2.03,2.25-.6,4.62-.85,6.95-.97s4.48,0,6.69.39c3.72.66,7.3,2.1,10.36,4.32,1.43,1.2,2.3,2.96,2.65,4.77s.19,3.69-.51,5.37c-.34.82-.82,1.58-1.43,2.22-.78.81-1.9,1.32-2.85,1.92-.59.37-1.18.74-1.83,1.01-.24.1-.48.19-.73.26-2.09.61-4.35.44-6.5.39-.86-.02-2.05-.17-2.83.29-.63.37-.67,1.16-.69,1.82-.02.61.01,1.22.03,1.84.01.4.02.81.03,1.21,0,.17-.09,1.3.02,1.37ZM169.35,88.27c-13-5.01-10.83,14.57-9.18,22.18,1.13,6.88,5.27,11.44,6.26,17.71-6.77,3.91-15.02,13.02-13.96,20.8.89,7.12,2.72,16.37-.96,22.71-.04.21.88,3.81,1.04,4.18.21.49.64.96.94,1.39s.62.9.93,1.34c.56.8,1.13,1.58,1.72,2.36.93,1.22,1.9,2.42,2.95,3.54,1.2,1.28,2.6,2.66,4.3,3.26.98.34,1.97.3,2.91-.13.87-.39,1.61-1,2.42-1.49.86-.52,1.81-.87,2.83-.8,1.54.1,2.95,1,4.12,1.93,1.04.82,2.02,1.67,2.97,2.6.42.42.86.84,1.11,1.38.16.35.25.74.49,1.04.03.04.07.08.12.1.06.02.13,0,.19-.03,1.28-.51,2.86-.11,3.73.96.13.16,1.27-.57,1.45-.66.56-.26,1.15-.46,1.73-.67,1.19-.42,2.35-.91,3.54-1.3.62-.2,1.27-.27,1.92-.33.42-.04.9-.16,1.32-.12.31.03.63.16.93.22.72.15,1.42.38,2.09.69s1.25.68,1.8,1.13c.28.23.55.49.79.76.14.15.65.62.65.83,12.53-2.15,22.26-15.65,25.44-27.1,2.62-10.51.04-17.03-2.6-25.81-.53-1.22-3.05-2.73-.77-4.45,2.04-1.53,4.35-2.66,6.45-4.29,3.73-2.65,7.65-7.74,10.34-11.94,5.15-6.69,4.74-17.03-5.86-15.69-16,4.1-19.57,29.09-23.08,23.74-8.28-4.33-17.9-7.38-27.47-6.07-4.23,1.76-4.09-.96-3.93-4.41-.23-4.43-1.68-8.85-1.51-13.1-1.88-6-3.7-12.37-8.18-16.49ZM133.34,117.46c.05,1.63.04,5.1-.62,6.58-2.51.24-7.44,1.01-8.74-1.39-.54-3.41.5-8.14.01-11,6.71,1.63,12.79,7.15,20.76,4.47,4.82-1.74,7.88-4.25,6.01-9.34-6.18-7.49-19.32-7.5-28.18-4.11-5.76,4.48-5.75,13.21-5.17,19.99.06.51.58.26.55.73-.16,1.98-1.19,2.04-2.93,1.9-6.48.41-12.44,1.51-18.03,3.55-.16.17,1.02,4.19,1.23,4.4,3.36.35,7.65,4.84,5.33,8.16-1.76,4.01-7.51,3.96-11.46,3.32-.44-1.14-2.26-.25-1.95.85,2.43,4.6-2.89,13.49-8.66,12.02-2.59-1.05-3.07-7.17-5.08-1.73-8.68,37.38,36.58,55.68,62.16,31.55,17.29-13.61,16.28-44.98-.8-58.49-7.89-1.79.07-9.81-4.45-11.47ZM85.35,134.89c.04-1.71-.4-3.43-.9-5.05-.83-2.67-2-5.26-3.45-7.65-1.58-2.61-3.68-4.7-5.86-6.81-1.07-1.04-2.2-2.34-3.45-3.15-3.02-1.95-7.04-3.79-10.71-2.74-4.25,1.21-4.53,5.93-3.91,9.6.98,5.8,5.24,10.87,8.85,15.29.9,1.1,1.77,2.29,2.75,3.32s1.76,2.22,3.08,2.98c.75.42,1.01.21,1.69-.09.32-.14.74-.21.93-.55.61-1.06-1.29-1.41-1.72-1.88-22.55-24.83,2.11-27.1,12.69-3.27ZM125.76,115.32c-.29,1.8-.06,4.74.8,6.65,4.48.78,4.62,1.07,5.03-3.89-.04-.57-.07-1.09-.63-1.38-.26-.14-.55-.2-.83-.27-.99-.25-1.94-.63-2.83-1.13-.22-.13-.45-.26-.7-.32-.33-.08-.71,0-.84.34ZM70.34,121.11c-12.48-4.79,3.65,20.39,9.58,18.05,8.96-.25-5.25-16.43-9.58-18.05ZM93.58,128.94c-5.51-4.63-8.73,11.77-3.1,7.04.69-.48,2.5-1,3.2-.84.52,2.32-2.58,2.76-3,4.77,2.04,3.55,12.16,3.22,10.16-1.57-.28-.71-.09-.97-.92-1.5-7.4-1.22-2.23-4.06-6.35-7.9ZM86.78,138.78c-1.12-1.02-2.34.4-2.87,1.28-.06.66,1.72,2.83,2.31,3.17,4.71.87,2.85-2.91.56-4.46ZM82.77,143.42c1.25-5.2-6.79-1.85-8.96-.62-3.33,2.25.79,8.03,3.85,8.49,1.03.16,2.41-.41,3.05.6.06.54.43,1.47.67,1.86,1.68,2.72,4.7-.27,5.91-2,.44-1.73.75-3.29.59-5.33-.09-.39-1.9-.55-2.34-.69-1.81-2.48-3.11,3.45-5.01,1.93-1.12-1,1.28-3.8,2.23-4.23ZM174.41,188.78c-1.05-.88-2.53-1.53-3.9-1.05-.61.21-1.11.64-1.47,1.18s-.9,1.66-.57,2.29c.07.14.19.25.3.36.09.09.18.17.27.26.22.21.44.43.52.72.04.16.03.34,0,.5-.14,1.12-.7,2.02-1.97,1.73-3.17,4.96,7.89,3.76,10.42,2.01.14-.85-1.05-.89-1.3-1.03-1.82-1.12-2.65-1.22-4.47-2.02.09-3.32,5.2.25,6.78.27.36-1.69-3.53-4.26-4.64-5.21ZM195.13,192.8c-1.76-.44-8.25.49-8.76,2.44,3.98-.34,8.47,3.06,1.65,2.27-.28.01-1.36.15-1.14.64,2.51,1.69,5.52,4.37,8.77,4.09.36-.03.8-.68.9-.99.12-.36.07-.73-.03-1.08-.18-.62-1.02-1.76-.68-2.34.49-.85,2.76-1.4,2.45-2.69-.11-.47-.63-.8-1-1.06-.32-.21-.65-.41-.98-.6s-.79-.59-1.17-.68ZM183.27,193.81c-2.16-.9-2.88,1.82-2.22,3.6,0,0,2.43-.13,2.43-.13.09-.82.82-3.15-.21-3.47Z"/><path class="cls-2" d="M73.16,189.02c.98.58,1.86,1.57,1.69,2.78-.11.78-.63,1.43-1.28,1.84-.83.53-1.99.78-2.9.29-.61-.32-.72-.88-.77-1.51-.04-.5-.05-1.02.01-1.52.08-.67.29-1.4.86-1.81.29-.2.63-.29.98-.31.41-.02,1.04.03,1.41.24Z"/><path class="cls-2" d="M232.27,178.66c.34.11,1.03,1.64,1.09,2.06.16,1.22-.36,1.04-.43,1.22-.12.29-.05.67-.17.85-.28.4-1.36,1.07-1.84,1.09-.1,0-1.73-.52-1.81-.57-.59-.41-.75-3-.49-3.66.03-.07,1.04-1.05,1.12-1.06.5-.1,2.04-.09,2.53.07Z"/><path class="cls-2" d="M69.3,195.16c-.03.09-.07.18-.12.26-.19.25-.6.3-.89.35-.39.06-1.03.12-1.3-.25-.04-.06-.07-.12-.09-.19-.15-.46-.02-.99.31-1.34.26-.27.65-.42,1.03-.4.48.02.84.27,1,.72.09.24.13.57.06.84Z"/><path class="cls-2" d="M233.66,183.69c.47-.54,2.04-.46,2.37.22.06.13.07.29.06.44-.08.83-1.28,1.92-2.09,1.35-.56-.4-.81-1.45-.34-2Z"/><path class="cls-2" d="M68.69,190.42s-.07.06-.11.09c-.07.06-.15.11-.23.15-.38.18-.99.05-1.32-.2-.37-.28-.43-.72-.22-1.12.24-.46.79-.88,1.32-.86.27.01.5.16.64.39.19.31.33.91.16,1.25-.06.11-.14.21-.24.29Z"/><path class="cls-2" d="M235.61,177.58c.41.64.33,1.66-.44,1.81-.91.17-1.59-.63-1.47-1.51.02-.13.05-.26.13-.37.07-.1.17-.18.27-.24.69-.4,1.23-.14,1.52.31Z"/><path class="cls-2" d="M230.75,176.51s-.58.54-.62.55c-2.38.48-1.82-2.71.58-1.27.2.23.13.46.04.72Z"/><path class="cls-2" d="M70.89,186.44c1.37-.38,1.9,1.55.41,1.67-1.15.1-1.52-1.37-.41-1.67Z"/><path class="cls-2" d="M236.05,111.23c.19.12.37.27.53.44.39.43.6.99.67,1.56.09.7,0,1.42-.16,2.11-.2.86-.5,1.7-.86,2.51-.42.95-.91,1.87-1.43,2.76-.58.98-1.22,1.94-1.89,2.87s-1.44,1.91-2.21,2.82-1.57,1.79-2.41,2.63c-.8.8-1.62,1.57-2.49,2.3-.78.65-1.59,1.26-2.44,1.81-.4.26-.76.51-1.21.67s-.94.29-1.43.36c-.96.14-1.95.08-2.89-.18-.23-.06-.47-.14-.66-.31-.16-.14-.26-.33-.36-.52-.26-.48-.44-1-.68-1.49-.18-.38-.37-.76-.45-1.17-.09-.46-.06-.94.02-1.41.12-.79.5-1.52.82-2.24s.66-1.43,1.02-2.14c.77-1.51,1.61-2.97,2.55-4.38s2.01-2.8,3.18-4.06,2.37-2.32,3.76-3.22c1.31-.85,2.75-1.51,4.28-1.83s3.19-.3,4.74.09ZM234.29,113c-1.78.08-3.51.61-5.08,1.42s-3.13,1.99-4.45,3.28-2.54,2.83-3.56,4.43-1.8,3.15-2.42,4.85c-.44,1.2-.98,2.45-.5,3.73.27.71,1.06.8,1.71.68.77-.14,1.5-.53,2.17-.93.91-.55,1.75-1.21,2.56-1.9.95-.81,1.85-1.68,2.71-2.58.91-.95,1.78-1.94,2.6-2.96s1.55-2,2.24-3.06c.61-.92,1.17-1.87,1.64-2.87.35-.76.67-1.56.78-2.39.07-.55.05-1.18-.33-1.62-.02-.03-.05-.05-.07-.08Z"/><path class="cls-2" d="M168.38,95.31c6.06,7,5.74,18.49,6.86,27.61-6.56,9.99-9.38-9.18-10.59-14.12-1.3-3.8-3.48-15.4,3.73-13.48ZM171,123.49c.59.36,1.62-.34,1.5-1.09-.09-35.28-14.65-31.38-1.5,1.09Z"/><path class="cls-2" d="M180.24,164.26c3.19,1.48,4.41.47,7.76.94,3.13.78,6.3,3.42,9.82,3.01.7.76.73,2.31-.46,2.79-.29,2.43-2.92,5.74-4.87,7.31-7.92,5.53-17.61-3.75-13.92-12.24-1.38-1.44-.24-2.37,1.67-1.81ZM187.31,167.55c-1.61-.37-5.06.18-6.76-.47-1.04,3.23.76,8.71,4.01,9.45,4.1,1.88,9.14-1.2,9.89-5.42-.05-1.14-1.81-1.01-2.33-1.18-1.55-.5-3.45-1.76-4.81-2.38Z"/><path class="cls-2" d="M160.52,155.95c.07.02.1.3.29.38,2.7,1.04,5.42,2.18,8.09,3.35l.04,1.48c-.77.04-1.52,0-2.29-.11-1.4-.21-5.15-1.41-6.46-2-.1-.05-1.57-1.01-1.62-1.09-.32-.54-.25-1.32-.25-1.93.55-.63,1.52-.31,2.19-.07Z"/><path class="cls-2" d="M210.54,176.14c.43.14,2.82,1.95,3.45,2.35.25.15.59.03.83.18.94.58.52,1.72.59,2.69-.66-.08-1.47.12-2.09-.01-.11-.02-1.57-1.27-1.79-1.41-1.09-.66-2.89-1.45-3.84-2.22-.81-.66-1.21-1.94-2.37-1.93l.28-1.22c.92-.58,2.71,1.24,3.43,1.42.51.13,1-.03,1.51.14Z"/><path class="cls-2" d="M218.94,170.76v2.26c-1.61.32-2.98-.56-4.47-.95-1.15-.31-2.69-.36-3.53-1.06l-3.57-.55-.31-1.07c.14-.9,4.86.05,5.69-.14l6.19,1.51Z"/><path class="cls-2" d="M167.81,164.69c.56.16.74,1.24.63,1.77-1.46-.33-2.61.39-3.9.52-2.42.25-5.25-.21-7.72-.01v-2.27h10.99Z"/><path class="cls-2" d="M177.14,154.54c.19.11.34.25.44.43.69,1.29.82,5.08-.98,5.63-3.21.99-3.39-2.72-2.62-4.89.25-.7.66-1.28,1.43-1.41.49-.08,1.22-.05,1.73.24Z"/><path class="cls-2" d="M204.99,161.23c.37.39.66,1.77.6,2.34-.02.16-1.37,2.11-1.64,2.28-.86.54-2.27,1.16-3.02.12s-.34-2.68.18-3.72c.39-.79.94-1.07,1.78-1.24.59-.12,1.64-.28,2.11.22Z"/><path class="cls-2" d="M127.72,171.82c.17.41.27.85.28,1.29.12,3.04-3.28,5.04-5.79,5.82-1.43.44-3,.65-4.48.33-.63-.14-1.25-.38-1.76-.78s-1.22-1.18-1.07-1.88c.05-.21.23-.36.44-.43.36-.12.74-.02,1.09.09.64.2,1.24.49,1.88.7,1.28.41,2.51.1,3.73-.42.83-.35,1.6-.76,2.32-1.32.55-.43.76-1.15,1.01-1.78.44-1.1.96-2.45,2.34-1.61Z"/><path class="cls-2" d="M146.2,160.64l-8.71,2.27c-1.28.3-2.53-.2-1.64-1.58.28-.44,6.1-2.19,7.02-2.38s1.82.04,2.73-.57l.58.42.03,1.84Z"/><path class="cls-2" d="M98.99,178.07c.32,1.69-1.22,2.4-2.36,3.2-1.03.71-2.32,1.5-3.37,2.19-.44.29-1.29,1.94-2.38.57-1.59-2,3.04-3.83,4.22-4.55.31-.19,1.4-1.31,1.79-1.4.59-.14,1.45.08,2.1,0Z"/><path class="cls-2" d="M106.01,168.22c.61.23,1.17.64,1.59,1.14.27.32.51.68.64,1.09.21.66.1,1.41-.24,2.01-1.15,2.03-3.53,2.5-4.51.15-.51-1.23-.86-4.06.91-4.51.54-.14,1.09-.08,1.61.12Z"/><path class="cls-2" d="M145.71,167.21v2.27h-8.21c-.06,0-.68-.64-1.1-.54l-.04-1.73h9.34Z"/><path class="cls-2" d="M103.03,182.37c-.06.58.11,1.29,0,1.84-.04.17-.37.2-.47.39-.87,1.7-1.73,2.93-2.94,4.32-.75.87-2.56,2.32-2.89.38-.26-1.56.54-1.06,1.02-1.56.71-.72,1.76-2.77,2.43-3.55s1.7-1.86,2.86-1.83Z"/><path class="cls-2" d="M128.25,159.26c.04-.05.09-.1.13-.14.65-.58,1.71-.5,2.42,0s1.11,1.35,1.31,2.2c.09.39.14.81.05,1.2-.48,1.95-4.05,2.52-4.84.52-.28-.72-.14-1.54.14-2.25.16-.4.47-1.14.79-1.53Z"/></g></svg>