<?xml version="1.0" encoding="UTF-8"?><svg xmlns="http://www.w3.org/2000/svg" viewBox="0 0 300 300"><defs><style>.cls-1{fill:#becbf4;}.cls-2{fill:#dce6ff;}.cls-3,.cls-4{fill:#fff;}.cls-4{fill-rule:evenodd;}.cls-5{fill:none;}.cls-6{stroke:#5f6da8;stroke-miterlimit:10;stroke-width:2px;}.cls-6,.cls-7{fill:#5f6da8;}.cls-8{fill:#d86b21;}.cls-9{opacity:.7;}</style></defs><g id="base"><rect class="cls-5" width="300" height="300"/></g><g id="_레이어_2"><g class="cls-9"><circle class="cls-3" cx="150" cy="150" r="150"/></g><path class="cls-6" d="M46.62,66.59c1.42-1.33,4.13,1.2,2.31,2.91l-8.26,8,14.16,15.58c.55.58,1.27,1.07,1.68.41,2.09-2.09,5.4-6.08,7.63-9.26.85-1.07,1.28-1.2,2.21-.63,1.95.77,1.46,1.85.83,2.72-2.25,3.89-5.64,7.81-9.37,11.57-1.64,1.54-3.06,1.7-4.81-.16l-16.97-18.15c-.74-1.09-1.12-1.49-.35-2.35l10.93-10.63ZM62.44,69.24l3.12-3.33c.95-.89,1.82-.61,2.44.05.58.62,1.14,1.81.23,2.66l-3.19,3.39,10.72,11.61c1.6,1.86-1.47,4.73-2.87,3.23l-22.09-23.77c-1.02-1.1.11-2.15.87-2.73.87-.54,1.76-.83,2.75.23l8.02,8.65Z"/><path class="cls-6" d="M96.27,64.57c1.18.62,1.71,1.64.93,3.07-.54,1.13-1.54,2.33-2.52,1.66-2.52-1.78-7.76-4.45-11.9-5.89.54,5.87-.12,10.51-1.15,13.82-.44,1.42-1.93,1.92-3.19,1.45-1.06-.52-1.15-.69-.91-1.73,1.97-7.76,1.36-17.09-4.12-29.02-.31-.8.65-2.09,1.67-2.52,1.29-.45,2.32-.2,2.76.64,2.13,4.7,3.43,9.1,4.18,13,4.92.97,11.22,3.94,14.25,5.51ZM86.48,40.34c-.7-1.33.72-2.07,1.61-2.42.98-.29,1.92-.33,2.59.95l14.43,27.89c1.05,2.21-2.67,4.17-3.62,2.35l-15-28.78Z"/><path class="cls-6" d="M125.63,33.67c2.13-.31,2.92,3.01.48,3.26l-13.38,2.17c-.94.14-1.13-.49-1.31-1.68-.15-1.04-.13-1.55.8-1.79l13.41-1.98ZM113.68,27.35l11.45.18c1.12.04,1.3.62,1.11,2.01-.32,1.26-.72,1.32-1.85,1.49l-11.3-.2c-1.29-.21-1.38-.81-1.12-1.76.09-.77.73-1.57,1.72-1.72ZM114.11,52.91c-1.5-5.39-.03-10.15,4.86-11.63,5.36-1.7,9.27,1.16,10.56,6.13,1.4,5.4.05,10.25-5.12,11.88-5.37,1.6-9.13-1.58-10.29-6.37ZM123.13,56.13c2.65-.9,2.95-3.97,2.18-7.5-.9-3.36-2.94-5.23-5.2-4.39-2.73,1.01-2.97,3.87-2,7.67.88,2.85,2.72,5.06,5.02,4.21ZM136.08,41.48l4.97-.93-1.93-13.77c-.22-1.48.92-1.65,2.02-1.71.87.07,1.92.32,2.13,1.76l4.38,31.1c.26,2.44-3.6,3.01-3.9.98l-2.2-14.94-4.97.93,1.8,12.93c.27,2.54-3.59,3.11-3.88,1.08l-4.37-30.34c-.23-1.53,1.01-1.72,2.01-1.76.97.06,1.92.32,2.13,1.76l1.8,12.93Z"/><path class="cls-6" d="M175.46,49.86l-1.17,6.85,8.5,1.3c2.22.38,1.79,4.06-.82,3.61l-21.15-2.96c-1.63-.28-1.63-.84-1.63-2.05.14-.84.36-2.12,1.81-1.97l8.91,1.32,1.01-6.83-7.11-1.11c-2.27-.39-2.51-.73-2.18-3.26l2.76-17.33c.16-.94.92-1.21,2.25-.99,1.23.21,2.17.67,1.96,1.91l-.95,6.18,15.03,2.26.94-6.08c.19-1.13,1-1.4,1.99-1.23,1.33.23,2.54.84,2.27,2.47l-3.01,17.59c-.21,1.23-2.13,1.51-3.22,1.33l-6.17-1ZM166.91,38.15l-.95,5.57c-.12.69.6.92.9.97l14.08,2.2,1.09-6.36-15.12-2.38Z"/><path class="cls-6" d="M203.38,64.79c.04,1.23-.35,2.32-1.86,2.61-1.18.29-2.62.07-2.5-1.15.28-2.9.12-7.7-.6-11.99-3.78,4.04-7.46,6.42-10.56,8.03-1.34.65-2.42-.23-2.82-1.52-.28-1.06-.11-1.2.81-1.77,6.97-4.17,12.86-10.05,18.87-21.71.35-.77,2.05-.76,2.92-.25,1.14.75,1.31,1.59.91,2.45-2.33,4.6-4.8,8.3-7.11,11.31,1.46,4.96,1.83,11.12,1.95,13.98ZM211.61,54.75l-4.77-2.19c-1.04-.37-.66-.96-.33-1.69.44-.96.95-1.82,2.04-1.32l4.63,2.01,4.02-8.77c.65-1.41,1.78-.89,2.65-.38.69.54,1.43,1.32.83,2.63l-12.59,26.73c-1.15,2.28-4.61.69-3.75-1.17l7.27-15.86ZM224.57,45.68c.63-1.36,1.76-.84,2.72-.29.69.54,1.43,1.32.83,2.63l-13.27,28.45c-1.11,2.19-4.75.52-3.89-1.34l13.62-29.45Z"/><path class="cls-6" d="M230.67,62.54c3.78-4.59,10.55-6.99,17.13-2.08,6.12,4.52,7.67,11.37,3.57,16.35-2.79,3.47-5.98,4.98-9.38,4.78-.08.26-.2.55-.42.82l-5.29,5.88,2.53,1.96c1.74,1.43-.46,4.41-2.51,2.73l-16.81-13.01c-1.27-1.05-1-1.54-.39-2.59.54-.66,1.37-1.66,2.55-.81l2.2,1.81,4.88-6.54c.09-.12.19-.23.32-.32-1.12-3.2-.48-6.42,1.62-8.97ZM231.32,75.51l-4.18,5.3-.06.08,6.19,4.91,4.42-5.36c-.89-.41-1.84-1-2.75-1.62-1.48-1.03-2.69-2.16-3.62-3.31ZM237,75.85c4.19,2.94,8.19,1.31,10.73-1.78,2.77-3.68,1.98-7.83-1.92-10.72-4.26-3.25-8.59-1.37-11.19,1.79-2.72,3.46-2.24,7.75,2.38,10.71Z"/><path class="cls-6" d="M238.16,101.04c-1.29-1.46-1.15-3.79.31-5.08,1.54-1.36,3.94-1.28,5.23.18,1.36,1.54,1.21,4.01-.33,5.36-1.46,1.29-3.86,1.08-5.21-.46Z"/><path class="cls-3" d="M169.4,91.66s16.45-12.89,22.09-5.9c5.64,7,5.9,25.4,5.9,25.4"/><path class="cls-2" d="M178.01,94.45c4.77-2.89,9.92-7.13,12.18-1.19l2.06,10.84"/><path class="cls-7" d="M197.39,112.78c-.88,0-1.6-.71-1.61-1.59,0-.18-.31-17.93-5.54-24.41-3.79-4.69-15.9,3.06-19.85,6.15-.7.55-1.71.43-2.26-.27-.55-.7-.43-1.71.27-2.26,1.81-1.42,17.88-13.64,24.34-5.64,5.92,7.34,6.24,25.62,6.25,26.39.01.89-.7,1.62-1.59,1.63h-.02Z"/><path class="cls-7" d="M177.33,93.32c2.54-1.89,5.31-3.94,8.65-4.22,2.47-.18,4.28,1.78,4.22,4.16-1.72-2-2.95-2.44-5.33-1.2-2.05,1.04-4,2.52-6.18,3.52-.67.3-1.45,0-1.76-.66-.26-.57-.08-1.23.39-1.59h0Z"/><path class="cls-3" d="M211.28,266.14c-9.34-2.23-18.99-4.56-35.51-1.57l20.49-36.06s21.14-8.16,21.14,15.47c0,0,3.59-7,11.07-3.07s2.32,14.31,0,21.08c-3.35,9.77-17.18,4.15-17.18,4.15Z"/><path class="cls-2" d="M212.79,260.67s11.71,3.17,16.88-8.97c0,0-3.25,14.32-7.78,15.25-4.53.93-11.36-.99-11.53-1.03l2.42-5.25Z"/><path class="cls-3" d="M217.39,243.98l-4.6,16.69-1.51,5.47c-12.01,0-18.99-4.56-35.51-1.57h0l18.35-32.29,2.14-3.77s.46-.18,1.24-.41c.35-.1.76-.21,1.22-.32,1.8-.43,4.37-.82,7.04-.55,5.62.57,11.64,4.13,11.64,16.74Z"/><path class="cls-2" d="M212.79,260.67l-1.51,5.47c-12.01,0-18.99-4.56-35.51-1.57h0c-9.31,2.58-21.67,3.1-37.33,1.39l-7.2-23.08s-3.87-6.24-9.43-11.71c2.9,2.6,12.37,9.8,28.48,10.27,16.65.49,37.72-6.88,43.83-9.15,1.11-.42,1.73-.67,1.73-.67l1.81-2.41,1.07-1.42,1.71-2.27,5.33,1.72,3.93,1.27s-11.74,15.51-11.36,24.23c.21,4.81,7.25,7.48,14.46,7.93Z"/><path class="cls-7" d="M219.42,269.27c-4.09,0-7.88-1.39-8.6-1.67h-.02c-9.16-2.19-18.63-4.45-34.76-1.53l-3.2.58,22.36-39.36.51-.2c.4-.16,9.96-3.76,16.81.93,3.5,2.4,5.58,6.46,6.21,12.1.78-.62,1.73-1.19,2.86-1.55,2.37-.75,4.92-.42,7.59.99,7.71,4.05,4.24,13.4,1.71,20.22-.35.95-.69,1.85-.98,2.7-.93,2.7-2.63,4.63-5.06,5.73-1.7.78-3.59,1.05-5.42,1.05ZM211.85,264.73c.07.03,7.11,2.83,11.73.71,1.66-.76,2.78-2.05,3.43-3.95.3-.88.64-1.79,1-2.77,2.87-7.74,4.68-13.87-.27-16.47-1.92-1.01-3.69-1.27-5.25-.78-2.45.77-3.74,3.17-3.75,3.2l-2.88,5.6v-6.3c0-6.6-1.71-11.12-5.07-13.44-4.74-3.26-11.62-1.39-13.5-.78l-18.63,32.78c14.86-2.21,23.99-.03,32.84,2.08l.35.1Z"/><path class="cls-3" d="M175.77,264.57h0c-9.31,2.58-21.67,3.1-37.33,1.39-4.51-.5-9.3-1.18-14.37-2.04,0,0-28.55-20.84-30.1-42.81-1.55-21.97,15.08-58.58,15.08-58.58l32.3,3.54,43.78,26.24c6.65,13.64,10.86,25.64,12.36,35.8.06.37.11.74.15,1.1,2.38,18.32-4.34,30.5-21.88,35.36Z"/><path class="cls-2" d="M175.77,264.57h0c-9.31,2.58-21.67,3.1-37.33,1.39l-7.2-23.08s-3.87-6.24-9.43-11.71c2.9,2.6,12.37,9.8,28.48,10.27,16.65.49,37.72-6.88,43.83-9.15,1.11-.42,1.73-.67,1.73-.67l1.81-2.41c2.38,18.32-4.34,30.5-21.88,35.36Z"/><path class="cls-2" d="M134.18,176.11c3.02.64,31.33,11.34,31.9,11.79.58.45,2.54,7.4-22.05,7.31-24.59-.1-34.48-19.1-34.48-19.1"/><path class="cls-7" d="M155.3,268.47c-9.1,0-19.64-1.02-31.5-3.05l-.35-.06-.29-.21c-1.19-.87-29.14-21.51-30.72-43.93-1.56-22.1,14.53-57.81,15.22-59.32l.46-1,33.4,3.66c.84.09,1.44.84,1.35,1.68-.09.84-.84,1.44-1.68,1.35l-31.19-3.42c-2.62,6.01-15.87,37.51-14.51,56.84,1.4,19.86,26.26,39.25,29.19,41.47,35.22,5.99,57.73,2.82,66.92-9.43,8.62-11.49,5.98-31.7-7.84-60.07-.37-.76-.05-1.67.7-2.04.76-.37,1.67-.05,2.04.7,7,14.37,11.25,26.87,12.63,37.13,1.46,10.88-.26,19.66-5.09,26.1-4.98,6.64-13.35,10.89-24.89,12.65-4.16.63-8.78.95-13.84.95Z"/><path class="cls-3" d="M208.64,225.89c2.43-.63,5.72-1.95,8.04-4.88,6.8-8.61-1.04-23.12-2.1-25.09-3.9-7.23-9.59-11.55-13.55-13.93-2.27.97-6.05,3.04-8.16,7.09-3.27,6.3-.36,13.32,2.17,19.43,1.57,3.8,4.68,9.85,10.86,15.85"/><path class="cls-3" d="M208.06,259.8h0c-.03.06-.06.1-.1.15-1.26,1.6-4.39,1.97-8.34,1.1,0,0-.02,0-.03,0-.06-.01-.13-.03-.2-.04-.38-.09-.76-.19-1.16-.3-.02,0-.03,0-.04-.01-.97-.27-1.99-.62-3.02-1.03t0,0c-.62-.24-1.24-.51-1.87-.81-2.08.48-4.36.94-6.83,1.34-4.1.66-8.71,1.18-13.76,1.34-8.67.28-16.15-.52-22.01-1.54-1.6,1.37-4.45,3.46-8.55,4.69-2.71.81-5.53,1.65-7.29.59-4.07-2.46.46-14.92.86-15.99-.87-2.29-1.76-4.96-2.55-7.96-1.42-5.43-2.51-11.97-2.49-19.36.02-6.17.8-11.6,1.79-16.1-1.46-1.63-3.62-4.43-4.99-8.37-.49-1.42-.97-2.8-1.21-4.04-.26-1.34-.24-2.52.35-3.41,1.23-1.85,4.85-2.28,9.8-1.46,2.89.48,6.24,1.39,9.82,2.7,19.47,1.04,32.76-2.4,41.44-5.88.96-.39,2-.82,3.07-1.26,4.13-1.67,8.75-3.24,11.37-1.27,3.27,2.47,1.85,9.31.12,14.77,2.07,6.66,4.08,15.46,4.52,25.88.02.59.04,1.19.06,1.79.09,3.76-.04,7.31-.31,10.61-.3,3.65-.78,6.99-1.33,9.99.87,1.42,2.06,3.71,2.75,6.7.3,1.31.6,2.6.72,3.77.14,1.34.04,2.51-.57,3.38Z"/><path class="cls-2" d="M197.14,184.64l-.79,1.49c-4.83,3.45-10.14,6.31-15.75,8.47-7.63,2.94-15.86,4.61-22.96,8.56-3.38,1.88-6.61,4.48-7.73,8.03-1.38,4.4.74,9.44-1.32,13.59-.62,1.26-1.6,2.34-2.56,3.39-4.14,4.51-8.43,8.89-12.87,13.15-1.42-5.43-2.51-11.97-2.49-19.36.02-6.17.8-11.6,1.79-16.1-1.46-1.63-3.62-4.43-4.99-8.37-.49-1.42-.97-2.8-1.21-4.04,4.51,5.74,12.52,8.86,20.01,7.76,1.47-.21,3.21-.87,3.37-2.27.08-.69-.28-1.36-.7-1.93-1.85-2.52-4.95-3.95-8.02-4.93-3.08-.98-6.3-1.62-9.17-3.06,1.56-.15,3.11-.3,4.66-.45,12.16-1.16,24.33-2.33,36.49-3.49,5.39-.51,10.79-1.03,16.2-.98.55,0,1.09.02,1.64.04,2.14.07,4.27.22,6.4.47Z"/><path class="cls-2" d="M206.49,235.96c-5.81-2.11-12.05-4.58-15.1-9.69-1.54-2.58-2.09-5.58-2.28-8.53l.92-.66c4.6,3.73,11,4.52,16.72,6.47.02.59.04,1.19.06,1.79.09,3.76-.04,7.31-.31,10.61Z"/><path class="cls-2" d="M208.69,256.29c-.55,1.21-1.86,2.08-3.26,2.16-1.38.08-2.69-.55-3.86-1.25-1.41-.85-2.72-1.83-3.91-2.92-.45-.41-.99-.87-1.6-.75-.42.08-.72.41-1.01.71-3.5,3.67-9.08,4.67-14.24,5.47,3.46.74,7.09.57,10.59,0,.86-.14,1.74-.3,2.61-.25,1.35.09,2.58.7,3.86,1.12,2.21.73,4.61.91,6.92.52,1.35-.23,2.73-.7,3.66-1.65.93-.95,1.29-2.49.54-3.58l-.29.42Z"/><path class="cls-7" d="M136.94,267.28c-1.04,0-2.01-.2-2.87-.72-4.61-2.79-1.38-13.31.04-17.26-3.3-8.87-4.97-18.06-4.94-27.33.01-5.24.57-10.51,1.67-15.67-2.13-2.5-3.74-5.29-4.78-8.3-1.15-3.31-2.23-6.44-.69-8.76,3.5-5.26,16.81-.99,21.17.59,15.36.79,29.02-1.15,40.58-5.78.5-.2,1.02-.42,1.56-.64,4.78-1.97,10.72-4.43,14.34-1.69,3.13,2.36,3.39,7.59.79,15.97,2.77,9.01,4.28,18.3,4.51,27.64.16,6.79-.36,13.63-1.57,20.35,1.21,2.09,2.1,4.33,2.64,6.64.73,3.14,1.48,6.39-.24,8.56-2.37,3-8.77,2.8-16.01-.45-6.67,1.5-13.53,2.38-20.38,2.61-7.22.24-14.5-.25-21.62-1.44-2.55,2.07-5.42,3.6-8.55,4.53-1.91.57-3.86,1.15-5.63,1.15ZM132.02,189.69c-2.22,0-3.66.44-4.17,1.21-.72,1.08.21,3.76,1.03,6.12.99,2.86,2.57,5.51,4.69,7.86l.52.57-.17.75c-1.15,5.19-1.74,10.5-1.76,15.78-.02,9.08,1.64,18.1,4.94,26.78l.2.53-.2.53c-2.25,6.05-3.42,13.01-1.49,14.18,1.2.72,3.8-.05,6.09-.74,2.95-.88,5.64-2.36,8.01-4.39l.54-.46.7.12c7.14,1.24,14.44,1.75,21.7,1.51,6.83-.22,13.66-1.11,20.31-2.64l.5-.12.47.22c6.35,2.96,11.62,3.09,12.86,1.52.82-1.04.21-3.69-.33-6.02-.51-2.19-1.37-4.29-2.57-6.25l-.3-.49.1-.56c1.23-6.7,1.78-13.52,1.62-20.3-.22-9.21-1.74-18.38-4.51-27.27l-.14-.45.14-.45c3-9.42,1.54-12.26.4-13.12-2.26-1.7-7.54.48-11.39,2.07-.55.23-1.08.44-1.59.65-12.03,4.82-26.19,6.83-42.08,5.98h-.22s-.21-.09-.21-.09c-5.83-2.14-10.54-3.03-13.69-3.03Z"/><path class="cls-3" d="M93.86,244.28c-9.92,10.76-27.01,12.19-39.32,3.74h0c-9.5-6.53-16.15-18.96-14.46-37.54,4.32-33.39,34.61-36.62,44.87-22.12,1.34,1.89,2.23,4.06,2.76,6.31,3.27,13.72.7,25.94-15.04,27.32-1.15.1-2.13-.85-2.04-2.01.13-1.57-.04-3.61-1.52-4.56-.31-.2-.67-.35-1.09-.44-.32-.07-.66.03-1.01.28-4.11,2.83-8.84,25.15,24.91,21.64.18-.02.35-.04.53-.05l.09.46.26,1.37,1.06,5.61Z"/><path class="cls-2" d="M93.62,238.03s-.29.24-.82.64c-3.64,2.72-18.57,12.75-29.34,2.94-12.35-11.24-2.18-24.78-2.18-24.78l5.74-1.57c-4.11,2.83-8.84,25.15,24.91,21.64.23.15.43.28.62.41.67.45,1.08.73,1.08.73Z"/><path class="cls-7" d="M67.6,216.53c-3.02-1.29-5.92.48-7.43,3.24-.57.98-1,2.06-1.36,3.17.1-1.16.28-2.33.62-3.49,1.01-3.66,4.06-6.3,8-6.12.4.02.74.04,1.15.14,2,.71,1.06,3.66-.99,3.07h0Z"/><path class="cls-7" d="M72.29,255.09c-4.61,0-9.23-.96-13.43-2.82-6.71-2.98-12.15-8.07-15.73-14.74-4.05-7.53-5.61-16.68-4.66-27.2v-.06c2.11-16.26,10.84-27.83,23.36-30.94,9.51-2.36,19.32.89,24.43,8.1,1.38,1.95,2.39,4.26,3.02,6.87,2.26,9.45,1.52,17.13-2.14,22.2-2.98,4.14-7.8,6.53-14.33,7.1-1.03.09-2.04-.28-2.78-1-.73-.72-1.09-1.72-1.01-2.74.21-2.57-.66-3.1-1.16-3.25-1.02.68-2.95,5.01-1.74,9.53,2.02,7.52,11.3,10.75,26.13,9.11.89-.1,1.68.54,1.78,1.42.1.88-.54,1.68-1.42,1.78-18.23,2.02-25.41-3.32-28.23-8.17-3.23-5.54-1.71-12.12.39-15.02,1.42-1.96,2.84-2,3.57-1.85,2.77.59,4.19,3.04,3.89,6.71,0,.07.02.14.07.19.04.04.11.09.22.08,5.55-.49,9.58-2.43,12-5.77,3.9-5.41,3.03-13.63,1.62-19.57-.53-2.21-1.37-4.15-2.51-5.76-4.34-6.14-12.79-8.88-21.02-6.84-11.18,2.78-19,13.32-20.94,28.2-1.66,18.34,5.25,32.8,18.49,38.67,11.22,4.98,24.59,2.46,32.51-6.13.6-.65,1.62-.7,2.27-.09.65.6.7,1.62.09,2.27-4.43,4.81-10.29,7.99-16.95,9.2-1.91.35-3.85.52-5.8.52Z"/><path class="cls-3" d="M172.24,192.05c-9.5.89-19.61.25-28.75-1.71-.4-.08-.79-.17-1.19-.26-1.53-.35-3.04-.74-4.51-1.17-.27-.08-.54-.16-.81-.24-.31-.09-.62-.19-.94-.29-3.98-1.26-7.64-2.8-10.84-4.6-.03-.02-.07-.03-.1-.05,0,0,0,0-.02-.01-1.31-.74-2.54-1.53-3.68-2.35h0s-.04-.03-.08-.07c-.1-.07-.21-.15-.31-.23-.03-.02-.05-.04-.09-.06-.95-.71-1.83-1.46-2.64-2.23-1.61-1.54-2.92-3.2-3.88-4.96l-.11,1.61-.17,2.42-2.46,34.79-.41,5.83-3.21,45.44c-7.6-4.48-12.68-10.73-15.93-17.94-14.32-31.81,7.2-82.34,7.2-82.34-.07-.92-.14-1.83-.19-2.72-.15-2.49-.21-4.91-.2-7.26.1-16.14,3.94-28.92,10.1-38.62,28.4-44.64,106.26-24.08,96.99,33.05-.03.22-.07.43-.11.64,12.61,27.79-8.4,40.95-33.67,43.32Z"/><polygon class="cls-2" points="114.58 176.46 115.79 180.84 114.48 183.14 109.56 175.63 114.58 176.46"/><path class="cls-2" d="M152.19,219.65c-.07.33-2.76,12.74-19.66,8.22-9.73-2.61-16.9-6.51-21.28-9.39-3.33-2.19-5.04-3.8-5.04-3.8,0,0-7.61-6.63-8.76,0-1.15,6.63,5.99,10.09,5.99,10.09,0,0-8.59.8-9.09,10.16-.5,9.36-1.04,10.46-1.04,10.46,0,0-.45.28-1.2.59-14.32-31.81,7.2-82.34,7.2-82.34-.07-.92-.14-1.83-.19-2.72-.15-2.49-.21-4.91-.2-7.26l22.49,27.71s-.04-.03-.08-.06c-.07-.05-.17-.13-.31-.23-.03-.02-.05-.04-.09-.06-1.05-.74-3.68-2.44-6.8-3.17-3.39-.8-7.35-.44-10.47,3.52-6.01,7.65-4.91,20.75,8.01,31.27,1.78,1.46,3.79,2.86,6.04,4.19,18.51,10.98,32.28,7.73,34.49,2.82Z"/><path class="cls-2" d="M208.25,172.19s-6.12,16.31-31.18,18.52c-21.16,1.86-43.02-.06-58.77-11.93-1.38-1.04-2.71-2.16-4-3.36-1.42-1.32-2.78-2.75-4.06-4.28,0,0-7.36-3.34-11.11-10.23-1.16-19.62,2.84-34.76,9.91-45.87l.43,5.48s-15.6,29.95,11.27,52.95c26.87,22.99,79.29,15.47,87.52-1.27Z"/><path class="cls-1" d="M197.55,148.73c.8,3.85-1.09,4.24-.29,8.09.8,3.85,2.69,3.45,3.49,7.3.8,3.85-1.09,4.24-.29,8.09.8,3.85,2.44,2.49,3.24,6.33,6.7-5.17,7.89-14.86,2.64-29.81,0,0-.69-4.33-.8-4.19-.11.14-7.98,4.19-7.98,4.19Z"/><path class="cls-2" d="M197.32,154.4c4,1.13,7.38.82,9.44-2.54l1.96,6.48c-4.86-2-7.51-.62-9.41,1.9,0,0-1.92-4.1-2-5.84Z"/><path class="cls-2" d="M201.03,168.38c2.11,1.55,4.72,1.05,8.02-2.32l-1.39,5.25c-4.27-.97-5.98.24-6.23,2.68"/><path class="cls-7" d="M107.25,265.12c-17.7-11.36-23.59-32.07-21.19-52.12,1.4-12.48,4.22-24.78,7.71-36.82,1.28-4.38,2.64-8.71,4.18-13.05l-.08.61c-1.33-16.2.48-33.36,8.81-47.65,8.22-14.49,23.57-24.32,40.07-26.25,35.62-4.31,67.45,21.82,60.59,59.13,0,0-.11-.85-.11-.84,8.97,18.6,3.03,34.29-16.43,41.6-19.99,7.66-55.22,5.57-71.52-9.26-2.02-1.91-3.78-4.14-4.87-6.66,6.15,8.69,17.81,12.42,27.76,14.75,17.28,3.65,38.88,3.59,54.41-5.55,6.7-4.03,11.36-10.56,11.45-18.55.12-5.34-1.47-10.68-3.61-15.56,3.05-15.72-1.32-32.37-13.53-43.13-14.61-13.19-36.77-16.93-55.19-10.32-28.64,10.23-37.64,40.43-34.91,68.37-5.56,16.02-9.89,32.62-11.84,49.49-1.63,14.14.77,29.5,10.1,40.66,2.79,3.38,6.13,6.3,9.81,8.72,1.55,1.05.07,3.44-1.59,2.42h0Z"/><path class="cls-4" d="M110.75,126.41s-6.09-36.19,8.18-39.88c10.8-2.79,24.38,11.67,24.38,11.67"/><path class="cls-2" d="M119.16,106.89c.78-8.6,8.96-8.37,8.96.01h.22c2.11-1.88,4.47-3.82,6.88-5.48,0,0-5.42-5.59-12.52-7.22-3.52.58-4.3,5.43-3.53,12.69Z"/><path class="cls-7" d="M110.75,126.41c-3.39-9.85-4.96-32.86,4.44-39.69,8.37-5.63,19.45,1.72,25.27,7.95,1.03,1.11,2.01,2.27,2.86,3.52-6.27-4.42-15.04-11.35-22.95-10.47-12.36,1.6-9.14,29.41-9.61,38.68h0Z"/><path class="cls-7" d="M116.84,99.33c-.1-3.67,2.26-6.67,6.12-6.33,4.85.5,9.57,4.31,13.08,7.4,0,0,1.22,1.06,1.22,1.06l-1.28,1.03c-4.43,3.53-9.3,7.5-13.5,11.25-1.49,1.29-2.93,2.64-4.45,3.94.7-1.26,1.6-2.6,2.45-3.78,2.08-2.81,4.46-5.42,6.99-7.82,2.18-2.06,4.47-4.03,6.97-5.73,0,0-.06,2.09-.06,2.09-3.35-2.27-8.83-7.19-12.84-7.06-2.27.16-3.49,2.2-4.7,3.95h0Z"/><path class="cls-7" d="M144.39,149.48c6.02-2.46,14.08-1.74,19.64,1.64.84.5,1.64,1.15,2.34,1.82.63.58.07,1.67-.76,1.5-3.62-.73-6.91-1.6-10.48-2.33-3.61-.79-7.11-1.47-10.73-2.63h0Z"/><path class="cls-7" d="M205.91,144.4c-1.84,1.92-3.78,3.35-5.95,4.72-2.14,1.29-4.35,2.51-6.83,3.06-.71.16-1.27-.7-.85-1.28,2.75-3.96,8.78-7.01,13.63-6.49h0Z"/><path class="cls-7" d="M177.87,151.77c3.73-.98,8.03-1.01,11.02-.25.69.17,1.04.95.69,1.57-.74,1.32-2.34,3.47-5.44,5.13-.3.16-.65.16-.96.01-1.13-.53-3.92-2.04-5.91-4.77-.45-.62-.14-1.5.6-1.69Z"/><path class="cls-7" d="M177.06,169.6c2.3-1,4.24-2.67,5.15-5,.34-.74.48-1.57.68-2.36.3-1.12,1.93-1.07,2.17.04.56,2.05,1.71,4.04,3.44,5.31.6.48,1.3.81,2.06,1.19-.82.08-1.7.05-2.53-.24-2.6-.81-4.47-3.2-5.16-5.78,0,0,2.2-.06,2.2-.06-.15.72-.31,1.44-.6,2.12-1.1,2.95-4.23,5.2-7.42,4.77h0Z"/><path class="cls-1" d="M149.43,191.6c0-5.19-1.92-5.77-1.92-10.96s1.93-5.19,1.93-10.39c0-5.19-1.93-5.19-1.93-10.39,0-4.79,1.64-5.16,1.9-9.27.04-.59.58-1.02,1.16-.91l11.14,2.13c0,4.91-1.93,4.91-1.93,9.82s1.93,4.91,1.93,9.82-1.93,4.91-1.93,9.82,1.93,6.12,1.93,11.03c-4.43.5-8.16.49-12.27-.71Z"/><path class="cls-2" d="M149.13,155.69s-1.17,3.71,1.53,4.41c2.71.69,6.78,1.18,8.62-1.76,1.84-2.94.59,7.72.59,7.72-4.9-2.56-8.63-2.65-11.05,0,0,0-1.52-2.37-1.62-5.19-.1-2.81,1.92-5.19,1.92-5.19Z"/><path class="cls-2" d="M148.35,177.2c2.35,3.09,5.65,4.04,10.79.86v3.69l.74,3.78c-4.83-2.89-8.79-3.31-11.44,0l-.93-5.42.84-2.92Z"/><path class="cls-1" d="M146.4,135.31c-.42,3.13,2.93,4.42,7.19,4.98,4.27.57,7.84.2,8.25-2.93.42-3.13-2.77-5.72-6.97-6.7-4.66-1.09-7.98.96-8.48,4.65Z"/><path class="cls-1" d="M203.65,132.11c.42,3.13-2.19,4.32-5.55,4.76s-6.19-.02-6.6-3.15c-.42-3.13,2.03-5.62,5.32-6.48,3.65-.96,6.34,1.17,6.83,4.87Z"/><path class="cls-7" d="M156.75,193.87c-2.79,0-5.2-.35-7.67-1.07l-.9-.26v-.94c0-2.39-.44-3.7-.9-5.08-.5-1.51-1.02-3.07-1.02-5.88s.56-4.32,1.04-5.63c.46-1.23.89-2.39.89-4.76s-.43-3.53-.89-4.76c-.49-1.32-1.04-2.81-1.04-5.63s.56-4.31,1.04-5.63c.39-1.04.75-2.02.86-3.71.04-.64.35-1.24.86-1.63.5-.39,1.15-.55,1.78-.43l12.16,2.32v1.04c0,2.69-.56,4.11-1.05,5.37-.47,1.2-.88,2.23-.88,4.45s.41,3.25.88,4.45c.49,1.25,1.05,2.68,1.05,5.37s-.56,4.12-1.05,5.37c-.47,1.2-.88,2.23-.88,4.45s.44,3.66.91,5.14c.5,1.59,1.02,3.24,1.02,5.89v1.12l-1.11.13c-1.87.21-3.54.32-5.09.32ZM150.68,191.6h0,0ZM150.66,190.63c2.92.74,5.88.9,9.75.54-.12-1.63-.48-2.79-.87-4.01-.5-1.59-1.02-3.24-1.02-5.89s.56-4.11,1.05-5.37c.47-1.2.88-2.23.88-4.45s-.41-3.25-.88-4.45c-.49-1.25-1.05-2.68-1.05-5.37s.56-4.11,1.05-5.37c.39-1,.74-1.88.85-3.42l-9.78-1.87c-.15,1.89-.6,3.07-.99,4.13-.46,1.23-.89,2.39-.89,4.76s.43,3.53.89,4.76c.49,1.32,1.04,2.81,1.04,5.63s-.56,4.31-1.04,5.63c-.46,1.23-.89,2.39-.89,4.76s.44,3.7.9,5.08c.44,1.33.9,2.7,1,4.91Z"/><path class="cls-7" d="M203.69,179.79c-.58,0-1.1-.41-1.23-1-.32-1.56-.75-2-1.29-2.54-.66-.67-1.48-1.51-1.95-3.79-.46-2.21-.13-3.49.16-4.61.25-.99.47-1.84.13-3.48-.34-1.64-.88-2.33-1.51-3.14-.71-.92-1.52-1.96-1.98-4.17-.46-2.21-.13-3.48.16-4.61.25-.99.47-1.84.13-3.48-.14-.68.29-1.34.97-1.48.68-.14,1.34.3,1.48.97.46,2.21.13,3.49-.16,4.61-.25.99-.47,1.84-.13,3.48.34,1.64.88,2.33,1.51,3.14.71.92,1.52,1.96,1.98,4.17.46,2.21.13,3.49-.16,4.61-.25.99-.47,1.84-.13,3.48.32,1.56.75,2,1.29,2.54.66.67,1.48,1.51,1.95,3.79.14.68-.29,1.34-.97,1.48-.09.02-.17.03-.26.03Z"/><path class="cls-3" d="M213.03,214.58c0,7.55-3.8,13.39-10.35,13.39s-11.85-6.12-11.85-13.67,5.38-12,11.92-12,10.27,4.72,10.27,12.27Z"/><path class="cls-2" d="M200.43,225.52c-2.23-1.11-5.66-3.42-6.5-7.31,0,0,4.69,4.96,10.14,3.21s5.86-8.72,5.86-8.72c0,0,1.6,9.77-3.77,12.78-1.76.99-3.92.94-5.73.04Z"/><path class="cls-7" d="M202.69,229.42c-7.33,0-13.3-6.78-13.3-15.11s5.5-13.44,13.37-13.44c7.23,0,11.72,5.26,11.72,13.72,0,8.88-4.74,14.84-11.8,14.84ZM202.76,203.76c-5.21,0-10.47,3.26-10.47,10.55,0,6.74,4.67,12.22,10.4,12.22,6.15,0,8.9-6,8.9-11.94,0-6.88-3.22-10.82-8.83-10.82Z"/><path class="cls-7" d="M191.49,212.57c1.2,1.15,3.09,1.43,4.71,1.12.26-.05.52-.12.78-.19-.45.31-.91.62-1.42.84-1.64.75-3.67.86-5.34.1-1.21-.87.02-2.67,1.27-1.86h0Z"/><path class="cls-7" d="M193.69,221.15c1.38.92,3.29.87,4.83.28.25-.09.49-.21.74-.32-.39.38-.79.77-1.25,1.07-1.48,1.02-3.46,1.48-5.24,1.03-1.34-.64-.45-2.63.92-2.06h0Z"/><path class="cls-3" d="M148.26,225.93s0,0,0,0c-3.36,2.31-8.56,3.35-15.73,1.93,0,0,0,0-.02,0-.15-.03-1.41-.29-3.42-.89-4.05-1.21-11.16-3.84-18.42-8.88-.05-.03-.09-.06-.14-.09-1.45-1.01-2.9-2.12-4.33-3.32h0s-.05-.05-.08-.07c0,0-.02-.02-.03-.03-1.81-1.54-3.59-3.24-5.29-5.12-13.57-20.39.43-38.66,9.53-31.91.42.31.83.68,1.23,1.1,5.41,7.97,11.75,13.83,18.67,18.64,1.37.95,2.78,1.83,4.23,2.63,2.5,1.39,5.11,2.56,7.81,3.49,11.49,3.97,14.07,16.94,5.99,22.52Z"/><path class="cls-2" d="M152.19,219.65c-.04.17-.79,3.65-3.93,6.29,0,0,0,0,0,0-2.86,2.39-7.68,4.08-15.73,1.93,0,0,0,0-.02,0-10.16-2.72-17.53-6.86-21.84-9.77-.05-.03-.09-.06-.14-.09-2.86-1.94-4.33-3.32-4.33-3.32h0s-.04-.04-.08-.07c0,0-.02-.02-.03-.03-1.81-1.54-3.59-3.24-5.29-5.12-13.57-20.39.43-38.66,9.53-31.91-2.32.22-4.68,1.28-6.68,3.82-6.83,8.7-4.47,24.47,14.05,35.46,18.51,10.98,32.28,7.73,34.49,2.82Z"/><path class="cls-2" d="M152.19,219.65c-.04.17-.79,3.65-3.93,6.29,0,0,0,0,0,0-2.86,2.39-7.68,4.08-15.73,1.93,0,0,0,0-.02,0-.01,0-.03,0-.04,0-1.22-.33-2.4-.68-3.54-1.04-1.71-1.71-3.04-3.83-3.85-6.21,14.71,6.28,25.2,3.28,27.1-.95Z"/><path class="cls-7" d="M111.56,178.65c5.97,6.67,12.35,12.61,19.71,17.6,3.08,2.08,6.4,3.8,9.87,5.11,2.55.87,5.12,1.84,7.25,3.57,5.74,4.3,8.37,12.97,3.98,19.17-4.44,6.26-13.17,6.69-20.01,5.22-9.47-2.3-19.49-7.18-26.62-13.88-1.87-1.8-3.57-3.78-4.94-5.99,2.06,1.58,4.05,3.14,6.1,4.61,6.06,4.45,12.62,8.27,19.77,10.65,4.57,1.58,9.56,2.68,14.37,2.13,4.51-.43,8.94-2.99,10.01-7.54,1.1-4.39-1.1-9.14-4.63-11.87-1.86-1.54-4.14-2.39-6.39-3.21-2.45-.97-4.82-2.13-7.08-3.47-8.83-5.36-16.78-12.79-21.39-22.11h0Z"/><path class="cls-7" d="M153.34,213.61c-.17.91-.77,1.57-1.51,2.02-2.46,1.35-5.3.53-7.79-.17,2.17.07,4.75.2,6.54-1.14.27-.25.53-.56.53-.94,0,0,0,0,0,0,0,0,0,0,0,0,0,.01,0,.03,0,.04.16-1.48,2.34-1.29,2.25.19h0Z"/><path class="cls-7" d="M149.42,225.74c-2.18.75-4.61-.18-6.25-1.64-.65-.55-1.31-1.34-1.82-2.02.65.51,1.47,1.09,2.21,1.43.25.14.67.29.94.4,1.26.4,2.8.54,3.89-.18,1.34-.64,2.33,1.3,1.03,2.01h0Z"/><path class="cls-3" d="M123.07,276.74c-51.35-20.89-26.28-73.65,1.06-43.76"/><path class="cls-2" d="M95.72,252.12s-4.31-18.46,8.72-24.97c0,0-4.98,10.69-2.78,21.42,2.2,10.73,7.86-8.72,19.93-8.05,12.07.67,6.75,29.19,6.44,29.76s-9.55,2.93-10.68,2.56c-1.13-.37-14.78-.9-21.63-20.73Z"/><path class="cls-7" d="M208.63,227.34c-.65,0-1.23-.43-1.4-1.09-.2-.78.27-1.57,1.04-1.76,5.86-1.51,9.11-5.14,9.66-10.78.49-5.08-1.32-11.51-4.95-17.66-3.49-5.9-8.19-10.67-12.57-12.75-.72-.34-1.03-1.21-.69-1.93.34-.72,1.21-1.03,1.93-.69,4.88,2.32,10.04,7.51,13.82,13.89,3.94,6.66,5.89,13.74,5.34,19.41-.46,4.8-2.89,11.01-11.82,13.31-.12.03-.24.05-.36.05Z"/><path class="cls-7" d="M122.52,278.08c-7.35-2.99-14.45-7.07-20.07-12.75-8.61-8.41-13.85-22.03-8.41-33.55,4.12-8.55,13.08-11.5,21.36-6.79,3.51,1.96,6.37,4.81,8.72,8-4.33-3.72-9.14-7.13-14.83-7.64-10.06-.77-15.32,9.33-14.42,18.32.92,11.37,9.2,20.73,18.58,26.55,3.22,2.01,6.63,3.73,10.16,5.19,1.73.76.71,3.35-1.1,2.68h0Z"/><path class="cls-3" d="M140.15,256.75c3.33,10.15,3.91,17.77-4.4,22.36-9.53,5.26-19.74-4.82-23.07-14.98-3.33-10.15-.01-19.5,8.98-22.45,8.99-2.95,15.16,4.92,18.49,15.07Z"/><path class="cls-2" d="M128.09,280.32s-14.92-9.3-13.84-25.63c0,0,2.72,17.87,14.96,18.2,12.24.33,9.02-13.39,9.02-13.39,0,0,7.65,20.06-10.15,20.83Z"/><path class="cls-7" d="M130.32,282.06c-1.65,0-3.33-.33-5.01-.99-5.96-2.34-11.61-8.97-14.07-16.48-1.74-5.31-1.78-10.62-.1-14.95,1.77-4.59,5.25-7.85,10.05-9.42,4.69-1.54,9.15-.52,12.88,2.95,3.05,2.84,5.66,7.36,7.53,13.09h0c3.08,9.39,4.58,18.81-5.11,24.16-1.96,1.08-4.04,1.63-6.17,1.63ZM125.4,242.57c-1.05,0-2.14.19-3.27.56-3.91,1.28-6.73,3.91-8.16,7.62-1.42,3.68-1.36,8.26.16,12.9,2.19,6.7,7.13,12.56,12.29,14.59,3,1.18,5.89,1.02,8.59-.47,6.52-3.59,7.48-8.97,3.69-20.55-1.72-5.24-4.04-9.32-6.71-11.81-2.05-1.9-4.22-2.85-6.59-2.85Z"/><ellipse class="cls-7" cx="131.23" cy="266.95" rx="4.47" ry="4.78"/><ellipse class="cls-7" cx="126.76" cy="258.29" rx="2.46" ry="2.41"/><circle class="cls-7" cx="133.95" cy="258.29" r="2.2"/><circle class="cls-7" cx="122.66" cy="262.91" r="2.36"/><path class="cls-8" d="M120.86,230.27c.32.29.63.59.94.9-.53-.48-.85-.8-.94-.9Z"/><path class="cls-2" d="M84.17,192.3c4.38,15.91.96,25.02-10.25,27.34,0,0,0-8.29-7.09-7.77,0,0,17.58,1.9,17.34-19.58Z"/><path class="cls-7" d="M156.22,216.01c-1.73,2.69-3.02,5.71-4.64,8.48-1.61,2.76-3.69,5.36-5.04,8.24-.07.15.11.3.23.18,2.31-2.18,3.99-5.25,5.58-7.97,1.61-2.76,3.36-5.68,4.28-8.76.07-.25-.28-.38-.41-.17h0Z"/><path class="cls-7" d="M196.26,198.94c-3.71,3.62-6.34,8.61-8.51,13.27-2.15,4.62-3.96,9.45-4.51,14.54-.02.23.31.25.38.05,1.67-4.92,3.13-9.9,5.38-14.6,2.18-4.57,5.16-8.56,7.71-12.91.17-.28-.22-.57-.45-.35h0Z"/><path class="cls-7" d="M156.89,221.51c-1.42,1.92-2.46,3.85-3.03,6.18-.03.13.16.22.22.09,1.01-2.03,1.99-4.12,3.14-6.08.13-.22-.19-.38-.33-.19h0Z"/></g></svg>