<?xml version="1.0" encoding="UTF-8"?><svg xmlns="http://www.w3.org/2000/svg" viewBox="0 0 300 300"><defs><style>.cls-1{fill:#fff;}.cls-2{fill:#ff0092;}.cls-3{fill:#69687a;}.cls-4{fill:none;}.cls-5,.cls-6{fill:#ffccec;}.cls-7{fill:#f5ceab;}.cls-8{isolation:isolate;}.cls-6,.cls-9{mix-blend-mode:multiply;}.cls-10{opacity:.2;}.cls-11{fill:#c63380;stroke:#c63380;stroke-miterlimit:10;}.cls-12{fill:#ff7bcd;}.cls-13{opacity:.5;}</style></defs><g class="cls-8"><g id="base"><rect class="cls-4" width="300" height="300"/></g><g id="_레이어_2"><path class="cls-11" d="M40.09,72.85l3.03,4.58,2.67-1.84c1.28-.85,2.46-.99,3.45-.45,1.01.67,1.48,1.71,1.4,3.18l-.57,8.01,10.57-.7c1.8-.06,2.73.6,2.74,2.01.03,1.54-.86,2.34-2.61,2.36l-10.98.61-.5,7.26c-.15,1.8-.93,2.66-2.37,2.62s-2.11-.94-1.97-2.87l1.39-17.25-9.05,6.2c-1.33.88-2.33.76-3.11-.42-.75-1.13-.45-2.18.9-3.14l4.26-2.96-3.09-4.67c-.85-1.28-.66-2.39.62-3.24,1.28-.85,2.37-.58,3.22.7ZM66.14,83.69l-10.15-15.35c-.85-1.28-.66-2.39.62-3.24,1.23-.81,2.32-.55,3.17.73l3.22,4.87,4.66-2.8c1.29-.71,2.31-.47,3.09.71.76,1.26.51,2.28-.75,3.04l-4.56,2.73,4.49,6.79c.88,1.33.66,2.39-.57,3.2-1.28.85-2.34.63-3.22-.7ZM63.2,108.76l-6.32-8.27c-1.19-1.48-1.1-2.74.28-3.65l12.25-8.1c1.48-.98,2.82-.66,3.89.96l5.63,8.51c.85,1.28.6,2.29-.63,3.11l-12.3,8.13c-.98.65-1.92.42-2.79-.7ZM61.47,99.08l4.2,5.5,8.41-5.56-3.81-5.76-8.81,5.82Z"/><path class="cls-11" d="M83.36,81.32l-8.91-21.27c-.52-1.45-.08-2.48,1.35-3.06,1.45-.52,2.43-.05,2.97,1.45l8.6,21.15c.62,1.53.29,2.52-1.03,3.04-1.4.62-2.38.16-2.98-1.32ZM92.6,89.14c.38.86.4,1.76.07,2.62-.36.93-.94,1.52-1.8,1.9-.86.38-1.74.45-2.62.07-.91-.3-1.52-.94-1.9-1.8-.38-.86-.43-1.68-.07-2.62.33-.86.94-1.52,1.8-1.9.86-.38,1.71-.37,2.62-.07.88.38,1.52.94,1.9,1.8Z"/><path class="cls-11" d="M109.79,55.64l9.74,3.67c1.57.65,2.05,1.58,1.59,2.87-.52,1.31-1.59,1.7-3.14,1.16l-10.01-3.8-3.62,7.87c-.67,1.46-1.73,1.9-3.04,1.32-1.31-.52-1.68-1.53-1.01-2.99l7.62-16.53-10.21,2.19c-1.56.31-2.45-.24-2.73-1.63-.25-1.27.36-2.12,1.92-2.48l12.34-2.67c1.74-.34,2.93-.1,3.57.74.66.89.75,1.96.26,3.13l-3.28,7.14ZM133.09,86.93l-15.62,3.68c-1.6.44-2.53-.04-2.87-1.42l-2.26-8.09c-.41-1.48.08-2.36,1.56-2.77l10.97-2.58-.73-4.91-12.21,2.41c-1.5.3-2.39-.25-2.67-1.64-.26-1.33.35-2.17,1.92-2.48l14.35-2.83c1.74-.34,2.72.37,2.94,2.12l.94,8.71c.1,1.12-.54,1.85-1.81,2.1l-10.64,2.46,1.25,4.5,13.9-3.28c1.62-.32,2.56.16,2.92,1.41.33,1.38-.34,2.23-1.95,2.61ZM125.41,60.79l-3.42-17.36c-.3-1.5.3-2.46,1.8-2.76,1.45-.29,2.36.38,2.66,1.88l1.27,6.42,5.37-.82c1.47-.17,2.31.45,2.59,1.83.23,1.46-.39,2.3-1.85,2.53l-5.25.8,1.3,6.6c.31,1.56-.29,2.46-1.74,2.75-1.5.3-2.4-.31-2.71-1.87Z"/><path class="cls-11" d="M153.08,39.32l-.36,5.95,5.47.33c1.53.09,2.31.85,2.23,2.2-.08,1.41-.95,2.07-2.48,1.98l-1.88-.11c1.44,1.68,2.09,3.61,1.96,5.79-.13,2.24-1.07,4.07-2.69,5.51-1.69,1.49-3.73,2.14-6.15,2-2.47-.15-4.43-1.03-5.86-2.71-1.5-1.63-2.15-3.56-2.02-5.79.13-2.18,1.01-4.02,2.63-5.51l-2.41-.14c-1.59-.1-2.31-.85-2.23-2.26.08-1.35.89-2.01,2.48-1.92l6.36.38.36-5.95c.09-1.53.91-2.31,2.44-2.22,1.53.09,2.25.96,2.15,2.49ZM153.63,54.83c.07-1.18-.28-2.26-.94-3.13-.72-.81-1.64-1.28-2.75-1.35-1.18-.07-2.08.29-2.84,1.01-.81.78-1.23,1.82-1.3,2.99-.07,1.24.22,2.26.94,3.07.66.87,1.52,1.27,2.7,1.34,1.12.07,2.08-.23,2.9-1.01.75-.72,1.22-1.7,1.3-2.94ZM158,78.49l-3.59-2.16-3.03,4.31c-1.16,1.64-2.37,2.04-3.61,1.14-1.25-.78-1.3-2.03-.14-3.61l7.69-10.94c1.1-1.59,2.3-1.99,3.67-1.08,1.13.89,1.12,2.08.08,3.61l-2.07,2.95,3.36,2.03c1.59,1.04,2,2.13,1.22,3.32-.84,1.25-2.03,1.41-3.57.44ZM169.72,75.29l7.76,4.54c1.6.98,2.06,2.07,1.4,3.33-.79,1.31-1.98,1.48-3.57.5l-8.1-4.8-3.1,4.42c-1.1,1.65-2.25,2.05-3.5,1.21-1.31-.79-1.42-1.98-.25-3.68l8.66-12.36c1.1-1.59,2.3-1.99,3.67-1.08,1.13.89,1.12,2.08.08,3.61l-3.04,4.31ZM173.92,54.45l-5.77-.35-.38,6.36c-.09,1.59-.91,2.31-2.38,2.22-1.53-.09-2.19-.9-2.1-2.49l1.05-17.48c.09-1.53.85-2.31,2.38-2.22,1.47.09,2.19.96,2.1,2.49l-.41,6.89,5.77.35.41-6.89c.09-1.53.85-2.31,2.38-2.22,1.47.09,2.19.96,2.1,2.49l-1.06,17.72c-.1,1.59-.91,2.31-2.38,2.22-1.53-.09-2.19-.9-2.1-2.49l.4-6.59Z"/><path class="cls-11" d="M201.12,72.17c-.81,2.47-2.4,4.3-4.64,5.43-2.36,1.15-4.77,1.29-7.35.44-2.58-.85-4.49-2.4-5.6-4.69-1.24-2.27-1.38-4.67-.57-7.14.81-2.47,2.33-4.26,4.71-5.47,2.23-1.13,4.71-1.31,7.29-.46,2.58.85,4.41,2.44,5.65,4.71,1.09,2.34,1.31,4.71.5,7.18ZM196.92,70.79c.44-1.34.32-2.69-.26-3.93-.66-1.21-1.67-2.1-3.01-2.54-1.4-.46-2.69-.32-3.88.28-1.26.64-2.1,1.67-2.54,3.01-.46,1.4-.38,2.67.28,3.88.58,1.25,1.56,2.06,2.96,2.52,1.34.44,2.67.38,3.93-.26,1.19-.6,2.06-1.56,2.52-2.96ZM218.19,65.36l-6.72,21.63c-.5,1.51-1.48,2.06-2.94,1.58-1.48-.42-1.96-1.39-1.47-2.9l2.63-8.39-5.49-1.8c-1.51-.5-2.02-1.41-1.56-2.81.44-1.34,1.39-1.78,2.9-1.28l5.43,1.78,2.83-9.19c.42-1.48,1.41-2.02,2.92-1.52,1.46.48,1.95,1.45,1.47,2.9Z"/><path class="cls-11" d="M247.64,86.34c-1.53,2.45-3.62,3.93-6.21,4.4-.54.08-1.07.16-1.5.18l.1.06c1.25.78,1.5,1.84.72,3.09l-4.4,7.06,6.06,3.77c1.3.81,1.6,1.9.85,3.1-.81,1.3-1.89,1.47-3.19.66l-25.98-16.18c-1.35-.84-1.63-1.85-.82-3.15.75-1.2,1.8-1.45,3.16-.61l5.81,3.62,4.4-7.06c.78-1.25,1.79-1.53,3.09-.72l.1.06c-.23-.42-.34-.91-.45-1.39-.77-2.56-.32-5.06,1.21-7.52,1.5-2.4,3.54-3.91,6.24-4.45,2.62-.52,5.12-.08,7.47,1.39,2.3,1.43,3.86,3.51,4.59,6.12.65,2.63.26,5.16-1.24,7.57ZM237.76,90.82c-1.38-.24-2.66-.75-3.86-1.5-1.25-.78-2.28-1.7-3.05-2.8-.09.36-.17.73-.42,1.13l-4.4,7.06,6.51,4.05,4.4-7.06c.25-.4.49-.67.82-.88ZM243.78,83.94c.84-1.35,1.11-2.78.82-4.21-.37-1.41-1.24-2.58-2.59-3.42-1.4-.87-2.78-1.11-4.17-.79-1.46.34-2.58,1.24-3.42,2.59-.87,1.4-1.16,2.75-.79,4.16.29,1.43,1.11,2.57,2.51,3.44,1.35.84,2.78,1.11,4.25.77,1.38-.32,2.52-1.14,3.39-2.54Z"/><path class="cls-11" d="M247.35,114.28c-.61.72-1.41,1.12-2.33,1.2-1,.08-1.77-.19-2.49-.8-.72-.61-1.16-1.37-1.2-2.33-.12-.95.19-1.77.8-2.49s1.33-1.11,2.33-1.2c.91-.08,1.77.19,2.49.8.72.61,1.08,1.38,1.2,2.33.04.96-.19,1.77-.8,2.49ZM250.4,102.56l15.31-17.25c1.08-1.09,2.21-1.14,3.34-.11,1.09,1.08,1.1,2.17-.02,3.31l-15.34,16.91c-1.11,1.22-2.15,1.35-3.19.39-1.17-.99-1.18-2.08-.1-3.26Z"/><path class="cls-6" d="M212.31,132.04c-29.36-3.66-43.65,22.09-45.43,48.94-1.78,26.84-2.4,46.64-15.35,52.7,0,0,41.85,25.12,96.68,9.26,0,0-14.69-24.46-8.18-49.63,6.51-25.18.58-57.73-27.74-61.26Z"/><path class="cls-2" d="M165.42,241.06c-8.95-3.28-14.09-6.34-14.39-6.52-.32-.19-.5-.54-.48-.91.02-.37.24-.7.57-.85,11.77-5.51,12.92-23.29,14.51-47.9.08-1.3.17-2.63.26-3.97,1.21-18.27,7.86-33.68,18.26-42.26,7.76-6.41,17.28-8.97,28.28-7.6l-.12.99.12-.99c9.9,1.23,17.67,5.92,23.11,13.92,8.06,11.86,10.15,30.47,5.47,48.58-6.33,24.47,7.92,48.63,8.07,48.87.16.27.19.59.07.88s-.35.51-.65.59c-28.54,8.26-53.51,5.28-69.43,1.33-5.21-1.29-9.79-2.76-13.66-4.17ZM153.63,233.7c3.53,1.87,12.8,6.35,26,9.61,15.44,3.82,39.52,6.71,67.1-.99-1.19-2.19-3.81-7.4-5.99-14.47-2.65-8.57-5.08-21.57-1.66-34.8,4.55-17.57,2.56-35.56-5.18-46.95-5.1-7.51-12.41-11.91-21.71-13.07-10.44-1.3-19.44,1.11-26.77,7.16-9.97,8.24-16.37,23.13-17.54,40.85-.09,1.34-.17,2.66-.26,3.96-1.57,24.15-2.72,41.9-13.99,48.69Z"/><path class="cls-1" d="M264.2,188.67c-1.92,4.53-6.39,6.79-6.39,6.79-6.77,14.84-16.59,23.25-24.97,27.98-9.09,5.14-16.49,5.95-16.49,5.95l-2.6,16.78c2.1,3.73-.76,6.53-.76,6.53-24.84,4.18-43.42-8.37-43.42-8.37-1.12-1.31-.07-3.37,1.35-5.95,1.42-2.57,4.69-13.05,4.69-13.05-4.28-1.07-8.03-2.34-11.3-3.73-17.2-7.29-22.71-18.48-22.71-18.48-4.63.27-6.48-2.97-6.48-2.97h0c-.13-.01-2.56-.3-3.15-2.34-.62-2.1,1.1-3.38,1.1-3.38,0,0-.95-.91-.56-2.62.39-1.71,2.74-2.14,2.74-2.14,0,0-1.14-2.82,1.86-4.39,1.91-1,4.08.65,5.42,1.98h0s0,0,0,0c.33.33.6.63.81.88.28.32.43.53.43.53,5.98-2.57,4.9,5.3,4.9,5.3,8.96,8.19,14.86,11.62,20.94,13.2,7.47,1.96,15.22,1.14,29.3,2.96,12.04,1.56,21.5-.55,28.76-4.06,14.4-6.95,20.11-19.36,20.11-19.36-1.97-3.18-.57-12.78,1.53-13.39,2.1-.61,3.14,5.5,3.14,5.5,0,0,3.41-11.08,6.12-10.05,2.71,1.03-.07,8.11-.07,8.11,0,0,3.4-5.25,5.36-3.58,1.94,1.64-2.9,7.4-3.04,7.57.15-.13,5.45-4.52,6.92-2.91,1.42,1.57-3.57,5.52-3.95,5.82.35-.21,3.84-2.26,4.15-.38.33,1.98-3.74,5.27-3.74,5.27Z"/><path class="cls-1" d="M216.35,229.39l-2.6,16.78c2.1,3.73-.76,6.53-.76,6.53-24.84,4.18-43.42-8.37-43.42-8.37-1.12-1.31-.07-3.37,1.35-5.95,1.42-2.57,4.69-13.05,4.69-13.05-4.28-1.07-8.03-2.34-11.3-3.73.01-.22.63-8.65,5.29-14.42,5.56,1.46,11.29,1.37,19.67,1.99,1.15.08,2.35.18,3.6.3,1.88.17,3.88.39,6.03.67,2.69.35,5.26.51,7.7.52,1.25,0,2.46-.03,3.64-.11,6.84-.44,12.61-2.15,17.42-4.46.12.24,4.76,9.27,5.18,17.36-9.09,5.14-16.49,5.95-16.49,5.95Z"/><path class="cls-1" d="M199.16,219.68c-5.98-.34-10.63-4.14-10.38-8.49.04-.7.21-1.38.48-2.01,1.15.08,2.35.18,3.6.3,1.88.17,3.88.39,6.03.67,2.69.35,5.26.51,7.7.52,1.25,0,2.46-.03,3.64-.11.16.61.23,1.24.2,1.88-.25,4.35-5.3,7.6-11.28,7.25Z"/><path class="cls-7" d="M199.41,215.48c-3.81-.22-6.77-2.64-6.62-5.42.01-.2.04-.4.08-.6,1.88.17,3.88.39,6.03.67,2.69.35,5.26.51,7.7.52v.2c-.17,2.77-3.39,4.84-7.2,4.62Z"/><path class="cls-2" d="M179.95,250.43c-6.76-2.48-10.76-5.15-10.94-5.28-.19-.13-.33-.31-.39-.53-1.22-3.9,1.45-6.81,2.28-7.6l3.45-10.99c-3.71-.97-7.21-2.16-10.43-3.52-15.32-6.5-21.51-15.95-22.9-18.38-3.78-.01-5.79-2.15-6.48-3.08-.94-.21-2.92-.88-3.53-2.98-.51-1.74.18-3.04.78-3.78-.31-.66-.52-1.59-.26-2.72.34-1.47,1.6-2.23,2.53-2.59-.17-1.41.25-3.38,2.59-4.6,1.9-.99,4.18-.25,6.58,2.16.02.02.04.04.05.06.36.36.63.67.81.88,1.59-.53,2.9-.41,3.91.35,1.84,1.4,1.81,4.46,1.72,5.74,8.1,7.35,13.96,11.02,20.14,12.64,4.01,1.05,8.15,1.28,13.39,1.58,4.41.25,9.42.53,15.79,1.35,10.45,1.35,19.94.02,28.2-3.96,12.39-5.98,18.26-16.23,19.42-18.45-1.42-3.05-.81-8.9.32-11.86.55-1.44,1.22-2.26,2.05-2.5.58-.17,1.16-.08,1.68.25.82.51,1.43,1.64,1.86,2.79,1.08-2.84,2.8-6.56,4.63-7.45.57-.28,1.16-.32,1.72-.11.66.25,1.17.75,1.47,1.44.44,1,.42,2.38.21,3.7.63-.5,1.32-.87,2-.97.71-.1,1.36.08,1.9.54,1.26,1.07.89,2.9,0,4.69,1.54-.71,3.06-.96,3.98.05.38.42.55.95.51,1.55-.07.89-.69,1.89-1.49,2.84.14.03.27.07.39.13.56.26.93.77,1.04,1.43.38,2.24-2.67,5.03-3.9,6.05-1.79,4-5.35,6.26-6.44,6.89-5.75,12.45-14.24,21.92-25.25,28.14-7.58,4.29-13.96,5.62-16.11,5.97l-2.44,15.72c1.68,3.35.04,6.3-1.1,7.42-.15.14-.33.24-.53.27-13.03,2.19-24.33-.24-31.51-2.66-.58-.2-1.15-.4-1.7-.6ZM170.43,243.7c2.47,1.55,19.77,11.69,42.04,8.08.52-.64,1.81-2.61.4-5.11-.11-.19-.15-.42-.12-.64l2.6-16.78c.07-.45.43-.79.88-.84.07,0,7.33-.87,16.11-5.83,10.72-6.06,18.98-15.32,24.55-27.53.09-.21.26-.37.46-.48.04-.02,4.17-2.16,5.92-6.29.06-.15.16-.28.29-.39,1.68-1.36,3.46-3.43,3.39-4.28-.38-.03-1.41.29-2.66,1.03-.45.27-1.03.14-1.33-.29-.3-.43-.21-1.02.2-1.35,2.64-2.09,3.93-3.91,3.82-4.38-.47-.31-3.06.96-5.53,3.02-.4.33-.98.3-1.35-.06-.36-.37-.39-.95-.06-1.35,2.44-2.91,3.7-5.7,3.16-6.16-.08-.07-.16-.11-.32-.08-1,.15-2.72,2.14-3.56,3.44-.28.43-.84.58-1.29.35-.46-.23-.66-.78-.47-1.25.7-1.78,1.59-5.11,1-6.44-.11-.26-.24-.34-.36-.38t0,0s-.12.03-.13.04c-1.46.71-3.61,5.91-4.68,9.37-.14.44-.56.73-1.02.7-.46-.03-.84-.37-.92-.83-.43-2.49-1.37-4.62-1.86-4.71-.13.07-.61.61-1.06,2.25-.87,3.09-1.01,7.88.09,9.66.18.28.2.64.06.94-.24.52-6.03,12.82-20.59,19.84-8.61,4.16-18.48,5.55-29.32,4.15-6.3-.81-11.26-1.09-15.64-1.34-5.35-.3-9.58-.54-13.78-1.64-6.62-1.73-12.8-5.62-21.36-13.43-.24-.22-.36-.55-.32-.87.12-.88.21-3.58-.89-4.42-.54-.41-1.42-.35-2.62.17-.43.18-.93.05-1.2-.33,0,0-.14-.19-.38-.47-.16-.19-.42-.49-.76-.82-.02-.02-.04-.04-.05-.06-1-.99-2.82-2.47-4.2-1.75-2.06,1.07-1.52,2.8-1.4,3.14.11.28.08.59-.06.85-.15.26-.4.44-.69.5-.01,0-1.71.35-1.94,1.38-.25,1.1.27,1.67.29,1.69.21.2.32.48.3.77-.02.29-.17.56-.41.73-.11.09-1.14.93-.74,2.3.4,1.36,2.12,1.61,2.3,1.63.32.03.61.21.77.5.06.1,1.64,2.7,5.56,2.47.4-.02.78.2.95.56.05.11,5.59,10.96,22.2,18,3.41,1.45,7.17,2.69,11.15,3.69.27.07.49.24.63.48.13.24.16.53.08.79l-3.85,12.25c-.06.18-.17.35-.32.47-.11.09-2.69,2.31-1.98,5.34ZM212.99,252.7h0s0,0,0,0ZM266.94,183.53h0Z"/><path class="cls-2" d="M179.95,250.43c-6.76-2.48-10.76-5.15-10.94-5.28-.21-.14-.36-.37-.42-.62-1.03-4.78,1.34-6.94,2.34-7.61l3.42-10.89c-3.71-.97-7.21-2.16-10.43-3.52-.39-.17-.63-.56-.61-.98,0-.09.61-8.92,5.51-14.98.25-.31.65-.44,1.03-.34,4.01,1.05,8.15,1.28,13.39,1.58,1.91.11,3.89.22,6.1.38,1.13.08,2.35.18,3.62.3,2.01.19,4.05.41,6.07.67,2.57.33,5.12.51,7.57.51,1.16,0,2.37-.03,3.58-.11,6.11-.39,11.85-1.86,17.05-4.37.49-.23,1.07-.04,1.32.44.2.38,4.85,9.46,5.29,17.76.02.38-.18.74-.51.92-7.58,4.29-13.96,5.62-16.11,5.97l-2.44,15.72c1.68,3.35.04,6.3-1.1,7.42-.15.14-.33.24-.53.27-13.03,2.19-24.33-.24-31.51-2.66-.58-.2-1.15-.4-1.7-.6ZM170.47,243.72c2.6,1.62,19.84,11.65,42.01,8.06.52-.64,1.81-2.61.4-5.11-.11-.19-.15-.42-.12-.64l2.6-16.78c.07-.45.43-.79.88-.84.11-.01,7.06-.85,15.56-5.53-.5-6.29-3.49-13.11-4.61-15.47-5.19,2.36-10.87,3.76-16.89,4.14-1.26.08-2.51.12-3.71.11-2.54,0-5.17-.18-7.82-.53-1.99-.26-4.01-.48-5.99-.67-1.26-.11-2.46-.21-3.59-.3-2.18-.16-4.16-.27-6.06-.38-5.08-.29-9.15-.52-13.14-1.48-3.41,4.57-4.38,10.62-4.61,12.65,3.23,1.33,6.75,2.47,10.48,3.4.27.07.49.24.63.48.13.24.16.53.08.79l-3.85,12.25c-.08.26-.27.48-.52.6-.09.05-2.42,1.29-1.74,5.23ZM212.99,252.7h0s0,0,0,0Z"/><path class="cls-2" d="M174.62,225.28c.06-.4.25-.9.36-1.29.64-1.99,1.88-5.65,2.55-7.67.13-.36.68-.23.61.16-.44,2.48-1.14,6.31-1.52,8.77,0,.04-.02.11-.01.13,0,0-.57.6-.57.6-.55.59-1.55.08-1.42-.7h0Z"/><path class="cls-2" d="M215.36,229.28l1.62-8.55c.04-.2.23-.33.42-.29.18.03.3.19.29.37l-.36,8.69c-.12,1.41-2.19,1.18-1.98-.23h0Z"/><path class="cls-2" d="M194.73,219.78c-4.26-1.56-7.15-4.93-6.94-8.65.05-.81.24-1.6.56-2.35.17-.39.57-.63.99-.6,1.13.08,2.35.18,3.62.3,2.01.19,4.05.41,6.07.67,2.57.33,5.12.51,7.57.51,1.16,0,2.37-.03,3.58-.11.47-.03.9.28,1.03.74.19.72.27,1.46.23,2.19-.14,2.43-1.54,4.62-3.95,6.17-2.31,1.48-5.29,2.2-8.39,2.02h0c-1.56-.09-3.04-.4-4.38-.9ZM189.95,210.23c-.09.33-.15.67-.17,1.02-.22,3.79,4.02,7.12,9.44,7.43h0c2.68.16,5.24-.45,7.19-1.71,1.85-1.19,2.93-2.83,3.04-4.6.01-.26,0-.52-.02-.77-.96.05-1.91.07-2.83.06-2.54,0-5.17-.18-7.82-.53-1.99-.26-4.01-.48-5.99-.67-.98-.09-1.93-.17-2.83-.24Z"/><path class="cls-2" d="M196.46,215.89c-2.87-1.05-4.81-3.34-4.67-5.88.01-.26.05-.52.11-.77.12-.48.57-.81,1.06-.76,2.01.19,4.05.41,6.07.67,2.57.33,5.12.51,7.57.51.27,0,.53.11.72.31.19.2.29.46.28.73v.2c-.2,3.33-3.9,5.83-8.25,5.58h0c-1.03-.06-2-.27-2.89-.59ZM199.41,215.48h0s0,0,0,0ZM193.8,210.56c.22,2.01,2.68,3.75,5.66,3.92,2.77.16,5.25-1.09,5.95-2.84-2.17-.05-4.39-.22-6.63-.51-1.65-.21-3.32-.4-4.98-.57Z"/><ellipse class="cls-7" cx="165.73" cy="179.35" rx="6.16" ry="8.51" transform="translate(-47.91 61.06) rotate(-18.29)"/><ellipse class="cls-7" cx="236.31" cy="193.15" rx="8.51" ry="6.16" transform="translate(-50.65 297.08) rotate(-59.17)"/><path class="cls-2" d="M164.8,188.27c-.65-.24-1.29-.58-1.91-1.03-1.78-1.28-3.19-3.29-3.97-5.64-.78-2.36-.84-4.81-.18-6.9.7-2.2,2.12-3.76,3.99-4.38,3.75-1.24,8.14,1.8,9.78,6.78h0c1.65,4.98-.07,10.04-3.81,11.28-1.26.42-2.6.37-3.91-.11ZM165.99,172.31c-.88-.32-1.78-.37-2.63-.09-1.25.41-2.22,1.51-2.72,3.09-.54,1.69-.48,3.7.17,5.66s1.8,3.61,3.24,4.65c1.34.97,2.77,1.27,4.02.86,2.7-.89,3.84-4.82,2.55-8.75h0c-.89-2.7-2.71-4.71-4.63-5.42Z"/><path class="cls-2" d="M232.38,201.76c-.33-.12-.64-.27-.94-.45-1.7-1.01-2.74-2.84-2.95-5.14-.19-2.18.4-4.56,1.67-6.69,2.69-4.5,7.63-6.52,11.02-4.5,1.7,1.01,2.74,2.84,2.95,5.14.19,2.18-.4,4.56-1.67,6.69-1.27,2.13-3.08,3.78-5.1,4.65-1.75.75-3.48.85-4.98.3ZM239.55,186.41c-2.42-.89-5.72.82-7.68,4.09-1.06,1.77-1.55,3.72-1.4,5.49.15,1.65.85,2.93,1.98,3.6,1.13.67,2.59.69,4.11.03,1.63-.7,3.11-2.06,4.17-3.84,1.06-1.77,1.55-3.72,1.4-5.49-.15-1.65-.85-2.93-1.98-3.6-.19-.12-.4-.21-.61-.29Z"/><path class="cls-1" d="M169.24,162.12l-1.72,16.03s-12.53,24.42,29.63,31.45c42.02,7,39.43-18.33,39.43-18.33l2.89-19.56s5.66-28.79-34.4-32.94c-31.42-3.25-35.83,23.35-35.83,23.35Z"/><path class="cls-7" d="M169.45,161.11l-1.33,12.48s-.05.1-.14.31l1.26-11.78s.06-.36.22-1.01Z"/><path class="cls-7" d="M237.18,186.71l2.52-17.03c-.08,1.28-.23,2.03-.23,2.03l-2.27,15.37c0-.23-.02-.36-.02-.36Z"/><path class="cls-6" d="M197.15,209.6c-32.65-5.44-32.5-21.32-30.77-28.2-.09,7.78,4.68,19.2,31.36,23.64,29.46,4.91,36.99-6.07,38.86-13.08.04,4.03-1.62,23.94-39.46,17.63Z"/><path class="cls-7" d="M166.38,181.4c.04-3.71,1.19-6.59,1.6-7.5l-.46,4.25s-.64,1.24-1.14,3.25Z"/><path class="cls-7" d="M236.61,191.96c0-.44-.03-.69-.03-.69l.62-4.19c.03.75.02,2.61-.59,4.89Z"/><path class="cls-2" d="M204.86,196.72c-.95,1.61-2.51,2.83-5.08,2.57-2.43-.24-3.84-1.38-4.65-2.81-1.7-3.01-.7-7.32-.7-7.32,0,0,5.85,3.41,11.91,1.39,0,0,.06,3.58-1.48,6.17Z"/><path class="cls-5" d="M204.86,196.72c-.95,1.61-2.51,2.83-5.08,2.57-2.43-.24-3.84-1.38-4.65-2.81,1.08-1.48,3.16-2.36,5.43-2.1,1.84.21,3.39,1.1,4.3,2.34Z"/><path class="cls-2" d="M183.21,207.09c-8.23-3.02-13.76-7.29-16.52-12.77-3.92-7.79-.74-15.21-.15-16.46l1.7-15.86s0-.04,0-.06c.05-.28,1.2-6.98,6.34-13.36,4.74-5.89,13.9-12.55,30.58-10.82,14.32,1.48,24.53,6.23,30.36,14.11,6.82,9.22,5.06,19.29,4.93,19.99l-2.87,19.42c.08,1.1.36,8.29-5.64,13.92-6.72,6.31-18.48,8.11-34.96,5.36-5.21-.87-9.8-2.03-13.77-3.49ZM170.23,162.26l-1.71,16c-.01.12-.05.24-.1.35-.04.07-3.68,7.4.08,14.85,3.79,7.5,13.48,12.6,28.82,15.16,15.81,2.64,27,1.01,33.24-4.83,5.66-5.29,5.04-12.35,5.03-12.42,0-.08,0-.16,0-.25l2.89-19.56s0-.03,0-.05c.02-.1,1.81-9.84-4.59-18.47-5.48-7.39-15.22-11.86-28.94-13.28-12.64-1.31-22.31,2.06-28.76,10.02-4.69,5.78-5.89,12.03-5.97,12.47Z"/><ellipse class="cls-2" cx="186.48" cy="177.67" rx="7.21" ry="4.75" transform="translate(-10.8 343.27) rotate(-83.62)"/><path class="cls-2" d="M189.41,171.59s-2.03-1.88-6.52-1.6c-4.5.28-3.46.37-4.99-1.17,0,0,.27,3.15,5.75,3.49l5.76-.72Z"/><path class="cls-2" d="M215.42,178.17s.73-2.86,6.4-2.01c4.46.67,3.47.29,4.97-1.28,0,0-.2,3.15-5.68,3.62l-5.69-.32Z"/><ellipse class="cls-1" cx="188.52" cy="176.7" rx="2.26" ry="1.73" transform="translate(-8.02 344.43) rotate(-83.62)"/><ellipse class="cls-5" cx="184.57" cy="181.2" rx="1.11" ry="1.45" transform="translate(-62.46 104.55) rotate(-27.23)"/><ellipse class="cls-2" cx="218.03" cy="183.11" rx="7.21" ry="4.75" transform="translate(-23.3 334.19) rotate(-72.07)"/><ellipse class="cls-1" cx="216.63" cy="182.15" rx="2.35" ry="1.8" transform="translate(-23.36 332.2) rotate(-72.07)"/><ellipse class="cls-5" cx="218.96" cy="186.78" rx="1.35" ry="1.04" transform="translate(-61.9 249.62) rotate(-53.08)"/><path class="cls-2" d="M197.61,199.83c-1.46-.54-2.58-1.49-3.35-2.86-1.87-3.31-.84-7.84-.8-8.04.07-.31.29-.57.58-.69.29-.13.62-.11.9.05.05.03,5.55,3.16,11.09,1.3.3-.1.63-.05.89.13.26.18.42.48.42.8,0,.16.05,3.9-1.62,6.69-1.34,2.26-3.42,3.32-6.04,3.06-.75-.07-1.44-.23-2.07-.46ZM195.21,190.66c-.14,1.39-.17,3.64.79,5.33.77,1.37,2.04,2.13,3.88,2.31,1.84.18,3.18-.5,4.12-2.09,0,0,0,0,0,0,.83-1.39,1.14-3.15,1.26-4.33-4.22.92-8.11-.37-10.05-1.22Z"/><path class="cls-1" d="M238.87,210.99c-14.68-6.29-2.21-35.28-2.21-35.28-29.32.9-50.06-25.43-50.06-25.43-3.42,14.27-19.55,19.48-19.55,19.48,8.46,28.05-8.04,30.05-8.37,30.08,3.8-3.18,6.9-12.42,2.1-26.7-2.51-7.45-3.23-13.85-2.4-20.03.6-4.51,2.02-8.92,4.17-13.55.55-1.19,1.15-2.38,1.79-3.6,6.6-12.52,21.7-11.57,21.7-11.57,0,0,30.71-15.99,55.42,9.43,4.33,4.45,7.19,8.95,8.95,13.4,1.09,2.73,1.76,5.45,2.09,8.11h0c2.06,16.15-8.02,30.57-11.33,37.59-4.75,10.06-2.29,18.07-2.29,18.07Z"/><g class="cls-9"><path class="cls-5" d="M238.87,210.99c-14.68-6.29-2.21-35.28-2.21-35.28-29.32.9-50.06-25.43-50.06-25.43-3.42,14.27-19.55,19.48-19.55,19.48,8.46,28.05-8.04,30.05-8.37,30.08,3.8-3.18,6.9-12.42,2.1-26.7-2.51-7.45-3.23-13.85-2.4-20.03,5.96-.63,15.46-3.09,20.1-12.14,0,0-5.44,3.88-11.54,3.25,0,0,15.38-9.32,15.9-10.88-.39,3.72,23.26,38.44,55.01,34.54,0,0-19.89-2.47-30.96-19.73.4.31,25.16,16.78,37.07,15.25,0,0,10.56-.73,6.46-16.19,7.67,19.3-5.38,37.52-9.24,45.7-4.75,10.06-2.29,18.07-2.29,18.07Z"/></g><path class="cls-2" d="M158.32,200.79c-.25-.09-.47-.29-.58-.55-.17-.4-.06-.87.28-1.16,3.91-3.27,6.15-12.68,1.8-25.62-4.59-13.66-3.57-24.3,3.63-37.96,6.31-11.98,20.2-12.16,22.36-12.11,1.41-.7,8.67-4.05,18.59-4.81,10.04-.77,24.74,1.14,37.77,14.54,20.8,21.4,8.66,43.87,2.13,55.94-.89,1.65-1.66,3.08-2.23,4.28-4.53,9.6-2.27,17.28-2.24,17.36.11.37,0,.78-.29,1.04-.29.26-.71.33-1.06.17-6.47-2.77-8.96-10.06-7.2-21.08.96-6.03,2.91-11.56,3.89-14.08-14.27.14-26.71-6.64-34.74-12.47-6.61-4.79-11.27-9.62-13.37-11.94-3.77,11.54-15.39,16.75-18.79,18.05,3.15,10.94,2.91,19.25-.74,24.72-3.42,5.13-8.55,5.72-8.76,5.74-.15.02-.31,0-.45-.06ZM185.96,125.4c-.2-.01-14.55-.72-20.75,11.04-6.91,13.12-7.89,23.32-3.5,36.4,3.8,11.3,2.85,20.07-.1,25.01,1.37-.71,2.97-1.9,4.27-3.88,3.32-5.03,3.39-13.3.19-23.9-.16-.52.13-1.07.65-1.24.16-.05,15.65-5.22,18.89-18.76.09-.37.38-.66.75-.74s.76.05,1,.34c.05.07,5.49,6.68,14.27,13.04,8.05,5.84,20.65,12.66,34.98,12.02.34-.02.67.15.87.43.2.28.23.65.1.96-.03.07-3.09,7.25-4.33,15.07-1.42,8.96,0,14.97,4.23,17.91-.44-3.14-.63-9.34,2.79-16.59.59-1.25,1.37-2.7,2.28-4.38,6.28-11.62,17.97-33.24-1.81-53.59-10.01-10.3-22.16-14.99-36.11-13.95-10.46.78-18.06,4.68-18.14,4.72-.16.08-.34.12-.52.11h0ZM186.02,124.4h0s0,0,0,0Z"/><path class="cls-2" d="M179.98,163.11c3.6-4.56,11.12-3.99,13.14,1.76-4.65-3.44-7.75-3.37-13.14-1.76h0Z"/><path class="cls-2" d="M252.87,177.93c1.46.89,2.62,2.25,3.4,3.75.76,1.45,1.12,3.05,1.19,4.67.03.38-.54.48-.63.1-.09-.38-.16-.76-.27-1.13-.5-1.74-1.48-3.36-2.87-4.52-.49-.41-1.03-.78-1.61-1.04-.03-.01-.07-.03-.08-.03-.58-.04-1.01-.54-.97-1.11.03-.74.89-1.21,1.53-.85,0,0,.3.16.3.16h0Z"/><path class="cls-7" d="M142.62,191.13c-.96,1.43-3.46.17-3.6.1.1.09,1.66,1.55,1.14,2.97-.54,1.46-2.54,1.36-2.54,1.36,0,0,2.06,1.01,1.37,3.06-.69,2.05-3.86,1.52-3.86,1.52h0c-.13-.01-2.56-.3-3.15-2.34-.62-2.1,1.1-3.38,1.1-3.38,0,0-.95-.91-.56-2.62.39-1.71,2.74-2.14,2.74-2.14,0,0-1.14-2.82,1.86-4.39,1.91-1,4.08.65,5.42,1.98h0s0,0,0,0c.06.13,1.05,2.44.1,3.87Z"/><path class="cls-2" d="M133.75,200.83c-.99-.36-2.28-1.14-2.75-2.75-.51-1.74.18-3.04.78-3.78-.31-.66-.52-1.59-.26-2.72.34-1.47,1.6-2.23,2.53-2.59-.17-1.41.25-3.38,2.59-4.6,1.9-.99,4.18-.25,6.58,2.16.08.08.15.18.2.29.14.32,1.27,3,.02,4.86h0c-.54.81-1.38,1.12-2.29,1.12.14.54.16,1.13-.06,1.74-.29.78-.84,1.28-1.45,1.59.44.72.67,1.67.28,2.81-.75,2.22-3.41,2.43-4.91,2.2,0,0-.01,0-.02,0-.13-.01-.63-.08-1.25-.31ZM139.26,186.14c-.58-.21-1.17-.26-1.69.02-2.18,1.14-1.43,3.05-1.4,3.13.11.28.09.59-.05.86s-.4.45-.7.5c-.01,0-1.71.35-1.94,1.38-.25,1.1.27,1.67.29,1.69.21.2.32.48.3.77-.02.29-.17.56-.41.73-.11.09-1.14.93-.74,2.3.38,1.32,2.02,1.59,2.28,1.63.03,0,.06,0,.09.01.02,0,2.35.34,2.75-.85.38-1.13-.66-1.74-.87-1.84-.42-.21-.63-.69-.51-1.15.12-.45.54-.76,1.01-.74,0,0,1.29.03,1.56-.71.25-.68-.62-1.66-.87-1.88-.37-.33-.43-.89-.15-1.3.28-.41.82-.55,1.26-.34.74.36,2.01.74,2.34.24h0c.5-.74.12-2.14-.12-2.76-.62-.6-1.51-1.35-2.42-1.68Z"/><path class="cls-7" d="M148.67,193.98l-2.75,1.39s-3.05,1.18-4.11-.1c-1.06-1.28.53-3.81.53-3.81,0,0,.45-1.58.99-3.3.28.32.43.53.43.53,5.98-2.57,4.9,5.3,4.9,5.3Z"/><path class="cls-2" d="M148.66,195.01c-1.12.62-2.24,1.4-3.5,1.65-2.69.74-5.33-.31-4.61-3.51.2-.84.51-1.5.95-2.24l-.12.26c.35-1.13.72-2.24,1.08-3.36.2-.69,1.17-.85,1.59-.28,0,0,.46.6.46.6l-1.11-.3c1.22-.51,2.95-.87,4.22-.03,1.97,1.37,1.91,4.09,1.63,6.17-.02.12-.05.24-.12.34,0,0-.47.7-.47.7h0ZM148.66,193.08c-.12.18-.55.61-.55.8,0,0,0,0,0,0h0s0-.04,0-.04c.04-1.56-.03-4.76-2.08-4.81-.57,0-1.24.19-1.89.49-.37.17-.79.07-1.04-.22-.06-.07-.4-.47-.46-.54,0,0,1.6-.33,1.6-.33-.35,1.17-.59,2.38-1.01,3.52-.29.49-.57,1.12-.68,1.65-.07.37-.12.78.1,1.02.23.22.76.22,1.16.19.56-.05,1.23-.21,1.76-.4l-.09.04c1-.5,2.13-.95,3.19-1.37h0Z"/><path class="cls-2" d="M138.68,192.18s-.03-.01-.04-.02l-3.77-1.57c-.51-.21-.75-.8-.54-1.31.21-.51.79-.76,1.31-.54l3.77,1.57c.51.21.75.8.54,1.31-.21.5-.77.74-1.27.55Z"/><path class="cls-2" d="M132.72,195.36c-.47-.17-.75-.68-.62-1.18.13-.54.68-.86,1.21-.73l4.55,1.14c.54.13.86.68.73,1.21-.13.54-.68.86-1.21.73l-4.55-1.14s-.07-.02-.1-.03Z"/><path class="cls-2" d="M185.83,150.93c-2.58-3.55-3.76-7.98-3.83-12.32,0-.46.06-1.55.07-2.03,0,0,.16-1.34.16-1.34.04-.38.11-.96.21-1.33.15-.75.38-1.89.63-2.61,0,0,.38-1.28.38-1.28.13-.42.78-.27.68.18-.16.76-.45,1.82-.57,2.57-.06.47-.22,1.47-.27,1.93-.02.4-.09,1.52-.11,1.94.03.75.02,1.84.12,2.57.05.38.08.91.15,1.27.39,2.52,1.25,4.95,2.51,7.16.42.69.86,1.39,1.39,2,.89,1.03-.63,2.35-1.52,1.3h0Z"/><g class="cls-9"><path class="cls-5" d="M213.57,253.39c-24.84,4.18-43.42-8.37-43.42-8.37-1.12-1.31-.07-3.37,1.35-5.95,1.42-2.57,4.69-13.05,4.69-13.05-4.28-1.07-8.03-2.34-11.3-3.73-17.2-7.29-22.71-18.48-22.71-18.48-4.63.27-6.48-2.97-6.48-2.97h0c-.13-.01-2.56-.3-3.15-2.34-.33-1.14.02-2.04.41-2.62,2.07,1.75,5.31,3.85,9.18,4.03,0,0,14.89,16.53,35.3,19.85,0,0,3.89,12.95,15.07,16.56,0,0-6.97-.84-12.43-5.78,0,0-3.67,5.19-2.02,8.82,1.79,3.94,4.17,6.84,15.75,9.06,12.49,2.39,19.35-.11,21.71-9.3l-1.2,7.74c2.1,3.73-.76,6.53-.76,6.53Z"/></g><g class="cls-9"><path class="cls-6" d="M264.19,188.69c-1.92,4.53-6.39,6.79-6.39,6.79-6.77,14.84-16.59,23.25-24.97,27.98-7.14,4.04-14.79,4.86-17.08,5.26l.8-5.82c26.49-3.14,38.63-29.19,38.63-29.19,3.15-.8,6.71-6.85,6.71-6.85,2.16-.4,4.19-2.38,5.6-4.11.22.12.38.33.43.66.33,1.98-3.74,5.27-3.74,5.27Z"/></g><ellipse class="cls-5" cx="176.45" cy="184.34" rx="2.8" ry="4.28" transform="translate(-34.77 327.51) rotate(-80.38)"/><ellipse class="cls-5" cx="225.98" cy="189.8" rx="2.48" ry="3.79" transform="translate(12.26 393.3) rotate(-83.62)"/><path class="cls-1" d="M264.22,157.42c-.44-2.22-.19-4.6.88-6.79,2.6-5.32,9.02-7.53,14.34-4.93,5.32,2.6,7.53,9.02,4.93,14.34-2.6,5.32-9.02,7.53-14.34,4.93-1.48-.72-2.72-1.74-3.68-2.95l-5.04-.66,2.91-3.93Z"/><g class="cls-13"><path class="cls-1" d="M278.53,147.55c-4.97-2.43-10.9-.66-13.78,3.93.13-.36.28-.71.45-1.06,2.6-5.32,9.02-7.53,14.34-4.93,5.32,2.6,7.53,9.02,4.93,14.34-.17.35-.36.68-.56,1.01,1.84-5.09-.41-10.85-5.38-13.28Z"/></g><path class="cls-2" d="M270.72,166.35c-.38-.14-.75-.3-1.12-.48-1.46-.71-2.72-1.69-3.76-2.91l-4.65-.61c-.35-.05-.65-.27-.79-.6-.14-.33-.09-.7.12-.98l2.65-3.59c-.38-2.39-.03-4.79,1.04-6.98,1.37-2.81,3.76-4.92,6.72-5.94,2.96-1.02,6.14-.82,8.95.55,2.81,1.37,4.92,3.76,5.94,6.72,1.02,2.96.82,6.14-.55,8.95-1.37,2.81-3.76,4.92-6.72,5.94-2.57.89-5.31.85-7.83-.07ZM266.7,161.08c.17.06.32.17.44.32.9,1.13,2.03,2.03,3.34,2.67,2.33,1.14,4.97,1.3,7.43.46,2.46-.85,4.44-2.6,5.57-4.93,1.14-2.33,1.3-4.97.46-7.43-.85-2.46-2.6-4.44-4.93-5.57-2.33-1.14-4.97-1.3-7.43-.46-2.46.85-4.44,2.6-5.57,4.93-.94,1.93-1.22,4.06-.8,6.16.06.28,0,.56-.18.79l-1.9,2.57,3.36.44c.07,0,.14.03.21.05Z"/><g class="cls-10"><path class="cls-2" d="M264.2,157.31c1.9,3.34,5.33,5.76,9.44,6.2,4.56.49,8.82-1.56,11.34-5.02-.16.52-.36,1.04-.61,1.55-2.6,5.32-9.02,7.53-14.34,4.93-1.48-.72-2.72-1.74-3.68-2.95l-5.04-.66,2.91-3.93s-.01-.08-.02-.12Z"/></g><path class="cls-2" d="M272.55,151.33h0c1.19-.55,2.55.12,3.1,1.31l.09.19.19-.09c1.19-.55,2.66-.19,3.21,1h0c.55,1.19.03,2.6-1.16,3.15l-.19.09-3.74,1.73c-.31.15-.69,0-.83-.31l-1.73-3.74-.09-.19c-.55-1.19-.03-2.6,1.16-3.15Z"/><path class="cls-1" d="M79.21,116.63s-25.52,1.4-31.58,29.09c-1.3,5.95-2.25,11.96-1.46,18,1.11,8.45,2.33,24.98-4.24,29.45,0,0,3.79,6.41,11.9,9.68l3.54-3.5,1.3,5.35,2.19-2.08.42,2.25s26.56,9.17,60.76-8.18c34.2-17.35,23.25-24.03,23.25-24.03,0,0-7.51,1.71-14.92-20.73-7.27-22.01-17.46-43.56-51.16-35.28Z"/><path class="cls-3" d="M46.9,180.49c-.43,5.53-1.78,10.52-4.96,12.68,0,0,.39.66,1.19,1.66,2.69-3.02,3.63-8.6,3.77-14.35Z"/><path class="cls-5" d="M145.29,172.65s-7.51,1.71-14.92-20.73c-.35-1.07-.71-2.14-1.08-3.21-3.26,2.65-8.88,1.79-13.39-2.09,0,0,1.8,2.68,5.04,4.31,0,0-5.6-.88-10.72-8.3-1.57-6.05-3.84-12.07-6.9-14.06,0,0,2.97,8.21,1.61,15.51-4.11.96-20.12-.11-39.31,9.46,0,0-4.81-9.96-2.73-19.19,0,0-6.41,8.16-.99,21.11,0,0-2.97-4.84-3.33-10.2,0,0-1.12,5.11,2.04,12.56,0,0-1.76,11.06-13.56,17.16.11,7.48-.89,15.33-5.11,18.2,0,0,3.79,6.41,11.9,9.68l3.54-3.5,1.3,5.35,2.19-2.08.42,2.25s26.56,9.17,60.76-8.18c34.2-17.35,23.25-24.03,23.25-24.03Z"/><path class="cls-2" d="M112.88,201.86c-13.83,5.35-25.83,6.51-34.05,6.41-10.95-.12-17.59-2.38-17.87-2.47-.34-.12-.59-.41-.66-.76l-.08-.44-.85.81c-.26.25-.63.34-.97.24-.34-.1-.61-.38-.69-.72l-.88-3.63-2.28,2.26c-.28.28-.71.37-1.08.22-8.33-3.35-12.22-9.82-12.38-10.1-.27-.45-.14-1.04.3-1.33,6.25-4.26,4.75-21.35,3.81-28.5-.84-6.39.21-12.59,1.47-18.34,3.21-14.68,11.87-22.02,18.57-25.6,6.86-3.66,12.96-4.21,13.84-4.27,15.58-3.81,27.46-1.67,36.32,6.54,7.88,7.3,12.32,18.45,15.94,29.42,6.94,20.99,13.68,20.09,13.75,20.07.25-.06.52-.01.74.12.09.06,2.26,1.41,2.14,4.37-.22,5.75-8.79,12.95-25.46,21.41-3.28,1.67-6.5,3.09-9.62,4.29ZM62.16,204.08c1.79.53,7.88,2.1,16.79,2.19,9.83.1,25.2-1.64,42.65-10.49,20.95-10.63,24.26-16.9,24.36-19.7.05-1.3-.61-2.08-.97-2.41-.87.02-2.69-.24-5.03-2.22-3.86-3.28-7.41-9.75-10.54-19.23-7.25-21.95-17.08-42.71-49.97-34.63-.06.01-.12.02-.18.03-.11,0-6.33.41-13.17,4.09-9.16,4.92-15.04,13.07-17.48,24.22-1.22,5.58-2.24,11.57-1.44,17.65,1.18,8.97,2.17,24.41-3.88,29.8,1.19,1.66,4.58,5.79,10.32,8.29l3.07-3.03c.26-.25.63-.35.98-.25.35.1.61.38.7.73l.89,3.67.93-.89c.27-.25.65-.34,1-.23.35.11.61.41.68.77l.31,1.65Z"/><path class="cls-1" d="M72.31,208.37l-6.63,21.11-22.49-6.37c-5.29,2.87-10.15-.45-10.15-.45l-6.92-.24c-.57-.02-1.06-.38-1.26-.9-.04-.1-.07-.19-.08-.3-.11-.72.34-1.39,1.05-1.57l2.95-.74-4.8-1.59c-.46-.15-.82-.51-.98-.94-.09-.24-.13-.5-.1-.77.09-.72.66-1.29,1.38-1.38l4-.5-3.88-1.5c-.45-.17-.78-.52-.94-.94-.13-.35-.15-.74-.02-1.11.23-.69.9-1.15,1.63-1.11l5.65.3-3.2-2.98c-.2-.19-.35-.42-.45-.66-.19-.5-.16-1.08.13-1.56.46-.77,1.42-1.08,2.25-.72l9.63,4.23h0c-1.16-3.48-.02-5.49,1.71-5.16,1.86.35,4.72,7.84,4.72,7.84l26.79-1.99Z"/><path class="cls-6" d="M72.31,208.37l-11.13.83c.76,8.62-5.11,15.36-11.21,14-2.97-.66-4.41-1.54-5.1-2.26-.45-.47-1.19-.46-1.66,0-3.44,3.39-10.18,1.72-10.18,1.72,0,0,4.86,3.33,10.15.45l22.49,6.37,6.63-21.11Z"/><path class="cls-6" d="M37.21,206.93s-2.93,5.16,2.03,8.66c0,0-1.97-3.7.67-5.27,2.65-1.56-.42-2.36-.42-2.36l-2.28-1.03Z"/><path class="cls-2" d="M66.04,230.41c-.2.08-.42.09-.63.03l-22.11-6.27c-4.96,2.46-9.45.14-10.57-.53l-6.65-.23c-.96-.03-1.81-.64-2.16-1.54-.07-.18-.11-.35-.14-.52-.17-1.1.44-2.15,1.45-2.57l-1.58-.52c-.74-.25-1.32-.8-1.6-1.53-.16-.4-.21-.84-.15-1.26.15-1.17,1.07-2.1,2.25-2.24h.06s-.17-.07-.17-.07c-.69-.27-1.24-.82-1.51-1.51-.22-.57-.24-1.21-.04-1.8.37-1.11,1.46-1.85,2.63-1.79l2.9.16-1.19-1.1c-.31-.29-.55-.64-.7-1.03-.31-.8-.24-1.69.21-2.43.71-1.2,2.22-1.69,3.51-1.13l7.81,3.43c-.18-1.51.1-2.76.82-3.59.62-.72,1.53-1.02,2.5-.84,1.94.37,4,4.75,5.2,7.77l26.05-1.94c.33-.02.65.12.86.38.21.26.27.6.17.92l-6.63,21.11c-.09.3-.32.53-.59.63ZM42.83,222.17c.2-.08.42-.09.63-.03l21.55,6.11,5.9-18.77-25.32,1.89c-.44.03-.85-.23-1.01-.64-1.37-3.58-3.23-6.95-3.99-7.22-.33-.06-.49.07-.6.2-.39.45-.62,1.69.04,3.67.17.51-.09,1.06-.59,1.25-.25.1-.52.09-.77-.02l-9.63-4.23c-.36-.16-.79-.02-.99.32-.13.21-.15.46-.06.69.04.11.11.21.2.29l3.2,2.98c.31.29.4.74.24,1.12-.16.39-.55.63-.97.61l-5.65-.3c-.28-.01-.54.16-.63.43-.06.18-.03.34,0,.44.07.17.19.3.36.36l3.88,1.5c.43.17.69.6.63,1.05-.06.45-.41.81-.87.87l-4,.5c-.27.03-.48.24-.51.51-.01.1,0,.19.04.28.06.17.2.29.36.35l4.8,1.59c.42.14.7.54.68.99-.02.44-.33.82-.76.93l-2.95.74c-.2.05-.33.25-.3.45,0,.03,0,.05.02.09.06.15.2.25.36.26l6.92.24c.19,0,.37.07.53.17.18.12,4.45,2.93,9.11.4.04-.02.08-.04.12-.05Z"/><path class="cls-2" d="M39.09,215.39c-.21-.24-.44-.47-.63-.73-.18-.27-.39-.53-.52-.84-.32-.59-.49-1.28-.53-1.97-.04-.7.06-1.42.28-2.09.11-.34.24-.67.4-.99.08-.16.17-.32.26-.48.1-.16.18-.3.33-.49l-.21,1.07-.33-.89c-.19-.52.07-1.09.59-1.28.52-.19,1.09.07,1.28.59l.03.07.28.75.13.34c.11.29-.04.62-.33.73h0c-.06.04-.18.15-.26.23-.09.09-.19.19-.27.3-.18.2-.34.43-.48.66-.29.47-.5.98-.6,1.53-.1.54-.11,1.13.04,1.7.05.29.17.57.27.85.11.28.28.54.42.82h0c.02.06,0,.11-.04.13-.04.02-.08,0-.11-.02Z"/><path class="cls-1" d="M122.74,192.67l18.89,11.51,12.72-19.61c5.87-1.32,7.34-7.03,7.34-7.03l5.05-4.73c.42-.39.55-.99.36-1.5-.03-.1-.08-.19-.14-.28-.39-.61-1.18-.82-1.82-.49l-2.7,1.39,2.56-4.36c.25-.42.28-.92.12-1.35-.09-.24-.23-.46-.44-.64-.54-.48-1.35-.54-1.95-.13l-3.34,2.26,1.93-3.68c.22-.43.24-.9.09-1.32-.13-.35-.37-.65-.72-.85-.63-.37-1.43-.27-1.96.24l-4.05,3.95.44-4.35c.03-.27,0-.55-.1-.79-.18-.5-.59-.91-1.13-1.09-.85-.28-1.79.12-2.17.94l-4.46,9.52h0c-1.41-3.38-3.6-4.14-4.68-2.76-1.17,1.49,1.62,9.01,1.62,9.01l-21.47,16.14Z"/><path class="cls-6" d="M122.74,192.67l8.92-6.71c5.1,6.99,13.96,8.19,17.66,3.15,1.8-2.46,2.31-4.06,2.35-5.06.03-.65.59-1.13,1.24-1.09,4.82.28,8.79-5.41,8.79-5.41,0,0-1.47,5.7-7.34,7.03l-12.72,19.61-18.89-11.51Z"/><path class="cls-6" d="M148.2,168.46s5.61,1.95,4.17,7.85c0,0-.95-4.08-3.98-3.52-3.02.57-1.24-2.06-1.24-2.06l1.04-2.28Z"/><path class="cls-2" d="M141.99,205.12c-.28.11-.61.09-.88-.08l-18.89-11.51c-.28-.17-.46-.47-.48-.81-.02-.33.13-.65.4-.85l20.88-15.7c-1.09-3.07-2.43-7.72-1.21-9.27.6-.77,1.49-1.14,2.43-1.01,1.08.15,2.12.91,2.98,2.16l3.62-7.73c.6-1.27,2.06-1.9,3.39-1.46.82.27,1.46.88,1.75,1.69.14.39.19.81.15,1.23l-.16,1.61,2.08-2.03c.85-.82,2.15-.98,3.16-.39.53.31.94.8,1.15,1.38.25.7.2,1.47-.14,2.13l-.09.16.05-.03c.98-.67,2.29-.58,3.17.21.31.28.56.64.71,1.05.27.73.19,1.53-.2,2.2l-.84,1.44c1.04-.35,2.19.04,2.79.99.09.14.17.29.23.47.33.91.09,1.92-.61,2.58l-4.85,4.55c-.4,1.24-2.24,5.95-7.6,7.36l-12.51,19.28c-.12.18-.29.31-.48.39ZM124.52,192.59l16.8,10.24,12.19-18.79c.14-.22.36-.37.62-.43,5.18-1.17,6.54-6.1,6.59-6.31.05-.18.15-.35.28-.48l5.05-4.73c.12-.11.16-.28.1-.43-.01-.03-.02-.05-.03-.07-.12-.19-.34-.25-.53-.15l-2.7,1.38c-.4.2-.88.12-1.18-.2-.31-.32-.36-.81-.13-1.19l2.56-4.36c.09-.15.11-.33.04-.5-.03-.09-.09-.17-.16-.23-.21-.18-.5-.2-.72-.05l-3.34,2.26c-.38.26-.89.22-1.23-.08-.34-.31-.43-.8-.22-1.21l1.93-3.68c.08-.16.1-.34.03-.51-.04-.1-.11-.24-.28-.33-.24-.14-.56-.1-.76.09l-4.05,3.95c-.3.29-.75.37-1.13.18-.38-.18-.6-.58-.56-1l.44-4.35c.01-.12,0-.24-.04-.35-.08-.23-.26-.4-.5-.48-.38-.12-.79.05-.96.41l-4.46,9.52c-.11.23-.3.42-.54.51-.51.2-1.08-.05-1.29-.55-.81-1.93-1.79-2.71-2.38-2.79-.16-.02-.37-.01-.59.26-.38.68.44,4.45,1.77,8.05.15.41.02.88-.34,1.15l-20.29,15.26Z"/><path class="cls-2" d="M148.19,169.89l.34.89-.86-.67h0c.24.04.39.09.57.15.17.06.34.12.51.19.33.13.65.3.95.48.61.37,1.16.84,1.59,1.39.43.55.75,1.18.9,1.83.1.32.12.65.17.97.03.32,0,.65,0,.96,0,.05-.04.09-.09.09-.04,0-.08-.03-.09-.07h0c-.08-.32-.13-.62-.22-.91-.11-.28-.2-.57-.36-.82-.27-.53-.65-.96-1.09-1.3-.44-.34-.93-.59-1.46-.75-.26-.08-.53-.14-.8-.18-.13-.02-.27-.03-.4-.04-.12,0-.28-.01-.35,0-.29.11-.62-.03-.73-.32h0s-.13-.35-.13-.35l-.28-.75-.03-.07c-.2-.52.06-1.09.58-1.29.52-.2,1.09.06,1.29.58Z"/><path class="cls-2" d="M77.4,218.34c-.16,1.25-.32,2.49-.44,3.74-.13,1.25-.23,2.5-.31,3.74-.08,1.25-.14,2.5-.17,3.74-.03,1.24-.05,2.5-.01,3.72v.02c.02.55-.42,1.01-.97,1.03-.55.02-1.01-.42-1.03-.97,0-.04,0-.08,0-.11.11-1.3.27-2.54.44-3.81.18-1.26.37-2.51.6-3.75.22-1.25.46-2.49.73-3.72.26-1.24.56-2.46.86-3.68.02-.08.11-.13.19-.11.08.02.13.09.12.17h0Z"/><path class="cls-2" d="M129.09,223.44c-1.9-5.05-4.51-9.87-7.61-14.37-.08-.11-.05-.27.06-.35.11-.07.25-.05.33.05,3.52,4.23,6.62,8.86,9.05,13.88.24.5.03,1.1-.46,1.34-.5.24-1.1.03-1.34-.46-.01-.03-.03-.06-.04-.08Z"/><path class="cls-1" d="M134.75,174.38c-.21,4.49-3.8,7.97-8.02,7.78-.87-.04-1.7-.23-2.46-.55-1.78,11.2-13.15,21.1-28.18,23.47-13.52,2.14-26.09-2.42-32.23-10.71-.9.67-1.95,1.17-3.12,1.43-4.39.97-8.73-1.79-9.7-6.18-.83-3.73,1.05-7.43,4.34-9.05,0,0,1.9,5.62,7.64,7.1-3.93-7.1-4.55-18.15-4.55-18.15,4.79-6.65,5.71-15.41,5.71-15.41.44.89.75,1.4.75,1.4l6.03-3.36.98-6.01,2.63,4.92,1.88-.47,1.21-2.48.82,2.11c5.64-1.82,14.47-3.01,14.47-3.01l.47-2.25,1.52,1.79,2.47-.54-.02-5.26,3.95,4.61,6.44.58v-.9c4.93,7.17,11.26,11.54,11.26,11.54,3.74,8.88,3.6,18.12,3.6,18.12,3.41-3.07,4.09-8.97,4.09-8.97.25-.01.5-.02.76,0,4.22.19,7.48,3.99,7.27,8.48Z"/><path class="cls-5" d="M101.33,145.54l-3.95-4.61.02,5.26-2.47.54-1.52-1.79-.47,2.25s-8.82,1.19-14.47,3.01l-.82-2.11-1.21,2.48-1.88.47-2.63-4.92-.98,6.01-6.03,3.36s-.31-.51-.75-1.4c0,0-.05.44-.17,1.18,0,1.67,1.48,3.63,1.48,3.63l6.03-3.36.98-6.01,2.63,4.92,1.88-.47,1.21-2.48.82,2.11c5.64-1.82,14.47-3.01,14.47-3.01l.47-2.25,1.52,1.79,2.47-.54-.02-5.26,3.95,4.61,6.44.58-.52-3.14c-.03-.09-.05-.18-.08-.28l-6.41-.58Z"/><path class="cls-12" d="M144.54,207.24l-.28.3-14.25,15.5c-1.23,17.82,4.14,17.11,3.57,21.33-.02.12-.07.25-.17.37l-.05.06c-.1.13-.25.26-.43.39-.06.05-.12.09-.19.14h0c-.07.05-.14.09-.21.14h-.02c-.11.08-.22.14-.35.21-.09.05-.18.09-.27.14-.09.05-.19.1-.29.14-.05.03-.1.05-.16.07-.05.02-.1.05-.16.07-.05.02-.11.05-.16.07-4.26,1.85-13.45,4.02-22.83,5.87h-.02c-2.87.58-5.76,1.11-8.52,1.6h-.05c-9.59,1.71-17.76,2.84-18.88,2.66-2.87-.47-1.92-3.18-1.92-3.18-3.16-9.75-3.41-19.56-3.42-19.87h0s-11.55-1.94-11.55-1.94c-4.22-10.55-.54-23.46-.54-23.46,7.63-2.68,16.91-3.35,16.91-3.35.27.03.54.05.81.08,10.73.95,21.14-1.11,31.26-5.83l17.32-11.65c9.89,8.29,14.86,20.13,14.86,20.13Z"/><path class="cls-1" d="M133.57,244.38c-.02.12-.07.25-.17.37l-.05.06c-.1.13-.25.26-.43.39-.06.05-.12.09-.19.14h0c-.07.05-.14.09-.21.14h-.02c-.11.08-.22.14-.35.21-.09.05-.18.09-.27.14-.09.05-.19.1-.29.14-.05.03-.1.05-.16.07-.05.02-.1.05-.16.07-.05.02-.11.05-.16.07-4.26,1.85-13.45,4.02-22.83,5.87h-.02c-2.87.58-5.76,1.11-8.52,1.6h-.05c-9.59,1.71-17.76,2.84-18.88,2.66-2.87-.47-1.92-3.18-1.92-3.18-3.16-9.75-3.41-19.56-3.42-19.87h0s.3-14.8,5.63-28.67c.06-.15.12-.31.18-.46,10.27.86,20.63-.9,31.08-5.38,0,0,9.31,7.83,15.76,20.29.66,1.28,1.3,2.61,1.89,3.99-1.23,17.82,4.14,17.11,3.57,21.33Z"/><path class="cls-1" d="M86.47,205.49s5.85,9.48,14.36,7.24c7.87-2.08,8.94-12.35,8.94-12.35l-23.3,5.11"/><g class="cls-9"><path class="cls-6" d="M124.74,190.44l-12.38,8.32-.15.03.15-.03s1.51,1.27,3.74,3.6c4.11-3.36,7.13-7.48,8.64-11.92M129.68,187.12l-.62.42c.32-.03.63-.08.94-.15-.1-.09-.21-.18-.32-.27M71.62,205.72c2.33,1.51,4.98,2.73,7.85,3.62.51-1.66,1.08-3.33,1.72-4.98l-.9.16s-3.87.28-8.67,1.2"/></g><path class="cls-6" d="M81.28,204.14c-.03.07-.06.15-.09.22-.64,1.65-1.21,3.32-1.72,4.98,3.81,1.18,8,1.76,12.39,1.65-3.38-2.24-5.39-5.51-5.39-5.51l23.3-5.11s-.4,3.84-2.51,7.29c3.3-1.41,6.28-3.21,8.83-5.3-2.23-2.33-3.74-3.6-3.74-3.6l-.15.03c-9.88,4.4-20.21,6.11-30.93,5.35"/><path class="cls-6" d="M86.47,205.49s2.01,3.26,5.39,5.51c1.82-.05,3.68-.21,5.55-.51,3.02-.48,5.9-1.26,8.58-2.3.43-.17.85-.34,1.27-.52,2.11-3.46,2.51-7.29,2.51-7.29l-23.3,5.11"/><path class="cls-6" d="M126.39,179.13c-.87-.04-1.7-.23-2.46-.55-1.78,11.2-13.15,21.1-28.18,23.47-13.52,2.14-26.09-2.42-32.23-10.71-.9.67-1.95,1.17-3.12,1.43-4.16.92-8.28-1.52-9.52-5.52-.06.77-.01,1.57.16,2.36.97,4.39,5.32,7.15,9.7,6.18,1.17-.26,2.22-.76,3.12-1.43,6.14,8.29,18.71,12.85,32.23,10.71,15.03-2.38,26.4-12.27,28.18-23.47.76.32,1.59.51,2.46.55,4.22.2,7.81-3.29,8.02-7.78.05-1-.08-1.97-.35-2.88-.28,4.42-3.83,7.82-8.01,7.63Z"/><path class="cls-2" d="M105.05,203.7c-2.76,1.07-5.71,1.87-8.8,2.36-13.19,2.09-25.86-1.97-32.61-10.35-.83.49-1.73.85-2.68,1.06-2.38.53-4.83.1-6.89-1.21-2.06-1.31-3.48-3.34-4.01-5.73-.91-4.12,1.09-8.3,4.87-10.17.26-.13.56-.14.83-.03.27.11.47.33.56.6.01.04,1.27,3.59,4.67,5.53-2.98-7.01-3.5-15.8-3.52-16.21-.01-.23.05-.45.19-.64,4.59-6.36,5.52-14.84,5.53-14.93.05-.44.38-.8.82-.88.44-.08.88.14,1.07.54.09.17.17.33.24.48l4.73-2.64.9-5.53c.07-.42.4-.76.82-.83.42-.07.84.14,1.05.52l2.26,4.23.67-.17,1-2.06c.17-.36.54-.58.94-.56.4.02.75.27.89.64l.48,1.24c4.73-1.4,10.96-2.37,13.04-2.67l.33-1.56c.08-.37.36-.67.73-.76.37-.09.76.03,1.01.32l1.13,1.33,1.1-.24-.02-4.45c0-.42.27-.79.65-.94.39-.15.84-.03,1.11.29l3.69,4.3,4.95.45c.07-.35.33-.65.68-.76.42-.13.88.02,1.13.39,4.77,6.93,10.95,11.24,11.02,11.28.16.11.28.26.35.43,2.59,6.15,3.36,12.38,3.59,15.83,1.75-2.84,2.18-6.37,2.18-6.41.06-.48.45-.86.94-.88.32-.02.6-.02.86,0,2.31.11,4.45,1.16,6,2.98,1.54,1.8,2.33,4.12,2.21,6.54-.11,2.43-1.11,4.67-2.81,6.32-1.71,1.66-3.94,2.52-6.26,2.41-.56-.03-1.1-.11-1.64-.24-1.94,9-9.62,16.78-20,20.8ZM63.5,193.43c.16-.06.33-.08.51-.06.26.04.5.18.66.39,6.15,8.3,18.43,12.35,31.27,10.32,14.34-2.27,25.59-11.58,27.35-22.64.05-.3.23-.57.5-.72.27-.15.59-.17.87-.05.68.28,1.39.44,2.12.48,1.76.08,3.46-.58,4.77-1.85,1.33-1.29,2.11-3.06,2.2-4.97h0c.09-1.91-.53-3.74-1.73-5.15-1.16-1.35-2.73-2.16-4.44-2.27-.34,1.85-1.41,6.13-4.27,8.71-.3.27-.72.33-1.08.17-.36-.16-.59-.53-.59-.93,0-.09.09-8.96-3.41-17.45-1.15-.83-6.03-4.52-10.33-10.29-.07,0-.13,0-.2,0l-6.44-.58c-.26-.02-.5-.15-.67-.35l-2.18-2.55v2.54c.01.47-.32.88-.78.98l-2.47.54c-.36.08-.74-.05-.98-.33l-.2-.23-.05.25c-.09.41-.43.73-.84.78-.09.01-8.8,1.2-14.3,2.97-.49.16-1.03-.09-1.23-.56l-.2.42c-.13.27-.37.46-.66.53l-1.88.47c-.45.11-.91-.09-1.13-.5l-1.23-2.31-.5,3.09c-.05.3-.23.56-.5.71l-6.03,3.36c-.19.11-.4.14-.6.12-.59,3.05-2.04,8.6-5.32,13.31.14,1.9,1.01,11.26,4.4,17.38.19.35.16.78-.08,1.1-.24.32-.65.46-1.04.36-4.63-1.19-6.95-4.79-7.87-6.63-2.35,1.63-3.52,4.53-2.89,7.4.41,1.86,1.53,3.45,3.13,4.47,1.61,1.02,3.52,1.36,5.38.95,1-.22,1.92-.64,2.74-1.25.07-.06.15-.1.24-.13Z"/><path class="cls-2" d="M99.41,182.17s1.12,4.82-1.26,7.84c-.76.97-1.88,1.76-3.52,2.14-3.62.85-5.73-2.07-6.84-4.52-.74-1.61-1.03-3.02-1.03-3.02,0,0,6.1,1.63,12.64-2.45Z"/><path class="cls-5" d="M98.15,190.01c-.76.97-1.88,1.76-3.52,2.14-3.62.85-5.73-2.07-6.84-4.52,2.38-.23,6.75-.18,10.36,2.38Z"/><path class="cls-2" d="M95.93,192.62c-.35.14-.72.25-1.11.34-3.23.76-5.99-1.01-7.79-4.99-.76-1.67-1.07-3.13-1.08-3.19-.06-.28.03-.58.24-.78.21-.2.51-.27.79-.2.06.01,5.85,1.47,11.99-2.35.23-.14.51-.17.76-.06.25.1.43.32.49.58.05.21,1.18,5.25-1.41,8.55-.74.94-1.7,1.64-2.88,2.1ZM87.92,185.66c.15.47.36,1.03.63,1.62,1.48,3.26,3.46,4.63,5.89,4.05,1.31-.31,2.34-.93,3.05-1.84,1.44-1.83,1.43-4.49,1.27-5.99-4.57,2.47-8.76,2.41-10.85,2.16Z"/><ellipse class="cls-2" cx="75.31" cy="177.64" rx="5.93" ry="8.6" transform="translate(-27.28 14.23) rotate(-9.15)"/><ellipse class="cls-1" cx="75.5" cy="173.81" rx="1.78" ry="2.67" transform="translate(-26.67 14.21) rotate(-9.15)"/><ellipse class="cls-5" cx="74.21" cy="182.13" rx=".89" ry="1.19" transform="translate(-28.01 14.11) rotate(-9.15)"/><ellipse class="cls-2" cx="107.18" cy="170.79" rx="5.93" ry="8.6" transform="translate(-25.79 19.21) rotate(-9.15)"/><ellipse class="cls-1" cx="107.37" cy="166.96" rx="1.78" ry="2.67" transform="translate(-25.18 19.19) rotate(-9.15)"/><ellipse class="cls-5" cx="106.09" cy="175.27" rx=".89" ry="1.19" transform="translate(-26.51 19.09) rotate(-9.15)"/><path class="cls-2" d="M68.39,165.47c.3-1.16.86-2.2,1.64-3.13.79-.91,1.83-1.68,3.03-2.07,1.2-.4,2.48-.49,3.7-.31,1.22.16,2.38.53,3.46,1.02.5.23.72.82.5,1.32-.23.5-.82.72-1.32.5h0c-.95-.45-1.93-.81-2.92-1.01l-.37-.07-.37-.04c-.25-.04-.5-.04-.74-.05-.49,0-.98.05-1.46.16-.96.21-1.86.7-2.64,1.38-.39.34-.75.73-1.07,1.15-.33.41-.62.89-.86,1.35v.02c-.09.14-.26.2-.41.13-.12-.06-.18-.2-.15-.34Z"/><path class="cls-2" d="M108.25,157.47c-.4-.33-.86-.64-1.32-.89-.46-.26-.95-.48-1.44-.63-.98-.32-2-.4-2.97-.22-.48.09-.95.24-1.41.44-.22.11-.45.21-.66.35l-.32.19-.31.21c-.83.58-1.58,1.3-2.28,2.09-.37.41-1,.45-1.41.08-.41-.37-.45-1-.08-1.41h0c.79-.89,1.71-1.69,2.76-2.32,1.04-.65,2.26-1.08,3.51-1.19,1.26-.12,2.52.17,3.61.69,1.09.54,2.02,1.28,2.76,2.22.1.13.08.31-.05.41-.11.09-.26.08-.37,0l-.02-.02Z"/><path class="cls-2" d="M63.28,154.54c-1.12-2.54-1.93-5.19-2.34-7.92-.41-2.72-.34-5.53.34-8.19.05-.18.23-.29.41-.24.17.04.28.21.25.38h0c-.44,2.6-.28,5.26.32,7.8.6,2.54,1.57,5,2.82,7.28h0c.27.49.09,1.1-.4,1.36-.49.27-1.09.09-1.36-.4-.01-.02-.03-.05-.04-.07Z"/><path class="cls-2" d="M59.21,170.17c-.84.77-1.72,1.5-2.66,2.15-.94.65-1.94,1.23-3.01,1.64-.18.07-.39-.02-.46-.21-.06-.16,0-.34.14-.43h0c.9-.57,1.71-1.28,2.45-2.04.74-.77,1.42-1.6,2.05-2.46.33-.45.96-.54,1.41-.21.45.33.54.96.21,1.41-.04.05-.08.1-.13.14h0Z"/><g class="cls-9"><path class="cls-6" d="M130.01,223.05c-.59-1.38-1.22-2.71-1.89-3.99-1.49,3.8-3.09,9.15-3.28,14.93-.28,8.54,2.78,11.74-5.68,15.01-2.5.97-6,1.94-10.89,3.05,8.77-1.73,17.36-3.74,21.93-5.5.32-.12.62-.25.9-.37.05-.02.11-.05.16-.07.05-.02.11-.05.16-.07.05-.02.1-.05.16-.07.1-.05.2-.09.29-.14.09-.05.19-.09.27-.14.12-.06.24-.13.35-.19h.02c.07-.06.14-.1.21-.15h0c.07-.05.13-.09.19-.14.18-.13.33-.26.43-.39l.05-.07c.1-.13.15-.25.17-.37.11-.8,0-1.42-.23-2.02-.42-1.1-1.28-2.15-2.03-4.11-1.02-2.63-1.88-6.91-1.3-15.19Z"/></g><g class="cls-9"><path class="cls-6" d="M75.47,233.26s3.29,17.58,10.72,20.08c0,0-1.81.42-3.86.12,0,0,4.21,1.59,12.81.99,0,0-13.87,2.07-15.21,1.61s-1.04-2.92-1.04-2.92c0,0-3.26-8.79-3.42-19.87Z"/></g><path class="cls-2" d="M105.41,131.63c.62,1.04,1.07,2.11,1.48,3.21.4,1.1.73,2.24,1,3.38.25,1.15.47,2.31.61,3.48.09.59.11,1.17.17,1.76.04.59.06,1.18.09,1.77.03.55-.4,1.02-.95,1.05-.55.03-1.02-.4-1.05-.95,0-.03,0-.07,0-.1v-.05c.03-.56.07-1.12.09-1.68,0-.56.03-1.13,0-1.69-.01-1.13-.11-2.25-.24-3.37-.15-1.12-.35-2.23-.63-3.33-.28-1.09-.63-2.19-1.09-3.19v-.02c-.08-.15-.01-.33.14-.4.14-.07.31-.01.39.12Z"/><path class="cls-2" d="M56.15,174.91l1,2.48c.09.2.17.41.25.62l.26.61c.17.41.34.82.52,1.22.34.81.72,1.61,1.1,2.41.37.8.79,1.58,1.19,2.39h0c.04.09,0,.19-.08.23-.07.03-.15.02-.2-.04-.61-.67-1.17-1.4-1.64-2.18-.48-.77-.9-1.59-1.27-2.42-.36-.83-.68-1.69-.93-2.56-.25-.87-.45-1.76-.53-2.68,0-.09.06-.17.15-.18.08,0,.14.04.17.1h0Z"/><path class="cls-2" d="M123.49,160.98c.59.88,1.02,1.84,1.37,2.83.35.99.6,2.02.73,3.08.12,1.06.13,2.14-.04,3.2-.19,1.06-.57,2.1-1.18,2.98-.05.08-.16.09-.24.04-.06-.04-.08-.11-.07-.17h0c.21-1.02.33-1.98.37-2.95,0-.98-.05-1.95-.15-2.93-.22-1.96-.66-3.92-1.1-5.92h0c-.02-.1.04-.19.13-.21.07-.02.14.02.18.07Z"/><path class="cls-2" d="M102.27,213.31c-.38.15-.77.27-1.18.38-9.12,2.41-15.21-7.27-15.47-7.68-.29-.47-.14-1.09.33-1.38.47-.29,1.09-.14,1.38.33.07.12,5.59,8.82,13.26,6.8,7.12-1.88,8.19-11.39,8.2-11.49.06-.55.55-.95,1.1-.89.55.06.95.55.89,1.1-.04.43-1.12,9.98-8.49,12.83Z"/><path class="cls-2" d="M130.69,247.41c-11.44,4.42-47.15,10.37-50.05,9.89-1.44-.24-2.14-.96-2.48-1.52-.58-.98-.45-2.06-.32-2.62-2.64-8.3-3.22-16.45-3.34-19.04l-10.75-1.8c-.34-.06-.63-.29-.76-.62-4.29-10.74-.73-23.57-.57-24.11.09-.31.32-.56.63-.67,7.67-2.69,16.79-3.37,17.17-3.4.55-.04,1.03.37,1.07.93.04.55-.37,1.03-.93,1.07-.09,0-8.83.66-16.15,3.12-.59,2.39-2.86,12.94.43,21.8l10.99,1.84c.47.08.82.48.83.97,0,.1.24,9.94,3.37,19.58.07.21.06.43,0,.64-.07.21-.2.87.06,1.3.17.28.53.47,1.08.56,1.24.17,13.05-1.5,26.2-4.07,22.6-4.42,25.15-6.72,25.43-7.09.12-1.05-.23-1.68-.86-2.8-1.42-2.51-3.56-6.3-2.72-18.39.02-.23.11-.44.26-.61l14.09-15.32c-1.11-2.4-5.75-11.73-13.75-18.68l-16.69,11.22c-.46.31-1.08.19-1.39-.27-.31-.46-.19-1.08.27-1.39l17.32-11.64c.37-.25.86-.22,1.2.06,9.96,8.35,14.93,20.01,15.14,20.51.15.36.08.78-.19,1.06l-14.29,15.54c-.73,11.21,1.2,14.64,2.49,16.92.72,1.27,1.33,2.36,1.09,4.12-.07.54-.42,1.04-1.06,1.51-.59.44-1.56.91-2.82,1.39Z"/><path class="cls-2" d="M71.24,224.96l5.12,7.82c.3.46.17,1.09-.29,1.39-.46.3-1.09.17-1.39-.29-.03-.05-.06-.1-.08-.15l-3.7-8.58c-.04-.1,0-.22.1-.26.09-.04.19,0,.25.07Z"/><path class="cls-2" d="M130.95,213.42l.05,9.71c0,.55-.44,1.01-1,1.01-.55,0-1.01-.44-1.01-1,0-.05,0-.11.01-.17l1.54-9.58c.02-.11.12-.18.23-.17.1.02.17.1.17.2Z"/><path class="cls-2" d="M81.14,130.39l.55,3.4c.19,1.13.38,2.26.58,3.39l.62,3.38c.2,1.13.43,2.25.6,3.4h0c.01.09-.05.18-.14.19-.08.01-.15-.03-.18-.1-.88-2.16-1.45-4.42-1.84-6.7-.2-1.14-.35-2.3-.44-3.45-.1-1.16-.15-2.32-.09-3.48,0-.09.08-.16.18-.16.08,0,.14.06.16.14h0Z"/><path class="cls-2" d="M86.37,132.75c.17.63.32,1.26.46,1.89.14.63.27,1.26.4,1.89.13.63.24,1.26.36,1.9.1.64.21,1.28.25,1.94h0c0,.1-.06.18-.16.18-.07,0-.13-.03-.16-.09-.31-.59-.55-1.21-.75-1.84-.2-.63-.36-1.27-.47-1.92-.12-.65-.21-1.3-.26-1.96-.05-.66-.07-1.32,0-1.99,0-.09.09-.16.18-.15.07,0,.13.06.15.12h0Z"/><path class="cls-2" d="M97.19,131.57c.45.6.81,1.24,1.14,1.9.33.66.6,1.35.83,2.05.24.7.41,1.42.53,2.15.13.73.17,1.48.13,2.22,0,.09-.09.16-.18.16-.07,0-.13-.05-.15-.12h0c-.23-.7-.4-1.39-.61-2.08-.2-.69-.4-1.37-.61-2.05-.42-1.36-.9-2.71-1.36-4.08h0c-.03-.09.02-.19.11-.22.07-.02.15,0,.19.06Z"/><path class="cls-1" d="M36.22,170.99c.25-2.28-.22-4.66-1.5-6.78-3.1-5.14-9.78-6.79-14.93-3.69-5.14,3.1-6.79,9.78-3.69,14.93,3.1,5.14,9.78,6.79,14.93,3.69,1.43-.86,2.59-2,3.45-3.31l5.03-1.12-3.29-3.71Z"/><g class="cls-13"><path class="cls-1" d="M23.31,161.28c5.43-1.39,10.96,1.57,12.88,6.71-.06-.38-.13-.76-.23-1.14-1.49-5.82-7.42-9.32-13.23-7.83-5.82,1.49-9.32,7.42-7.83,13.23.1.38.22.75.35,1.11-.79-5.43,2.62-10.69,8.06-12.09Z"/></g><path class="cls-2" d="M29.67,180.91c-2.25.87-4.72,1.03-7.11.44-3.08-.76-5.68-2.68-7.31-5.39-1.64-2.72-2.12-5.91-1.36-8.98.76-3.08,2.68-5.68,5.39-7.31,5.6-3.38,12.92-1.57,16.3,4.03,1.28,2.11,1.85,4.51,1.68,6.96l3.01,3.39c.24.26.31.63.2.97-.11.34-.39.59-.73.67l-4.65,1.04c-.94,1.33-2.13,2.43-3.54,3.28-.6.36-1.23.67-1.87.92ZM21.87,160.6c-.54.21-1.06.46-1.56.76-2.26,1.36-3.85,3.52-4.48,6.08-.63,2.56-.23,5.21,1.13,7.47,1.36,2.26,3.52,3.85,6.08,4.48,2.56.63,5.21.23,7.47-1.13,1.27-.77,2.32-1.78,3.13-3,.14-.22.36-.37.62-.42l3.38-.75-2.17-2.44c-.19-.21-.28-.49-.25-.77.23-2.16-.24-4.29-1.36-6.16-1.36-2.26-3.52-3.85-6.08-4.48-1.99-.49-4.04-.36-5.91.37Z"/><path class="cls-6" d="M36.23,170.87c-1.62,3.55-4.86,6.3-8.98,7.12-4.57.91-9.04-.78-11.91-4.05.21.51.46,1.02.76,1.51,3.1,5.14,9.78,6.79,14.93,3.69,1.43-.86,2.59-2,3.45-3.31l5.03-1.12-3.29-3.71s0-.08.01-.12Z"/><path class="cls-2" d="M27.6,165.7h0c-1.22-.54-2.58.17-3.12,1.39l-.08.19-.19-.08c-1.22-.54-2.7-.15-3.24,1.07h0c-.54,1.22.01,2.64,1.23,3.18l.19.08,3.83,1.69c.32.14.7,0,.84-.32l1.69-3.83.08-.19c.54-1.22-.01-2.64-1.23-3.18Z"/></g></g></svg>