<?xml version="1.0" encoding="UTF-8"?><svg id="_레이어_1" xmlns="http://www.w3.org/2000/svg" viewBox="0 0 200 60"><defs><style>.cls-1{fill:#fff;}.cls-2{fill:#45a490;}.cls-3{fill:#d0e8d3;}</style></defs><rect class="cls-3" x="-.13" width="200" height="60"/><path class="cls-2" d="M26.45,22.05c-.72,0-.9.12-.9.84v8.97c0,.75.06.84.87.87,2.61.12,6.27-.21,8.88-.78.81-.18,1.62.33,1.8,1.38.21,1.2-.24,2.04-.96,2.25-2.55.81-7.29,1.26-11.88,1.02-2.31-.12-3.27-.87-3.27-3.33v-11.94c0-2.22.9-3.15,3.45-3.15h9c.99,0,1.47.9,1.47,1.95s-.48,1.92-1.47,1.92h-6.99ZM43.01,42.21c0,1.29-.96,1.86-2.25,1.86s-2.22-.57-2.22-1.86v-24.66c0-1.08.99-1.71,2.22-1.71s2.25.63,2.25,1.71v7.86h2.85c1.08,0,1.47.87,1.47,1.92s-.39,1.95-1.47,1.95h-2.85v12.93Z"/><path class="cls-2" d="M48.02,32.52c-.96,0-1.38-.99-1.38-1.89,0-.84.42-1.86,1.38-1.86h23.58c.96,0,1.38,1.02,1.38,1.86,0,.9-.42,1.89-1.38,1.89h-23.58ZM59.84,16.11c7.02,0,9.81,2.46,9.81,5.7s-2.79,5.7-9.81,5.7-9.84-2.46-9.84-5.7,2.85-5.7,9.84-5.7ZM69.56,40.89c0,2.91-.75,3.6-3.78,3.6h-11.82c-3.03,0-3.78-.69-3.78-3.6v-3.24c0-2.91.75-3.6,3.78-3.6h11.82c3.03,0,3.78.69,3.78,3.6v3.24ZM59.84,19.74c-3.75,0-5.16.9-5.16,2.07s1.41,2.07,5.16,2.07,5.16-.93,5.16-2.07-1.38-2.07-5.16-2.07ZM54.74,40.08c0,.66.09.75.93.75h8.4c.84,0,.93-.09.93-.75v-1.62c0-.69-.09-.78-.93-.78h-8.4c-.84,0-.93.09-.93.78v1.62Z"/><path class="cls-2" d="M95.42,36.87c0,1.14-1.17,1.65-2.37,1.65-1.29,0-2.37-.51-2.37-1.65v-3.45h-9.87c-.96,0-1.38-.99-1.38-1.86s.42-1.89,1.38-1.89h23.58c.96,0,1.38,1.02,1.38,1.89s-.42,1.86-1.38,1.86h-8.97v3.45ZM87.65,39.84c0,.63.06.69.72.69h12.63c1.05,0,1.44.84,1.44,1.89s-.39,1.92-1.44,1.92h-14.64c-2.31,0-3.45-.54-3.45-3.12v-4.2c0-1.14,1.14-1.71,2.37-1.71s2.37.57,2.37,1.71v2.82ZM102.2,24.57c0,2.58-.81,3.33-3.42,3.33h-12.3c-2.61,0-3.42-.75-3.42-3.33v-4.53c0-2.58.81-3.33,3.42-3.33h12.3c2.61,0,3.42.75,3.42,3.33v4.53ZM97.52,21.09c0-.63-.15-.75-.75-.75h-8.28c-.6,0-.75.12-.75.75v2.43c0,.63.15.75.75.75h8.28c.6,0,.75-.12.75-.75v-2.43Z"/><path class="cls-2" d="M107.57,22.23c-1.05,0-1.47-.96-1.47-1.95s.48-1.86,1.47-1.86h10.32c.99,0,1.5.9,1.5,1.86s-.45,1.95-1.5,1.95h-2.88v.93c0,5.67,1.56,8.4,3.96,10.35.9.72.9,2.04.18,2.91-.72.87-1.83.99-2.67.42-1.47-1.02-3.09-3.15-3.75-5.25-.6,2.04-2.19,4.5-3.75,5.49-1.11.69-2.13.21-2.7-.48-.63-.81-.69-1.98.15-2.79,2.31-2.25,4.11-4.74,4.11-10.56v-1.02h-2.97ZM124.97,41.76c0,1.23-.9,1.74-2.13,1.74s-2.13-.51-2.13-1.74v-12.9h-2.25c-1.05,0-1.56-.84-1.56-1.98,0-1.2.51-2.01,1.56-2.01h2.25v-6.87c0-1.02.96-1.59,2.13-1.59s2.13.57,2.13,1.59v23.76ZM131.06,42.3c0,1.23-.93,1.77-2.19,1.77s-2.16-.54-2.16-1.77v-24.84c0-1.02.96-1.62,2.16-1.62s2.19.6,2.19,1.62v24.84Z"/><circle class="cls-1" cx="170" cy="30" r="20"/><path class="cls-2" d="M166.6,44c-.77,0-1.54-.29-2.12-.88-1.17-1.17-1.17-3.07,0-4.24l8.88-8.88-8.88-8.88c-1.17-1.17-1.17-3.07,0-4.24,1.17-1.17,3.07-1.17,4.24,0l11,11c1.17,1.17,1.17,3.07,0,4.24l-11,11c-.59.59-1.35.88-2.12.88Z"/></svg>