<?xml version="1.0" encoding="UTF-8"?><svg id="_레이어_1" xmlns="http://www.w3.org/2000/svg" viewBox="0 0 200 60"><defs><style>.cls-1{fill:#fff;}.cls-2{fill:#fad5c0;}.cls-3{fill:#d5926d;}</style></defs><rect class="cls-2" width="200" height="60"/><path class="cls-3" d="M67.95,27.45c0-6.24,2.61-9.93,7.68-9.93s7.68,3.69,7.68,9.93-2.61,9.87-7.68,9.87-7.68-3.69-7.68-9.87ZM78.84,27.45c0-4.41-1.14-6.12-3.21-6.12s-3.18,1.71-3.18,6.12,1.14,6.06,3.18,6.06,3.21-1.68,3.21-6.06ZM90.99,42.21c0,1.29-.99,1.86-2.25,1.86s-2.25-.57-2.25-1.86v-24.66c0-1.08.99-1.71,2.25-1.71s2.25.63,2.25,1.71v24.66Z"/><path class="cls-3" d="M95.55,21.6c-1.05,0-1.44-1.02-1.44-1.95s.45-1.89,1.44-1.89h12.99c1.02,0,1.5.96,1.5,1.89s-.42,1.95-1.5,1.95h-4.08v.21c0,3.96,2.22,6.12,5.13,7.29,1.02.42,1.2,1.53.78,2.52-.48,1.08-1.35,1.59-2.79,1.14-1.86-.6-4.35-2.37-5.34-4.59-.93,2.34-3.24,4.11-5.4,4.92-1.35.54-2.31-.09-2.76-.96-.48-.93-.51-2.1.72-2.67,3.12-1.47,4.98-3.69,4.98-7.65v-.21h-4.23ZM98.43,35.76c0-1.11,1.17-1.68,2.4-1.68s2.34.57,2.34,1.68v4.05c0,.63.09.72.78.72h12.9c1.05,0,1.56.87,1.56,1.89,0,1.08-.51,1.92-1.56,1.92h-14.85c-2.31,0-3.57-.45-3.57-2.91v-5.67ZM113.07,17.52c0-1.08,1.08-1.68,2.25-1.68s2.25.6,2.25,1.68v17.52c0,1.32-.96,1.86-2.25,1.86s-2.25-.54-2.25-1.86v-8.13h-3.15c-1.05,0-1.53-.78-1.53-1.95s.48-1.98,1.53-1.98h3.15v-5.46Z"/><path class="cls-3" d="M141.96,36.87c0,1.14-1.17,1.65-2.37,1.65-1.29,0-2.37-.51-2.37-1.65v-3.45h-9.87c-.96,0-1.38-.99-1.38-1.86s.42-1.89,1.38-1.89h23.58c.96,0,1.38,1.02,1.38,1.89s-.42,1.86-1.38,1.86h-8.97v3.45ZM134.19,39.84c0,.63.06.69.72.69h12.63c1.05,0,1.44.84,1.44,1.89s-.39,1.92-1.44,1.92h-14.64c-2.31,0-3.45-.54-3.45-3.12v-4.2c0-1.14,1.14-1.71,2.37-1.71s2.37.57,2.37,1.71v2.82ZM148.74,24.57c0,2.58-.81,3.33-3.42,3.33h-12.3c-2.61,0-3.42-.75-3.42-3.33v-4.53c0-2.58.81-3.33,3.42-3.33h12.3c2.61,0,3.42.75,3.42,3.33v4.53ZM144.06,21.09c0-.63-.15-.75-.75-.75h-8.28c-.6,0-.75.12-.75.75v2.43c0,.63.15.75.75.75h8.28c.6,0,.75-.12.75-.75v-2.43Z"/><path class="cls-3" d="M154.11,22.23c-1.05,0-1.47-.96-1.47-1.95s.48-1.86,1.47-1.86h10.32c.99,0,1.5.9,1.5,1.86s-.45,1.95-1.5,1.95h-2.88v.93c0,5.67,1.56,8.4,3.96,10.35.9.72.9,2.04.18,2.91-.72.87-1.83.99-2.67.42-1.47-1.02-3.09-3.15-3.75-5.25-.6,2.04-2.19,4.5-3.75,5.49-1.11.69-2.13.21-2.7-.48-.63-.81-.69-1.98.15-2.79,2.31-2.25,4.11-4.74,4.11-10.56v-1.02h-2.97ZM171.51,41.76c0,1.23-.9,1.74-2.13,1.74s-2.13-.51-2.13-1.74v-12.9h-2.25c-1.05,0-1.56-.84-1.56-1.98,0-1.2.51-2.01,1.56-2.01h2.25v-6.87c0-1.02.96-1.59,2.13-1.59s2.13.57,2.13,1.59v23.76ZM177.6,42.3c0,1.23-.93,1.77-2.19,1.77s-2.16-.54-2.16-1.77v-24.84c0-1.02.96-1.62,2.16-1.62s2.19.6,2.19,1.62v24.84Z"/><circle class="cls-1" cx="30" cy="30" r="20"/><path class="cls-3" d="M33.4,44c-.77,0-1.54-.29-2.12-.88l-11-11c-1.17-1.17-1.17-3.07,0-4.24l11-11c1.17-1.17,3.07-1.17,4.24,0,1.17,1.17,1.17,3.07,0,4.24l-8.88,8.88,8.88,8.88c1.17,1.17,1.17,3.07,0,4.24-.59.59-1.35.88-2.12.88Z"/></svg>