<?xml version="1.0" encoding="UTF-8"?><svg id="_레이어_2" xmlns="http://www.w3.org/2000/svg" viewBox="0 0 80 80"><defs><style>.cls-1{fill:#863761;}.cls-2{fill:#fff;}.cls-3{fill:#cd5b93;}</style></defs><g id="_레이어_1-2"><rect class="cls-3" x="0" y="0" width="80" height="80" rx="40" ry="40"/><rect class="cls-1" x="5" y="5" width="70" height="70" rx="35" ry="35"/><path class="cls-2" d="M24.92,21.48c-.53,0-.66.09-.66.62v6.62c0,.55.04.62.64.64,1.92.09,4.62-.15,6.55-.58.6-.13,1.19.24,1.33,1.02.15.89-.18,1.5-.71,1.66-1.88.6-5.38.93-8.76.75-1.7-.09-2.41-.64-2.41-2.46v-8.81c0-1.64.66-2.32,2.54-2.32h6.64c.73,0,1.08.66,1.08,1.44s-.35,1.42-1.08,1.42h-5.16ZM37.14,36.35c0,.95-.71,1.37-1.66,1.37s-1.64-.42-1.64-1.37v-18.19c0-.8.73-1.26,1.64-1.26s1.66.46,1.66,1.26v5.8h2.1c.8,0,1.08.64,1.08,1.42s-.29,1.44-1.08,1.44h-2.1v9.54Z"/><path class="cls-2" d="M48.39,18.96v1.81c0,4.25,1.24,6.93,3.94,8.56.73.44.77,1.39.31,2.1-.49.71-1.22,1.04-2.17.44-1.35-.84-3.08-2.59-3.76-4.58-.69,2.06-2.37,3.98-3.89,4.87-.89.51-1.66.24-2.15-.4-.53-.71-.58-1.55.24-2.12,2.79-1.92,3.96-4.34,3.96-8.76v-1.93c0-.82.8-1.22,1.75-1.22s1.77.4,1.77,1.22ZM57.68,18.16v18.19c0,.95-.73,1.37-1.66,1.37s-1.66-.42-1.66-1.37v-18.19c0-.8.73-1.26,1.66-1.26s1.66.46,1.66,1.26Z"/><path class="cls-2" d="M36.83,60.98c.73,0,1.06.57,1.06,1.31s-.33,1.33-1.06,1.33h-11.68c-1.5,0-2.15-.6-2.15-2.04v-1.81c0-1.24.49-1.84,1.92-1.84h8.23c.38,0,.42-.02.42-.31v-.18c0-.26-.02-.31-.42-.31h-9.21c-.71,0-1.06-.57-1.06-1.28s.35-1.31,1.06-1.31h4.4v-.95h-6.99c-.71,0-1.02-.62-1.02-1.26s.31-1.26,1.02-1.26h17.39c.71,0,1.02.64,1.02,1.26s-.31,1.26-1.02,1.26h-6.93v.95h3.14c1.59,0,2.1.66,2.1,1.99v1.53c0,1.42-.44,2.12-2.1,2.12h-8.05c-.38,0-.42.04-.42.33v.13c0,.29.04.33.42.33h9.91ZM23.49,45.12c-.77,0-1.08-.66-1.08-1.37s.35-1.31,1.08-1.31h13.06c.73,0,1.11.62,1.11,1.31s-.33,1.37-1.11,1.37h-1.81v2.39h1.66c.73,0,1.08.66,1.08,1.35s-.31,1.28-1.08,1.28h-12.75c-.77,0-1.08-.58-1.08-1.28s.35-1.35,1.08-1.35h1.68v-2.39h-1.84ZM28.51,45.12v2.39h3.03v-2.39h-3.03Z"/><path class="cls-2" d="M40.99,57.44c-.44-.84-.18-1.81.42-2.08,3.85-1.64,6.4-4.23,6.48-7.99.02-.62-.04-.77-.66-.77h-5c-.73,0-1.2-.6-1.2-1.44,0-.77.46-1.42,1.2-1.42h6.86c1.62,0,2.32.38,2.32,2.21,0,5.8-2.9,9.82-8.3,12.15-.86.38-1.66.22-2.12-.66ZM57.68,61.56c0,.95-.73,1.37-1.66,1.37s-1.66-.42-1.66-1.37v-18.19c0-.8.73-1.26,1.66-1.26s1.66.47,1.66,1.26v18.19Z"/></g></svg>