<?xml version="1.0" encoding="UTF-8"?><svg id="_레이어_1" xmlns="http://www.w3.org/2000/svg" viewBox="0 0 512 512"><defs><style>.cls-1{fill:#cde5f8;}.cls-2{fill:#fff;}.cls-3{fill:none;}.cls-4{fill:#ededed;}</style></defs><rect class="cls-3" y="0" width="512" height="512"/><path class="cls-2" d="M90.16,402.21v-12.18c0-4.29,3.54-7.2,8.13-7.2s8.13,2.91,8.13,7.2v12.18c0,4.29-3.54,7.2-8.13,7.2s-8.13-2.91-8.13-7.2ZM102.34,402.42v-12.6c0-1.95-1.65-3.45-4.02-3.45s-4.02,1.5-4.02,3.45v12.6c0,2.01,1.65,3.45,4.02,3.45s4.02-1.44,4.02-3.45ZM111.61,410.07v-27.57h4.26v27.57h-4.26Z"/><path class="cls-2" d="M128.74,408.96v-3.42h2.7l-.66-17.49h3.63l.57,17.49h1.86l.6-17.49h3.6l-.69,17.49h2.7v3.42h-14.31ZM129.04,387.03v-3.42h13.71v3.42h-13.71ZM141.97,397.26v-3.66h3.39v-11.1h3.75v27.57h-3.75v-12.81h-3.39ZM151.42,410.07v-27.57h3.78v27.57h-3.78Z"/><path class="cls-2" d="M159.16,402.21v-12.18c0-4.29,3.54-7.2,8.13-7.2s8.13,2.91,8.13,7.2v12.18c0,4.29-3.54,7.2-8.13,7.2s-8.13-2.91-8.13-7.2ZM171.34,402.42v-12.6c0-1.95-1.65-3.45-4.02-3.45s-4.02,1.5-4.02,3.45v12.6c0,2.01,1.65,3.45,4.02,3.45s4.02-1.44,4.02-3.45ZM180.61,410.07v-27.57h4.26v27.57h-4.26Z"/><path class="cls-2" d="M188.59,404.37c3.03-1.41,7.29-5.25,7.32-13.05v-3.87h-6.72v-3.72h17.49v3.72h-6.69v3.87c.03,7.8,4.29,11.64,7.32,13.05v4.53c-3.72-1.32-7.74-4.68-9.36-9.12-1.62,4.44-5.67,7.8-9.36,9.12v-4.53ZM210.49,410.07v-27.57h4.26v27.57h-4.26Z"/><path class="cls-2" d="M218.32,398.88v-3.48h27.36v3.48h-27.36ZM219.91,392.49v-10.02h4.14v6.69h20.19v3.33h-24.33ZM219.91,410.07v-9.21h4.2v5.76h20.43v3.45h-24.63Z"/><path class="cls-2" d="M258.01,405.36c7.71-1.92,11.73-7.62,11.7-18.06h-11.55v-3.69h15.63v3.09c0,13.47-5.79,20.73-15.78,22.56v-3.9ZM278.08,410.07v-27.57h4.2v10.77h4.2v3.81h-4.2v12.99h-4.2Z"/><path class="cls-2" d="M287.32,409.41v-3.66h11.55v-5.31h4.26v5.31h11.55v3.66h-27.36ZM288.91,399.12v-9.75h19.98v-2.91h-19.98v-3.36h24.18v9.54h-19.98v3.06h20.28v3.42h-24.48Z"/><path class="cls-2" d="M326.32,409.41v-3.69h11.58v-5.67h4.2v5.67h11.58v3.69h-27.36ZM327.91,398.7v-15.75h4.2v4.14h15.78v-4.14h4.2v15.75h-24.18ZM332.11,395.22h15.78v-4.74h-15.78v4.74Z"/><path class="cls-2" d="M356.86,405.36c7.95-1.89,12.78-7.62,12.75-18.06h-12.6v-3.69h16.68v3.09c0,13.47-6.69,20.7-16.83,22.56v-3.9ZM378.49,410.07v-27.57h4.26v27.57h-4.26Z"/><path class="cls-2" d="M403.36,393.6v-11.1h3.75v27.57h-3.75v-12.81h-3.69v6.15c0,3.54-2.76,6-6.24,6s-6.27-2.46-6.27-6v-14.58c0-3.54,2.76-6,6.27-6s6.24,2.46,6.24,6v4.77h3.69ZM395.98,388.89c0-1.5-1.11-2.52-2.52-2.52s-2.52,1.02-2.52,2.52v14.46c0,1.53,1.11,2.52,2.52,2.52s2.52-.99,2.52-2.52v-14.46ZM409.42,382.5h3.78v27.57h-3.78v-27.57Z"/><path class="cls-2" d="M112.96,449.65v-3.66l8.01-.54v-5.94h4.08v5.7l8.61-.57v3.69l-20.7,1.32ZM113.89,435.85c3.87-.51,7.08-2.58,7.08-6.96v-.87h-6.9v-3.54h6.87v-2.64h4.14v2.64h6.87v3.54h-6.9v.87c0,4.38,3.18,6.42,7.08,6.96v3.72c-4.23-.39-7.71-2.22-9.12-5.37-1.44,3.15-4.95,4.98-9.12,5.37v-3.72ZM134.92,450.07v-27.57h4.26v27.57h-4.26Z"/><path class="cls-2" d="M143.14,434.89c3.54-.45,6.72-2.64,6.72-7.02v-1.17h-6.42v-3.54h16.8v3.54h-6.42v1.17c0,4.38,3.18,6.57,6.72,7.02v3.72c-3.87-.42-7.38-2.13-8.7-5.25-1.35,3.12-4.86,4.83-8.7,5.25v-3.72ZM144.76,443.74v-3.42h24.42v10.05h-4.29v-6.63h-20.13ZM158.8,432.19v-3.3h6.18v-6.39h4.2v16.68h-4.2v-6.99h-6.18Z"/><path class="cls-2" d="M172.84,449.65v-3.54l7.56-.51v-4.53h4.14v4.26l8.16-.54v3.54l-19.86,1.32ZM173.38,427.96v-3.36h6.96v-2.76h4.26v2.76h6.93v3.36h-18.15ZM178.18,429.43h8.61c2.31,0,4.32,2.31,4.32,5.22s-2.01,5.25-4.32,5.25h-8.61c-2.31,0-4.32-2.34-4.32-5.25s2.01-5.22,4.32-5.22ZM185.44,436.63c1.14,0,1.89-.99,1.89-1.98s-.75-1.98-1.89-1.98h-5.85c-1.17,0-1.92.96-1.92,1.98s.75,1.98,1.92,1.98h5.85ZM193.96,450.07v-27.57h4.2v10.77h3.72v3.81h-3.72v12.99h-4.2Z"/><path class="cls-2" d="M202.96,449.65v-3.66l8.16-.51v-6.54h4.17v6.24l8.37-.54v3.69l-20.7,1.32ZM204.43,437.71v-14.61h16.77v3.6h-12.54v7.38h12.84v3.63h-17.07ZM224.92,450.07v-27.57h4.26v27.57h-4.26Z"/><path class="cls-2" d="M255.07,422.5h4.2v27.57h-4.2v-12.78h-6.03v4.92c0,4.29-3.36,7.2-7.74,7.2s-7.74-2.91-7.74-7.2v-12.18c0-4.29,3.36-7.2,7.74-7.2s7.74,2.91,7.74,7.2v3.57h6.03v-11.1ZM245.05,429.79c0-1.95-1.53-3.42-3.75-3.42s-3.72,1.47-3.72,3.42v12.66c0,2.01,1.53,3.42,3.72,3.42s3.75-1.41,3.75-3.42v-12.66Z"/><path class="cls-2" d="M272.56,430.48v-1.62c0-4.2,3.66-6.39,8.16-6.39s8.16,2.19,8.16,6.39v1.62c0,4.2-3.66,6.36-8.16,6.36s-8.16-2.16-8.16-6.36ZM280.06,446.08c-1.02,2.1-3.66,3.72-7.26,3.99v-3.51c3.42-.48,5.22-2.79,5.22-5.37v-2.01h3.96v2.01c0,2.64,1.98,4.92,4.23,5.7,2.43-.78,4.35-3.15,4.38-5.82v-2.19h3.93v2.13c0,2.61,1.65,5.01,5.25,5.49v3.57c-3.45-.27-6.09-1.89-7.17-3.96-.99,1.98-3.33,3.72-6.39,4.41-2.97-.72-5.22-2.46-6.15-4.44ZM284.74,430.69v-2.01c0-1.92-1.74-3.03-3.99-3.03s-4.02,1.11-4.02,3.03v2.01c0,1.92,1.71,2.97,4.02,2.97s3.99-1.05,3.99-2.97ZM294.04,437.53v-15.03h4.26v15.03h-4.26Z"/><path class="cls-2" d="M301.72,437.14v-3.39h27.36v3.39h-27.36ZM302.89,428.56c5.82-.09,10.38-2.04,10.38-5.16v-1.08h4.26v1.08c0,3.12,4.59,5.07,10.38,5.16v3.27c-6.51-.09-10.95-1.98-12.51-4.38-1.62,2.4-6.06,4.29-12.51,4.38v-3.27ZM303.31,450.07v-11.37h4.14v2.25h15.9v-2.25h4.14v11.37h-4.14v-.78l-20.04.78ZM307.45,446.68l15.9-.54v-2.01h-15.9v2.55Z"/><path class="cls-2" d="M333.16,448.96v-25.5h4.29v21.33l13.23-1.08v3.81l-17.52,1.44ZM353.77,450.07v-27.57h4.26v27.57h-4.26Z"/><path class="cls-2" d="M362.92,448.96v-25.35h15.36v3.57h-11.16v17.76l12.51-1.08v3.66l-16.71,1.44ZM382.24,450.07v-27.57h4.2v10.77h4.44v3.81h-4.44v12.99h-4.2Z"/><path class="cls-2" d="M392.02,449.08v-3.96h3.96v3.96h-3.96Z"/><path class="cls-2" d="M79.66,488.96v-25.35h15.45v3.81h-11.16v17.4l12.99-1.08v3.78l-17.28,1.44ZM100.27,490.07v-27.57h4.26v27.57h-4.26Z"/><path class="cls-2" d="M109.06,488.96v-25.53h4.11v7.38h7.26v-7.38h4.08v25.53h-4.08v-1.32l-11.37,1.32ZM113.17,484.88l7.26-.81v-9.72h-7.26v10.53ZM129.46,490.07v-27.57h4.2v10.77h3.72v3.81h-3.72v12.99h-4.2Z"/><path class="cls-2" d="M139.06,482.21v-12.18c0-4.29,3.54-7.2,8.13-7.2s8.13,2.91,8.13,7.2v12.18c0,4.29-3.54,7.2-8.13,7.2s-8.13-2.91-8.13-7.2ZM151.24,482.42v-12.6c0-1.95-1.65-3.45-4.02-3.45s-4.02,1.5-4.02,3.45v12.6c0,2.01,1.65,3.45,4.02,3.45s4.02-1.44,4.02-3.45ZM160.51,490.07v-27.57h4.26v27.57h-4.26Z"/><path class="cls-2" d="M168.22,489.41v-3.75h27.36v3.75h-27.36ZM169.12,474.71c6.06-.42,10.65-4.86,10.65-8.73v-3.18h4.26v3.18c0,3.87,4.62,8.31,10.65,8.73v3.66c-6.06-.18-10.89-3.3-12.78-6.99-1.89,3.69-6.72,6.81-12.78,6.99v-3.66Z"/><path class="cls-2" d="M198.22,477.74v-3.12h27.36v3.12h-27.36ZM199.81,473.12v-6.48h20.01v-1.2h-20.01v-2.7h24.18v6.39h-20.01v1.29h20.16v2.7h-24.33ZM199.81,490.07v-6.75h20.01v-1.32h-20.01v-2.73h24.18v6.63h-20.01v1.38h20.46v2.79h-24.63Z"/><path class="cls-2" d="M237.46,489.65v-3.54l8.07-.51v-4.53h4.26v4.23l8.37-.54v3.57l-20.7,1.32ZM238.24,467.96v-3.36h7.23v-2.76h4.35v2.76h7.23v3.36h-18.81ZM243.07,469.43h9.21c2.31,0,4.35,2.31,4.35,5.22s-2.04,5.25-4.35,5.25h-9.21c-2.31,0-4.35-2.34-4.35-5.25s2.04-5.22,4.35-5.22ZM250.9,476.63c1.17,0,1.92-.99,1.92-1.98s-.75-1.98-1.92-1.98h-6.42c-1.17,0-1.95.96-1.95,1.98s.78,1.98,1.95,1.98h6.42ZM259.42,490.07v-27.57h4.26v27.57h-4.26Z"/><path class="cls-2" d="M267.64,475.79c3.51-.51,6.72-2.82,6.72-7.23v-1.86h-6.42v-3.54h16.8v3.54h-6.42v1.95c.03,4.32,3.21,6.63,6.72,7.14v3.72c-3.9-.63-7.41-2.31-8.7-5.52-1.32,3.21-4.83,4.89-8.7,5.52v-3.72ZM269.68,490.07v-9.21h4.23v5.73h20.28v3.48h-24.51ZM283,472.52v-3.33h6.48v-6.69h4.2v20.46h-4.2v-10.44h-6.48Z"/><path class="cls-2" d="M297.64,469.61v-3.45h4.89v-4.02h3.9v4.02h4.86v3.45h-13.65ZM298.06,476.96c0-3.54,2.88-5.85,6.42-5.85s6.42,2.31,6.42,5.85v6.57c0,3.54-2.88,5.88-6.42,5.88s-6.42-2.34-6.42-5.88v-6.57ZM307.21,483.32v-6.12c0-1.71-1.23-2.7-2.73-2.7s-2.73.99-2.73,2.7v6.12c0,1.68,1.26,2.67,2.73,2.67s2.73-.99,2.73-2.67ZM313.54,490.07v-27.57h3.75v10.95h3.03v-10.95h3.78v27.57h-3.78v-12.93h-3.03v12.93h-3.75Z"/><path class="cls-2" d="M347.77,490.37v-8.28h-11.55v-3.54h27.36v3.54h-11.55v8.28h-4.26ZM337.24,473c6.18-.09,10.14-3.69,10.38-6.24h-10.08v-3.54h24.72v3.54h-10.11c.3,2.55,4.23,6.15,10.41,6.24v3.48c-6.18-.09-10.98-2.82-12.66-6.24-1.68,3.42-6.48,6.15-12.66,6.24v-3.48Z"/><path class="cls-2" d="M366.52,484.22c3.03-2.46,5.01-6.36,4.98-13.77v-7.23h3.84v7.41c0,7.26,1.95,11.13,4.98,13.59v4.68c-3-1.8-5.79-4.77-6.9-8.58-1.11,3.81-3.9,6.78-6.9,8.58v-4.68ZM378.19,476.12v-3.69h4.92v-9.93h3.75v27.57h-3.75v-13.95h-4.92ZM389.32,490.07v-27.57h3.78v27.57h-3.78Z"/><path class="cls-2" d="M396.22,489.41v-3.69h6.21v-5.97h4.02v5.97h6.99v-5.97h4.02v5.97h6.12v3.69h-27.36ZM404.86,478.52c-4.41,0-7.53-3.42-7.53-7.77s3.12-7.8,7.53-7.8h10.08c4.41,0,7.53,3.45,7.53,7.8s-3.12,7.77-7.53,7.77h-10.08ZM414.07,474.98c2.43,0,4.17-1.74,4.17-4.23s-1.74-4.23-4.17-4.23h-8.34c-2.4,0-4.14,1.77-4.14,4.23s1.74,4.23,4.14,4.23h8.34Z"/><path class="cls-2" d="M426.52,489.08v-3.96h3.96v3.96h-3.96Z"/><path class="cls-1" d="M132.48,263.78c-3.62,0-6.55-2.93-6.55-6.55v-23.81c0-3.62,2.93-6.55,6.55-6.55s6.55,2.93,6.55,6.55v23.81c0,3.62-2.93,6.55-6.55,6.55Z"/><path class="cls-4" d="M407.78,307.82c-3.62,0-6.55-2.93-6.55-6.55V55.39c0-12.29-10-22.29-22.29-22.29h-111.89c-12.29,0-22.29,10-22.29,22.29v72.85c0,3.62-2.93,6.55-6.55,6.55s-6.55-2.93-6.55-6.55V55.39c0-19.52,15.88-35.39,35.39-35.39h111.89c19.52,0,35.39,15.88,35.39,35.39v245.88c0,3.62-2.93,6.55-6.55,6.55Z"/><path class="cls-4" d="M334.9,61.36h-23.81c-3.62,0-6.55-2.93-6.55-6.55s2.93-6.55,6.55-6.55h23.81c3.62,0,6.55,2.93,6.55,6.55s-2.93,6.55-6.55,6.55Z"/><path class="cls-1" d="M138.69,130.34c-1.7,0-3.34-.66-4.57-1.85l-12.56-12.21c-2.59-2.52-2.65-6.67-.13-9.26,2.52-2.59,6.67-2.65,9.26-.13l7.86,7.64,6.84-7.03c2.52-2.59,6.67-2.65,9.26-.13,2.59,2.52,2.65,6.67.13,9.26l-11.41,11.73c-1.21,1.25-2.87,1.96-4.6,1.98-.03,0-.06,0-.09,0Z"/><path class="cls-1" d="M138.11,120.65c-3.62,0-6.55-2.93-6.55-6.55,0-39.3,31.97-71.26,71.26-71.26,3.62,0,6.55,2.93,6.55,6.55s-2.93,6.55-6.55,6.55c-32.07,0-58.16,26.09-58.16,58.16,0,3.62-2.93,6.55-6.55,6.55Z"/><path class="cls-1" d="M378.94,336.66h-245.88c-19.52,0-35.39-15.88-35.39-35.39v-111.89c0-19.52,15.88-35.39,35.39-35.39h245.88c19.52,0,35.39,15.88,35.39,35.39v111.89c0,19.52-15.88,35.39-35.39,35.39ZM133.06,167.09c-12.29,0-22.29,10-22.29,22.29v111.89c0,12.29,10,22.29,22.29,22.29h245.88c12.29,0,22.29-10,22.29-22.29v-111.89c0-12.29-10-22.29-22.29-22.29h-245.88Z"/></svg>