<?xml version="1.0" encoding="UTF-8"?><svg xmlns="http://www.w3.org/2000/svg" xmlns:xlink="http://www.w3.org/1999/xlink" viewBox="0 0 500 500"><defs><style>.cls-1{mix-blend-mode:multiply;}.cls-1,.cls-2{fill:#f2f2f2;}.cls-3{fill:#fff;}.cls-4{fill:none;}.cls-5{fill:#84b64c;}.cls-6{isolation:isolate;}.cls-7{fill:#9e9e9f;}.cls-8{fill:#4c4a4a;}.cls-9{fill:#e8f3fb;}.cls-10{fill:#e5e5e6;}.cls-11{fill:#bbddf4;}.cls-12{clip-path:url(#clippath);}</style><clipPath id="clippath"><path class="cls-4" d="M469.5-124.34c6.07-84.07,6.13-195.77,6.13-195.77,0,0,22.13-114.46-33.15-145.17-33.42-18.57-117.13-18.15-117.13-18.15l-120.45-6.62s-113.5.96-152,43.75c-44.92,49.93-22.15,115.16-31.27,191.22-7.16,59.74,9.54,136.52,45.87,175.62,27.12,29.19,109.4,29.53,109.4,29.53,0,0,100.02-7.41,141-6.3,36.89,1,92.53,16.07,119.32-10.02,17.67-17.21,32.3-58.08,32.3-58.08Z"/></clipPath></defs><g class="cls-6"><g id="_레이어_1"><rect class="cls-4" width="500" height="500"/><g class="cls-12"><path class="cls-5" d="M466.32-5.4c-1.85-9.21,34.4-189.59,40.81-200.34,7.71-12.92,61.99-170.28,61.99-170.28,0,0-34.02-16.57-93.52-46.75l-59.11-.8c-30.11,5.14-114.82,47.02-124.54,56.45-35.4,34.35-4.64,86.26-4.64,86.26,0,0-42.16,126.7-31.84,158.76C403.39,293.52,475.85,42.03,466.32-5.4Z"/><path class="cls-11" d="M97.46-63.09c2.76-9.54,14.09-15.02,14.09-15.02,0,0,9.73,2.85,13.59,6.36,3.19-3.7,4.42-5.86,6.92-7.46,7.05-4.52,21.23-3.01,21.23-3.01,0,0,17.1,10.98,19.18,19.9,1.93-3.76,17.67-9.12,17.67-9.12,0,0,16.98,4.44,18.33,15.92,7.33-.18,6.36,19.51,6.36,19.51,0,0-3.53,8.85-6.1,10.98-2.21,1.83-7.76,4.2-11.01.42.39,8.11-2.77,14.64-5.62,17.95-4.87,5.66-4.18,6.81-10.62,9.41-7.3,2.95-16.45,1.8-23.37-1.93-2.75-1.48-4.51-3.52-8.35-10.5-5.24,7.17-15.12,15.04-23.09,15.74-7.76.68-20.93-3.68-25.04-12.33-1.62-3.41-2.91-13.54-2.35-17.57-3.61,1.01-5.26,2.54-9.02,1.57-5.91-1.52-14.55-13.16-14.55-13.16l1.12-20.06s4.83-7.69,12-7.69,8.62.08,8.62.08Z"/><path class="cls-9" d="M83.7-25.57c-.34.32-1.41-14.81-1.41-14.81,0,0,4.56-6.3,8.86-8.27,3.04-1.39,14.91,2.52,14.91,2.52,0,0,8.89-6.57,14.86-7.39,5.53-.76,12.34-.17,17.01,3.78,1.49,1.26,3.19,1.65,3.19,1.65,0,0,6.52-5.54,8.68-6.25,8.06-2.63,22.69,2.44,24.93,13.23,1.48-.21,4.71-1.48,4.71-1.48,0,0,9.41-.61,13.28,2.04,3.31,2.27,6.39,9.85,6.39,9.85,0,0-.94,4.09-1.18,6.11,2.52-.17,4.85.94,6.09,3.63,1.95,4.25-.27,9.06-2.76,12.27-2.33,3.01-5.31,5.38-8.48,7.03-1.76.92-7.34,4.21-7.34,4.21,0,0-18.27,12.25-30.26,9.04-3.02-.81-10.3-3.13-10.3-3.13,0,0-3.38,3.03-7,4.65-5.7,2.55-21.39-2.06-21.39-2.06L106.61.14l-7.98,2.26s-17.34.03-22.35-10.89c-1.05-2.29-.15-8.3.23-8.93,2.35-2.73,4.62-5.7,7.18-8.15Z"/><path class="cls-9" d="M16.45-53.32c-1.57-3.02-6.6-8.44-10.3-9.3-5.28-1.23-14.37,2.8-14.37,2.8,0,0-5.1,5.23-5.41,8.72-4.24-6.27-12.03-1.98-15.05,3.9-1.93,3.75-.74,11.16-.74,11.16,0,0,2.3,4.97,4.73,4.67-2.3,1.98-1.93,7.81-1.93,7.81,0,0,4.67,10.3,8.54,13.12C-11.35-5.54,1.18-4.84,1.18-4.84c0,0,6.28-2.34,9.06-2.34C19.27,11.9,45.4-.73,45.4-.73c0,0,4.46-3.63,8.72-2.4,5.14,1.48,11.75,2.99,16.72.03,3.03-1.8,7.24-8.04,7.24-8.04l8.74-1.26s7.63-6.67,10.08-14.93c1.37-4.62.46-15.01-2.36-18.94-2.86-3.99-6.28-5.64-10.61-4.21-1.38-5.43-14.93-7.39-14.93-7.39,0,0-12.67,2.27-15.86,7.37-1.8-3.96-11.75-8.33-11.75-8.33,0,0-7.84-.36-11.21-.36-2.85,0-13.72,5.87-13.72,5.87Z"/><path class="cls-9" d="M201.03-35.28c4.17-3.54,9.47-4.95,14.1-1.93.93.61,1.17.91,2.07.16,1.77-1.48-.09.46,4.86-5.29,4.95-5.75,19.82-3.87,19.82-3.87,0,0,3.76,1.86,5.32,3.4.59.58,1.09,1.48,1.91,1.39.88-.1,2.14-1.52,2.94-1.97,2.51-1.42,5.32-2.11,8.09-2.33,5.53-.43,16.63,6.1,16.63,6.1,0,0,.96,2.59,1.43,2.9.54.36,1.74-.33,2.29-.59,6.86-3.37,15.03,4.3,15.03,4.3,0,0,2.75,8.58.38,11.58,1.12.73,2.05,4.12,2.05,4.12,0,0-.11,6.75-1.57,9.68-1.96,3.95-6.35,7.36-10.02,8.63-1.97.68-5.92,1.02-5.92,1.02,0,0-2.02,2.62-4.07,4.18-3.46,2.62-7.33,4.05-7.33,4.05,0,0-18.29-.22-21.75-5.33-4.04,4.67-11.79,5.12-17.1,5.82-10.5,1.38-24.45-11.64-24.45-11.64l-10.8-5.62s-3.4-7.3-2.89-12.66c.31-3.27,4.31-12.12,8.98-16.09Z"/></g><path class="cls-2" d="M401.37,396.16c-32.75-7.82-71.75-7.77-106.01-8.41-55.06-1.04-108.45-.73-163.04,4-17.82,1.55-48.68,6.07-55.32,20.19-17.03,36.21,205.87,29.64,232.55,28.83,30.74-.93,104.84.17,113.86-24.63,3.73-10.3-6.77-16.35-22.04-19.99Z"/><path class="cls-7" d="M401.14,377.22s25.89,7.66,17.81,21.7c-6.08,10.57-55.69,11.42-55.69,11.42,0,0-99.32,3.95-102.58,4.14-3.26.19-31.51,4.5-73.77,4.11-22.96-.21-60.27-5.6-81.34-7.14-15.25-1.11-19.28-10.79-19.1-16.85.51-17.42,13.5-17.87,13.5-17.87,0,0-11.73-12.96-22.62-27.13-11.49-14.95-12.44-39.4-12.44-39.4-7.77-27.26-9.23-31.62-9.39-55.81-.82-117.58,87.58-193.66,195.6-193.66s180.61,66.2,188.64,147.58c1.4,14.2-.03,28.26,3.32,42.85,9.13,39.81-7.15,83.32-35.73,113.11l-6.21,12.95Z"/><path class="cls-10" d="M391.36,255.51c0,77.63-63.98,140.57-142.89,140.57s-142.89-62.93-142.89-140.57c0-83.61,63.98-140.57,142.89-140.57s142.89,55.49,142.89,140.57Z"/><path class="cls-3" d="M363.96,254.59c-2.69,62.82-52.13,113.85-116.43,113.85s-116.43-50.97-116.43-113.85,52.13-113.85,116.43-113.85,119.54,41.41,116.43,113.85Z"/><path class="cls-3" d="M291.86,129.47c-48.4-10.59-107.53,2.66-141.57,38.51-15.18,16-25.75,36.49-29.76,57.96-4.47,23.92-3.48,50.73,4.65,73.81,8.5,24.14,26.03,45.02,43.95,63.07,2.82,2.84.65,7.69-2.94,5.28-24.16-16.18-43.99-36.83-53.61-67.38-40.76-123.79,80.89-212.16,182.62-179.97,2.5.79,5.53,3.53,5.07,6.09-.69,3.82-5.62,3.23-8.42,2.62Z"/><path class="cls-1" d="M320.54,130.57c-4.19-2.24-7.51,6.23-2.99,9.35,53.96,37.31,81.12,111.29,42.59,175.9-40.12,67.29-105.87,78.32-180.2,56.08-5.41-1.62-8.25,3.29-2.16,6.1,33,15.2,64.43,19.85,93.36,14.69,37.2-6.62,74.38-23.59,99.72-67.19,41.44-71.3,15.68-159.66-50.32-194.93Z"/><path class="cls-1" d="M325.14,73.66c17.95,6.64,38.57,17.17,51.09,26.92,10.51,8.18,20.38,17.22,28.92,27.44,19.76,23.66,30.61,45.58,34.25,76.48,1.36,11.56.52,31.89,2.73,43.21,7.44,38.1.56,62.59-16.56,92-5.82,10.01-20.39,27.79-24.98,38.47,0,0,25.86,8.09,19.56,19.55-5.03,9.15-25.22,9.65-33.56,6.62-9.84-3.58-16.3-14.3-12.9-24.75,2.91-8.94,10.4-12.3,15.86-19.19,11.44-14.43,20.16-31.03,26.01-48.46,12.05-35.88,14.06-79.8,2.66-116.35-4.27-13.68-10.43-26.74-17.94-38.95-2.94-4.77-6.04-9.45-9.32-13.99-8.07-11.15-17.4-21.43-28.1-30.12-10.9-8.86-22.9-15.13-35.66-20.85-3.23-1.45-6.47-2.86-9.7-4.33-4.25-1.93-9.67-3.8-10.11-9.31-.65-8.17,13.33-6.03,17.72-4.41Z"/><path class="cls-3" d="M102.19,399.13c-1.94-3.74-2.96-6.22-.67-10.32,2.37-4.26-1.63-13.29-6.98-9.67-4.98,3.37-7.56,9.18-6.87,15.42.63,5.75,4.63,12.74,10.71,12.89,4.49.11,6.04-4.01,3.81-8.32Z"/><path class="cls-3" d="M280.7,63.6c-77.84-14.79-158.7,20.9-199.08,90.06-.91,1.56-1.8,3.14-2.67,4.73-7.83,14.42-14.19,27.38-18.11,43.16-4.31,17.36-6.35,35.27-6.14,53.15.13,11.58,1.96,22.84,4.03,34.11,1.35,7.32,4.98,14.02,6.17,21.39.94,5.84.9,11.81,2.17,17.6,1.26,5.77,3.7,11.22,6.7,16.28,5.9,9.92,14,18.49,20.61,27.77,2,2.8,3.79,6.73,7.46,7.6,3.39.81,7.6-4.85,7.65-8.01.05-3.21-1.81-6.1-3.74-8.66-6.85-9.08-15.81-16.73-21.01-26.98-4.01-7.91-5.1-16.77-6.21-25.45-.77-6.07-2.62-11.76-3.83-17.73-2.53-12.46-4.91-23.01-5.44-35.7-2.4-56.76,21.19-101.03,62.68-139.04,25.19-23.08,56.18-36,89.37-40.82,23.27-3.39,32.56-2.32,56.06-2.12,9.17.08,16.24-8.91,3.33-11.36Z"/><path class="cls-8" d="M398.93,409.52c6.09-.43,13.03-1.59,18.31-4.8,1.63-.99,3.19-2.22,4.15-3.9s1.48-3.94,1.69-5.88c.43-3.92-.89-7.5-3.56-10.35-4.11-4.4-10.27-6.7-15.85-8.55-1.2-.4-3.19-.28-3.86,1s.71,2.4,1.8,2.77c4.29,1.42,8.88,3.1,12.28,6.15,2.17,1.95,3.43,4.54,3.25,7.59-.1,1.64-.44,3.38-1.1,4.89-.53,1.21-1.5,2.14-2.47,2.75-2.89,1.85-6.07,2.64-9.5,3.33-.45.09-.91.17-1.36.26-.14.03-.72.12-.16.03-.2.03-.41.06-.61.1-.71.11-1.41.2-2.12.29-.67.08-1.34.15-2.01.2-1.2.08-2.7.86-2.39,2.27.31,1.41,2.31,1.95,3.52,1.86h0Z"/><path class="cls-8" d="M285.28,415.29c19.59-.83,39.21-.62,58.8-1.54,9.39-.44,18.75-1.38,28.14-1.8,9.21-.42,18.37-.89,27.46-2.55,3.87-.71.17-4.4-2.61-3.89-9.49,1.74-19.11,1.96-28.72,2.44-9.11.46-18.19,1.37-27.31,1.77-18.95.82-37.92.66-56.87,1.47-3.96.17-2.13,4.25,1.12,4.11h0Z"/><path class="cls-8" d="M119.57,415.17c13.2,1,26.29,2.99,39.45,4.33,13.63,1.39,26.93,1.4,40.6.74,28.56-1.39,57.08-3.65,85.65-4.94,3.99-.18,2.14-4.29-1.13-4.14-27.97,1.27-55.88,3.44-83.85,4.69-14,.63-27.67.61-41.62-.82-12.87-1.32-25.69-3.23-38.59-4.18-3.89-.29-4.46,4.02-.51,4.32h0Z"/><path class="cls-8" d="M98.04,374.3c-8.85,3.33-14.84,11.53-14,21.17.85,9.75,10.03,15.48,18.74,17.58,5.51,1.33,11.15,1.73,16.79,2.14,1.28.09,3.25-.24,3.46-1.81.2-1.49-1.73-2.48-2.94-2.56-7.84-.54-17-.56-23.75-5.18-6.03-4.14-7.77-11.54-5.1-18.19,1.72-4.27,5.02-7.7,9.35-9.36,3.59-1.38.13-4.8-2.55-3.8h0Z"/><path class="cls-8" d="M396.76,387.25c-.52,0-1.03-.17-1.47-.51-1.03-.81-1.2-2.3-.39-3.33,2.28-2.88,3.97-6.84,5.6-10.66,1.92-4.49,3.9-9.13,6.99-12.56,18.49-19.46,30.25-44.62,34.98-74.84,1.23-7.84-.02-17-1.34-26.7-.95-6.96-1.93-14.16-1.93-20.94,0-70.76-25.14-104.11-65.69-134.98-35.94-27.36-83.37-41.74-130.2-39.49-29.23,1.41-55.81,7.51-79.02,18.12-19.99,9.15-38,21.99-53.52,38.18-11.37,11.87-21.76,25.89-30.88,41.68-23.81,41.22-28.78,91.79-14,142.4,1.08,3.69,1.76,8.4,2.48,13.39.96,6.62,1.95,13.46,3.9,17.85,7.33,16.56,19.18,29.78,32.78,44.13.9.95.86,2.45-.09,3.35-.95.9-2.45.86-3.35-.09-13.9-14.67-26.03-28.23-33.67-45.47-2.21-4.99-3.25-12.16-4.26-19.09-.7-4.82-1.36-9.36-2.34-12.74-15.14-51.86-10.01-103.75,14.45-146.1,9.31-16.12,19.93-30.45,31.57-42.59,15.93-16.63,34.43-29.82,54.97-39.21,23.75-10.87,50.93-17.11,80.76-18.55,47.88-2.32,96.48,12.43,133.3,40.45,41.71,31.75,67.57,66.04,67.57,138.76,0,6.46.96,13.5,1.88,20.31,1.31,9.61,2.66,19.56,1.33,28.08-4.88,31.19-17.06,57.21-36.18,77.33-2.52,2.8-4.26,6.89-6.11,11.21-1.76,4.11-3.57,8.36-6.25,11.74-.47.59-1.16.9-1.86.9Z"/><path class="cls-8" d="M115.61,68.98c-14.81,1.75-24.6,11.98-33.05,23.42-5.03,6.81-11.02,12.1-17.34,17.67-5.83,5.15-10.21,11.98-13.23,19.11-1.23,2.89,2.58,4.8,4.39,2.37,4.42-5.95,7.44-12.56,13.09-17.57,5.77-5.11,11.6-9.98,16.23-16.2,8.08-10.85,16.7-21.72,30.69-24.6,2.48-.51,1.71-4.49-.76-4.19h0Z"/><path class="cls-8" d="M432.76,110.56c3.45,5.55,8.34,9.93,12.1,15.24,3.72,5.25,5.03,10.86,5.58,17.16.91,10.55,1.19,24.46,12.53,29.44,3.18,1.4,3.03-2.73,1.02-4.1-8.86-6.03-6.92-19.84-8.37-29.11-2.07-13.15-12-20.8-19.97-30.5-1.64-1.99-4.36-.53-2.88,1.87h0Z"/><path class="cls-8" d="M466.7,192.71c-.4,3.36-.02,6.67.41,10.01.2,1.57.46,3.14.64,4.72.21,1.77.19,3.65.78,5.34.32.92,1.3,1.48,2.24,1.18,1.1-.35,1.69-1.43,1.99-2.48.55-1.93.27-4.21.03-6.17-.18-1.51-.41-3.03-.7-4.52-.55-2.81-1.18-6-1.35-8.65-.07-1.1-.52-2.61-1.93-2.43s-1.97,1.81-2.11,3h0Z"/><path class="cls-8" d="M471.09,235.37c4.23,8.18,2.9,18.01,1.28,26.71-.85,4.58-1.87,9.12-2.71,13.7-.81,4.42-1.74,9.19-.91,13.67.5,2.69,4.87,3.34,5.49.38.96-4.58,1.23-9.31,2.09-13.92.94-5.02,2.04-10,2.78-15.06,1.39-9.51,1.72-19.39-3.49-27.88-1.81-2.96-6.17-.74-4.55,2.41h0Z"/><path class="cls-8" d="M43.5,154.19c-1.64,5.06-4.45,9.66-6.83,14.4-1.19,2.37-2.27,4.8-3.12,7.32-.88,2.62-1.78,5.78-1.28,8.56.47,2.59,4.11,2.31,4.78-.04.74-2.61.93-5.33,1.76-7.94.79-2.47,1.89-4.83,3.04-7.15,2.37-4.78,4.87-9.44,6.2-14.65.73-2.86-3.76-2.92-4.55-.5h0Z"/><path class="cls-8" d="M27,203.8c-1.94,10.39-5.34,20.56-6.72,31.05-1.42,10.75,2.9,21.19,6.45,31.14.85,2.38,4.97,2.02,4.73-.74-.44-5.25-2.58-10.13-4.02-15.14-1.51-5.26-1.92-10.38-1.07-15.79,1.59-10.06,5.11-19.88,4.88-30.15-.05-2.19-3.84-2.59-4.25-.36h0Z"/><path class="cls-8" d="M246.83,397.16c-42.99,0-83.98-19.03-112.49-54.27-11.8-14.58-20.72-31.85-25.82-49.94-8.39-29.81-6.79-62.19,4.52-91.18,12.23-31.35,35.08-57.06,64.33-72.39,34.73-18.2,77.34-22.09,116.93-10.66,23.41,6.75,43.91,18.71,59.28,34.59,27.66,28.56,38.54,65.94,39.5,91.4,2.95,78.32-46.15,125.05-93.08,142.66-17.57,6.59-35.55,9.79-53.17,9.8ZM248.73,117c-24.33,0-48.22,5.6-69.16,16.57-28.24,14.8-50.3,39.63-62.11,69.91-10.94,28.04-12.49,59.35-4.37,88.18,4.92,17.47,13.54,34.15,24.94,48.24,38.89,48.08,101.81,64.97,160.31,43.02,45.39-17.03,92.87-62.24,90.01-138.04-.93-24.58-11.44-60.69-38.17-88.28-14.8-15.28-34.57-26.81-57.19-33.33h0c-14.52-4.19-29.47-6.26-44.26-6.26Z"/><path class="cls-8" d="M140.92,210.82c30.14,11.86,59.94,24.62,89.46,37.93,3.51,1.59,5.97-3.78,2.57-5.3-29.59-13.17-59.43-25.86-89.59-37.66-3.38-1.32-5.72,3.73-2.44,5.02h0Z"/><path class="cls-8" d="M258.34,274.03c7.97,12.65,15.68,25.45,23.4,38.25,7.71,12.79,15.11,26.16,23.97,38.19,1.34,1.81,6.51.58,5.08-1.81-7.68-12.85-16.14-25.26-23.89-38.08-7.86-13-15.63-26.05-23.88-38.8-1.42-2.2-6.38-.45-4.67,2.26h0Z"/><path class="cls-8" d="M133.03,260.66c31.92-.86,63.86-.36,95.77-1.48,2.64-.09,2.71-4.44,0-4.5-32.15-.75-64.41-.45-96.55.5-3.74.11-2.91,5.58.78,5.48h0Z"/><path class="cls-8" d="M230.7,263.01c-27.73,15.56-55.82,30.43-83.67,45.79-3.26,1.8-.21,6.67,3.12,4.84,13.75-7.53,27.55-14.96,41.27-22.54,14.06-7.77,28.44-15.25,42.03-23.82,2.8-1.77.15-5.89-2.75-4.26h0Z"/><path class="cls-8" d="M236.68,271.5c-14.82,27.25-33.58,52.2-49.23,78.96-1.69,2.9,3.17,5.85,4.97,3.01,8.32-13.1,16.72-26.15,24.86-39.36,8.12-13.16,16.67-26.19,24.04-39.8,1.5-2.76-3.15-5.58-4.65-2.82h0Z"/><path class="cls-8" d="M247.33,142.57c.34,30.96.25,61.93.75,92.89.06,3.76,5.07,2.03,5.03-1.24-.35-30.93-.53-61.86-1.17-92.78-.07-3.45-4.64-1.85-4.61,1.13h0Z"/><path class="cls-8" d="M180.89,160.77c9.6,13.09,18.99,26.33,28.4,39.55,9.74,13.67,19.18,27.72,29.51,40.96,1.39,1.79,6.09,1.42,4.31-1.35-9.03-14.07-19.12-27.57-28.81-41.18-9.41-13.23-18.79-26.49-28.47-39.53-1.59-2.14-7.14-1.44-4.95,1.55h0Z"/><path class="cls-8" d="M307.93,156.93c-8.24,12.78-15.58,26.14-23.16,39.32-7.85,13.67-15.94,27.18-23.96,40.74-1.24,2.1,2.91,3.92,4.18,2.22,9.36-12.55,16.85-26.84,24.64-40.38,7.58-13.17,14.95-26.52,23.09-39.36,1.5-2.36-3.49-4.58-4.8-2.55h0Z"/><path class="cls-8" d="M248.18,277.2c-1.09,30-.11,60.03-.49,90.04-.03,2.73,5.52,2.67,5.6-.08.87-30,.12-60.03-.49-90.03-.05-2.26-4.54-2.2-4.62.07h0Z"/><path class="cls-8" d="M262.04,264.92c28.84,14.08,56.94,29.66,85.89,43.53,2.55,1.22,7.45-1.89,4.04-3.61-28.93-14.54-57.54-29.89-87.05-43.24-2.01-.91-5.53,2.02-2.88,3.32h0Z"/><path class="cls-8" d="M271.05,257.87c31.06.2,62.14.22,93.19.89,2.34.05,3.19-5.1.48-5.18-31.06-.98-62.16-.62-93.23-.42-2.14.01-2.9,4.7-.43,4.72h0Z"/><path class="cls-8" d="M272.58,247.06c28.52-12.72,57.07-25.45,85.3-38.8,2.27-1.07-.49-4.92-2.51-4.09-28.9,11.83-57.51,24.6-85.42,38.6-2.35,1.18.54,5.23,2.63,4.29h0Z"/><path class="cls-10" d="M272.02,254.49c1.96,19.23-24.07,28.42-36.48,14.64-6.34-7.05-7.4-18.46-1.69-26.74,5.13-7.42,14.05-10.28,22.7-7.82,8.91,2.53,15.3,9.15,15.46,19.92"/><path class="cls-8" d="M269.59,254.51c1.27,13.89-14.57,21.77-26.41,16.82-3.12-1.3-6.5-3.49-8.09-6.56-2.07-4.02-3.15-8.53-2.36-13.04,1.66-9.47,10.07-15.83,19.61-15.01,4.41.38,9.07,2.3,12.26,5.42,3.38,3.31,4.87,7.72,4.99,12.38.1,3.65,4.95,3.64,4.86-.03-.14-5.39-1.62-10.67-5.02-14.92-3.03-3.78-7.39-6.37-12-7.73-11.2-3.29-23.47,2.07-27.86,13.12-2.12,5.32-2.42,11.4-.72,16.88,1.45,4.67,4.64,9.36,8.51,12.41,6.43,5.07,15.82,5.55,23.21,2.45,8.94-3.76,14.78-12.4,13.89-22.21-.12-1.37-.87-2.88-2.45-2.88-1.41,0-2.53,1.58-2.41,2.92h0Z"/><path class="cls-8" d="M257.99,254.63c.64,6.32-7.92,9.35-12,4.81-2.09-2.32-2.43-6.07-.55-8.79,3.79-5.48,12.45-2.37,12.55,3.98"/><path class="cls-8" d="M248.08,370.95c-35.42,0-70.13-15.42-93.25-44-20.38-25.19-29.15-58.32-24.06-90.87,5.05-32.29,23.38-60.93,50.28-78.56,3.41-2.23,7.02-4.32,10.71-6.19,53.05-26.89,123.01-11.05,155.95,35.28,12.17,17.12,18.85,37.89,19.32,60.06h0c.98,46.52-24.83,91.22-64.21,111.22-17.38,8.83-36.16,13.08-54.74,13.08ZM248.02,142.92c-18.56,0-37.22,4.07-54.11,12.62-3.54,1.79-6.99,3.79-10.26,5.93-25.78,16.9-43.35,44.36-48.19,75.33-4.89,31.24,3.52,63,23.06,87.16,33.84,41.83,93.63,54.31,142.16,29.67,37.79-19.19,62.56-62.15,61.62-106.89-.45-21.22-6.82-41.07-18.44-57.41-21.17-29.78-58.3-46.42-95.84-46.42Z"/></g></g></svg>