<?xml version="1.0" encoding="UTF-8"?><svg xmlns="http://www.w3.org/2000/svg" viewBox="0 0 500 500"><defs><style>.cls-1{mix-blend-mode:multiply;}.cls-1,.cls-2{fill:#f2f2f2;}.cls-3{fill:#fff;}.cls-4{fill:none;}.cls-5{isolation:isolate;}.cls-6{fill:#9e9e9f;}.cls-7{fill:#4c4a4a;}.cls-8{fill:#e5e5e6;}</style></defs><g class="cls-5"><g id="_레이어_1"><rect class="cls-4" width="500" height="500"/><path class="cls-2" d="M424.64,421.13c-30.26-10.09-66.3-10.03-97.95-10.86-50.87-1.35-100.2-.94-150.65,5.17-16.46,2-44.98,7.83-51.12,26.07-15.74,46.76,190.22,38.27,214.87,37.23,28.4-1.2,96.87.22,105.2-31.8,3.45-13.3-6.25-21.11-20.36-25.81Z"/><path class="cls-6" d="M477.34,265.27c0,105.18-86.86,188.21-194,188.21s-194-83.03-194-188.21,81.56-189.08,194-190.45c120.5-1.47,194,85.27,194,190.45Z"/><path class="cls-8" d="M423.18,267.75c0,77.12-62.92,139.63-140.52,139.63s-140.18-62.52-140.52-139.63c-.37-82.62,62.92-139.63,140.52-139.63s140.52,55.12,140.52,139.63Z"/><path class="cls-3" d="M396.56,265.57c0,63.33-51.34,114.67-114.67,114.67s-114.67-51.34-114.67-114.67,51.34-114.67,114.67-114.67,114.67,45.27,114.67,114.67Z"/><path class="cls-3" d="M325.32,142.87c-47.53-10.51-103.32.72-139.01,38.2-15.02,15.77-25.29,36.19-29.23,57.49-4.39,23.72-3.41,50.32,4.56,73.21,8.35,23.94,25.16,45.64,42.77,63.54,2.77,2.82.64,7.62-2.89,5.24-23.72-16.05-43.26-37.38-52.25-67.82-38.42-130.07,79.43-210.43,179.33-178.5,2.45.78,5.43,3.5,4.98,6.04-.67,3.79-5.52,3.2-8.27,2.6Z"/><path class="cls-1" d="M353.48,143.96c-4.12-2.22-7.37,6.18-2.94,9.27,52.98,37.01,79.65,110.38,41.82,174.47-39.4,66.74-102.93,77.48-175.92,55.42-5.31-1.61-8.1,3.26-2.12,6.05,32.4,15.08,62.24,19.89,90.65,14.78,36.53-6.57,73.04-23.4,97.92-66.65,40.69-70.72,15.4-158.36-49.41-193.34Z"/><path class="cls-3" d="M252.05,77.14c29.79-4.18,64.71-4.59,96.43,6.99,2.29.83,3.63,3.17,2.92,5.64-1.42,4.94-8.96,3.67-12.6,2.99-31.95-6.04-65.81-5.99-97.81.24-63.7,12.46-115.41,66.23-131.27,128.49-10.13,39.74-5.68,83.24,12.28,120.11,14.46,29.69,36.88,56.43,63.48,75.97,3.26,2.39,6.6,4.66,9.96,6.92,2.92,1.96,4.42,5,2.49,6.64-4.67,3.98-14.03-2.69-18.73-5.62-7.22-4.49-13.59-9.25-20.1-14.75-10.51-8.88-21.22-19.17-29.62-30.02-18.4-23.78-32.54-55.32-37.46-85.03-7.37-44.44-.17-90.37,23.6-128.56,27.82-44.69,70.32-80.72,136.43-90Z"/><path class="cls-1" d="M348.76,424.17c-46.25,20.28-89.9,20.97-137.81,6.04-7.86-2.45-13.05,6.86-3.29,10.15,54.97,18.55,86.82,17.68,136.31,3.78,50.83-14.28,89.61-47.78,113.59-94.05,45.01-86.83,16.67-202.36-77.62-253.24-3.68-1.99-8.28-.34-9.77,3.57-.02.05-.04.09-.05.14-1.15,3.04,0,6.45,2.74,8.22,40.46,26.36,65.25,61.06,77.26,99.39,0,0,46.45,151.18-101.36,216Z"/><path class="cls-7" d="M45.42,38.49c9.48,11.2,19.47,21.94,29.54,32.6,11,11.64,21.58,23.91,33.16,34.97,2.02,1.93,6.1-1.12,4.26-3.46-9.82-12.49-21.44-23.73-32.39-35.23-10.19-10.7-20.28-21.48-30.21-32.42-1.95-2.15-6.3,1.26-4.36,3.54h0Z"/><path class="cls-7" d="M131.87,22.25c.34,10.38,1.17,20.77,1.83,31.13.69,10.86.85,22.31,3.25,32.94.58,2.55,5.49,1.49,5.57-.9.35-10.94-1.41-22.18-2.35-33.09-.89-10.31-1.6-20.69-3.02-30.94-.33-2.41-5.35-1.42-5.28.85h0Z"/><path class="cls-7" d="M21.82,125.09c10.16,2.27,20.41,4.24,30.62,6.29,10.78,2.17,21.8,4.79,32.78,5.58,1.27.09,2.75-.28,3.42-1.48.53-.96.28-2.31-.94-2.65-10.65-2.99-21.87-4.4-32.75-6.38s-20.9-3.9-31.41-5.38c-2.68-.37-5.15,3.24-1.71,4.01h0Z"/><path class="cls-7" d="M341.77,167.47c-8.27,12.97-15.78,26.42-23.49,39.73-7.99,13.79-16.22,27.42-24.31,41.15-1.19,2.02,2.81,3.77,4.02,2.13,9.39-12.77,17.02-27.12,24.97-40.81,7.72-13.3,15.25-26.74,23.43-39.76,1.43-2.28-3.36-4.41-4.61-2.45h0Z"/><path class="cls-7" d="M281.56,456.01c-7.71,0-15.45-.42-23.17-1.28-51-5.68-96.65-30.48-128.53-69.83-49.05-60.55-56.97-148.43-19.27-213.7,9.16-15.86,19.62-29.97,31.07-41.91,15.68-16.36,33.89-29.35,54.11-38.6,23.38-10.7,50.13-16.84,79.49-18.26,38.4-1.86,74.4,5.53,104.14,21.37,26.3,14.01,49,34.62,67.47,61.26,19.89,28.7,31.55,63.08,32.81,96.8,2.79,74.63-25.4,131.89-83.78,170.18-33.91,22.24-73.8,33.99-114.33,33.99ZM286.8,77.15c-3.74,0-7.5.09-11.29.27-28.72,1.39-54.84,7.38-77.64,17.81-19.64,8.99-37.33,21.61-52.58,37.51-11.18,11.66-21.39,25.44-30.35,40.95-36.69,63.52-28.95,149.07,18.83,208.04,68.29,84.3,185.51,84.55,259.39,36.09,56.81-37.26,84.24-93.04,81.52-165.8-1.23-32.78-12.56-66.2-31.92-94.13-18.26-26.34-39.75-45.86-65.71-59.69-26.01-13.86-57.02-21.07-90.25-21.07Z"/><path class="cls-7" d="M280.74,408.58c-42.38,0-82.79-18.94-110.84-53.95-24.58-30.69-35.11-71.02-28.9-110.66,6.13-39.14,28.16-73.85,60.46-95.23,15.59-10.32,33.73-17.31,53.92-20.78,37.73-6.48,71.77-1.79,98.42,13.57,12.32,6.36,24.93,17.22,32,24.59,27.23,28.4,37.94,65.57,38.88,90.88,2.93,78.35-45.85,124.81-92.47,142.16-17.01,6.33-34.41,9.41-51.47,9.41ZM287.4,130.14c-10.01,0-20.44.92-31.18,2.76-19.5,3.35-37,10.09-52,20.02-31.12,20.6-52.36,54.07-58.27,91.83-5.99,38.25,4.16,77.16,27.86,106.75,37.96,47.4,99.45,64.26,156.65,42.98,44.98-16.74,92.03-61.59,89.21-137.28-.91-24.4-11.24-60.22-37.49-87.61-6.81-7.11-18.94-17.56-30.73-23.63l-.1-.06c-18.11-10.45-39.84-15.76-63.94-15.76Z"/><path class="cls-7" d="M280.97,382.98c-34.71,0-67.82-15.51-90.79-44.19-20.13-25.14-28.76-58.18-23.68-90.65,5.02-32.06,23.07-60.49,49.53-78.01,22.86-15.14,70.06-35.75,129.24-3.63l.08.04c34.94,20.6,51.95,49.93,53.54,92.29,2.4,64.18-37.56,102.23-75.75,116.45-13.94,5.19-28.18,7.7-42.16,7.7ZM282.31,154.32c-26.14,0-47.7,9.51-63.52,19.98-25.28,16.74-42.54,43.93-47.34,74.61-4.87,31.08,3.38,62.7,22.64,86.74,30.85,38.51,80.81,52.21,127.3,34.92,36.55-13.6,74.78-50.06,72.49-111.56-1.51-40.48-17.73-68.49-51.03-88.14-22.11-11.99-42.42-16.56-60.53-16.56Z"/><path class="cls-7" d="M177.06,221.18c29.4,12.71,58.34,26.45,87.47,39.75,3.34,1.52,5.67-3.58,2.45-5.04-29.21-13.15-58.17-26.83-87.6-39.49-3.19-1.37-5.41,3.45-2.32,4.78h0Z"/><path class="cls-7" d="M291.82,286.22c7.84,12.55,15.7,25.1,23.43,37.72,8.05,13.15,15.46,26.88,24.05,39.67,1.34,2,6.75.69,5.37-1.91-7.23-13.56-15.96-26.53-24-39.63-7.86-12.81-15.78-25.59-23.91-38.24-1.5-2.33-6.73-.48-4.94,2.39h0Z"/><path class="cls-7" d="M170.18,273.73c30.92-.87,61.84-1.31,92.75-2.41,2.53-.09,2.6-4.27,0-4.33-31.15-.7-62.37.51-93.5,1.46-3.59.11-2.8,5.37.75,5.27h0Z"/><path class="cls-7" d="M265.11,274.65c-2.9,1.04-5.62,3.14-8.27,4.7-3.27,1.93-6.5,3.91-9.76,5.86-7.31,4.36-14.68,8.64-22.07,12.86-14.11,8.04-28.27,15.99-42.45,23.91-3.13,1.74-.2,6.42,3,4.65,14.2-7.87,28.28-15.95,42.27-24.18,7.17-4.22,14.34-8.45,21.47-12.74,5.83-3.5,13.16-6.84,18-11.67,1.51-1.51-.24-4.09-2.19-3.39h0Z"/><path class="cls-7" d="M270.74,283.68c-14.56,27.06-33.01,51.87-48.41,78.44-1.62,2.79,3.05,5.63,4.77,2.89,8.17-13.02,16.44-25.98,24.45-39.1,7.99-13.07,16.4-26.02,23.65-39.53,1.43-2.66-3.04-5.36-4.47-2.7h0Z"/><path class="cls-7" d="M280.48,152.9c.35,31.27.65,62.53,1.16,93.8.06,3.64,4.91,1.96,4.87-1.2-.36-31.24-.93-62.47-1.57-93.7-.07-3.34-4.5-1.79-4.47,1.1h0Z"/><path class="cls-7" d="M215.01,172.96c9.54,13.14,18.94,26.38,28.36,39.61,9.74,13.69,19.19,27.71,29.44,41.02,1.34,1.74,5.89,1.38,4.18-1.3-8.98-14.1-19.08-27.61-28.76-41.23-9.41-13.24-18.8-26.51-28.42-39.6-1.53-2.08-6.9-1.41-4.79,1.5h0Z"/><path class="cls-7" d="M282.05,288.66c-1.06,30.52-.41,61.07.14,91.59.05,2.63,5.39,2.56,5.38-.08-.08-30.53-.52-61.05-1.09-91.58-.04-2.17-4.36-2.11-4.44.06h0Z"/><path class="cls-7" d="M296.68,276.71c28.63,14.12,56.17,30.43,84.89,44.37,2.47,1.2,6.13-2.37,2.83-4.05-28.71-14.58-55.65-30.12-84.94-43.53-1.95-.89-5.35,1.95-2.79,3.22h0Z"/><path class="cls-7" d="M302.51,270.24c31.16.25,62.44,1.31,93.56,2.84,2.46.12,3.37-5.3.5-5.48-31.1-1.86-62.45-2.52-93.61-2.35-2.26.01-3.07,4.96-.46,4.98h0Z"/><path class="cls-7" d="M304.73,258.26c28.28-12.68,57.28-23.96,85.25-37.31,2.39-1.14-.52-5.2-2.65-4.33-28.73,11.79-57.65,23.03-85.38,37.1-2.48,1.26.57,5.53,2.78,4.54h0Z"/><path class="cls-8" d="M305.44,266.74c1.93,19.1-23.67,28.23-35.88,14.54-6.24-7-7.28-18.34-1.66-26.56,5.04-7.37,13.82-10.21,22.33-7.77,8.77,2.51,15.05,9.09,15.21,19.79"/><path class="cls-7" d="M303.38,266.75c.61,6.7-2.57,12.47-8.35,15.86-5.45,3.2-12.43,3.7-18.22,1.18-3.22-1.4-6.45-3.72-8.06-6.9-2.08-4.11-3.07-8.71-2.22-13.29,1.75-9.47,10.24-15.91,19.83-14.94,4.43.45,9.07,2.45,12.2,5.67,3.28,3.38,4.7,7.77,4.82,12.41.08,3.09,4.18,3.07,4.11-.03-.26-10.37-6.22-18.95-16.26-22.02-10.9-3.33-22.75,1.82-27.14,12.5-4.09,9.93-1.14,21.87,7.26,28.66,6.22,5.02,15.33,5.57,22.55,2.57,8.78-3.64,14.46-12.12,13.59-21.72-.1-1.16-.74-2.43-2.07-2.44-1.2,0-2.14,1.34-2.04,2.47h0Z"/><path class="cls-7" d="M291.64,266.88c.63,6.28-7.78,9.28-11.8,4.78-2.05-2.3-2.39-6.03-.55-8.73,3.73-5.44,12.25-2.35,12.34,3.95"/></g></g></svg>