<?xml version="1.0" encoding="UTF-8"?><svg xmlns="http://www.w3.org/2000/svg" xmlns:xlink="http://www.w3.org/1999/xlink" viewBox="0 0 500 500"><defs><style>.cls-1{fill:#f2f2f2;mix-blend-mode:multiply;}.cls-2{fill:#fff;}.cls-3{fill:none;}.cls-4{isolation:isolate;}.cls-5{fill:#9e9e9f;}.cls-6{fill:#4c4a4a;}.cls-7{fill:#f7f7f7;}.cls-8{fill:#e8f3fb;}.cls-9{fill:#e5e5e6;}.cls-10{clip-path:url(#clippath);}</style><clipPath id="clippath"><path class="cls-3" d="M989.5-124.34c6.07-84.07,6.13-195.77,6.13-195.77,0,0,22.13-114.46-33.15-145.17-33.42-18.57-117.13-18.15-117.13-18.15l-120.45-6.62s-113.5.96-152,43.75c-44.92,49.93-22.15,115.16-31.27,191.22-7.16,59.74,9.54,136.52,45.87,175.62,27.12,29.19,109.4,29.53,109.4,29.53,0,0,100.02-7.41,141-6.3,36.89,1,92.53,16.07,119.32-10.02,17.67-17.21,32.3-58.08,32.3-58.08Z"/></clipPath></defs><g class="cls-4"><g id="_레이어_1"><rect class="cls-3" width="500" height="500"/><g class="cls-10"><path class="cls-8" d="M536.45-53.32c-1.57-3.02-6.6-8.44-10.3-9.3-5.28-1.23-14.37,2.8-14.37,2.8,0,0-5.1,5.23-5.41,8.72-4.24-6.27-12.03-1.98-15.05,3.9-1.93,3.75-.74,11.16-.74,11.16,0,0,2.3,4.97,4.73,4.67-2.3,1.98-1.93,7.81-1.93,7.81,0,0,4.67,10.3,8.54,13.12,6.73,4.9,19.26,5.61,19.26,5.61,0,0,6.28-2.34,9.06-2.34,9.03,19.08,35.16,6.45,35.16,6.45,0,0,4.46-3.63,8.72-2.4,5.14,1.48,11.75,2.99,16.72.03,3.03-1.8,7.24-8.04,7.24-8.04l8.74-1.26s7.63-6.67,10.08-14.93c1.37-4.62.46-15.01-2.36-18.94-2.86-3.99-6.28-5.64-10.61-4.21-1.38-5.43-14.93-7.39-14.93-7.39,0,0-12.67,2.27-15.86,7.37-1.8-3.96-11.75-8.33-11.75-8.33,0,0-7.84-.36-11.21-.36-2.85,0-13.72,5.87-13.72,5.87Z"/></g><path class="cls-5" d="M193.59,469.89c-.58-45.06,6.52-100.79,29.63-138.3,0,0,5.23-12.53-6.25-14.78-11.48-2.25-23.29.96-23.29-7.75,0,0-1.97-5.01,10.79-10.25,12.76-5.24,15.91-10.02,13.26-19.71-2.84-10.42-.3-18.12,12.13-18.83,12.43-.71,20.34-.85,20.13-16.5-.21-15.65,5.31-21.37,14.36-15.49,4.17,2.7,7.3,13.77,10.78,19.19,6.21,9.66,14.13-.62,20.07-5.19,52.95-40.75,116.11-57.3,182.16-56.01,0,0,1.43,28.48-.65,73.9,0,0,1.24,20.59.65,34.89,0,0,.59,91.31-.59,131.21,0,0,1.05,30.42-.06,43.18,0,0-26.18,1.76-38.26,0,0,0-68.42,2.58-135.69-.06,0,0-16.46,2.89-36.14,1,0,0-35.86,2.98-73.03-.49Z"/><path class="cls-9" d="M266.62,470.58c.07-5.35.3-22.5.71-27.83,2.02-25.92,8.28-51.57,19.52-75.07,10.4-21.75,24.99-41.39,42.96-57.48,18.17-16.27,39.55-28.73,62.42-37.15,26.66-9.82,56.1-15.19,84.51-13.31,0,0,1.47,19.99.55,35.24,0,0,.62,104.87-.57,131.48,0,0,1.67,33.96,0,43.17,0,0-19.21,1.89-38.42,0,0,0-82.99,2.06-135.52-.06,0,0-17.01,3.23-36.14,1Z"/><path class="cls-2" d="M477.39,295.9c-95-4.31-179.07,62.46-174.62,173.77,0,0,90.24,3.45,135.69.79,0,0,22.06.3,38.26-.44,0,0,1.49-29.48.74-43.75,0,0,1.73-57.7-.06-130.37Z"/><path class="cls-7" d="M160.02,215.99l49.39,32.3-27.31-51.29s53.75-25.97,44.64-56.76c0,0-4.45-15.01-22.08-13.11,0,0,21.31-21.29,2.09-53.06-16.08-26.57-45.86-29.94-67.29-11.76,0,0-13.53-56.41-71.03-25.38-47.39,25.58-17.43,70.3-17.43,70.3,0,0-48.57,30.72-19.52,72,17.22,24.47,46.17,10.58,46.17,10.58,0,0-13.87,25.67,15.13,38.59,30.41,13.55,67.25-12.42,67.25-12.42Z"/><path class="cls-9" d="M435.2,471.41s23.88.14,41.5-.76c0,0,1.66-27.22.88-42.49,0,0-17.66-1.52-32.54,13.32-10.29,10.26-9.84,29.93-9.84,29.93Z"/><path class="cls-2" d="M266.62,470.96c5.68.79,11.35.54,17.24.4-.27-14.89,1.02-40.85,3.64-55,5.54-29.96,18.56-58.54,39.53-80.87,36.91-39.29,94.77-59.03,150.47-58.58.18-5.43-.06-11.73-.8-16.32-109.87-6.42-211.66,68.27-210.09,210.35Z"/><path class="cls-2" d="M477.39,186.9c-23.97-1.72-46.58-.04-69.28,4.54-25.84,5.21-48.44,12.81-74.25,26.05-19.61,10.06-46.01,33.18-54.15,33.56-5.67.26-6.07-13.94-13.14-21.41-4.72-4.99-16.42-3.79-12.93,7.38,18.93,60.51,41.23,23.76,80.67,2.94,46.95-24.79,93.04-34.79,143.43-32.99,0-7.74.11-13.9-.34-20.07Z"/><path class="cls-1" d="M50.99,107.23c-30.63,15.98-32.68,48.18-24.26,65.62,7.32,15.15,28.96,30.86,49.66,17.84-6.15,23.62,4.13,32.97,20.95,38.93,24.88,8.81,43.19-2.84,62.68-13.64l49.39,32.3c-9.76-15.97-34.85-49.19-46.37-53.7-9.69-3.79-20.93,7.01-30.65,10.68-8.85,3.34-16.36,7.45-26.02,4.74-9.62-2.7-10.48-12.11-10.34-20,.14-7.65.28-18.11-6.59-23.19-9.71-7.17-18.81,2.71-29.25-1.53-22-8.96-1.94-37.1,4.06-50.47,2.61-5.82,3.8-11.2,2.97-17.66-1.21-9.34-5.44-18.22-4.75-27.79.98-13.63,9.5-23.21,20.41-30.52,5.56-3.72-3.25-7.27-6.8-5.91-10.69,4.09-21.18,10.69-27.14,20.74-4.57,7.71-7.64,14.75-7.28,23.64,0,0,0,12.89,9.33,29.93Z"/><path class="cls-6" d="M159.41,218.4c14.74,9.67,29.49,19.35,44.23,29.02,2.09,1.37,4.17,2.74,6.26,4.11,2.84,1.86,4.2-1.63,2.99-3.83-8.38-15.18-16.76-30.37-25.14-45.55-1.2-2.17-2.39-4.33-3.59-6.5-1.92-3.47-6.04-.73-4.15,2.69,8.38,15.18,16.77,30.36,25.15,45.54,1.2,2.17,2.39,4.33,3.59,6.5,1-1.28,2-2.55,2.99-3.83-14.74-9.67-29.49-19.34-44.23-29.01-2.09-1.37-4.17-2.74-6.26-4.1-3.41-2.24-4.64,3.12-1.84,4.96h0Z"/><path class="cls-6" d="M75.15,188.23c-4.06,10.33-5.27,22.21,1.7,31.62,5,6.76,13.11,11.12,21.05,13.47,22.41,6.63,45.59-2.19,64.14-14.77,2.7-1.83-.71-7.08-3.4-5.25-16.4,11.13-36.69,19.66-56.83,15.31-6.55-1.42-13.37-4.21-18.38-8.77-8.35-7.61-7.06-18.84-3.29-28.44,1.13-2.86-3.64-6.58-4.99-3.17h0Z"/><path class="cls-6" d="M49.75,104.12c-18.39,8.21-27.67,26.34-29.49,45.76-.96,10.27.64,19.41,6.74,27.93,5.61,7.84,13.57,14.14,22.6,17.6,9.91,3.79,21.02,3.48,29.75-2.96,2.62-1.94-.8-7.18-3.4-5.25-18.06,13.35-45.6-3.41-50.18-23.25-1.38-6-.46-12.73.61-18.71,1.05-5.91,2.94-11.75,5.83-17.01,4.69-8.53,11.98-15.03,20.79-19.07,2.78-1.27-.42-6.28-3.25-5.02h0Z"/><path class="cls-6" d="M141.87,62.47c-3.04-12.02-9.38-23.02-20.08-29.72-9.46-5.92-20.83-7.67-31.8-6.43-21.92,2.48-44.14,17.64-49.56,39.85-3.58,14.65,1,29.35,8.99,41.72,2.02,3.12,5.94.59,3.91-2.53-6.54-10.11-10.62-21.85-8.61-33.98,1.66-10,7.46-18.99,15.04-25.58,14.65-12.73,37.39-18.94,55.74-10.9,11.39,4.99,18.53,15.45,21.53,27.26.74,2.91,5.75,3.93,4.84.32h0Z"/><path class="cls-6" d="M206.63,129.1c25.28-27.88-.9-78.5-36.37-80.69-11.94-.74-23.15,4.21-32.37,11.5-2.35,1.85.8,6.65,3.12,4.82,7.57-5.99,16.51-10.59,26.32-10.98,8.09-.32,15.92,2.17,22.6,6.69,13.05,8.82,21.81,24.94,21.78,40.74-.02,8.93-3.02,17.35-9.03,23.99-1.89,2.09,1.85,6.26,3.96,3.94h0Z"/><path class="cls-6" d="M183.62,199.36c14.84-8.48,30.92-18.62,40.47-33.25,6.32-9.68,9.05-22.17,1.78-32.2-5.07-6.99-13.14-10.06-21.61-9.44-3.33.24-2.02,5.52.77,5.32,8.51-.62,16.72,2.75,19.61,11.31,1.9,5.61.41,11.65-2.08,16.83-8.03,16.72-26.56,27.87-42,36.71-2.52,1.44.51,6.17,3.05,4.72h0Z"/><path class="cls-6" d="M195.43,470.74c-1.98-43.89,5.68-86.22,23.91-126.22,2.95-6.47,9.25-15.1,7.36-22.63-1.19-4.77-5.86-7.18-10.38-8-3.44-.62-21.02,1.29-19.77-5.5.8-4.4,7.88-6.23,11.34-7.66,3.35-1.39,7.08-2.84,9.49-5.68,4.66-5.5,4.38-12.89,3.12-19.49-.61-3.21-1.58-6.49.83-9.19,3.91-4.39,10.82-3.02,15.99-3.16,14.83-.42,16.27-12.44,16.24-24.6-.01-5,.95-10.48,7.15-8.1,4.21,1.61,6.86,5.74,8.8,9.58,3.11,6.16,3.32,14.76,12.32,13.81,3.99-.42,7.07-2.93,10.2-5.22,4.31-3.15,8.55-6.4,12.84-9.58,8.73-6.47,17.71-12.35,27.31-17.45,44.27-23.52,94.84-33.14,144.7-31.78,3.49.09,3.15-5.55-.21-5.65-45.01-1.25-90.56,6.33-131.76,24.87-9.71,4.37-19.27,9.21-28.28,14.89-9.04,5.7-17.4,12.36-25.99,18.7-2.07,1.53-4.16,3.32-6.46,4.49-1.39.71-3.53,1.84-5.15,1.03-1.11-.55-1.79-3.13-2.22-4.13-1.77-4.13-3.22-8.16-5.92-11.83-3.43-4.67-9.43-9.26-15.63-7.78-15.24,3.64,1.21,29.23-14.64,32.79-7.98,1.79-16.82-1.77-23.18,5.2-4.58,5.02-2.32,10.95-1.49,16.87.66,4.66.02,10.14-3.99,13.2-3.68,2.81-8.62,3.8-12.72,5.89-4.96,2.53-10.32,8.14-7.38,14.14,2.39,4.88,9.16,5.98,13.98,6.41,7.73.68,19.36-1.06,14.72,10.45-4.6,11.43-10.38,22.31-14.64,33.92-4.08,11.14-7.35,22.5-9.75,34.12-4.98,24.13-6.57,48.67-5.12,73.26.17,2.91,4.49,3.05,4.36.02h0Z"/><path class="cls-6" d="M267.04,473.02c-1.33,0-2.45-1.03-2.54-2.37-2.36-34.13,3.96-69.54,17.8-99.69,15.04-32.76,38.73-60.5,68.51-80.21,21.73-14.39,47.04-24.15,75.23-28.99,18.93-3.25,35.54-4.6,50.75-4.14,1.41.04,2.52,1.22,2.47,2.63-.04,1.41-1.36,2.46-2.63,2.47-14.9-.46-31.15.88-49.73,4.08-27.49,4.72-52.14,14.22-73.28,28.21-28.98,19.19-52.04,46.19-66.68,78.09-13.49,29.39-19.65,63.91-17.35,97.21.1,1.4-.96,2.62-2.37,2.72-.06,0-.12,0-.18,0Z"/><path class="cls-6" d="M303.5,473.02c-1.27,0-2.38-.95-2.53-2.25-2.49-21.23.03-44.28,7.28-66.65,11.09-34.23,33.45-63.85,62.98-83.4,29.88-19.79,70.39-30.43,105.73-27.77,1.41.11,2.46,1.33,2.35,2.74-.11,1.41-1.35,2.44-2.73,2.35-34.28-2.57-73.55,7.75-102.53,26.94-28.57,18.92-50.21,47.58-60.94,80.72-7.02,21.68-9.47,43.98-7.06,64.49.16,1.4-.84,2.66-2.24,2.83-.1.01-.2.02-.3.02Z"/><path class="cls-6" d="M323.49,377.11c40.37,21.16,78.08,47,117.94,69.07,3.64,2.02,6.27-3.77,2.77-5.7-39.94-21.91-77.68-47.69-118.08-68.78-3.5-1.83-5.99,3.64-2.63,5.4h0Z"/><path class="cls-6" d="M303.74,452.79c44.52,1.52,89.08,1.78,133.6,2.86,2.89.07,3.69-4.21.63-4.41-44.42-2.92-88.99-2.4-133.46-3.83-3.56-.11-4.46,5.26-.77,5.38h0Z"/><path class="cls-6" d="M460.63,296.49c.01,44.97-.28,89.98,1.28,134.93.14,4.04,5.52,2.2,5.41-1.33-1.38-44.91-1.39-89.89-1.73-134.82-.03-3.7-4.96-1.99-4.96,1.22h0Z"/><path class="cls-6" d="M380.39,318.14c24.06,38.78,45.26,79.55,70.78,117.4,1.15,1.7,6.41,1.55,4.94-.94-23.29-39.44-46.06-79.31-70.4-118.12-1.54-2.45-7.43-1.73-5.32,1.66h0Z"/><path class="cls-6" d="M437.96,471.02c-.89-9.92,2.14-19.92,8.93-27.3,7.8-8.49,19.41-11.21,30.56-10.71,3.42.15,3.39-6.08-.04-6.24-12.69-.59-25.47,2.98-34.27,12.53-7.79,8.45-11.36,20.4-10.23,31.76.14,1.42.9,2.99,2.55,3,1.47,0,2.63-1.65,2.51-3.04h0Z"/></g></g></svg>