<?xml version="1.0" encoding="UTF-8"?><svg xmlns="http://www.w3.org/2000/svg" xmlns:xlink="http://www.w3.org/1999/xlink" viewBox="0 0 500 500"><defs><style>.cls-1{mix-blend-mode:multiply;}.cls-1,.cls-2{fill:#f2f2f2;}.cls-3{fill:#fff;}.cls-4{fill:#eeefef;}.cls-5{fill:none;}.cls-6{fill:#84b64c;}.cls-7{isolation:isolate;}.cls-8{fill:#9e9e9f;}.cls-9{fill:#4c4a4a;}.cls-10{fill:#e5e5e6;}.cls-11{clip-path:url(#clippath);}</style><clipPath id="clippath"><path class="cls-5" d="M-50.5-124.34c6.07-84.07,6.13-195.77,6.13-195.77,0,0,22.13-114.46-33.15-145.17-33.42-18.57-117.13-18.15-117.13-18.15l-120.45-6.62s-113.5.96-152,43.75c-44.92,49.93-22.15,115.16-31.27,191.22-7.16,59.74,9.54,136.52,45.87,175.62,27.12,29.19,109.4,29.53,109.4,29.53,0,0,100.02-7.41,141-6.3,36.89,1,92.53,16.07,119.32-10.02,17.67-17.21,32.3-58.08,32.3-58.08Z"/></clipPath></defs><g class="cls-7"><g id="_레이어_1"><rect class="cls-5" width="500" height="500"/><g class="cls-11"><path class="cls-6" d="M-53.68-5.4c-1.85-9.21,34.4-189.59,40.81-200.34,7.71-12.92,61.99-170.28,61.99-170.28,0,0-34.02-16.57-93.52-46.75l-59.11-.8c-30.11,5.14-114.82,47.02-124.54,56.45-35.4,34.35-4.64,86.26-4.64,86.26,0,0-42.16,126.7-31.84,158.76C-116.61,293.52-44.15,42.03-53.68-5.4Z"/></g><path class="cls-2" d="M418.4,300.94c-22.7-7.57-49.74-7.52-73.48-8.15-38.16-1.01-75.18-.71-113.02,3.88-12.35,1.5-33.74,5.88-38.35,19.56-11.81,35.08,142.71,28.71,161.21,27.93,21.31-.9,72.68.16,78.93-23.86,2.59-9.98-4.69-15.84-15.27-19.37Z"/><path class="cls-8" d="M457.94,184c0,78.91-65.16,141.2-145.55,141.2s-145.55-62.29-145.55-141.2S227.22,41.12,312.4,41.12c90.41,0,145.55,63.97,145.55,142.89Z"/><path class="cls-10" d="M417.31,185.86c0,57.86-47.2,104.76-105.43,104.76s-105.17-46.9-105.43-104.76c-.28-61.99,47.2-104.76,105.43-104.76s105.43,41.35,105.43,104.76Z"/><path class="cls-3" d="M397.34,184.23c0,47.51-38.52,86.03-86.03,86.03s-86.03-38.52-86.03-86.03,38.52-86.03,86.03-86.03,86.03,33.96,86.03,86.03Z"/><path class="cls-2" d="M111.34,441.99c0,6.5-15.38,11.76-34.35,11.76s-34.35-5.27-34.35-11.76c0-8.54,15.38-11.76,34.35-11.76s34.35,3.84,34.35,11.76Z"/><path class="cls-8" d="M26.18,126.73s-6.5,2.35-4.38,7.96c2.12,5.61,9.51,6.38,13.71,2.25,0,0,1.64,3.19,6.77,3.32s5.42-3.49,5.42-3.49c0,0,2.63,3.54,7.52,2.56,4.9-.98,5.72-3.06,5.72-3.06l8.16.51.55,15.79s2.42,4.98,9.98,4.25c7.55-.73,8.99-4.25,8.99-4.25l-.49-16.28,10.12-.33s1.93,4.09,7.22,3.96,6.59-2.09,6.59-2.09c0,0,5.68,5.37,11.67-1.05,0,0,2.86,3.29,7.25,2.53,4.39-.75,5.43-2.37,5.43-2.37,0,0,4.54-5.68-3.17-10.34l-107.06.13Z"/><path class="cls-3" d="M72.91,156.04v72.76h10.19l1.21-72.32s-6.05,1.8-11.4-.44Z"/><path class="cls-4" d="M55.67,250.36l-.14,190.19s20.06,11.57,44.32,0l.22-190.19h-44.4Z"/><polygon class="cls-8" points="51.11 228.8 51.11 249.74 104.65 249.74 104.65 228.81 51.11 228.8"/><path class="cls-3" d="M137.89,130.45c-.55-1.16-1.83-2.42-2.44-2.81-2.69-1.7-6.2-1.36-9.23-1.35-12.54.03-28.53.05-41.07.32-11.22.25-19.07.19-30.34.04-2.37-.03-4.74-.05-7.11-.04-7.68.01-21.6-1.04-24.98,3.69-.95,1.32.17,4.33,1.84,3.73,6.31-2.25,19.13-2.31,27.91-2.25,8.78.06,19.37,0,28.14,0,10.96,0,23.29-.04,34.25-.34,5.84-.16,11.87-.32,17.62.91,1.29.28,7.15,1.74,5.41-1.9Z"/><path class="cls-3" d="M63.66,238.91c-.16-3.02-.2-5.82-1.27-8.69-.93-2.49-9.69-2.73-10.51.09-.84,2.88-.69,5.94-.61,8.85.07,2.78-.41,6.87.67,9.59,1.12,2.81,9.99,3.26,11,.08.98-3.1.91-6.72.74-9.92Z"/><path class="cls-3" d="M71.07,338.41c-.85-31.42.14-56.94-1.53-87.94-4.41.1-8.83-.06-13.23-.46-.77,34.28-1.45,60.23-.23,90.87.54,13.58-.72,31.69-.5,45.29.29,18.05-.35,35.78.37,55.17,5.91,2.52,14.96,3.39,14.96,3.39-.49-22.64-.03-33.55-.13-48.53-.14-21.97.7-42.26.29-57.79Z"/><path class="cls-1" d="M87.48,137.54c-.38-2.11-4.53-2.1-4.99-.03-.55,2.46-.57,5.01-.7,7.51-.15,2.68-.46,5.47-.1,8.13.33,2.47,5.38,2.43,5.81.04.85-4.77.85-10.89-.01-15.65Z"/><path class="cls-3" d="M343.89,92.17c-35.66-7.88-77.52.54-104.29,28.66-11.27,11.83-18.97,27.15-21.93,43.13-3.29,17.8-2.56,37.75,3.42,54.92,6.26,17.96,18.88,34.24,32.09,47.67,2.08,2.11.48,5.72-2.17,3.93-17.8-12.04-32.46-28.05-39.2-50.88-28.82-97.58,59.59-157.88,134.54-133.92,1.84.59,4.08,2.63,3.74,4.53-.51,2.84-4.14,2.4-6.2,1.95Z"/><path class="cls-1" d="M365.01,92.99c-3.09-1.67-5.53,4.64-2.21,6.96,39.75,27.76,59.76,82.81,31.37,130.9-29.56,50.08-77.22,58.13-131.99,41.58-3.98-1.2-6.08,2.45-1.59,4.54,24.31,11.31,46.7,14.92,68.01,11.09,27.41-4.93,54.8-17.55,73.47-50,30.53-53.05,11.55-118.81-37.07-145.06Z"/><path class="cls-3" d="M288.92,42.86c22.35-3.14,48.55-3.45,72.35,5.24,1.71.63,2.72,2.38,2.19,4.23-1.07,3.7-6.72,2.76-9.45,2.24-23.97-4.53-49.37-4.5-73.38.18-47.79,9.34-86.58,49.69-98.48,96.4-7.6,29.81-4.26,62.45,9.21,90.11,10.85,22.27,27.67,42.33,47.62,57,2.44,1.8,4.96,3.5,7.47,5.19,2.19,1.47,3.32,3.75,1.87,4.98-3.5,2.98-10.53-2.02-14.05-4.21-5.42-3.37-10.2-6.94-15.08-11.06-7.89-6.67-15.92-14.38-22.22-22.52-13.81-17.84-24.41-41.51-28.11-63.8-5.53-33.34-.13-67.8,17.71-96.45,20.87-33.53,52.76-60.56,102.36-67.52Z"/><path class="cls-1" d="M361.47,303.21c-34.7,15.22-67.44,15.74-103.39,4.53-5.9-1.84-9.79,5.14-2.47,7.61,41.24,13.92,65.14,13.26,102.27,2.84,38.13-10.71,67.23-35.85,85.22-70.56,33.77-65.15,12.51-151.82-58.23-189.99-2.76-1.49-6.22-.26-7.33,2.68-.01.04-.03.07-.04.11-.87,2.28,0,4.84,2.05,6.17,30.36,19.78,48.96,45.81,57.97,74.57,0,0,34.85,113.42-76.04,162.05Z"/><path class="cls-9" d="M466.97,249.52c-1.46,7.88-4.86,15.49-9.21,22.19-5.26,8.09-12.03,14.28-20.13,19.43-2.19,1.39-.8,4.09,1.61,3.08,9.3-3.93,16.92-12.19,22.28-20.54,4.67-7.27,8.35-15.59,9.26-24.25.26-2.43-3.42-1.94-3.8.09h0Z"/><path class="cls-9" d="M476.06,272.96c-1.73,8.63-7.23,18.01-15.86,21.21-2.38.88-1.51,4.16,1.01,3.64,5.14-1.06,9.38-4.83,12.41-8.94,3.23-4.38,5.43-9.62,6.34-14.98.18-1.05-.29-2.07-1.4-2.34-.96-.23-2.29.35-2.5,1.41h0Z"/><path class="cls-9" d="M159.58,112c1.75-10.46,6.87-20.38,13.29-28.73,6.31-8.22,14.14-15.07,23.93-18.72,2.05-.77,1.51-4.25-.84-3.77-10.84,2.2-19.98,11-26.49,19.48-6.9,9-12.57,19.88-13.69,31.31-.25,2.5,3.4,2.81,3.8.43h0Z"/><path class="cls-9" d="M151.98,83.69c1.86-4.86,4.18-9.49,7.55-13.48,3.81-4.51,8.61-7.91,13.34-11.37.78-.57,1.1-1.66.35-2.37-.79-.75-2.23-.59-3.11-.11-5.65,3.13-10.98,7.2-15.06,12.24-3.52,4.35-5.96,9.4-7.79,14.66-.94,2.69,3.93,2.48,4.72.43h0Z"/><path class="cls-9" d="M355.83,110.42c-6.21,9.72-11.85,19.82-17.63,29.8s-12.24,20.54-18.18,30.9c-1.07,1.87,2.57,3.47,3.7,1.96,7.14-9.48,12.84-20.34,18.79-30.58,5.79-9.97,11.44-20.06,17.57-29.83,1.32-2.1-3.1-4.06-4.25-2.25h0Z"/><path class="cls-9" d="M309.82,327.72c-40.55,0-82.17-15.76-112.9-53.7-36.91-45.56-42.87-111.69-14.5-160.82,6.89-11.93,14.75-22.53,23.37-31.53,11.8-12.32,25.51-22.09,40.73-29.05,17.59-8.05,37.71-12.67,59.79-13.74,28.89-1.38,55.97,4.17,78.35,16.08h0c19.8,10.54,36.88,26.05,50.77,46.09,14.97,21.6,23.74,47.47,24.69,72.85,2.1,56.15-19.11,99.23-63.05,128.05-24.63,16.15-55.62,25.75-87.26,25.75ZM314.99,43.29c-2.8,0-5.61.07-8.45.2-21.49,1.04-41.04,5.52-58.09,13.32-14.69,6.72-27.92,16.16-39.32,28.05-8.36,8.73-16,19.04-22.71,30.64-27.44,47.5-21.65,111.48,14.09,155.59,51.07,63.06,138.76,63.23,194.03,26.99,42.49-27.87,63-69.6,60.97-124.02-.92-24.51-9.39-49.51-23.87-70.39-13.66-19.71-29.73-34.31-49.14-44.64h0c-19.45-10.36-42.65-15.75-67.51-15.75Z"/><path class="cls-9" d="M310.44,291.95c-31.92,0-62.36-14.27-83.49-40.64-18.51-23.12-26.45-53.5-21.77-83.35,4.62-29.48,21.22-55.63,45.54-71.74,11.74-7.77,25.41-13.04,40.62-15.65,28.41-4.88,54.04-1.34,74.12,10.23,9.28,4.8,18.79,12.97,24.11,18.53,20.51,21.39,28.58,49.39,29.29,68.47,2.21,59.01-34.53,94.01-69.65,107.08-12.82,4.77-25.91,7.09-38.77,7.09ZM315.44,83.05c-7.49,0-15.28.69-23.32,2.07-14.57,2.5-27.64,7.54-38.85,14.95-23.25,15.39-39.11,40.39-43.53,68.6-4.47,28.58,3.11,57.65,20.82,79.75,28.36,35.41,74.3,48.02,117.04,32.11,33.6-12.51,68.76-46.02,66.65-102.58-.68-18.23-8.4-44.99-28.01-65.44-5.09-5.31-14.15-13.11-22.94-17.64l-.1-.05c-13.52-7.8-29.75-11.77-47.76-11.77Z"/><path class="cls-9" d="M310.61,272.74c-26.17,0-51.13-11.69-68.45-33.32-15.18-18.95-21.69-43.87-17.85-68.34,3.78-24.18,17.4-45.62,37.35-58.82,17.24-11.41,52.81-26.94,97.41-2.74l.07.04c26.35,15.54,39.18,37.65,40.38,69.6,1.81,48.38-28.31,77.07-57.11,87.78-10.51,3.91-21.25,5.81-31.79,5.81ZM311.62,101.19c-19.51,0-35.61,7.1-47.42,14.92-18.87,12.49-31.74,32.79-35.33,55.69-3.63,23.2,2.52,46.8,16.89,64.74,23.03,28.75,60.33,38.99,95.02,26.06,27.28-10.15,55.82-37.36,54.1-83.28-1.13-30.21-13.23-51.11-38.07-65.77-16.51-8.95-31.68-12.37-45.2-12.37Z"/><path class="cls-9" d="M232.46,151.33c22.06,9.54,43.76,19.86,65.62,29.85,3.08,1.41,5.23-3.31,2.26-4.64-21.92-9.86-43.65-20.12-65.73-29.61-2.94-1.26-4.98,3.18-2.14,4.41h0Z"/><path class="cls-9" d="M318.33,199.93c5.87,9.43,11.77,18.83,17.57,28.3,2.89,4.71,5.76,9.44,8.63,14.16,3.14,5.17,5.98,10.62,9.42,15.6,1.25,1.81,6.21.67,4.95-1.76-2.71-5.23-6.11-10.14-9.15-15.18-2.95-4.89-5.92-9.77-8.91-14.64-5.9-9.61-11.84-19.2-17.95-28.68-1.38-2.15-6.2-.45-4.55,2.2h0Z"/><path class="cls-9" d="M227.56,190.8c23.19-.64,46.39-.91,69.58-1.89,2.33-.1,2.4-3.92,0-3.99-23.4-.68-46.88.3-70.27,1.02-3.31.1-2.58,4.95.69,4.86h0Z"/><path class="cls-9" d="M298.61,190.69c-2.2.67-4.34,2.36-6.32,3.52-2.46,1.44-4.88,2.93-7.32,4.39-5.49,3.27-11.01,6.48-16.57,9.63-10.59,6.02-21.23,11.97-31.86,17.91-2.88,1.61-.18,5.92,2.76,4.29,10.66-5.9,21.21-11.97,31.7-18.17,5.38-3.17,10.75-6.35,16.1-9.57,2.45-1.47,4.92-2.93,7.32-4.48,2.05-1.32,4.58-2.59,6.22-4.4,1.34-1.49-.18-3.68-2.02-3.12h0Z"/><path class="cls-9" d="M302.55,197.58c-10.93,20.3-24.87,38.85-36.34,58.83-1.48,2.58,2.81,5.18,4.4,2.66,6.17-9.74,12.36-19.48,18.35-29.33,5.97-9.82,12.27-19.54,17.71-29.68,1.31-2.45-2.8-4.94-4.12-2.49h0Z"/><path class="cls-9" d="M309.86,99.79c.24,23.46.44,46.92.84,70.38.06,3.36,4.52,1.81,4.49-1.11-.26-23.43-.71-46.86-1.21-70.29-.07-3.08-4.14-1.65-4.12,1.01h0Z"/><path class="cls-9" d="M260.72,114.87c7.15,9.86,14.21,19.8,21.27,29.72,7.3,10.26,14.36,20.85,22.14,30.76,1.25,1.59,5.41,1.3,3.85-1.2-6.62-10.63-14.27-20.75-21.52-30.95-7.06-9.94-14.1-19.89-21.33-29.7-1.41-1.92-6.36-1.3-4.42,1.38h0Z"/><path class="cls-9" d="M311.04,201.56c-.94,22.89-.43,45.82.03,68.72.05,2.43,4.96,2.36,4.96-.07-.02-22.9-.33-45.81-.9-68.7-.05-2.01-4.01-1.94-4.09.06h0Z"/><path class="cls-9" d="M322.11,192.84c21.14,10.52,41.49,22.62,62.76,32.88,1.19.57,2.85.65,3.87-.35.85-.83.94-2.26-.26-2.87-21.25-10.86-42.06-22.75-63.8-32.62-1.79-.81-4.94,1.79-2.57,2.96h0Z"/><path class="cls-9" d="M326.74,188.16c23.38.23,46.84,1.05,70.19,2.17,2.27.11,3.11-4.89.46-5.05-23.33-1.43-46.86-1.88-70.23-1.72-2.08.01-2.83,4.57-.42,4.59h0Z"/><path class="cls-9" d="M328.68,179.13c21.25-9.39,43.04-17.86,63.95-28.01,2.2-1.07-.48-4.78-2.45-3.99-21.61,8.7-43.32,17.15-64.07,27.82-2.28,1.17.52,5.09,2.57,4.18h0Z"/><path class="cls-10" d="M328.97,185.1c1.44,14.33-17.76,21.18-26.92,10.91-4.68-5.25-5.46-13.76-1.24-19.93,3.78-5.53,10.37-7.66,16.75-5.83,6.58,1.89,11.29,6.82,11.41,14.85"/><path class="cls-9" d="M327.08,185.12c.44,4.9-1.87,9.05-6.09,11.54-4.01,2.36-9.14,2.69-13.4.84-2.32-1.01-4.74-2.65-5.87-4.96-1.48-3.01-2.22-6.33-1.6-9.67,1.3-6.95,7.52-11.6,14.54-10.89,3.22.33,6.63,1.79,8.9,4.13,2.39,2.46,3.43,5.63,3.52,9.02.07,2.84,3.86,2.83,3.78-.03-.1-3.99-1.17-7.87-3.63-11.06-2.2-2.84-5.42-4.82-8.83-5.87-8.33-2.55-17.41,1.4-20.77,9.58-1.6,3.91-1.88,8.39-.73,12.46,1.02,3.61,3.4,7.22,6.31,9.6,4.7,3.86,11.69,4.26,17.19,1.99,6.74-2.79,11.12-9.33,10.45-16.7-.1-1.06-.68-2.24-1.91-2.25-1.1,0-1.97,1.23-1.88,2.28h0Z"/><path class="cls-9" d="M318.62,185.21c.48,4.71-5.84,6.97-8.85,3.59-1.54-1.73-1.8-4.52-.41-6.55,2.8-4.08,9.19-1.76,9.26,2.96"/><path class="cls-9" d="M81.55,157.15c-.23,23.63-.52,47.29,0,70.91.05,2.36,3.09,1.38,3.13-.62.51-23.65.14-47.31.28-70.97.01-2.53-3.38-1.53-3.4.67h0Z"/><path class="cls-9" d="M71.58,157.57c-.22,23.49-.52,47.01,0,70.49.05,2.36,3.09,1.38,3.13-.62.51-23.51.14-47.04.28-70.55.01-2.53-3.38-1.53-3.4.67h0Z"/><path class="cls-9" d="M70.78,152.96c0-5.26,0-10.52.03-15.78,0-1.65-3.42-2.92-3.42-.81,0,5.26.02,10.53.03,15.79,0,1.62,3.36,2.88,3.37.79h0Z"/><path class="cls-9" d="M86.65,151.5c-.97,2.68-5.43,3.54-8.1,3.67-1.77.09-3.67-.07-5.23-.59-.21-.07-.76-.3-1.08-.46-.1-.05-.45-.26-.17-.08-.18-.11-.36-.24-.54-.37-.17-.14-.17-.13,0,.02-.08-.07-.15-.14-.23-.21-.11-.11-.21-.22-.31-.34.26.3-.12-.19-.16-.26-.05-.09-.1-.17-.15-.26.08.15.08.14,0-.03-.34-.83-1.2-1.51-2.12-1.51-.79,0-1.4.7-1.06,1.49,1.46,3.41,5.11,4.94,8.59,5.38,3.45.43,7.22.03,10.32-1.62,1.43-.76,2.67-1.89,3.2-3.45.47-1.4-2.39-2.96-2.97-1.36h0Z"/><path class="cls-9" d="M86.82,135.98c-.1,5.28-.15,10.56-.23,15.84-.02,1.5,3.11,2.62,3.08.73-.08-5.32-.17-10.63-.23-15.95-.01-1.26-2.59-2.25-2.62-.62h0Z"/><path class="cls-9" d="M52.8,250.56c0-7.15.25-14.29.26-21.44,0-1.96-3.62-2.93-3.63-.63,0,7.15-.25,14.29-.26,21.44,0,1.96,3.62,2.93,3.63.63h0Z"/><path class="cls-9" d="M103.91,248.58c-17.8.58-35.61-.04-53.41,0-2.42,0-1.02,3.37.97,3.37,17.8-.03,35.61.58,53.41,0,2.41-.08,1.02-3.41-.96-3.35h0Z"/><path class="cls-9" d="M102.85,228.5c0,7.15-.25,14.29-.26,21.44,0,1.95,3.6,2.91,3.61.62,0-7.15.25-14.29.26-21.44,0-1.95-3.6-2.91-3.61-.62h0Z"/><path class="cls-9" d="M51.69,230.39c17.81.07,35.63.09,53.44.1,2.41,0,1.02-3.37-.97-3.37-17.79,0-35.59-.04-53.38.1-2.28.02-.94,3.16.91,3.16h0Z"/><path class="cls-9" d="M53.88,250.83c-.3,63.67,0,127.33.19,191,0,2.14,3.76,1,3.76-.98-.06-63.65-.08-127.31-.37-190.95,0-2.05-3.57-.94-3.58.94h0Z"/><path class="cls-9" d="M135.48,135.75c-.39.31-.94.71-1.22.84-.14.06-.27.12-.41.18-.06.03-.7.35-.39.2-.23.11-.47.22-.71.31s-.48.17-.72.24c.26-.08.11-.03-.07,0-.11.02-.21.04-.32.06-.24.04-.48.06-.72.08-.51.04.25.02-.04,0-.13,0-.26,0-.4,0-.47-.02-.95-.07-1.41-.17.17.03.21.05.02,0-.13-.04-.25-.07-.38-.11-.23-.07-.45-.15-.67-.23-.12-.05-.24-.1-.36-.15-.07-.03-.39-.2-.08-.03-.21-.11-.42-.22-.63-.33s-.42-.22-.64-.34c-.18-.09-.35-.19-.54-.27-.01,0-.43-.2-.2-.07-.69-.37-1.55-.37-2.15.18-.55.5-.67,1.26-.17,1.86.87,1.06,1.89,1.7,3.16,2.22,1.14.46,2.4.75,3.63.77,1.37.02,2.76-.2,4.03-.73,1.43-.59,2.55-1.53,3.53-2.71,1.11-1.34-.92-2.76-2.13-1.81h0Z"/><path class="cls-9" d="M122.92,135.98c-.17.22-.34.43-.5.66-.06.08-.4.48-.08.14-.08.08-.16.17-.24.25-.11.11-.23.2-.35.3.31-.25.04-.03-.04.02-.23.13-.46.26-.71.38.36-.16-.11.03-.18.06-.11.04-.22.07-.34.1-.27.07-.54.12-.82.17-.16.03-.32.05-.48.07.33-.04-.04,0-.11,0-.31.02-.62.02-.92,0-.57-.02-1.14-.1-1.7-.22-.1-.02-.08-.02.07.02-.08-.02-.15-.04-.23-.06-.13-.04-.27-.08-.4-.12-.26-.08-.51-.18-.75-.28s-.47-.21-.69-.34c-.11-.06-.21-.13-.32-.19-.13-.09-.12-.07.06.04-.08-.06-.16-.11-.24-.16-.13-.09-.26-.17-.4-.26.39.24-.19-.13-.27-.18-.08-.05-.33-.25-.04-.01-.08-.07-.17-.13-.26-.21-.53-.47-1.24-.19-1.65.29-.5.58-.64,1.32-.37,2.04.94,2.45,4.37,3.23,6.71,3.24,1.47,0,2.93-.3,4.22-1.03,1.39-.79,2.76-2.2,2.98-3.84.07-.52.03-1.19-.53-1.44s-1.1.17-1.42.58h0Z"/><path class="cls-9" d="M111.67,136.11c-.59.22-1.08.54-1.56.94-.16.13-.31.27-.47.4-.03.03-.43.32-.27.21.12-.08-.29.18-.36.21-.13.08-.27.15-.41.22s-.51.22-.15.08c-.16.06-.33.12-.5.18s-.33.1-.5.14c-.12.03-.62.09-.12.03-.31.03-.61.06-.92.08-.2.01-.34,0-.06.01-.17,0-.33-.02-.49-.04-.33-.04-.65-.1-.97-.16-.4-.07.27.1-.15-.04-.13-.04-.26-.08-.39-.12-.28-.09-.56-.2-.84-.32-.3-.13-.59-.27-.87-.42.33.18-.12-.08-.15-.1-.13-.08-.27-.17-.4-.26-.47-.32-.9-.69-1.35-1.02-.51-.37-.99-.66-1.65-.61-.66.05-1.3.35-1.69.89-.34.47-.38,1.05-.07,1.54.78,1.21,2.02,2,3.26,2.67,1.27.68,2.69,1.14,4.13,1.26,1.69.14,3.34-.07,4.91-.71s3.93-2,4.2-3.85c.16-1.09-1.37-1.5-2.14-1.21h0Z"/><path class="cls-9" d="M59.45,135.07c-.23.25-.47.5-.72.72s-.42.36-.57.44c-.66.38-.82.54-1.56.85-.14.06-.29.11-.44.16-.04.01-.44.13-.23.07s-.19.04-.23.05c-.15.03-.3.05-.45.07-.28.03-.56.05-.84.06-.14,0-.33,0-.09,0-.15,0-.3-.02-.46-.03-.56-.05-1.11-.15-1.65-.29-.12-.03-.24-.07-.37-.1-.2-.06.24.09-.07-.03-.28-.11-.57-.21-.84-.34-.93-.42-1.88-.9-2.76-1.4-1.46-.83-2.49,1.37-1.57,2.42.46.53.9,1.02,1.47,1.44s1.23.77,1.89,1.06c1.22.53,2.55.92,3.89,1.01,1.44.09,2.91-.11,4.24-.71,1.57-.72,2.59-1.87,3.43-3.29.38-.63.25-1.46-.26-1.98-.43-.44-1.31-.74-1.81-.19h0Z"/><path class="cls-9" d="M99.07,134.55c-6.36-.15-12.73-.25-19.09-.22-6.59.03-13.25-.12-19.82.55-1.66.17-1.71,2.76.03,2.84,6.55.33,13.15,0,19.71-.06s12.55-.16,18.82-.31c1.79-.04,2.33-2.76.36-2.81h0Z"/><path class="cls-9" d="M133.03,128.16c.44.2.88.4,1.31.62.03.02.37.2.19.1s.19.11.18.11c.2.12.39.24.58.37.07.05.15.11.22.16,0,0,.33.27.15.11s.1.1.13.13c.08.08.16.17.23.25.13.15.15.2.02,0,.07.1.13.2.19.3s.12.21.18.32c-.12-.22-.04-.1.02.06.05.12.09.25.13.38.04.11.06.21.02.04.05.26.07.53.09.79.03.49.02-.13,0,.15,0,.13-.02.27-.04.4-.03.27-.08.54-.15.8.05-.18-.04.12-.06.17-.04.13-.09.26-.14.38-.1.25-.21.5-.33.74-.05.09-.1.19-.15.28-.23.44.06-.08-.09.15s-.32.46-.49.68c-.54.68-.32,1.75.26,2.34.52.52,1.51.91,2.07.2,1.74-2.2,2.65-5.33,1.62-8.04-.52-1.36-1.38-2.48-2.53-3.37-.97-.74-2.11-1.25-3.21-1.76-.74-.34-1.59.19-1.67.98-.09.91.43,1.75,1.25,2.13h0Z"/><path class="cls-9" d="M26.86,125.33c-5.75.51-8.68,6.59-5.64,11.41,3.46,5.48,10.9,5.39,15.82,2.11-.75-.23-1.51-.45-2.26-.68,3.1,4.44,12.09,4.76,14.43-.55.73-1.64-2.23-3.46-3.02-1.66-.8,1.82-2.75,2.45-4.62,2.4-1.53-.04-3.54-.53-4.3-1.62-.44-.63-1.54-1.17-2.26-.68-3.2,2.13-8.59,3.33-11.12-.47-.9-1.35-.99-2.82-.31-4.29.85-1.87,2.65-2.72,4.61-2.9.89-.08,1.07-1.2.8-1.86-.36-.87-1.24-1.28-2.13-1.2h0Z"/><path class="cls-9" d="M27.48,128.54c31.01.03,62.03-.1,93.04-.18,4.22-.01,8.45-.03,12.67-.04,2.04,0,2.28-3.42.09-3.42-29.8.03-59.59.13-89.39.23-5.44.02-10.88.04-16.33.05-2,0-2.23,3.35-.09,3.36h0Z"/><path class="cls-9" d="M42.6,185.35c1.07,4.44,2.25,8.84,3.5,13.23,1.24,4.37,2.23,8.84,3.67,13.14.62,1.84,3.12,1.09,2.84-.77-.67-4.56-2.15-9.05-3.41-13.48-1.27-4.46-2.63-8.88-3.86-13.35-.22-.81-1.16-1.33-1.94-1.01-.89.37-.99,1.42-.8,2.23h0Z"/><path class="cls-9" d="M52.79,192.7c.68,2.66,1.41,5.32,2.04,7.99s1.08,5.36,1.79,7.99c.56,2.05,3.41,1.61,3.43-.49.02-2.84-.78-5.71-1.57-8.42-.78-2.69-1.65-5.34-2.47-8.01-.27-.87-1.1-1.54-2.05-1.27s-1.4,1.32-1.17,2.22h0Z"/><path class="cls-9" d="M109.32,184.01c-1.23,4.46-2.59,8.88-3.86,13.34-1.26,4.42-2.74,8.91-3.41,13.47-.25,1.71,2.18,2.98,2.84,1.04,1.48-4.37,2.48-8.94,3.74-13.38,1.26-4.45,2.44-8.92,3.53-13.42.41-1.72-2.3-2.96-2.84-1.04h0Z"/><path class="cls-9" d="M98.66,191.75c-.83,2.67-1.7,5.33-2.47,8.01s-1.59,5.59-1.57,8.42c.01,2.07,2.86,2.59,3.42.51.72-2.63,1.16-5.33,1.79-7.99.64-2.68,1.36-5.33,2.04-7.99.23-.89-.24-1.95-1.16-2.22-.95-.28-1.78.38-2.05,1.26h0Z"/><path class="cls-8" d="M165.21,419.16c17.74-.59,20.63-3,20.63-3,0,0,3.37-28.01,31.22-26.59,30.51,1.56,32.09,27.9,32.09,27.9,19.92.04,32.82-5.44,32.82-5.44,0,0,.15-10.41,9.72-13.8,11-3.89,16.48,7.1,16.48,7.1,22.07-8.68,10.9-29.89-2.96-42.53-12.51-11.41-34.69-17.72-46.38-42.97-11.56-24.98-.86-44.61,10.97-51.6,9.61-5.68,17.73-6.35,17.73-6.35,0,0,.78-10.42,5.23-10.42,5.29,0,3.83,15.69,3.83,15.69-15.89,1.67-34.33,10.46-33.36,34.09.97,23.62,33,40.72,33,40.72,0,0,36.07,20.49,37.61,44.57,1.71,26.63-23.52,32.63-23.52,32.63,0,0,1.43,10.27-8.13,13.54-12.08,4.13-16.07-5.53-16.07-5.53-24.86,6.2-36.83,3.9-36.83,3.9,0,0,.69,27.41-32.91,27.97-31.04.52-31.07-28.24-31.07-28.24-14.12,5.45-36.26-2.64-36.26-2.64,0,0-11.19-4.63-19.97-14.16-8.84-9.6-24.22-12.65-29.64-12.53v-9.1s18.2,1.39,31.76,11.18c13.56,9.79,16.2,13.97,34.01,15.61Z"/><path class="cls-3" d="M185.88,417.1c2.39-19.59,17.95-27.43,29.33-27.5,12.41-.08,31.49,7.77,33.13,26.25,7.84,1.14,11.73.33,17.14-.1,5.63-.45,11.15-2.14,16.68-5.12,0-8.36,8.67-12.8,14.6-12.96,3.82-.1,8.15,2.47,11.4,7.67,15.49-6.39,14.85-20.25,6.27-31.66-11.01-14.63-33.36-26.9-40.46-33.15-9.45-8.33-17.29-20.09-19.3-32.81-4.76-30.01,12.19-41.31,28.4-45.4,4.1-1.03,7.36,4.89,2.8,6.6-35.57,13.33-25.68,53.38,3.02,74.93,9.45,7.1,24.31,15.94,31.28,25.76,9.13,12.86,11.98,25.3-.54,36.33-4.36,3.85-10.96,6.23-16.41,3.34-1.73-.92-3.35-2.07-5.21-2.69-3.06-1.01-6.7.3-8.52,2.96-.96,1.41-1.42,3.09-2.11,4.65-2.75,6.2-11.91,7.49-17.83,8.34-6.47.93-13.36,2.43-19.84.86-6.49-1.58-9.52-6.85-13.12-11.95-4.86-6.88-10.29-11-18.76-11.32-5.98-.23-11.86,1.3-16.17,5.62-1.82,1.83-3.45,4.1-4.64,6.38-1.48,2.82-2.31,6.51-4.87,8.61-3.33,2.73-9.05,3.34-13.16,3.6-12.46.79-24.74-.18-35.68-6.63-2.47-1.45-4.8-3.13-6.97-5.01-11.75-10.18-26.1-15.13-36.91-16.26v-3.52s20.09,1.63,36.66,14.19c16.57,12.56,22.72,12.46,33.14,12.66,7.54.14,16.64-2.68,16.64-2.68Z"/><path class="cls-1" d="M241.16,432.21c-4.61,11.98-14.46,18.35-26.62,17.78-12.53-.58-17.74-8.29-23.08-18.6-2.28-4.4-6.61-.52-6.07,3.21,2.36,16.05,15.57,24.66,30.99,24.44,14.48-.2,31.45-7.69,31.03-24.95-.08-3.38-4.75-5.77-6.25-1.88Z"/><path class="cls-1" d="M309.83,421.07c-.76-3.18-5.22-2.51-6.59-.32-1.33,2.12-1.93,4.08-4.6,4.89-2.66.81-3.91-.59-6.16-1.54-2.42-1.02-5,.59-5.01,3.22-.02,6.32,8.97,6.98,13.43,5.93,5.41-1.27,10.33-6.35,8.94-12.17Z"/><path class="cls-9" d="M280.01,410.4c-9.71,4.17-20,5.54-30.51,5.34l2.11,1.27c-2.2-17.55-17.37-29.12-34.69-29.17-17.37-.05-31.13,11.56-33.77,28.71-.38,2.45,4.58,2.14,4.91-.01,2.32-15.09,13.74-25.83,29.36-25.2,15.24.61,27.37,11.5,29.27,26.61.12.93,1.35,1.25,2.11,1.27,11.36.22,22.64-1.33,33.13-5.84,3.03-1.3.6-4.05-1.92-2.97h0Z"/><path class="cls-9" d="M183.58,430.72c-1.71,19.99,16.81,30.63,34.69,30.6,18.4-.03,32.2-12.28,32.45-30.97-.69.73-1.38,1.46-2.07,2.19,12.25,1.02,26.01.06,37.87-3.34-.71-.32-1.42-.65-2.13-.97,7.53,14.75,29.97,6.24,27.61-9.58-.32-2.12-3.55-1.5-3.39.53.42,5.62-2.35,10.33-7.84,12.04-5.14,1.6-10.45-.23-12.93-5.12-.4-.79-1.26-1.22-2.13-.97-11.54,3.27-24.95,4.1-36.87,3.08-1.12-.1-2.05,1.19-2.07,2.19-.13,8.42-2.88,16.42-10.08,21.32-5.42,3.69-12.15,5.22-18.65,5.14-6.31-.08-13.19-1.83-18.8-4.7-9.03-4.62-11.21-12.52-12.37-21.95-.27-2.19-3.14-1.33-3.3.51h0Z"/><path class="cls-9" d="M100.18,402.91c8.47.56,16.5,3.99,23.29,9.02,6.57,4.87,12.13,10.91,19.32,14.98,14.11,7.99,31.64,9.26,47.29,6.12,2.2-.44,1.1-5.18-1.13-4.73-16.92,3.4-36.01,1.4-50.28-8.97-6.13-4.45-11.32-10.04-17.76-14.06-6.34-3.95-13.46-6.56-20.94-7-2.39-.14-1.87,4.51.21,4.65h0Z"/><path class="cls-9" d="M100.23,394.32c9.13,1.15,18.13,3.92,26.15,8.47,7.33,4.16,13.12,10.42,20.69,14.21,12.79,6.41,29.88,6.18,43.16,1.24,1.84-.69.55-3.15-1.07-3.02-7.91.63-15.49,2.84-23.51,2.55s-15.53-2.77-22.14-7.25c-6.76-4.57-12.55-9.89-20-13.46-7.29-3.49-15.08-5.68-23.1-6.63-2.68-.32-2.68,3.58-.18,3.9h0Z"/><path class="cls-9" d="M283.53,411.05c.84-5.55,3.17-9.54,8.84-11.1,5.49-1.51,11.88.57,14.45,5.88.37.76,1.03,1.51,1.98,1.22,10.23-3.14,14.89-12.45,12.47-22.71-2.91-12.3-14.09-22.15-23.71-29.48-12.19-9.27-25.27-16.27-33.87-29.47-7.75-11.9-10.54-26.92-5.53-40.48,4.62-12.52,17.17-18.96,29.65-21.1,2.16-.37,1.39-4.2-.54-3.86-10.9,1.93-21.43,6.44-28.05,15.69-5.93,8.29-7.52,19.44-6.29,29.36,1.59,12.8,8.43,24.32,17.43,33.35,10.83,10.87,25.08,17.31,35.97,28.16,5.55,5.53,11.45,12.41,12.47,20.48,1.03,8.17-3.56,14.26-11.24,16.63.66.41,1.32.81,1.98,1.22-3.08-6.34-9.67-9.94-16.73-8.62-7.59,1.41-10.96,6.86-11.98,14.03-.26,1.81,2.41,2.98,2.74.81h0Z"/><path class="cls-9" d="M301.36,343.97c-16.88-10.93-36.46-21.99-36.57-44.69-.09-18.4,15.22-28.43,32.02-30.13,2.25-.23,1.47-4.2-.56-3.99-18.39,1.96-34.76,13.13-34.68,33.17.04,11.08,3.91,20.9,11.55,28.92,7.8,8.19,17.75,13.93,27.18,20.01,2.02,1.31,2.7-2.23,1.07-3.29h0Z"/><path class="cls-9" d="M310.91,420.74c15.98-3.54,26.84-19.21,24.56-35.46-2.59-18.4-19.29-32.16-34.09-41.36-2.1-1.31-2.82,2.34-1.1,3.38,13.49,8.18,29.11,20.5,32.03,37.04,2.7,15.3-7.86,29.58-22.56,33.23-1.7.42-.54,3.55,1.17,3.17h0Z"/><path class="cls-9" d="M288.96,268.34c.11-4.33.05-8.97,1.57-13.09.2-.53.29-.76.53-1.17.12-.2.24-.4.38-.58.05-.06.1-.13.15-.19.05-.06.1-.12.16-.18-.11.11-.12.11,0,0,.14-.12.28-.23.44-.33-.3.19.14-.05.25-.09-.35.12.36.01,0,0,.1,0,.2,0,.29.02.17.02.16.02-.02,0,.07.02.15.04.22.06.09.03.39.16.06,0,.13.06.26.12.38.2-.28-.17.23.2.31.29-.16-.16.22.3.28.38.08.12.2.36.32.63.49,1.14.65,2.39.74,3.62.23,3.05-.25,6.07-.14,9.1.05,1.6,3.22,2.05,3.3.25.12-2.99.32-6.03.11-9.01-.2-2.8-.91-6.05-3.63-7.48-2.38-1.25-5.15-.66-6.53,1.69-1.37,2.33-1.72,5.17-1.97,7.81-.25,2.6-.25,5.21-.25,7.83,0,1.48,3.02,1.91,3.07.23h0Z"/><path class="cls-9" d="M99.6,439.91c-13.3,5.16-29.17,4.81-42.49-.05-1.83-.67-4.47,2.17-2.31,2.96,14.7,5.39,31.61,5.61,46.26-.05,2.37-.91.86-3.75-1.46-2.86h0Z"/><path class="cls-9" d="M98.29,250.83c-.25,63.67-.63,127.34.14,191.01.03,2.17,3.82,1.01,3.8-1-.63-63.65-.12-127.3-.36-190.95,0-2.05-3.57-.94-3.58.94h0Z"/></g></g></svg>