<?xml version="1.0" encoding="UTF-8"?><svg xmlns="http://www.w3.org/2000/svg" viewBox="0 0 500 500"><defs><style>.cls-1{fill:#db913e;}.cls-2{fill:#f8edc5;}.cls-3{stroke-dasharray:8.13 8.13;}.cls-3,.cls-4,.cls-5,.cls-6{fill:none;}.cls-3,.cls-5{stroke:#c6c6c7;}.cls-3,.cls-5,.cls-6{stroke-linecap:round;stroke-linejoin:round;}.cls-7{fill:#c73576;}.cls-8{isolation:isolate;}.cls-9{fill:#9e866b;}.cls-10{fill:#251e1c;}.cls-11{fill:#c93f1e;}.cls-12{mix-blend-mode:multiply;}.cls-13{fill:#e8c08b;}.cls-14{fill:#deb277;}.cls-15{fill:#c9952a;}.cls-16{fill:#efd1a4;}.cls-17{fill:#f1d275;}.cls-18{fill:#37281b;}.cls-6{stroke:#595858;stroke-width:2px;}</style></defs><g class="cls-8"><g id="_레이어_1"><rect class="cls-4" width="500" height="500"/><path class="cls-2" d="M25.98,323.2c-3.15,27.17-4.29,74.87-4.29,74.87,0,0,11.06,38.9,30.06,49.35,21.47,11.81,39.32,13.78,60.12,16.45,80.84,10.4,116.79-5.98,198.01,1.69,16.93,1.6,56.47,3.55,73.48,4.22,42.94,1.69,73.48-21.09,73.48-21.09,0,0,25.29-62.15,20.04-100.39-10.84-78.99,1.02-129.89,2.89-209.44.73-31.07,1.18-65.97-23.34-88.23-13.16-11.95-50.53-20.35-50.53-20.35,0,0-37.67-.66-56.45.87-34.29,2.78-68.59,5.57-102.88,8.35-20.61,1.67-96.15-2.65-111.08-4.19-30.78-3.16-60.84,2.11-60.84,2.11,0,0-31.52,8.58-42.94,27.84-11.23,18.93-12.39,56.39-11.45,77.19,2.69,59.46,11.45,131.4,5.73,180.75Z"/><g class="cls-12"><line class="cls-5" x1="443.9" y1="133.52" x2="439.9" y2="133.52"/><line class="cls-3" x1="431.77" y1="133.52" x2="110.47" y2="133.52"/><line class="cls-5" x1="106.41" y1="133.52" x2="102.41" y2="133.52"/></g><g class="cls-12"><line class="cls-5" x1="443.9" y1="216.51" x2="439.9" y2="216.51"/><line class="cls-3" x1="431.77" y1="216.51" x2="110.47" y2="216.51"/><line class="cls-5" x1="106.41" y1="216.51" x2="102.41" y2="216.51"/></g><g class="cls-12"><line class="cls-5" x1="443.9" y1="306.47" x2="439.9" y2="306.47"/><line class="cls-3" x1="431.77" y1="306.47" x2="110.47" y2="306.47"/><line class="cls-5" x1="106.41" y1="306.47" x2="102.41" y2="306.47"/></g><path class="cls-10" d="M35.87,97.68c-.33.3-.98.5-1.57.33-5.58-1.62-8.39-6.76-8.39-12.67,0-4.73,2.92-10.01,6.44-10.93.5-.12.95.06,1.33.38.41.32.5.83.15,1.15-2.3,1.95-4.61,4.13-4.61,9.39,0,4.81,1.09,8.12,6.5,10.84.5.27.5,1.21.15,1.51Z"/><path class="cls-10" d="M47.57,77.24c.06,3.43.06,4.67.06,8.12,0,1.98-.71,2.66-2.27,2.75-2.24.12-4.25.12-6.82.12-1.86,0-2.54-.47-2.6-2.24-.12-3.57-.18-5.02-.03-8.74.09-1.92.86-2.33,2.48-2.42,2.22-.12,3.87-.15,6.88-.12,1.86.03,2.27.95,2.3,2.54ZM44.44,84.98c0-2.54,0-3.9-.06-6.88,0-.47-.03-.53-.5-.53-1.71.03-2.87,0-4.4.12-.38,0-.41.06-.41.59-.06,2.6-.06,4.08,0,6.76,0,.35.06.32.3.32,1.89,0,2.57,0,4.87-.09.18,0,.21-.06.21-.29ZM46.83,98.27c-.77-.06-1.71-.27-2.42-.8-1.57-1.18-2.16-4.43-2.3-6.47-.06-.91.62-1.42,1.65-1.42s1.65.5,1.74,1.27c.15,1.15.35,2.42.8,3.6.32.86.77.95,1.68,1,1.74.12,3.99,0,7.24-.24.95-.06,1.39.32,1.48,1.21.09.95-.29,1.48-1.33,1.59-3.04.32-5.64.44-8.54.24ZM58.91,80.43c.8,0,1.15.62,1.12,1.42-.03.77-.47,1.33-1.21,1.33h-3.46c-.06,1.09-.18,3.34-.32,4.46-.09.68-.77,1.03-1.71.98-1.03-.06-1.59-.56-1.54-1.27.41-4.67.62-8.09.47-12.37-.03-.71.89-1,1.57-.98.77.03,1.51.47,1.56,1,.18,1.74.15,4.05.09,5.43h3.43Z"/><path class="cls-10" d="M75.94,77.24c.06,3.43.06,4.67.06,8.12,0,1.98-.71,2.66-2.27,2.75-2.24.12-4.25.12-6.82.12-1.86,0-2.54-.47-2.6-2.24-.12-3.57-.18-5.02-.03-8.74.09-1.92.86-2.33,2.48-2.42,2.21-.12,3.87-.15,6.88-.12,1.86.03,2.27.95,2.3,2.54ZM72.81,84.98c0-2.54,0-3.9-.06-6.88,0-.47-.03-.53-.5-.53-1.71.03-2.86,0-4.4.12-.38,0-.41.06-.41.59-.06,2.6-.06,4.08,0,6.76,0,.35.06.32.29.32,1.89,0,2.57,0,4.87-.09.18,0,.21-.06.21-.29ZM78.21,90.03c3.19,0,5.58,2.16,5.58,4.99s-2.39,4.99-5.58,4.99-5.58-2.16-5.58-4.99,2.39-4.99,5.58-4.99ZM78.21,97.29c1.33,0,2.42-.97,2.42-2.27s-1.09-2.27-2.42-2.27-2.42.97-2.42,2.27,1.09,2.27,2.42,2.27ZM78.51,85.63c-.68,0-1.12-.65-1.12-1.45s.41-1.39,1.03-1.39h4.52v-2.39h-4.43c-.68,0-1.09-.68-1.09-1.45s.41-1.39,1.03-1.39h4.43v-2.39c0-.77.8-1.03,1.57-1.06.74-.03,1.74.27,1.77,1.21.15,3.69.12,8.39-.03,12.26-.03.65-.77,1.09-1.68,1.09s-1.62-.32-1.62-1.09v-1.95h-4.37Z"/><path class="cls-10" d="M94.03,85.33c0-5.26-2.3-7.44-4.61-9.39-.35-.32-.27-.83.15-1.15.38-.33.83-.5,1.33-.38,3.51.92,6.44,6.2,6.44,10.93,0,5.91-2.81,11.05-8.39,12.67-.59.18-1.24-.03-1.57-.33-.35-.29-.35-1.24.15-1.51,5.4-2.72,6.5-6.02,6.5-10.84Z"/><path class="cls-10" d="M53.2,317.74h-7.71c-1.36,0-1.98-.53-1.98-1.53s.53-1.63,1.18-2.42c1.39-1.74,4.96-7.03,4.96-9.15,0-1.39-.77-2.15-1.83-2.15-1.18,0-2.13.32-3.04.71-.77.33-1.98.44-2.27-.71-.24-1.09.18-1.68,1.27-2.16,1.15-.47,2.57-.83,3.75-.86,2.22-.03,3.78.24,5.05,2.27.65,1.12.65,2.51.35,3.78-.8,3.28-2.57,5.82-4.78,9.04h5.05c1.18,0,1.77.5,1.77,1.65,0,1-.59,1.53-1.77,1.53Z"/><path class="cls-10" d="M64.61,317.57c-4.96,0-7.94-3.63-7.94-8.56,0-4.67,2.75-8.57,7.94-8.57s8.06,3.6,8.06,8.57c0,4.66-2.89,8.56-8.06,8.56ZM64.61,303.51c-2.86,0-4.46,2.63-4.46,5.49s1.42,5.49,4.46,5.49,4.58-2.66,4.58-5.55c0-2.72-1.57-5.43-4.58-5.43Z"/><path class="cls-10" d="M82.63,317.57c-4.96,0-7.94-3.63-7.94-8.56,0-4.67,2.75-8.57,7.94-8.57s8.06,3.6,8.06,8.57c0,4.66-2.89,8.56-8.06,8.56ZM82.63,303.51c-2.86,0-4.46,2.63-4.46,5.49s1.42,5.49,4.46,5.49,4.58-2.66,4.58-5.55c0-2.72-1.57-5.43-4.58-5.43Z"/><path class="cls-10" d="M53.85,217.91l-2.45.44c0,1.54.03,3.25.09,4.34.06.95-.53,1.54-1.42,1.54s-1.57-.41-1.74-1.45c-.12-.65-.09-2.04-.09-3.9l-3.22.62c-2.3.38-3.43-.86-3.13-3.31.18-1.45.12-6.47-.24-10.25-.12-1.12.21-1.86,1.54-1.95,1.15-.06,1.71.68,1.83,1.8.27,2.6.44,6.02.21,9.92-.03.44.09.68.53.59l2.42-.41c0-2.33,0-4.61.06-7.21.03-1.45.5-2.16,1.6-2.16,1.21,0,1.74.59,1.71,1.65-.06,2.57-.24,4.4-.18,7.24l2.24-.38c.83-.15,1.36.27,1.36,1.42,0,.86-.41,1.33-1.12,1.45Z"/><path class="cls-10" d="M64.61,223.94c-4.96,0-7.94-3.63-7.94-8.56,0-4.67,2.75-8.56,7.94-8.56s8.06,3.6,8.06,8.56c0,4.67-2.89,8.56-8.06,8.56ZM64.61,209.88c-2.86,0-4.46,2.63-4.46,5.49,0,2.72,1.42,5.49,4.46,5.49s4.58-2.66,4.58-5.55c0-2.72-1.57-5.43-4.58-5.43Z"/><path class="cls-10" d="M82.63,223.94c-4.96,0-7.94-3.63-7.94-8.56,0-4.67,2.75-8.56,7.94-8.56s8.06,3.6,8.06,8.56c0,4.67-2.89,8.56-8.06,8.56ZM82.63,209.88c-2.86,0-4.46,2.63-4.46,5.49,0,2.72,1.42,5.49,4.46,5.49s4.58-2.66,4.58-5.55c0-2.72-1.57-5.43-4.58-5.43Z"/><path class="cls-10" d="M48.27,141.93c-3.34,0-5.08-1.48-5.08-4.99,0-4.28,3.28-12.29,7.24-13.79.83-.32,1.48.06,1.74.68.32.77.06,1.21-.5,1.77-1.59,1.6-2.54,3.16-3.63,5.7,3.57-.74,6.82,1.21,6.79,5.26-.03,3.75-2.9,5.37-6.56,5.37ZM49.69,133.99c-.77-.24-1.71-.03-2.51.27-.47.59-.8,1.71-.65,3.31.09.98.97,1.6,1.8,1.6,1.68,0,3.16-.83,3.37-2.51.18-1.36-.65-2.24-2.01-2.66Z"/><path class="cls-10" d="M64.61,141.9c-4.96,0-7.94-3.63-7.94-8.56,0-4.67,2.75-8.56,7.94-8.56s8.06,3.6,8.06,8.56c0,4.67-2.89,8.56-8.06,8.56ZM64.61,127.84c-2.86,0-4.46,2.63-4.46,5.49,0,2.72,1.42,5.49,4.46,5.49s4.58-2.66,4.58-5.55c0-2.72-1.57-5.43-4.58-5.43Z"/><path class="cls-10" d="M82.63,141.9c-4.96,0-7.94-3.63-7.94-8.56,0-4.67,2.75-8.56,7.94-8.56s8.06,3.6,8.06,8.56c0,4.67-2.89,8.56-8.06,8.56ZM82.63,127.84c-2.86,0-4.46,2.63-4.46,5.49,0,2.72,1.42,5.49,4.46,5.49s4.58-2.66,4.58-5.55c0-2.72-1.57-5.43-4.58-5.43Z"/><path class="cls-10" d="M139.48,419c-1.21,0-1.71-.5-1.71-1.33,0-4.49-.06-7.97-.38-11.87-.35.5-.62.92-.95,1.42-.53.83-1.24,1.27-2.27.77-.74-.35-1.06-1.09-.59-1.95.95-1.77,1.83-3.04,3.1-4.64.74-.91,1.45-1.33,2.04-1.33.86,0,1.21.5,1.36.97.18.62.41,1.83.62,4.08.35,4.08.38,7.91.38,12.23,0,1.12-.47,1.65-1.59,1.65Z"/><path class="cls-10" d="M156.35,410.22c-.3,1.86-.44,5.61-.5,7.59-.03.56-.59,1.03-1.57,1.09-.89,0-1.71-.21-1.74-1.3-.09-2.01-.06-4.05.15-6.2-4.67.65-7.8-1.98-7.8-6.73,0-3.46,1.77-6.97,7.06-6.97,3.66,0,6.85,2.13,6.88,6.14.03,2.95-.71,5.14-2.48,6.38ZM151.83,400.8c-2.04,0-3.46,1.53-3.46,3.51,0,2.6.86,4.1,3.57,4.1,2.51,0,3.51-2.04,3.51-4.49,0-1.92-1.8-3.13-3.63-3.13Z"/><path class="cls-10" d="M171.56,410.22c-.3,1.86-.44,5.61-.5,7.59-.03.56-.59,1.03-1.57,1.09-.89,0-1.71-.21-1.74-1.3-.09-2.01-.06-4.05.15-6.2-4.67.65-7.8-1.98-7.8-6.73,0-3.46,1.77-6.97,7.06-6.97,3.66,0,6.85,2.13,6.88,6.14.03,2.95-.71,5.14-2.48,6.38ZM167.05,400.8c-2.04,0-3.46,1.53-3.46,3.51,0,2.6.86,4.1,3.57,4.1,2.51,0,3.51-2.04,3.51-4.49,0-1.92-1.8-3.13-3.63-3.13Z"/><path class="cls-10" d="M183.62,418.94c-4.96,0-7.94-3.63-7.94-8.56,0-4.67,2.75-8.57,7.94-8.57s8.06,3.6,8.06,8.57c0,4.66-2.89,8.56-8.06,8.56ZM183.62,404.88c-2.86,0-4.46,2.63-4.46,5.49s1.42,5.49,4.46,5.49,4.58-2.66,4.58-5.55c0-2.72-1.57-5.43-4.58-5.43Z"/><path class="cls-10" d="M239.55,419.11h-7.71c-1.36,0-1.98-.53-1.98-1.53s.53-1.63,1.18-2.42c1.39-1.74,4.96-7.03,4.96-9.15,0-1.39-.77-2.15-1.83-2.15-1.18,0-2.13.32-3.04.71-.77.33-1.98.44-2.27-.71-.24-1.09.18-1.68,1.27-2.16,1.15-.47,2.57-.83,3.75-.86,2.22-.03,3.78.24,5.05,2.27.65,1.12.65,2.51.35,3.78-.8,3.28-2.57,5.82-4.78,9.04h5.05c1.18,0,1.77.5,1.77,1.65,0,1-.59,1.53-1.77,1.53Z"/><path class="cls-10" d="M250.96,418.94c-4.96,0-7.94-3.63-7.94-8.56,0-4.67,2.75-8.57,7.94-8.57s8.06,3.6,8.06,8.57c0,4.66-2.9,8.56-8.06,8.56ZM250.96,404.88c-2.86,0-4.46,2.63-4.46,5.49s1.42,5.49,4.46,5.49,4.58-2.66,4.58-5.55c0-2.72-1.57-5.43-4.58-5.43Z"/><path class="cls-10" d="M268.98,418.94c-4.96,0-7.94-3.63-7.94-8.56,0-4.67,2.75-8.57,7.94-8.57s8.06,3.6,8.06,8.57c0,4.66-2.9,8.56-8.06,8.56ZM268.98,404.88c-2.86,0-4.46,2.63-4.46,5.49s1.42,5.49,4.46,5.49,4.58-2.66,4.58-5.55c0-2.72-1.57-5.43-4.58-5.43Z"/><path class="cls-10" d="M287.01,418.94c-4.96,0-7.94-3.63-7.94-8.56,0-4.67,2.75-8.57,7.94-8.57s8.06,3.6,8.06,8.57c0,4.66-2.9,8.56-8.06,8.56ZM287.01,404.88c-2.86,0-4.46,2.63-4.46,5.49s1.42,5.49,4.46,5.49,4.58-2.66,4.58-5.55c0-2.72-1.57-5.43-4.58-5.43Z"/><path class="cls-10" d="M349.57,419.11h-7.71c-1.36,0-1.98-.53-1.98-1.53s.53-1.63,1.18-2.42c1.39-1.74,4.96-7.03,4.96-9.15,0-1.39-.77-2.15-1.83-2.15-1.18,0-2.13.32-3.04.71-.77.33-1.98.44-2.27-.71-.24-1.09.18-1.68,1.27-2.16,1.15-.47,2.57-.83,3.75-.86,2.21-.03,3.78.24,5.05,2.27.65,1.12.65,2.51.35,3.78-.8,3.28-2.57,5.82-4.78,9.04h5.05c1.18,0,1.77.5,1.77,1.65,0,1-.59,1.53-1.77,1.53Z"/><path class="cls-10" d="M360.97,418.94c-4.96,0-7.94-3.63-7.94-8.56,0-4.67,2.75-8.57,7.94-8.57s8.06,3.6,8.06,8.57c0,4.66-2.9,8.56-8.06,8.56ZM360.97,404.88c-2.86,0-4.46,2.63-4.46,5.49s1.42,5.49,4.46,5.49,4.58-2.66,4.58-5.55c0-2.72-1.57-5.43-4.58-5.43Z"/><path class="cls-10" d="M377.17,419c-1.21,0-1.71-.5-1.71-1.33,0-4.49-.06-7.97-.38-11.87-.36.5-.62.92-.95,1.42-.53.83-1.24,1.27-2.27.77-.74-.35-1.06-1.09-.59-1.95.95-1.77,1.83-3.04,3.1-4.64.74-.91,1.45-1.33,2.04-1.33.86,0,1.21.5,1.36.97.18.62.41,1.83.62,4.08.36,4.08.38,7.91.38,12.23,0,1.12-.47,1.65-1.59,1.65Z"/><path class="cls-10" d="M390.87,418.94c-4.96,0-7.94-3.63-7.94-8.56,0-4.67,2.75-8.57,7.94-8.57s8.06,3.6,8.06,8.57c0,4.66-2.9,8.56-8.06,8.56ZM390.87,404.88c-2.86,0-4.46,2.63-4.46,5.49s1.42,5.49,4.46,5.49,4.58-2.66,4.58-5.55c0-2.72-1.57-5.43-4.58-5.43Z"/><path class="cls-10" d="M426.31,420.18c-.32.3-.97.5-1.57.32-5.58-1.62-8.38-6.76-8.38-12.67,0-4.73,2.92-10.01,6.44-10.93.5-.12.95.06,1.33.38.41.32.5.83.15,1.15-2.3,1.95-4.61,4.14-4.61,9.39,0,4.81,1.09,8.12,6.5,10.84.5.26.5,1.21.15,1.51Z"/><path class="cls-10" d="M442.17,409.37c.03.83-.18,1.54-1.18,1.63-2.77.24-4.73.24-7.8.15-1.33-.03-2.48-.74-2.63-2.33-.24-2.57-.38-6.97-.32-9.63.03-.83.74-1.33,1.65-1.3.98.03,1.63.47,1.63,1.24-.03,2.33,0,5.82.12,8.3.03.62.26.83.8.86,2.36.09,3.75.03,6.32-.09.8-.03,1.39.41,1.42,1.18ZM441.05,421.33c-1.77-.18-3.49-1.24-3.84-3.04-.3-1.48-.5-3.07-.71-4.64-.12-.92.62-1.42,1.65-1.36,1.06.03,1.54.56,1.62,1.33.15,1.18.36,2.39.53,3.57.15.88.62,1.24,1.71,1.33,1.74.18,4.28.12,7.53.06.95-.03,1.48.41,1.51,1.3.03.95-.53,1.51-1.48,1.54-3.04.06-6.56.12-8.53-.09ZM443.23,408.13c-.68,0-1.12-.65-1.12-1.45s.41-1.39,1.03-1.39h4.52v-2.39h-4.43c-.68,0-1.09-.68-1.09-1.45s.41-1.39,1.03-1.39h4.43v-2.39c0-.77.8-1.03,1.57-1.06.74-.03,1.74.26,1.77,1.21.15,3.69.12,8.39-.03,12.26-.03.65-.77,1.09-1.68,1.09s-1.62-.32-1.62-1.09v-1.95h-4.37Z"/><path class="cls-10" d="M461.71,407.83c0-5.26-2.3-7.44-4.61-9.39-.35-.32-.27-.83.15-1.15.38-.32.83-.5,1.33-.38,3.51.91,6.44,6.2,6.44,10.93,0,5.91-2.8,11.04-8.39,12.67-.59.18-1.24-.03-1.56-.32-.36-.3-.36-1.24.15-1.51,5.4-2.72,6.5-6.02,6.5-10.84Z"/><path class="cls-17" d="M176.74,341.3c-.08,0-.12,0-.12,0,0,0,.04,0,.12,0Z"/><path class="cls-9" d="M147.02,313.24c-1.11,1.58-1.89,3.78-1.23,5.59.04.11,1.01,2.29,1.01,2.29,0,0-2.66,3.87.64,8.61-.02,1.34.53.66,1.47,1.62s2.16,1.6,3.41,2.07c2.37.89,4.93,1.17,7.45,1.39,5.03.43,10.49.47,14.63-2.42,1.42-.99,2.62-2.31,3.48-3.81.65-1.14,1.15-3.74,1.15-3.74,0,0-.42-2.67-1.36-3.59,1.4-2.41,1.41-2.94,1.35-5.01s-.96-5.51-2.91-6.23c-.99-.37-1.55.21-2.57-.08-.93-.27-1.01.16-1.92-.18-3.09-1.16-6.5-.92-9.78-.59-4.3.43-11.99.07-14.82,4.09Z"/><path class="cls-13" d="M155.14,317.42l-.41,8.6s2.17,2.7,3.25,4.01c1.02,1.24,2.89,5.04,4.06,6.14,2.46,2.33,3.65-3.24,5.02-4.95,1.81-2.26,5.15-6.29,5.15-6.29l-.87-4.76-.29-3.46s-.69.46-.65.7h-15.25Z"/><path class="cls-7" d="M151.46,352.02c9.3.29,18.69,2.32,27.82.5,4.84-.97,7.58-2,13.12-6.75,0-6.33-2.17-13.92-7.77-16.91s-9.64-4.39-12.77-5.16c-.09.19-8.09,1.49-8.09,1.49l-8.46-.93c-3.74,1.17-7.64,2.2-11.16,3.97-3.63,1.83-10.97,9.45-10.97,17.54,3.11,1.77,7.52,5.74,7.52,5.74,0,0,7.16.4,10.75.51Z"/><path class="cls-16" d="M174.05,303.68c2.26-3.56,6.1-1.51,5.8,2.26-.1,1.19-2.11,4.26-2.11,4.26,0,0-3.21,2.04-3,0l-.69-6.52Z"/><path class="cls-16" d="M151.75,304.55c-1.22-3.68-5.46-1.54-5.46,1.75,0,3.49,1.86,5.57,2.65,6.22,2.1,1.72,1.75-.38,2.51-1.3l.3-6.67Z"/><path class="cls-16" d="M160.67,288.4c-5.74,3.67-11.35,7.66-11.7,14.92-.2,4.16.85,9.27,3.19,13.35,1.17,2.05,4.5,5.12,4.5,5.12,0,0,5.78,1.99,8.54.97,2.54-.93,4.85-2.78,6.48-4.96.93-1.24,2.27-4.02,2.27-4.02,0,0,3.86-9.01,1.28-13.72-3.63-6.64-6.24-10.56-13.18-12.66l-1.37,1Z"/><path class="cls-9" d="M160.4,282.7c-3.3-.12-6.44,1.86-9.17,4.7-.82.86-1.64,2.14-2.73,3.99-1.48,2.52-1.68,7.47-1.68,7.47,0,0,.45,2.41.89,3.62.39,1.06,1.38,4.32,1.38,4.32,0,0,.65-6.25,2.25-8.57,1.6-2.32,4.47-4.53,7.02-5.78,2.15-1.06,5.43-.79,5.43-.79,0,0,5.73,1.93,7.68,4.41,2.6,3.32,3.43,7.01,3.43,7.01l.62,4.83,2.64-5.28s1.08-3.24.84-7.29c-.19-3.2-1.72-7.26-3.99-9.51-2.95-2.94-11.22-2.89-11.22-2.89l-3.37-.23Z"/><path class="cls-1" d="M162.35,308.14c-.48.8-1.59,3.41-1.59,3.41,0,0,1.13.99,1.64,1.08.4-.27.62-1.53.62-1.53l-.68-2.96Z"/><path class="cls-18" d="M166.1,306.03c1.41-.31,2.78-.25,2.78-.25l2.47.27s.84.07,1.4.03c-.03-.42-.52-.73-.52-.73,0,0-1.81-.79-2.43-.99-.67-.22-2.59.17-2.59.17,0,0-.93.66-1.35,1.08l.23.42Z"/><path class="cls-18" d="M152.65,305.78c.74-.1,3.46-.04,3.46-.04l1.56.15,1.3.26.39-.32s-.78-1.01-1.2-1.22c-.91-.47-2.69-.42-2.69-.42l-1.21.37s-1.1.38-1.61.69c0,0-.54.6-.01.53Z"/><path class="cls-14" d="M156.7,299.16c1.33-.41,3.13-.32,4.49-.51.97-.14,2.9-.21,2.9-.21,0,0,1.68.04,2.37.15.61.1,1.97.56,1.97.56l-.25.3s-2.2-.11-4.54-.02c-.87.03-2.11.13-2.99.12-.74,0-4.2.04-4.2.04l-.3-.16.55-.28Z"/><path class="cls-14" d="M165.37,310.8c-.03.7.21,1.63.38,2.04.18.42.42.96.77,1.09.85.32.71,1.32.71,1.32l.12,1.32.24-.32s.17-.88.17-1.1c0-.83-.06-.61-.08-1.06-.02-.49-.51-.34-.83-.66-.3-.3-.46-.6-.63-.99-.09-.22-.3-.94-.3-.94l-.56-.71Z"/><path class="cls-14" d="M159.6,311c0,.72.03,1.3-.31,1.94-.21.39-.54.56-.78.89-.28.39-.25,1.13-.25,1.61,0,.48-.23,1.26-.23,1.26,0,0-.02.23-.3.24-.04-.18-.08-.65-.08-.84,0-.22,0-.44-.04-.65-.06-.43-.13-.85-.09-1.28.02-.2.11-.59.11-.59,0,0,.32-.2.45-.31.25-.23.44-.54.58-.84.08-.18.22-.39.24-.58.02-.18.28-.58.28-.58l.42-.26Z"/><path class="cls-15" d="M154.62,321.02s-2.52,2.4-3.52,4.54c2.97.77,6.64,1.06,9.61,1.83.36.09,1.88.14,2.25.14.37,0,4.83-.24,5.19-.32,3.62-.87,4.16-.98,7.65-2.28-.4-1.08-3.07-3.22-3.69-3.91-2.35,1.27-3.55,1.85-6.06,2.81-2.01.77-5.42.74-7.37-.3-1.95-1.04-4.05-2.51-4.05-2.51Z"/><path class="cls-11" d="M162.18,315.32s1.88-.14,2.91-.31c.1-.02.4-.06.48,0l-.07.54s-.45.42-1.81.9c-.72.25-2.44.07-2.44.07,0,0-1.73-.51-2.21-1.23-.13-.19-.11-.59-.11-.59,0,0,.86.22,1.09.3.69.24,2.15.33,2.15.33Z"/><rect class="cls-7" x="133.19" y="345.77" width="59.21" height="41.52"/><path class="cls-17" d="M276.91,289c-.08,0-.12,0-.12,0,0,0,.04,0,.12,0Z"/><path class="cls-9" d="M247.19,260.94c-1.11,1.58-1.89,3.78-1.23,5.59.04.11,1.01,2.29,1.01,2.29,0,0-2.66,3.87.64,8.61-.02,1.34.53.66,1.47,1.62.94.96,2.16,1.6,3.41,2.07,2.37.89,4.93,1.17,7.45,1.39,5.03.43,10.49.47,14.63-2.42,1.42-.99,2.62-2.31,3.48-3.81.65-1.14,1.15-3.74,1.15-3.74,0,0-.42-2.67-1.36-3.59,1.4-2.41,1.41-2.94,1.35-5.01-.06-2.07-.96-5.51-2.91-6.23-.99-.37-1.55.21-2.57-.08-.93-.27-1.01.16-1.92-.18-3.09-1.16-6.5-.92-9.78-.59-4.3.43-11.99.07-14.82,4.09Z"/><path class="cls-13" d="M255.3,265.11l-.41,8.6s2.17,2.7,3.25,4.01c1.02,1.24,2.89,5.04,4.06,6.14,2.46,2.33,3.65-3.24,5.02-4.95,1.81-2.26,5.15-6.29,5.15-6.29l-.87-4.76-.29-3.46s-.69.46-.65.7h-15.25Z"/><path class="cls-7" d="M251.62,299.72c9.3.29,18.69,2.32,27.82.5,4.84-.97,7.58-2,13.12-6.75,0-6.33-2.17-13.92-7.77-16.91s-9.64-4.39-12.77-5.16c-.09.19-8.09,1.49-8.09,1.49l-8.46-.93c-3.74,1.17-7.64,2.2-11.16,3.97-3.63,1.83-10.97,9.45-10.97,17.54,3.11,1.77,7.52,5.74,7.52,5.74,0,0,7.16.4,10.75.51Z"/><path class="cls-16" d="M274.21,251.38c2.26-3.56,6.1-1.51,5.8,2.26-.1,1.19-2.11,4.26-2.11,4.26,0,0-3.21,2.04-3,0l-.69-6.52Z"/><path class="cls-16" d="M251.92,252.25c-1.22-3.68-5.46-1.54-5.46,1.75,0,3.49,1.86,5.57,2.65,6.22,2.1,1.72,1.75-.38,2.51-1.3l.3-6.67Z"/><path class="cls-16" d="M260.84,236.1c-5.74,3.67-11.35,7.66-11.7,14.92-.2,4.16.85,9.27,3.19,13.35,1.17,2.05,4.5,5.12,4.5,5.12,0,0,5.78,1.99,8.54.97,2.54-.93,4.85-2.78,6.48-4.96.93-1.24,2.27-4.02,2.27-4.02,0,0,3.86-9.01,1.28-13.72-3.63-6.64-6.24-10.56-13.18-12.66l-1.37,1Z"/><path class="cls-9" d="M260.56,230.39c-3.3-.12-6.44,1.86-9.17,4.7-.82.86-1.64,2.14-2.73,3.99-1.48,2.52-1.68,7.47-1.68,7.47,0,0,.45,2.41.89,3.62.39,1.06,1.38,4.32,1.38,4.32,0,0,.65-6.25,2.25-8.57,1.6-2.32,4.47-4.53,7.02-5.78,2.15-1.06,5.43-.79,5.43-.79,0,0,5.73,1.93,7.68,4.41,2.6,3.32,3.43,7.01,3.43,7.01l.62,4.83,2.64-5.28s1.08-3.24.84-7.29c-.19-3.2-1.72-7.26-3.99-9.51-2.95-2.94-11.22-2.89-11.22-2.89l-3.37-.23Z"/><path class="cls-1" d="M262.52,255.84c-.48.8-1.59,3.41-1.59,3.41,0,0,1.13.99,1.64,1.08.4-.27.62-1.53.62-1.53l-.68-2.96Z"/><path class="cls-18" d="M266.26,253.73c1.41-.31,2.78-.25,2.78-.25l2.47.27s.84.07,1.4.03c-.03-.42-.52-.73-.52-.73,0,0-1.81-.79-2.43-.99-.67-.22-2.59.17-2.59.17,0,0-.93.66-1.35,1.08l.23.42Z"/><path class="cls-18" d="M252.82,253.48c.74-.1,3.46-.04,3.46-.04l1.56.15,1.3.26.39-.32s-.78-1.01-1.2-1.22c-.91-.47-2.69-.42-2.69-.42l-1.21.37s-1.1.38-1.61.69c0,0-.54.6-.01.53Z"/><path class="cls-14" d="M256.87,246.86c1.33-.41,3.13-.32,4.49-.51.97-.14,2.9-.21,2.9-.21,0,0,1.68.04,2.37.15.61.1,1.97.56,1.97.56l-.25.3s-2.2-.11-4.54-.02c-.87.03-2.11.13-2.99.12-.74,0-4.2.04-4.2.04l-.3-.16.55-.28Z"/><path class="cls-14" d="M265.53,258.5c-.03.7.21,1.63.38,2.04.18.42.42.96.77,1.09.85.32.71,1.32.71,1.32l.12,1.32.24-.32s.17-.88.17-1.1c0-.83-.06-.61-.08-1.06-.02-.49-.51-.34-.83-.66-.3-.3-.46-.6-.63-.99-.09-.22-.3-.94-.3-.94l-.56-.71Z"/><path class="cls-14" d="M259.77,258.7c0,.72.03,1.3-.31,1.94-.21.39-.54.56-.78.89-.28.39-.25,1.13-.25,1.61,0,.48-.23,1.26-.23,1.26,0,0-.02.23-.3.24-.04-.18-.08-.65-.08-.84,0-.22,0-.44-.04-.65-.06-.43-.13-.85-.09-1.28.02-.2.11-.59.11-.59,0,0,.32-.2.45-.31.25-.23.44-.54.58-.84.08-.18.22-.39.24-.58.02-.18.28-.58.28-.58l.42-.26Z"/><path class="cls-15" d="M254.79,268.72s-2.52,2.4-3.52,4.54c2.97.77,6.64,1.06,9.61,1.83.36.09,1.88.14,2.25.14.37,0,4.83-.24,5.19-.32,3.62-.87,4.16-.98,7.65-2.28-.4-1.08-3.07-3.22-3.69-3.91-2.35,1.27-3.55,1.85-6.06,2.81-2.01.77-5.42.74-7.37-.3-1.95-1.04-4.05-2.51-4.05-2.51Z"/><path class="cls-11" d="M262.34,263.02s1.88-.14,2.91-.31c.1-.02.4-.06.48,0l-.07.54s-.45.42-1.81.9c-.72.25-2.44.07-2.44.07,0,0-1.73-.51-2.21-1.23-.13-.19-.11-.59-.11-.59,0,0,.86.22,1.09.3.69.24,2.15.33,2.15.33Z"/><rect class="cls-7" x="233.35" y="293.47" width="59.21" height="93.83"/><path class="cls-17" d="M383.85,206.93c-.08,0-.12,0-.12,0,0,0,.04,0,.12,0Z"/><path class="cls-9" d="M354.13,178.87c-1.11,1.58-1.89,3.78-1.23,5.59.04.11,1.01,2.29,1.01,2.29,0,0-2.66,3.87.64,8.61-.02,1.34.53.66,1.47,1.62s2.16,1.6,3.41,2.07c2.37.89,4.93,1.17,7.45,1.39,5.03.43,10.49.47,14.63-2.42,1.42-.99,2.62-2.31,3.48-3.81.65-1.14,1.15-3.74,1.15-3.74,0,0-.42-2.67-1.36-3.59,1.4-2.41,1.41-2.94,1.35-5.01s-.96-5.51-2.91-6.23c-.99-.37-1.55.21-2.57-.08-.93-.27-1.01.16-1.92-.18-3.09-1.16-6.5-.92-9.78-.59-4.3.43-11.99.07-14.82,4.09Z"/><path class="cls-13" d="M362.24,183.04l-.41,8.6s2.17,2.7,3.25,4.01c1.02,1.24,2.89,5.04,4.06,6.14,2.46,2.33,3.65-3.24,5.02-4.95,1.81-2.26,5.15-6.29,5.15-6.29l-.87-4.76-.29-3.46s-.69.46-.65.7h-15.25Z"/><path class="cls-7" d="M358.56,217.65c9.3.29,18.69,2.32,27.82.5,4.84-.97,7.58-2,13.12-6.75,0-6.33-2.17-13.92-7.77-16.91s-9.64-4.39-12.77-5.16c-.09.19-8.09,1.49-8.09,1.49l-8.46-.93c-3.74,1.17-7.64,2.2-11.16,3.97-3.63,1.83-10.97,9.45-10.97,17.54,3.11,1.77,7.52,5.74,7.52,5.74,0,0,7.16.4,10.75.51Z"/><path class="cls-16" d="M381.15,169.31c2.26-3.56,6.1-1.51,5.8,2.26-.1,1.19-2.11,4.26-2.11,4.26,0,0-3.21,2.04-3,0l-.69-6.52Z"/><path class="cls-16" d="M358.86,170.18c-1.22-3.68-5.46-1.54-5.46,1.75,0,3.49,1.86,5.57,2.65,6.22,2.1,1.72,1.75-.38,2.51-1.3l.3-6.67Z"/><path class="cls-16" d="M367.77,154.03c-5.74,3.67-11.35,7.66-11.7,14.92-.2,4.16.85,9.27,3.19,13.35,1.17,2.05,4.5,5.12,4.5,5.12,0,0,5.78,1.99,8.54.97,2.54-.93,4.85-2.78,6.48-4.96.93-1.24,2.27-4.02,2.27-4.02,0,0,3.86-9.01,1.28-13.72-3.63-6.64-6.24-10.56-13.18-12.66l-1.37,1Z"/><path class="cls-9" d="M367.5,148.32c-3.3-.12-6.44,1.86-9.17,4.7-.82.86-1.64,2.14-2.73,3.99-1.48,2.52-1.68,7.47-1.68,7.47,0,0,.45,2.41.89,3.62.39,1.06,1.38,4.32,1.38,4.32,0,0,.65-6.25,2.25-8.57,1.6-2.32,4.47-4.53,7.02-5.78,2.15-1.06,5.43-.79,5.43-.79,0,0,5.73,1.93,7.68,4.41,2.6,3.32,3.43,7.01,3.43,7.01l.62,4.83,2.64-5.28s1.08-3.24.84-7.29c-.19-3.2-1.72-7.26-3.99-9.51-2.95-2.94-11.22-2.89-11.22-2.89l-3.37-.23Z"/><path class="cls-1" d="M369.46,173.77c-.48.8-1.59,3.41-1.59,3.41,0,0,1.13.99,1.64,1.08.4-.27.62-1.53.62-1.53l-.68-2.96Z"/><path class="cls-18" d="M373.2,171.66c1.41-.31,2.78-.25,2.78-.25l2.47.27s.84.07,1.4.03c-.03-.42-.52-.73-.52-.73,0,0-1.81-.79-2.43-.99-.67-.22-2.59.17-2.59.17,0,0-.93.66-1.35,1.08l.23.42Z"/><path class="cls-18" d="M359.75,171.41c.74-.1,3.46-.04,3.46-.04l1.56.15,1.3.26.39-.32s-.78-1.01-1.2-1.22c-.91-.47-2.69-.42-2.69-.42l-1.21.37s-1.1.38-1.61.69c0,0-.54.6-.01.53Z"/><path class="cls-14" d="M363.81,164.79c1.33-.41,3.13-.32,4.49-.51.97-.14,2.9-.21,2.9-.21,0,0,1.68.04,2.37.15.61.1,1.97.56,1.97.56l-.25.3s-2.2-.11-4.54-.02c-.87.03-2.11.13-2.99.12-.74,0-4.2.04-4.2.04l-.3-.16.55-.28Z"/><path class="cls-14" d="M372.47,176.43c-.03.7.21,1.63.38,2.04.18.42.42.96.77,1.09.85.32.71,1.32.71,1.32l.12,1.32.24-.32s.17-.88.17-1.1c0-.83-.06-.61-.08-1.06-.02-.49-.51-.34-.83-.66-.3-.3-.46-.6-.63-.99-.09-.22-.3-.94-.3-.94l-.56-.71Z"/><path class="cls-14" d="M366.7,176.63c0,.72.03,1.3-.31,1.94-.21.39-.54.56-.78.89-.28.39-.25,1.13-.25,1.61,0,.48-.23,1.26-.23,1.26,0,0-.02.23-.3.24-.04-.18-.08-.65-.08-.84,0-.22,0-.44-.04-.65-.06-.43-.13-.85-.09-1.28.02-.2.11-.59.11-.59,0,0,.32-.2.45-.31.25-.23.44-.54.58-.84.08-.18.22-.39.24-.58.02-.18.28-.58.28-.58l.42-.26Z"/><path class="cls-15" d="M361.72,186.65s-2.52,2.4-3.52,4.54c2.97.77,6.64,1.06,9.61,1.83.36.09,1.88.14,2.25.14.37,0,4.83-.24,5.19-.32,3.62-.87,4.16-.98,7.65-2.28-.4-1.08-3.07-3.22-3.69-3.91-2.35,1.27-3.55,1.85-6.06,2.81-2.01.77-5.42.74-7.37-.3s-4.05-2.51-4.05-2.51Z"/><path class="cls-11" d="M369.28,180.95s1.88-.14,2.91-.31c.1-.02.4-.06.48,0l-.07.54s-.45.42-1.81.9c-.72.25-2.44.07-2.44.07,0,0-1.73-.51-2.21-1.23-.13-.19-.11-.59-.11-.59,0,0,.86.22,1.09.3.69.24,2.15.33,2.15.33Z"/><rect class="cls-7" x="340.29" y="211.4" width="59.21" height="175.9"/><polyline class="cls-6" points="443.9 387.3 102.41 387.3 102.41 74.67"/></g></g></svg>