<?xml version="1.0" encoding="UTF-8"?><svg id="_레이어_1" xmlns="http://www.w3.org/2000/svg" viewBox="0 0 500 500"><defs><style>.cls-1{fill:#db913e;}.cls-2{fill:#f8edc5;}.cls-3{fill:#513f23;}.cls-4{fill:#d09f65;}.cls-5{fill:#fff;}.cls-6,.cls-7,.cls-8{fill:none;}.cls-9{fill:#d0a36d;}.cls-10{fill:#9e866b;}.cls-11{fill:#c93f1e;}.cls-12{fill:#c50018;}.cls-7{stroke:#c50018;stroke-width:3px;}.cls-7,.cls-8{stroke-linecap:round;stroke-linejoin:round;}.cls-13{fill:#251e1c;font-family:SDBaboLove-cBd-KSCpc-EUC-H, 'Sandoll BaboLove';font-size:32.01px;}.cls-14{fill:#776530;}.cls-15{fill:#867063;}.cls-16{fill:#e8c08b;}.cls-17{fill:#deb277;}.cls-18{fill:#2b344f;}.cls-19{fill:#c9952a;}.cls-20{fill:#efd1a4;}.cls-21{fill:#f1d275;}.cls-22{fill:#e0ba88;}.cls-23{fill:#b14c23;}.cls-24{fill:#37281b;}.cls-8{stroke:#595858;stroke-width:2px;}</style></defs><rect class="cls-6" width="500" height="500"/><path class="cls-2" d="M25.98,323.2c-3.15,27.17-4.29,74.87-4.29,74.87,0,0,11.06,38.9,30.06,49.35,21.47,11.81,39.32,13.78,60.12,16.45,80.84,10.4,116.79-5.98,198.01,1.69,16.93,1.6,56.47,3.55,73.48,4.22,42.94,1.69,73.48-21.09,73.48-21.09,0,0,25.29-62.15,20.04-100.39-10.84-78.99,1.02-129.89,2.89-209.44.73-31.07,1.18-65.97-23.34-88.23-13.16-11.95-50.53-20.35-50.53-20.35,0,0-37.67-.66-56.45.87-34.29,2.78-68.59,5.57-102.88,8.35-20.61,1.67-96.15-2.65-111.08-4.19-30.78-3.16-60.84,2.11-60.84,2.11,0,0-31.52,8.58-42.94,27.84-11.23,18.93-12.39,56.39-11.45,77.19,2.69,59.46,11.45,131.4,5.73,180.75Z"/><path class="cls-21" d="M312.53,202.4c-.18,0-.28,0-.28,0,0,0,.1,0,.28,0Z"/><path class="cls-10" d="M243.13,136.88c-2.59,3.7-4.42,8.82-2.87,13.06.1.27,2.37,5.34,2.37,5.34,0,0-6.21,9.04,1.49,20.11-.05,3.13,1.23,1.54,3.42,3.78s5.03,3.75,7.97,4.84c5.55,2.07,11.5,2.74,17.4,3.24,11.74.99,24.5,1.1,34.15-5.66,3.32-2.32,6.12-5.39,8.13-8.91,1.53-2.67,2.68-8.73,2.68-8.73,0,0-.97-6.24-3.18-8.38,3.26-5.63,3.28-6.87,3.15-11.71-.13-4.84-2.25-12.86-6.79-14.55-2.3-.86-3.63.5-5.99-.18-2.18-.63-2.37.37-4.49-.43-7.21-2.71-15.18-2.14-22.84-1.39-10.05,1-28,.16-34.59,9.56Z"/><path class="cls-16" d="M262.07,146.64l-.95,20.07s5.08,6.31,7.59,9.37c2.38,2.9,6.74,11.76,9.47,14.34,5.74,5.44,8.52-7.57,11.71-11.55,4.23-5.28,12.03-14.68,12.03-14.68l-2.03-11.11-.68-8.08s-1.6,1.06-1.53,1.64h-35.61Z"/><path class="cls-18" d="M253.49,227.44c21.71.68,43.64,5.42,64.96,1.17,11.31-2.26,29.77-11.13,37.81-15.17-3.76-10.49-7.89-17.08-11.8-27.47-2.68-7.12-8.74-12.63-8.74-12.63,0,0-27.27-10.25-34.58-12.04-.21.44-18.88,3.48-18.88,3.48l-19.76-2.16c-8.72,2.74-17.85,5.13-26.06,9.27-8.48,4.27-17.2,20.06-17.2,20.06,0,0-4.44,12.06-8.41,27.46,7.26,4.13,17.57,6.83,17.57,6.83,0,0,16.72.93,25.1,1.19Z"/><path class="cls-20" d="M306.24,114.56c5.28-8.32,14.24-3.53,13.53,5.27-.22,2.77-4.93,9.95-4.93,9.95,0,0-7.5,4.76-7,0l-1.6-15.22Z"/><path class="cls-20" d="M254.18,116.59c-2.86-8.6-12.74-3.59-12.74,4.1,0,8.16,4.33,13,6.19,14.52,4.91,4.01,4.1-.89,5.85-3.04l.7-15.58Z"/><path class="cls-20" d="M275,78.89c-13.41,8.57-26.5,17.87-27.32,34.84-.47,9.72,1.99,21.65,7.44,31.17,2.74,4.79,10.5,11.95,10.5,11.95,0,0,13.49,4.64,19.94,2.27,5.93-2.18,11.32-6.49,15.13-11.59,2.17-2.89,5.29-9.39,5.29-9.39,0,0,9.01-21.04,3-32.03-8.47-15.49-14.56-24.66-30.78-29.57l-3.2,2.34Z"/><path class="cls-10" d="M274.36,65.57c-7.71-.27-15.04,4.33-21.42,10.98-1.92,2-3.84,4.99-6.38,9.31-3.47,5.87-3.93,17.43-3.93,17.43,0,0,1.05,5.63,2.08,8.44.9,2.47,3.22,10.09,3.22,10.09,0,0,1.52-14.59,5.26-20.01,3.73-5.42,10.44-10.57,16.38-13.51,5.02-2.48,12.67-1.84,12.67-1.84,0,0,13.38,4.5,17.92,10.29,6.07,7.75,8,16.37,8,16.37l1.46,11.28,6.17-12.33s2.53-7.58,1.95-17.03c-.45-7.47-4.02-16.94-9.32-22.21-6.9-6.86-26.19-6.74-26.19-6.74l-7.88-.54Z"/><path class="cls-1" d="M278.92,124.98c-1.11,1.87-3.7,7.96-3.7,7.96,0,0,2.64,2.32,3.83,2.52.94-.64,1.45-3.57,1.45-3.57l-1.58-6.92Z"/><path class="cls-24" d="M287.67,120.05c3.3-.71,6.5-.58,6.5-.58l5.78.63s1.97.16,3.26.07c-.06-.98-1.22-1.7-1.22-1.7,0,0-4.24-1.84-5.67-2.3-1.56-.51-6.05.39-6.05.39,0,0-2.17,1.55-3.14,2.51l.55.97Z"/><path class="cls-24" d="M256.27,119.47c1.73-.23,8.08-.09,8.08-.09l3.65.36,3.04.61.92-.76s-1.82-2.35-2.79-2.85c-2.13-1.09-6.27-.98-6.27-.98l-2.83.87s-2.56.9-3.76,1.6c0,0-1.26,1.39-.03,1.23Z"/><path class="cls-17" d="M265.73,104.01c3.11-.95,7.31-.75,10.48-1.2,2.27-.32,6.78-.5,6.78-.5,0,0,3.92.09,5.53.34,1.43.22,4.61,1.31,4.61,1.31l-.58.71s-5.14-.26-10.59-.04c-2.02.08-4.93.29-6.98.29-1.73,0-9.81.1-9.81.1l-.71-.37,1.29-.64Z"/><path class="cls-17" d="M285.97,131.19c-.07,1.63.48,3.81.89,4.77.42.98.97,2.23,1.8,2.54,1.98.74,1.65,3.09,1.65,3.09l.28,3.09.56-.75s.4-2.06.4-2.57c0-1.93-.15-1.43-.18-2.48-.04-1.15-1.19-.79-1.93-1.54-.69-.69-1.08-1.41-1.46-2.31-.22-.52-.7-2.19-.7-2.19l-1.3-1.65Z"/><path class="cls-17" d="M272.5,131.65c0,1.68.08,3.03-.73,4.53-.49.92-1.26,1.31-1.81,2.08-.66.92-.58,2.64-.58,3.75,0,1.12-.53,2.94-.53,2.94,0,0-.05.53-.69.57-.09-.42-.18-1.51-.18-1.96,0-.52-.02-1.02-.09-1.53-.15-1-.31-1.99-.21-2.98.04-.46.25-1.38.25-1.38,0,0,.74-.46,1.05-.73.59-.53,1.04-1.25,1.36-1.97.19-.41.51-.91.55-1.37.04-.43.64-1.37.64-1.37l.98-.6Z"/><path class="cls-19" d="M255.55,151.79s-5.15,7.05-7.93,13.13c8.21,2.19,16.56,2.75,24.77,4.93.99.26,5.19.39,6.21.41,1.02.01,13.35-.68,14.34-.92,10.02-2.47,10.26-1.72,19.9-5.4-1.12-3.07-7.38-9.3-8.97-12.15-6.5,3.6-16.9,9.31-23.83,12.03-5.57,2.18-13.29-4.91-13.29-4.91l-11.2-7.12Z"/><path class="cls-19" d="M266.21,168.05c-3.7,3.09-10.47,9.97-10.47,9.97l-4.64,6.15-1.11,2.05,5.55,5.51s4.76,6.22,4.94,6c.45-.6,4.88-9.52,4.88-9.52,0,0,2.89-6.29,6.32-13.77,3-6.54,1.99-11.99-5.48-6.39Z"/><path class="cls-19" d="M292.28,188.75s1.21,2.75,1.44,3.11c.11.17,5.67-4.11,5.67-4.11l7.37-4.61-6.89-8.4s-6.35-6.61-9.28-8.31c-.29-.17-.59-.33-.92-.36-1.13-.08-6.14,2.73-6.14,2.73,0,0,2.67,5.45,3.34,6.92,2.38,5.13,5.4,13.04,5.4,13.04Z"/><path class="cls-5" d="M272.8,161.79s-.03,5.93-.3,9.75c2.4.15,7.73.37,7.73.37,0,0,2.61-.6,4.57-.98.46-.09-1.2-9.2-1.2-9.2,0,0-2.85-.98-4.81-.87-2.94.17-5.99.93-5.99.93Z"/><path class="cls-11" d="M278.52,141.74s4.4-.32,6.8-.72c.23-.04.93-.14,1.12-.01l-.17,1.26s-1.06.99-4.22,2.1c-1.68.59-5.69.15-5.69.15,0,0-4.03-1.2-5.17-2.87-.31-.45-.25-1.37-.25-1.37,0,0,2,.51,2.54.69,1.61.55,5.03.77,5.03.77Z"/><path class="cls-9" d="M160.44,171.94c-.02.83-.03,1.69.25,2.48.51,1.43,1.88,2.36,3.2,3.11,12.1,6.94,27.28,8.28,40.41,3.56,1.15-.41,2.35-.91,3.08-1.89.74-.99.96-2.29.98-3.52.12-9.16-2.48-18.01-1.27-29.21.28,1.11-46.58-1.17-46.58-1.17,0,0,.14,16.43-.07,26.65Z"/><path class="cls-14" d="M250.19,190.06c-2-4.55-5.07-6.06-7.39-8.41-3.33-3.38-9.31-7.54-9.31-7.54,0,0-18.87-7.86-26.2-10.26-1,6.42-10.08,17.4-10.08,17.4,0,0-10.95,1.21-13.5,1.65-3.48.6-10.83,2.26-10.83,2.26,0,0-4.99-5.29-8.48-14.1l-4.76-6.47-3.55.52-27.82,12.69s-10.87,3.43-15.35,18.05c-1.29,4.19-8.36,25.23-8.36,25.23,0,0,2.91,1.66,5.97,2.52,20.64,7.31,34.33,10.75,34.33,10.75,0,0,37.7,1.19,54.17,1.76,12.45.43,24.79-1.11,24.79-1.11,0,0,13.83-1.46,24.24-4.34,6.06-1.68,6.37-1.68,12.3-4.47-2.57-9.18-3.14-15.64-3.14-15.64,0,0-4.14-13.84-7.04-20.47Z"/><path class="cls-22" d="M148.36,95.14c-1.46,5.1.29,11.29.29,11.29l1.59,26.93s4.26,10.96,5.52,13.84c1.59,3.63,1.78,5.22,5.82,9.3,2.36,2.39,7.88,6.66,11.13,8.17,6.99,3.23,20.79.28,20.79.28,0,0,6.26-3.88,9.84-8.56,4.25-5.56,6.43-10.04,8.09-17.39,3.25-14.34,8.96-32.29.67-45.43-10.67-16.9-29.42-12.33-44.89-4.51-2.33,1.18-4.63,2.4-6.93,3.63l-11.94,2.45Z"/><path class="cls-22" d="M211.3,119.83c1.68-3.02,3.83-7.05,7.96-5.75,2.43.77,3.45,3.82,3.51,6.17.12,5.17-6,15.73-6,15.73,0,0-3.97,3.55-6.6,4.85.06-.25.15-.52.28-.76l.86-20.23Z"/><path class="cls-22" d="M150.45,116.88c-1.44-.03-3.72-.8-4.96.15-1.33,1.02-1.22,3.77-1.47,5.26-.34,1.96-.67,3.64-.25,5.61.8,3.73,1.18,6.76,3.81,9.67,2.05,2.28,5.06,2.74,7.96,3.4,0,0-2.87-24.04-5.09-24.1Z"/><path class="cls-1" d="M180.97,126.2c-1.4,1.95-2.12,3.32-3.63,6.81-.4.93-1.3,3.16-1.3,3.16,0,0,1.85,1.55,3.03,2.12.85.41,3.26,1.01,3.26,1.01l1.54-3.12-2.89-9.97Z"/><path class="cls-15" d="M192.72,63.65c-10.33-.93-31.2,3.85-31.2,3.85,0,0-12.55,6.35-14.66,14.55-.25.98-1.44,4.27-2.75,11.73-.47,2.65-.42,11.07-.42,11.07,0,0,2.73,9.18,3.54,11.71,2.59,8.07,2.88,10.66,4.85,14.84.6-2.63.16-7.77.41-9.77.43-3.43.05-9.56.06-10.96,0-1.28,1.16-9.12,1.16-9.12,0,0,21.69-5.91,24.65-6.25,3.42-.39,9.13-1.83,14.3-2.38,2.7-.29,6.95-.55,6.95-.55l6.83,4.6s8.08,8.32,8.5,13.49c.28,3.48.25,6.96.65,10.44.36,3.17-.5,6.2-.95,9.37,3.96-8.37,7.13-13.55,8.02-22.78.41-4.22,1.52-13.8.87-19.22-.47-3.96-1.14-7.09-3.6-13.68,0,0-6.25-5.64-8.37-6.82l-18.86-4.1Z"/><path class="cls-23" d="M146.66,169.25c3.85,4.69,11.86,14.63,11.86,14.63l12.05,13.28,6.26-8.29s3.26-4.51,6.89-5.98c-1.56-1.79-16.85-13.68-18.53-15.32-3.15-3.08-6.11-6.91-6.11-6.91,0,0-9.24,5.37-12.42,8.58Z"/><path class="cls-23" d="M221.33,168.91c-3.85,4.69-13.35,15.39-13.35,15.39l-11.55,12.73-5.3-6.93s-4.89-5.09-7.97-7.2c1.56-1.79,16.85-13.68,18.53-15.32,3.15-3.08,6.11-6.91,6.11-6.91,0,0,9.63,5.31,13.54,8.24Z"/><path class="cls-23" d="M179.56,213.23s5.12.27,8.34-.48c.39-9.7.49-19.47-.1-29.16-.06-.6-7.95-.55-7.95-.55l-.64,8.26.35,21.93Z"/><path class="cls-5" d="M182.96,191.25c1.44.61,2.39-.07,2.39-.07,0,0,.71-1.02.72-1.78,0-1.88-2.16-2.38-3.43-1.56-1.21.78-1.01,2.85.33,3.41Z"/><path class="cls-5" d="M182.72,203.09c1.44.61,2.39-.07,2.39-.07,0,0,.71-1.02.72-1.78,0-1.88-2.16-2.38-3.43-1.56s-1.01,2.85.33,3.41Z"/><path class="cls-5" d="M162.9,126.15c.78.71,3.64.99,3.64.99,0,0,2.05-.12,3.1-.72,1.2-.69,1.66-3.17,1.66-3.17,0,0,.04-1.46-.14-2.23-.34-1.5-2.24-2.71-2.71-2.8-1.95-.36-4.54-.5-5.93,1.36-1.38,1.84-1.26,5.08.37,6.58Z"/><path class="cls-3" d="M164.38,119.01c-.74.84-1.2,1.92-1.31,3.02-.09.87.34,2.51.34,2.51,0,0,.49,1.1.85,1.52.47.54,1.88,1,1.88,1,0,0,3.72.8,5.01-1.99.3-.65.59-1.66.6-2.24.02-1.17-.29-2.29-.29-2.29,0,0-.77-1.6-2.27-2.21-1.24-.5-3.42-.34-3.42-.34,0,0-1,.58-1.4,1.02Z"/><path class="cls-5" d="M203.89,126.16c-.78.71-3.64.99-3.64.99,0,0-2.05-.12-3.1-.72-1.2-.69-1.66-3.17-1.66-3.17,0,0-.04-1.46.14-2.23.34-1.5,2.24-2.71,2.71-2.8,1.95-.36,4.54-.5,5.93,1.36s1.26,5.08-.37,6.58Z"/><path class="cls-3" d="M202.41,119.02c.74.84,1.2,1.92,1.31,3.02.09.87-.34,2.51-.34,2.51,0,0-.49,1.1-.85,1.52-.47.54-1.88,1-1.88,1,0,0-3.72.8-5.01-1.99-.3-.65-.59-1.66-.6-2.24-.02-1.17.29-2.29.29-2.29,0,0,.77-1.6,2.27-2.21,1.24-.5,3.42-.34,3.42-.34,0,0,1,.58,1.4,1.02Z"/><path class="cls-4" d="M171.59,105.48c5.25.92,8.33.42,13.65.24,2.35-.08,6.21.15,8.55.45.37.05,2.24.28,2.24.28,0,0,1.53.22,1.59.35.18.42-2.85,1.11-2.85,1.11,0,0-5.41.26-5.93.21-3.12-.31-6.1-.33-9.23-.45-3.49-.13-8.57-.74-9.8-1.65v-.45l1.78-.1Z"/><path class="cls-4" d="M169.55,141.3c-1.57,2.29-.98,7.37-.98,7.37,0,0,.02.74.28.96.71-.59.74-1.65.81-2.57.18-2.33,1.03-4.61,2.43-6.48.44-.59,1.26-1.79,1.26-1.79,0,0,.56-2.67-.62-1.47-.86.88-2.47,2.95-3.18,3.98Z"/><path class="cls-4" d="M191.31,139.67c.41.7,1.04,1.78,1.32,2.54.56,1.49,1.02,4.34,1.02,4.34,0,0,.14.97.72,1.81.28-.52.35-1.13.36-1.72.07-2.47-1.45-6.75-1.45-6.75,0,0-2.29-3.25-2.67-2.87-.32.32.48,2.27.7,2.66Z"/><path class="cls-11" d="M172.59,145.72s5.39-.3,7.62-.41c2.87-.13,10.4.53,10.4.53,0,0-.83,2.6-1.48,3.55-1.1,1.58-2.84,2.45-5.52,2.8-2,.26-4.33-.1-6.35-1.04-1.56-.72-2.46-1.49-3.33-2.87l-1.34-2.57Z"/><polyline class="cls-8" points="421.45 409.75 86.81 409.75 86.81 75.11"/><path class="cls-7" d="M104.57,394.98s296.37,26.15,304.39-316.61"/><polygon class="cls-12" points="420.87 88.68 418.61 90.66 408.89 79.51 398.48 90.03 396.35 87.91 409.03 75.11 420.87 88.68"/><text class="cls-13" transform="translate(48.96 97.46)"><tspan x="0" y="0">명</tspan></text><text class="cls-13" transform="translate(393.16 442.67)"><tspan x="0" y="0">년</tspan></text></svg>