<?xml version="1.0" encoding="UTF-8"?><svg id="_레이어_1" xmlns="http://www.w3.org/2000/svg" viewBox="0 0 500 500"><defs><style>.cls-1{fill:#8d3029;}.cls-2{fill:#e7c2a3;}.cls-3{fill:#a1802d;}.cls-4{fill:#db913e;}.cls-5{fill:#513f23;}.cls-6{fill:#9b4f41;}.cls-7{fill:#fff;}.cls-8{fill:#e9ba3f;}.cls-9{fill:none;}.cls-10{fill:#f8eec7;}.cls-11{fill:#573a6c;}.cls-12{fill:#ad7b53;}.cls-13{fill:#be8b56;}.cls-14{fill:#251e1c;}.cls-15{fill:#98663c;}.cls-16{fill:#c93f1e;}.cls-17{fill:#548f43;}.cls-18{fill:#66532b;}.cls-19{fill:#d9ad87;}.cls-20{fill:#7c3127;}.cls-21{fill:#855639;}.cls-22{fill:#d7e9e3;}</style></defs><rect class="cls-9" width="500" height="500"/><path class="cls-22" d="M474.02,177.5c3.15-26.92,4.29-74.16,4.29-74.16,0,0-11.06-38.53-30.06-48.89-21.47-11.7-39.32-13.65-60.12-16.3-80.84-10.3-116.79,5.93-198.01-1.67-16.93-1.58-56.47-3.52-73.48-4.18-42.94-1.67-73.48,20.89-73.48,20.89,0,0-25.29,61.56-20.04,99.44,10.84,78.24-1.02,128.66-2.89,207.45-.73,30.77-1.18,65.34,23.34,87.4,13.16,11.83,50.53,20.16,50.53,20.16,0,0,37.67.65,56.45-.86,34.29-2.76,68.59-5.51,102.88-8.27,20.61-1.66,96.15,2.63,111.08,4.15,30.78,3.13,60.84-2.09,60.84-2.09,0,0,31.52-8.5,42.94-27.58,11.23-18.75,12.39-55.85,11.45-76.46-2.69-58.9-11.45-130.15-5.73-179.04Z"/><path class="cls-19" d="M192.26,201.09c.79,3.3-1.64,11.17-1.64,11.17,0,0,2.92,25.2,3.13,28.44.37,5.6-4.81,9.63-8.23,15.77-4.88,8.78-13.27,19.78-23.46,17.99-10.46-1.84-23.18-19.3-23.31-28.52-.15-10.24-.55-28.98-.55-28.98,0,0,11.9,5.66,11.76,5.17l42.3-21.03Z"/><path class="cls-17" d="M261,268.02c-2.5-5.54-10.57-12.8-16.19-15.88-5.25-2.87-16.49-8.19-16.49-8.19,0,0-25.34-9.17-34.21-11.22-.61,3.85-23.56,9.3-23.56,9.3,0,0-16.68,1.6-25.42-2.12l-8.85-6.89-6.28,1.23-34.83,15.45s-13.61,4.18-19.22,21.98c-1.61,5.11-10.47,30.46-10.47,30.46,0,0,3.64,2.02,7.48,3.07,25.85,8.9,42.99,13.08,42.99,13.08,0,0,47.21,1.45,67.84,2.15,15.59.52,31.05-1.35,31.05-1.35,0,0,17.26.38,30.3-3.13,7.59-2.04,25.27-6.56,32.69-9.96-3.22-11.18-9.96-24.6-9.96-24.6,0,0-3.21-5.32-6.85-13.39Z"/><path class="cls-2" d="M154.28,118.13c-18.95,14.82-33.33,28.74-31.45,52.04.95,11.7,2.12,25.13,6.6,38,2.09,6,14.42,14.19,14.42,14.19,0,0,11.94,10.29,20.88,8.9,9.65-1.5,16.18-4.37,23.19-11.72,13.7-14.35,18.73-33.42,18.87-51.02.09-10.3-.4-21.17-6.38-30.36-6.34-9.73-17.67-15.62-28.43-21.15l-17.72,1.13Z"/><path class="cls-2" d="M130.71,170.8c-2.17-4.43-6.59-7.56-13.27-3.74-3.55,2.03-2.73,9.43-2.73,9.43,0,0,.4,9.15,3.63,13.32,1.65,2.13,11.27,5.28,11.27,5.28l1.11-24.3Z"/><path class="cls-2" d="M200.9,172.51c-.07-4.75,7.3-5.11,10.77-3.03,4.41,2.63,2.59,10.63,2.59,10.63,0,0-.83,6.52-4.05,9.91-1.22,1.28-7,3.93-7,3.93l-3.53.09s-.96-.36-.54-1.13l1.76-20.4Z"/><path class="cls-18" d="M141.48,108.97c-6.45,2.73-15.65,14.01-15.65,14.01,0,0-6.58,12.81-7.78,18.6-2.4,11.58,6.11,35.46,6.11,35.46,0,0,1.01-19.43,5.53-27.42,5.28-9.34,9.55-13.78,9.55-13.78l25.63,2.9s15.02-3.08,19-4.42c6.86-2.31,10.87,1.16,16.82,18.48,3.08,8.98,2.16,24.84,2.16,24.84,0,0,7.82-13.52,8.09-19.45.28-6.08-.2-21.98-.2-21.98,0,0-3.45-25.8-22.14-28.84l-29.54-1.87-17.56,3.46Z"/><path class="cls-4" d="M162.48,179.21c-.96,4.37-4.44,11.32-4.44,11.32l-1.44,3.78s4.25,4.4,5.96,4.12c1.09-.18,3.02-2.82,3.02-2.82.53-1.91,1.08-5.27.79-6.76l-3.9-9.63Z"/><path class="cls-7" d="M137.97,178.78c1,.92,4.68,1.27,4.68,1.27,0,0,2.64-.16,3.98-.93,1.54-.89,2.14-4.08,2.14-4.08,0,0,.05-1.88-.17-2.87-.43-1.92-2.88-3.48-3.48-3.59-2.5-.47-5.84-.64-7.62,1.74-1.77,2.37-1.62,6.53.48,8.45Z"/><path class="cls-5" d="M139.87,169.61c-.95,1.08-1.55,2.47-1.69,3.88-.11,1.12.44,3.23.44,3.23,0,0,.63,1.41,1.1,1.95.61.69,2.42,1.29,2.42,1.29,0,0,4.78,1.03,6.44-2.56.39-.84.76-2.14.77-2.88.02-1.51-.37-2.94-.37-2.94,0,0-.99-2.05-2.92-2.84-1.59-.64-4.4-.44-4.4-.44,0,0-1.29.74-1.8,1.31Z"/><path class="cls-7" d="M190.65,178.79c-1,.92-4.68,1.27-4.68,1.27,0,0-2.64-.16-3.98-.93-1.54-.89-2.14-4.08-2.14-4.08,0,0-.05-1.88.17-2.87.43-1.92,2.88-3.48,3.48-3.59,2.5-.47,5.84-.64,7.62,1.74,1.77,2.37,1.62,6.53-.48,8.45Z"/><path class="cls-5" d="M188.75,169.63c.95,1.08,1.55,2.47,1.69,3.88.11,1.12-.44,3.23-.44,3.23,0,0-.63,1.41-1.1,1.95-.61.69-2.42,1.29-2.42,1.29,0,0-4.78,1.03-6.44-2.56-.39-.84-.76-2.14-.77-2.88-.02-1.51.37-2.94.37-2.94,0,0,.99-2.05,2.92-2.84,1.59-.64,4.4-.44,4.4-.44,0,0,1.29.74,1.8,1.31Z"/><path class="cls-16" d="M152.73,205.59s6.92-.39,9.79-.52c3.69-.17,13.36.68,13.36.68,0,0-1.06,3.34-1.9,4.56-1.41,2.03-3.65,3.15-7.09,3.6-2.57.34-5.57-.13-8.15-1.33-2.01-.93-3.16-1.92-4.29-3.69l-1.72-3.3Z"/><path class="cls-3" d="M157.57,170.31c-2.32-7.09-10.13-10.18-10.13-10.18-5.24-1.31-12.16-.66-17.46,1.57-4.19,1.76-5.52,11.03-5.52,11.03,0,0-.49,3.53-.14,5.25.44,2.17,1.78,4.01,3.29,5.51,7.03,6.96,18.83,7.32,26.22.82,1.37-1.21,2.62-2.66,3.25-4.44.96-2.72,1.39-6.8.5-9.55ZM153.81,178.7c-.5,1.42-1.5,2.58-2.59,3.53-5.88,5.18-15.27,4.88-20.86-.65-1.21-1.19-2.27-2.65-2.62-4.38-.28-1.37.11-4.18.11-4.18,0,0,1.06-7.38,4.4-8.78,4.22-1.77,9.73-2.29,13.89-1.25,0,0,6.21,2.46,8.06,8.1.71,2.18.37,5.43-.39,7.6Z"/><path class="cls-3" d="M170.15,179.83c.63,1.79,1.88,3.24,3.25,4.44,7.39,6.51,19.18,6.14,26.22-.82,1.52-1.5,2.85-3.33,3.29-5.51.35-1.72-.14-5.25-.14-5.25,0,0-1.34-9.27-5.52-11.03-5.3-2.23-12.23-2.88-17.46-1.57,0,0-7.81,3.09-10.13,10.18-.9,2.74-.46,6.83.5,9.55ZM173.01,171.08c1.85-5.65,8.06-8.1,8.06-8.1,4.17-1.04,9.68-.53,13.89,1.25,3.33,1.4,4.4,8.78,4.4,8.78,0,0,.39,2.81.11,4.18-.35,1.73-1.41,3.19-2.62,4.38-5.6,5.54-14.98,5.83-20.86.65-1.09-.96-2.09-2.11-2.59-3.53-.76-2.16-1.11-5.41-.39-7.6Z"/><path class="cls-3" d="M171.41,172.44c.13.89.26,1.77.38,2.66-2.77-.09-5.17-.29-7.9-.04-2.18.2-4.68.83-6.88.93-.77-1.43.02-3.15.02-3.15l5.75-1.29s8.59.69,8.62.89Z"/><path class="cls-10" d="M193.76,233.44l-11.48,20.36s-5.52,7.6-9.66,11.28c-1.91,1.7-8.39,6-8.39,6,0,0-7.36-4.49-9.89-6.87-7.63-7.17-13.6-15.85-16.9-25.79-.49-1.47-.47-4.85-.47-4.85l8.27,2.53s11.78,2.81,21.21,2.28c9.43-.53,27.3-4.96,27.3-4.96Z"/><path class="cls-14" d="M299.83,198.18c1.53,10.68,3.07,21.5,7.11,31.58,1.26,3.14,2.77,6.16,4.41,9.12.87,1.57,1.81,3.11,2.53,4.76.32.74.53,1.68,1.12,2.27.86.87,2.41.97,3.55,1.07,7.31.7,14.94-.3,22.19-1.16,5.82-.69,11.61-1.58,17.36-2.71,2.34-.46,4.71-.78,6.99-1.5,5.38-1.7,9.96-5.12,12.59-10.18,3.89-7.48,4.08-16.75,4.43-24.99.18-4.2.55-8.77-.53-12.88-.98-3.75-3.79-5.6-7.45-6.39-7.09-1.53-14.82-.81-21.99-.48-11.74.55-23.47,1.4-35.19,2.2l-17.11,9.3Z"/><path class="cls-21" d="M318.28,214.76s1.96,14.89-.06,22.12c-.76,2.72-1.21,7.17-3.22,9.02-2.49,2.29-6.29,2.08-9.12,3.87,1.26,2.07,3.97,3.4,5.61,5.24,2.45,2.74,8.99,6.03,8.99,6.03,0,0,13.96,2.86,21.42,2.22,3.81-.33,7.86-.13,11.6-.97,3.66-.82,10.96-3.24,10.96-3.24,0,0,11.16-4.8,16.43-7.52-2.33-3.02-6.1,1.75-7.49-1.69-.78-1.95-1.71-6.19-2.99-7.9-1.32-1.76-3.16-6.18-3.16-6.18,0,0-1.79-11.81-2.75-15.98-.81-3.52-.02-7.51-1.4-10.83.02.28.02.56.01.83l-44.84,4.98Z"/><path class="cls-15" d="M302.6,198.88c2.36,9.24,4.51,16.72,10.84,24.21,3.96,4.68,14.7,9.04,14.7,9.04,0,0,12.67,3.5,19.13,1.18,6.99-2.5,12.67-4.44,17.33-9.87,5.22-6.09,10.49-12.09,12.24-20.15,2.45-11.26.77-23.78-.08-35.15-.79-10.64-1.64-22.39-10.41-29.73-8.28-6.93-20.86-10.83-31.52-11.49-24.75-1.55-35.59,28.53-36,48.81l3.77,23.15Z"/><path class="cls-14" d="M347.39,182.85c4.06-.88,8-.71,8-.71l7.11.78s2.43.2,4.01.09c-.07-1.21-1.5-2.09-1.5-2.09,0,0-5.21-2.26-6.97-2.83-1.92-.63-7.44.48-7.44.48,0,0-2.67,1.9-3.87,3.09l.67,1.19Z"/><path class="cls-14" d="M308.76,182.13c2.13-.29,9.94-.1,9.94-.1l4.49.44,3.74.75,1.13-.93s-2.24-2.89-3.44-3.51c-2.62-1.34-7.72-1.2-7.72-1.2l-3.48,1.07s-3.15,1.11-4.63,1.97c0,0-1.55,1.72-.03,1.51Z"/><path class="cls-20" d="M335.02,188.41c-.95,2.08-4.12,8.28-4.12,8.28,0,0-.17,1.47,1.53,2.23,1.31.59,4.42,2.65,4.42,2.65,0,0,.57-4.56.52-5.99l-2.35-7.18Z"/><path class="cls-1" d="M327.46,208.79s3.88.47,4.8.46c1.95-.01,5.92.15,5.92.15,0,0,3.32-.36,4.95-.62,1.44-.23,2.44-.42,4.15-.91-.02,1.68-2.03,3.94-2.03,3.94,0,0-3.57,2.39-4.99,2.82-2.95.9-8.09-1.07-8.09-1.07,0,0-2.79-1.8-3.79-2.95l-.92-1.85Z"/><path class="cls-14" d="M313.62,132.93c-1.94,2.07-1.76,3.65-2.09,6.32-.38,3.11-.55,6.52.16,9.61.51,2.2,14.51,11.18,19.95,13.82,6.7,3.73,22.04,9.55,22.04,9.55l20.39,5.36s.51-2.97.64-5.41c.24-4.54-.28-9.28-1.08-13.74-.83-4.63-2.35-9.03-4.14-13.37-1.41-3.42-2.68-7.21-5.05-10.11-3.59-4.41-9.55-5.71-14.92-6.38-7.05-.87-14.2-.7-21.29-.64l-14.61,4.98Z"/><path class="cls-11" d="M369.88,240.38l-15.39,1.36s-19.52.82-31.82-.68l-6.45.43c-15.78,2.53-37.29,20.47-37.29,20.47,0,0-15.47,16.97-17.02,26.49-.72,4.42-6.01,10.98-6.54,16.68,5.03.96,16.52,1.68,16.52,1.68,0,0,50,7.91,75.21,8.08,25.21.17,73.95-14.51,73.95-14.51,0,0,3.53-1.88,6.98-4.56-1.06-7.42-2.21-9.12-2.9-12.99-2.59-14.64-33.65-38.53-55.25-42.44Z"/><path class="cls-14" d="M311.08,121.12s-14.43,13.22-19.36,22.75c-4.96,9.6-7.75,33.96-7.75,33.96,0,0-1.07,18.16-2.66,28.8-1.19,7.98-2.24,24.12-2.24,24.12,0,0,1.34,7.95,3.34,11.57,2.75,4.96,7.48,14.09,11.1,17.03,1.59-5.66,5.32-6.63,5.32-6.63,0,0,2.25.71,7.05,1.31,5.26.66,11.03,1.87,15.74-1.31-11.65-13.62-17.95-55.11-17.95-55.11l1.93-27.83s5.24-23.86,10.68-29.73c11.87-12.8,43.68,1,43.68,1,0,0,9.96,3.49,15.13,55.87.89,9.05-2.55,27.19-2.55,27.19,0,0-7.54,21.65-12.86,29.81,3.16.83,4.57-.2,7.7-1.19,1.77-.56,3.89-2.63,7.38-3.89,2.54,3.89,5.08,5.99,5.08,5.99,0,0,8.61-5.66,13.42-14.9,1.48-2.84,4.86-10.91,4.86-10.91,0,0,1.24-10.79.81-17.03-.75-11.1-3-21.98-3-21.98l-3.9-18.15-4.68-21.75-4.16-9.03s-5.4-12.31-9.81-16.35c-10.12-9.28-32.62-11.07-44.51-7.93-11.43,0-17.79,4.32-17.79,4.32Z"/><path class="cls-15" d="M374.26,187.01c1.44-8.71,10.95-7.54,12.86.22.85,3.45-1.17,10.17-1.17,10.17,0,0-5.17,7.45-9,9.48-5.74,3.03-6.19-1.72-5.64-6.4l2.95-13.47Z"/><path class="cls-15" d="M304.3,184.03c-.87-4.87-7.42-7.18-10.57-3.65-2.28,2.56-.31,12.1-.31,12.1,0,0,8.37,18.35,15.5,13.02l-4.63-21.47Z"/><polygon class="cls-14" points="305.21 299.02 303.34 308.2 302.25 311.94 300.23 298.24 305.21 299.02"/><path class="cls-12" d="M241.01,355.08c6.12,3.89,12.88,6.97,20.05,8.05,7.17,1.08,14.81.03,20.98-3.79.67-.42,1.35-.9,1.68-1.61.32-.7.26-1.52.2-2.29-.32-4.3-.15-8.64.51-12.91-4.74,2.55-10.42,3.3-15.66,2.06-3.56-.84-6.84-2.55-10.08-4.24-3.28-1.71-16.02-10.45-18.03-7.02-.83,1.41-.58,21.14.35,21.75Z"/><path class="cls-13" d="M243.65,266.77c-5.37,4.93-8.68,11.78-10.44,18.86-1.76,7.07-2.06,14.42-2.17,21.71-2.11-1.65-4.29-3.33-6.86-4.08-2.57-.75-5.66-.37-7.44,1.63-2.15,2.43-1.14,9.4-.34,12.55,1.81,7.14,12.69,12.72,12.69,12.72l3.51.76s.73,2.28,1.21,3.22c2.71,5.38,9.94,11.08,9.94,11.08,0,0,13.38,6.76,21.15,7.32,2.39.17,8.83-.28,11.2-.65,2.93-.46,9.91-3,11.42-4.26,5.81-4.88,9.26-12.84,9.26-12.84l.82-2.61s1.4-.64,2.16-.83c4.33-1.11,8.52-9.73,8.52-9.73,0,0,2.01-4.51,2.09-6.94.07-2.43-1.02-6.37-3.24-7.38-1.21-.55-3.72-.05-3.72-.05,0,0-1.09-4.22-1.08-6.22.05-8.79-.1-17.44-4.66-24.96-3.81-6.28-10.69-10.16-17.74-12.23-13.53-3.98-29.67-1.53-39.1,8.96"/><path class="cls-6" d="M271.89,313.56l-1.9,7.47.29,5.32s5.4-2.2,6.76-3.73c-2.08-2.94-3.57-5.82-5.14-9.06Z"/><path class="cls-1" d="M270.22,332.64s7.74.22,7.98.46c.37.35-2.51,3.28-2.51,3.28l-5.65.82-7.41-2.45-3.25-3.42,10.84,1.32Z"/><path class="cls-8" d="M323.62,400.31s-3.98-9.32-5.59-13.13c-2.31-5.44-8.2-14.06-8.2-14.06,0,0-7.71-9.21-16.49-13.27-2.06-.95-7.61-3.58-7.61-3.58,0,0-16.3,2.26-19.03,2.27-10.67.05-27.39-7.49-27.39-7.49,0,0-7.96,3.66-15.45,9.51-5.3,4.14-14.53,15.61-14.53,15.61,0,0-8.47,10.33-10.59,21.28,0,0,9.85,9.27,33.93,12.44,24.08,3.17,62.11,1.27,62.11,1.27l28.83-10.86Z"/><path class="cls-7" d="M264.82,373.78c1.09.8,2.59.86,3.88.47l.49-.35c.65-.77.96-1.42,1.18-2.41.21-.99-.89-2.73-.89-2.73,0,0-1.66-1.01-3.27-.45-.79.27-1.5.83-1.95,1.54-.73,1.14-.53,3.14.56,3.94Z"/><path class="cls-7" d="M268.24,383.06c-1.35.14-2.5,1.11-3.2,2.28l-.13.59c.04,1.02.25,1.71.76,2.59.51.88,2.51,1.43,2.51,1.43,0,0,1.91-.37,2.73-1.88.4-.74.55-1.63.41-2.46-.23-1.34-1.73-2.69-3.08-2.55Z"/><path class="cls-14" d="M266.76,246.96c4.18.25,10.07,2.12,13.8,3.65,4.5,1.85,8.65,4.93,12.24,7.78,4.48,3.56,5.66,7.96,8.92,12.42.92,1.26,3.02,5.78,4.81,13.19.3,1.23,1.39,7.76,1.06,11.92-.11,1.45.98,6.71.22,6.74-2.56.11-6.92-.76-10.9-2.95-1.41-.78-4.63-4.83-6.08-5.62.11,1.82,1.4,4.54,1.4,4.54,0,0-14.27-1.29-20.3-3.26-6.03-1.97-14.98-7.25-15.5-8.55-1.34,4.23-2.55,6.95-5.53,9.68-1.43,1.3-11.05,8.52-11.05,8.52l-10.15,5.71s-2.78-8.2-11.49-6.96c1.27-4.22,1.6-13.36.85-17.56-.69-3.87-.42-10.5-.42-10.5,2.25-7.38,1.62-8.06,4.42-12.03,2.39-3.38,10.16-9.68,14.11-12.1,4.67-2.87,10.57-4.92,14.2-4.99l15.38.38Z"/><polygon class="cls-14" points="224.57 299.33 229.7 310.72 236.27 304.08 224.57 299.33"/><path class="cls-7" d="M245.84,308.85c-.26.62-.03,2.07,0,2.74.04.82.89,2.24.89,2.24,0,0,2.14,2.49,4.18,2.45,1.63-.03,3.3-.35,4.57-1.44.69-.6.75-1.24,1.03-2.14.2-.64.46-2.19.46-2.19,0,0-.35-2.66-1.92-3.81-1.1-.8-3.04-1.26-3.04-1.26,0,0-4.48-.72-6.18,3.41Z"/><path class="cls-14" d="M247.24,308.23c-1.36,2.52.12,5.52.12,5.52,0,0,.99,1.21,2,1.74,1.88.98,4.42.43,4.42.43,0,0,1.7-.74,2.24-1.65,1.91-3.2,1.16-5.48-.31-7.05-2.25-2.4-6.79-2.11-8.47,1.01Z"/><path class="cls-7" d="M294.29,309.48c.25.62.03,2.07,0,2.74-.04.82-.88,2.24-.88,2.24,0,0-2.12,2.49-4.14,2.45-1.61-.03-3.27-.35-4.53-1.44-.68-.6-.74-1.24-1.02-2.14-.2-.64-.46-2.19-.46-2.19,0,0,.12-2.66,1.67-3.81,1.09-.8,3.24-1.26,3.24-1.26,0,0,4.44-.72,6.12,3.41Z"/><path class="cls-14" d="M292.84,308.62c1.36,2.52-.12,5.52-.12,5.52,0,0-1.27,1.4-2.28,1.93-1.88.98-4.13.24-4.13.24,0,0-2.04-.88-2.5-1.84-1.56-3.27-.9-5.29.56-6.86,2.25-2.4,6.79-2.11,8.47,1.01Z"/></svg>