<?xml version="1.0" encoding="UTF-8"?><svg xmlns="http://www.w3.org/2000/svg" viewBox="0 0 500 500"><defs><style>.cls-1{fill:#4c3c2f;}.cls-2{fill:#a09776;}.cls-3{fill:#8d3029;}.cls-4{fill:#43325c;}.cls-5{fill:#e7c2a3;}.cls-6{fill:#f4dfce;}.cls-7{fill:#a1802d;}.cls-8{fill:#db913e;}.cls-9{fill:#3d5058;}.cls-10{fill:#c29973;}.cls-11{fill:#c2d88c;}.cls-12{fill:#f2f2f2;mix-blend-mode:multiply;}.cls-13{fill:#513f23;}.cls-14{fill:#9b4f41;}.cls-15{fill:#eac4ab;}.cls-16{fill:#b3d3ad;}.cls-17{fill:#d8aa83;}.cls-18{fill:#d09f65;}.cls-19{fill:#fff;}.cls-20{fill:#8c3f30;}.cls-21{fill:#dc9534;}.cls-22{fill:#9f702c;}.cls-23{fill:#cd9b5f;}.cls-24{fill:#eae4d1;}.cls-25{fill:#9b7b2f;}.cls-26{fill:#e9ba3f;}.cls-27{fill:none;}.cls-28{fill:#417357;}.cls-29{fill:#db946f;}.cls-30{fill:#fcf09a;}.cls-31{fill:#f8eec7;}.cls-32{fill:#d0a36d;}.cls-33{fill:#5b64aa;}.cls-34{fill:#2f2011;}.cls-35{fill:#e5b9a2;}.cls-36{isolation:isolate;}.cls-37{fill:#d7a67c;}.cls-38{fill:#573a6c;}.cls-39{fill:#4c4a4a;}.cls-40{fill:#9e866b;}.cls-41{fill:#52549f;}.cls-42{fill:#ad7b53;}.cls-43{fill:#7ab891;}.cls-44{fill:#be8b56;}.cls-45{fill:#251e1c;}.cls-46{fill:#98663c;}.cls-47{fill:#c93f1e;}.cls-48{fill:#dbad94;}.cls-49{fill:#548f43;}.cls-50{fill:#e9c941;}.cls-51{fill:#66532b;}.cls-52{fill:#73b15f;}.cls-53{fill:#ab4b2a;}.cls-54{fill:#cb7747;}.cls-55{fill:#d9ad87;}.cls-56{fill:#674025;}.cls-57{fill:#7c3127;}.cls-58{fill:#776530;}.cls-59{fill:#867063;}.cls-60{fill:#c83936;}.cls-61{fill:#e8c08b;}.cls-62{fill:#855639;}.cls-63{fill:#2f2614;}.cls-64{fill:#7f913a;}.cls-65{fill:#d57c47;}.cls-66{fill:#e0a03b;}.cls-67{fill:#efd1a4;}.cls-68{fill:#e0ba88;}.cls-69{fill:#b14c23;}.cls-70{fill:#37281b;}</style></defs><g class="cls-36"><g id="_레이어_1"><rect class="cls-27" width="500" height="500"/><path class="cls-6" d="M474.02,177.5c3.15-26.92,4.29-74.16,4.29-74.16,0,0-11.06-38.53-30.06-48.89-21.47-11.7-39.32-13.65-60.12-16.3-80.84-10.3-116.79,5.93-198.01-1.67-16.93-1.58-56.47-3.52-73.48-4.18-42.94-1.67-73.48,20.89-73.48,20.89,0,0-25.29,61.56-20.04,99.44,10.84,78.24-1.02,128.66-2.89,207.45-.73,30.77-1.18,65.34,23.34,87.4,13.16,11.83,50.53,20.16,50.53,20.16,0,0,37.67.65,56.45-.86,34.29-2.76,68.59-5.51,102.88-8.27,20.61-1.66,96.15,2.63,111.08,4.15,30.78,3.13,60.84-2.09,60.84-2.09,0,0,31.52-8.5,42.94-27.58,11.23-18.75,12.39-55.85,11.45-76.46-2.69-58.9-11.45-130.15-5.73-179.04Z"/><path class="cls-24" d="M54.41,96.23l-.77,148.73s-4.03,110.43,1.32,157.89c0,0,32.85-4.59,55.73-2.37,22.88,2.21,68.49,5.92,120.38,4.11,51.89-1.81,108.12-4.04,143.02-2.94,34.9,1.1,65.3-.34,65.3-.34l.11-51.4s1.08-172.75-1.25-195.05l-.38-60.76s-71.93,2.95-86.46,0c-14.54-2.95-71,2.96-93.89,3.52s-203.11-1.37-203.11-1.37Z"/><path class="cls-19" d="M53.58,254.25s44.84-14.26,62.59-24.51c16.81-9.7,36.04-26.03,66.88-34.58,0,0,23.25,29.02,33.7,45.7,18.37,29.31,52.09,45.68,52.09,45.68,0,0-33.05,14.06-53.93,29.74-20.88,15.67-43.42,34.2-61.8,46.68-18.38,12.48-82.68,38.35-82.68,38.35,0,0,28.75-2.45,51.67-.83,0,0,36.41-13.35,51.39-22.87,14.98-9.51,58.73-45.22,73.08-53.62,14.34-8.39,47.28-24.38,47.28-24.38,0,0,43.09,24.48,57.21,43.89,14.12,19.41,33.51,53.94,40.07,59.35l27.81-.19-41.54-60.95s-27.59-35.39-54.5-50.63c0,0,36.3-2.45,61.16-1.62,24.86.83,56.89,1.09,56.89,1.09v-20.5s-85.16-3.16-104.95-2.17c-19.79.99-37.55,4.6-37.55,4.6,0,0-40.84-16.41-58.73-41.04-17.89-24.62-38-51.25-41.94-59.24-3.95-7.99-17.62-31.5-20.83-73.99h-20.25s0,46.32,16.26,72.58c0,0-34.13,15.64-50.85,28.29-16.72,12.64-68.51,30.68-68.51,30.68v24.51Z"/><path class="cls-16" d="M208.86,98.2s13.05,13.67,27.88,18.51c14.84,4.84,26.43,2.82,34.03,13.03,7.6,10.2,7.71,26.42,19.16,35.33s21.04,10.11,25.37,18.56,5.95,47.54,28.37,57.24,42.9,1.82,63.52-6.04c0,0,21.05-10.62,33.07,6.04,0,0-1.96-94.79-2.67-105.41-.71-10.62.28-41.36.28-41.36,0,0-49.49,2.9-68.75,1.39-19.27-1.51-63.52-1.86-88.04,1.1-24.52,2.96-72.21,1.62-72.21,1.62Z"/><path class="cls-30" d="M292.6,96.58s13.37,3.17,14.34,16.77c.97,13.6,2.5,21.5,21.33,27.49,18.83,5.99,25.54,13.52,30.87,30.12s19.72,35.43,54.95,28.09c0,0,20.81-2.41,25.17,4.73,0,0-2.54-100.09-1.4-109.7l-62.77,1.2s-66.52-3.4-82.49,1.29Z"/><path class="cls-10" d="M352.89,94.95s-4.93,8.8,4.78,13.84c0,0,5.26,3.88,6.62,13.53,1.35,9.65,2.32,24.33,24.33,25.1,22.01.77,24.52.19,30.7,4.83,6.18,4.63,12.19,7.72,18.94,5.12l-.38-63.27s-74.16,1.61-84.97.86Z"/><path class="cls-16" d="M54.41,146.79s8.25.6,16.25-3.96c7.99-4.56,9.78-6.4,23.1-5.95,13.32.45,22.39-2.24,30.52-15.45,8.13-13.21,16.62-14.45,23.05-17.56s9.37-6.65,9.37-6.65H54.86l-.45,49.58Z"/><path class="cls-30" d="M54.96,96.23v20.01s2.36-3.26,11.02-1.64,12.64,3.38,21.66-5.85c0,0,3.55-4.58,10.26-7.12,6.71-2.54,7.88-5.41,7.88-5.41h-50.82Z"/><path class="cls-24" d="M418.25,401.65l-43.41-63.23s-35.59-37.48-51.93-47.34c0,0,24.95-3.35,49.3-2.28,24.35,1.08,67.68,1.74,67.68,1.74,0,0,.26,38.2-.14,51.51-.4,13.31.8,52.11-.36,59.26l-21.14.34Z"/><path class="cls-12" d="M437.6,103.58c6.46-.22,10.57-.39,10.57-.39l.38,60.76c2.33,22.3,1.25,195.05,1.25,195.05l-.11,51.4s-30.41,1.45-65.3.34c-34.9-1.1-91.36-.11-143.25,1.71-51.89,1.81-97.27-.66-120.15-2.88-22.88-2.21-62.54,3.4-62.54,3.4-.35-3.14-.67-6.56-.94-10.21,0,0,25.66-3.4,61.76-1.13,27.29,1.72,92.29,3.08,111.4,2.33,19.11-.75,87.46-3.44,87.46-3.44,0,0,52.61.79,70.92,1.44,29.77,1.05,50.51-1.26,50.51-1.26,0,0,.69-21,.11-39.39-.58-18.39.41-70.37.21-94.99s-.07-88.84-2.02-124.44l-.26-38.33Z"/><path class="cls-39" d="M437.57,349.97c-.49,16.96,1.2,33.99-.02,50.91-.17,2.35,3.5,3.32,3.7.84,1.34-17.25-.33-34.6.19-51.89.08-2.5-3.79-2.42-3.87.14h0Z"/><path class="cls-39" d="M435.89,94.16c-1.49,37.81,1.5,75.99,1.66,113.85.2,47.4,1.5,94.56.04,141.97-.08,2.47,3.73,2.38,3.82-.14,1.6-47.41.29-94.57.11-141.97-.15-37.86-3.16-76.04-1.68-113.85.1-2.55-3.85-2.46-3.95.14h0Z"/><path class="cls-39" d="M280.57,98.56c28-2.71,54.8-3.04,82.83-1.58,24.85,1.3,49.76-.74,74.62-.87,2.59-.01,2.21-4.04-.29-4.02-24.85.14-49.77,2.19-74.62.91-27.99-1.45-54.85-1.1-82.82,1.62-2.53.25-2.17,4.19.29,3.96h0Z"/><path class="cls-39" d="M54.54,98.07c35.04.2,70.08.52,105.12.91,40.19.45,80.83,3.12,120.9-.41,2.57-.23,2.2-4.23-.29-4.01-40.07,3.58-80.7.98-120.89.58-35.04-.35-70.08-.62-105.11-.76-2.37,0-2.02,3.67.27,3.68h0Z"/><path class="cls-39" d="M55.11,404.93c26.34-4.37,53.1-1.57,79.58-.08,34.96,1.97,69.08,1.7,104.05.33,33.35-1.31,66.76-2.51,100.14-2.43,33.61.08,66.96,4.25,100.56,1.18,2.92-.27,2.5-4.83-.33-4.56-32.69,3.04-65.13-.82-97.84-1.02-34.27-.21-68.61,1.19-102.84,2.55-33.97,1.35-67.16,1.83-101.13-.1-27.41-1.56-55.23-4.58-82.49-.04-2.62.44-2.26,4.6.3,4.17h0Z"/><path class="cls-39" d="M52.67,96.3c.04,55.91-.92,111.66-2.06,167.55-.94,46.22-1.44,92.95,2.27,139.08.21,2.66,4.36,2.6,4.13-.15-3.77-46.13-3.28-92.85-2.47-139.07.99-55.89,1.9-111.63,1.59-167.53-.01-2.25-3.47-2.18-3.47.12h0Z"/><path class="cls-32" d="M114.34,214.06c.25.97-.52,3.29-.52,3.29,0,0,.91,7.42.98,8.37.12,1.65-1.51,2.83-2.58,4.64-1.53,2.59-4.16,5.83-7.35,5.3-3.28-.54-7.26-5.68-7.3-8.4-.05-3.02,1.03-8.04,1.03-8.04,0,0,2.52,1.17,2.48,1.02l13.25-6.19Z"/><path class="cls-68" d="M93.44,204.83c-.36-1.24-2.04-1.2-2.61-.1-.45.88-.16,3.6-.16,3.6l1.33,3.3s1.33,1.79,2.27,2.36l-.83-9.16Z"/><path class="cls-68" d="M93.76,196.08c-.63,2.02-.11,4.52-.11,4.52l.3,12.19s.64,2.89.88,4.1c.4,2.03.94,2.91,2.35,4.6,2.6,3.11,6.07,5.58,10.19,5.18,6.23-.6,9.45-7.06,10.84-12.43,1.47-5.69,1.9-12.56-.91-17.93-3.61-6.9-10.62-5.33-16.47-2.41-.88.44-1.75.9-2.62,1.36l-4.45.82Z"/><path class="cls-8" d="M104.23,207.57c-.48.83-1.32,2.82-1.32,2.82,0,0-1.18,1.88-1.21,2.2l1.2,1.24s1.2.35,1.8.42l.26-2.26-.72-4.42Z"/><path class="cls-47" d="M100.39,217.71s2.42-.14,3.42-.18c1.29-.06,4.67.24,4.67.24,0,0-.37,1.17-.67,1.59-.49.71-1.28,1.1-2.48,1.26-.9.12-1.94-.05-2.85-.47-.7-.32-1.1-.67-1.5-1.29l-.6-1.15Z"/><path class="cls-40" d="M115.08,193.51s-3.74-.06-4.57-.15c-1.75-.19-5.19.06-5.19.06,0,0-4.53,1.46-6.53,2.4-1.12.52-4.18,3.22-4.18,3.22l-.83,6.6c-.57-.69-.68-.63-1.32-2.02-.89-1.96-.57-5.87-.76-8.21-.24-2.94,3.57-6.64,3.57-6.64,0,0,6-5.48,9.74-5.67,2.47-.13,5.45.69,7.74,1.57,2.02.78,3.9,1.97,5.4,3.49,1.63,1.66,2.81,3.71,3.24,6.07.36,1.96-.37,6.07-.37,6.07,0,0-2.1,5.79-3.28,8.26-.71-.77-1.57-3.88-1.57-6.19v-2.89l-1.07-5.97Z"/><path class="cls-68" d="M118.41,205.93c.67-1.1,1.54-2.57,3.06-2.02.89.32,1.23,1.48,1.21,2.36-.04,1.93-2.49,5.78-2.49,5.78,0,0-1.54,1.26-2.54,1.71.03-.09.06-.19.12-.28l.64-7.54Z"/><path class="cls-23" d="M99.58,200.61c2.32.41,3.69.19,6.04.11,1.04-.03,2.75.07,3.78.2.16.02.99.12.99.12,0,0,.68.1.7.16.08.19-1.26.49-1.26.49,0,0-2.4.12-2.62.09-1.38-.14-2.7-.15-4.09-.2-1.54-.06-3.8-.33-4.34-.73v-.2l.79-.05Z"/><path class="cls-70" d="M101.4,205.81s.66.57.59.97c-.41.08-1.21-.17-1.21-.17,0,0-.84-.15-1.26-.19-1.11-.1-2.23-.16-3.35-.17-.07,0,.27-.59.31-.64.12-.14.44-.37.44-.37,0,0,.93-.26,1.36-.29,1.1-.07,3.13.86,3.13.86Z"/><path class="cls-70" d="M110.32,205.17c1.01-.12,2.88.43,2.88.43,0,0,.88.58,1.16.92-.69.27-2.08-.02-2.08-.02,0,0-2.77,0-4.14.1-.93.07.57-.89.57-.89,0,0,1.04-.48,1.61-.54Z"/><path class="cls-40" d="M102.47,215.05c-.64-.08-1.53-.2-2.35-.08-.74.11-1.77,1.09-1.77,1.09,0,0-.69,2.21-.74,3.56.83.6,1.21.68,1.43.47.34-.31.99-2.01.99-2.01,0,0,.88-1.07,1.72-1.25.88-.18,2.19,0,2.86,0,1.43-.02,2.7-.09,3.79.12,1.41.27,2.72,3.96,2.72,3.96l1.87.03s-.53-5.35-1.72-5.73c-1.07-.34-3.06-.4-3.06-.4,0,0-2.19.14-3.69.3l-2.07-.08Z"/><path class="cls-40" d="M118.71,204.79c.06,3.11.36,7.02-.16,9.9-.39,2.15-1.52,4.29-2.52,6.23-.94,1.83-4.36,4.64-4.36,4.64,0,0-2.76,1.89-4.25,2.13-.67.11-4.02.55-7.29-1.37-2.24-1.32-4.65-5.72-4.65-5.72,0,0-1.48-3.73-1.71-5.31-.25-1.75-.85-11.17-.85-11.17l1.03-.02s.19,9.2.32,9.9c.55,2.82,6.1,6.74,6.1,6.74,0,0,2.76,1.4,4.65,1.16,1.04-.13,2.06-.36,2.94-.58,1.86-.47,3.42-1.32,4.69-2.44,1.26-1.12,2.94-4.05,2.94-4.05l1.43-7.49-.12-2.24s1.22-.53,1.82-.29Z"/><path class="cls-23" d="M102.43,207.1c.1.14-.27.84-.27.84l-.72.73s-.94.77-1.54.91c.06-.81,2.01-1.99,2.54-2.47Z"/><path class="cls-23" d="M109.12,209.47s.86.45.97.44-.63-1.04-.63-1.04l-.92-.88s-.49-.44-.8-.42c-.1.73,1.39,1.89,1.39,1.89Z"/><path class="cls-4" d="M133.23,232.96c-.76-1.63-1.6-3.5-3.31-4.41-1.6-.85-5.21-2.11-5.21-2.11,0,0-7.31-1.6-10.01-2.2-.38,2.3-3.84,6.24-3.84,6.24,0,0-4.65,4.58-5.25,4.27-1.18-.62-4.03-2.87-4.03-2.87,0,0-1.9-1.9-3.24-5.06l-.8-2.58-2.37.45-10.61,4.55s-4.14,1.23-5.85,6.47c-.49,1.5-3.19,10.41-3.19,10.41,0,0,1.11.6,2.28.9,7.87,2.62,13.09,3.85,13.09,3.85,0,0,14.38.43,20.66.63,4.75.15,9.45-.4,9.45-.4,0,0,5.27-1.21,9.24-2.24,2.31-.6,5.32-1.28,7.59-2.28-.98-3.29-1.92-6.29-1.92-6.29,0,0-1.58-4.96-2.69-7.34Z"/><path class="cls-11" d="M105.1,238.56c.18.13.6.25.6.25l4.9-4.35s4.67-4.23,7.81-9.39c-1.05-.42-2.71-.89-3.6-1.09-.53,1.78-4.21,6.33-4.21,6.33,0,0-4.94,4.09-5.13,4.09-.23,0-3.77-2.71-3.77-2.71,0,0-1.77-1.63-3.1-4.79l-1.01-2.85-2.41.65-.5.21c1.02,2.97,4.32,8.36,4.32,8.36,0,0,3.92,3.68,6.1,5.29Z"/><path class="cls-56" d="M174.53,180.17c-5.3-.38-7.07.81-10.54,4.25-1.04,1.04-2.39,3.2-2.39,3.2,0,0-1.99,5.33-2.3,7.18-.5,3,4.42,23.21,3.9,24.98,2.41,1.14,8.99-5.17,10.81-5.62,2.5-.61,1.25-.31,3.81-.03,3.58.39,6.2,6.44,7.82,5.77,3.64-1.51,7.85-.89,7.85-.89,0,0-.03-19.78-.78-24.98-.35-2.38-1.56-5.78-1.56-5.78,0,0-1.93-4.36-3.85-5.67-2.57-1.76-8.52-2.74-8.52-2.74l-4.27.34Z"/><path class="cls-41" d="M159.41,227.34c5.39,1.64,5.91,1.82,11.34,2.04,5.92.24,7.8.6,13.73.44.35,0,2.35-.03,2.7-.05,1.28-.19,3.03-.42,3.89-.9,1.61-.9,3.51-2.07,5.07-2.84-.02-.76-3.51-8.31-4.26-9.07l-6.4-3.93s-14.96-.53-16.91-.21c-1.37.22-5.28,3.85-5.86,4.53-2.49,2.89-2.95,3.31-4.4,6.83-.32.79-.51,1.74-.62,2.63.41.13.91.28,1.74.53Z"/><path class="cls-48" d="M171.76,214.24l4.8,3.67s4.63-3.42,4.63-3.6c0-.04.19-.74.24-1.02.16-.73.07-1.68.22-2.41-1.2.61-2.37.78-3.71.66-1.71-.15-3.7-.86-5.39-.78-.81.04-.98-.82-1.13-.07l.32,3.56Z"/><path class="cls-15" d="M174.69,189.49c-2.53,1.5-5.44,4.42-6.58,6.72-1.32,2.66-2.04,5.12-2.04,5.12,0,0,.09,2.91.44,3.88.67,1.84,1.71,3.51,3.05,4.81.96.93,3.72,1.91,3.72,1.91,0,0,3.11.81,4.69.81,2.25,0,3.87-.49,5.73-1.64,1.24-.77,1.53-1.16,2.55-2.81s1.99-6.93,1.31-10.27c-.43-2.11,1.65-.81-.11-2.47-1.77-1.66-4.74-6.98-6.6-7.74-1.87-.76-6.16,1.66-6.16,1.66Z"/><path class="cls-54" d="M178.11,203.42c.7.84.76,1.2,1.3,1.9l-1.42.75c-.04.06-.27-.37-.4-.9l.52-1.74Z"/><path class="cls-56" d="M167.39,182.9c-.95,2.3-.89,9.46-.88,9.04,0,0,2.72,3.24,5.5,4.45,1.03.45,2.9,1.06,3.93,1.52.79.35,2.68.44,2.68.44,0,0,.36-1.53.38-2.26,1.87,1.28,3.7,2.57,5.89,3.15,1.46.38,3.68.34,3.68.34,0,0,.56-3.93.33-5.72-.27-2.09-1.18-3.98-2.45-5.64-2.58-3.37-6.29-5.04-10.19-6.43l-8.87,1.11Z"/><path class="cls-53" d="M178.3,207.67c.48-.02,1.32,0,1.32,0,0,0,.64.26.64.32,0,.1-.63.95-.82,1.05-.83.46-1.91.63-2.72.13-.41-.25-.8-1.32-.8-1.32,0,0,1.72-.15,2.38-.18Z"/><path class="cls-19" d="M170.1,200.91c-.08.19,0,.63,0,.84.01.25.29.68.29.68,0,0,.7.76,1.36.75.53,0,1.07-.11,1.49-.44.22-.18.24-.38.34-.65.06-.19.15-.67.15-.67,0,0-.11-.81-.62-1.16-.36-.24-.99-.38-.99-.38,0,0-1.46-.22-2.01,1.04Z"/><path class="cls-13" d="M170.81,200.65c-.41.77.04,1.68.04,1.68,0,0,.3.37.61.53.57.3,1.35.13,1.35.13,0,0,.52-.22.68-.5.58-.97.35-1.67-.09-2.14-.68-.73-2.07-.64-2.58.31Z"/><path class="cls-19" d="M185.23,200.99c.08.19-.01.63-.03.83-.02.25-.31.67-.31.67,0,0-.72.73-1.38.7-.53-.03-1.07-.14-1.47-.49-.22-.19-.23-.38-.31-.66-.06-.2-.13-.67-.13-.67,0,0,.06-.81.59-1.14.37-.23,1.08-.35,1.08-.35,0,0,1.46-.17,1.97,1.1Z"/><path class="cls-13" d="M184.68,200.78c.39.78-.09,1.68-.09,1.68,0,0-.4.41-.71.56-.58.28-1.26.03-1.26.03,0,0-.61-.29-.74-.58-.44-1.01-.22-1.62.24-2.08.71-.71,2.09-.57,2.57.39Z"/><path class="cls-29" d="M137.72,260.63c2.48.06,4.95.11,7.43.17,4.73.11,14.12-.83,14.12-.83,0,0,4.61-1.91,9.69-3.62-.17-.99-.28-1.59-.28-1.59,0,0-.89-8.72-3-11.35-1.94-2.41-5.23-3.96-5.23-3.96l-5.94-2.6-3.63-2.15-6.92,1.32s-7.36-.42-10.76-1.32c0,0-3.03,2.65-6.32,4.51-2.92,1.65-6.1,3.02-7.97,5.83-1.24,1.86-2.03,6.2-2.03,6.2,0,0-.59,1.52-1.04,4.47,5.97,2.16,14.55,4.5,14.55,4.5,0,0,4.88.38,7.33.43Z"/><path class="cls-2" d="M138.87,195.21c-2.03.34-4,.78-5.82,1.66-2.04.98-3.78,2.38-5.19,3.98-1.11,1.26-2.08,2.64-2.71,4.13-.52,1.25-1.19,3.83-1.19,3.83,0,0-1.55,1.61-2.42,2.42-1.3,1.21-1.84,2.89-1.41,4.52.2.76,1.16,2.08,1.16,2.08l1.09,1.02s-.06.4-.33.61c-.53.4-1.07.76-1.5,1.26-1.54,1.78-.3,5.05.06,5.59.96,1.4,2.69,2.39,4.5,2.69-.67,1.06.26,2.16,1.19,2.88,1.1.85,3.28,1.25,4.73,1.11.98-.1,3.58.31,4.33-.26.5-.39.77.4,1.34.08,1.2-.67,1.89-2.89,3.25-3.09,1.7-.25,3.37-.37,5.08-.16.8.1,1.38,3.67,1.38,3.67l3.64-.22s2.57-.2,3.52-.6c1.31-.55,1.7-1.04,2.41-1.62.69-.57.83-2.13.83-2.13,0,0,3.55-.23,5.01-1.36,1.43-1.12,2.66-2.87,2.35-4.6-.17-.97-1.06-2.74-1.06-2.74,0,0,.9-2.63.92-4.04.02-1.51-.66-2.76-1.6-3.98-.72-.94-1.44-2.93-1.44-2.93,0,0-1.13-2.8-1.81-4.17-.64-1.31-1.01-2.71-1.68-4-2.03-3.93-12.37-5.7-12.37-5.7,0,0-1.11-.03-1.67-.04l-4.6.14Z"/><path class="cls-17" d="M134.74,227.16c.43,2.51.54,7.89.54,7.89l3.63.96,10.04-.35s1.12-5.92,1.12-7.78l-15.33-.72Z"/><path class="cls-5" d="M136.67,203.33c-2.83,2.65-5.29,5.46-6.21,9.58-.69,3.11.08,6.52.59,9.67.47,2.93,4.48,7.53,4.48,7.53,0,0,2.08,1.79,3.72,2.53,1.94.88,5.23.63,7.05-.09,1.8-.71,3.17-2.44,3.17-2.44,0,0,1.67-1.05,2.18-1.88.87-1.43,1.45-2.4,1.45-2.4,0,0,2.27-6.81,2.34-10.92.07-4.15-1.23-5.89-2.26-8.75-1.43-3.97-4.21-3.66-7.55-4.6l-8.97,1.76Z"/><path class="cls-8" d="M142.37,219.81s-.62,1.2-.92,1.79c-.18.36-.46.61-.19.95.36.45.89.87,1.48.81.08-.26.08-.52.16-.77.07-.25-.05-1.4-.05-1.4l-.15-.62-.33-.76Z"/><path class="cls-37" d="M137.25,211.72c1.29-.39,3.02-.31,4.33-.5.94-.13,2.8-.21,2.8-.21,0,0,1.62.04,2.29.14.59.09,1.91.54,1.91.54l-.24.29s-2.13-.11-4.38-.02c-.84.03-2.04.12-2.89.12-.71,0-4.06.04-4.06.04l-.29-.15.53-.27Z"/><path class="cls-5" d="M154.16,216.9c.46-2.8,3.52-2.42,4.13.07.27,1.11-.37,3.27-.37,3.27,0,0-1.66,2.4-2.89,3.05-1.84.98-1.99-.55-1.81-2.06l.95-4.33Z"/><path class="cls-5" d="M131.37,217.04c-.72-.69-2.39-2.31-3.4-1.17-.73.82-.1,3.89-.1,3.89,0,0,2.69,5.9,4.98,4.19l-1.49-6.9Z"/><path class="cls-2" d="M147.25,203.73c.35,1.14-1.59,2.6-1.59,2.6,0,0-1.72,1.63-2.85,2.03-1.57.55-3.73.62-5.27-.04.21,1.66-1.31,3.25-1.96,4.28-.9,1.43-4.3,3.15-4.3,3.15,0,0-2.14.57-3.03.03-1.66-1-1.42-3.63-1.19-5.26.42-3.09,1.46-6.4,3.59-8.74,2.54-2.78,6.51-4.09,10.17-4.44,2.18-.21,3.61.7,5.52,1.5-.03.09.01.16-.04.26,3.02-.88,6.21,2.11,7.9,4.28,1.24,1.59,1.83,3.59,2.63,5.42.71,1.62.72,3.02.31,4.71-.26,1.04,1.5,1.87.28,2.26-.86.28-2.01-.18-2.79-.31-3.69-.61-3.42-5.13-3.42-5.13,0,0-3.12-1.32-3.55-2.13-.36-.68-.42-4.48-.42-4.48Z"/><path class="cls-37" d="M144.85,222.69c-.03.67.2,1.58.37,1.97.17.41.4.92.74,1.05.82.31.68,1.28.68,1.28l.12,1.28.23-.31s.17-.85.17-1.06c0-.8-.06-.59-.08-1.03-.02-.47-.49-.33-.8-.64-.29-.29-.45-.58-.6-.96-.09-.21-.29-.91-.29-.91l-.54-.68Z"/><path class="cls-37" d="M140.38,222.53c0,.69.03,1.26-.3,1.87-.2.38-.52.54-.75.86-.27.38-.24,1.09-.24,1.55,0,.46-.22,1.22-.22,1.22,0,0-.02.22-.29.24-.04-.17-.08-.63-.08-.81,0-.21,0-.42-.04-.63-.06-.41-.13-.82-.09-1.23.02-.19.1-.57.1-.57,0,0,.31-.19.43-.3.24-.22.43-.52.56-.82.08-.17.21-.38.23-.56.02-.18.27-.56.27-.56l.4-.25Z"/><path class="cls-25" d="M142.73,233.94c2.83.11,6.87-1.05,6.94-1.03.11.03,1.33,1.45,1.33,1.45,0,0,.93.74,1.79,1.46-1.22,1.09-5.55,1.86-5.55,1.86-2.71.23-1.8.49-8.17,0,0,0-1.91-.42-3.33-.78-1.27-.32-2.47-.74-3.67-1.27.62-.88,1.68-2.41,1.68-2.41l.54-1.24.85.4s5.43,1.49,7.6,1.57Z"/><path class="cls-19" d="M134.67,219.12c.32.29,1.49.4,1.49.4,0,0,.84-.05,1.26-.29.49-.28.68-1.29.68-1.29,0,0,.02-.6-.06-.91-.14-.61-.91-1.1-1.1-1.14-.79-.15-1.85-.2-2.42.55s-.51,2.07.15,2.68Z"/><path class="cls-13" d="M135.27,216.21c-.3.34-.49.78-.54,1.23-.04.36.14,1.02.14,1.02,0,0,.2.45.35.62.19.22.77.41.77.41,0,0,1.52.33,2.04-.81.12-.26.24-.68.24-.91,0-.48-.12-.93-.12-.93,0,0-.31-.65-.93-.9-.5-.2-1.4-.14-1.4-.14,0,0-.41.23-.57.42Z"/><path class="cls-19" d="M151.29,218.85c-.32.29-1.49.4-1.49.4,0,0-.84-.05-1.26-.29-.49-.28-.68-1.29-.68-1.29,0,0-.02-.6.06-.91.14-.61.91-1.1,1.1-1.14.79-.15,1.85-.2,2.42.55s.51,2.07-.15,2.68Z"/><path class="cls-13" d="M150.68,215.94c.3.34.49.78.54,1.23.04.36-.14,1.02-.14,1.02,0,0-.2.45-.35.62-.19.22-.77.41-.77.41,0,0-1.52.33-2.04-.81-.12-.26-.24-.68-.24-.91,0-.48.12-.93.12-.93,0,0,.31-.65.93-.9.5-.2,1.4-.14,1.4-.14,0,0,.41.23.57.42Z"/><polygon class="cls-22" points="145.1 215.91 143.92 215.9 142.34 215.69 141.39 215.71 139.88 215.84 139.83 216.93 141.15 217.03 142.77 216.91 143.82 217.01 145.17 217.19 145.1 215.91"/><path class="cls-22" d="M144.85,214.16l-.14,1.93.07,1.81.13,1.67v1.42s1.55.27,1.55.27h2.13s2.16.02,2.16.02l1.92-.08,1.99-.31.09-1.97.1-1.89-.03-1.9-.12-.96-1.63-.1-2.13-.08-2,.02-1.95-.03-2.14.18ZM153.68,219.98l-1.3.1-1.94.11-1.56.02-1.45.02-1.54-.22-.03-1.43-.11-1.25.15-2.18,1.83-.11,2.09-.09,2.33.17,1.54.11.05.91.02,1.73v1.21s-.08.9-.08.9Z"/><path class="cls-22" d="M130.6,214.23l-.14,1.93.07,1.81.13,1.67v1.42s1.55.27,1.55.27h2.13s2.16.03,2.16.03l1.92-.08,1.99-.31.09-1.97.1-1.89-.03-1.9-.12-.96-1.63-.1-2.13-.08-2,.02-1.95-.03-2.14.18ZM139.43,220.05l-1.3.1-1.94.11-1.56.02-1.45.02-1.54-.22-.03-1.43-.11-1.25.15-2.18,1.83-.11,2.09-.09,2.33.17,1.54.11.05.91.02,1.73v1.22s-.08.9-.08.9Z"/><path class="cls-47" d="M142.61,226.29s1.79-.13,2.77-.29c.09-.02.38-.06.46,0l-.07.51s-.43.4-1.72.86c-.68.24-2.32.06-2.32.06,0,0-1.64-.49-2.11-1.17-.13-.19-.1-.56-.1-.56,0,0,.81.21,1.04.28.66.22,2.05.31,2.05.31Z"/><path class="cls-45" d="M165.6,243.7c.46,3.25.94,6.54,2.16,9.61.38.96.84,1.88,1.34,2.78.27.48.55.95.77,1.45.1.23.16.51.34.69.26.26.73.29,1.08.33,2.22.21,4.55-.09,6.75-.35,1.77-.21,3.53-.48,5.28-.82.71-.14,1.43-.24,2.13-.46,1.64-.52,3.03-1.56,3.83-3.1,1.18-2.28,1.24-5.1,1.35-7.61.05-1.28.17-2.67-.16-3.92-.3-1.14-1.15-1.7-2.27-1.95-2.16-.47-4.51-.25-6.69-.15-3.57.17-7.14.43-10.71.67l-5.21,2.83Z"/><path class="cls-62" d="M171.22,248.75s.6,4.53-.02,6.73c-.23.83-.37,2.18-.98,2.75-.76.7-1.91.63-2.78,1.18.38.63,1.21,1.04,1.71,1.6.75.83,2.73,1.84,2.73,1.84,0,0,4.25.87,6.52.68,1.16-.1,2.39-.04,3.53-.3,1.11-.25,3.34-.99,3.34-.99,0,0,3.4-1.46,5-2.29-.71-.92-1.86.53-2.28-.52-.24-.59-.52-1.89-.91-2.4-.4-.54-.96-1.88-.96-1.88,0,0-.54-3.59-.84-4.86-.25-1.07,0-2.29-.43-3.3,0,.08,0,.17,0,.25l-13.65,1.52Z"/><path class="cls-46" d="M166.45,243.91c.72,2.81,1.37,5.09,3.3,7.37,1.2,1.42,4.47,2.75,4.47,2.75,0,0,3.86,1.06,5.82.36,2.13-.76,3.86-1.35,5.27-3,1.59-1.85,3.19-3.68,3.73-6.13.75-3.43.23-7.24-.02-10.7-.24-3.24-.5-6.81-3.17-9.05-2.52-2.11-6.35-3.29-9.59-3.5-7.53-.47-10.83,8.68-10.96,14.85l1.15,7.05Z"/><path class="cls-45" d="M180.08,239.04c1.23-.27,2.43-.22,2.43-.22l2.16.24s.74.06,1.22.03c-.02-.37-.46-.63-.46-.63,0,0-1.59-.69-2.12-.86-.58-.19-2.27.15-2.27.15,0,0-.81.58-1.18.94l.2.36Z"/><path class="cls-45" d="M168.32,238.82c.65-.09,3.02-.03,3.02-.03l1.37.13,1.14.23.34-.28s-.68-.88-1.05-1.07c-.8-.41-2.35-.37-2.35-.37l-1.06.32s-.96.34-1.41.6c0,0-.47.52-.01.46Z"/><path class="cls-57" d="M176.31,240.73c-.29.63-1.25,2.52-1.25,2.52,0,0-.05.45.47.68.4.18,1.34.81,1.34.81,0,0,.17-1.39.16-1.82l-.71-2.19Z"/><path class="cls-3" d="M174.01,246.93s1.18.14,1.46.14c.59,0,1.8.05,1.8.05,0,0,1.01-.11,1.5-.19.44-.07.74-.13,1.26-.28,0,.51-.62,1.2-.62,1.2,0,0-1.09.73-1.52.86-.9.27-2.46-.32-2.46-.32,0,0-.85-.55-1.15-.9l-.28-.56Z"/><path class="cls-45" d="M169.8,223.84c-.59.63-.54,1.11-.64,1.92-.12.95-.17,1.99.05,2.93.15.67,4.42,3.4,6.07,4.21,2.04,1.13,6.71,2.91,6.71,2.91l6.21,1.63s.16-.9.2-1.65c.07-1.38-.08-2.82-.33-4.18-.25-1.41-.72-2.75-1.26-4.07-.43-1.04-.82-2.19-1.54-3.08-1.09-1.34-2.91-1.74-4.54-1.94-2.14-.26-4.32-.21-6.48-.2l-4.45,1.52Z"/><path class="cls-38" d="M186.92,256.54l-4.68.41s-5.94.25-9.68-.21l-1.96.13c-4.8.77-11.35,6.23-11.35,6.23,0,0-4.71,5.16-5.18,8.06-.22,1.35-1.83,3.34-1.99,5.08,1.53.29,5.03.51,5.03.51,0,0,15.22,2.41,22.89,2.46,7.67.05,22.51-4.42,22.51-4.42,0,0,1.07-.57,2.13-1.39-.32-2.26-.67-2.77-.88-3.95-.79-4.45-10.24-11.73-16.81-12.92Z"/><path class="cls-45" d="M169.03,220.25s-4.39,4.02-5.89,6.92c-1.51,2.92-2.36,10.34-2.36,10.34,0,0-.32,5.53-.81,8.76-.36,2.43-.68,7.34-.68,7.34,0,0,.41,2.42,1.02,3.52.84,1.51,2.28,4.29,3.38,5.18.48-1.72,1.62-2.02,1.62-2.02,0,0,.68.22,2.14.4,1.6.2,3.36.57,4.79-.4-3.54-4.14-5.46-16.77-5.46-16.77l.59-8.47s1.59-7.26,3.25-9.05c3.61-3.9,13.29.3,13.29.3,0,0,3.03,1.06,4.61,17,.27,2.75-.77,8.28-.77,8.28,0,0-2.29,6.59-3.91,9.07.96.25,1.39-.06,2.34-.36.54-.17,1.19-.8,2.25-1.18.77,1.18,1.55,1.82,1.55,1.82,0,0,2.62-1.72,4.08-4.53.45-.86,1.48-3.32,1.48-3.32,0,0,.38-3.28.25-5.18-.23-3.38-.91-6.69-.91-6.69l-1.19-5.52-1.42-6.62-1.27-2.75s-1.64-3.75-2.98-4.97c-3.08-2.82-9.93-3.37-13.55-2.41-3.48,0-5.41,1.31-5.41,1.31Z"/><path class="cls-46" d="M188.25,240.3c.44-2.65,3.33-2.29,3.91.07.26,1.05-.35,3.09-.35,3.09,0,0-1.57,2.27-2.74,2.89-1.75.92-1.88-.52-1.72-1.95l.9-4.1Z"/><path class="cls-46" d="M166.96,239.4c-.26-1.48-2.26-2.18-3.22-1.11-.7.78-.09,3.68-.09,3.68,0,0,2.55,5.58,4.72,3.96l-1.41-6.53Z"/><path class="cls-55" d="M93.84,257.18c.24,1-.5,3.4-.5,3.4,0,0,.89,7.67.95,8.65.11,1.7-1.47,2.93-2.5,4.8-1.48,2.67-4.04,6.02-7.14,5.47-3.18-.56-7.05-5.88-7.09-8.68-.04-3.12-.17-8.82-.17-8.82,0,0,3.62,1.72,3.58,1.57l12.87-6.4Z"/><path class="cls-49" d="M114.76,277.55c-.76-1.69-3.22-3.9-4.93-4.83-1.6-.87-5.02-2.49-5.02-2.49,0,0-7.71-2.79-10.41-3.42-.19,1.17-7.17,2.83-7.17,2.83,0,0-5.08.49-7.74-.64l-2.69-2.1-1.91.38-10.6,4.7s-4.14,1.27-5.85,6.69c-.49,1.55-3.19,9.27-3.19,9.27,0,0,1.11.62,2.28.93,7.87,2.71,13.08,3.98,13.08,3.98,0,0,14.37.44,20.65.65,4.74.16,9.45-.41,9.45-.41,0,0,5.25.12,9.22-.95,2.31-.62,7.69-2,9.95-3.03-.98-3.4-3.03-7.49-3.03-7.49,0,0-.98-1.62-2.08-4.07Z"/><path class="cls-5" d="M82.29,231.93c-5.77,4.51-10.14,8.75-9.57,15.84.29,3.56.65,7.65,2.01,11.56.64,1.83,4.39,4.32,4.39,4.32,0,0,3.63,3.13,6.35,2.71,2.94-.46,4.93-1.33,7.06-3.57,4.17-4.37,5.7-10.17,5.74-15.53.03-3.13-.12-6.44-1.94-9.24-1.93-2.96-5.38-4.75-8.65-6.44l-5.39.34Z"/><path class="cls-5" d="M75.11,247.96c-.66-1.35-2.01-2.3-4.04-1.14-1.08.62-.83,2.87-.83,2.87,0,0,.12,2.78,1.1,4.05.5.65,3.43,1.61,3.43,1.61l.34-7.4Z"/><path class="cls-5" d="M96.47,248.48c-.02-1.45,2.22-1.55,3.28-.92,1.34.8.79,3.23.79,3.23,0,0-.25,1.99-1.23,3.02-.37.39-2.13,1.19-2.13,1.19l-1.07.03s-.29-.11-.17-.34l.54-6.21Z"/><path class="cls-51" d="M78.39,229.14c-1.96.83-4.76,4.26-4.76,4.26,0,0-2,3.9-2.37,5.66-.73,3.52,1.86,10.79,1.86,10.79,0,0,.31-5.91,1.68-8.34,1.61-2.84,2.91-4.19,2.91-4.19l7.8.88s4.57-.94,5.78-1.34c2.09-.7,3.31.35,5.12,5.62.94,2.73.66,7.56.66,7.56,0,0,2.38-4.11,2.46-5.92.08-1.85-.06-6.69-.06-6.69,0,0-1.05-7.85-6.74-8.78l-8.99-.57-5.34,1.05Z"/><path class="cls-8" d="M84.78,250.52c-.29,1.33-1.35,3.44-1.35,3.44l-.44,1.15s1.29,1.34,1.81,1.25c.33-.06.92-.86.92-.86.16-.58.33-1.6.24-2.06l-1.19-2.93Z"/><path class="cls-19" d="M77.32,250.39c.31.28,1.42.39,1.42.39,0,0,.8-.05,1.21-.28.47-.27.65-1.24.65-1.24,0,0,.01-.57-.05-.87-.13-.59-.88-1.06-1.06-1.09-.76-.14-1.78-.19-2.32.53-.54.72-.49,1.99.15,2.57Z"/><path class="cls-13" d="M77.9,247.6c-.29.33-.47.75-.51,1.18-.03.34.13.98.13.98,0,0,.19.43.33.59.18.21.74.39.74.39,0,0,1.46.31,1.96-.78.12-.25.23-.65.23-.88,0-.46-.11-.89-.11-.89,0,0-.3-.63-.89-.86-.48-.2-1.34-.13-1.34-.13,0,0-.39.23-.55.4Z"/><path class="cls-19" d="M93.35,250.39c-.31.28-1.42.39-1.42.39,0,0-.8-.05-1.21-.28-.47-.27-.65-1.24-.65-1.24,0,0-.01-.57.05-.87.13-.59.88-1.06,1.06-1.09.76-.14,1.78-.19,2.32.53.54.72.49,1.99-.15,2.57Z"/><path class="cls-13" d="M92.78,247.6c.29.33.47.75.51,1.18.03.34-.13.98-.13.98,0,0-.19.43-.33.59-.18.21-.74.39-.74.39,0,0-1.46.31-1.96-.78-.12-.25-.23-.65-.23-.88,0-.46.11-.89.11-.89,0,0,.3-.63.89-.86.48-.2,1.34-.13,1.34-.13,0,0,.39.23.55.4Z"/><path class="cls-47" d="M81.81,258.55s2.11-.12,2.98-.16c1.12-.05,4.07.21,4.07.21,0,0-.32,1.02-.58,1.39-.43.62-1.11.96-2.16,1.1-.78.1-1.69-.04-2.48-.41-.61-.28-.96-.58-1.3-1.12l-.52-1Z"/><path class="cls-7" d="M83.29,247.81c-.71-2.16-3.08-3.1-3.08-3.1-1.59-.4-3.7-.2-5.31.48-1.27.54-1.68,3.36-1.68,3.36,0,0-.15,1.07-.04,1.6.13.66.54,1.22,1,1.68,2.14,2.12,5.73,2.23,7.98.25.42-.37.8-.81.99-1.35.29-.83.42-2.07.15-2.9ZM82.14,250.36c-.15.43-.46.78-.79,1.08-1.79,1.58-4.65,1.49-6.35-.2-.37-.36-.69-.81-.8-1.33-.08-.42.03-1.27.03-1.27,0,0,.32-2.24,1.34-2.67,1.28-.54,2.96-.7,4.23-.38,0,0,1.89.75,2.45,2.47.22.66.11,1.65-.12,2.31Z"/><path class="cls-7" d="M87.12,250.71c.19.54.57.98.99,1.35,2.25,1.98,5.84,1.87,7.98-.25.46-.46.87-1.01,1-1.68.11-.52-.04-1.6-.04-1.6,0,0-.41-2.82-1.68-3.36-1.61-.68-3.72-.88-5.31-.48,0,0-2.38.94-3.08,3.1-.27.83-.14,2.08.15,2.9ZM87.99,248.04c.56-1.72,2.45-2.47,2.45-2.47,1.27-.32,2.95-.16,4.23.38,1.01.43,1.34,2.67,1.34,2.67,0,0,.12.85.03,1.27-.11.53-.43.97-.8,1.33-1.7,1.68-4.56,1.77-6.35.2-.33-.29-.63-.64-.79-1.08-.23-.66-.34-1.65-.12-2.31Z"/><path class="cls-7" d="M87.5,248.46c.04.27.08.54.12.81-.84-.03-1.57-.09-2.4-.01-.66.06-1.43.25-2.09.28-.23-.44,0-.96,0-.96l1.75-.39s2.62.21,2.62.27Z"/><path class="cls-31" d="M94.3,267.02l-3.49,6.2s-1.68,2.31-2.94,3.43c-.58.52-2.55,1.83-2.55,1.83,0,0-2.24-1.37-3.01-2.09-2.32-2.18-4.14-4.82-5.14-7.85-.15-.45-.14-1.48-.14-1.48l2.52.77s3.58.86,6.45.69c2.87-.16,8.31-1.51,8.31-1.51Z"/><polygon class="cls-45" points="125.49 270.19 124.92 272.99 124.59 274.12 123.97 269.95 125.49 270.19"/><path class="cls-42" d="M105.95,287.25c1.86,1.18,3.92,2.12,6.1,2.45,2.18.33,4.51,0,6.38-1.15.2-.13.41-.27.51-.49.1-.21.08-.46.06-.7-.1-1.31-.05-2.63.16-3.93-1.44.78-3.17,1-4.76.63-1.08-.26-2.08-.78-3.07-1.29-1-.52-4.88-3.18-5.49-2.14-.25.43-.18,6.43.11,6.62Z"/><path class="cls-44" d="M106.76,260.38c-1.63,1.5-2.64,3.59-3.18,5.74-.53,2.15-.63,4.39-.66,6.61-.64-.5-1.31-1.01-2.09-1.24s-1.72-.11-2.26.5c-.65.74-.35,2.86-.1,3.82.55,2.17,3.86,3.87,3.86,3.87l1.07.23s.22.69.37.98c.83,1.64,3.02,3.37,3.02,3.37,0,0,4.07,2.06,6.44,2.23.73.05,2.69-.09,3.41-.2.89-.14,3.02-.91,3.48-1.3,1.77-1.48,2.82-3.91,2.82-3.91l.25-.79s.43-.19.66-.25c1.32-.34,2.59-2.96,2.59-2.96,0,0,.61-1.37.63-2.11s-.31-1.94-.99-2.24c-.37-.17-1.13-.01-1.13-.01,0,0-.33-1.28-.33-1.89.01-2.67-.03-5.31-1.42-7.59-1.16-1.91-3.25-3.09-5.4-3.72-4.12-1.21-9.03-.47-11.9,2.73"/><path class="cls-14" d="M115.35,274.62l-.58,2.27.09,1.62s1.64-.67,2.06-1.14c-.63-.89-1.09-1.77-1.57-2.76Z"/><path class="cls-3" d="M114.84,280.42s2.36.07,2.43.14c.11.11-.76,1-.76,1l-1.72.25-2.26-.75-.99-1.04,3.3.4Z"/><path class="cls-26" d="M131.09,301.02s-1.21-2.84-1.7-4c-.7-1.66-2.49-4.28-2.49-4.28,0,0-2.35-2.8-5.02-4.04-.63-.29-2.32-1.09-2.32-1.09,0,0-4.96.69-5.79.69-3.25.01-8.33-2.28-8.33-2.28,0,0-2.42,1.12-4.7,2.89-1.61,1.26-4.42,4.75-4.42,4.75,0,0-2.58,3.14-3.22,6.48,0,0,3,2.82,10.33,3.79s18.9.39,18.9.39l8.77-3.3Z"/><path class="cls-19" d="M113.2,292.94c.33.24.79.26,1.18.14l.15-.11c.2-.24.29-.43.36-.73.06-.3-.27-.83-.27-.83,0,0-.5-.31-1-.14-.24.08-.46.25-.59.47-.22.35-.16.96.17,1.2Z"/><path class="cls-19" d="M114.24,295.77c-.41.04-.76.34-.97.69l-.04.18c.01.31.07.52.23.79.16.27.76.44.76.44,0,0,.58-.11.83-.57.12-.22.17-.5.12-.75-.07-.41-.53-.82-.94-.78Z"/><path class="cls-45" d="M113.79,254.35c1.27.08,3.06.65,4.2,1.11,1.37.56,2.63,1.5,3.73,2.37,1.36,1.08,1.72,2.42,2.72,3.78.28.38.92,1.76,1.46,4.01.09.37.42,2.36.32,3.63-.03.44.3,2.04.07,2.05-.78.03-2.11-.23-3.32-.9-.43-.24-1.41-1.47-1.85-1.71.03.55.43,1.38.43,1.38,0,0-4.34-.39-6.18-.99s-4.56-2.21-4.72-2.6c-.41,1.29-.78,2.12-1.68,2.95-.43.4-3.36,2.59-3.36,2.59l-3.09,1.74s-.84-2.5-3.5-2.12c.39-1.28.49-4.07.26-5.35-.21-1.18-.13-3.19-.13-3.19.68-2.25.49-2.45,1.35-3.66.73-1.03,3.09-2.95,4.29-3.68,1.42-.87,3.22-1.5,4.32-1.52l4.68.12Z"/><polygon class="cls-45" points="100.95 270.29 102.51 273.75 104.51 271.73 100.95 270.29"/><path class="cls-19" d="M107.42,273.18c-.08.19,0,.63,0,.84.01.25.27.68.27.68,0,0,.65.76,1.27.75.5,0,1.01-.11,1.39-.44.21-.18.23-.38.31-.65.06-.19.14-.67.14-.67,0,0-.11-.81-.58-1.16-.34-.24-.92-.38-.92-.38,0,0-1.36-.22-1.88,1.04Z"/><path class="cls-45" d="M107.85,272.99c-.41.77.04,1.68.04,1.68,0,0,.3.37.61.53.57.3,1.35.13,1.35.13,0,0,.52-.22.68-.5.58-.97.35-1.67-.09-2.14-.68-.73-2.07-.64-2.58.31Z"/><path class="cls-19" d="M122.17,273.37c.08.19,0,.63,0,.84-.01.25-.27.68-.27.68,0,0-.65.76-1.26.75-.49,0-1-.11-1.38-.44-.21-.18-.23-.38-.31-.65-.06-.19-.14-.67-.14-.67,0,0,.04-.81.51-1.16.33-.24.99-.38.99-.38,0,0,1.35-.22,1.86,1.04Z"/><path class="cls-45" d="M121.73,273.11c.41.77-.04,1.68-.04,1.68,0,0-.39.43-.69.59-.57.3-1.26.07-1.26.07,0,0-.62-.27-.76-.56-.48-1-.27-1.61.17-2.09.68-.73,2.07-.64,2.58.31Z"/><path class="cls-52" d="M238.69,285.68s-1.55-5.2-2.64-7.68c-.75-1.71-1.58-2.15-3.26-3.09-1.57-.89-5.26-2.52-5.26-2.52,0,0-6.34-2.88-9-3.51-.63-1.48-1.35-7.68-1.84-7.69l-15.82.52c.06-.3-.02-.48-.24-.54-.15,2.57.64,5.22-.31,7.71l-1.73.47-10.18,5.56s-4.06,1.37-5.74,6.85c-.48,1.57-3.42,8.56-3.42,8.56,0,0,1.09.62,2.24.95,7.75,2.74,12.89,4.03,12.89,4.03,0,0,14.15.45,20.33.66,4.67.16,9.31-.42,9.31-.42,0,0,5.19-1.26,9.1-2.34,2.27-.63,5.24-1.34,7.47-2.39-.96-3.45-1.89-5.13-1.89-5.13Z"/><path class="cls-9" d="M206.3,284.21l2.98,4.46,8.61-12.95,3.19-6.74,10.36,4.39s3.23,1.7,4.02,2.56c.77.84,1.7,2.1,1.7,2.1,0,0,5.6,12.82,5.36,13.21-.16.26-10.4,3.22-15.12,4-10.64,1.77-20.69,1.89-20.69,1.89l-22.5-3.3-5.87-1.5,2.46-9.49s2.39-5.1,5.01-7.11c2.83-2.16,11.56-6.32,11.56-6.32,0,0,4.23,6.88,5.35,8.64,1.28,2,3.57,6.16,3.57,6.16Z"/><path class="cls-19" d="M208.8,292.5s1.11.93,2.11-.08c.87-.88.11-2.02.11-2.02,0,0-.63-.44-.91-.49-.78-.15-1.35.42-1.35.42,0,0-.35.45-.44.98-.07.4.48,1.19.48,1.19Z"/><path class="cls-51" d="M208.59,230.76c-2.89,0-5.45.41-7.72,2.09-1.63,1.21-3.21,2.68-4.46,4.28-1.17,1.49-2.14,3.26-2.73,5.04-.49,1.48-.39,5.26-.39,5.26,0,0,.66,2.52,1.29,5.19.53,2.22,4.81,6.65,5.85,8.64.77,1.46,18.87-2.59,19.8-4.46,1.04-2.1,2.58-3.58,2.58-3.58,0,0,2.55-4.69,2.46-5.94-.11-1.58-.31-4.5-.86-6.45-.7-2.49-1.04-3.34-2.55-5.45-1.43-1.99-4.08-3.3-6.89-3.98l-6.39-.65Z"/><path class="cls-5" d="M206.29,235.36c-5.66,4.43-9.96,8.59-9.4,15.55.28,3.5.63,7.51,1.97,11.35.62,1.79,4.31,4.24,4.31,4.24,0,0,3.57,3.07,6.24,2.66,2.88-.45,4.84-1.31,6.93-3.5,4.09-4.29,5.6-9.99,5.64-15.25.03-3.08-.12-6.33-1.91-9.07-1.89-2.91-5.28-4.67-8.49-6.32l-5.3.34Z"/><path class="cls-5" d="M199.25,251.38c-.65-1.32-1.97-2.26-3.97-1.12-1.06.61-.82,2.82-.82,2.82,0,0,.12,2.73,1.08,3.98.49.64,3.37,1.58,3.37,1.58l.33-7.26Z"/><path class="cls-5" d="M220.22,251.61c-.02-1.42,2.18-1.53,3.22-.9,1.32.79.77,3.18.77,3.18,0,0-.25,1.95-1.21,2.96-.36.38-2.09,1.17-2.09,1.17l-1.05.03s-.29-.11-.16-.34l.53-6.09Z"/><path class="cls-21" d="M208.74,253.61c-.29,1.3-1.33,3.38-1.33,3.38l-.43,1.13s1.27,1.32,1.78,1.23c.32-.05.65-.91.65-.91.16-.57.38-1.51.29-1.95l-.97-2.87Z"/><path class="cls-19" d="M201.42,253.49c.3.27,1.4.38,1.4.38,0,0,.79-.05,1.19-.28.46-.26.64-1.22.64-1.22,0,0,.01-.56-.05-.86-.13-.58-.86-1.04-1.04-1.07-.75-.14-1.74-.19-2.28.52s-.48,1.95.14,2.53Z"/><path class="cls-13" d="M201.98,250.75c-.28.32-.46.74-.5,1.16-.03.33.13.96.13.96,0,0,.19.42.33.58.18.21.72.39.72.39,0,0,1.43.31,1.92-.77.12-.25.23-.64.23-.86,0-.45-.11-.88-.11-.88,0,0-.3-.61-.87-.85-.47-.19-1.31-.13-1.31-.13,0,0-.39.22-.54.39Z"/><path class="cls-19" d="M217.16,253.49c-.3.27-1.4.38-1.4.38,0,0-.79-.05-1.19-.28-.46-.26-.64-1.22-.64-1.22,0,0-.01-.56.05-.86.13-.58.86-1.04,1.04-1.07.75-.14,1.74-.19,2.28.52s.48,1.95-.14,2.53Z"/><path class="cls-13" d="M216.59,250.75c.28.32.46.74.5,1.16.03.33-.13.96-.13.96,0,0-.19.42-.33.58-.18.21-.72.39-.72.39,0,0-1.43.31-1.92-.77-.12-.25-.23-.64-.23-.86,0-.45.11-.88.11-.88,0,0,.3-.61.87-.85.47-.19,1.31-.13,1.31-.13,0,0,.39.22.54.39Z"/><path class="cls-47" d="M209.86,261.86c1.01-.04,2.08-.24,3.09-.28.16.21-.26.89-.26.89l-.48.46s-1.11.61-4.03.37c-.41-.03-1.7-.55-1.7-.55,0,0-1.1-.9-.85-1.12.15-.13,1.45.11,1.45.11,0,0,1.77.17,2.78.13Z"/><path class="cls-51" d="M217.97,238.76c-.4,2.01-1.26,4.15-2.53,5.9-.63.86-2.18,2.25-2.18,2.25,0,0-3.46,1.83-5.3,2.05-1.2.14-2.47.51-4,.17,1.33-.48,2.86-3.22,3.16-3.87-1.35.82-2.67,2.19-4.03,3.12-1.02.7-4.97,2.26-5.8,2.24-.59-.01,1.63-2.56,1.17-3.06-.81-.9.49-3.35.85-4.18,1.02-2.32,2.33-4.7,4.17-6.47,2.93-2.82,7.39-2.22,11.11-1.9,2.39.2,5.11.66,5.63,3.37l-2.26.39Z"/><path class="cls-51" d="M209.08,239.93s-4.31-1.48-5.36,3.26c-.39,1.75-1.53,4.7-1.53,4.7,0,0-1.07,1.93-2.24,3.08-1.3,1.28-5.71,1.4-5.71,1.4,0,0,.2-2.18.37-2.89.35-1.41.92-2.8,1.51-4.11,1.25-2.79,2.96-5.54,5.35-7.49,2.35-1.92,6.92-2.49,9.86-2.33l-2.24,4.38Z"/><path class="cls-51" d="M208.97,238.83c1.04-.25,3.07-.79,4.14-.53,2.46.59,2.76,2.2,2.76,2.2,0,0,.63,2.54,1.69,5.24.62,1.59,2.56,4.46,2.56,4.46l1.46,1.77c1.09-.19,1.9-.27,2.4-1.14.27-.46-.55-4.19-.79-5.16-.5-2.03-1.01-4.07-1.67-6.05-.72-2.16-1.76-4.33-3.85-5.45-2.12-1.14-4.7-1.12-7.04-1.2l-1.65,5.86Z"/><polygon class="cls-20" points="211.99 250.36 210.81 250.35 209.22 250.14 208.28 250.16 206.76 250.29 206.71 251.38 208.04 251.48 209.66 251.36 210.71 251.46 212.06 251.64 211.99 250.36"/><path class="cls-20" d="M211.74,248.6l-.14,1.93.07,1.81.13,1.67v1.42s1.55.27,1.55.27h2.14s2.17.02,2.17.02l1.92-.08,1.99-.31.09-1.97.1-1.89-.03-1.9-.12-.97-1.63-.1-2.14-.08-2,.02-1.95-.03-2.15.18ZM220.58,254.44l-1.3.1-1.94.11-1.56.02-1.45.02-1.54-.22-.03-1.44-.11-1.25.15-2.18,1.83-.11,2.09-.09,2.34.17,1.54.11.05.91.02,1.74v1.22s-.08.9-.08.9Z"/><path class="cls-20" d="M197.47,248.67l-.14,1.93.07,1.81.13,1.67v1.42s1.55.27,1.55.27h2.14s2.17.03,2.17.03l1.92-.08,1.99-.31.09-1.97.1-1.89-.03-1.9-.12-.97-1.63-.1-2.14-.08-2,.02-1.95-.03-2.15.18ZM206.31,254.51l-1.3.1-1.94.11-1.57.02-1.45.02-1.54-.22-.03-1.44-.11-1.25.15-2.18,1.83-.11,2.09-.09,2.34.17,1.54.11.05.91.02,1.74v1.22s-.08.9-.08.9Z"/><path class="cls-15" d="M132.61,258.84c-.33-.3-.75-.47-1.18-.58-.92-.23-2.04-.13-2.58.65-.36.52,0,2.16,0,2.16,0,0,.28,2.25,1.58,3.41.38.34,2.84,1.29,3.3,1.07.39-.19-.4-.73-.35-1.16.14-1.07.18-2.15.14-3.23-.03-.65-.41-1.87-.9-2.32Z"/><path class="cls-50" d="M131.2,273.92c-2.37,1.75-3.3,4.71-4.9,7.01-1.26,1.82-2.57,6.85-2.57,6.85,0,0,8.01,2.73,10.77,2.98,5.94.53,10.43.94,16.32-.03,3.79-.62,8.53-2.98,8.53-2.98,0,0-.3-2.34-.54-4.09-.45-3.31-1.34-3.66-3.14-6.63-1.83-3.01-6.55-4.76-6.55-4.76,0,0-13.72-1.45-17.92,1.66Z"/><path class="cls-64" d="M139.89,275.78c2.01.54,6.32-.04,6.32-.04,0,0,3.5-.99,5.02-2.76-1.22-.47-2.12-.73-2.12-.73,0,0-7.96-.84-13.61.13.69,2.02,2.29,2.82,4.38,3.39Z"/><path class="cls-48" d="M143.18,274.06s3.32-.53,4.92-1.03c.11-1.16.22-2.32.33-3.48-2.6.37-5.21.68-7.83.96-.64.07-1.38.03-2,.2-.49.13-.44.61-.44.61l.23,2.05s.68.25.91.32c1.25.37,3.86.37,3.86.37Z"/><path class="cls-15" d="M133.05,268.58c1.67,1.87,3.84,2.96,6.32,3.28,8.16,1.16,11.19-2.36,11.19-2.36,0,0,5.87-6.37,6.14-7.87.11-.63-.06-1.71-.6-2.05-.83-.52-1.58-.45-2.62.47.29-2.4-.94-4.81-2.8-6.36-3.93-3.29-12.78-5.74-16.69-1.63-2.88,3.03-3.65,13.48-.93,16.53Z"/><path class="cls-19" d="M134.71,260.05c1.03-.64,2.01-.02,2.01-.02.82.58,1.08,1.71.53,2.54-.47.71-1.49.67-1.49.67,0,0-.92-.03-1.33-.45-.36-.37-.53-1.29-.53-1.29,0,0-.08-.91.8-1.45Z"/><path class="cls-34" d="M135.97,259.8c1.32.15,1.48.83,1.48.83.23.57.26.89.19,1.29-.05.27-.16.62-.69.96s-1.16.34-1.16.34c0,0-.5-.1-.74-.33-.34-.33-.55-.58-.62-1.26-.08-.86.51-1.47.4-1.32,0,0,.71-.57,1.13-.52Z"/><path class="cls-19" d="M147.77,260.23c-1.07-.62-2.08-.01-2.08-.01-.85.57-1.12,1.68-.56,2.49.48.7,1.54.65,1.54.65,0,0,.95-.03,1.38-.45.38-.37.55-1.26.55-1.26,0,0,.09-.89-.82-1.42Z"/><path class="cls-34" d="M146.44,259.97c-1.28.18-1.47.84-1.47.84-.2.55-.22.87-.16,1.26.04.27.14.61.6.95s1.01.35,1.01.35c0,0,.65-.16.8-.28.33-.27.76-.39.85-1.33.08-.81-.53-1.3-.53-1.3,0,0-.74-.53-1.11-.48Z"/><path class="cls-15" d="M152.87,260.64c.35-.28.83-1.03,1.26-1.11.93-.17,2,.62,2.49,1.43.33.54-.14,2.15-.14,2.15,0,0-1.09,2.14-2.47,3.22-.4.31-2.25,1.19-2.7.94-.38-.21.45-.7.42-1.13-.07-1.08-.04-2.16.08-3.24.07-.65.53-1.84,1.05-2.26Z"/><polygon class="cls-65" points="139.17 265.06 139.74 265.63 140.65 266.14 140.79 265.3 140.72 263.71 139.17 265.06"/><path class="cls-60" d="M140.38,267.29l2.96.12-.57,1.05s-.18.52-1.51.68c-.44.05-.99-.07-1.29-.39-.43-.46-.76-1.46-.76-1.46h1.17Z"/><path class="cls-63" d="M130.25,258.85s-1.75-4.21-.13-8.59c.58-1.55,3.69-6.01,6.16-7.46,3.4-2,11.71-1.58,14.95.34,3.23,1.93,5.58,6.85,5.58,8.78s-1,7.52-1,7.52c0,0-2.58-.2-2.82,3.08,0,0-3.04-3.11-3.33-6.64l-.29,2.89s-6.46-.96-8.42-4.82c0,0-2.35,2.03-4.5,2.78l.59-1.61s-3.94,3.49-6.78,3.71Z"/><path class="cls-1" d="M158.3,263.86c-2.76.97-6.45,2.51-7.76,5.13-.63,1.26-4.29,6.38-4.29,6.38,0,0-3.06,3.23-4.49,6.91-1.21,3.12,2.87,9.8,2.87,9.8,0,0,.94,1.61,1.01,2.53.12,1.55-1.83,4.2-1.83,4.2,0,0-2.51,4.87-1.98,7.46.6,2.9,3.08,5.13,5.84,6.23s5.77,1.28,8.73,1.48c4.84.33,9.7.74,14.54.38s9.21-.15,13.28-2.8c.98-.64,3.05-2.23,3.35-5.58.12-1.33-1.43-4.49-1.43-4.49,0,0-2.44-3.08-2.3-4.97.13-1.62,1.5-4.47,1.5-4.47,0,0,5.86-7.28-1.22-16.14-.82-1.02-3.2-5.39-3.47-5.86-4.25-7.36-14.3-6.41-14.3-6.41,0,0-5.97-.51-8.06.23Z"/><path class="cls-61" d="M156.51,294.69c.42,2.48-.22,7.99-.22,7.99l3.97,1.53,11.33-.51s-.43-6.49-.43-8.32l-14.66-.69Z"/><path class="cls-67" d="M158.97,271.38c-1.79.96-3.73,4.99-3.73,4.99,0,0-1.7,4.14-2.83,6.04-1.61,2.69-.52,4.65-.02,7.76.47,2.89,3.93,6.62,3.93,6.62,0,0,2.87,2.03,4.53,2.66,2.54.97,4.85.69,6.64-.02,1.77-.7,3.32-1.71,3.32-1.71,0,0,1.64-1.58,2.14-2.4.99-1.64,1.18-1.94,1.18-1.94,0,0,2.24-6.7,2.31-10.75.07-4.09-1.21-5.8-2.23-8.62-1.41-3.91-7.44-4.53-7.44-4.53l-7.77,1.91Z"/><path class="cls-8" d="M163.53,287.43s-.61,1.18-.9,1.76c-.18.35-.35.82-.35.82,0,0,.58.57.84.72.24.14.5.22.78.19.08-.25.14-.5.15-.76.02-.37-.05-1.38-.05-1.38l-.47-1.36Z"/><path class="cls-67" d="M174.8,285.38c.46-2.76,3.47-2.39,4.07.07.27,1.09-.37,3.22-.37,3.22,0,0-1.64,2.36-2.85,3-1.82.96-1.96-.54-1.79-2.03l.93-4.26Z"/><path class="cls-67" d="M152.65,284.44c-.27-1.54-2.35-2.27-3.35-1.16-.72.81-.1,3.83-.1,3.83,0,0,2.65,5.81,4.91,4.12l-1.47-6.8Z"/><path class="cls-47" d="M160.63,293.1s2.21-.24,2.82-.25c1.72,0,2.57.12,2.57.12l.85.17-.23.67s-.27,1.23-1.69,1.69c-.62.2-1.37.35-2.66-.15-.8-.31-1.19-1.09-1.19-1.09l-.46-1.17Z"/><path class="cls-70" d="M160.63,285.57c-.75-.03-2.95-.36-2.95-.36,0,0-1.5.02-2.95.11-.09-.42,1.47-1.04,1.47-1.04,0,0,1.17-.23,1.66-.19,1.28.1,2.86,1.12,2.77,1.48Z"/><path class="cls-70" d="M167.36,284.8s1.39-.54,2.33-.62c1.14-.1,2.57.55,2.57.55,0,0,1.09.65,1.03.93-1.3-.2-2.61-.32-3.92-.37-.59-.02-1.31.05-1.31.05,0,0-.88.12-1.03.03-.19-.1.33-.58.33-.58Z"/><path class="cls-19" d="M150.62,290.39c-.3.86.35,1.3.35,1.3,0,0,.73.32,1.08.17.44-.19.7-.7.66-1.18-.01-.17-.06-.34-.16-.48-.51-.75-1.65-.58-1.92.2Z"/><path class="cls-33" d="M157.12,327.39l20.98-.76s3.47-.52,5.16-.95c3.21-.82,6.45-2.31,9.21-4.18-.38-3.8-2.29-7.83-3.23-9.81-1.3-2.75-4.94-4.19-7.84-5.81-2.55-1.42-4.61-2.33-4.61-2.33,0,0-4.26-1.28-4.93-1.04-5.07,1.85-13.21.35-16.38-.54l-6.22,4.44s-9.29,4.55-10.09,7.78c-.62,2.51-2.07,6.45-2.08,8.73,1.92,1.35,5,2.43,7.32,2.87,4.2.8,12.71,1.58,12.71,1.58Z"/><path class="cls-19" d="M176.93,291.14c-.38-.83-1.15-.69-1.15-.69,0,0-.74.28-.89.63-.18.45,0,.99.35,1.3.13.11.28.2.45.24.89.19,1.59-.73,1.24-1.48Z"/><path class="cls-43" d="M150.83,304.87c.7,2.55,3.96,4.79,3.96,4.79,0,0,4.18,1.15,6.2.47.52-.18,1.02-.41,1.46-.73,1.87-1.38,2.11-3.69,2.25-6.01,0-.14-8.69-2.22-8.69-2.22,0,0-3.59,2.53-5.18,3.71Z"/><path class="cls-43" d="M164.7,303.37c.13,1.91.36,3.91,1.77,5.2.69.62,2.06,1.36,2.06,1.36,0,0,2.23.64,3.39.41,1.49-.29,3.45-1.6,4.05-2.34,1.16-1.41,2.71-4.03,2.71-4.03,0,0-3.75-1.29-4.8-1.61-.48-.15-1.53-.51-1.53-.51,0,0-.9.13-1.37.26-.51.14-6.29,1.26-6.29,1.26Z"/><path class="cls-1" d="M154.96,272.54c-.49,1.98-.45,4.11.33,6s2.33,3.47,4.26,4.11c.81.27,2.47-.07,2.47-.07l.6-2.17s3.65,2.41,5.81,2.47c.64.02,1.83-.47,1.83-.47l.15-1.69,3.58,2.66s1.93.6,2.94.61,2.05-.28,2.77-.98c1.06-1.04,1.18-2.75.68-4.15s-1.49-2.54-2.47-3.66c-1.49-1.7-3-3.42-4.84-4.74-2.86-2.05-6.49-2.94-9.98-2.63-3.02.27-7.3,1.38-8.13,4.7Z"/><path class="cls-32" d="M123.71,321.99c0,.31-.01.62.09.91.19.53.69.86,1.17,1.14,4.44,2.55,10,3.04,14.81,1.31.42-.15.86-.34,1.13-.69.27-.36.35-.84.36-1.29.04-3.36-.91-6.6-.46-10.71.1.41-17.07-.43-17.07-.43,0,0,.05,6.02-.03,9.77Z"/><path class="cls-58" d="M156.61,328.63c-.73-1.67-1.86-2.22-2.71-3.08-1.22-1.24-3.41-2.76-3.41-2.76,0,0-6.92-2.88-9.6-3.76-.37,2.35-3.69,6.38-3.69,6.38,0,0-4.01.44-4.95.6-1.28.22-3.97.83-3.97.83,0,0-1.83-1.94-3.11-5.17l-1.74-2.37-1.3.19-10.2,4.65s-3.98,1.26-5.63,6.62c-.47,1.54-3.07,9.25-3.07,9.25,0,0,1.07.61,2.19.92,7.57,2.68,12.59,3.94,12.59,3.94,0,0,13.82.44,19.86.65,4.56.16,9.09-.41,9.09-.41,0,0,5.07-.54,8.88-1.59,2.22-.61,2.34-.62,4.51-1.64-.94-3.37-1.15-5.73-1.15-5.73,0,0-1.52-5.07-2.58-7.5Z"/><path class="cls-68" d="M119.28,293.83c-.53,1.87.11,4.14.11,4.14l.58,9.87s1.56,4.02,2.02,5.07c.58,1.33.65,1.91,2.13,3.41.86.87,2.89,2.44,4.08,2.99,2.56,1.18,7.62.1,7.62.1,0,0,2.3-1.42,3.61-3.14,1.56-2.04,2.36-3.68,2.97-6.37,1.19-5.26,3.28-11.84.24-16.65-3.91-6.19-10.78-4.52-16.46-1.65-.85.43-1.7.88-2.54,1.33l-4.38.9Z"/><path class="cls-68" d="M142.35,302.88c.62-1.11,1.4-2.59,2.92-2.11.89.28,1.27,1.4,1.29,2.26.04,1.89-2.2,5.77-2.2,5.77,0,0-1.45,1.3-2.42,1.78.02-.09.05-.19.1-.28l.31-7.42Z"/><path class="cls-68" d="M120.05,301.81c-.53-.01-1.36-.29-1.82.06-.49.38-.45,1.38-.54,1.93-.12.72-.25,1.33-.09,2.06.29,1.37.43,2.48,1.4,3.54.75.83,1.85,1,2.92,1.25,0,0-1.05-8.81-1.86-8.83Z"/><path class="cls-8" d="M131.24,305.22c-.51.72-.78,1.22-1.33,2.5-.15.34-.48,1.16-.48,1.16,0,0,.68.57,1.11.78.31.15,1.19.37,1.19.37l.56-1.14-1.06-3.66Z"/><path class="cls-59" d="M135.54,282.29c-3.79-.34-11.44,1.41-11.44,1.41,0,0-4.6,2.33-5.37,5.33-.09.36-.53,1.57-1.01,4.3-.17.97-.16,4.06-.16,4.06,0,0,1,3.36,1.3,4.29.95,2.96,1.05,3.91,1.78,5.44.22-.96.06-2.85.15-3.58.16-1.26.02-3.5.02-4.02,0-.47.43-3.34.43-3.34,0,0,7.95-2.17,9.04-2.29,1.25-.14,3.35-.67,5.24-.87.99-.11,2.55-.2,2.55-.2l2.5,1.69s2.96,3.05,3.12,4.94c.1,1.28.09,2.55.24,3.83.13,1.16-.18,2.27-.35,3.44,1.45-3.07,2.61-4.97,2.94-8.35.15-1.55.56-5.06.32-7.05-.17-1.45-.42-2.6-1.32-5.01,0,0-2.29-2.07-3.07-2.5l-6.91-1.5Z"/><path class="cls-69" d="M118.66,321c1.41,1.72,4.35,5.36,4.35,5.36l4.42,4.87,2.29-3.04s1.19-1.65,2.52-2.19c-.57-.66-6.18-5.02-6.79-5.62-1.16-1.13-2.24-2.53-2.24-2.53,0,0-3.39,1.97-4.55,3.15Z"/><path class="cls-69" d="M146.03,320.88c-1.41,1.72-4.9,5.64-4.9,5.64l-4.23,4.67-1.94-2.54s-1.79-1.87-2.92-2.64c.57-.66,6.18-5.02,6.79-5.62,1.16-1.13,2.24-2.53,2.24-2.53,0,0,3.53,1.95,4.96,3.02Z"/><path class="cls-69" d="M130.72,337.12s1.88.1,3.06-.18c.14-3.56.18-7.14-.04-10.69-.02-.22-2.91-.2-2.91-.2l-.23,3.03.13,8.04Z"/><path class="cls-19" d="M131.96,329.07c.53.22.88-.03.88-.03,0,0,.26-.38.26-.65,0-.69-.79-.87-1.26-.57s-.37,1.04.12,1.25Z"/><path class="cls-19" d="M131.88,333.41c.53.22.88-.03.88-.03,0,0,.26-.38.26-.65,0-.69-.79-.87-1.26-.57s-.37,1.04.12,1.25Z"/><path class="cls-19" d="M124.61,305.2c.29.26,1.34.36,1.34.36,0,0,.75-.04,1.14-.26.44-.25.61-1.16.61-1.16,0,0,.01-.54-.05-.82-.12-.55-.82-.99-.99-1.02-.71-.13-1.67-.18-2.17.5s-.46,1.86.14,2.41Z"/><path class="cls-13" d="M125.15,302.59c-.27.31-.44.71-.48,1.11-.03.32.13.92.13.92,0,0,.18.4.31.56.17.2.69.37.69.37,0,0,1.36.29,1.84-.73.11-.24.22-.61.22-.82,0-.43-.1-.84-.1-.84,0,0-.28-.59-.83-.81-.45-.18-1.25-.13-1.25-.13,0,0-.37.21-.51.37Z"/><path class="cls-19" d="M139.64,305.2c-.29.26-1.34.36-1.34.36,0,0-.75-.04-1.14-.26-.44-.25-.61-1.16-.61-1.16,0,0-.01-.54.05-.82.12-.55.82-.99.99-1.02.71-.13,1.67-.18,2.17.5s.46,1.86-.14,2.41Z"/><path class="cls-13" d="M139.09,302.59c.27.31.44.71.48,1.11.03.32-.13.92-.13.92,0,0-.18.4-.31.56-.17.2-.69.37-.69.37,0,0-1.36.29-1.84-.73-.11-.24-.22-.61-.22-.82,0-.43.1-.84.1-.84,0,0,.28-.59.83-.81.45-.18,1.25-.13,1.25-.13,0,0,.37.21.51.37Z"/><path class="cls-18" d="M127.8,297.63c1.92.34,3.05.15,5,.09.86-.03,2.28.06,3.13.17.13.02.82.1.82.1,0,0,.56.08.58.13.07.16-1.04.41-1.04.41,0,0-1.98.1-2.17.08-1.14-.11-2.24-.12-3.39-.16-1.28-.05-3.14-.27-3.59-.61v-.17l.65-.04Z"/><path class="cls-18" d="M127.05,310.76c-.58.84-.36,2.7-.36,2.7,0,0,0,.27.1.35.26-.22.27-.6.3-.94.07-.85.38-1.69.89-2.38.16-.21.46-.66.46-.66,0,0,.21-.98-.23-.54-.32.32-.91,1.08-1.17,1.46Z"/><path class="cls-18" d="M135.02,310.16c.15.26.38.65.49.93.2.55.37,1.59.37,1.59,0,0,.05.36.26.66.1-.19.13-.41.13-.63.03-.9-.53-2.48-.53-2.48,0,0-.84-1.19-.98-1.05-.12.12.17.83.26.97Z"/><path class="cls-47" d="M128.16,312.38s1.97-.11,2.79-.15c1.05-.05,3.81.19,3.81.19,0,0-.3.95-.54,1.3-.4.58-1.04.9-2.02,1.03-.73.1-1.59-.04-2.33-.38-.57-.27-.9-.55-1.22-1.05l-.49-.94Z"/><path class="cls-61" d="M78.12,325.44l-6.27,2.18,4.9,6.68,4.09,5.72s7.63-.41,7.77-.61,6.68-11.51,6.68-11.51l-9.4-3.27-7.77.82Z"/><path class="cls-61" d="M76.21,326.21c2.01,2,4.72,3.29,7.55,3.6s5.75-.38,8.14-1.91c.24-.15.49-.33.62-.58.21-.4-.54-.84-.66-1.27-.68-2.46-.34-4.95-1.03-7.41-1.65.76-3.93.81-5.75.82-1.99,0-5.52-.78-7.31.37-.78.5-1.44-1.83-1.62-.97-.1.49-.18,7.12.06,7.36Z"/><path class="cls-5" d="M70.1,298.42c-.51,1.75.11,3.88.11,3.88l.88,10.45s.59,2.5,1.05,3.49c.57,1.25,1.05,3.23,2.5,4.64.84.82,3.27,2.34,4.43,2.86,2.5,1.12,7.41.12,7.41.12,0,0,4.12-2.05,5.39-3.66,1.51-1.91,2.11-4.39,2.69-6.91,1.15-4.93,1.23-10.83-1.74-15.35-3.82-5.82-10.5-4.26-16.01-1.59-.83.4-1.65.82-2.47,1.24l-4.25.83Z"/><path class="cls-8" d="M82.58,311.1c-.34.56-1.06,2.2-1.06,2.2,0,0-.83,1.26-.85,1.47l.98.79s.92.49,1.38.53l-.18-1.94-.28-3.05Z"/><path class="cls-5" d="M94.26,307.67c.6-1.08,1.36-2.52,2.84-2.05.87.27,1.23,1.36,1.25,2.2.04,1.84-2.14,5.61-2.14,5.61,0,0-1.41,1.27-2.35,1.73.02-.09.05-.19.1-.27l.31-7.21Z"/><path class="cls-5" d="M70.16,306.6c-.51-.01-1.32-.29-1.77.06-.47.37-.43,1.35-.53,1.88-.12.7-.24,1.3-.09,2,.28,1.33.42,2.41,1.36,3.45.73.81,1.8.98,2.84,1.21,0,0-1.02-8.57-1.81-8.59Z"/><path class="cls-47" d="M80.4,318.38s.73.02,1.91.11c.51.04,1.77-.14,2.28-.19.4-.04,1.79-.34,1.79-.09,0,.12-.3.77-.89,1.1-.56.31-1.75.93-3.44.7-1.24-.17-2.48-1.28-2.48-1.28l-.11-.5.94.14Z"/><path class="cls-1" d="M82.56,285.54s-3.09-.11-4.63.58c-1.97.88-3.82,2.11-5.55,3.4-1.28.95-2.44,2-3.31,3.35-.82,1.27-2.13,6.38-1.86,10.45.21,3.17,2.83,7.08,3.75,7.8.27-.72,2.23-4.03,2.41-4.23,1.53-1.75,1.93-1.91,2.91-2.66,1.51-1.15,3.76-2.95,3.76-2.95,0,0-2,2.73-2.07,2.86.24.08,3.2-.35,3.98-.77.85-.47,2.56-2.68,2.6-2.66-.04,0-.17.03-.1,0,.07-.02.56.98.74,1.43.68,1.67,2.63,3.14,2.63,3.14,0,0,1.56.86,2.13,1.18.41.24,3.31.69,3.91,1.94.94,1.93,1.24,1.93,1.24,1.93l3.25-3.51s2.04-7.67.99-10.71c-.38-1.1-1.06-2.59-1.55-3.64-.5-1.05-4.56-4.6-5.99-5.22-1.05-.45-4.72-1.11-5.47-1.21.02.02.04.05.04.08l-3.81-.58Z"/><path class="cls-70" d="M79.62,310.28c-.73-.03-2.88-.35-2.88-.35,0,0-1.47.02-2.88.11-.09-.41,1.44-1.02,1.44-1.02,0,0,1.14-.22,1.62-.18,1.24.09,2.79,1.1,2.7,1.45Z"/><path class="cls-70" d="M86.19,309.81s1.36-.53,2.28-.61c1.11-.1,2.5.53,2.5.53,0,0,1.06.64,1.01.91-1.27-.19-2.54-.31-3.82-.36-.58-.02-1.28.05-1.28.05,0,0-.85.12-1.01.03-.18-.1.33-.56.33-.56Z"/><path class="cls-4" d="M108.72,333.48c-.7-1.59-1.47-3.42-3.04-4.3-1.47-.82-4.78-2.05-4.78-2.05,0,0-6.7-1.56-9.18-2.15-.35,2.25-3.52,6.08-3.52,6.08,0,0-4.27,4.47-4.81,4.17-1.08-.6-3.69-2.8-3.69-2.8,0,0-1.74-1.85-2.97-4.93l-.73-2.52-2.17.44-9.73,4.44s-3.8,1.2-5.37,6.31c-.45,1.47-2.92,8.73-2.92,8.73,0,0,1.02.58,2.09.88,7.22,2.56,12.01,3.76,12.01,3.76,0,0,13.18.42,18.95.62,4.35.15,8.67-.39,8.67-.39,0,0,4.84-1.18,8.48-2.18,2.12-.59,4.88-1.25,6.96-2.23-.9-3.21-1.76-4.71-1.76-4.71,0,0-1.45-4.84-2.46-7.16Z"/><path class="cls-11" d="M82.92,338.94c.16.13.55.25.55.25l4.5-4.25s4.28-4.12,7.17-9.16c-.96-.41-2.49-.87-3.3-1.06-.49,1.73-3.86,6.17-3.86,6.17,0,0-4.53,3.99-4.71,3.99-.21,0-3.46-2.65-3.46-2.65,0,0-1.62-1.59-2.84-4.67l-.93-2.78-2.21.63-.46.21c.93,2.9,3.96,8.16,3.96,8.16,0,0,3.6,3.59,5.6,5.16Z"/><path class="cls-37" d="M80.9,310.49c.08.12-.23.71-.23.71l-.61.62s-.79.65-1.31.77c.05-.68,1.7-1.68,2.15-2.09Z"/><path class="cls-37" d="M86.56,312.49s.73.38.82.38-.54-.88-.54-.88l-.78-.74s-.41-.38-.68-.36c-.08.62,1.18,1.6,1.18,1.6Z"/><path class="cls-61" d="M105.43,352.58c0,1.35-.04,2.57-.36,3.8,2.83.18,11.7-.13,11.7-.13,0,0-.46-2.53-1.09-5.23l-10.25,1.56Z"/><path class="cls-1" d="M108.68,322.35c-5.06-.53-6.79.55-10.21,3.73-1.03.96-2.39,2.99-2.39,2.99,0,0-2.02,4.23-2.47,5.98-.45,1.74-.39,6.27-1.12,9.52-.18.81-1.37,3.42-1.37,3.42,0,0,2.7.59,3.51-.06.82-.65-.14,1.96-1.21,3.07,2.27,1.17,7.1.12,7.1.12,0,0,4.97-.07,6.73-.45,2.41-.51,1.55.44,3.99.79,3.41.49,6.84.27,10.36.88,1.64.28,3.18.46,4.79-.03,2.93-.88,3.46-2.06,3.46-2.06,0,0-2.14-1.37-2.28-3.2,1.51-.16,3.64-2.03,3.64-2.03l-1.83-1.95s-1.99-2.27-2.55-7.26c-.26-2.28-1.79-5.72-1.79-5.72,0,0-2.43-3.74-4.23-5.05-2.4-1.76-8.06-2.89-8.06-2.89l-4.09.19Z"/><path class="cls-67" d="M107.18,332.47c-4.67,2.27-9.06,4.28-8.32,10.19.13,1.01.07,2.81.42,3.76.68,1.81,1.75,3.46,3.13,4.79.99.95,3.86,2.04,3.86,2.04,0,0,2.94,1.35,4.59,1.43,2.35.12,4.49-1.12,6.45-2.12,1.57-.79,2.66-1.14,3.76-2.53,1.72-2.17,2.23-4.67,2.19-7.98-.09-7.02-6.63-9.52-12.17-11.33l-3.91,1.74Z"/><path class="cls-8" d="M110.53,345.21c-.5.92-.2.31-1.1,2.21l1.27.54s.18-.31.28-1.07l-.45-1.68Z"/><path class="cls-47" d="M108.98,349.83c.94.12,1.38.17,1.38.17,0,0,1.1-.01,1.59-.09.42-.06,1.66-.22,1.84-.17-.15.71-1.72,1.32-1.72,1.32,0,0-1.2.2-1.9.12-.51-.06-1.57-.63-1.57-.63,0,0-.49-.38-.45-.8l.82.09Z"/><path class="cls-67" d="M99.33,341.47s-1.49-.09-1.95.46c-.53.64-.43,1.69-.25,2.43.21.9,1.36,2.06,1.36,2.06,0,0,1.03.53,1.66.55,0-.05-.03-.07-.07-.11l-.74-5.39Z"/><path class="cls-67" d="M122.57,340.67c.52-.55,1.18-.86,1.9-.44.54.32.73,1.46.73,1.46,0,0-.07,2.39-.78,3.33-.46.61-1.82,1.37-1.82,1.37l-.03-5.73Z"/><path class="cls-1" d="M108.79,328.36c-.79.21-1.41.41-2.08.83-.51.32-1.1.56-1.63.86-.92.52-1.85,1.08-2.61,1.83-.62.61-1.09,1.31-1.55,2.03-.42.66-.81,1.17-1.06,1.91-.21.63-.51,1.22-.68,1.85-.13.47-.2.94-.32,1.41-.1.39-.1.74-.13,1.13-.02.23-.6,1.11-.57,1.34-.1.03,1.64.19,2.23.2,1,.02,2.09-.54,2.96-.98.5-.26,1.36-.79,1.36-.79,0,0,1.24-.89,1.82-1.37.51-.43,1.17-.9,1.45-1.53l.13-.3s-.11.45-.18,1.07c-.09.81-.22,1.62-.25,2.44.92.37,2.38-.03,3.2-.5.59-.34,1.56-1.42,1.56-1.42,0,0,.68-1.16.72-1.36.23.56.55,1.05.89,1.55.34.5,1.93,1.97,2.37,2.13.67.23,1.33.52,2.03.66.91.18,1.86.13,2.78.11.61-.02,2.8-.27,2.8-.27-.15-1.51-.17-1.32-.07-2.05.18-1.29.11-2.54-.37-3.76-.67-1.7-1.86-3.33-3.26-4.5-1.64-1.37-3.68-1.84-5.73-2.25l-5.81-.26Z"/><path class="cls-66" d="M101.98,374.35s4.49.32,6.74.48c1.96.14,3.93.28,5.9.18,2.47-.12,7.95-.58,7.95-.58,0,0,4.56-.15,9.05-2.53-.87-2.72-1.76-6.9-3.34-9.37-1.34-2.1-3.2-4.76-4.83-5.79-1.34-.84-5.6-1.94-5.6-1.94,0,0-5.06,1.8-8,1.64-2.94-.16-4.79-1.75-4.79-1.75,0,0-4.28.35-7.67,2.65-1.99,1.35-5.85,8.99-5.85,8.99,0,0-.74.82-1.65,4.69,1.1.86,2.37,1.52,3.69,1.98,2.69.94,8.4,1.35,8.4,1.35Z"/><path class="cls-28" d="M105.73,358.63c1.91.54,3.82.51,5.77.59,2.69.11,5.71-.82,7.84-2.47.46-.35.86-.73,1.2-1.16-1.39-.44-2.7-.78-2.7-.78,0,0-5.06,1.8-8,1.64-2.94-.16-4.79-1.75-4.79-1.75,0,0-1.42.12-3.27.66.29.67.61,1.36.61,1.36,0,0,2.64,1.72,3.32,1.91Z"/><path class="cls-19" d="M110.47,360.65c.93-.61,2.22.57,1.46,1.46-.87,1.03-2.38,0-1.77-1.15l.31-.3Z"/><path class="cls-19" d="M110.47,365.35c.93-.61,2.22.57,1.46,1.46-.87,1.03-2.38,0-1.77-1.15l.31-.3Z"/><path class="cls-35" d="M103.83,350.78c1.04-.91,1.38-2.3.84-3.59-.37-.89-1.03-1.12-1.95-1.18-1.37-.09-2.29.21-3.05,1.35.67,1.44,1.59,2.75,2.73,3.84,0,0,.02.02.03.02.5,0,.97-.08,1.4-.46Z"/><path class="cls-35" d="M121.07,350.04c.69-.87,1.18-1.8,1.53-2.8-1-1.67-4.2-1.66-5.41-.24-1.34,1.56-.35,4.35,1.54,4.88.87-.44,1.6-.91,2.34-1.84Z"/><path class="cls-19" d="M102.6,342.7c-.09.2,0,.67,0,.89.01.27.31.73.31.73,0,0,.75.81,1.45.8.57,0,1.15-.11,1.59-.47.24-.19.26-.4.36-.7.07-.21.16-.71.16-.71,0,0-.12-.87-.67-1.24-.38-.26-1.06-.41-1.06-.41,0,0-1.56-.23-2.15,1.11Z"/><path class="cls-13" d="M103.35,342.42c-.44.82.04,1.8.04,1.8,0,0,.32.39.65.57.61.32,1.44.14,1.44.14,0,0,.55-.24.73-.54.62-1.04.38-1.78-.1-2.29-.73-.78-2.21-.69-2.76.33Z"/><path class="cls-19" d="M119.72,342.7c.09.2,0,.67,0,.89-.01.27-.31.73-.31.73,0,0-.75.81-1.45.8-.57,0-1.15-.11-1.59-.47-.24-.19-.26-.4-.36-.7-.07-.21-.16-.71-.16-.71,0,0,.04-.87.59-1.24.38-.26,1.14-.41,1.14-.41,0,0,1.56-.23,2.15,1.11Z"/><path class="cls-13" d="M118.96,342.42c.44.82-.04,1.8-.04,1.8,0,0-.41.45-.74.63-.61.32-1.35.08-1.35.08,0,0-.66-.29-.81-.6-.51-1.06-.29-1.72.18-2.23.73-.78,2.21-.69,2.76.33Z"/></g></g></svg>