<?xml version="1.0" encoding="UTF-8"?><svg xmlns="http://www.w3.org/2000/svg" viewBox="0 0 500 500"><defs><style>.cls-1{fill:#4c3c2f;}.cls-2{fill:#a09776;}.cls-3{fill:#8d3029;}.cls-4{fill:#43325c;}.cls-5{fill:#e7c2a3;}.cls-6{fill:#f4dfce;}.cls-7{fill:#bfb130;}.cls-8{fill:#a1802d;}.cls-9{fill:#db913e;}.cls-10{fill:#3d5058;}.cls-11{fill:#c29973;}.cls-12{fill:#f5e4bb;}.cls-13{fill:#c2d88c;}.cls-14{fill:#f2f2f2;mix-blend-mode:multiply;}.cls-15{fill:#cc585f;}.cls-16{fill:#513f23;}.cls-17{fill:#9b4f41;}.cls-18{fill:#eac4ab;}.cls-19{fill:#b3d3ad;}.cls-20{fill:#d8aa83;}.cls-21{fill:#fff;}.cls-22{fill:#8c3f30;}.cls-23{fill:#dc9534;}.cls-24{fill:#9f702c;}.cls-25{fill:#cd9b5f;}.cls-26{fill:#eae4d1;}.cls-27{fill:#9b7b2f;}.cls-28{fill:#e9ba3f;}.cls-29{fill:none;}.cls-30{fill:#417357;}.cls-31{fill:#db946f;}.cls-32{fill:#fcf09a;}.cls-33{fill:#f8eec7;}.cls-34{fill:#d0a36d;}.cls-35{fill:#5b64aa;}.cls-36{fill:#2f2011;}.cls-37{fill:#e5b9a2;}.cls-38{isolation:isolate;}.cls-39{fill:#d7a67c;}.cls-40{fill:#573a6c;}.cls-41{fill:#4c4a4a;}.cls-42{fill:#9e866b;}.cls-43{fill:#52549f;}.cls-44{fill:#ad7b53;}.cls-45{fill:#912429;}.cls-46{fill:#7ab891;}.cls-47{fill:#be8b56;}.cls-48{fill:#251e1c;}.cls-49{fill:#888535;}.cls-50{fill:#c93f1e;}.cls-51{fill:#dbad94;}.cls-52{fill:#548f43;}.cls-53{fill:#e9c941;}.cls-54{fill:#66532b;}.cls-55{fill:#73b15f;}.cls-56{fill:#ab4b2a;}.cls-57{fill:#cb7747;}.cls-58{fill:#d9ad87;}.cls-59{fill:#d4a985;}.cls-60{fill:#674025;}.cls-61{fill:#7c3127;}.cls-62{fill:#d27033;}.cls-63{fill:#c83936;}.cls-64{fill:#e8c08b;}.cls-65{fill:#2f2614;}.cls-66{fill:#7f913a;}.cls-67{fill:#302c18;}.cls-68{fill:#d57c47;}.cls-69{fill:#e6c0a8;}.cls-70{fill:#e0a03b;}.cls-71{fill:#efd1a4;}.cls-72{fill:#e0ba88;}.cls-73{fill:#37281b;}</style></defs><g class="cls-38"><g id="_레이어_1"><rect class="cls-29" width="500" height="500"/><path class="cls-6" d="M474.02,177.5c3.15-26.92,4.29-74.16,4.29-74.16,0,0-11.06-38.53-30.06-48.89-21.47-11.7-39.32-13.65-60.12-16.3-80.84-10.3-116.79,5.93-198.01-1.67-16.93-1.58-56.47-3.52-73.48-4.18-42.94-1.67-73.48,20.89-73.48,20.89,0,0-25.29,61.56-20.04,99.44,10.84,78.24-1.02,128.66-2.89,207.45-.73,30.77-1.18,65.34,23.34,87.4,13.16,11.83,50.53,20.16,50.53,20.16,0,0,37.67.65,56.45-.86,34.29-2.76,68.59-5.51,102.88-8.27,20.61-1.66,96.15,2.63,111.08,4.15,30.78,3.13,60.84-2.09,60.84-2.09,0,0,31.52-8.5,42.94-27.58,11.23-18.75,12.39-55.85,11.45-76.46-2.69-58.9-11.45-130.15-5.73-179.04Z"/><path class="cls-26" d="M54.41,95.66l-.77,148.73s-4.03,110.43,1.32,157.89c0,0,32.85-4.59,55.73-2.37,22.88,2.21,68.49,5.92,120.38,4.11,51.89-1.81,108.12-4.04,143.02-2.94,34.9,1.1,65.3-.34,65.3-.34l.11-51.4s1.08-172.75-1.25-195.05l-.38-60.76s-71.93,2.95-86.46,0c-14.54-2.95-71,2.96-93.89,3.52-22.89.55-203.11-1.37-203.11-1.37Z"/><path class="cls-21" d="M53.58,253.68s44.84-14.26,62.59-24.51c16.81-9.7,36.04-26.03,66.88-34.58,0,0,23.25,29.02,33.7,45.7,18.37,29.31,52.09,45.68,52.09,45.68,0,0-33.05,14.06-53.93,29.74-20.88,15.67-43.42,34.2-61.8,46.68-18.38,12.48-82.68,38.35-82.68,38.35,0,0,28.75-2.45,51.67-.83,0,0,36.41-13.35,51.39-22.87,14.98-9.51,58.73-45.22,73.08-53.62,14.34-8.39,47.28-24.38,47.28-24.38,0,0,43.09,24.48,57.21,43.89,14.12,19.41,33.51,53.94,40.07,59.35l27.81-.19-41.54-60.95s-27.59-35.39-54.5-50.63c0,0,36.3-2.45,61.16-1.62,24.86.83,56.89,1.09,56.89,1.09v-20.5s-85.16-3.16-104.95-2.17c-19.79.99-37.55,4.6-37.55,4.6,0,0-40.84-16.41-58.73-41.04-17.89-24.62-38-51.25-41.94-59.24-3.95-7.99-17.62-31.5-20.83-73.99h-20.25s0,46.32,16.26,72.58c0,0-34.13,15.64-50.85,28.29-16.72,12.64-68.51,30.68-68.51,30.68v24.51Z"/><path class="cls-19" d="M208.86,97.63s13.05,13.67,27.88,18.51c14.84,4.84,26.43,2.82,34.03,13.03,7.6,10.2,7.71,26.42,19.16,35.33,11.46,8.91,21.04,10.11,25.37,18.56s5.95,47.54,28.37,57.24c22.42,9.7,42.9,1.82,63.52-6.04,0,0,21.05-10.62,33.07,6.04,0,0-1.96-94.79-2.67-105.41-.71-10.62.28-41.36.28-41.36,0,0-49.49,2.9-68.75,1.39-19.27-1.51-63.52-1.86-88.04,1.1-24.52,2.96-72.21,1.62-72.21,1.62Z"/><path class="cls-32" d="M292.6,96.01s13.37,3.17,14.34,16.77,2.5,21.5,21.33,27.49c18.83,5.99,25.54,13.52,30.87,30.12,5.33,16.6,19.72,35.43,54.95,28.09,0,0,20.81-2.41,25.17,4.73,0,0-2.54-100.09-1.4-109.7l-62.77,1.2s-66.52-3.4-82.49,1.29Z"/><path class="cls-11" d="M352.89,94.38s-4.93,8.8,4.78,13.84c0,0,5.26,3.88,6.62,13.53,1.35,9.65,2.32,24.33,24.33,25.1s24.52.19,30.7,4.83c6.18,4.63,12.19,7.72,18.94,5.12l-.38-63.27s-74.16,1.61-84.97.86Z"/><path class="cls-19" d="M54.41,146.22s8.25.6,16.25-3.96c7.99-4.56,9.78-6.4,23.1-5.95s22.39-2.24,30.52-15.45c8.13-13.21,16.62-14.45,23.05-17.56,6.42-3.11,9.37-6.65,9.37-6.65H54.86l-.45,49.58Z"/><path class="cls-32" d="M54.96,95.66v20.01s2.36-3.26,11.02-1.64c8.66,1.62,12.64,3.38,21.66-5.85,0,0,3.55-4.58,10.26-7.12s7.88-5.41,7.88-5.41h-50.82Z"/><path class="cls-26" d="M418.25,401.07l-43.41-63.23s-35.59-37.48-51.93-47.34c0,0,24.95-3.35,49.3-2.28,24.35,1.08,67.68,1.74,67.68,1.74,0,0,.26,38.2-.14,51.51-.4,13.31.8,52.11-.36,59.26l-21.14.34Z"/><path class="cls-14" d="M437.6,103c6.46-.22,10.57-.39,10.57-.39l.38,60.76c2.33,22.3,1.25,195.05,1.25,195.05l-.11,51.4s-30.41,1.45-65.3.34c-34.9-1.1-91.36-.11-143.25,1.71-51.89,1.81-97.27-.66-120.15-2.88-22.88-2.21-62.54,3.4-62.54,3.4-.35-3.14-.67-6.56-.94-10.21,0,0,25.66-3.4,61.76-1.13,27.29,1.72,92.29,3.08,111.4,2.33,19.11-.75,87.46-3.44,87.46-3.44,0,0,52.61.79,70.92,1.44,29.77,1.05,50.51-1.26,50.51-1.26,0,0,.69-21,.11-39.39-.58-18.39.41-70.37.21-94.99s-.07-88.84-2.02-124.44l-.26-38.33Z"/><path class="cls-41" d="M437.57,349.4c-.49,16.96,1.2,33.99-.02,50.91-.17,2.35,3.5,3.32,3.7.84,1.34-17.25-.33-34.6.19-51.89.08-2.5-3.79-2.42-3.87.14h0Z"/><path class="cls-41" d="M435.89,93.59c-1.49,37.81,1.5,75.99,1.66,113.85.2,47.4,1.5,94.56.04,141.97-.08,2.47,3.73,2.38,3.82-.14,1.6-47.41.29-94.57.11-141.97-.15-37.86-3.16-76.04-1.68-113.85.1-2.55-3.85-2.46-3.95.14h0Z"/><path class="cls-41" d="M280.57,97.99c28-2.71,54.8-3.04,82.83-1.58,24.85,1.3,49.76-.74,74.62-.87,2.59-.01,2.21-4.04-.29-4.02-24.85.14-49.77,2.19-74.62.91-27.99-1.45-54.85-1.1-82.82,1.62-2.53.25-2.17,4.19.29,3.96h0Z"/><path class="cls-41" d="M54.54,97.5c35.04.2,70.08.52,105.12.91,40.19.45,80.83,3.12,120.9-.41,2.57-.23,2.2-4.23-.29-4.01-40.07,3.58-80.7.98-120.89.58-35.04-.35-70.08-.62-105.11-.76-2.37,0-2.02,3.67.27,3.68h0Z"/><path class="cls-41" d="M55.11,404.36c26.34-4.37,53.1-1.57,79.58-.08,34.96,1.97,69.08,1.7,104.05.33,33.35-1.31,66.76-2.51,100.14-2.43,33.61.08,66.96,4.25,100.56,1.18,2.92-.27,2.5-4.83-.33-4.56-32.69,3.04-65.13-.82-97.84-1.02-34.27-.21-68.61,1.19-102.84,2.55-33.97,1.35-67.16,1.83-101.13-.1-27.41-1.56-55.23-4.58-82.49-.04-2.62.44-2.26,4.6.3,4.17h0Z"/><path class="cls-41" d="M52.67,95.72c.04,55.91-.92,111.66-2.06,167.55-.94,46.22-1.44,92.95,2.27,139.08.21,2.66,4.36,2.6,4.13-.15-3.77-46.13-3.28-92.85-2.47-139.07.99-55.89,1.9-111.63,1.59-167.53-.01-2.25-3.47-2.18-3.47.12h0Z"/><path class="cls-34" d="M118.77,217.52c.25.97-.52,3.29-.52,3.29,0,0,.91,7.42.98,8.37.12,1.65-1.51,2.83-2.58,4.64-1.53,2.59-4.16,5.83-7.35,5.3-3.28-.54-7.26-5.68-7.3-8.4-.05-3.02,1.03-8.04,1.03-8.04,0,0,2.52,1.17,2.48,1.02l13.25-6.19Z"/><path class="cls-72" d="M97.87,208.3c-.36-1.24-2.04-1.2-2.61-.1-.45.88-.16,3.6-.16,3.6l1.33,3.3s1.33,1.79,2.27,2.36l-.83-9.16Z"/><path class="cls-72" d="M98.19,199.54c-.63,2.02-.11,4.52-.11,4.52l.3,12.19s.64,2.89.88,4.1c.4,2.03.94,2.91,2.35,4.6,2.6,3.11,6.07,5.58,10.19,5.18,6.23-.6,9.45-7.06,10.84-12.43,1.47-5.69,1.9-12.56-.91-17.93-3.61-6.9-10.62-5.33-16.47-2.41-.88.44-1.75.9-2.62,1.36l-4.45.82Z"/><path class="cls-9" d="M108.65,211.04c-.48.83-1.32,2.82-1.32,2.82,0,0-1.18,1.88-1.21,2.2l1.2,1.24s1.2.35,1.8.42l.26-2.26-.72-4.42Z"/><path class="cls-50" d="M104.81,221.17s2.42-.14,3.42-.18c1.29-.06,4.67.24,4.67.24,0,0-.37,1.17-.67,1.59-.49.71-1.28,1.1-2.48,1.26-.9.12-1.94-.05-2.85-.47-.7-.32-1.1-.67-1.5-1.29l-.6-1.15Z"/><path class="cls-42" d="M119.51,196.98s-3.74-.06-4.57-.15c-1.75-.19-5.19.06-5.19.06,0,0-4.53,1.46-6.53,2.4-1.12.52-4.18,3.22-4.18,3.22l-.83,6.6c-.57-.69-.68-.63-1.32-2.02-.89-1.96-.57-5.87-.76-8.21-.24-2.94,3.57-6.64,3.57-6.64,0,0,6-5.48,9.74-5.67,2.47-.13,5.45.69,7.74,1.57,2.02.78,3.9,1.97,5.4,3.49,1.63,1.66,2.81,3.71,3.24,6.07.36,1.96-.37,6.07-.37,6.07,0,0-2.1,5.79-3.28,8.26-.71-.77-1.57-3.88-1.57-6.19v-2.89l-1.07-5.97Z"/><path class="cls-72" d="M122.83,209.39c.67-1.1,1.54-2.57,3.06-2.02.89.32,1.23,1.48,1.21,2.36-.04,1.93-2.49,5.78-2.49,5.78,0,0-1.54,1.26-2.54,1.71.03-.09.06-.19.12-.28l.64-7.54Z"/><path class="cls-25" d="M104,204.08c2.32.41,3.69.19,6.04.11,1.04-.03,2.75.07,3.78.2.16.02.99.12.99.12,0,0,.68.1.7.16.08.19-1.26.49-1.26.49,0,0-2.4.12-2.62.09-1.38-.14-2.7-.15-4.09-.2-1.54-.06-3.8-.33-4.34-.73v-.2l.79-.05Z"/><path class="cls-73" d="M105.83,209.28s.66.57.59.97c-.41.08-1.21-.17-1.21-.17,0,0-.84-.15-1.26-.19-1.11-.1-2.23-.16-3.35-.17-.07,0,.27-.59.31-.64.12-.14.44-.37.44-.37,0,0,.93-.26,1.36-.29,1.1-.07,3.13.86,3.13.86Z"/><path class="cls-73" d="M114.75,208.64c1.01-.12,2.88.43,2.88.43,0,0,.88.58,1.16.92-.69.27-2.08-.02-2.08-.02,0,0-2.77,0-4.14.1-.93.07.57-.89.57-.89,0,0,1.04-.48,1.61-.54Z"/><path class="cls-42" d="M106.89,218.52c-.64-.08-1.53-.2-2.35-.08-.74.11-1.77,1.09-1.77,1.09,0,0-.69,2.21-.74,3.56.83.6,1.21.68,1.43.47.34-.31.99-2.01.99-2.01,0,0,.88-1.07,1.72-1.25.88-.18,2.19,0,2.86,0,1.43-.02,2.7-.09,3.79.12,1.41.27,2.72,3.96,2.72,3.96l1.87.03s-.53-5.35-1.72-5.73c-1.07-.34-3.06-.4-3.06-.4,0,0-2.19.14-3.69.3l-2.07-.08Z"/><path class="cls-42" d="M123.14,208.26c.06,3.11.36,7.02-.16,9.9-.39,2.15-1.52,4.29-2.52,6.23-.94,1.83-4.36,4.64-4.36,4.64,0,0-2.76,1.89-4.25,2.13-.67.11-4.02.55-7.29-1.37-2.24-1.32-4.65-5.72-4.65-5.72,0,0-1.48-3.73-1.71-5.31-.25-1.75-.85-11.17-.85-11.17l1.03-.02s.19,9.2.32,9.9c.55,2.82,6.1,6.74,6.1,6.74,0,0,2.76,1.4,4.65,1.16,1.04-.13,2.06-.36,2.94-.58,1.86-.47,3.42-1.32,4.69-2.44,1.26-1.12,2.94-4.05,2.94-4.05l1.43-7.49-.12-2.24s1.22-.53,1.82-.29Z"/><path class="cls-25" d="M106.85,210.57c.1.14-.27.84-.27.84l-.72.73s-.94.77-1.54.91c.06-.81,2.01-1.99,2.54-2.47Z"/><path class="cls-25" d="M113.54,212.93s.86.45.97.44-.63-1.04-.63-1.04l-.92-.88s-.49-.44-.8-.42c-.1.73,1.39,1.89,1.39,1.89Z"/><path class="cls-4" d="M137.65,236.43c-.76-1.63-1.6-3.5-3.31-4.41-1.6-.85-5.21-2.11-5.21-2.11,0,0-7.31-1.6-10.01-2.2-.38,2.3-3.84,6.24-3.84,6.24,0,0-4.65,4.58-5.25,4.27-1.18-.62-4.03-2.87-4.03-2.87,0,0-1.9-1.9-3.24-5.06l-.8-2.58-2.37.45-10.61,4.55s-4.14,1.23-5.85,6.47c-.49,1.5-3.19,10.41-3.19,10.41,0,0,1.11.6,2.28.9,7.87,2.62,13.09,3.85,13.09,3.85,0,0,14.38.43,20.66.63,4.75.15,9.45-.4,9.45-.4,0,0,5.27-1.21,9.24-2.24,2.31-.6,5.32-1.28,7.59-2.28-.98-3.29-1.92-6.29-1.92-6.29,0,0-1.58-4.96-2.69-7.34Z"/><path class="cls-13" d="M109.52,242.03c.18.13.6.25.6.25l4.9-4.35s4.67-4.23,7.81-9.39c-1.05-.42-2.71-.89-3.6-1.09-.53,1.78-4.21,6.33-4.21,6.33,0,0-4.94,4.09-5.13,4.09-.23,0-3.77-2.71-3.77-2.71,0,0-1.77-1.63-3.1-4.79l-1.01-2.85-2.41.65-.5.21c1.02,2.97,4.32,8.36,4.32,8.36,0,0,3.92,3.68,6.1,5.29Z"/><path class="cls-60" d="M262.24,133.92c-4.71-.34-6.28.72-9.36,3.77-.92.92-2.12,2.84-2.12,2.84,0,0-1.77,4.73-2.04,6.38-.44,2.66,3.93,20.61,3.47,22.18,2.14,1.01,7.98-4.6,9.6-4.99,2.22-.55,1.11-.28,3.38-.03,3.18.35,5.5,5.72,6.95,5.12,3.24-1.34,6.97-.79,6.97-.79,0,0-.02-17.57-.69-22.19-.31-2.11-1.39-5.13-1.39-5.13,0,0-1.71-3.87-3.42-5.04-2.28-1.56-7.56-2.44-7.56-2.44l-3.79.3Z"/><path class="cls-43" d="M248.81,175.8c4.79,1.45,5.24,1.61,10.07,1.81,5.26.22,6.93.53,12.19.39.31,0,2.09-.02,2.4-.04,1.14-.17,2.69-.38,3.45-.8,1.43-.8,3.11-1.84,4.5-2.52-.01-.67-3.11-7.38-3.79-8.05l-5.68-3.49s-13.28-.47-15.02-.19c-1.22.19-4.69,3.42-5.21,4.02-2.21,2.57-2.62,2.94-3.91,6.07-.29.7-.46,1.55-.55,2.34.36.12.81.25,1.54.47Z"/><path class="cls-51" d="M259.78,164.17l4.27,3.26s4.11-3.03,4.11-3.2c0-.03.16-.66.22-.91.14-.65.06-1.49.2-2.14-1.06.54-2.1.69-3.29.59-1.52-.13-3.29-.77-4.79-.69-.72.04-.87-.73-1-.06l.29,3.16Z"/><path class="cls-18" d="M262.39,142.19c-2.25,1.33-4.83,3.93-5.84,5.97-1.17,2.36-1.81,4.55-1.81,4.55,0,0,.08,2.59.39,3.45.59,1.64,1.52,3.11,2.71,4.27.85.83,3.3,1.7,3.3,1.7,0,0,2.77.72,4.17.72,2,0,3.43-.44,5.08-1.46,1.11-.68,1.36-1.03,2.26-2.5s1.76-6.15,1.16-9.12c-.38-1.87,1.46-.72-.1-2.19-1.57-1.47-4.21-6.2-5.86-6.87-1.66-.67-5.47,1.48-5.47,1.48Z"/><path class="cls-57" d="M265.42,154.56c.62.74.68,1.06,1.16,1.68l-1.26.66c-.03.05-.24-.33-.36-.8l.46-1.54Z"/><path class="cls-60" d="M255.91,136.34c-.84,2.04-.79,8.4-.78,8.03,0,0,2.42,2.88,4.88,3.95.92.4,2.58.94,3.49,1.35.7.31,2.38.39,2.38.39,0,0,.32-1.36.34-2.01,1.66,1.13,3.29,2.28,5.23,2.79,1.29.34,3.26.3,3.26.3,0,0,.5-3.49.29-5.08-.24-1.85-1.05-3.53-2.18-5.01-2.29-2.99-5.58-4.47-9.05-5.71l-7.87.98Z"/><path class="cls-56" d="M265.59,158.34c.42-.02,1.17,0,1.17,0,0,0,.57.23.57.28,0,.09-.56.84-.73.94-.74.41-1.69.56-2.41.11-.36-.23-.71-1.18-.71-1.18,0,0,1.53-.14,2.11-.16Z"/><path class="cls-21" d="M258.31,152.33c-.07.17,0,.56,0,.74.01.22.26.6.26.6,0,0,.62.67,1.21.66.47,0,.95-.09,1.32-.39.2-.16.22-.33.3-.58.06-.17.13-.59.13-.59,0,0-.1-.72-.55-1.03-.32-.22-.88-.34-.88-.34,0,0-1.29-.19-1.78.92Z"/><path class="cls-16" d="M258.94,152.1c-.37.68.03,1.49.03,1.49,0,0,.27.33.54.47.51.27,1.19.12,1.19.12,0,0,.46-.2.61-.44.52-.86.31-1.48-.08-1.9-.61-.65-1.84-.57-2.29.27Z"/><path class="cls-21" d="M271.75,152.41c.07.17-.01.56-.02.74-.02.22-.28.6-.28.6,0,0-.64.65-1.23.62-.47-.02-.95-.12-1.31-.43-.19-.17-.21-.34-.28-.59-.05-.17-.11-.6-.11-.6,0,0,.06-.72.52-1.01.32-.21.96-.31.96-.31,0,0,1.3-.15,1.75.98Z"/><path class="cls-16" d="M271.25,152.22c.34.69-.08,1.49-.08,1.49,0,0-.36.37-.63.5-.52.25-1.12.03-1.12.03,0,0-.54-.26-.66-.52-.39-.9-.2-1.44.21-1.85.63-.63,1.85-.51,2.28.35Z"/><path class="cls-31" d="M141.57,255.38c2.48.06,4.95.11,7.43.17,4.73.11,14.12-.83,14.12-.83,0,0,4.61-1.91,9.69-3.62-.17-.99-.28-1.59-.28-1.59,0,0-.89-8.72-3-11.35-1.94-2.41-5.23-3.96-5.23-3.96l-5.94-2.6-3.63-2.15-6.92,1.32s-7.36-.42-10.76-1.32c0,0-3.03,2.65-6.32,4.51-2.92,1.65-6.1,3.02-7.97,5.83-1.24,1.86-2.03,6.2-2.03,6.2,0,0-.59,1.52-1.04,4.47,5.97,2.16,14.55,4.5,14.55,4.5,0,0,4.88.38,7.33.43Z"/><path class="cls-2" d="M142.72,189.95c-2.03.34-4,.78-5.82,1.66-2.04.98-3.78,2.38-5.19,3.98-1.11,1.26-2.08,2.64-2.71,4.13-.52,1.25-1.19,3.83-1.19,3.83,0,0-1.55,1.61-2.42,2.42-1.3,1.21-1.84,2.89-1.41,4.52.2.76,1.16,2.08,1.16,2.08l1.09,1.02s-.06.4-.33.61c-.53.4-1.07.76-1.5,1.26-1.54,1.78-.3,5.05.06,5.59.96,1.4,2.69,2.39,4.5,2.69-.67,1.06.26,2.16,1.19,2.88,1.1.85,3.28,1.25,4.73,1.11.98-.1,3.58.31,4.33-.26.5-.39.77.4,1.34.08,1.2-.67,1.89-2.89,3.25-3.09,1.7-.25,3.37-.37,5.08-.16.8.1,1.38,3.67,1.38,3.67l3.64-.22s2.57-.2,3.52-.6c1.31-.55,1.7-1.04,2.41-1.62.69-.57.83-2.13.83-2.13,0,0,3.55-.23,5.01-1.36,1.43-1.12,2.66-2.87,2.35-4.6-.17-.97-1.06-2.74-1.06-2.74,0,0,.9-2.63.92-4.04.02-1.51-.66-2.76-1.6-3.98-.72-.94-1.44-2.93-1.44-2.93,0,0-1.13-2.8-1.81-4.17-.64-1.31-1.01-2.71-1.68-4-2.03-3.93-12.37-5.7-12.37-5.7,0,0-1.11-.03-1.67-.04l-4.6.14Z"/><path class="cls-20" d="M138.59,221.91c.43,2.51.54,7.89.54,7.89l3.63.96,10.04-.35s1.12-5.92,1.12-7.78l-15.33-.72Z"/><path class="cls-5" d="M140.52,198.08c-2.83,2.65-5.29,5.46-6.21,9.58-.69,3.11.08,6.52.59,9.67.47,2.93,4.48,7.53,4.48,7.53,0,0,2.08,1.79,3.72,2.53,1.94.88,5.23.63,7.05-.09,1.8-.71,3.17-2.44,3.17-2.44,0,0,1.67-1.05,2.18-1.88.87-1.43,1.45-2.4,1.45-2.4,0,0,2.27-6.81,2.34-10.92.07-4.15-1.23-5.89-2.26-8.75-1.43-3.97-4.21-3.66-7.55-4.6l-8.97,1.76Z"/><path class="cls-9" d="M146.23,214.56s-.62,1.2-.92,1.79c-.18.36-.46.61-.19.95.36.45.89.87,1.48.81.08-.26.08-.52.16-.77.07-.25-.05-1.4-.05-1.4l-.15-.62-.33-.76Z"/><path class="cls-39" d="M141.1,206.47c1.29-.39,3.02-.31,4.33-.5.94-.13,2.8-.21,2.8-.21,0,0,1.62.04,2.29.14.59.09,1.91.54,1.91.54l-.24.29s-2.13-.11-4.38-.02c-.84.03-2.04.12-2.89.12-.71,0-4.06.04-4.06.04l-.29-.15.53-.27Z"/><path class="cls-5" d="M158.01,211.64c.46-2.8,3.52-2.42,4.13.07.27,1.11-.37,3.27-.37,3.27,0,0-1.66,2.4-2.89,3.05-1.84.98-1.99-.55-1.81-2.06l.95-4.33Z"/><path class="cls-5" d="M135.22,211.79c-.72-.69-2.39-2.31-3.4-1.17-.73.82-.1,3.89-.1,3.89,0,0,2.69,5.9,4.98,4.19l-1.49-6.9Z"/><path class="cls-2" d="M151.1,198.48c.35,1.14-1.59,2.6-1.59,2.6,0,0-1.72,1.63-2.85,2.03-1.57.55-3.73.62-5.27-.04.21,1.66-1.31,3.25-1.96,4.28-.9,1.43-4.3,3.15-4.3,3.15,0,0-2.14.57-3.03.03-1.66-1-1.42-3.63-1.19-5.26.42-3.09,1.46-6.4,3.59-8.74,2.54-2.78,6.51-4.09,10.17-4.44,2.18-.21,3.61.7,5.52,1.5-.03.09.01.16-.04.26,3.02-.88,6.21,2.11,7.9,4.28,1.24,1.59,1.83,3.59,2.63,5.42.71,1.62.72,3.02.31,4.71-.26,1.04,1.5,1.87.28,2.26-.86.28-2.01-.18-2.79-.31-3.69-.61-3.42-5.13-3.42-5.13,0,0-3.12-1.32-3.55-2.13-.36-.68-.42-4.48-.42-4.48Z"/><path class="cls-39" d="M148.7,217.43c-.03.67.2,1.58.37,1.97.17.41.4.92.74,1.05.82.31.68,1.28.68,1.28l.12,1.28.23-.31s.17-.85.17-1.06c0-.8-.06-.59-.08-1.03-.02-.47-.49-.33-.8-.64-.29-.29-.45-.58-.6-.96-.09-.21-.29-.91-.29-.91l-.54-.68Z"/><path class="cls-39" d="M144.23,217.27c0,.69.03,1.26-.3,1.87-.2.38-.52.54-.75.86-.27.38-.24,1.09-.24,1.55,0,.46-.22,1.22-.22,1.22,0,0-.02.22-.29.24-.04-.17-.08-.63-.08-.81,0-.21,0-.42-.04-.63-.06-.41-.13-.82-.09-1.23.02-.19.1-.57.1-.57,0,0,.31-.19.43-.3.24-.22.43-.52.56-.82.08-.17.21-.38.23-.56.02-.18.27-.56.27-.56l.4-.25Z"/><path class="cls-27" d="M146.58,228.69c2.83.11,6.87-1.05,6.94-1.03.11.03,1.33,1.45,1.33,1.45,0,0,.93.74,1.79,1.46-1.22,1.09-5.55,1.86-5.55,1.86-2.71.23-1.8.49-8.17,0,0,0-1.91-.42-3.33-.78-1.27-.32-2.47-.74-3.67-1.27.62-.88,1.68-2.41,1.68-2.41l.54-1.24.85.4s5.43,1.49,7.6,1.57Z"/><path class="cls-21" d="M138.52,213.86c.32.29,1.49.4,1.49.4,0,0,.84-.05,1.26-.29.49-.28.68-1.29.68-1.29,0,0,.02-.6-.06-.91-.14-.61-.91-1.1-1.1-1.14-.79-.15-1.85-.2-2.42.55-.56.75-.51,2.07.15,2.68Z"/><path class="cls-16" d="M139.12,210.96c-.3.34-.49.78-.54,1.23-.04.36.14,1.02.14,1.02,0,0,.2.45.35.62.19.22.77.41.77.41,0,0,1.52.33,2.04-.81.12-.26.24-.68.24-.91,0-.48-.12-.93-.12-.93,0,0-.31-.65-.93-.9-.5-.2-1.4-.14-1.4-.14,0,0-.41.23-.57.42Z"/><path class="cls-21" d="M155.14,213.6c-.32.29-1.49.4-1.49.4,0,0-.84-.05-1.26-.29-.49-.28-.68-1.29-.68-1.29,0,0-.02-.6.06-.91.14-.61.91-1.1,1.1-1.14.79-.15,1.85-.2,2.42.55s.51,2.07-.15,2.68Z"/><path class="cls-16" d="M154.53,210.69c.3.34.49.78.54,1.23.04.36-.14,1.02-.14,1.02,0,0-.2.45-.35.62-.19.22-.77.41-.77.41,0,0-1.52.33-2.04-.81-.12-.26-.24-.68-.24-.91,0-.48.12-.93.12-.93,0,0,.31-.65.93-.9.5-.2,1.4-.14,1.4-.14,0,0,.41.23.57.42Z"/><polygon class="cls-24" points="148.95 210.66 147.77 210.65 146.19 210.44 145.24 210.46 143.73 210.59 143.68 211.68 145 211.78 146.62 211.66 147.67 211.76 149.02 211.94 148.95 210.66"/><path class="cls-24" d="M148.7,208.9l-.14,1.93.07,1.81.13,1.67v1.42s1.55.27,1.55.27h2.13s2.16.02,2.16.02l1.92-.08,1.99-.31.09-1.97.1-1.89-.03-1.9-.12-.96-1.63-.1-2.13-.08-2,.02-1.95-.03-2.14.18ZM157.53,214.73l-1.3.1-1.94.11-1.56.02-1.45.02-1.54-.22-.03-1.43-.11-1.25.15-2.18,1.83-.11,2.09-.09,2.33.17,1.54.11.05.91.02,1.73v1.21s-.08.9-.08.9Z"/><path class="cls-24" d="M134.45,208.97l-.14,1.93.07,1.81.13,1.67v1.42s1.55.27,1.55.27h2.13s2.16.03,2.16.03l1.92-.08,1.99-.31.09-1.97.1-1.89-.03-1.9-.12-.96-1.63-.1-2.13-.08-2,.02-1.95-.03-2.14.18ZM143.28,214.8l-1.3.1-1.94.11-1.56.02-1.45.02-1.54-.22-.03-1.43-.11-1.25.15-2.18,1.83-.11,2.09-.09,2.33.17,1.54.11.05.91.02,1.73v1.22s-.08.9-.08.9Z"/><path class="cls-50" d="M146.46,221.04s1.79-.13,2.77-.29c.09-.02.38-.06.46,0l-.07.51s-.43.4-1.72.86c-.68.24-2.32.06-2.32.06,0,0-1.64-.49-2.11-1.17-.13-.19-.1-.56-.1-.56,0,0,.81.21,1.04.28.66.22,2.05.31,2.05.31Z"/><path class="cls-58" d="M97.57,275.72c.24,1-.5,3.4-.5,3.4,0,0,.89,7.67.95,8.65.11,1.7-1.47,2.93-2.5,4.8-1.48,2.67-4.04,6.02-7.14,5.47-3.18-.56-7.05-5.88-7.09-8.68-.04-3.12-.17-8.82-.17-8.82,0,0,3.62,1.72,3.58,1.57l12.87-6.4Z"/><path class="cls-52" d="M118.48,296.09c-.76-1.69-3.22-3.9-4.93-4.83-1.6-.87-5.02-2.49-5.02-2.49,0,0-7.71-2.79-10.41-3.42-.19,1.17-7.17,2.83-7.17,2.83,0,0-5.08.49-7.74-.64l-2.69-2.1-1.91.38-10.6,4.7s-4.14,1.27-5.85,6.69c-.49,1.55-3.19,9.27-3.19,9.27,0,0,1.11.62,2.28.93,7.87,2.71,13.08,3.98,13.08,3.98,0,0,14.37.44,20.65.65,4.74.16,9.45-.41,9.45-.41,0,0,5.25.12,9.22-.95,2.31-.62,7.69-2,9.95-3.03-.98-3.4-3.03-7.49-3.03-7.49,0,0-.98-1.62-2.08-4.07Z"/><path class="cls-5" d="M86.01,250.48c-5.77,4.51-10.14,8.75-9.57,15.84.29,3.56.65,7.65,2.01,11.56.64,1.83,4.39,4.32,4.39,4.32,0,0,3.63,3.13,6.35,2.71,2.94-.46,4.93-1.33,7.06-3.57,4.17-4.37,5.7-10.17,5.74-15.53.03-3.13-.12-6.44-1.94-9.24-1.93-2.96-5.38-4.75-8.65-6.44l-5.39.34Z"/><path class="cls-5" d="M78.83,266.5c-.66-1.35-2.01-2.3-4.04-1.14-1.08.62-.83,2.87-.83,2.87,0,0,.12,2.78,1.1,4.05.5.65,3.43,1.61,3.43,1.61l.34-7.4Z"/><path class="cls-5" d="M100.19,267.02c-.02-1.45,2.22-1.55,3.28-.92,1.34.8.79,3.23.79,3.23,0,0-.25,1.99-1.23,3.02-.37.39-2.13,1.19-2.13,1.19l-1.07.03s-.29-.11-.17-.34l.54-6.21Z"/><path class="cls-54" d="M82.11,247.69c-1.96.83-4.76,4.26-4.76,4.26,0,0-2,3.9-2.37,5.66-.73,3.52,1.86,10.79,1.86,10.79,0,0,.31-5.91,1.68-8.34,1.61-2.84,2.91-4.19,2.91-4.19l7.8.88s4.57-.94,5.78-1.34c2.09-.7,3.31.35,5.12,5.62.94,2.73.66,7.56.66,7.56,0,0,2.38-4.11,2.46-5.92.08-1.85-.06-6.69-.06-6.69,0,0-1.05-7.85-6.74-8.78l-8.99-.57-5.34,1.05Z"/><path class="cls-9" d="M88.5,269.06c-.29,1.33-1.35,3.44-1.35,3.44l-.44,1.15s1.29,1.34,1.81,1.25c.33-.06.92-.86.92-.86.16-.58.33-1.6.24-2.06l-1.19-2.93Z"/><path class="cls-21" d="M81.04,268.93c.31.28,1.42.39,1.42.39,0,0,.8-.05,1.21-.28.47-.27.65-1.24.65-1.24,0,0,.01-.57-.05-.87-.13-.59-.88-1.06-1.06-1.09-.76-.14-1.78-.19-2.32.53s-.49,1.99.15,2.57Z"/><path class="cls-16" d="M81.62,266.14c-.29.33-.47.75-.51,1.18-.03.34.13.98.13.98,0,0,.19.43.33.59.18.21.74.39.74.39,0,0,1.46.31,1.96-.78.12-.25.23-.65.23-.88,0-.46-.11-.89-.11-.89,0,0-.3-.63-.89-.86-.48-.2-1.34-.13-1.34-.13,0,0-.39.23-.55.4Z"/><path class="cls-21" d="M97.08,268.94c-.31.28-1.42.39-1.42.39,0,0-.8-.05-1.21-.28-.47-.27-.65-1.24-.65-1.24,0,0-.01-.57.05-.87.13-.59.88-1.06,1.06-1.09.76-.14,1.78-.19,2.32.53s.49,1.99-.15,2.57Z"/><path class="cls-16" d="M96.5,266.15c.29.33.47.75.51,1.18.03.34-.13.98-.13.98,0,0-.19.43-.33.59-.18.21-.74.39-.74.39,0,0-1.46.31-1.96-.78-.12-.25-.23-.65-.23-.88,0-.46.11-.89.11-.89,0,0,.3-.63.89-.86.48-.2,1.34-.13,1.34-.13,0,0,.39.23.55.4Z"/><path class="cls-50" d="M85.54,277.09s2.11-.12,2.98-.16c1.12-.05,4.07.21,4.07.21,0,0-.32,1.02-.58,1.39-.43.62-1.11.96-2.16,1.1-.78.1-1.69-.04-2.48-.41-.61-.28-.96-.58-1.3-1.12l-.52-1Z"/><path class="cls-8" d="M87.01,266.35c-.71-2.16-3.08-3.1-3.08-3.1-1.59-.4-3.7-.2-5.31.48-1.27.54-1.68,3.36-1.68,3.36,0,0-.15,1.07-.04,1.6.13.66.54,1.22,1,1.68,2.14,2.12,5.73,2.23,7.98.25.42-.37.8-.81.99-1.35.29-.83.42-2.07.15-2.9ZM85.87,268.91c-.15.43-.46.78-.79,1.08-1.79,1.58-4.65,1.49-6.35-.2-.37-.36-.69-.81-.8-1.33-.08-.42.03-1.27.03-1.27,0,0,.32-2.24,1.34-2.67,1.28-.54,2.96-.7,4.23-.38,0,0,1.89.75,2.45,2.47.22.66.11,1.65-.12,2.31Z"/><path class="cls-8" d="M90.84,269.25c.19.54.57.98.99,1.35,2.25,1.98,5.84,1.87,7.98-.25.46-.46.87-1.01,1-1.68.11-.52-.04-1.6-.04-1.6,0,0-.41-2.82-1.68-3.36-1.61-.68-3.72-.88-5.31-.48,0,0-2.38.94-3.08,3.1-.27.83-.14,2.08.15,2.9ZM91.71,266.59c.56-1.72,2.45-2.47,2.45-2.47,1.27-.32,2.95-.16,4.23.38,1.01.43,1.34,2.67,1.34,2.67,0,0,.12.85.03,1.27-.11.53-.43.97-.8,1.33-1.7,1.68-4.56,1.77-6.35.2-.33-.29-.63-.64-.79-1.08-.23-.66-.34-1.65-.12-2.31Z"/><path class="cls-8" d="M91.22,267c.04.27.08.54.12.81-.84-.03-1.57-.09-2.4-.01-.66.06-1.43.25-2.09.28-.23-.44,0-.96,0-.96l1.75-.39s2.62.21,2.62.27Z"/><path class="cls-33" d="M98.02,285.57l-3.49,6.2s-1.68,2.31-2.94,3.43c-.58.52-2.55,1.83-2.55,1.83,0,0-2.24-1.37-3.01-2.09-2.32-2.18-4.14-4.82-5.14-7.85-.15-.45-.14-1.48-.14-1.48l2.52.77s3.58.86,6.45.69,8.31-1.51,8.31-1.51Z"/><path class="cls-55" d="M257.07,170.63s-1.27-4.26-2.17-6.29c-.61-1.4-1.29-1.76-2.67-2.53-1.29-.73-4.31-2.07-4.31-2.07,0,0-5.2-2.36-7.37-2.88-.51-1.22-1.1-6.29-1.51-6.3l-12.96.43c.05-.25-.02-.4-.19-.44-.12,2.11.53,4.28-.26,6.31l-1.42.39-8.34,4.56s-3.32,1.12-4.7,5.61c-.4,1.29-2.8,7.01-2.8,7.01,0,0,.89.51,1.84.78,6.35,2.25,10.56,3.3,10.56,3.3,0,0,11.59.37,16.66.54,3.83.13,7.62-.34,7.62-.34,0,0,4.25-1.03,7.45-1.92,1.86-.52,4.29-1.1,6.12-1.96-.79-2.82-1.55-4.2-1.55-4.2Z"/><path class="cls-10" d="M230.54,169.42l2.45,3.66,7.06-10.61,2.62-5.52,8.48,3.59s2.64,1.39,3.29,2.1c.63.69,1.4,1.72,1.4,1.72,0,0,4.59,10.5,4.39,10.82-.13.21-8.52,2.63-12.39,3.28-8.72,1.45-16.96,1.55-16.96,1.55l-18.43-2.7-4.81-1.23,2.02-7.78s1.96-4.18,4.11-5.82c2.32-1.77,9.47-5.18,9.47-5.18,0,0,3.46,5.63,4.38,7.08,1.05,1.64,2.92,5.05,2.92,5.05Z"/><path class="cls-21" d="M232.59,176.21s.91.76,1.73-.07c.71-.72.09-1.66.09-1.66,0,0-.52-.36-.75-.4-.64-.12-1.1.35-1.1.35,0,0-.29.37-.36.8-.06.33.39.98.39.98Z"/><path class="cls-54" d="M232.41,125.63c-2.37,0-4.47.34-6.32,1.72-1.33.99-2.63,2.19-3.65,3.51-.95,1.22-1.75,2.67-2.23,4.13-.4,1.21-.32,4.31-.32,4.31,0,0,.54,2.06,1.06,4.25.43,1.82,3.94,5.45,4.79,7.08.63,1.2,15.46-2.12,16.22-3.66.85-1.72,2.12-2.93,2.12-2.93,0,0,2.09-3.84,2.02-4.87-.09-1.29-.25-3.69-.7-5.28-.57-2.04-.85-2.74-2.09-4.46-1.17-1.63-3.34-2.7-5.64-3.26l-5.24-.53Z"/><path class="cls-5" d="M230.53,129.4c-4.64,3.63-8.16,7.04-7.7,12.74.23,2.86.52,6.15,1.62,9.3.51,1.47,3.53,3.47,3.53,3.47,0,0,2.92,2.52,5.11,2.18,2.36-.37,3.96-1.07,5.68-2.87,3.35-3.51,4.59-8.18,4.62-12.49.02-2.52-.1-5.18-1.56-7.43-1.55-2.38-4.33-3.82-6.96-5.18l-4.34.28Z"/><path class="cls-5" d="M224.76,142.52c-.53-1.08-1.61-1.85-3.25-.92-.87.5-.67,2.31-.67,2.31,0,0,.1,2.24.89,3.26.4.52,2.76,1.29,2.76,1.29l.27-5.95Z"/><path class="cls-5" d="M241.94,142.71c-.02-1.16,1.79-1.25,2.64-.74,1.08.64.63,2.6.63,2.6,0,0-.2,1.6-.99,2.43-.3.31-1.71.96-1.71.96l-.86.02s-.24-.09-.13-.28l.43-4.99Z"/><path class="cls-23" d="M232.54,144.35c-.24,1.07-1.09,2.77-1.09,2.77l-.35.93s1.04,1.08,1.46,1.01c.27-.04.53-.75.53-.75.13-.47.31-1.23.24-1.6l-.79-2.35Z"/><path class="cls-21" d="M226.54,144.25c.25.22,1.15.31,1.15.31,0,0,.65-.04.97-.23.38-.22.52-1,.52-1,0,0,.01-.46-.04-.7-.11-.47-.7-.85-.85-.88-.61-.11-1.43-.16-1.87.43s-.4,1.6.12,2.07Z"/><path class="cls-16" d="M227,142c-.23.26-.38.61-.41.95-.03.27.11.79.11.79,0,0,.15.35.27.48.15.17.59.32.59.32,0,0,1.17.25,1.58-.63.09-.2.19-.52.19-.71,0-.37-.09-.72-.09-.72,0,0-.24-.5-.72-.69-.39-.16-1.08-.11-1.08-.11,0,0-.32.18-.44.32Z"/><path class="cls-21" d="M239.43,144.25c-.25.22-1.15.31-1.15.31,0,0-.65-.04-.97-.23-.38-.22-.52-1-.52-1,0,0-.01-.46.04-.7.11-.47.7-.85.85-.88.61-.11,1.43-.16,1.87.43s.4,1.6-.12,2.07Z"/><path class="cls-16" d="M238.97,142.01c.23.26.38.61.41.95.03.27-.11.79-.11.79,0,0-.15.35-.27.48-.15.17-.59.32-.59.32,0,0-1.17.25-1.58-.63-.09-.2-.19-.52-.19-.71,0-.37.09-.72.09-.72,0,0,.24-.5.72-.69.39-.16,1.08-.11,1.08-.11,0,0,.32.18.44.32Z"/><path class="cls-50" d="M233.45,151.11c.83-.03,1.71-.19,2.53-.23.13.17-.22.73-.22.73l-.39.37s-.91.5-3.31.31c-.34-.03-1.39-.45-1.39-.45,0,0-.9-.74-.69-.92.13-.11,1.19.09,1.19.09,0,0,1.45.14,2.28.11Z"/><path class="cls-54" d="M240.1,132.18c-.33,1.65-1.03,3.4-2.07,4.83-.51.71-1.79,1.84-1.79,1.84,0,0-2.83,1.5-4.34,1.68-.99.12-2.03.42-3.28.14,1.09-.39,2.34-2.64,2.59-3.17-1.1.68-2.19,1.79-3.3,2.55-.83.57-4.08,1.85-4.75,1.84-.49-.01,1.33-2.1.96-2.51-.67-.74.4-2.74.7-3.42.83-1.9,1.91-3.85,3.42-5.3,2.4-2.31,6.05-1.82,9.1-1.56,1.96.17,4.19.54,4.61,2.76l-1.85.32Z"/><path class="cls-54" d="M232.82,133.14s-3.53-1.22-4.39,2.67c-.32,1.44-1.26,3.85-1.26,3.85,0,0-.88,1.58-1.84,2.53-1.06,1.05-4.68,1.15-4.68,1.15,0,0,.16-1.79.3-2.37.28-1.15.75-2.29,1.24-3.37,1.03-2.29,2.42-4.54,4.38-6.14,1.92-1.57,5.67-2.04,8.08-1.91l-1.84,3.59Z"/><path class="cls-54" d="M232.72,132.24c.85-.2,2.51-.64,3.4-.43,2.01.48,2.26,1.8,2.26,1.8,0,0,.52,2.08,1.39,4.29.51,1.3,2.09,3.65,2.09,3.65l1.2,1.45c.89-.16,1.56-.22,1.97-.93.22-.38-.45-3.44-.65-4.22-.41-1.66-.83-3.34-1.37-4.96-.59-1.77-1.45-3.55-3.16-4.47-1.74-.93-3.85-.92-5.77-.98l-1.35,4.8Z"/><polygon class="cls-22" points="235.2 141.69 234.23 141.67 232.93 141.5 232.16 141.52 230.92 141.63 230.87 142.53 231.96 142.6 233.29 142.51 234.15 142.59 235.26 142.74 235.2 141.69"/><path class="cls-22" d="M234.99,140.25l-.12,1.58.06,1.49.1,1.37v1.17s1.27.22,1.27.22h1.75s1.78.02,1.78.02l1.57-.06,1.63-.26.07-1.62.08-1.55-.02-1.56-.1-.79-1.34-.08-1.75-.07-1.64.02-1.6-.02-1.76.15ZM242.24,145.03l-1.07.09-1.59.09-1.28.02h-1.19s-1.26-.16-1.26-.16l-.02-1.18-.09-1.03.13-1.79,1.5-.09,1.71-.08,1.91.14,1.26.09.04.75.02,1.42v1s-.07.74-.07.74Z"/><path class="cls-22" d="M223.3,140.3l-.12,1.58.06,1.49.1,1.37v1.17s1.27.22,1.27.22h1.75s1.78.02,1.78.02l1.57-.06,1.63-.26.07-1.62.08-1.55-.02-1.56-.1-.79-1.34-.08-1.75-.06-1.64.02-1.6-.02-1.76.15ZM230.55,145.08l-1.07.09-1.59.09-1.28.02h-1.19s-1.26-.16-1.26-.16l-.02-1.18-.09-1.03.13-1.79,1.5-.09,1.71-.08,1.92.14,1.26.09.04.75.02,1.42v1s-.07.74-.07.74Z"/><path class="cls-18" d="M162.12,227.31c-.33-.3-.75-.47-1.18-.58-.92-.23-2.04-.13-2.58.65-.36.52,0,2.16,0,2.16,0,0,.28,2.25,1.58,3.41.38.34,2.84,1.29,3.3,1.07.39-.19-.4-.73-.35-1.16.14-1.07.18-2.15.14-3.23-.03-.65-.41-1.87-.9-2.32Z"/><path class="cls-53" d="M160.71,242.38c-2.37,1.75-3.3,4.71-4.9,7.01-1.26,1.82-2.57,6.85-2.57,6.85,0,0,8.01,2.73,10.77,2.98,5.94.53,10.43.94,16.32-.03,3.79-.62,8.53-2.98,8.53-2.98,0,0-.3-2.34-.54-4.09-.45-3.31-1.34-3.66-3.14-6.63-1.83-3.01-6.55-4.76-6.55-4.76,0,0-13.72-1.45-17.92,1.66Z"/><path class="cls-66" d="M169.41,244.25c2.01.54,6.32-.04,6.32-.04,0,0,3.5-.99,5.02-2.76-1.22-.47-2.12-.73-2.12-.73,0,0-7.96-.84-13.61.13.69,2.02,2.29,2.82,4.38,3.39Z"/><path class="cls-51" d="M172.7,242.53s3.32-.53,4.92-1.03c.11-1.16.22-2.32.33-3.48-2.6.37-5.21.68-7.83.96-.64.07-1.38.03-2,.2-.49.13-.44.61-.44.61l.23,2.05s.68.25.91.32c1.25.37,3.86.37,3.86.37Z"/><path class="cls-18" d="M162.57,237.05c1.67,1.87,3.84,2.96,6.32,3.28,8.16,1.16,11.19-2.36,11.19-2.36,0,0,5.87-6.37,6.14-7.87.11-.63-.06-1.71-.6-2.05-.83-.52-1.58-.45-2.62.47.29-2.4-.94-4.81-2.8-6.36-3.93-3.29-12.78-5.74-16.69-1.63-2.88,3.03-3.65,13.48-.93,16.53Z"/><path class="cls-21" d="M164.22,228.52c1.03-.64,2.01-.02,2.01-.02.82.58,1.08,1.71.53,2.54-.47.71-1.49.67-1.49.67,0,0-.92-.03-1.33-.45-.36-.37-.53-1.29-.53-1.29,0,0-.08-.91.8-1.45Z"/><path class="cls-36" d="M165.49,228.27c1.32.15,1.48.83,1.48.83.23.57.26.89.19,1.29-.05.27-.16.62-.69.96s-1.16.34-1.16.34c0,0-.5-.1-.74-.33-.34-.33-.55-.58-.62-1.26-.08-.86.51-1.47.4-1.32,0,0,.71-.57,1.13-.52Z"/><path class="cls-21" d="M177.29,228.7c-1.07-.62-2.08-.01-2.08-.01-.85.57-1.12,1.68-.56,2.49.48.7,1.54.65,1.54.65,0,0,.95-.03,1.38-.45.38-.37.55-1.26.55-1.26,0,0,.09-.89-.82-1.42Z"/><path class="cls-36" d="M175.96,228.44c-1.28.18-1.47.84-1.47.84-.2.55-.22.87-.16,1.26.04.27.14.61.6.95s1.01.35,1.01.35c0,0,.65-.16.8-.28.33-.27.76-.39.85-1.33.08-.81-.53-1.3-.53-1.3,0,0-.74-.53-1.11-.48Z"/><path class="cls-18" d="M182.39,229.11c.35-.28.83-1.03,1.26-1.11.93-.17,2,.62,2.49,1.43.33.54-.14,2.15-.14,2.15,0,0-1.09,2.14-2.47,3.22-.4.31-2.25,1.19-2.7.94-.38-.21.45-.7.42-1.13-.07-1.08-.04-2.16.08-3.24.07-.65.53-1.84,1.05-2.26Z"/><polygon class="cls-68" points="168.69 233.53 169.26 234.1 170.17 234.61 170.31 233.77 170.24 232.18 168.69 233.53"/><path class="cls-63" d="M169.9,235.76l2.96.12-.57,1.05s-.18.52-1.51.68c-.44.05-.99-.07-1.29-.39-.43-.46-.76-1.46-.76-1.46h1.17Z"/><path class="cls-65" d="M159.77,227.32s-1.75-4.21-.13-8.59c.58-1.55,3.69-6.01,6.16-7.46,3.4-2,11.71-1.58,14.95.34,3.23,1.93,5.58,6.85,5.58,8.78s-1,7.52-1,7.52c0,0-2.58-.2-2.82,3.08,0,0-3.04-3.11-3.33-6.64l-.29,2.89s-6.46-.96-8.42-4.82c0,0-2.35,2.03-4.5,2.78l.59-1.61s-3.94,3.49-6.78,3.71Z"/><path class="cls-1" d="M305.99,322.03c-2.48.87-5.79,2.26-6.97,4.6-.57,1.13-3.85,5.73-3.85,5.73,0,0-2.75,2.9-4.03,6.21-1.08,2.8,2.57,8.8,2.57,8.8,0,0,.85,1.45.91,2.27.11,1.39-1.64,3.77-1.64,3.77,0,0-2.26,4.37-1.78,6.7.53,2.61,2.77,4.6,5.24,5.59s5.18,1.15,7.84,1.33c4.35.29,8.71.67,13.06.34,4.35-.33,8.27-.14,11.92-2.52.88-.57,2.74-2,3.01-5.01.11-1.19-1.29-4.03-1.29-4.03,0,0-2.19-2.77-2.06-4.47.11-1.45,1.35-4.02,1.35-4.02,0,0,5.26-6.53-1.09-14.5-.73-.92-2.87-4.84-3.12-5.26-3.81-6.61-12.84-5.75-12.84-5.75,0,0-5.36-.45-7.24.21Z"/><path class="cls-64" d="M304.38,349.71c.38,2.22-.19,7.18-.19,7.18l3.56,1.37,10.17-.46s-.39-5.83-.39-7.47l-13.16-.62Z"/><path class="cls-71" d="M306.59,328.78c-1.6.86-3.35,4.48-3.35,4.48,0,0-1.53,3.72-2.55,5.43-1.45,2.42-.47,4.18-.02,6.96.42,2.59,3.53,5.94,3.53,5.94,0,0,2.58,1.82,4.06,2.39,2.28.87,4.35.62,5.96-.02,1.59-.63,2.98-1.54,2.98-1.54,0,0,1.47-1.42,1.92-2.16.89-1.47,1.06-1.74,1.06-1.74,0,0,2.01-6.02,2.07-9.65.06-3.67-1.09-5.2-2-7.74-1.27-3.51-6.68-4.07-6.68-4.07l-6.98,1.72Z"/><path class="cls-9" d="M310.68,343.19s-.55,1.06-.81,1.58c-.16.32-.31.74-.31.74,0,0,.52.51.75.65.21.12.45.19.7.17.07-.23.12-.45.14-.69.02-.34-.04-1.24-.04-1.24l-.42-1.22Z"/><path class="cls-71" d="M320.8,341.36c.41-2.48,3.11-2.14,3.66.06.24.98-.33,2.89-.33,2.89,0,0-1.47,2.12-2.56,2.7-1.63.86-1.76-.49-1.6-1.82l.84-3.83Z"/><path class="cls-71" d="M300.91,340.51c-.25-1.38-2.11-2.04-3-1.04-.65.73-.09,3.44-.09,3.44,0,0,2.38,5.22,4.41,3.7l-1.32-6.1Z"/><path class="cls-50" d="M308.07,348.29s1.99-.22,2.53-.22c1.55,0,2.31.11,2.31.11l.76.15-.21.6s-.24,1.11-1.52,1.52c-.56.18-1.23.31-2.39-.13-.72-.28-1.07-.98-1.07-.98l-.41-1.05Z"/><path class="cls-73" d="M308.07,341.52c-.67-.02-2.65-.32-2.65-.32,0,0-1.35.02-2.65.1-.08-.38,1.32-.94,1.32-.94,0,0,1.05-.2,1.49-.17,1.15.09,2.57,1.01,2.48,1.33Z"/><path class="cls-73" d="M314.12,340.83s1.25-.49,2.1-.56c1.02-.09,2.3.49,2.3.49,0,0,.98.59.92.84-1.16-.18-2.34-.29-3.52-.33-.53-.02-1.18.05-1.18.05,0,0-.79.11-.93.03-.17-.09.3-.52.3-.52Z"/><path class="cls-21" d="M299.09,345.86c-.27.77.31,1.16.31,1.16,0,0,.65.29.97.15.4-.17.63-.63.59-1.06-.01-.15-.05-.3-.14-.43-.46-.68-1.48-.52-1.73.18Z"/><path class="cls-35" d="M304.93,379.07l18.84-.68s3.11-.47,4.64-.85c2.88-.73,5.79-2.07,8.27-3.75-.34-3.41-2.06-7.03-2.9-8.8-1.17-2.47-4.44-3.76-7.04-5.21-2.29-1.28-4.14-2.09-4.14-2.09,0,0-3.83-1.15-4.43-.93-4.55,1.66-11.86.32-14.71-.49l-5.59,3.99s-8.34,4.09-9.06,6.99c-.56,2.25-1.86,5.79-1.87,7.84,1.72,1.22,4.49,2.18,6.58,2.58,3.77.72,11.41,1.42,11.41,1.42Z"/><path class="cls-21" d="M322.71,346.52c-.34-.74-1.03-.62-1.03-.62,0,0-.67.25-.8.57-.16.4,0,.89.32,1.17.12.1.25.18.4.21.8.17,1.43-.66,1.11-1.33Z"/><path class="cls-46" d="M299.28,358.86c.63,2.29,3.56,4.3,3.56,4.3,0,0,3.76,1.03,5.57.42.46-.16.91-.36,1.31-.66,1.68-1.24,1.9-3.31,2.02-5.4,0-.12-7.8-2-7.8-2,0,0-3.23,2.27-4.65,3.33Z"/><path class="cls-46" d="M311.73,357.51c.12,1.71.32,3.51,1.59,4.67.62.56,1.85,1.23,1.85,1.23,0,0,2,.57,3.04.37,1.34-.26,3.1-1.44,3.64-2.1,1.04-1.26,2.44-3.62,2.44-3.62,0,0-3.37-1.16-4.31-1.45-.43-.13-1.37-.46-1.37-.46,0,0-.8.11-1.23.23-.46.12-5.65,1.13-5.65,1.13Z"/><path class="cls-1" d="M302.98,329.83c-.44,1.77-.4,3.69.3,5.38.7,1.69,2.09,3.12,3.83,3.69.72.24,2.22-.06,2.22-.06l.53-1.94s3.28,2.16,5.22,2.21c.58.02,1.64-.42,1.64-.42l.14-1.51,3.22,2.39s1.74.54,2.64.55,1.84-.25,2.48-.88c.95-.93,1.06-2.47.61-3.72s-1.34-2.28-2.22-3.28c-1.34-1.53-2.69-3.07-4.35-4.25-2.57-1.84-5.82-2.64-8.96-2.36-2.71.24-6.56,1.24-7.3,4.22Z"/><path class="cls-64" d="M276.68,362.64c0,1.13-.03,2.15-.3,3.18,2.37.15,9.78-.11,9.78-.11,0,0-.39-2.12-.91-4.37l-8.57,1.3Z"/><path class="cls-1" d="M279.39,337.37c-4.23-.45-5.67.46-8.53,3.12-.86.8-1.99,2.5-1.99,2.5,0,0-1.69,3.54-2.07,5-.38,1.46-.33,5.24-.94,7.96-.15.67-1.14,2.86-1.14,2.86,0,0,2.26.5,2.94-.05.68-.54-.12,1.64-1.01,2.57,1.89.98,5.94.1,5.94.1,0,0,4.15-.06,5.62-.37,2.01-.43,1.3.37,3.34.66,2.85.41,5.72.22,8.66.73,1.37.24,2.66.38,4.01-.02,2.45-.73,2.89-1.72,2.89-1.72,0,0-1.79-1.15-1.9-2.68,1.26-.13,3.05-1.69,3.05-1.69l-1.53-1.63s-1.66-1.89-2.13-6.07c-.21-1.91-1.49-4.78-1.49-4.78,0,0-2.03-3.12-3.53-4.22-2.01-1.47-6.74-2.42-6.74-2.42l-3.42.16Z"/><path class="cls-71" d="M278.14,345.83c-3.91,1.89-7.58,3.58-6.95,8.52.11.84.05,2.35.35,3.14.57,1.51,1.46,2.9,2.62,4.01.83.79,3.23,1.71,3.23,1.71,0,0,2.46,1.12,3.84,1.2,1.96.1,3.75-.94,5.39-1.77,1.31-.66,2.22-.96,3.14-2.12,1.43-1.82,1.87-3.9,1.83-6.67-.08-5.87-5.54-7.96-10.17-9.47l-3.27,1.46Z"/><path class="cls-9" d="M280.94,356.48c-.42.77-.16.26-.92,1.84l1.06.45s.15-.26.23-.89l-.38-1.4Z"/><path class="cls-50" d="M279.64,360.34c.79.1,1.16.14,1.16.14,0,0,.92-.01,1.33-.07.35-.05,1.39-.18,1.54-.15-.12.59-1.44,1.1-1.44,1.1,0,0-1,.17-1.59.1-.42-.05-1.31-.53-1.31-.53,0,0-.41-.32-.38-.67l.69.07Z"/><path class="cls-71" d="M271.58,353.35s-1.25-.08-1.63.38c-.44.53-.36,1.41-.21,2.03.18.75,1.13,1.73,1.13,1.73,0,0,.86.45,1.39.46,0-.04-.03-.06-.06-.09l-.62-4.5Z"/><path class="cls-71" d="M291,352.68c.43-.46.99-.72,1.58-.36.46.27.61,1.22.61,1.22,0,0-.05,2-.65,2.78-.38.51-1.52,1.14-1.52,1.14l-.02-4.79Z"/><path class="cls-1" d="M279.48,342.39c-.66.18-1.18.34-1.74.69-.43.27-.92.47-1.36.72-.77.43-1.55.91-2.18,1.53-.52.51-.91,1.09-1.29,1.7-.35.55-.68.97-.88,1.6-.18.52-.43,1.02-.57,1.55-.11.39-.16.79-.27,1.18-.09.32-.08.62-.11.95-.01.19-.5.93-.47,1.12-.08.03,1.37.16,1.86.17.83.02,1.75-.45,2.47-.82.42-.21,1.14-.66,1.14-.66,0,0,1.03-.74,1.52-1.15.43-.36.98-.75,1.21-1.28l.11-.25s-.09.37-.15.9c-.07.68-.19,1.36-.21,2.04.77.31,1.99-.02,2.67-.42.5-.29,1.3-1.19,1.3-1.19,0,0,.57-.97.6-1.14.19.47.46.88.74,1.29.29.42,1.61,1.65,1.98,1.78.56.2,1.11.43,1.7.55.76.15,1.55.11,2.32.09.51-.01,2.34-.22,2.34-.22-.12-1.27-.14-1.1-.06-1.71.15-1.08.09-2.12-.31-3.15-.56-1.42-1.55-2.79-2.73-3.77-1.37-1.14-3.08-1.54-4.79-1.88l-4.86-.22Z"/><path class="cls-70" d="M273.79,380.84s3.76.27,5.64.4c1.64.12,3.29.23,4.93.15,2.06-.1,6.64-.49,6.64-.49,0,0,3.81-.12,7.57-2.11-.73-2.27-1.47-5.77-2.79-7.83-1.12-1.75-2.67-3.98-4.04-4.84-1.12-.7-4.68-1.62-4.68-1.62,0,0-4.23,1.5-6.68,1.37-2.46-.13-4-1.46-4-1.46,0,0-3.57.3-6.42,2.22-1.67,1.13-4.89,7.52-4.89,7.52,0,0-.61.69-1.38,3.92.92.72,1.98,1.27,3.08,1.65,2.24.78,7.02,1.13,7.02,1.13Z"/><path class="cls-30" d="M276.93,367.69c1.6.45,3.19.43,4.82.49,2.24.09,4.77-.69,6.56-2.07.38-.3.72-.61,1.01-.97-1.17-.37-2.26-.65-2.26-.65,0,0-4.23,1.5-6.68,1.37-2.46-.13-4-1.46-4-1.46,0,0-1.19.1-2.74.55.24.56.51,1.14.51,1.14,0,0,2.21,1.44,2.78,1.6Z"/><path class="cls-21" d="M280.89,369.38c.78-.51,1.85.47,1.22,1.22-.73.86-1.99,0-1.48-.96l.26-.25Z"/><path class="cls-21" d="M280.89,373.31c.78-.51,1.85.47,1.22,1.22-.73.86-1.99,0-1.48-.96l.26-.25Z"/><path class="cls-37" d="M275.34,361.13c.87-.76,1.16-1.92.71-3-.31-.74-.86-.94-1.63-.98-1.14-.07-1.91.18-2.55,1.13.56,1.2,1.33,2.3,2.28,3.21,0,0,.01.01.02.02.42,0,.81-.07,1.17-.38Z"/><path class="cls-37" d="M289.75,360.51c.57-.73.99-1.5,1.28-2.34-.83-1.4-3.51-1.39-4.52-.2-1.12,1.3-.29,3.64,1.29,4.08.73-.37,1.34-.76,1.95-1.54Z"/><path class="cls-21" d="M274.31,354.38c-.07.17,0,.56,0,.75.01.22.26.61.26.61,0,0,.62.68,1.21.67.47,0,.96-.09,1.33-.39.2-.16.22-.34.3-.58.06-.17.13-.6.13-.6,0,0-.1-.72-.56-1.04-.32-.22-.88-.34-.88-.34,0,0-1.3-.19-1.8.93Z"/><path class="cls-16" d="M274.94,354.14c-.37.68.03,1.5.03,1.5,0,0,.27.33.54.47.51.27,1.2.12,1.2.12,0,0,.46-.2.61-.45.52-.87.31-1.49-.08-1.92-.61-.65-1.85-.57-2.3.27Z"/><path class="cls-21" d="M288.62,354.38c.07.17,0,.56,0,.75-.01.22-.26.61-.26.61,0,0-.62.68-1.21.67-.47,0-.96-.09-1.33-.39-.2-.16-.22-.34-.3-.58-.06-.17-.13-.6-.13-.6,0,0,.03-.72.49-1.04.32-.22.95-.34.95-.34,0,0,1.3-.19,1.8.93Z"/><path class="cls-16" d="M287.99,354.14c.37.68-.03,1.5-.03,1.5,0,0-.35.38-.62.52-.51.27-1.12.06-1.12.06,0,0-.55-.24-.68-.5-.42-.89-.25-1.44.15-1.86.61-.65,1.85-.57,2.3.27Z"/><path class="cls-48" d="M130.49,278.32c.46,3.25.94,6.54,2.16,9.61.38.96.84,1.88,1.34,2.78.27.48.55.95.77,1.45.1.23.16.51.34.69.26.26.73.29,1.08.33,2.22.21,4.55-.09,6.75-.35,1.77-.21,3.53-.48,5.28-.82.71-.14,1.43-.24,2.13-.46,1.64-.52,3.03-1.56,3.83-3.1,1.18-2.28,1.24-5.1,1.35-7.61.05-1.28.17-2.67-.16-3.92-.3-1.14-1.15-1.7-2.27-1.95-2.16-.47-4.51-.25-6.69-.15-3.57.17-7.14.43-10.71.67l-5.21,2.83Z"/><path class="cls-59" d="M136.1,283.37s.6,4.53-.02,6.73c-.23.83-.37,2.18-.98,2.75-.76.7-1.91.63-2.78,1.18.38.63,1.21,1.04,1.71,1.6.75.83,2.73,1.84,2.73,1.84,0,0,4.25.87,6.52.68,1.16-.1,2.39-.04,3.53-.3,1.11-.25,3.34-.99,3.34-.99,0,0,3.4-1.46,5-2.29-.71-.92-1.86.53-2.28-.52-.24-.59-.52-1.89-.91-2.4-.4-.54-.96-1.88-.96-1.88,0,0-.54-3.59-.84-4.86-.25-1.07,0-2.29-.43-3.3,0,.08,0,.17,0,.25l-13.65,1.52Z"/><path class="cls-69" d="M131.33,278.54c.72,2.81,1.37,5.09,3.3,7.37,1.2,1.42,4.47,2.75,4.47,2.75,0,0,3.86,1.06,5.82.36,2.13-.76,3.86-1.35,5.27-3,1.59-1.85,3.19-3.68,3.73-6.13.75-3.43.23-7.24-.02-10.7-.24-3.24-.5-6.81-3.17-9.05-2.52-2.11-6.35-3.29-9.59-3.5-7.53-.47-10.83,8.68-10.96,14.85l1.15,7.05Z"/><path class="cls-48" d="M144.96,273.66c1.23-.27,2.43-.22,2.43-.22l2.16.24s.74.06,1.22.03c-.02-.37-.46-.63-.46-.63,0,0-1.59-.69-2.12-.86-.58-.19-2.27.15-2.27.15,0,0-.81.58-1.18.94l.2.36Z"/><path class="cls-48" d="M133.2,273.44c.65-.09,3.02-.03,3.02-.03l1.37.13,1.14.23.34-.28s-.68-.88-1.05-1.07c-.8-.41-2.35-.37-2.35-.37l-1.06.32s-.96.34-1.41.6c0,0-.47.52-.01.46Z"/><path class="cls-61" d="M141.19,275.35c-.29.63-1.25,2.52-1.25,2.52,0,0-.05.45.47.68.4.18,1.34.81,1.34.81,0,0,.17-1.39.16-1.82l-.71-2.19Z"/><path class="cls-3" d="M138.89,281.55s1.18.14,1.46.14c.59,0,1.8.05,1.8.05,0,0,1.01-.11,1.5-.19.44-.07.74-.13,1.26-.28,0,.51-.62,1.2-.62,1.2,0,0-1.09.73-1.52.86-.9.27-2.46-.32-2.46-.32,0,0-.85-.55-1.15-.9l-.28-.56Z"/><path class="cls-48" d="M134.68,258.46c-.59.63-.54,1.11-.64,1.92-.12.95-.17,1.99.05,2.93.15.67,4.42,3.4,6.07,4.21,2.04,1.13,6.71,2.91,6.71,2.91l6.21,1.63s.16-.9.2-1.65c.07-1.38-.08-2.82-.33-4.18-.25-1.41-.72-2.75-1.26-4.07-.43-1.04-.82-2.19-1.54-3.08-1.09-1.34-2.91-1.74-4.54-1.94-2.14-.26-4.32-.21-6.48-.2l-4.45,1.52Z"/><path class="cls-40" d="M151.8,291.16l-4.68.41s-5.94.25-9.68-.21l-1.96.13c-4.8.77-11.35,6.23-11.35,6.23,0,0-4.71,5.16-5.18,8.06-.22,1.35-1.83,3.34-1.99,5.08,1.53.29,5.03.51,5.03.51,0,0,15.22,2.41,22.89,2.46,7.67.05,22.51-4.42,22.51-4.42,0,0,1.07-.57,2.13-1.39-.32-2.26-.67-2.77-.88-3.95-.79-4.45-10.24-11.73-16.81-12.92Z"/><path class="cls-48" d="M133.91,254.87s-4.39,4.02-5.89,6.92c-1.51,2.92-2.36,10.34-2.36,10.34,0,0-.32,5.53-.81,8.76-.36,2.43-.68,7.34-.68,7.34,0,0,.41,2.42,1.02,3.52.84,1.51,2.28,4.29,3.38,5.18.48-1.72,1.62-2.02,1.62-2.02,0,0,.68.22,2.14.4,1.6.2,3.36.57,4.79-.4-3.54-4.14-5.46-16.77-5.46-16.77l.59-8.47s1.59-7.26,3.25-9.05c3.61-3.9,13.29.3,13.29.3,0,0,3.03,1.06,4.61,17,.27,2.75-.77,8.28-.77,8.28,0,0-2.29,6.59-3.91,9.07.96.25,1.39-.06,2.34-.36.54-.17,1.19-.8,2.25-1.18.77,1.18,1.55,1.82,1.55,1.82,0,0,2.62-1.72,4.08-4.53.45-.86,1.48-3.32,1.48-3.32,0,0,.38-3.28.25-5.18-.23-3.38-.91-6.69-.91-6.69l-1.19-5.52-1.42-6.62-1.27-2.75s-1.64-3.75-2.98-4.97c-3.08-2.82-9.93-3.37-13.55-2.41-3.48,0-5.41,1.31-5.41,1.31Z"/><path class="cls-69" d="M153.14,274.92c.44-2.65,3.33-2.29,3.91.07.26,1.05-.35,3.09-.35,3.09,0,0-1.57,2.27-2.74,2.89-1.75.92-1.88-.52-1.72-1.95l.9-4.1Z"/><path class="cls-69" d="M130.69,273.96c-.26-1.48-2.26-2.18-3.22-1.11-.7.78-.09,3.68-.09,3.68,0,0,2.55,5.58,4.72,3.96l-1.41-6.53Z"/><polygon class="cls-48" points="128.92 279.86 128.35 282.66 128.02 283.8 127.4 279.63 128.92 279.86"/><path class="cls-44" d="M109.38,296.92c1.86,1.18,3.92,2.12,6.1,2.45,2.18.33,4.51,0,6.38-1.15.2-.13.41-.27.51-.49.1-.21.08-.46.06-.7-.1-1.31-.05-2.63.16-3.93-1.44.78-3.17,1-4.76.63-1.08-.26-2.08-.78-3.07-1.29-1-.52-4.88-3.18-5.49-2.14-.25.43-.18,6.43.11,6.62Z"/><path class="cls-47" d="M110.19,270.05c-1.63,1.5-2.64,3.59-3.18,5.74-.53,2.15-.63,4.39-.66,6.61-.64-.5-1.31-1.01-2.09-1.24s-1.72-.11-2.26.5c-.65.74-.35,2.86-.1,3.82.55,2.17,3.86,3.87,3.86,3.87l1.07.23s.22.69.37.98c.83,1.64,3.02,3.37,3.02,3.37,0,0,4.07,2.06,6.44,2.23.73.05,2.69-.09,3.41-.2.89-.14,3.02-.91,3.48-1.3,1.77-1.48,2.82-3.91,2.82-3.91l.25-.79s.43-.19.66-.25c1.32-.34,2.59-2.96,2.59-2.96,0,0,.61-1.37.63-2.11s-.31-1.94-.99-2.24c-.37-.17-1.13-.01-1.13-.01,0,0-.33-1.28-.33-1.89.01-2.67-.03-5.31-1.42-7.59-1.16-1.91-3.25-3.09-5.4-3.72-4.12-1.21-9.03-.47-11.9,2.73"/><path class="cls-17" d="M118.78,284.29l-.58,2.27.09,1.62s1.64-.67,2.06-1.14c-.63-.89-1.09-1.77-1.57-2.76Z"/><path class="cls-3" d="M118.27,290.09s2.36.07,2.43.14c.11.11-.76,1-.76,1l-1.72.25-2.26-.75-.99-1.04,3.3.4Z"/><path class="cls-28" d="M134.52,310.69s-1.21-2.84-1.7-4c-.7-1.66-2.49-4.28-2.49-4.28,0,0-2.35-2.8-5.02-4.04-.63-.29-2.32-1.09-2.32-1.09,0,0-4.96.69-5.79.69-3.25.01-8.33-2.28-8.33-2.28,0,0-2.42,1.12-4.7,2.89-1.61,1.26-4.42,4.75-4.42,4.75,0,0-2.58,3.14-3.22,6.48,0,0,3,2.82,10.33,3.79,7.33.96,18.9.39,18.9.39l8.77-3.3Z"/><path class="cls-21" d="M116.63,302.62c.33.24.79.26,1.18.14l.15-.11c.2-.24.29-.43.36-.73.06-.3-.27-.83-.27-.83,0,0-.5-.31-1-.14-.24.08-.46.25-.59.47-.22.35-.16.96.17,1.2Z"/><path class="cls-21" d="M117.67,305.44c-.41.04-.76.34-.97.69l-.04.18c.01.31.07.52.23.79.16.27.76.44.76.44,0,0,.58-.11.83-.57.12-.22.17-.5.12-.75-.07-.41-.53-.82-.94-.78Z"/><path class="cls-48" d="M117.22,264.02c1.27.08,3.06.65,4.2,1.11,1.37.56,2.63,1.5,3.73,2.37,1.36,1.08,1.72,2.42,2.72,3.78.28.38.92,1.76,1.46,4.01.09.37.42,2.36.32,3.63-.03.44.3,2.04.07,2.05-.78.03-2.11-.23-3.32-.9-.43-.24-1.41-1.47-1.85-1.71.03.55.43,1.38.43,1.38,0,0-4.34-.39-6.18-.99s-4.56-2.21-4.72-2.6c-.41,1.29-.78,2.12-1.68,2.95-.43.4-3.36,2.59-3.36,2.59l-3.09,1.74s-.84-2.5-3.5-2.12c.39-1.28.49-4.07.26-5.35-.21-1.18-.13-3.19-.13-3.19.68-2.25.49-2.45,1.35-3.66.73-1.03,3.09-2.95,4.29-3.68,1.42-.87,3.22-1.5,4.32-1.52l4.68.12Z"/><polygon class="cls-48" points="104.38 279.96 105.94 283.43 107.94 281.4 104.38 279.96"/><path class="cls-21" d="M110.85,282.86c-.08.19,0,.63,0,.84.01.25.27.68.27.68,0,0,.65.76,1.27.75.5,0,1.01-.11,1.39-.44.21-.18.23-.38.31-.65.06-.19.14-.67.14-.67,0,0-.11-.81-.58-1.16-.34-.24-.92-.38-.92-.38,0,0-1.36-.22-1.88,1.04Z"/><path class="cls-48" d="M111.28,282.67c-.41.77.04,1.68.04,1.68,0,0,.3.37.61.53.57.3,1.35.13,1.35.13,0,0,.52-.22.68-.5.58-.97.35-1.67-.09-2.14-.68-.73-2.07-.64-2.58.31Z"/><path class="cls-21" d="M125.6,283.05c.08.19,0,.63,0,.84-.01.25-.27.68-.27.68,0,0-.65.76-1.26.75-.49,0-1-.11-1.38-.44-.21-.18-.23-.38-.31-.65-.06-.19-.14-.67-.14-.67,0,0,.04-.81.51-1.16.33-.24.99-.38.99-.38,0,0,1.35-.22,1.86,1.04Z"/><path class="cls-48" d="M125.16,282.78c.41.77-.04,1.68-.04,1.68,0,0-.39.43-.69.59-.57.3-1.26.07-1.26.07,0,0-.62-.27-.76-.56-.48-1-.27-1.61.17-2.09.68-.73,2.07-.64,2.58.31Z"/><path class="cls-64" d="M388.38,299.37c1.62,1.61,3.79,2.64,6.05,2.89,2.27.24,4.61-.3,6.53-1.53.19-.12.39-.26.5-.46.17-.32-.43-.67-.53-1.02-.55-1.97-.28-3.97-.82-5.94-1.33.61-3.15.65-4.61.65-1.6,0-4.43-.63-5.87.29-.62.4-1.16-1.47-1.3-.78-.08.4-.15,5.71.05,5.9Z"/><path class="cls-12" d="M415.48,304.47c-.59-1.34-1.24-2.88-2.56-3.63-1.24-.7-4.03-1.73-4.03-1.73,0,0-5.65-1.31-7.74-1.81-1.49,1.72-7.12,2.4-10.33,1.57l-2.88-1.58-1.88.38-8.2,3.74s-3.2,1.01-4.53,5.32c-.38,1.24-2.47,8.56-2.47,8.56,0,0,.86.49,1.76.74,6.09,2.16,10.13,3.17,10.13,3.17,0,0,11.12.35,15.98.52,3.67.13,7.31-.33,7.31-.33,0,0,4.08-.99,7.15-1.84,1.79-.49,4.12-1.05,5.87-1.88-.76-2.71-1.48-5.17-1.48-5.17,0,0-1.22-4.08-2.08-6.04Z"/><path class="cls-71" d="M383.48,277.07c-.41,1.41.09,3.11.09,3.11l.71,8.38s.48,2.01.84,2.8c.46,1,1.33,1.87,2.49,3,.68.66,1.96,1.47,2.89,1.89,2,.9,5.95.09,5.95.09,0,0,3.2-1.4,4.22-2.69,1.21-1.53,1.97-2.63,2.44-4.66.92-3.95.98-8.69-1.4-12.32-3.06-4.67-8.42-3.42-12.84-1.28-.67.32-1.32.66-1.98.99l-3.41.67Z"/><path class="cls-9" d="M393.43,286.46c-.24.4-.77,1.56-.77,1.56,0,0-.61.89-.62,1.05l.71.56s.67.35,1.01.38l-.13-1.38-.21-2.17Z"/><path class="cls-71" d="M402.87,284.49c.48-.86,1.09-2.02,2.28-1.65.69.22.99,1.09,1,1.76.03,1.48-1.72,4.5-1.72,4.5,0,0-1.13,1.02-1.89,1.39.02-.07.04-.15.08-.22l.25-5.79Z"/><path class="cls-71" d="M383.53,283.64c-.41-.01-1.06-.23-1.42.04-.38.29-.35,1.08-.42,1.5-.1.56-.19,1.04-.07,1.61.23,1.07.34,1.93,1.09,2.76.59.65,1.45.78,2.28.97,0,0-.82-6.88-1.46-6.89Z"/><path class="cls-50" d="M391.75,291.89s.59.02,1.53.09c.41.03,1.42-.12,1.83-.16.32-.03,1.43-.28,1.43-.07,0,.09-.24.62-.71.88-.45.25-1.4.75-2.76.56-.99-.14-1.99-1.03-1.99-1.03l-.09-.4.76.11Z"/><path class="cls-1" d="M393.48,266.74s-2.48-.09-3.71.46c-1.58.71-3.07,1.7-4.46,2.73-1.03.76-1.96,1.61-2.65,2.69-.66,1.02-1.71,5.12-1.49,8.39.17,2.54,2.27,5.68,3.01,6.26.22-.58,1.79-3.23,1.93-3.39,1.23-1.4,1.55-1.53,2.33-2.13,1.21-.93,3.02-2.37,3.02-2.37,0,0-1.61,2.19-1.66,2.3.19.06,2.57-.28,3.19-.62.68-.38,2.06-2.15,2.09-2.13-.03,0-.14.02-.08,0,.06-.01.45.78.6,1.14.54,1.34,2.11,2.52,2.11,2.52,0,0,1.25.69,1.71.95.33.19,2.65.56,3.14,1.56.75,1.55,1,1.55,1,1.55l2.61-2.82s1.64-6.16.8-8.6c-.3-.89-.85-2.08-1.25-2.92-.4-.84-3.66-3.69-4.81-4.19-.84-.36-3.79-.89-4.39-.97.02.02.03.04.03.06l-3.06-.46Z"/><path class="cls-7" d="M383.32,305.35s4.78-4.29,6.91-6.8l-2.3-1.26-1.88.38-8.2,3.74s-3.2,1.01-4.53,5.32c-.38,1.24-2.47,8.56-2.47,8.56,0,0,.86.49,1.76.74,2.67.95,4.95,1.67,6.67,2.19.48-4.14.54-9.71.54-9.71l3.51-3.17Z"/><path class="cls-7" d="M419.04,315.68c-.76-2.71-1.48-5.17-1.48-5.17,0,0-1.22-4.08-2.08-6.04-.59-1.34-1.24-2.88-2.56-3.63-1.24-.7-4.03-1.73-4.03-1.73,0,0-5.65-1.31-7.74-1.81-.1.11-.22.22-.35.33,2.37,2.76,5.03,5.28,7.26,8.16.75.96,1.89,3.12,1.89,3.12l.67,2.62,1.9,6.22c.22-.06.44-.12.65-.18,1.79-.49,4.12-1.05,5.87-1.88Z"/><path class="cls-45" d="M392.23,301.82c2.9.45,5.89-.22,8.55-1.47,1.24-.58,2.46-1.34,3.35-2.35-1.16-.27-2.27-.53-2.98-.7-1.49,1.72-7.12,2.4-10.33,1.57l-2.88-1.58-1.88.38-.39.18c1.47,2.16,3.97,3.57,6.57,3.97Z"/><path class="cls-73" d="M391.12,286.02c-.59-.02-2.31-.28-2.31-.28,0,0-1.18.02-2.31.08-.07-.33,1.15-.82,1.15-.82,0,0,.92-.18,1.3-.15,1,.08,2.24.88,2.17,1.16Z"/><path class="cls-73" d="M396.39,285.64s1.09-.42,1.83-.49c.89-.08,2.01.43,2.01.43,0,0,.85.51.81.73-1.02-.15-2.04-.25-3.07-.29-.46-.02-1.03.04-1.03.04,0,0-.69.1-.81.03-.15-.08.26-.45.26-.45Z"/><path class="cls-1" d="M297.15,224.34c.54,3.63.91,7.24.94,10.91.02,1.57-.04,3.14.06,4.71.05.73.07,1.85.75,2.32.65.45,1.68.19,2.39.08,1.4-.21,2.8-.4,4.22-.45,3.33-.11,6.56.54,9.86.79,1.54.12,3.8.23,4.28-1.65.21-.81.12-1.68.05-2.5-.11-1.18-.26-2.35-.38-3.52-.29-2.97-.37-5.96-.26-8.95.04-1.19.14-2.39.14-3.58,0-.72-.01-1.53-.45-2.14-.51-.72-1.49-.97-2.3-1.15-1.47-.31-2.99-.4-4.49-.44-3.88-.09-7.67.51-11.46,1.25l-3.35,4.31Z"/><path class="cls-64" d="M302.79,233.97c.06.37.27.71.33,1.06.04.27,0,.85,0,.85l-.2,1.75s-.69,1.81-.93,2.75c2.28,1.21,4.69,1.13,7.23,1.14,1.33,0,2.48-.11,3.75-.5.56-.17,1.14-.29,1.7-.47.27-.09.56-.12.81-.25.25-.14.41-.37.71-.4.04-.5-.3-1.16-.47-1.63-.21-.58-.53-1.71-.53-1.71,0,0-.31-1.11-.37-1.75-.05-.47-.21-1.7-.21-1.7l-11.82.85Z"/><path class="cls-71" d="M305.56,213.53c-2.31,2.4-4.16,4.3-5.53,7.39-.95,2.15-.88,5.02-.65,7.35.51,5.21,4.64,7.72,4.64,7.72,0,0,2.9,1.41,4.45,1.33,1.53-.08,4.74-1.95,4.74-1.95,0,0,1.97-1.51,2.87-3.01,1.03-1.71,1.56-3.7,2.02-5.62.59-2.43,1.3-5.26.54-7.73-.83-2.7-3.5-3.99-5.84-5.16l-7.24-.32Z"/><path class="cls-9" d="M307.75,227.45c-.54.16-1.05,1.9-1.05,1.9,0,0,1.02.48,1.47.44.04-.33,0-.93,0-.93l-.43-1.41Z"/><path class="cls-50" d="M304.85,231.45l3.09.27s2.35,0,3.18-.23c.04.84-.8,1.34-.8,1.34,0,0-1.61.73-2.33.64-1.34-.15-2.32-.77-2.32-.77,0,0-.74-.53-.66-.52l-.16-.75Z"/><path class="cls-15" d="M311.88,258.59c3.78-.11,13.61-1.9,13.61-1.9,0,0,.03,0,.09-.02-.02-.22-.05-.43-.08-.65-.52-4.27-1.72-7.94-4.15-11.48-1.62-2.36-6.29-5.21-6.29-5.21l-5.97.72s-3.7.08-6.07.05l-3.1,1.72c-1.02,1.52-2.14,2.96-3.19,4.45-1.16,1.65-2.63,3.05-3.42,4.93-.71,1.69-1.22,3.49-1.68,5.29,4.01.66,7.63,1.12,7.63,1.12,0,0,8.13,1.11,12.62.98Z"/><path class="cls-62" d="M304.46,240.09l-1.86-1.61c-4.66.85-7.44,1.57-10.7,5.28-2.35,2.67-4.3,8.16-5.41,11.79,3.19.66,7.14,1.26,9.79,1.64,2.63-6.8,6.91-14.67,6.91-14.67l1.27-2.43Z"/><path class="cls-62" d="M331.74,255.04c-.32-2.04-.53-3.49-.53-3.49,0,0-.69-2.76-1.76-4.86-.71-1.39-2.26-3.76-3.61-4.44-3.62-1.84-10.26-4.41-10.26-4.41,0,0-1.59,1.55-2.15,1.68,1.25,1.72,2.72,2.99,3.76,4.86,1.28,2.3,3.32,7.16,3.32,7.16,0,0,2.01,3.57,2.58,5.57,1.44-.24,2.4-.42,2.4-.42,0,0,2.83-.64,6.25-1.64Z"/><path class="cls-21" d="M301.28,225.77c-.07.15,0,.51,0,.68,0,.2.23.55.23.55,0,0,.57.61,1.1.6.43,0,.87-.09,1.2-.36.18-.15.2-.31.27-.53.05-.16.12-.54.12-.54,0,0-.09-.66-.51-.94-.29-.2-.8-.31-.8-.31,0,0-1.18-.18-1.63.84Z"/><path class="cls-67" d="M301.85,225.55c-.33.62.03,1.36.03,1.36,0,0,.24.3.49.43.46.24,1.09.11,1.09.11,0,0,.42-.18.55-.41.47-.79.29-1.35-.08-1.74-.55-.59-1.67-.52-2.09.25Z"/><path class="cls-21" d="M314.8,225.74c.07.15,0,.5,0,.66,0,.2-.23.54-.23.54,0,0-.55.6-1.07.59-.42,0-.85-.08-1.18-.35-.18-.14-.19-.3-.27-.51-.05-.15-.12-.53-.12-.53,0,0,.03-.64.43-.92.28-.19.84-.3.84-.3,0,0,1.15-.17,1.59.82Z"/><path class="cls-67" d="M314.24,225.53c.33.61-.03,1.33-.03,1.33,0,0-.31.34-.55.46-.45.24-1,.06-1,.06,0,0-.49-.21-.6-.44-.38-.79-.22-1.27.14-1.65.54-.58,1.64-.51,2.04.24Z"/><path class="cls-1" d="M306.41,209.35c-1.68.73-3.21,1.37-4.58,2.17-1.81,1.05-3.35,2.36-4.6,4.51-2.53,4.35-2.66,14.5-2.66,14.5l-.95,6.64s-.77,3.76-1.15,5.65c-.54,2.67-1.83,6.29-.88,6.29l2.29-.9,1.72,2.15s2.2,1.73,2.44,1.04c.24-.69,2.12-6.12,2.12-6.12,0,0,.22-4.96,0-7.67-.4-4.8-2.92-11.33-.63-15.68.22-.42,3.46-.84,3.69-1.26.21.9,6.05,1.72,6.05,1.72,0,0-.74-.73-1.12-1.64-.11-.25-.13-.73-.13-.73,0,0,2.87,1.36,3.65,1.57.84.23,2.54.53,2.54.53,0,0,1.27-.06,1.89.02.19,1.53.58,3.15.55,4.69,0,.47-.09,2.48-.19,3-.25,1.25-.12,2.54,0,3.81.11,1.17.16,2.27.09,3.43-.06.86.15,2.63.15,2.63,0,0,1.96,4.34,2.72,6.55.34,1,.68,1.99,1.19,2.93.17.31.96,1.5,1.07,1.89.68.27,1.11-1.7,1.5-1.99,2.61,1.09,3.78-4.77,3.78-4.77,0,0-.18-3.22-.35-4.81-.19-1.79-.43-3.56-.81-5.32-.67-3.17-2.26-9.45-2.26-9.45,0,0-.59-2.66-.87-3.99-.36-1.67-.95-3.25-1.63-4.81-.78-1.8-1.25-3.15-2.47-4.71-.75-.96-4.16-1.9-5.32-2.08l-6.84.21Z"/><path class="cls-49" d="M304.21,229.18s-1.8-.12-2.49-.32c-.82-.23-1.58-.58-2.08-.97-.3-.24-.84-2.09-.84-2.09,0,0-.39-1.86-.33-1.93.05-.07,2.41-.25,2.41-.25,0,0,2.08-.12,2.41-.12,1.21.08,2.11.21,2.72.53.55.29.85.74.93,1.45.35.05,1.41.12,1.41.12,0,0,1.03.02,1.16.1.43.27.3.26.33.56.04.3-.33.29-.33.29h-1.14s-1.06-.14-1.4-.18c-.05.54-.22,1.46-.53,1.82-.79.91-2.22.98-2.22.98ZM299.38,224.61c.25,1.11.77,2.25.96,2.43.32.25.69.59,1.24.78.68.22,1.56.45,2.22.45,0,0,1.32.08,1.86-.53.12-.15.35-1.12.35-1.74,0-.57-.64-1.17-.64-1.17,0,0-.95-.27-1.87-.33-.26,0-1.05-.03-1.86,0-.67.03-1.76.08-2.26.1Z"/><path class="cls-49" d="M312.67,229.12c-1.13-.06-2.38-.26-3.12-1.21-.55-.7-.51-3.57-.3-3.62l1.56-.43c.69-.17,2.83-.35,2.92-.34.72.05,3.68.65,3.71.88.1.7.07,1.41-.09,2.05-.12.47-.56,1.26-.56,1.26,0,0-.96.77-1.64.99-1.15.36-2.41.43-2.48.43ZM310.06,224.98c-.01.89.14,1.86.45,2.27.4.51.87.84,2.19.92,1.31.07,2.73-.38,3.33-1.18.37-.5.64-1.23.59-1.96-.83-.35-3.03-.52-3.12-.53-.53-.04-1.57.07-2.38.27l-1.05.22Z"/></g></g></svg>