<?xml version="1.0" encoding="UTF-8"?><svg id="_레이어_1" xmlns="http://www.w3.org/2000/svg" viewBox="0 0 500 500"><defs><style>.cls-1{fill:#4c3c2f;}.cls-2{fill:#43325c;}.cls-3{fill:#e7c2a3;}.cls-4{fill:#db913e;}.cls-5{fill:#c2d88c;}.cls-6{fill:#3e68aa;}.cls-7{fill:#fff;}.cls-8{fill:none;}.cls-9{fill:#cd573d;}.cls-10{fill:#d7a67c;}.cls-11{fill:#c93f1e;}.cls-12{fill:#f9eeda;}.cls-13{fill:#efcb65;}.cls-14{fill:#4e8342;}.cls-15{fill:#6baf65;}.cls-16{fill:#e2a42c;}.cls-17{fill:#e8c08b;}.cls-18{fill:#847666;}.cls-19{fill:#e5dbeb;}.cls-20{fill:#37281b;}</style></defs><rect class="cls-8" width="500" height="500"/><path class="cls-19" d="M173.43,42.83c-28.43-2.91-78.32-3.97-78.32-3.97,0,0-40.7,10.23-51.63,27.8-12.35,19.86-14.41,36.37-17.21,55.6-10.87,74.76,6.26,108-1.76,183.12-1.67,15.66-3.71,52.22-4.41,67.95-1.77,39.71,22.06,67.95,22.06,67.95,0,0,65.01,23.39,105.02,18.53,82.63-10.02,135.87.94,219.09,2.67,32.5.68,69.01,1.09,92.3-21.59,12.5-12.17,21.29-46.73,21.29-46.73,0,0,.69-34.84-.91-52.2l-8.73-95.14c-1.75-19.06,2.77-88.92,4.38-102.73,3.31-28.46-2.21-56.26-2.21-56.26,0,0-8.97-29.15-29.12-39.71-19.8-10.38-58.99-11.46-80.75-10.59-62.2,2.49-137.45,10.59-189.08,5.3"/><polygon class="cls-12" points="196.42 80.65 65.29 186.65 64.1 335.93 321.45 335.93 320.81 189.06 196.42 80.65"/><polygon class="cls-18" points="62.83 193.71 62.58 209.29 62.31 225.23 62.01 243.2 61.75 259.07 61.45 277.06 60.98 305.48 59.68 340.73 76.23 340.73 75.84 299.58 75.89 278.41 75.93 259.63 75.98 239.96 76.04 215.52 76.11 185.76 62.83 193.71"/><polygon class="cls-6" points="157.93 215.88 157.93 242.89 158.74 267.69 157.93 293.38 157.93 321.78 159.01 336.69 198.75 339.05 225.09 337.37 226.15 310.97 226.47 280.33 227.62 257.61 227.62 231.63 227.26 215.88 189.81 214.98 157.93 215.88"/><path class="cls-16" d="M91.27,242.38c.75,0,9.83.18,19.36.18,11.02,0,20.84-.72,20.84-.72l-.36,57.42-26.22.72-14.12-.72.51-56.88Z"/><path class="cls-7" d="M95.94,248.53c.22,0,2.85.05,5.6.05,3.19,0,6.03-.21,6.03-.21l-.1,16.62-7.59.21-4.09-.21.15-16.46Z"/><path class="cls-7" d="M115.31,248.48c.22,0,2.87.05,5.65.05,3.21,0,5.2-.15,5.2-.15l-.29,16.69-6.58.21-4.12-.21.15-16.59Z"/><path class="cls-7" d="M95.94,275.72c.22,0,2.85.05,5.6.05,3.19,0,6.03-.21,6.03-.21l-.1,16.62-7.59.21-4.09-.21.15-16.46Z"/><path class="cls-7" d="M115.23,275.52c.22,0,2.91.05,5.73.05,3.26,0,5.28-.21,5.28-.21v17l-6.98.21-4.18-.21.15-16.84Z"/><path class="cls-16" d="M251.36,242.38c.75,0,9.83.18,19.36.18,11.02,0,20.84-.72,20.84-.72l-.36,57.42-26.22.72-14.12-.72.51-56.88Z"/><path class="cls-7" d="M256.03,248.53c.22,0,2.85.05,5.6.05,3.19,0,6.03-.21,6.03-.21l-.1,16.62-7.59.21-4.09-.21.15-16.46Z"/><path class="cls-7" d="M275.4,248.48c.22,0,2.87.05,5.65.05,3.21,0,5.2-.15,5.2-.15l-.29,16.69-6.58.21-4.12-.21.15-16.59Z"/><path class="cls-7" d="M256.03,275.72c.22,0,2.85.05,5.6.05,3.19,0,6.03-.21,6.03-.21l-.1,16.62-7.59.21-4.09-.21.15-16.46Z"/><path class="cls-7" d="M275.32,275.52c.22,0,2.91.05,5.73.05,3.26,0,5.28-.21,5.28-.21v17l-6.98.21-4.18-.21.15-16.84Z"/><polygon class="cls-18" points="312.61 191.37 312.17 208.79 311.84 226.18 312.68 256.01 312.27 277.01 311.66 308.35 311.09 338.21 324.83 339.05 324.62 314.93 324.44 295.09 324.25 273.17 324.04 249.38 323.83 225.93 323.57 196.68 312.61 191.37"/><polygon class="cls-9" points="254.38 87.53 253.75 110.71 253.75 134.8 281.57 149.18 281.57 109.86 280.63 87.53 267.51 85.81 254.38 87.53"/><path class="cls-14" d="M191.35,85.81c-22.29,19.05-43.96,38.67-68.39,55.04-14.78,9.9-30.72,18.54-43.77,30.81-4.77,4.49-9.39,9.99-12.99,15.47-2.75,4.18-3.72,12.31-3.72,12.31,0,0,9.34,1.99,13.75,1.41,6.63-.87,57.93.89,57.93.89l37.85-1.04,39.96-.96s24.86-1.98,37.96-1.66c8.77.21,38.43.21,44.5.24,5.37.03,18.16-.21,23.53-.29,4.18-.06-.98-10.03-4.15-14.2-6.51-8.54-71.02-64.43-81.24-71.41-3.5-2.39-7.49-4.28-10.84-6.82-3.08-2.35-5.33-5.11-8.76-7.07l-21.61-12.71Z"/><path class="cls-7" d="M189.39,225.51l-13.94-.21-9.69.82-.64,13.09s.5,8.25.14,12.46c-.28,3.37.09,11.66.09,11.66,0,0,8.46.03,11.91-.07,3.2-.09,12.14.07,12.14.07l-.17-10.12.17-20.07v-7.63Z"/><path class="cls-7" d="M220.11,225.51l-13.94-.21-9.69.82-.64,13.09s.5,8.25.14,12.46c-.28,3.37.09,11.66.09,11.66,0,0,9.7.1,13.14,0,3.2-.09,10.9,0,10.9,0l-.17-10.12.17-20.07v-7.63Z"/><path class="cls-13" d="M220.96,275.01c-.89.03-3.11.09-3.11.09,0,0-.87,1.74-.89,2.68-.07,3.17-.47,6.44-.21,9.59.09,1.12.62,6.42.62,6.42,0,0,1.79.35,2.7.22,1-.15,2.97-.4,2.97-.4l.03-8.87v-8.48l-2.12-1.27Z"/><path class="cls-15" d="M46.95,199.53l29.72-27.45,20.19-17.67,16.23-14.38,24.98-19.33,20.15-18.66,36.33-28.94,13.62,10.51,19.05,17.03,21.33,18.11,15.5,13.53,18.8,17.32,19.48,16.25,19.8,18.33s14.11,12.5,14.11,14.4-14.22,14.59-14.22,14.59l-15.62-13.26-32.26-25.1-27.18-21.04-29.88-29.76-21.27-18.35-13.06,9.95-21.83,18.03-35.96,30.96-30.48,26.79-32,23.69-9.99-8.15-5.54-7.39Z"/><path class="cls-17" d="M322.74,325.93l-22.65,7.88,17.73,24.13,14.77,20.68s27.57-1.48,28.07-2.22c.49-.74,24.13-41.61,24.13-41.61l-33.98-11.82-28.07,2.95Z"/><path class="cls-17" d="M315.83,328.7c7.28,7.24,17.07,11.91,27.28,13.01,10.21,1.1,20.77-1.37,29.42-6.89.87-.56,1.76-1.18,2.24-2.09.76-1.44-1.94-3.04-2.37-4.61-2.47-8.87-1.25-17.9-3.71-26.77-5.98,2.76-14.19,2.94-20.78,2.95-7.19.01-19.97-2.82-26.44,1.32-2.8,1.8-5.22-6.61-5.85-3.51-.36,1.78-.66,25.73.21,26.59Z"/><path class="cls-3" d="M293.77,228.24c-1.86,6.33.41,14.03.41,14.03l3.19,37.77s2.15,9.05,3.79,12.63c2.07,4.51,3.8,11.68,9.03,16.77,3.05,2.97,11.81,8.46,16,10.34,9.02,4.04,26.79.42,26.79.42,0,0,14.9-7.42,19.5-13.22,5.46-6.9,7.61-15.86,9.74-24.98,4.14-17.8,4.43-39.14-6.3-55.49-13.8-21.02-37.94-15.41-57.85-5.74-3,1.45-5.95,2.97-8.91,4.48l-15.37,3Z"/><path class="cls-4" d="M338.88,274.09c-1.21,2.01-3.82,7.94-3.82,7.94,0,0-3.01,4.55-3.07,5.32l3.53,2.85s3.32,1.78,5,1.92l-.63-7-1-11.04Z"/><path class="cls-3" d="M381.1,261.67c2.16-3.89,4.93-9.09,10.26-7.42,3.13.99,4.45,4.92,4.52,7.94.15,6.66-7.74,20.27-7.74,20.27,0,0-5.11,4.57-8.5,6.25.08-.32.19-.67.36-.97l1.1-26.07Z"/><path class="cls-3" d="M293.97,257.83c-1.86-.05-4.79-1.04-6.39.2-1.71,1.32-1.57,4.86-1.9,6.78-.44,2.53-.87,4.69-.32,7.24,1.03,4.81,1.53,8.71,4.91,12.46,2.64,2.93,6.52,3.53,10.26,4.38,0,0-3.69-30.98-6.56-31.05Z"/><path class="cls-11" d="M331.01,300.4s2.64.08,6.89.41c1.83.14,6.42-.52,8.25-.7,1.44-.15,6.46-1.24,6.46-.31,0,.42-1.08,2.8-3.21,3.98-2.02,1.12-6.33,3.37-12.43,2.54-4.47-.62-8.96-4.63-8.96-4.63l-.41-1.8,3.41.52Z"/><path class="cls-1" d="M338.8,181.69s-11.17-.39-16.73,2.09c-7.13,3.18-13.82,7.64-20.07,12.29-4.62,3.44-8.82,7.24-11.96,12.12-2.97,4.61-7.7,23.05-6.73,37.78.76,11.44,10.24,25.58,13.56,28.19.97-2.61,8.07-14.55,8.71-15.28,5.55-6.33,6.97-6.91,10.51-9.62,5.45-4.17,13.6-10.66,13.6-10.66,0,0-7.24,9.87-7.49,10.34.87.27,11.58-1.26,14.37-2.8,3.07-1.69,9.26-9.69,9.41-9.62-.13-.03-.63.1-.38.03.25-.07,2.03,3.53,2.69,5.16,2.45,6.05,9.51,11.34,9.51,11.34,0,0,5.65,3.1,7.68,4.27,1.48.86,11.95,2.51,14.14,7.02,3.4,6.98,4.49,6.98,4.49,6.98l11.75-12.7s7.37-27.74,3.59-38.73c-1.37-3.99-3.82-9.37-5.62-13.17-1.8-3.8-16.5-16.62-21.66-18.86-3.78-1.64-17.08-4.02-19.76-4.39.09.07.14.16.16.28l-13.77-2.08Z"/><path class="cls-20" d="M328.18,271.12c-2.65-.1-10.42-1.27-10.42-1.27,0,0-5.31.09-10.41.38-.31-1.49,5.19-3.68,5.19-3.68,0,0,4.13-.8,5.87-.66,4.5.34,10.09,3.97,9.76,5.24Z"/><path class="cls-20" d="M351.93,269.43s4.9-1.91,8.24-2.2c4.02-.35,9.05,1.93,9.05,1.93,0,0,3.84,2.31,3.63,3.3-4.58-.69-9.19-1.12-13.82-1.29-2.08-.08-4.64.18-4.64.18,0,0-3.09.44-3.65.12-.66-.37,1.18-2.04,1.18-2.04Z"/><path class="cls-2" d="M433.36,354.98c-2.53-5.76-5.32-12.36-10.99-15.55-5.3-2.98-17.27-7.42-17.27-7.42,0,0-24.22-5.63-33.18-7.76-1.26,8.12-12.74,21.99-12.74,21.99,0,0-15.42,16.16-17.4,15.06-3.91-2.17-13.36-10.12-13.36-10.12,0,0-6.3-6.68-10.72-17.83l-2.65-9.11-7.85,1.59-35.16,16.04s-13.74,4.34-19.4,22.82c-1.63,5.3-10.57,31.55-10.57,31.55,0,0,3.67,2.1,7.55,3.19,26.09,9.24,43.4,13.58,43.4,13.58,0,0,47.66,1.51,68.48,2.23,15.74.54,31.34-1.4,31.34-1.4,0,0,17.48-4.25,30.64-7.89,7.66-2.12,17.65-4.52,25.15-8.06-3.25-11.61-6.36-17.03-6.36-17.03,0,0-5.23-17.5-8.9-25.87Z"/><path class="cls-5" d="M340.1,374.73c.59.46,1.99.89,1.99.89l16.26-15.35s15.48-14.91,25.9-33.12c-3.47-1.48-9-3.14-11.93-3.84-1.76,6.27-13.97,22.32-13.97,22.32,0,0-16.38,14.41-17.02,14.41-.75,0-12.5-9.56-12.5-9.56,0,0-5.85-5.74-10.27-16.88l-3.36-10.04-8,2.29-1.66.76c3.37,10.49,14.33,29.49,14.33,29.49,0,0,13,12.98,20.23,18.65Z"/><path class="cls-10" d="M332.79,271.86c.3.42-.84,2.56-.84,2.56l-2.22,2.23s-2.87,2.36-4.73,2.77c.19-2.47,6.14-6.08,7.78-7.56Z"/><path class="cls-10" d="M353.26,279.11s2.62,1.38,2.96,1.36-1.94-3.18-1.94-3.18l-2.82-2.68s-1.49-1.36-2.46-1.3c-.29,2.25,4.26,5.8,4.26,5.8Z"/></svg>