<?xml version="1.0" encoding="UTF-8"?><svg id="_레이어_1" xmlns="http://www.w3.org/2000/svg" viewBox="0 0 500 500"><defs><style>.cls-1{fill:#4c3c2f;}.cls-2{fill:#43325c;}.cls-3{fill:#e7c2a3;}.cls-4{fill:#db913e;}.cls-5{fill:#c2d88c;}.cls-6{fill:#3e68aa;}.cls-7{fill:#fff;}.cls-8{fill:none;}.cls-9{fill:#cd573d;}.cls-10{fill:#d7a67c;}.cls-11{fill:#c93f1e;}.cls-12{fill:#f9eeda;}.cls-13{fill:#efcb65;}.cls-14{fill:#4e8342;}.cls-15{fill:#6baf65;}.cls-16{fill:#e2a42c;}.cls-17{fill:#e8c08b;}.cls-18{fill:#847666;}.cls-19{fill:#e5dbeb;}.cls-20{fill:#37281b;}</style></defs><rect class="cls-8" width="500" height="500"/><path class="cls-19" d="M173.43,42.83c-28.43-2.91-78.32-3.97-78.32-3.97,0,0-40.7,10.23-51.63,27.8-12.35,19.86-14.41,36.37-17.21,55.6-10.87,74.76,6.26,108-1.76,183.12-1.67,15.66-3.71,52.22-4.41,67.95-1.77,39.71,22.06,67.95,22.06,67.95,0,0,65.01,23.39,105.02,18.53,82.63-10.02,135.87.94,219.09,2.67,32.5.68,69.01,1.09,92.3-21.59,12.5-12.17,21.29-46.73,21.29-46.73,0,0,.69-34.84-.91-52.2l-8.73-95.14c-1.75-19.06,2.77-88.92,4.38-102.73,3.31-28.46-2.21-56.26-2.21-56.26,0,0-8.97-29.15-29.12-39.71-19.8-10.38-58.99-11.46-80.75-10.59-62.2,2.49-137.45,10.59-189.08,5.3"/><polygon class="cls-12" points="191.23 99.21 74.15 193.85 73.09 327.13 302.85 327.13 302.29 196 191.23 99.21"/><polygon class="cls-18" points="71.96 200.15 71.73 214.07 71.49 228.3 71.23 244.34 70.99 258.51 70.73 274.57 70.31 299.95 69.15 331.42 83.92 331.42 83.57 294.67 83.62 275.78 83.66 259.01 83.7 241.44 83.75 219.62 83.81 193.06 71.96 200.15"/><polygon class="cls-6" points="156.86 219.95 156.86 244.07 157.59 266.2 156.86 289.14 156.86 314.5 157.83 327.81 193.31 329.91 216.83 328.42 217.77 304.85 218.05 277.49 219.08 257.2 219.08 234.01 218.76 219.95 185.33 219.14 156.86 219.95"/><path class="cls-16" d="M97.35,243.61c.67,0,8.78.16,17.28.16,9.84,0,18.6-.64,18.6-.64l-.32,51.26-23.41.64-12.61-.64.45-50.78Z"/><path class="cls-7" d="M101.52,249.1c.19,0,2.54.05,5,.05,2.85,0,5.38-.18,5.38-.18l-.09,14.84-6.77.18-3.65-.18.13-14.7Z"/><path class="cls-7" d="M118.81,249.05c.19,0,2.56.05,5.04.05,2.87,0,4.64-.14,4.64-.14l-.26,14.9-5.88.19-3.68-.19.13-14.81Z"/><path class="cls-7" d="M101.52,273.37c.19,0,2.54.05,5,.05,2.85,0,5.38-.19,5.38-.19l-.09,14.84-6.77.19-3.65-.19.13-14.7Z"/><path class="cls-7" d="M118.74,273.2c.2,0,2.6.05,5.12.05,2.91,0,4.71-.19,4.71-.19v15.18l-6.23.19-3.73-.19.13-15.04Z"/><path class="cls-16" d="M240.28,243.61c.67,0,8.78.16,17.28.16,9.84,0,18.6-.64,18.6-.64l-.32,51.26-23.41.64-12.61-.64.45-50.78Z"/><path class="cls-7" d="M244.45,249.1c.19,0,2.54.05,5,.05,2.85,0,5.38-.18,5.38-.18l-.09,14.84-6.78.18-3.65-.18.13-14.7Z"/><path class="cls-7" d="M261.74,249.05c.2,0,2.56.05,5.04.05,2.87,0,4.64-.14,4.64-.14l-.26,14.9-5.88.19-3.68-.19.13-14.81Z"/><path class="cls-7" d="M244.45,273.37c.19,0,2.54.05,5,.05,2.85,0,5.38-.19,5.38-.19l-.09,14.84-6.78.19-3.65-.19.13-14.7Z"/><path class="cls-7" d="M261.67,273.2c.2,0,2.6.05,5.12.05,2.91,0,4.71-.19,4.71-.19v15.18l-6.23.19-3.73-.19.13-15.04Z"/><polygon class="cls-18" points="294.96 198.07 294.58 213.62 294.28 229.14 295.03 255.77 294.66 274.52 294.12 302.51 293.6 329.16 305.87 329.91 305.68 308.38 305.53 290.67 305.36 271.1 305.17 249.86 304.98 228.92 304.75 202.8 294.96 198.07"/><polygon class="cls-9" points="242.97 105.35 242.42 126.05 242.42 147.56 267.25 160.4 267.25 125.29 266.42 105.35 254.7 103.82 242.97 105.35"/><path class="cls-14" d="M186.7,103.82c-19.9,17.01-39.25,34.53-61.06,49.14-13.2,8.84-27.43,16.56-39.07,27.51-4.26,4.01-8.38,8.92-11.6,13.81-2.46,3.73-3.32,10.99-3.32,10.99,0,0,8.34,1.78,12.27,1.26,5.92-.78,51.72.79,51.72.79l33.79-.93,35.68-.86s22.2-1.77,33.89-1.48c7.83.19,34.31.18,39.73.22,4.8.03,16.21-.19,21.01-.26,3.73-.06-.87-8.96-3.71-12.68-5.81-7.63-63.41-57.53-72.54-63.76-3.12-2.13-6.69-3.82-9.68-6.09-2.75-2.09-4.76-4.56-7.83-6.31l-19.29-11.35Z"/><path class="cls-7" d="M184.95,228.54l-12.45-.19-8.65.73-.57,11.68s.44,7.37.13,11.13c-.25,3.01.08,10.41.08,10.41,0,0,7.56.02,10.63-.07,2.86-.08,10.84.07,10.84.07l-.15-9.03.15-17.92v-6.81Z"/><path class="cls-7" d="M212.38,228.54l-12.45-.19-8.65.73-.57,11.68s.44,7.37.13,11.13c-.25,3.01.08,10.41.08,10.41,0,0,8.66.09,11.73,0,2.86-.08,9.73,0,9.73,0l-.15-9.03.15-17.92v-6.81Z"/><path class="cls-13" d="M213.13,272.74c-.8.02-2.78.08-2.78.08,0,0-.78,1.56-.8,2.39-.06,2.83-.42,5.75-.18,8.57.08,1,.56,5.74.56,5.74,0,0,1.6.31,2.41.2.89-.13,2.65-.35,2.65-.35l.03-7.92v-7.57l-1.89-1.13Z"/><path class="cls-15" d="M57.78,205.35l26.53-24.5,18.03-15.78,14.49-12.84,22.3-17.26,17.99-16.66,32.43-25.84,12.16,9.38,17.01,15.2,19.04,16.17,13.84,12.08,16.78,15.46,17.39,14.5,17.68,16.36s12.59,11.16,12.59,12.86-12.7,13.03-12.7,13.03l-13.94-11.84-28.81-22.41-24.26-18.78-26.68-26.57-18.99-16.38-11.66,8.88-19.49,16.1-32.11,27.64-27.22,23.92-28.57,21.15-8.92-7.28-4.94-6.6Z"/><path class="cls-17" d="M311.84,355.88l-20.19,7.02,15.8,21.51,13.17,18.44s24.59-1.32,25.02-1.98,21.51-37.1,21.51-37.1l-30.29-10.54-25.02,2.63Z"/><path class="cls-17" d="M305.69,358.35c6.49,6.45,15.22,10.62,24.32,11.6,9.1.98,18.52-1.22,26.23-6.15.78-.5,1.57-1.05,2-1.86.68-1.28-1.73-2.71-2.11-4.11-2.2-7.91-1.11-15.96-3.31-23.87-5.33,2.46-12.65,2.62-18.52,2.63-6.41.01-17.8-2.51-23.57,1.18-2.5,1.6-4.65-5.89-5.22-3.13-.32,1.59-.58,22.94.18,23.71Z"/><path class="cls-3" d="M286.01,268.77c-1.66,5.65.36,12.51.36,12.51l2.84,33.67s1.92,8.07,3.38,11.26c1.84,4.02,3.39,10.41,8.05,14.95,2.72,2.65,10.53,7.55,14.27,9.22,8.04,3.6,23.89.37,23.89.37,0,0,13.28-6.61,17.38-11.79,4.87-6.15,6.79-14.14,8.68-22.27,3.69-15.87,3.95-34.9-5.62-49.47-12.3-18.74-33.83-13.74-51.58-5.12-2.67,1.3-5.31,2.65-7.95,4l-13.7,2.67Z"/><path class="cls-4" d="M326.24,309.65c-1.08,1.79-3.41,7.08-3.41,7.08,0,0-2.69,4.05-2.73,4.75l3.14,2.54s2.96,1.59,4.46,1.72l-.57-6.24-.9-9.84Z"/><path class="cls-3" d="M363.87,298.59c1.93-3.47,4.4-8.11,9.14-6.61,2.79.88,3.97,4.39,4.03,7.08.14,5.94-6.9,18.07-6.9,18.07,0,0-4.56,4.08-7.58,5.57.07-.29.17-.6.32-.87l.98-23.25Z"/><path class="cls-3" d="M286.19,295.16c-1.66-.04-4.27-.92-5.7.18-1.52,1.18-1.4,4.34-1.69,6.04-.39,2.25-.77,4.18-.29,6.45.92,4.29,1.36,7.76,4.37,11.11,2.36,2.62,5.81,3.15,9.15,3.91,0,0-3.29-27.62-5.84-27.69Z"/><path class="cls-11" d="M319.21,333.12s2.36.07,6.14.37c1.63.13,5.72-.46,7.35-.63,1.29-.13,5.76-1.11,5.76-.28,0,.38-.96,2.49-2.86,3.55-1.8,1-5.64,3.01-11.08,2.26-3.99-.55-7.99-4.12-7.99-4.12l-.37-1.61,3.04.46Z"/><path class="cls-1" d="M326.17,227.27s-9.95-.35-14.92,1.86c-6.36,2.84-12.32,6.82-17.9,10.96-4.12,3.06-7.87,6.46-10.66,10.8-2.64,4.11-6.87,20.55-6,33.68.68,10.2,9.13,22.81,12.09,25.13.87-2.33,7.2-12.97,7.77-13.62,4.95-5.64,6.22-6.16,9.37-8.58,4.86-3.72,12.12-9.5,12.12-9.5,0,0-6.45,8.8-6.68,9.22.78.24,10.32-1.12,12.82-2.49,2.74-1.51,8.26-8.64,8.39-8.58-.11-.03-.56.09-.34.03.22-.06,1.81,3.14,2.4,4.6,2.18,5.39,8.48,10.11,8.48,10.11,0,0,5.03,2.76,6.85,3.81,1.32.76,10.65,2.24,12.61,6.26,3.03,6.22,4,6.22,4,6.22l10.47-11.33s6.57-24.73,3.2-34.53c-1.22-3.56-3.41-8.36-5.01-11.74-1.6-3.39-14.71-14.82-19.32-16.81-3.37-1.46-15.23-3.59-17.62-3.91.08.06.13.15.14.25l-12.28-1.85Z"/><path class="cls-20" d="M316.69,307.01c-2.36-.09-9.29-1.13-9.29-1.13,0,0-4.73.08-9.28.34-.28-1.32,4.63-3.28,4.63-3.28,0,0,3.68-.71,5.23-.59,4.01.3,9,3.54,8.7,4.67Z"/><path class="cls-20" d="M337.87,305.5s4.37-1.7,7.34-1.96c3.59-.31,8.07,1.72,8.07,1.72,0,0,3.42,2.06,3.24,2.94-4.08-.61-8.19-1-12.32-1.15-1.86-.07-4.13.16-4.13.16,0,0-2.75.39-3.25.11-.59-.33,1.05-1.82,1.05-1.82Z"/><path class="cls-2" d="M410.47,381.77c-2.25-5.13-4.74-11.02-9.8-13.86-4.72-2.66-15.4-6.62-15.4-6.62,0,0-21.59-5.02-29.58-6.92-1.12,7.24-11.36,19.61-11.36,19.61,0,0-13.75,14.41-15.51,13.43-3.48-1.93-11.91-9.02-11.91-9.02,0,0-5.62-5.96-9.56-15.89l-2.36-8.12-7,1.42-31.35,14.3s-12.25,3.87-17.3,20.34c-1.45,4.73-9.43,28.13-9.43,28.13,0,0,3.27,1.87,6.73,2.84,23.26,8.24,38.7,12.11,38.7,12.11,0,0,42.49,1.34,61.06,1.99,14.03.49,27.94-1.25,27.94-1.25,0,0,15.58-3.79,27.32-7.03,6.83-1.89,15.74-4.03,22.42-7.18-2.9-10.35-5.67-15.19-5.67-15.19,0,0-4.66-15.6-7.94-23.07Z"/><path class="cls-5" d="M327.32,399.38c.52.41,1.78.79,1.78.79l14.5-13.69s13.8-13.29,23.09-29.53c-3.09-1.32-8.02-2.8-10.64-3.42-1.57,5.59-12.45,19.9-12.45,19.9,0,0-14.61,12.84-15.18,12.84-.67,0-11.14-8.53-11.14-8.53,0,0-5.22-5.12-9.16-15.05l-2.99-8.95-7.13,2.04-1.48.68c3.01,9.35,12.77,26.29,12.77,26.29,0,0,11.59,11.57,18.04,16.63Z"/><path class="cls-10" d="M320.8,307.67c.27.38-.74,2.28-.74,2.28l-1.98,1.99s-2.56,2.1-4.22,2.47c.17-2.2,5.47-5.42,6.94-6.74Z"/><path class="cls-10" d="M339.06,314.13s2.34,1.23,2.64,1.21-1.73-2.83-1.73-2.83l-2.51-2.39s-1.33-1.21-2.19-1.16c-.26,2.01,3.8,5.17,3.8,5.17Z"/></svg>