<?xml version="1.0" encoding="UTF-8"?><svg id="_레이어_1" xmlns="http://www.w3.org/2000/svg" viewBox="0 0 500 500"><defs><style>.cls-1{fill:#cc5562;}.cls-2{fill:#efd0a9;}.cls-3{fill:#bc3e52;}.cls-4{fill:#ebda7d;}.cls-5{fill:#976d65;}.cls-6{fill:#e7e3e0;}.cls-7{fill:#f8ece2;}.cls-8{fill:#b4a7a0;}.cls-9{fill:none;}.cls-10{fill:#8a3229;}.cls-11{fill:#9b2038;}.cls-12{fill:#eedb73;}.cls-13{fill:#6ab184;}.cls-14{fill:#ac9992;}.cls-15{fill:#dfa2b2;}.cls-16{fill:#cfb09b;}.cls-17{fill:#533027;}.cls-18{fill:#251e1c;}.cls-19{fill:#305547;}.cls-20{fill:#967e77;}.cls-21{fill:#95c7bc;}.cls-22{fill:#314d9b;}.cls-23{fill:#aa8a82;}.cls-24{fill:#a8762a;}.cls-25{fill:#4b7f42;}.cls-26{fill:#f3ddb5;}.cls-27{fill:#93622c;}.cls-28{fill:#9f856e;}.cls-29{fill:#9a4629;}.cls-30{fill:#8ebe75;}</style></defs><rect class="cls-9" width="500" height="500"/><path class="cls-17" d="M61.54,252.61c-1.4,27.84,2.78,83.4,2.78,83.4l115.7,6.27,106.74-1.37s64.27.85,96.31,2.86c1.37-55.54,2.75-111.19,10.65-166.33,2.08-14.53,4.62-29.12,3.82-43.74-.14-2.61-.49-5.41-2.54-7.36-2.64-2.5-7.09-2.69-11.04-2.66-40.17.32-80.14,4.78-120.26,6.49-49.13,2.11-98.35.05-147.49,1.78-13.27.47-31.94-.37-42.16,8.41-11.72,10.06-8.39,29.92-9.03,42.67-1.16,23.19-2.33,46.38-3.49,69.57Z"/><path class="cls-20" d="M480,151.53l-32.91,3.13s-6.87,20.21-9.21,17.76c-2.08-2.17-2.46-5.42-2.67-8.41-1.17-17.15.19-34.47,3.92-51.25,1.51-6.82,20.95-48.54,20.95-48.54l11.6,50.72,8.32,36.59Z"/><path class="cls-23" d="M417.29,350.65l-112.94-4.02s-20.62-140.25-2.45-210.18c22.37,1.19,98.38.17,109.06,8.22,7.15,5.39.81,16.53.82,22.24.02,8.36.16,16.73.41,25.1,1.04,34.01,4.03,68.09,8.97,102.22.68,4.73-3.87,56.44-3.87,56.44Z"/><path class="cls-24" d="M224.1,181.19c0,54.18,0,108.35-.01,162.53-41.72,2.16-83.56,1.95-125.26-.63-4.75-.29-.19-117.32.76-128,1.13-12.78,1.08-27.67,14.76-33.12,10.92-4.36,25.57-.79,36.93-.5,24.24.61,48.58-.16,72.83-.28Z"/><path class="cls-23" d="M118.9,346.57v-68.26l2.67-66.17s1.95-25.77,2.13-36.22c.07-3.95-10.17-5.81-11.66-9.44-1.8-4.37-5.05-3.32-10.42-3.78-19.16-1.64-38.33-3.19-57.51-4.64,0,.21,0,.42-.01.62-.1,22.41.87,74.87.87,74.87v86.2l.67,18.57,26.57,3.25,46.69,4.99Z"/><path class="cls-5" d="M456.66,147.21l.7,37.37,4.88,140-20.9,12.01-23.49,14.09-6.51-62.78-3.29-144.69s.04-4.29.68-6.35c.97-3.1,3.29-5.75,5.56-8.31,5.71-6.46,11.42-12.92,17.13-19.38,5.61-6.35,18.28-12.99,19.67-14.77l5.57,52.8Z"/><path class="cls-28" d="M191.27,202.03c-.66.45,30.33-32.19,19.48-46.88-10.03-13.58-35.74-11.13-50.27-11.65-22.49-.81-45.01-.36-67.5.44-24.36.87-35.31-6.16-59.68-5.47-.29,12.17-13.65,33.71-13.29,46.31l24.28,1.22,146.98,16.02Z"/><path class="cls-16" d="M408.03,190.52l-2.18,5.09-57.84,3.29-56.77-1.04s-83.61.72-125.04-5.57c8.56-19.72,15.01-35.62,23.57-55.34.65-1.5,1.38-3.09,2.77-3.96,1.35-.84,3.05-.83,4.64-.79,33.6.87,67.21,1.74,100.81,2.61,20.59.53,41.24,1.06,61.74-.9,10.4-.99,59.43-14.32,64.61-3.3,2.29,4.86-5.13,18.25-6.45,23.2-3.28,12.24-9.85,36.72-9.85,36.72Z"/><path class="cls-6" d="M326.79,297.13c-4.34-1.85-19.29-3.2-27.99-.44-11.65,3.7-20.2,10.52-24.19,21.66-4.9,13.67,2.64,27.75,6.48,32.13,3.32,3.78,10.91,8.58,10.91,8.58,0,0,20.4,8.14,40.64-3.34,11.5-6.52,17.82-20.08,16.29-32.42-1.54-12.34-9.88-20.94-22.14-26.17ZM333.37,348.3c-2.9,1.69-5.29,6.35-8.1,7.18-4.74,1.41-11.28.09-15.15.91-8.62,1.83-14.72-1.74-14.72-1.74,0,0-7.41-5.95-10.45-9.4-3.52-4-11.61-13.19-7.13-25.69,3.65-10.19,11.84-16.74,22.49-20.12,7.95-2.53,21.4-.96,25.37.74,11.21,4.78,18.21,12.33,19.62,23.62,1.41,11.29-3.08,19.33-11.94,24.5Z"/><path class="cls-18" d="M286.67,300.75c14.98,18.77,30.35,37.22,46.12,55.34.55.64,1.47-.29.92-.92-15.76-18.12-31.14-36.57-46.12-55.34-.52-.66-1.44.27-.92.92h0Z"/><path class="cls-18" d="M298.73,358.75c-.67-4.34-.07-7.05,3.14-9.99,1.43-1.31,2.5-2.09,3.39-3.84,2.18-4.29,3.63-9.21,5.47-13.67,4.85-11.74,9.6-23.53,14.52-35.24.32-.77-.94-1.11-1.26-.35-5.44,12.96-10.67,26-16.06,38.97-1.12,2.7-2.2,5.39-3.23,8.12-1.18,3.14-3.53,4.27-5.54,6.64-2.38,2.8-2.22,6.28-1.69,9.7.13.83,1.39.48,1.26-.35h0Z"/><path class="cls-18" d="M274.29,336.63c24.97-4.62,49.84-9.71,74.61-15.27.82-.18.47-1.44-.35-1.26-24.77,5.56-49.65,10.65-74.61,15.27-.83.15-.48,1.41.35,1.26h0Z"/><path class="cls-22" d="M355.8,321.32c-1.83-15.13-11.79-25.67-26.41-32.08-5.18-2.27-23.01-3.92-33.39-.53-13.9,4.54-24.09,12.9-28.86,26.56-5.85,16.76,3.47,29.76,8.05,35.13,3.96,4.63,12.06,10.58,12.06,10.58,0,0,5.87,1.63,21.29,1.18,5.15-.15,19.85-2.35,19.85-2.35,0,0,10.32-.75,13.98-3.4,7.58-5.49,15.26-19.94,13.42-35.07ZM332.45,353c-6.01,6.53-13.61,4.28-19.33,5.49-11.75,2.48-19.2-2.26-19.2-2.26,0,0-7.65-4.93-10.97-8.71-3.84-4.38-13.25-15.49-8.34-29.16,4-11.14,12.54-17.96,24.19-21.66,8.7-2.76,23.65-1.42,27.99.44,12.25,5.23,20.6,13.83,22.14,26.17.52,4.14-.16,7.75-1.62,11.08-2.07,4.72-3.85,10.55-9.1,13.79-2.53,1.56-4.04,2.98-5.75,4.83Z"/><path class="cls-8" d="M228.19,74.15l-181.49,2.74c-.73,3.76-2.94,8.18-3.95,11.46-2.79,9.13-5.59,18.27-8.38,27.4-1.03,3.38-8.16,29.63-12.72,44.08,7.33.48,33.47,2.14,41.97,2.14,9.93,0,37.62,3.13,49.63,2.61,12.02-.52,39.18,2.09,52.77,2.09s44.93-.52,57.99.52c13.06,1.04,41.27-.52,54.86-.52s43.2.2,52.77,0c11.21-.23,50.55-1.72,61.12-2.09,9.93-.35,42.22-1.22,47.02-1.57,4.58-28.51,20.36-98.9,20.36-98.9l-231.94,10.02Z"/><path class="cls-3" d="M142.75,329.81c5.18,4.97,15.86,14.59,15.86,14.59,0,0,9.19,8.22,12.67,11.93,1.76,1.88,1.15,4.79,1.15,4.79,0,0-2.55,4.3-4.23,5.94-1.64,1.61-3.52,2.87-5.84,3.17-2.96.39-5.98-1.94-8.89-2.34-8.86-1.22-17.17-.9-26.04-1.96-7.4-.89-15.23-1.56-22.51-3.04.51-.34.65-1.17.95-1.69.37-.64.78-1.33,1.19-1.93.92-1.33,2.05-2.41,3.08-3.59,2.56-2.94,5.55-5.59,8.02-8.52,1.23-1.46,2.13-3.22,3.4-4.65,1.29-1.46,2.75-2.81,4.07-4.24.67-.73,1.18-1.51,1.87-2.21.61-.62,1.17-.91,1.91-1.35,1.05-.63,2.14-1.64,2.93-2.58.49-.58.94-1.17,1.46-1.73.46-.5,1.1-.9,1.67-1.38.48-.4.91-.84,1.52-1.14.75-.37,1.46.22,2.09-.28-.22-.18-.03-.1-.03-.17l3.71,2.35Z"/><path class="cls-11" d="M137.33,349.34c-3.86-3.69-7.75-7.47-11.39-11.42-.11.12-.21.25-.32.37-1.31,1.43-2.77,2.78-4.07,4.24-1.27,1.43-2.17,3.2-3.4,4.65-2.47,2.93-5.45,5.58-8.02,8.52-1.03,1.18-2.16,2.26-3.08,3.59-.41.6-.82,1.29-1.19,1.93-.31.53-.44,1.35-.95,1.69,7.28,1.48,21.8,4.47,21.8,4.47,0,0,17.81.93,26.67,2.15,2.92.4,8.97.72,8.97.72,0,0,2.57-.69,3.66-1.4-5.69-3.32-11.3-7.07-16.7-10.81-4.01-2.79-8.46-5.3-12-8.69Z"/><path class="cls-1" d="M39.15,347c10.18-9.13,30.22-23.83,30.22-23.83,0,0,5.79-4.9,8.82-7.16,1.99-1.48,6.59-4.04,6.59-4.04,0,0,3.72-.39,5.5-.46,3.63-.14,7.24-.12,10.87.1,6.24.38,18.72,1.41,18.72,1.41,0,0,13.4-.69,20.16.02.55,3,1.71,8.98,1.71,8.98,0,0,1.06,3.63,1.72,5.4.47,1.26.98,4.04.98,4.04l-2.81,4.23s-5.25,4.67-7.91,6.96c-6.19,5.34-18.01,16.65-18.01,16.65l-13.67,10.07s-9.43-.39-12.8-1c-5.15-.93-15.47-2.61-15.47-2.61,0,0-12.25-1.58-18.45-1.79-3.59-.12-10.4-1.55-10.4-1.55,0,0-4.31-9.62-4.68-10.68l-1.08-4.75Z"/><path class="cls-15" d="M78.92,349.72s7.38.31,11.58,1.16c2.5.51,7.33-.24,7.33-.24,0,0,6.98-6.12,9.79-8.92,6.28-6.27,19.46-18.22,19.46-18.22l7.29-7.53s1.93-2.11,2.91-3.16c-5.82-.32-16.14-.37-16.14-.37,0,0-13.75-.47-19.99-.84-3.62-.22-7.24-.24-10.87-.1-1.78.07-3.78-.08-5.5.46-2.41.75-4.6,2.56-6.59,4.04-3.04,2.27-6.94,4.51-9.87,6.91-9.41,7.71-18.42,14.36-27.71,22.82,7.58,1.1,22.81,2.88,22.81,2.88l15.48,1.1Z"/><path class="cls-10" d="M143.35,372.17c5.98.76,17.94,1.89,17.94,1.89,0,0,5.48,1.06,8.28,1.3,0,0,.4,6.48-1.04,6.22-3.49-.62-26.23-2.54-26.23-2.54,0,0-2.91-2.4-1.72-5.82l2.77-1.04Z"/><path class="cls-29" d="M98.45,343.89c-4.21-5.4-12.2-16.44-12.2-16.44,0,0-4.23-4.74-6.08-7.33-1.43-2.01-5.12-5.56-5.12-5.56,0,0-2.37.17-3.71,1.39-1.54,1.39-.08,3.51-.08,3.51,0,0,9.29,12.74,13.65,19.27,1.66,2.49,6.91,10.15,6.91,10.15,0,0,4.18,1.45,7.11-1.7l-.48-3.31Z"/><path class="cls-29" d="M50.16,340.37c-3.58-4.59-10.38-13.98-10.38-13.98,0,0-3.6-4.03-5.17-6.24-1.22-1.71-4.36-4.73-4.36-4.73,0,0-2.01.15-3.16,1.18-1.31,1.19-.07,2.99-.07,2.99,0,0,7.9,10.84,11.61,16.4,1.41,2.11,5.88,8.64,5.88,8.64,0,0,3.56,1.23,6.05-1.44l-.41-2.81Z"/><path class="cls-10" d="M83.44,315.39c-.02-6.03-.47-18.03-.47-18.03,0,0,.33-5.57.21-8.37-.1-2.17.5-6.62.5-6.62,0,0,1.94-2.98,3.46-2.8,1.73.2,1.57,4.34,1.57,4.34,0,0,.47,13.89.98,20.81.19,2.63,1.24,10.89,1.24,10.89,0,0-1.53.75-3.41,1l-4.08-1.22Z"/><path class="cls-7" d="M135.26,321.32c-1.62-.82-4.57-.39-4.57-.39,0,0-2.08.76-1.96,1.63.12.88,2.48,1.24,2.48,1.24,0,0,1.34-.16,2.23-.22,1.05-.08,2.29-.32,2.7-1.28.08-.19-.63-.84-.89-.98Z"/><path class="cls-14" d="M422.5,65.75c-8.5,33.32-18.33,66.28-29.45,98.83,3.61-.12,9.88-.31,16.71-.52,11-32.61,20.7-65.64,29.07-99.01l-16.33.71Z"/><path class="cls-14" d="M387.14,67.28c-9.7,32.7-18.9,65.54-27.61,98.51,5.58-.2,11.24-.4,16.37-.59,8.77-33.02,18.04-65.9,27.8-98.64l-16.57.72Z"/><path class="cls-14" d="M350.55,68.86c-8.48,32.56-16.95,65.13-25.43,97.69-.02.07-.03.13-.04.2,2.65-.01,4.9-.04,6.55-.07,2.26-.05,5.66-.15,9.73-.27,8.53-32.75,17.05-65.5,25.58-98.25l-16.38.71Z"/><path class="cls-14" d="M315.23,70.39c-8.35,32.11-16.69,64.21-25.04,96.32,5.07.02,10.69.04,16.18.05,8.41-32.36,16.82-64.72,25.24-97.07l-16.38.71Z"/><path class="cls-14" d="M278.98,71.95c-8.08,31.76-16.17,63.53-24.25,95.29,5.75-.16,11.39-.34,16.29-.45,8.11-31.85,16.21-63.7,24.32-95.54l-16.35.71Z"/><path class="cls-14" d="M240.66,73.61c-8.11,31.37-17.41,62.42-27.85,93.1,4.38.1,8.26.26,11.2.49,1.5.12,3.22.2,5.08.26,10.5-31.16,19.83-62.7,27.93-94.56l-16.36.71Z"/><path class="cls-14" d="M205.34,74.49c-9.03,30.58-17.64,61.29-25.81,92.12,5.08-.03,10.67-.06,16.23-.06,8.23-30.89,16.89-61.66,25.99-92.3l-16.41.25Z"/><path class="cls-14" d="M169.14,75.04c-7.88,30.26-15.76,60.52-23.63,90.78,5.76.34,11.33.65,15.99.78,7.97-30.6,15.93-61.21,23.9-91.81l-16.26.25Z"/><path class="cls-14" d="M134.07,75.57c-7.72,29.69-15.44,59.38-23.16,89.08.83,0,1.62-.02,2.34-.06,3.54-.15,8.39-.04,13.82.21,7.75-29.82,15.51-59.65,23.26-89.47l-16.26.25Z"/><path class="cls-14" d="M98.09,76.11c-7.34,28.83-14.68,57.67-22.02,86.5,4.91.35,10.45.79,15.87,1.18,7.46-29.31,14.92-58.62,22.38-87.92l-16.24.25Z"/><path class="cls-14" d="M62.83,76.65c-7.31,28.12-14.62,56.25-21.93,84.37,5.61.32,11.37.62,15.99.79,7.4-28.47,14.8-56.94,22.2-85.41l-16.26.25Z"/><path class="cls-27" d="M205.9,257.06s-.45,11.45-.28,16.51c.06,1.82.28,5.43.28,5.43l5.69.36.23-22.3h-5.92Z"/><path class="cls-12" d="M414.33,435.82l13.19-.33,3.2-.33s.24-1.62.26-1.9c.07-.86,0-1.27.07-2.12-8.02,1.09-16.25.41-24.33.13-4.06-.14-8.13-.29-12.2-.25-1.2.01-4.45.53-4.45.53,0,0-.15,3.01.01,3.78,7.83.77,24.25.5,24.25.5Z"/><path class="cls-26" d="M406.2,403.83s-3.13,5.34-6.11,6.6c-2.43,1.03-6.86,3.12-6.86,3.12,0,0-.66,1.42-.84,2.16-1.17,4.93-2.43,15.63-2.27,15.94.39.77,9.91,1.04,9.91,1.04l20.03.41s10.68-.75,11.03-1.16c.25-.3.56-12.23-.96-17.67-.18-.64-.85-1.84-.85-1.84l-4.03-1.3s-5.98-1.82-7.65-3.97c-.93-1.2-1.23-2.66-1.46-4.08-.48-2.93-.75-5.88-.81-8.84-2.08.45-7.12.4-7.88,1.94-.5,1.02-.16,2.82-.32,3.94-.18,1.25-.9,3.69-.9,3.69Z"/><path class="cls-13" d="M406.53,422.73c-.15,2.17-.4,4.34-.74,6.49,1.67.07,3.33.12,5,.17.06-2.18.11-4.36.17-6.54-1.48-.05-2.95-.1-4.43-.12Z"/><path class="cls-25" d="M410.96,422.85c-.06,2.18-.11,4.36-.17,6.54.04,0,.08,0,.12,0,.02-.08.03-.16.05-.24-.02.08-.03.16-.05.24,1.69.04,3.38.07,5.08.08-.56-2.13-.96-4.29-1.22-6.47-1.27-.05-2.53-.1-3.8-.15Z"/><path class="cls-19" d="M419.19,423.13s-2.95-.08-4.43-.13c.25,2.18.66,4.35,1.22,6.47.04,0,4.06.01,4.06.01l-.85-6.35Z"/><path class="cls-21" d="M403.51,422.72c-.45,0-1.3.25-1.3.25l-.53,2.49-.38,3.54s2.99.15,4.49.22c.34-2.15.59-4.32.74-6.49-1-.01-2.01-.02-3.02,0Z"/><path class="cls-30" d="M408.79,352.94c.85-6.54,1.86-13.46,6.05-18.54,1.22-1.48,2.72-2.78,4.49-3.52,1.86-.78,3.94-.9,5.95-.67,5.69.65,10.84,4.09,14.33,8.64,3.49,4.54,5.46,10.11,6.5,15.74.36,1.96.62,3.98.28,5.94-.34,1.97-1.36,3.89-3.06,4.93-2.72,1.66-6.25.67-9.12-.71s-5.77-3.17-8.95-2.98c-1.46.09-2.87.59-4.23,1.13-1.26.49-2.51,1.01-3.75,1.56-1.62.72-3.32,1.5-5.08,1.31-5-.53-3.85-9.49-3.41-12.82Z"/><path class="cls-30" d="M424.95,369.19c3.78,1.71,7.2,4.41,9.23,8.02,2.3,4.09,2.64,9.1,1.55,13.67-.35,1.44-.84,2.87-1.67,4.1-2.12,3.14-6.04,4.48-9.73,5.37-4.4,1.05-8.95,1.76-13.44,1.23s-8.95-2.4-11.91-5.82c-.37-.43-.72-.89-.88-1.43-.28-.95.11-1.98.64-2.81,1.63-2.56,4.55-3.96,6.78-6.03,2.18-2.02,3.64-4.77,4.23-7.67.32-1.56.39-3.16.19-4.74-.17-1.35-1.14-3.07-.7-4.39,1.8-5.49,12.71-.85,15.71.51Z"/><path class="cls-30" d="M382.75,419.02c.31-.65.15-1.31-.06-1.92-.38-1.11-.95-2.21-2.1-2.98-1.99-1.33-5.27-1.44-7.89-2.21-3.02-.89-5.2-2.73-5.84-4.96-.33-1.12-.28-2.33-.6-3.45-.32-1.13-1.09-2.22-2.6-2.69-1.74-.53-4.1-.08-5.9.8s-3.15,2.12-4.39,3.36c-2,2-3.82,4.06-5.47,6.16-3.35,4.26-6.06,8.91-5.53,13.28.54,4.37,5.17,8.29,11.84,8.24,1.8-.01,3.65-.31,5.46-.68,9.91-2.06,23.08-12.95,23.08-12.95Z"/><path class="cls-26" d="M413.93,361.17c2.29,1.76,2.87,3.63,2.87,4.9,0,3.85-3.07,5.27-3.07,5.27,0,0-2.87,1.52-6.03-.25s-4.62-6.35-1.52-8.96c2.08-1.75,5.68-2.54,7.74-.95Z"/><path class="cls-2" d="M427.41,404.25c-12.82-24.44-23.57-50.16-31.95-76.46l.81-.26c8.36,26.25,19.1,51.93,31.9,76.32l-.75.4Z"/><path class="cls-2" d="M373.41,381.19l-.38-.76c24.77-12.18,50.77-22.25,77.27-29.93l.24.82c-26.46,7.67-52.41,17.72-77.13,29.88Z"/><path class="cls-2" d="M395.86,404.4l-.81-.26c8.21-25.7,19.16-51.65,32.55-77.13l.75.4c-13.37,25.44-24.3,51.34-32.49,76.99Z"/><path class="cls-2" d="M448.71,384.65c-24.04-13.45-49.42-24.87-75.43-33.94l.28-.8c26.06,9.08,51.48,20.52,75.57,34l-.42.74Z"/><path class="cls-4" d="M452.62,350.19c-2.35-9.4-9.49-16.71-17.78-21.73-3.47-2.1-7.23-3.74-11.19-4.63-8.34-1.87-16.47-1.76-24.49.76-3.59,1.12-13.76,5.75-17.94,10.27-9.73,10.54-12.06,20.44-12.54,24.55-.63,5.39-1.11,11.85,1.01,18.31,2.85,8.68,8.2,16.57,15.41,22.18,7.21,5.61,16.28,8.88,25.41,8.85,3.95-.01,7.88-.63,11.72-1.56,8.09-1.97,15.54-5.25,20.97-11.55,6.54-7.59,10.22-17.52,10.97-27.51.41-5.49-.23-12.59-1.57-17.94ZM443.11,391.63c-2.17,3.37-10.52,10.81-25.67,14.47-13.29,3.21-28.76-5.03-38.14-14.98-2.09-2.22-7.87-13.42-8.18-19.5-.35-6.66,0-12.01,2.29-18.21,2.21-5.97,4.98-11.88,9.39-16.56,8.64-9.17,22.25-12.1,34.81-11.1,7.47.59,15.31,3.57,19.33,6.7,9.74,7.56,15.08,20.88,14.8,28.39-.7,18.81-4.77,24.79-8.64,30.81Z"/><path class="cls-4" d="M421.93,367.58c.6-2.58-.23-5.25-1.62-7.51-.58-.94-1.29-1.81-2.15-2.52-1.8-1.5-3.79-2.48-6.06-2.87-1.01-.17-4.07-.32-5.65.26-3.68,1.35-5.49,3.47-6.12,4.41-.82,1.23-1.75,2.75-2.04,4.58-.39,2.47-.07,5.06.99,7.32,1.06,2.27,2.86,4.19,5.08,5.32.96.49,2,.83,3.05,1.08,2.22.53,4.44.66,6.55-.2,2.54-1.03,4.67-2.99,6.1-5.33.79-1.29,1.51-3.1,1.86-4.56ZM414.44,376.48c-.95.55-3.91,1.32-8.05.32-3.64-.88-6.38-4.81-7.42-8.4-.23-.8-.03-4.62.44-5.77.68-1.66,1.5-2.92,2.83-4.15,1.28-1.18,2.69-2.27,4.35-2.86,3.25-1.15,6.93-.17,9.86,1.64,1.75,1.08,3.28,2.78,3.87,4.04,1.43,3.06,1.07,6.97.06,8.76-2.52,4.49-4.25,5.44-5.95,6.42Z"/></svg>