<?xml version="1.0" encoding="UTF-8"?><svg id="_레이어_1" xmlns="http://www.w3.org/2000/svg" viewBox="0 0 500 500"><defs><style>.cls-1{fill:#508743;}.cls-2{fill:#fff;}.cls-3{fill:none;}.cls-4{fill:#b7863b;}.cls-5{fill:#698cbd;}.cls-6{fill:#8f5d2e;}.cls-7{fill:#90abd4;}.cls-8{fill:#64a745;}.cls-9{fill:#f1e944;}.cls-9,.cls-10{opacity:.76;}.cls-11{fill:#a0c2e7;}.cls-12{fill:#599744;}.cls-13{fill:#95c7be;}.cls-10{fill:#dcbc44;}</style></defs><rect class="cls-3" width="500" height="500"/><path class="cls-13" d="M469.89,163.22s5.36-83.39-8.15-99.27c-16.59-19.49-36.5-36.36-60.99-38.71-24.48-2.35-66.7-1.71-91.17.76-50.1,5.06-96.46,0-96.46,0,0,0-50.46-2.51-67.93-4.38-31.1-3.33-74.72,14.6-74.72,14.6,0,0-25.81,11.68-35.32,32.12-11.72,25.18-7.26,128.52-8.15,129.92l-6.79,128.46s-1.65,79.28,4.08,93.43c13.59,33.58,37.02,49.7,58.59,56.24,21.57,6.53,108.51-2.23,108.51-2.23l188.43.39s44.04-4.96,64.42-13.8c11.56-5.01,27.47-22.57,32.44-47.91,6.3-32.08,2.05-53.42,0-86.13-1.35-21.57-5.98-61.6-5.43-83.21.58-22.84-1.36-80.29-1.36-80.29Z"/><path class="cls-13" d="M471.36,234.51c0,.17,0,.34,0,.51,0-.17,0-.34,0-.51Z"/><path class="cls-13" d="M476.69,333.91c1.11,19.03,2.86,34.49,3.24,50.14.52-18.46-1.85-35.33-3.24-57.34-1.26-20.12-5.38-56.31-5.48-78.62-.04,23.9,4.19,63.8,5.48,85.82Z"/><path class="cls-7" d="M471.36,233.9c0,.2,0,.41,0,.61,0-.2,0-.4,0-.61Z"/><path class="cls-7" d="M471.21,248.09c0-1.29.01-2.55.04-3.74.06-2.7.1-5.86.11-9.34,0,3.15-.04,6.02-.11,8.49-.04,1.45-.05,2.99-.04,4.59Z"/><path class="cls-5" d="M82.88,476.38c21.57,6.53,108.51-2.23,108.51-2.23l188.43.39s44.04-4.96,64.42-13.8c11.56-5.01,27.47-22.57,32.44-47.91,2.06-10.49,2.99-19.82,3.24-28.79-.38-15.64-2.13-31.1-3.24-50.14-1.28-22.02-5.51-61.93-5.48-85.82,0-1.6,0-3.14.04-4.59.06-2.46.1-5.33.11-8.49,0-.17,0-.34,0-.51,0-.2,0-.4,0-.61,0-.5,0-1,0-1.52-148.96,5.08-297.92,10.01-446.88,14.8l-4.26,86.73s-.17,9.07-.21,21.82c.08,24.17.86,55.94,4.29,64.4,13.59,33.58,37.02,49.71,58.59,56.24Z"/><path class="cls-4" d="M24.3,420.14c13.59,33.58,37.02,49.71,58.59,56.24,21.57,6.53,108.51-2.23,108.51-2.23l188.43.39s44.04-4.96,64.42-13.8c10.29-4.46,24.02-18.87,30.42-39.84-22.82-13.28-41.75-21.49-41.75-21.49l-348.31-101.89s-29.86-19.61-61.36-27.87l-3.02,57.06s-1.65,79.28,4.08,93.43Z"/><path class="cls-6" d="M63.6,278.13c-6.5,2.38-13.59,3.09-20.43,2.05,9.97,1.52,2.75,86.7,2.75,86.7h15.57s2.33-78.8,2.12-88.75Z"/><path class="cls-6" d="M232.77,355.37c-.18-5.17-.42-10.54-2.81-15.13-2.39-4.59-7.61-8.15-12.63-6.9.05,11.03-4.15,79.26-4.15,79.26l18.12.7s1.66-52.74,1.47-57.92Z"/><path class="cls-12" d="M305.86,305.97c-2.12-2.49-5.53-9.37-7.67-11.85-15.34-17.78,9.76-36.24,1.39-62.72-3.47-10.98-15.76-16.56-21.6-26.48-5.03-8.53-4.15-9.71-4.53-19.61-.71-18.53-8.13-34.37-25.43-41.02-17.31-6.65-43.37-.61-48.49,17.21-2.92,10.19-.47,22.25-6.92,30.67-5.81,7.59-16.63,9.14-24.1,15.1-12.37,9.87-9.64,25.59-5.51,40.86,4.13,15.27,10.96,21.92,9.06,37.63-.87,7.24-14.68,31.73-14.63,39.02.19,33.63,27.22,27.87,54.35,25.78,9.28-.71,41.62,16.03,62.02,9.76,22.73-6.99,47.22-36.6,32.06-54.35Z"/><path class="cls-11" d="M415.5,284.57c9.97.93-9,2.94-12.35,5.41,13.87,1.2,27.74,2.39,41.61,3.59-14.02,2.12-42.82,1.31-42.82,1.31,0,0-13.06.61-15.16-1.99-.68-.69-1.61-1.17,6.72-3.31,4.78-1.23-14.46-1.04-17.32-1.09-6.5-.11-13-.26-19.5-.47-12.82-.41-38.49-1.86-38.49-1.86,0,0,87.34-2.52,97.31-1.59Z"/><path class="cls-13" d="M28.29,108.98c-.82,12.36-1.19,25.78-1.32,38.37l1.22-23.06c.24-.38.21-6.1.1-15.31Z"/><path class="cls-12" d="M28.26,107.01c0,.68.01,1.33.02,1.97.05-.74.1-1.48.15-2.21-.06.08-.12.16-.17.24Z"/><path class="cls-12" d="M45.32,311.19c9.44,1.57,32.95,3.46,42.51,2.99,20.35-1,9.53-21.06,28.14-29.34,4.76-2.12,16.03-10.21,19.16-14.37,6.33-8.43,6.37-14.76,3.17-26.91-3.17-12.01-12.18-17.35-9.91-26.95,1.24-5.24,5.04-9.44,7.5-14.23,5.79-11.27,3.23-26.23-5.98-34.94-10.35-9.79-26.62-11.19-36.95-21.01-8.78-8.35-11.52-21.04-16.84-31.93-5.11-10.46-16.35-21.24-28.71-20.51-9.45.56-14.37,6.36-18.96,12.77-.05.73-.1,1.47-.15,2.21.1,9.22.14,14.93-.1,15.31l-1.22,23.06c-.29,27.02.47,50.23.05,50.89l-6.02,113.81c7.49-.73,15.51-2.33,24.32-.87Z"/><path class="cls-11" d="M467.03,346.1s-23.65,1.51-32.31,2.69c-14.56,1.99-38.96,2.78-38.96,2.78,0,0,25.82,2.24,29.99,1.96,17.57-1.19,35.15-2.39,52.72-3.58-.08-.95-.16-1.91-.24-2.88l-11.21-.97Z"/><path class="cls-11" d="M410.91,328.9l13.86-2.15s-9.11-.5-11.16-.59c-3.91-.17-7.82-.31-11.74-.41-8.01-.2-24.05-.17-24.05-.17l-47.69,2.37s24.83,1.7,35.49,1.55c15.1-.21,45.29-.62,45.29-.62Z"/><path class="cls-1" d="M94.58,191.79c1.61-8.11,16.28-16.92,16.28-16.92,0,0-.17,4.36-.26,6.54-.16,3.93-.33,7.95-1.79,11.61-2.51,6.31-12.08,8.47-12.08,8.47,0,0-3.27-4.02-2.15-9.69Z"/><path class="cls-1" d="M239.85,226.24c1.87-9.44,18.95-19.7,18.95-19.7,0,0-.2,5.07-.31,7.61-.18,4.58-.39,9.26-2.08,13.51-2.92,7.34-14.05,9.86-14.05,9.86,0,0-3.81-4.68-2.5-11.28Z"/><path class="cls-1" d="M36.61,268.81s-.91-9.76-6.85-13.06c-1.78-.99-3.7-1.65-5.68-2.15l-.75,14.16c1.09.87,2.23,1.55,3.38,1.94,5.49,1.84,9.89-.89,9.89-.89Z"/><path class="cls-1" d="M102.03,261.83c3.46-5.8,17.44-8.51,17.44-8.51,0,0-1.32,3.31-1.97,4.96-1.19,2.98-2.41,6.03-4.55,8.44-3.69,4.16-11.84,3.17-11.84,3.17,0,0-1.5-4,.92-8.06Z"/><path class="cls-1" d="M58.46,255.74c-4.3-5.2-2.18-19.28-2.18-19.28,0,0,2.67,2.35,4.01,3.52,2.41,2.12,4.87,4.29,6.43,7.12,2.68,4.87-.98,12.21-.98,12.21,0,0-4.27.08-7.29-3.56Z"/><path class="cls-1" d="M176.05,238.35c-5.01-6.06-2.53-22.45-2.53-22.45,0,0,3.11,2.73,4.67,4.1,2.81,2.46,5.67,5,7.48,8.28,3.12,5.67-1.14,14.22-1.14,14.22,0,0-4.97.09-8.48-4.15Z"/><path class="cls-1" d="M251.43,290.05c.03-7.86,12.44-18.86,12.44-18.86,0,0,.64,4.09.96,6.14.58,3.69,1.15,7.47.44,11.15-1.23,6.35-9.98,10.18-9.98,10.18,0,0-3.88-3.12-3.85-8.62Z"/><path class="cls-1" d="M31.98,138.73c-4.3-5.2-2.18-19.28-2.18-19.28,0,0,2.67,2.35,4.01,3.52,2.41,2.12,4.87,4.29,6.43,7.12,2.68,4.87-.98,12.21-.98,12.21,0,0-4.27.08-7.29-3.56Z"/><path class="cls-1" d="M215.77,187.48c-5.01-6.06-2.53-22.45-2.53-22.45,0,0,3.11,2.73,4.67,4.1,2.81,2.46,5.67,5,7.48,8.28,3.12,5.67-1.14,14.22-1.14,14.22,0,0-4.97.09-8.48-4.15Z"/><path class="cls-1" d="M33.72,188.54c-5.13-6.2-2.59-22.97-2.59-22.97,0,0,3.19,2.79,4.78,4.19,2.88,2.52,5.81,5.11,7.66,8.48,3.2,5.8-1.16,14.55-1.16,14.55,0,0-5.09.09-8.68-4.25Z"/><path class="cls-1" d="M77.97,151.84c.46-8.03,13.74-18.59,13.74-18.59,0,0,.43,4.22.65,6.32.39,3.81.77,7.7-.16,11.42-1.61,6.43-10.76,9.86-10.76,9.86,0,0-3.79-3.4-3.47-9.02Z"/><path class="cls-1" d="M283.24,307.96c.54-9.35,15.99-21.64,15.99-21.64,0,0,.5,4.91.75,7.36.45,4.43.9,8.96-.19,13.29-1.87,7.48-12.52,11.48-12.52,11.48,0,0-4.41-3.95-4.04-10.5Z"/><path class="cls-8" d="M35.74,289.6c-3.06-3.4-12.41-4.45-12.41-4.45,0,0-.47,8.5,2.41,11.51s13.12,5.75,13.12,5.75c0,0-.06-9.4-3.12-12.81Z"/><path class="cls-8" d="M127.28,229.76c3.97-2.27,6.98-11.18,6.98-11.18,0,0-8.21-2.26-11.76-.08-3.55,2.18-8.4,11.6-8.4,11.6,0,0,9.2,1.93,13.18-.34Z"/><path class="cls-8" d="M281.4,349.18c4.63-2.64,8.13-13.01,8.13-13.01,0,0-9.55-2.63-13.68-.09-4.13,2.53-9.78,13.5-9.78,13.5,0,0,10.71,2.25,15.34-.4Z"/><path class="cls-8" d="M285.58,253.71c4.63-2.64,8.13-13.01,8.13-13.01,0,0-9.55-2.63-13.68-.09-4.13,2.53-9.78,13.5-9.78,13.5,0,0,10.71,2.25,15.34-.4Z"/><path class="cls-8" d="M80.43,231.45c2.2,4.02,11.05,7.19,11.05,7.19,0,0,2.41-8.16.3-11.75-2.11-3.59-11.44-8.62-11.44-8.62,0,0-2.1,9.17.1,13.18Z"/><path class="cls-8" d="M180.47,317.42c2.56,4.67,12.86,8.36,12.86,8.36,0,0,2.8-9.5.35-13.68-2.46-4.18-13.32-10.03-13.32-10.03,0,0-2.45,10.67.11,15.34Z"/><path class="cls-8" d="M29.73,221.39c2.2,4.02,11.05,7.19,11.05,7.19,0,0,2.41-8.16.3-11.75s-11.44-8.62-11.44-8.62c0,0-2.1,9.17.1,13.18Z"/><path class="cls-8" d="M249.89,168.05c-1.44,5.13,3.34,14.97,3.34,14.97,0,0,8.65-4.83,9.82-9.53,1.17-4.71-2.5-16.48-2.5-16.48,0,0-9.21,5.91-10.65,11.04Z"/><path class="cls-8" d="M212.26,282.33c-1.44,5.13,3.34,14.97,3.34,14.97,0,0,8.65-4.83,9.82-9.53,1.17-4.71-2.5-16.48-2.5-16.48,0,0-9.21,5.91-10.65,11.04Z"/><path class="cls-8" d="M207.92,243.07c2.46,4.73,12.69,8.63,12.69,8.63,0,0,3-9.44.63-13.67-2.37-4.23-13.11-10.3-13.11-10.3,0,0-2.67,10.62-.21,15.34Z"/><path class="cls-8" d="M71.33,283.99c-.81,4.29,3.81,11.98,3.81,11.98,0,0,6.71-4.56,7.32-8.49s-3.23-13.27-3.23-13.27c0,0-7.09,5.49-7.89,9.78Z"/><path class="cls-8" d="M223.24,327.97c-.94,4.99,4.43,13.94,4.43,13.94,0,0,7.81-5.31,8.52-9.88.71-4.57-3.76-15.44-3.76-15.44,0,0-8.25,6.39-9.19,11.38Z"/><path class="cls-8" d="M63.56,179.47c.11,4.36,6.24,10.91,6.24,10.91,0,0,5.6-5.87,5.37-9.84-.23-3.96-5.95-12.29-5.95-12.29,0,0-5.78,6.86-5.66,11.22Z"/><path class="cls-8" d="M58.93,107.3c-.7,4.31,4.09,11.88,4.09,11.88,0,0,6.6-4.72,7.12-8.66.52-3.94-3.55-13.19-3.55-13.19,0,0-6.96,5.66-7.66,9.96Z"/><path class="cls-9" d="M368.89,83.56c-1.39,5.52-.27,9.56,1.92,14.81,1.83,4.38,8.76,9.13,8.76,9.13,0,0,15.93,4.95,24.83.37,12.05-6.21,12.55-21.53,12.55-21.53,0,0,.23-12.79-9.36-17.65-15.32-7.76-34.55-1.61-38.7,14.88Z"/><path class="cls-10" d="M374.44,84.5c-1.06,4.23-.21,7.32,1.47,11.35,1.4,3.36,6.72,7,6.72,7,0,0,12.21,3.79,19.03.28,9.23-4.76,9.62-16.5,9.62-16.5,0,0,.18-9.8-7.17-13.53-11.74-5.95-26.48-1.24-29.66,11.41Z"/><polygon class="cls-9" points="422.54 117 415.52 110.21 411.3 106.67 410.25 107.89 421.16 118.58 422.54 117"/><polygon class="cls-9" points="374.19 69.24 367.17 62.46 362.94 58.92 361.9 60.13 372.8 70.82 374.19 69.24"/><polygon class="cls-9" points="417.1 70.67 424.52 64.32 428.44 60.45 427.33 59.29 415.65 69.14 417.1 70.67"/><polygon class="cls-9" points="415.31 72.16 422.73 65.82 426.65 61.94 425.54 60.79 413.86 70.64 415.31 72.16"/><polygon class="cls-9" points="353.85 104.9 362.65 100.65 367.43 97.91 366.65 96.51 352.85 103.05 353.85 104.9"/><path class="cls-9" d="M385.5,62.05c-1.09-3.39-3.36-9.46-3.36-9.46l-1.34.78s.45,1.06.62,1.73l1.82,5.47c.53,1.13,1.31,3.5,1.31,3.5.05-.06,1.46-.58,1.46-.58,0,0-.38-1.07-.5-1.46Z"/><path class="cls-9" d="M394.43,123.4c-.01-3.56-.34-10.03-.34-10.03l-1.52.34s.11,1.15.06,1.84l.08,5.76c.16,1.24.19,3.74.19,3.74.07-.04,1.57-.11,1.57-.11,0,0-.04-1.14-.04-1.54Z"/><path class="cls-9" d="M421.13,85.33c3.56.12,10.04.02,10.04.02l-.29-1.53s-1.15.06-1.84,0l-5.76-.13c-1.24.12-3.74.05-3.74.05.04.07.05,1.57.05,1.57,0,0,1.14,0,1.54.02Z"/><path class="cls-9" d="M356.3,82.72c3.5.68,9.91,1.61,9.91,1.61l-.04-1.55s-1.15-.12-1.82-.29l-5.67-1.04c-1.25-.08-3.7-.54-3.7-.54.03.08-.19,1.56-.19,1.56,0,0,1.12.18,1.52.26Z"/><path class="cls-9" d="M419.94,98.83c3.32,1.28,13.6,6.22,13.6,6.22l.75-2.24s-5.75-2.51-6.38-2.8l-5.4-2.02c-1.21-.3-3.55-1.18-3.55-1.18.02.08-.47,1.5-.47,1.5,0,0,1.07.38,1.45.52Z"/><path class="cls-9" d="M375.97,111.01c-1.81,3.07-6.76,11.87-6.76,11.87l1.46.9s2.44-4.53,2.84-5.1l2.88-4.99c.49-1.15,1.75-3.31,1.75-3.31-.08,0-1.4-.71-1.4-.71,0,0-.55,1-.75,1.34Z"/><path class="cls-9" d="M400.76,61.7c.93-3.44,2.31-9.77,2.31-9.77l-1.55-.07s-.2,1.14-.42,1.79l-1.44,5.58c-.17,1.24-.8,3.65-.8,3.65.08-.02,1.54.31,1.54.31,0,0,.26-1.11.37-1.5Z"/><path class="cls-2" d="M132.66,62.13c-5.04,1.97-17.48,11.7-17.48,11.7,0,0-7.42,2.31-11.92,4.02-8.91,3.39-11.15,14.7-7.1,23.32,4.31,7.82,29.35,10.05,45.12,9.12,9.92-.59,24.63-2.98,24.63-2.98l28.7.07s17.46-6.19,14.6-15.34c-2.52-8.06-5.07-9.63-14.7-12.67-2.59-.82-15.21-3.04-15.21-3.04l-6.59-5.58-18.25-9.63s-13.08-2.39-21.8,1.01Z"/><path class="cls-2" d="M367.81,85.34c-7.18.46-11.94.6-21.49,5.97-1.78,1-8.05,5.15-8.05,5.15,0,0-6.67.87-10.06.33-11.73-1.87-17.12-3.09-25.47,8.25-1.95,2.65-2.98,5.97-14.33,11.34-6.67,3.16-14.04,6.82-11.94,15.52,4.18,17.31,33.43,11.94,33.43,11.94,0,0,17.76.52,26.8,2.43,10.9,2.3,22.15,2.32,33.28,1.88,7.51-.3,21.76-4.86,21.76-4.86l21.7-9.33s6.8-3.47,6.73-6.95c-.09-4.27-4.99-6.52-9.08-7.77-3.93-1.2-7.87-2.39-11.8-3.59-1.33-.41-7.6-11.8-7.6-11.8,0,0-10.82-19.35-23.88-18.51Z"/></svg>