<?xml version="1.0" encoding="UTF-8"?><svg id="_레이어_1" xmlns="http://www.w3.org/2000/svg" viewBox="0 0 500 500"><defs><style>.cls-1{fill:#dad1bf;}.cls-2{fill:#c6223f;}.cls-3{fill:#817865;}.cls-4{fill:#cb714e;}.cls-5{fill:#e4d8d8;}.cls-6{fill:none;}.cls-7{fill:#5d291f;}.cls-8{fill:#988b72;}.cls-9{fill:#6c3326;}.cls-10{fill:#9c8d73;}.cls-11{fill:#251e1c;}.cls-12{fill:#956731;}.cls-13{fill:#d7845e;}.cls-14{fill:#589986;}.cls-15{fill:#314d9b;}.cls-16{fill:#845f2d;}.cls-17{fill:#635550;}.cls-18{fill:#421513;}.cls-19{fill:#c6bfae;}</style></defs><rect class="cls-6" width="500" height="500"/><path class="cls-15" d="M55.6,61.79c-9.27,25.69-.5,53.52,19.87,80.24,7.22,9.47,37.17,32.44,58.18,39.02,28.15,8.82,52.96,7.44,72.6-8.4,24.1-19.44,22.57-56.66,18.95-70.27-3.13-11.76-14.17-31.29-14.17-31.29,0,0-34.48-43.4-88.5-49.06-30.69-3.21-57.66,14.07-66.93,39.76ZM125.98,40.38c41.17,4.79,67.78,37.74,67.78,37.74,0,0,8.56,14.78,11.04,23.65,2.87,10.26,4.34,38.24-13.85,52.6-14.83,11.71-33.7,12.49-55.2,5.58-16.05-5.16-39.04-22.72-44.61-29.9-15.73-20.28-22.64-41.27-15.79-60.48,6.85-19.21,27.24-31.92,50.63-29.2Z"/><path class="cls-5" d="M86.56,132.7c6.09,7.86,31.23,27.05,48.78,32.69,23.51,7.56,44.15,6.69,60.36-6.11,19.89-15.7,18.28-46.29,15.15-57.52-2.71-9.69-12.07-25.85-12.07-25.85,0,0-29.09-36.03-74.11-41.27-25.57-2.98-47.87,10.92-55.36,31.93-7.49,21,.06,43.95,17.26,66.13ZM123.92,40.54c41.11,4.31,68.43,36.91,68.43,36.91,0,0,9.51,15.49,11.99,24.36,2.87,10.26,4.9,37.55-13.29,51.91-14.83,11.71-34.61,12.56-56.11,5.65-16.05-5.16-38.37-22.98-43.94-30.17-15.73-20.28-21.79-40.06-14.94-59.27,6.85-19.21,28.02-31.47,47.85-29.39Z"/><path class="cls-11" d="M159.52,172.94c-10.82-46.58-22.59-92.94-35.28-139.05-.26-.93-1.7-.53-1.44.4,12.68,46.11,24.45,92.47,35.28,139.05.22.94,1.66.54,1.44-.4h0Z"/><path class="cls-11" d="M190.79,66.29c-33.96,23.42-67.91,46.84-101.87,70.26-.79.54-.04,1.84.76,1.29,33.96-23.42,67.91-46.84,101.87-70.26.79-.54.04-1.84-.76-1.29h0Z"/><path class="cls-11" d="M211.52,131.68c-47.58-21.34-95.52-41.88-143.79-61.61-.89-.36-1.28,1.08-.4,1.44,48.15,19.68,95.97,40.17,143.43,61.46.87.39,1.63-.9.76-1.29h0Z"/><path class="cls-15" d="M55.6,61.79c-9.27,25.69-.5,53.52,19.87,80.24,7.22,9.47,37.17,32.44,58.18,39.02,28.15,8.82,52.96,7.44,72.6-8.4,24.1-19.44,22.57-56.66,18.95-70.27-3.13-11.76-14.17-31.29-14.17-31.29,0,0-34.48-43.4-88.5-49.06-30.69-3.21-57.66,14.07-66.93,39.76ZM124.67,34.65c45.02,5.24,74.11,41.27,74.11,41.27,0,0,9.36,16.16,12.07,25.85,3.14,11.22,4.74,41.81-15.15,57.52-16.21,12.8-36.85,13.66-60.36,6.11-17.55-5.64-42.69-24.84-48.78-32.69-17.2-22.17-24.75-45.12-17.26-66.13,7.49-21,29.79-34.9,55.36-31.93Z"/><path class="cls-10" d="M149.54,102.42c.2-1.57-.4-3.29-1.37-4.69s-2.31-2.53-3.71-3.48c-1.2-.81-2.51-1.52-3.87-1.71-2.8-.38-4.28-.18-6.03,2.18-1.25,1.69-1.21,5.01-1.21,5.01,0,0,.88,2.4,1.66,3.43,4.18,5.53,13.51,7.49,14.54-.74Z"/><path class="cls-15" d="M448.67,371.56c-3.39-29.6-21.79-50.21-48.81-62.75-9.57-4.44-42.53-7.67-61.71-1.05-25.69,8.87-44.53,25.24-53.34,51.95-10.81,32.77,5.82,66.55,14.29,77.05,7.32,9.06,24.06,20.57,24.06,20.57,0,0,44.97,19.52,89.6-8.02,25.35-15.65,39.3-48.15,35.91-77.75ZM402.45,434.28c-34.21,20.54-68.69,5.98-68.69,5.98,0,0-12.83-8.58-18.44-15.34-6.5-7.83-19.24-33.03-10.96-57.47,6.75-19.92,21.2-32.13,40.89-38.75,14.7-4.94,39.97-2.53,47.31.78,20.71,9.36,34.82,24.73,37.42,46.81,2.6,22.08-8.09,46.32-27.53,57.99Z"/><path class="cls-5" d="M395.04,324.24c-8.02-3.62-35.65-6.26-51.73-.85-21.53,7.24-37.33,20.58-44.71,42.37-9.06,26.73,4.88,54.28,11.98,62.84,6.14,7.39,20.17,16.78,20.17,16.78,0,0,37.7,15.92,75.11-6.54,21.25-12.76,32.94-39.27,30.1-63.41-2.84-24.14-18.26-40.95-40.92-51.18ZM403.99,432.88c-33.96,20.95-68.86,7.15-68.86,7.15,0,0-13.87-8.67-19.48-15.43-6.5-7.83-19.4-32.03-11.11-56.48,6.75-19.92,21.88-32.73,41.57-39.35,14.7-4.94,39.55-1.88,46.89,1.44,20.71,9.36,33.66,24.12,36.26,46.19,2.6,22.08-8.89,46.37-25.28,56.48Z"/><path class="cls-11" d="M321.12,330.79c27.68,36.73,56.13,72.87,85.35,108.39.59.72,1.61-.31,1.02-1.02-29.14-35.42-57.52-71.46-85.13-108.1-.55-.74-1.81-.01-1.25.73h0Z"/><path class="cls-11" d="M341.13,449.32c16.87-42.47,33.74-84.94,50.61-127.41.34-.87-1.06-1.24-1.4-.38-16.87,42.47-33.74,84.94-50.61,127.41-.34.87,1.06,1.24,1.4.38h0Z"/><path class="cls-11" d="M297.88,400.98c46.17-9.02,92.14-18.98,137.91-29.86.91-.22.52-1.61-.38-1.4-45.76,10.88-91.74,20.84-137.91,29.86-.91.18-.53,1.57.38,1.4h0Z"/><path class="cls-15" d="M448.67,371.56c-3.39-29.6-21.79-50.21-48.81-62.75-9.57-4.44-42.53-7.67-61.71-1.05-25.69,8.87-44.53,25.24-53.34,51.95-10.81,32.77,5.82,66.55,14.29,77.05,7.32,9.06,24.06,20.57,24.06,20.57,0,0,44.97,19.52,89.6-8.02,25.35-15.65,39.3-48.15,35.91-77.75ZM405.85,438.84c-37.41,22.46-75.11,6.54-75.11,6.54,0,0-14.03-9.38-20.17-16.78-7.11-8.56-21.04-36.11-11.98-62.84,7.38-21.79,23.18-35.13,44.71-42.37,16.07-5.4,43.7-2.77,51.73.85,22.65,10.23,38.07,27.04,40.92,51.18,2.84,24.14-8.85,50.65-30.1,63.41Z"/><path class="cls-2" d="M403.52,117.52c19.79,20.19,26.6,49.39,32.6,77.03,14.43-3.93,43.89-9.14,43.89-9.14l-43.38,88.13-73.21-60.25,45.95-13.6s-19.58-28.84-37.85-37.94c-11.77-5.87-29.86-12.94-42.9-14.71-20.92-2.84-59.37-6.33-59.37-6.33l28.9-63.82s89.24,24.18,105.36,40.64Z"/><path class="cls-8" d="M218.52,333.87c1.81-.65,3.78-.86,5.69-.61.44,8.6,4.21,24.23,1.01,31.92-2.14-.9-4.67-5.03-4.67-5.03,0,0-1.91-20.38-2.03-26.29Z"/><path class="cls-7" d="M216.27,333.14c-2.35-1.53-3.61-4.36-3.91-7.15s.23-5.6.77-8.36c4.37-1.51,10.81-1.18,10.81-1.18,0,0,4-.02,4.49.29.85.53,1.22,1.56,1.54,2.52.99,3.01,1.97,6.36.71,9.27-1.64,3.8-6.26,5.13-10.3,6.01"/><path class="cls-9" d="M225.91,327.5c1.45-3.27,2.49-6.71,3.12-10.22-.17-.21-.36-.4-.6-.54-.49-.3-4.49-.29-4.49-.29,0,0-6.45-.33-10.81,1.18-.54,2.76-1.07,5.56-.77,8.36,0,.06.02.12.03.17,4.41,1.1,8.98,1.56,13.53,1.34Z"/><path class="cls-18" d="M229.96,319.25c-.23-.69-.49-1.42-.94-1.97-.63,3.52-1.67,6.96-3.12,10.22-4.54.22-9.11-.24-13.53-1.34.33,2.74,1.58,5.48,3.89,6.98,1.66,1.08,4.1,1.39,4.1,1.39,4.04-.88,8.66-2.21,10.3-6.01,1.26-2.91.28-6.25-.71-9.27Z"/><path class="cls-15" d="M190.03,367.41c-3.44-30.06-22.13-51-49.58-63.74-9.72-4.51-43.2-7.79-62.68-1.06-26.09,9.01-45.23,25.63-54.18,52.76-10.98,33.29,5.91,67.6,14.52,78.26,7.44,9.21,24.43,20.89,24.43,20.89,0,0,45.68,19.83,91.01-8.14,25.75-15.89,39.92-48.91,36.47-78.97ZM143.08,431.12c-34.75,20.87-69.77,6.08-69.77,6.08,0,0-13.03-8.72-18.73-15.58-6.6-7.95-19.55-33.54-11.13-58.37,6.86-20.24,21.53-32.63,41.54-39.36,14.93-5.02,40.6-2.57,48.05.79,21.04,9.5,35.37,25.12,38.01,47.54,2.64,22.42-8.22,47.05-27.96,58.9Z"/><path class="cls-5" d="M135.56,319.35c-8.15-3.68-36.22-6.35-52.54-.87-21.87,7.35-37.92,20.91-45.42,43.03-9.2,27.15,4.95,55.13,12.17,63.83,6.23,7.51,20.48,17.04,20.48,17.04,0,0,38.29,16.17,76.29-6.64,21.58-12.96,33.46-39.89,30.58-64.41-2.89-24.52-18.55-41.6-41.56-51.99ZM144.65,429.7c-34.49,21.28-69.94,7.26-69.94,7.26,0,0-14.09-8.8-19.79-15.67-6.6-7.95-19.7-32.54-11.29-57.37,6.86-20.24,22.23-33.25,42.23-39.97,14.93-5.02,40.18-1.91,47.63,1.46,21.04,9.5,34.19,24.5,36.83,46.92,2.64,22.42-9.03,47.1-25.67,57.37Z"/><path class="cls-11" d="M60.47,326c28.11,37.31,57.02,74.02,86.69,110.09.61.74,1.65-.32,1.05-1.05-29.6-35.98-58.43-72.59-86.46-109.79-.57-.75-1.85-.01-1.28.75h0Z"/><path class="cls-11" d="M80.8,446.4c17.14-43.14,34.27-86.27,51.41-129.41.35-.89-1.08-1.27-1.43-.39-17.14,43.14-34.27,86.27-51.41,129.41-.35.89,1.08,1.27,1.43.39h0Z"/><path class="cls-11" d="M36.87,397.3c46.89-9.17,93.59-19.28,140.07-30.33.93-.22.53-1.65-.39-1.43-46.48,11.05-93.18,21.17-140.07,30.33-.93.18-.54,1.61.39,1.43h0Z"/><path class="cls-11" d="M190.03,367.41c-3.44-30.06-22.13-51-49.58-63.74-9.72-4.51-43.2-7.79-62.68-1.06-26.09,9.01-45.23,25.63-54.18,52.76-10.98,33.29,5.91,67.6,14.52,78.26,7.44,9.21,24.43,20.89,24.43,20.89,0,0,45.68,19.83,91.01-8.14,25.75-15.89,39.92-48.91,36.47-78.97ZM146.54,435.75c-38,22.82-76.29,6.64-76.29,6.64,0,0-14.25-9.53-20.48-17.04-7.22-8.69-21.37-36.68-12.17-63.83,7.5-22.13,23.55-35.68,45.42-43.03,16.33-5.49,44.39-2.81,52.54.87,23.01,10.39,38.67,27.47,41.56,51.99,2.89,24.52-8.99,51.44-30.58,64.41Z"/><path class="cls-10" d="M98.24,386.9c.51,1.61,1.7,2.87,3.07,3.6,1.37.73,2.91.97,4.42,1.01,1.3.03,2.64-.11,3.8-.77,2.38-1.36,3.48-2.47,3.88-5.79.29-2.38-1.15-5.49-1.15-5.49,0,0-1.71-1.73-2.77-2.23-5.65-2.66-13.9,1.25-11.24,9.68Z"/><path class="cls-19" d="M284.22,206.06c3.34.7,7.19,2.41,7.62,5.8.35,2.79-4.53,6.51-4.53,6.51,0,0-12.75,5.82-18.91,9.31-.51.29-1.04.64-1.21,1.19-.14.48.03.99.2,1.47.46,1.27.93,2.54,1.39,3.81.17.47.36.96.78,1.23.56.36,1.3.16,1.94-.06,8.97-3.09,17.34-7.95,24.48-14.2,1.54-1.34,2.94-2.86,3.88-4.67,2.79-5.33-4.94-12.52-4.94-12.52,0,0-7.85-3.86-14.28-3.86-7.78,0-23.2,1.08-23.2,1.08l1.37,5.94s5.89-1.17,7.4-1.42c5.96-.97,12.1-.85,18.01.39Z"/><path class="cls-11" d="M250.02,201.55s.07,4.4.62,7.05c8.53-.99,13.72-1.36,13.72-1.36l9.15-1.73.25-2.47c-.49-3.09-1.98-3.59-1.98-3.59l-6.55.49-15.21,1.61Z"/><path class="cls-11" d="M261.6,230.15l2.23,5.36,1.81,3.21,10.8-5.03,8.82-4.37,3.38-1.9s-.42-2.95-.74-3.63c-1.73-3.63-3.43-4.42-3.43-4.42l-6.05,2.36-16.81,8.41Z"/><path class="cls-19" d="M327.15,307.95c-2.12.04-4.23.56-6.14,1.5-11.35-27.92-27.22-89.35-27.22-89.35l5.32-3.59,10.63,35.98s15.03,55.5,17.41,55.46Z"/><path class="cls-14" d="M321.89,314.09s24.31,51.27,41.01,73.39c2.14-.61,2.88-5,2.88-5l-4.09-6.93s-24.56-46.47-24.24-46.64l-10.78-22.06s-3.69-3.23-5.3-1.55c-2.49,2.58.52,8.8.52,8.8Z"/><polygon class="cls-14" points="314.19 287.11 316.5 295.02 274.13 337.38 239.68 372.82 234.41 367.55 264.57 337.05 314.19 287.11"/><path class="cls-4" d="M214.89,369.65c1.92-1.02,3.84-2.05,5.76-3.07-7.43-22.93-25.96-73.7-25.96-73.7l-6.23,4.99,7.8,23.93s17.9,48.25,18.64,47.85Z"/><path class="cls-13" d="M200.11,402.82c7.97.06,24.55-2.81,24.55-2.81,0,0,13.63-3.06,17.07-12.82,4.51-12.8-4.6-22.83-4.6-22.83,0,0-16.72-7.47-41.63-6.29-26.05,1.24-55.97,4.17-66.6,6.04-13.44,2.37-28.64,8.3-28.64,8.3,0,0-4.88,2.47-5.6,10.86-.4,4.77,1.12,9.83,10.48,12.63,12.87,3.86,42.34,5.79,42.34,5.79,0,0,35.82,1.01,52.63,1.14Z"/><path class="cls-14" d="M303.31,255.46l2.47,7.42s-30.27,29.95-47.23,44.51c-15.5,13.3-49.7,32.89-49.7,32.89l-2.23-6.92s33.66-20.74,41.29-26.7c5.86-4.58,55.39-51.18,55.39-51.18Z"/><path class="cls-1" d="M215.88,381.13c-1.09,1.49-.31,5.47-.31,5.47,0,0,2.62,23.99,3.94,35.98,1.47-.01,2.95-.02,4.42-.04-1-11.91-.97-35.79-.97-35.79,0,0-1.24-13.6-7.07-5.62Z"/><path class="cls-18" d="M230.96,422.5c-.15-.89-.97-2.46-.97-2.46,0,0-3.09-.73-4.77-.69l-10.02,1.86-2.79,1.16s-.54,1.74-.53,2.66c.01,2.49.03,4.98.04,7.47,0,1.1.61,3.21.61,3.21,0,0,2.69,1.83,4.33,1.99,4.35.42,12.86-1.84,12.86-1.84,0,0,1.98-8.82,1.22-13.34Z"/><path class="cls-9" d="M220.48,432.66c2.06-.11,7.01-1.48,7.01-1.48l1.32-5.85s.28-2.54.8-5.37c-.88-.19-3.06-.63-4.38-.61l-10.02,1.86-2.79,1.16s-.54,1.74-.53,2.66c.01,2.42.02,4.85.04,7.27,2.04,1.34,6.13.49,8.56.36Z"/><path class="cls-3" d="M112.26,379.19c-1.77-2.36-6.9-1.96-6.9-1.96-4.23.23-7.43,4.69-6.09,8.35,1.35,3.66,6.77,5.59,10.41,3.63,2.51-1.35,3.55-4.42,3.55-4.42,0,0,.99-2.99-.97-5.6Z"/><path class="cls-3" d="M370.71,382.49c-1.61-2.36-6.29-1.96-6.29-1.96-3.85.23-6.77,4.69-5.55,8.35,1.23,3.66,6.17,5.59,9.49,3.63,2.28-1.35,3.23-4.42,3.23-4.42,0,0,.91-2.99-.88-5.6Z"/><path class="cls-16" d="M173.47,270.59c-4.18-.9-12.67-1.76-12.67-1.76,0,0-8.72,1.99-11,5.61-3.36,5.33-.89,12.51,3,17.46,5.23,6.66,12.94,11.33,21.27,12.88,1.78.33,3.65.52,5.39.01,2.78-.82,4.73-3.23,6.97-5.08,2.17-1.8,10.94-3.81,19.62-6.5,6.54-2.03,16.63-7.44,16.63-7.44,0,0,4.14-5.86.69-9.65-3.72-4.08-13.87-1.97-18.64-1.98-10.49-.04-21.02-1.34-31.26-3.55Z"/><path class="cls-12" d="M168.04,293.71s3.84.22,5.66-.32c2.38-.71,6.71-3.24,6.71-3.24,0,0,13.43-.05,20.22-.37,5.08-.23,14.02-5.36,14.02-5.36,0,0,7.35-5.3,5.97-10.01-4.65-1.63-12.03-.25-15.89-.27-10.49-.04-21.02-1.34-31.26-3.55-4.18-.91-12.67-1.76-12.67-1.76,0,0-8.72,1.99-11,5.61-.92,1.46-1.39,3.05-1.52,4.7,5.35,12.21,19.76,14.57,19.76,14.57Z"/><path class="cls-17" d="M362.79,478.36c-3.81-.08-7.64-.36-11.37-.82l.34-2.75c3.64.45,7.36.72,11.08.8l-.06,2.77ZM374.19,477.99l-.24-2.76c3.68-.32,7.37-.86,10.98-1.59l.55,2.72c-3.71.75-7.51,1.3-11.29,1.63ZM340.2,475.52c-3.71-.88-7.39-1.96-10.94-3.23l.94-2.61c3.45,1.23,7.03,2.29,10.64,3.14l-.64,2.7ZM396.52,473.46l-.85-2.64c3.51-1.13,6.99-2.48,10.36-3.99l1.14,2.53c-3.46,1.56-7.04,2.94-10.64,4.11ZM318.76,467.84c-3.42-1.68-6.76-3.59-9.93-5.65l1.51-2.33c3.08,2,6.33,3.85,9.64,5.49l-1.23,2.49ZM417.28,464.1l-1.41-2.39c3.16-1.88,6.27-3.95,9.22-6.18l1.67,2.22c-3.03,2.29-6.22,4.42-9.47,6.35ZM299.64,455.39c-2.92-2.44-5.71-5.09-8.29-7.85l2.03-1.89c2.51,2.69,5.22,5.25,8.05,7.62l-1.78,2.13ZM435.46,450.39l-1.9-2.02c2.68-2.53,5.25-5.24,7.64-8.05l2.12,1.79c-2.45,2.89-5.09,5.67-7.85,8.28ZM284.09,438.72c-2.23-3.07-4.29-6.32-6.12-9.64l2.43-1.34c1.78,3.22,3.77,6.37,5.93,9.35l-2.24,1.63ZM450.19,433.01l-2.3-1.55c2.06-3.07,3.96-6.28,5.65-9.55l2.46,1.27c-1.74,3.36-3.69,6.66-5.81,9.82ZM273.09,418.76c-1.4-3.52-2.61-7.16-3.58-10.84l2.68-.71c.94,3.57,2.11,7.11,3.47,10.52l-2.57,1.03ZM460.65,412.76l-2.59-.98c1.31-3.45,2.42-7.02,3.31-10.59l2.69.67c-.92,3.68-2.06,7.34-3.41,10.9ZM267.26,396.72c-.52-3.73-.84-7.56-.93-11.37l2.77-.07c.09,3.71.4,7.43.9,11.06l-2.75.38ZM466.15,390.64l-2.75-.35c.46-3.66.71-7.38.73-11.06v-.24h2.77v.26c-.03,3.79-.28,7.62-.75,11.38ZM269.46,374.2l-2.76-.25c.34-3.8.92-7.59,1.71-11.29l2.71.58c-.77,3.58-1.32,7.27-1.66,10.96ZM463.52,367.92c-.43-3.69-1.09-7.36-1.97-10.9l2.69-.67c.9,3.65,1.59,7.43,2.03,11.24l-2.76.32ZM274.1,352.57l-2.62-.91c1.25-3.59,2.74-7.14,4.42-10.54l2.48,1.23c-1.63,3.3-3.07,6.74-4.29,10.22ZM458.19,346.48c-1.35-3.42-2.95-6.78-4.75-9.99l2.42-1.36c1.86,3.31,3.52,6.79,4.91,10.33l-2.58,1.02ZM283.91,332.75l-2.31-1.53c2.09-3.16,4.41-6.23,6.89-9.11l2.11,1.81c-2.4,2.8-4.65,5.77-6.68,8.84ZM447.38,327.26c-2.21-2.92-4.65-5.73-7.25-8.36l1.97-1.95c2.69,2.72,5.21,5.62,7.49,8.63l-2.21,1.67ZM298.3,315.95l-1.87-2.05c2.79-2.55,5.77-4.96,8.87-7.18l1.61,2.26c-3.01,2.15-5.9,4.5-8.61,6.97ZM431.85,311.55c-2.88-2.25-5.96-4.36-9.15-6.27l1.43-2.38c3.29,1.97,6.46,4.15,9.42,6.47l-1.71,2.19ZM316.29,303.07l-1.34-2.43c3.3-1.83,6.76-3.49,10.29-4.94l1.06,2.56c-3.42,1.41-6.79,3.03-10,4.8ZM412.88,300.12c-3.32-1.51-6.81-2.87-10.35-4.03l.87-2.63c3.64,1.2,7.21,2.59,10.63,4.14l-1.15,2.53ZM336.77,294.6l-.77-2.66c3.62-1.05,7.36-1.91,11.11-2.57l.48,2.73c-3.65.64-7.29,1.48-10.82,2.5ZM391.81,293.17c-3.58-.78-7.27-1.4-10.97-1.84l.33-2.75c3.79.45,7.57,1.09,11.23,1.89l-.59,2.71ZM358.62,290.75l-.2-2.77c2.65-.19,5.35-.28,8.03-.28h.75c.87,0,1.74.02,2.61.05l-.08,2.77c-.85-.02-1.7-.04-2.56-.04h-.73c-2.62,0-5.25.09-7.83.27Z"/></svg>