<?xml version="1.0" encoding="UTF-8"?><svg id="_레이어_1" xmlns="http://www.w3.org/2000/svg" viewBox="0 0 500 500"><defs><style>.cls-1{fill:#897c61;}.cls-2{fill:#382c28;}.cls-3{fill:#f6f6c6;}.cls-4{fill:#ab9772;}.cls-5{fill:#f7e8db;}.cls-6{fill:#897b5e;}.cls-7{fill:#a58436;}.cls-8{fill:none;}.cls-9{fill:#d88f33;}.cls-10{fill:#e9dac2;}.cls-11{fill:#ddbc58;}.cls-12{fill:#d1bca0;}.cls-13{fill:#91764e;}.cls-14{fill:#fff;opacity:.89;}.cls-15{fill:#c29f44;}.cls-16{fill:#251e1c;}.cls-17{fill:#ac3023;}.cls-18{fill:#c1aa83;}.cls-19{fill:#a9602a;}.cls-20{fill:#9c855f;}.cls-21{fill:#e2a885;}.cls-22{fill:#9e947e;}</style></defs><rect class="cls-8" width="500" height="500"/><path class="cls-15" d="M20,124.07s5.15,175.35,13.14,254.64c115.27,4.1,230.87-1.08,345.31-15.46,1.19-49.89,10.94-143.39,10.94-143.39l6.89-108.94.98-23.18s-4.04-.51-6.06-.1c-106.27,21.41-211.98,25.64-319.99,23.13-22.75-.53-51.2,13.3-51.2,13.3Z"/><path class="cls-7" d="M383.76,87.13l.63,116.45,5.63,157.77s-1.25.36-10.58,2.4c-7.81-29.39-9.64-60.01-10.76-90.4-1.5-40.66-1.78-81.37-.87-122.04.46-20.35-.03-41.38,2.31-61.61.65-5.61,5.7-17.28,5.7-17.28l7.93,14.71Z"/><path class="cls-11" d="M375.97,72.31s1.07,196.86,9.04,293.43c-75.07,8.76-149.81-8.41-225.31-4.82-32.69,1.55-65.31,6.43-98,4.84-8.83-43.61-13.85-132.64-13.85-132.64,0,0-3.23-57.4-4.85-86.1-.69-12.2-2.96-45.49-2.96-45.49l22.54-4.38,73.91-7.69s103.02-8.67,154.6-12.08c7.12-.47,84.89-5.07,84.89-5.07Z"/><path class="cls-3" d="M21.99,232.88l-.99-5.61c7.03-5.83,23.37-11.4,24.07-11.63l.39-.09,34.54-3.89,312.32-13.29-1.57,6.33-307.41,11.9-33.81,5.01c-1.83.63-21.43,6.2-27.55,11.27Z"/><path class="cls-3" d="M201.37,382.73c-.13,0-.26,0-.38-.03-1.97-.29-3.95-2.96-3.91-5.29.8-51.39-4.34-145.44-3.77-149.76l-4.53-92.52c-.03-.33-4.14-33.15-6.11-51.48l5.63-1.25c1.97,18.36,4.19,52.06,4.22,52.44l5.73,86.43c.04,1.1,3.38,104.72,2.58,156.2,0,.52.58,1.4.9,1.57-.1-.06-.44-.13-.81.03-.41.17-.58.48-.61.58l3.61,1.03c-.41,1.45-1.52,2.06-2.55,2.06Z"/><path class="cls-3" d="M180.23,249.3c.5-7.99,4.57-22.15,8.87-32.57-6.93,7.97-16.96,15.17-18.66,15.63-2.63.71-5.4-2.09-6.46-4.79-1.79-4.55-1.63-12.43,10.41-16.56,7.25-2.48,14.03-4.64,21.19-5.26l.96-1.36.16.26c6.11-6.57,15.3-10.28,24.27-9.49,3.05.27,6.26,1.99,6.1,5.14-.07,1.36.17,5.15-3.12,6.5-7.46,3.08-16.27,1.78-23.81,2.35-.17.01-.35.03-.52.04,2.54,3.76,6.74,11.69,10.35,16.59,4.5,6.11,8.67,9.52,11.13,13.44l-3.18,1.99c-3.4-3.34-7.22-8.92-11.68-14.98-3.66-4.97-7.2-11.21-9.8-15.05-5.12,8.48-11.42,27.5-12.04,37.4l-4.17.69ZM173.94,214.33c-8.1,4.28-7.43,9.45-6.48,11.87.17.44.7,1.42,1.73,1.15,1.87-.7,15.95-10.31,22.98-17.48-5.6.65-13.15,1.77-18.23,4.45ZM201.43,205.3c6.75-.52,12.93.26,19.82-.42,2.34-.23,2.06-4.54,2.07-4.77.02-.44-1.21-1.08-2.68-1.21-2.06-.18-4.14-.09-6.18.25-4.79.8-9.37,2.96-13.04,6.14Z"/><path class="cls-12" d="M191.02,267.52c-4.55,2.39-9.81,10.89-9.81,10.89l9.39,20.06s-3.03,5.84-2.86,6.32c0,0,4.55,8.58,5.54,13.43,1.24,6.11-3.3,18.07-3.3,18.07,0,0,3.6,5.66,3.1,8.77-.8,5.02-8.67,11.76-8.67,11.76,0,0,2.79,3.87,3.89,6.02,1.89,3.72-2.65,11.67-2.65,11.67l.17,11.38s-4.31,4.53-6.46,6.79c50.55,5.27,101.11,10.54,151.66,15.81,18.53,1.93,37.08,3.87,55.4,7.25l8.4.42s5.21-2.5,7.51-4.26c23.76-18.13,77.68-44.26,77.68-44.26,0,0-6.37-9.34-9.55-14.01-.7-1.03-1.43-2.12-1.49-3.37-.11-2.12,1.66-3.79,2.79-5.59,3.3-5.23.39-13.22-5.5-15.1,5.11-4.6,6.84-12.57,4.08-18.87.89-1.04,1.79-2.08,2.68-3.12-4.38-.38-4.36-6.8-2.99-10.97,1.5-4.58,2.99-9.16,4.49-13.73-4.75-2.19-6.19-13.28-6.19-13.28l2.04-13.59-2.01-15.33s3.74-4.85,3.43-7.7c-.41-3.85-5.31-5.13-9.17-5.46-38.63-3.33-77.25-6.67-115.88-10-15.83-1.37-38.01-7.53-53.46-3.5-14.77,3.84-30.29,15.77-43.81,22.87-19.48,10.22-38.95,20.44-58.43,30.67Z"/><path class="cls-22" d="M402.32,411.88c23.76-18.13,77.68-44.26,77.68-44.26,0,0-6.37-9.34-9.55-14.01-.7-1.03-1.43-2.12-1.49-3.37-.11-2.12,1.66-3.79,2.79-5.59,3.3-5.23.39-13.22-5.5-15.1,5.11-4.6,6.84-12.57,4.08-18.87.89-1.04,1.79-2.08,2.68-3.12-4.38-.38-4.36-6.8-2.99-10.97,1.5-4.58,2.99-9.16,4.49-13.73-4.75-2.19-6.19-13.28-6.19-13.28l2.04-13.59-2.01-15.33s3.74-4.85,3.43-7.7c-.41-3.85-5.31-5.13-9.17-5.46-22.33-1.93-44.66-3.85-66.99-5.78.79,2.58.9,5.24-.6,7.39-1.55,2.22-4.67,3.66-4.72,6.37-.04,2.16,2.01,3.8,2.5,5.9,1,4.24-4.47,7.62-4.4,11.98.04,2.78,2.29,4.93,3.92,7.18,1.63,2.25,2.57,5.76.43,7.53-1.43,1.18-4.11,1.58-3.98,3.43.07,1.05,1.12,1.7,1.9,2.39,2.58,2.28,2.89,6.34,1.67,9.55-1.22,3.22-3.66,5.79-6.04,8.28.14.84,1.07,1.08,1.76,1.57,2.38,1.69,9.21,1.45,9.21,1.45l-4.01,12.58-4.83,3.88s.21,1.81.58,2.66c1.07,2.42,3.21,7.27,3.21,7.27,0,0-2.49,14.55-5.02,18.74,4.59,3.04,5.95,14.27,5.95,14.27,0,0-2.32,7.65-5.58,9.96,3.59,1.41,3.84,9.81,3.84,9.81,0,0-3.86,6.62-6.55,9.38,2.2,4.56,4.28,9.19,6.6,13.69,1.07,2.08-1.44,8.86-1.44,8.86,0,0,.52,2.23,1.11,3.24,1.29,2.21,2.27,4.58,2.96,7.04l.69.03s5.21-2.5,7.51-4.26Z"/><path class="cls-10" d="M275.68,288.92c37.53,2.48,112.16,9.4,112.16,9.4l8.08,1.5s13.99-11.13,18.46-15.46c18.23-17.62,37.25-34.46,57.29-49.97l3.44-5.6-21.07-3.4s-65.37-5.5-104-8.84c-15.83-1.37-53.7-10.2-53.7-10.2,0,0-36.78,18.73-50.3,25.83-19.48,10.22-34.9,21.73-54.38,31.95-3.93,2.06-12.91,13.59-12.91,13.59,0,0,40.8,7.24,60.07,9.24,12.24,1.27,24.58,1.14,36.86,1.95Z"/><polygon class="cls-1" points="269.49 234.71 324.89 245.78 334.96 239.94 353.44 226.75 325.57 219.95 298.38 213.83 269.49 234.71"/><path class="cls-1" d="M323.53,281.13s5.94,1.44,16.31,2.72c1.19.15,13.08.77,13.08.77l7.99-7.56,14.95-14.27-29.23-3.4-23.11,21.75Z"/><polygon class="cls-1" points="416.65 244.42 434.41 229.1 443.84 230.83 383.35 288.6 371.11 287.92 416.65 244.42"/><path class="cls-3" d="M348.51,271.65c-1.22-2.18-2.4-5.88-3.4-8.17-2.32-5.32-4.51-10.35-8.79-13.25l-2.24,19.73-4.42.03,4.08-21.03c-5.95,2.71-12.59,6.64-19.25,7.01-2.89.16-5.21-1.96-5.74-2.93-1.23-2.26,1.72-4.72,3.87-5.99,6.3-3.73,14.36-4.24,21.16-1.57l.03-.25.27.15c5.99-2.71,12.23-5.25,18.92-5.17,5.51.08,8.72,1.43,10.94,5.05,1.46,2.38,3.24,8.01,2.04,10.71-1,2.26-1.64,2.65-3.82,3.06-1.95.36-5.22-.5-6.98-1.05-3.93-1.23-8.11-3.15-11.88-4.81,1.71,2.67,4.2,7.63,5.48,10.58.97,2.23,1.4,3.3,2.55,5.35l-2.8,2.55ZM337.43,247.24c5.95,3.18,12.22,5.81,18.65,7.83,1.45.46,2.85.85,4.11.61,1.62-.3,2.44-1.65,2.79-2.43.79-1.78.69-3.99-.24-5.51-1.68-2.73-3.65-4.18-8.11-4.25-5.38-.09-12.06,1.51-17.19,3.75ZM324.79,246.85c-3.71,0-7.43.94-10.62,2.83-1.03.61-1.71,1.52-1.54,1.83.09.16.6,1.98,1.85,1.91,5.24-.29,10.11-3.77,15.16-6.03-1.59-.36-3.22-.54-4.85-.54Z"/><path class="cls-1" d="M261.59,242.47l2.04.13-56.08,33.39-2.07-.3,10.35-6.08s17.04-9.65,25.87-15.04c5.02-3.07,19.88-12.11,19.88-12.11Z"/><path class="cls-1" d="M272.46,244.17l2.04.13-56.08,33.39-2.07-.3,10.35-6.08s17.04-9.65,25.87-15.04c5.02-3.07,19.88-12.11,19.88-12.11Z"/><path class="cls-1" d="M281.64,246.55l2.04.13-56.08,33.39-2.07-.3,10.35-6.08s17.04-9.65,25.87-15.04c5.02-3.07,19.88-12.11,19.88-12.11Z"/><path class="cls-1" d="M292.18,247.57l2.04.13-56.08,33.39-2.07-.3,10.35-6.08s17.04-9.65,25.87-15.04c5.02-3.07,19.88-12.11,19.88-12.11Z"/><path class="cls-1" d="M303.73,248.58l2.04.13-56.08,33.39-2.07-.3,10.35-6.08s17.04-9.65,25.87-15.04c5.02-3.07,19.88-12.11,19.88-12.11Z"/><polygon class="cls-1" points="301.23 259.29 261.93 283.8 259.86 283.51 270.21 277.43 299.7 259.04 301.23 259.29"/><polygon class="cls-1" points="424.47 228.79 394.39 254.45 392.18 254.11 398.13 248.84 422.09 228.79 424.47 228.79"/><polygon class="cls-1" points="413.42 227.09 383.35 252.75 381.14 252.41 387.09 247.14 411.05 227.09 413.42 227.09"/><polygon class="cls-1" points="402.55 224.71 372.47 250.37 370.26 250.03 376.21 244.76 400.17 224.71 402.55 224.71"/><path class="cls-22" d="M234.82,296.42c18.12,1.29,36.27,2.99,54.38,4.42,36.21,2.85,70.52,6.91,106.69,10.3,3.26.31,3.24-4.79,0-5.1-35.5-3.33-68.43-5.12-103.97-7.92-17.44-1.38-37.46-3.98-54.91-5.23-8.72-.63-15.22-.3-23.94-.89-8.24-.56-19.33-1.25-27.28-3.82l2.82,6.01c5.95,1.23,12.18,1.29,18.2,1.7,8.73.59,19.29-.09,28.01.53Z"/><path class="cls-22" d="M231.29,310.96c18.12,1.29,36.23,2.65,54.33,4.07,36.21,2.85,70.05,5.87,106.22,9.26,3.26.31,5.62-3.77,2.38-4.08-35.5-3.33-69.14-6.03-104.68-8.84-17.44-1.38-34.89-2.49-52.34-3.74-8.72-.63-19.34-2.72-28.06-3.32-6.72-.46-21.46.28-21.39.46,0,0,.67,1.27,1.56,3.1,5.21.82,10.59.91,15.81,1.26,8.73.59,17.45,1.19,26.17,1.81Z"/><path class="cls-22" d="M233.33,323.19c18.12,1.29,54.33,4.07,54.33,4.07,0,0,65.64,5.7,101.8,9.09,3.26.31,10.01-4.52,6.77-4.82-35.5-3.33-104.99-7.92-104.99-7.92l-52.68-4.25s-16.77-.6-25.49-1.19c-6.12-.42-14.48-2-20.67-3.01.38,1.09.7,2.14.88,3.05.14.67.2,1.42.21,2.21,4.53.55,9.97.85,14.48,1.16,8.73.59,16.63,1,25.35,1.62Z"/><path class="cls-22" d="M232.96,333.47c18.12,1.29,53.35,4.67,53.35,4.67,0,0,72.4,5.98,108.57,9.37,3.26.31,1.91-3.2-1.33-3.51-35.5-3.33-68.8-6.88-104.34-9.69-17.44-1.38-53.4-5.19-53.21-5.06,0,0-15.73-.13-24.45-.72-5.53-.38-13.06-1.5-18.69-2.24-.34,1.73-.78,3.43-1.21,4.93,4.69.61,9.49.71,14.16,1.03,8.73.59,18.44.59,27.16,1.21Z"/><path class="cls-22" d="M234.69,346.64c18.12,1.29,36.92,1.71,55.03,3.14,36.21,2.85,71.71,6.91,107.88,10.3,3.26.31,3.24-4.79,0-5.1-35.5-3.33-106.18-8.6-106.18-8.6l-51.83-3.74s-18.32-2.05-27.04-2.64c-7.04-.48-14.54-.37-21.53-1.93.8,1.51,1.81,3.71,2.06,5.55,5.1.77,15.44,1.2,15.44,1.2,0,0,17.45,1.19,26.17,1.81Z"/><path class="cls-22" d="M232.65,359.56c18.12,1.29,36.23,2.64,54.33,4.07,36.21,2.85,72.6,4,108.77,7.39,3.26.31,2.73-3.43-.51-3.74-35.5-3.33-70.33-4.5-105.87-7.31-17.44-1.38-52.7-5.23-52.7-5.23,0,0-17.45-1.23-26.17-1.83-6.75-.46-13.93-.37-20.67-1.74-1.37,1.73-2.88,3.27-3.96,4.3,6.66,1.79,22.11,1.1,22.11,1.1,0,0,15.95,2.36,24.67,2.98Z"/><path class="cls-22" d="M233.33,369.75c18.12,1.29,36.23,2.64,54.33,4.07,36.21,2.85,62.92,7.74,99.08,11.13,3.26.31,12.73-6.56,9.49-6.86-11.66-1.09-23.65-.43-35.32-1.47-23.85-2.12-46.49-4.57-70.35-6.46-17.44-1.38-35.76-3.98-53.21-5.23-8.72-.63-17.42.21-26.15-.38-7.96-.54-16.54-1.78-24.28-4.09.54.84,1.04,1.68,1.39,2.35.47.92.54,2.11.38,3.37,6.03,1.28,12.35,1.34,18.46,1.75,8.73.59,17.45,1.19,26.17,1.81Z"/><path class="cls-22" d="M233.16,383.35c18.12,1.29,36.23,2.65,54.33,4.07,36.21,2.85,72.4,5.98,108.57,9.37,3.26.31,3.24-4.79,0-5.1-35.5-3.33-102.61-7.75-102.61-7.75,0,0-37.27-3.68-54.72-4.93-8.72-.63-19-1.71-27.72-2.3-7.77-.53-16.1-.34-23.69-2.47-.08.15-.14.25-.14.25l.07,5c6.4,1.57,21.22.87,21.22.87,0,0,15.95,2.36,24.67,2.98Z"/><path class="cls-22" d="M230.41,392.77c18.41,1.77,35.81,4.13,54.21,6.04,36.47,3.79,72.35,6.44,108.75,10.78,3.25.39,3.77-3.3.55-3.68-35.07-4.18-69.09-6.41-104.21-10.08-17.4-1.82-53.28-6.96-53.28-6.96,0,0-17.41-1.67-26.12-2.49-7.96-.74-16.78-.62-24.53-3.09l.04,2.57s-.84.88-1.96,2.06c6.27,1.95,21.22,1.62,21.22,1.62,0,0,16.62,2.39,25.32,3.23Z"/><path class="cls-6" d="M469.41,248.82l-.82-6.24c-23.26,22.02-48.86,44.67-74.97,63.23l-1.78,1.78-3.39,3.59,15.25-8.05s49.04-38.71,65.72-54.32Z"/><path class="cls-6" d="M470.35,255.98l-.08-.65c-24.52,23.5-50.74,45.15-78.47,64.77.27.61.45,1.01.45,1.01,0,0,.02-.14-.66,3.06,27.54-19.24,53.2-37.83,77.66-60.84l1.1-7.34Z"/><path class="cls-6" d="M469.12,273.62c-.58-2.27-.81-4.04-.81-4.04l.38-2.56c-12.28,11.67-23.45,23.02-36.58,33.66-6.45,5.23-21.07,17.16-21.07,17.16,0,0-14.03,8.24-21.11,13.21-.56,2.24-.49,3.58-1.15,5.31.33.16,36.2-26.34,36.2-26.34,0,0,32.27-25.25,44.14-36.4Z"/><path class="cls-6" d="M470.52,277.83c-15.06,14.41-30.78,28.9-47.07,41.87-10.81,8.6-21.85,16.09-33.17,24.03.77,1.57.96,1.53,1.39,3.16,9.9-6.93,18.79-13.25,28.38-20.39,18.24-13.6,36.71-28.49,53.35-44.36-1.2-1-2.15-2.59-2.88-4.3Z"/><path class="cls-6" d="M409.35,347.4c5.48-3.81,10.19-7.15,14.43-10.22,17.02-12.37,26.21-20.54,45.8-38.89.12-.59.28-1.17.45-1.71.91-2.78,1.82-5.57,2.73-8.35-10.3,9.92-20.74,21.37-31.62,30.61-15.37,13.05-31.48,23.57-47.95,35.22,0,.02,0,.04,0,.04,0,0-.21,1.87-2.35,5.01.56.16,17.87-11.27,18.52-11.73Z"/><path class="cls-6" d="M470.33,310.68c.89-1.04,1.79-2.08,2.68-3.12-.34-.03-.64-.11-.93-.21-9.09,7.69-29.09,24.24-29.09,24.24,0,0-34.3,23.76-52.95,35.31.74,1.71.79,2,.95,3.44,18.2-11.2,53.7-36.03,53.7-36.03,0,0,17.85-12.39,26.74-19.8-.2-1.32-.57-2.61-1.1-3.84Z"/><path class="cls-6" d="M398.3,377.48c13.15-8.02,22.8-14.43,33.65-21.92,11.72-8.1,21.86-15.3,34.73-25.84-.14-.06-.28-.12-.43-.17,2.97-2.67,4.79-6.48,5.26-10.44-12.58,10.63-25.61,21.93-38.54,31.01-5.95,4.18-11.54,6.54-17.66,10.55-8.45,5.55-17.1,10.99-26.01,16.47-.96,1.37-3.52,5.22-4.41,6.13.32.66.63,1.32.94,1.98.69.47,11.53-7.2,12.47-7.78Z"/><path class="cls-6" d="M470.93,333.02c-15.26,12.82-31.55,25.61-47.99,36.81-11.35,7.73-22.6,14.2-34.33,21.41.74,1.54,1.93,3.88,2.71,5.4,10.14-6.22,13.15-9.72,22.95-16.45,4.66-3.2,16.83-10.62,21.41-13.93,12.97-9.39,25-18.07,37.29-28.34-.29-1.76-1-3.47-2.05-4.91Z"/><path class="cls-6" d="M468.96,350.24c-.04-.74.16-1.43.47-2.09-11.97,9.98-23.85,20.36-36.46,29.5-8.54,6.18-18.71,13.42-27.53,19.2-5.35,3.51-9.69,4.88-15.14,8.24-.15.45-.25.73-.25.73,0,0,.52,2.23,1.11,3.24.21.37.41.75.61,1.12,4.49-2.76,8.95-5.57,13.38-8.43,22.73-14.69,44.58-30.7,65.44-47.95-.04-.06-.09-.14-.13-.2-.7-1.03-1.43-2.12-1.49-3.37Z"/><path class="cls-3" d="M436.37,391.92l.34-62.45-6.1-56.95-1.02-4.92c-7.1-1.63-51.91-11.85-75.27-15.92-20.09-3.5-40.4-5.81-60.04-8.05-19.69-2.24-37.23-3.85-57.41-7.37l3.74-3.4c20.09,3.5,34.38,5.49,54.02,7.73,19.69,2.24,40.04,4.56,60.22,8.07,25.37,4.42,74.56,14.33,75.07,14.45l4.42,1.7.68,9.86,4.76,54.7,1.02,59.49-4.42,3.06Z"/><path class="cls-3" d="M276.12,404.84l-4.59-1.02c2.23-35.69,5.45-58.24,5.61-59.76l2.06-54.67,35.31-29.07c.32-.22,32.45-22.17,61.64-43.81l1.82,2.46c-28.65,21.24-60.13,42.78-61.68,43.84l-34.08,28.07-2.02,53.46c-.03.33-1.8,24.2-4.07,60.5Z"/><path class="cls-4" d="M226.97,205.14c1.34,2.06,3.52,6.44,3.52,6.44,0,0-2.19,13.36-6.82,18.44s-10.17,16.45-10.17,16.45c0,0,.29,4.51,1.14,4.89,12.52,5.6,38.34,14.85,38.34,14.85,0,0,16.16,3.57,24.04,1.6,6.08-1.52,17.2-7.51,17.2-7.51,0,0,25.38-6.74,38.27-9.44,11.15-2.34,27.74-17.46,27.74-17.46,0,0,1.88-9.87,1.78-14.91-.45-24.09,1.47-58.98-1.44-82.9-26.44,14.2-58.47,38.38-88.46,37.52-3.65-.1-7.34-.42-10.95.16-8.71,1.4-15.89,7.81-24.49,9.78-5.13,1.17-28.53-10.24-28.53-10.24,0,0,16.25,28.4,18.82,32.34Z"/><path class="cls-13" d="M204.09,158.97c-.73,1.88-.96,1.1-1.04,3.12-.19,4.62,3.36,10.09,7.14,12.75,3.78,2.66,7.28,5.53,11.72,6.8,3.53,1.01,7.23,2.04,10.84,1.33,2.91-.57,4.81-.54,7.51-1.76,21.26-9.61,49.33-4.52,70.86-13.51,7.53-3.14,13.44-3.9,20.39-8.16,7.97-4.88,12.54-5.63,19.63-11.73,7.08-6.1,11.63-15.76,5.35-22.69-4.69-5.17-9.83-4.48-16.71-3.32-6.88,1.16-14.31,1.22-21.01-.75-6.03-1.78-10.37-4.56-16.14-7.04-12.52-5.38-26.33,2.39-37.9,9.59-11.57,7.2-20.14,16.11-33.65,14.27-6.98-.95-14.68-.47-18.35,5.1-3.76,5.69-6.18,9.63-8.64,16Z"/><path class="cls-18" d="M357.52,132.94c-.69,4.38-3.8,10.49-7.49,12.96-16.2,10.82-34.24,18.89-53.1,23.77-6.29,1.63-12.78,2.91-19.24,2.32-4.52-.41-9.29.75-13.63,2.08-12.24,3.74-29.23,5.78-29.23,5.78,0,0-13.1-2.72-22.82-6.67-2.99-1.22-5.05-5.9-5.05-5.9,0,0-2.78-6.6-1.22-9.73,2.58-5.2,12.1-16.37,12.1-16.37,0,0,7.8-2.26,17.33-2.18,9.18.08,20.49-11.54,34.67-17.26,5.78-2.33,13.57-6.59,19.8-6.71,10.92-.21,21.02,6.37,31.86,7.73,5.03.63,8.83,2.53,13.8,1.59,4.98-.94,10.25-1.58,15.01.14,4.76,1.72,7.99,3.46,7.21,8.47ZM360.21,127.36c-3.67-8.57-23.08-6.65-23.08-6.65,0,0-20.49-.48-28.55-5.18-2.45-1.43-9.52-3.32-9.52-3.32,0,0-8.09-.29-10.54,0-19.55,2.32-46.49,22.32-46.49,22.32,0,0-19.04-.82-25.57,3.89-5.92,4.27-14.14,15.82-14.19,23.26-.08,11.37,13.63,17.4,13.63,17.4,0,0,9.13,5.66,14.37,6.12,4.41.39,13.04-2.06,13.04-2.06,0,0,36.54-6.63,54.74-10.31,18.21-3.68,51.19-20.73,51.19-20.73,0,0,14.79-15.8,10.96-24.75Z"/><path class="cls-2" d="M446.62,187.41c-4.32-2.29-14.12-3.73-14.12-3.73l-76.52-17-8.92,8.92s9.4,6.9,17.31,9.1c11.07,3.08,33.21,9.25,33.21,9.25,0,0,19.73,4.77,28.25,12.24,1.99,1.74,6.68,4.47,9.18,5.35,2.53.89,10.2-.25,10.2-.25,0,0,9.45-6.04,9.41-12.42-.03-4.89-3.66-9.17-7.99-11.46ZM445.48,203.02s-4.87,1.89-9.79-.9c-2.08-1.18-4.06-2.87-4.66-5.18-.59-2.32.76-5.19,3.13-5.53,1.11-.16,3.85-.19,3.85-.19,0,0,7.97.35,10.17,3.27,2.05,2.72-2.7,8.53-2.7,8.53Z"/><path class="cls-20" d="M223.49,235.31c9.27-3.18,28.73-4.01,28.73-4.01,0,0,3.93,1.08,5.94,1.03,2.02-.05,4.97-2.83,4.97-2.83,0,0-2.41-5.39-5.29-7.51-2.88-2.11-13.76-4.33-13.76-4.33l-15.96-10.58c1.17,2.09,2.37,4.5,2.37,4.5,0,0-2.19,13.36-6.82,18.44-1.36,1.49-2.8,3.54-4.16,5.67.16.18.25.29.25.29,0,0,2.53-.25,3.73-.66Z"/><path class="cls-20" d="M266.01,240.09c-1.93,3.51,6.37,3.57,6.37,3.57,0,0,7.53-1.16,10.65-1.64,2.03-.32,4.1.11,6.15.11,7.42.02,22.48-23.91,22.48-23.91,0,0-17.6,9.92-20.81,11.24-2.94,1.21-23.84,8.81-24.84,10.64Z"/><path class="cls-9" d="M207.78,311.89s11.19-1.25,16.83,1.15c7.44,3.17,14.97,7.14,19.55,13.8,4.58,6.66,5.16,16.71-.71,22.27-3.44,3.25-12.99,5.11-12.99,5.11,0,0-22.98,1.25-32.34-4.79-2-1.29-4.82-5.11-4.82-5.11,0,0-.73-3.38-.79-5.12-.26-7.67-.96-24.76-.78-25.38s16.06-1.93,16.06-1.93Z"/><path class="cls-19" d="M92.54,353.02c1.53,7.55,6.96,13.61,10.51,20.44,3.72,7.16,5.73,15.75,12.16,20.62,5.83,4.42,21.07,4.18,21.07,4.18l42.75-5.96s7.19-1.74,10.38-3.55c6.26-3.55,10.26-10.19,12.32-17.09,5.16-17.33-.49-35.84-6.38-52.93-1.17-3.4-2.48-6.97-5.27-9.23-3.1-2.51-7.37-2.87-11.35-3.12-14.3-.88-28.72-1.65-42.92.26-11.99,1.61-26.98,5.24-36.66,13.06-7.87,6.36-8.44,24.3-6.62,33.31Z"/><path class="cls-17" d="M133.03,344.28l-5.76,5.45,5,5.09,4.84,4.6s20.38-24.16,22.15-26.22c-3.53-2.47-12.58,2.44-15.98,4.25-5.41,2.88-10.23,6.82-10.23,6.82Z"/><path class="cls-17" d="M176.63,351.82s1.63-3.23,3.28-5.97c.33-.55,2.15-4.07,2.15-4.07,0,0-1.69-1.01-2.09-1.28-1.74-1.22-5.99-3.92-7.92-4.84-2.63-1.26-15.88-6.85-12.63-.24,1.31,2.67,8.06,8.71,8.06,8.71l9.15,7.7Z"/><path class="cls-9" d="M186.69,241.4c-18.72-6.11-58.4-.14-58.4-.14,0,0-37.22,12.51-44.16,30.94-6.94,18.43-.67,47.36,15.75,58.24,12.93,8.56,29.66,8.53,45.04,6.57,21.74-2.77,45.07-10.22,56.58-28.87,11.7-18.96,9.09-58.94-14.81-66.74Z"/><path class="cls-5" d="M123.41,323.17c.19,7.12,7.15,12.92,13.68,15.76,8.54,3.71,27.06.42,27.06.42,0,0,10.23-4.2,12.78-12.2,1.96-6.14,6.28-20.17-6.24-24.47-3.92-1.35-8.89-1.69-16.56-1-7.3.65-21.23,5.08-21.23,5.08,0,0-9.79,5.18-9.49,16.4Z"/><path class="cls-16" d="M165.39,312.69l-9.27.18c-4.09.18-7.52,4.55-6.43,8.49,1.09,3.94,10.3,6.53,10.3,6.53,0,0,7.78-1.52,9.04-8.98.48-2.84-3.64-6.23-3.64-6.23Z"/><path class="cls-16" d="M159.4,325.17c.39,4.38,0,7.55,0,7.55l-.79,7.42,1.27-.12.8-7.08.15-7.85-1.43.08Z"/><path class="cls-16" d="M128.43,297.52c-2.61-.07-4.9,3.58-3.53,5.8.7,1.14,4.5,3.14,6.85.04,1.15-1.52.45-5.74-3.33-5.84Z"/><path class="cls-16" d="M128.43,297.52c-2.61-.07-4.9,3.58-3.53,5.8.7,1.14,4.5,3.14,6.85.04,1.15-1.52.45-5.74-3.33-5.84Z"/><path class="cls-16" d="M175.09,294.57c-2.61-.07-4.9,3.58-3.53,5.8.7,1.14,4.5,3.14,6.85.04,1.15-1.52.45-5.74-3.33-5.84Z"/><path class="cls-14" d="M84.97,324.29s-.91.92-1.44,1.17c-1.53.71-2.96,1.95-3.78,4.1-.82,2.16.03,8.13.03,8.13,0,0,.53,1.3.65,2.01.38,2.17-1.03,3.51-.83,5.67.19,2.06,1.89,5.83,1.89,5.83,0,0-.18,1.72-.15,2.64.05,1.67,2.03,3.99,2.03,3.99,0,0,2,.6,2.96.52,1.45-.12,4.05-1.55,4.05-1.55,0,0,1.19-2.09,1.97-2.77,1.48-1.29,3.72-.2,5.08-1.77,2.89-3.34-1.28-23-1.28-23,0,0-6.34-8.01-10.53-7.55-.27,1.2-.65,2.58-.65,2.58Z"/><path class="cls-9" d="M69.03,378.14c-6.46,6.64-12.24,14.9-12.26,24.16-.02,9.6,15.31,22.57,15.31,22.57,0,0,16.42,6.28,28.03.13,8.48-4.49,16.62-9.69,23.08-16.8,3.29-3.62,7.1-12.58,7.1-12.58,0,0-4.03-10.97-6.62-15.23-5.95-9.79-23.37-19.47-23.37-19.47,0,0-23.86,9.6-31.27,17.23Z"/><path class="cls-14" d="M192.67,376.71c-1.39,1.37-4.36,5.15-5.6,6.69-.52.64-.23,3.66,0,4.39.31.98-.14,2.03.07,3.04.38,1.86,3.75,3.2,3.75,3.2,0,0,3.23-.57,4.85-.85,1.57-.27,3.18-.16,4.78-.19,3.65-.06,9.44-4.66,9.44-4.66,0,0,.76-2.04,1.25-2.99.34-.66.78-1.25,1.02-1.96.64-1.88-.19-4.08-1.21-5.85s-2.28-3.49-2.6-5.53c2.11-.98.83-6.89.83-6.89,0,0-.73-1.21-1.29-1.55-2.13-1.28-7.68,2.31-9.21,3.89-.21.21-3.32,6.53-6.09,9.25Z"/><path class="cls-19" d="M68.12,265.91c-8.82,18.39,7.06,32.85,17.47,38.32,3.8-10.59,11.2-30.03,11.2-30.03l8.46-20.01s-25.92-11.63-37.13,11.72Z"/><path class="cls-19" d="M209.6,244.36c-5.92-3.29-22.26,1.47-22.26,1.47,0,0,7.68,15.28,10.89,22.05,2.41,5.08,9.63,16.39,9.28,15.56l5.93-4.52s6.27-6.24,7.56-17.2c.7-5.98-6.12-14.45-11.4-17.36Z"/><path class="cls-21" d="M81.32,271.89c3.31-8.65,19.01-6.16,19.01-6.16l-10.7,27.55s-13.09-8.87-8.3-21.39Z"/><path class="cls-21" d="M202.83,275.94s5.92-4.99,7.38-9.13c1.45-4.14-.69-11.08-4.43-13.38-4.05-2.5-14.32.56-14.32.56l5.63,11.9,5.74,10.04Z"/></svg>