<?xml version="1.0" encoding="UTF-8"?><svg id="_레이어_1" xmlns="http://www.w3.org/2000/svg" xmlns:xlink="http://www.w3.org/1999/xlink" viewBox="0 0 500 500"><defs><style>.cls-1{clip-path:url(#clippath-51);}.cls-2{fill:#76b149;}.cls-3{fill:#88c3d0;}.cls-4{clip-path:url(#clippath-34);}.cls-5{fill:#a6d0d1;}.cls-6{clip-path:url(#clippath-38);}.cls-7{clip-path:url(#clippath-21);}.cls-8{fill:#c8e0d0;}.cls-9{clip-path:url(#clippath-6);}.cls-10{clip-path:url(#clippath-7);}.cls-11{clip-path:url(#clippath-17);}.cls-12{fill:#95c8d0;}.cls-13{fill:#c9e1d0;}.cls-14{clip-path:url(#clippath-31);}.cls-15{fill:#b7d8d0;}.cls-16{clip-path:url(#clippath-15);}.cls-17{clip-path:url(#clippath-33);}.cls-18{clip-path:url(#clippath-61);}.cls-19{fill:#cae1d0;}.cls-20{fill:#7abdd0;}.cls-21{clip-path:url(#clippath-18);}.cls-22{clip-path:url(#clippath-47);}.cls-23{clip-path:url(#clippath-4);}.cls-24{fill:#82c0d0;}.cls-25{clip-path:url(#clippath-71);}.cls-26{clip-path:url(#clippath-22);}.cls-27{fill:#9ccbd0;}.cls-28{clip-path:url(#clippath-23);}.cls-29{fill:#b3d6d1;}.cls-30{fill:#8bc4d0;}.cls-31{fill:#619942;}.cls-32{clip-path:url(#clippath-54);}.cls-33{clip-path:url(#clippath-66);}.cls-34{fill:#c3ded0;}.cls-35{fill:#9bcbd0;}.cls-36{clip-path:url(#clippath-9);}.cls-37{clip-path:url(#clippath-70);}.cls-38{clip-path:url(#clippath-10);}.cls-39{fill:#99cad0;}.cls-40{clip-path:url(#clippath-42);}.cls-41{fill:#85c1d0;}.cls-42{fill:#afd4d1;}.cls-43{fill:#bddbd0;}.cls-44{clip-path:url(#clippath-59);}.cls-45{fill:#fff;}.cls-46{fill:#335a56;}.cls-47{clip-path:url(#clippath-43);}.cls-48{fill:#bad9d0;}.cls-49{clip-path:url(#clippath-64);}.cls-50{fill:#acd3d1;}.cls-51{clip-path:url(#clippath-25);}.cls-52{fill:#a2ced0;}.cls-53{clip-path:url(#clippath-27);}.cls-54{fill:#b1d5d1;}.cls-55{fill:#a8d1d1;}.cls-56{fill:#abd2d0;}.cls-57{fill:#b9d9d1;}.cls-58{fill:#7cbdd0;}.cls-59{fill:#acd3d0;}.cls-60{clip-path:url(#clippath-60);}.cls-61{fill:#b9dae0;}.cls-62{clip-path:url(#clippath-11);}.cls-63{fill:#a9d1d0;}.cls-64{clip-path:url(#clippath-57);}.cls-65{fill:#78bcd0;}.cls-66{fill:#a3cfd0;}.cls-67{fill:#84c1d0;}.cls-68{fill:#86c2d0;}.cls-69{fill:none;}.cls-70{fill:#9acbd0;}.cls-71{fill:#87c2d0;}.cls-72{fill:#bddbd1;}.cls-73{clip-path:url(#clippath-36);}.cls-74{fill:#75bbd0;}.cls-75{clip-path:url(#clippath-48);}.cls-76{clip-path:url(#clippath-28);}.cls-77{fill:#b6d7d1;}.cls-78{fill:#b0d5d0;}.cls-79{fill:#c0dcd1;}.cls-80{fill:#9fcdd0;}.cls-81{fill:#8ec5d0;}.cls-82{clip-path:url(#clippath-1);}.cls-83{clip-path:url(#clippath-56);}.cls-84{fill:#a1ced0;}.cls-85{fill:#a3c43d;}.cls-86{fill:#b4d7d1;}.cls-87{clip-path:url(#clippath-45);}.cls-88{fill:#a4cfd0;}.cls-89{fill:#80bfd0;}.cls-90{fill:#91c6d0;}.cls-91{clip-path:url(#clippath-46);}.cls-92{fill:#b8d9d0;}.cls-93{clip-path:url(#clippath-40);}.cls-94{opacity:.96;}.cls-95{clip-path:url(#clippath-5);}.cls-96{clip-path:url(#clippath-20);}.cls-97{clip-path:url(#clippath-8);}.cls-98{fill:#3e653a;}.cls-99{fill:#c4ded0;}.cls-100{clip-path:url(#clippath-52);}.cls-101{fill:#92c7d0;}.cls-102{clip-path:url(#clippath-41);}.cls-103{fill:#bedbd1;}.cls-104{clip-path:url(#clippath-67);}.cls-105{fill:#b8d8d1;}.cls-106{fill:#a7d0d0;}.cls-107{clip-path:url(#clippath-3);}.cls-108{fill:#9eccd0;}.cls-109{clip-path:url(#clippath-26);}.cls-110{fill:#89c3d0;}.cls-111{fill:#7fbfd0;}.cls-112{fill:#7ebed0;}.cls-113{fill:#c7dfd0;}.cls-114{fill:#66ad64;}.cls-115{clip-path:url(#clippath-12);}.cls-116{fill:#c2ddd1;}.cls-117{clip-path:url(#clippath-50);}.cls-118{fill:#81c0d0;}.cls-119{fill:#93c7d0;}.cls-120{fill:#add3d1;}.cls-121{clip-path:url(#clippath-14);}.cls-122{fill:#b2d5d0;}.cls-123{fill:#83c1d0;}.cls-124{fill:#bcdad0;}.cls-125{clip-path:url(#clippath-30);}.cls-126{fill:#7dbed0;}.cls-127{clip-path:url(#clippath-19);}.cls-128{fill:#b5d7d0;}.cls-129{fill:#c7e0d0;}.cls-130{fill:#9dccd0;}.cls-131{fill:#c1ddd0;}.cls-132{fill:#8fc6d0;}.cls-133{clip-path:url(#clippath-72);}.cls-134{fill:#68b3c1;}.cls-135{fill:#b4d6d0;}.cls-136{clip-path:url(#clippath-32);}.cls-137{fill:#94c8d0;}.cls-138{fill:#96c9d0;}.cls-139{fill:#6ca66e;}.cls-140{fill:#8dbd71;}.cls-141{fill:#a5d0d0;}.cls-142{fill:#77bcd0;}.cls-143{clip-path:url(#clippath-73);}.cls-144{clip-path:url(#clippath-53);}.cls-145{fill:#a0cdd0;}.cls-146{fill:#90c6d0;}.cls-147{clip-path:url(#clippath-39);}.cls-148{fill:#93a8d6;}.cls-149{fill:#97c9d0;}.cls-150{fill:#bfdcd0;}.cls-151{fill:#bbdad1;}.cls-152{fill:#aad2d1;}.cls-153{fill:#74bbd0;}.cls-154{clip-path:url(#clippath-16);}.cls-155{clip-path:url(#clippath-2);}.cls-156{fill:#76bbd0;}.cls-157{clip-path:url(#clippath-29);}.cls-158{fill:#c5dfd0;}.cls-159{fill:#a1cdd0;}.cls-160{fill:#c2ddd0;}.cls-161{clip-path:url(#clippath-49);}.cls-162{clip-path:url(#clippath-37);}.cls-163{clip-path:url(#clippath-58);}.cls-164{clip-path:url(#clippath-13);}.cls-165{fill:#98cad0;}.cls-166{fill:#aed4d0;}.cls-167{fill:#79bdd0;}.cls-168{fill:#8ac3d0;}.cls-169{fill:#8cc4d0;}.cls-170{clip-path:url(#clippath-63);}.cls-171{clip-path:url(#clippath-24);}.cls-172{fill:#83b977;}.cls-173{fill:#8dc5d0;}.cls-174{clip-path:url(#clippath);}.cls-175{fill:#c6dfd0;}.cls-176{clip-path:url(#clippath-68);}.cls-177{clip-path:url(#clippath-65);}.cls-178{clip-path:url(#clippath-44);}.cls-179{clip-path:url(#clippath-62);}.cls-180{clip-path:url(#clippath-69);}</style><clipPath id="clippath"><rect class="cls-69" x="24.69" y="19.08" width="437.01" height="462.09"/></clipPath><clipPath id="clippath-1"><path class="cls-69" d="M25.38,378.14s0-.08,0-.12c0,.04,0,.08,0,.12"/></clipPath><clipPath id="clippath-2"><path class="cls-69" d="M451.83,436.07c-.43.59-.86,1.17-1.3,1.74.44-.57.87-1.15,1.3-1.74"/></clipPath><clipPath id="clippath-3"><path class="cls-69" d="M25.36,379.95s0-.35.01-1c0,.66-.01,1-.01,1"/></clipPath><clipPath id="clippath-4"><path class="cls-69" d="M25.37,378.9s0-.06,0-.09c0,.03,0,.06,0,.09"/></clipPath><clipPath id="clippath-5"><path class="cls-69" d="M439.66,448.73c-.64.49-1.29.97-1.96,1.43.67-.46,1.32-.94,1.96-1.43"/></clipPath><clipPath id="clippath-6"><path class="cls-69" d="M457.2,427.45c-.29.54-.59,1.07-.89,1.6.3-.53.6-1.06.89-1.6"/></clipPath><clipPath id="clippath-7"><path class="cls-69" d="M443.36,445.63c-.37.33-.74.66-1.12.99.38-.33.75-.65,1.12-.99"/></clipPath><clipPath id="clippath-8"><path class="cls-69" d="M454.72,431.74c-.42.69-.86,1.36-1.3,2.03.44-.67.88-1.35,1.3-2.03"/></clipPath><clipPath id="clippath-9"><path class="cls-69" d="M445.12,443.96c-.34.34-.69.68-1.04,1.01.35-.33.7-.67,1.04-1.01"/></clipPath><clipPath id="clippath-10"><path class="cls-69" d="M455.98,429.63c-.32.56-.66,1.12-1,1.67.34-.55.67-1.11,1-1.67"/></clipPath><clipPath id="clippath-11"><path class="cls-69" d="M441.55,447.22c-.42.35-.84.68-1.27,1.02.43-.33.85-.67,1.27-1.02"/></clipPath><clipPath id="clippath-12"><path class="cls-69" d="M453.4,433.81c-.47.7-.94,1.39-1.43,2.07.49-.68.96-1.37,1.43-2.07"/></clipPath><clipPath id="clippath-13"><path class="cls-69" d="M460.57,420.48c-.28.63-.56,1.26-.85,1.89.29-.63.57-1.26.85-1.89"/></clipPath><clipPath id="clippath-14"><path class="cls-69" d="M450.08,438.37c-.35.44-.7.88-1.06,1.31.36-.43.71-.87,1.06-1.31"/></clipPath><clipPath id="clippath-15"><path class="cls-69" d="M448.45,440.35c-.33.39-.67.77-1.01,1.15.34-.38.68-.76,1.01-1.15"/></clipPath><clipPath id="clippath-16"><path class="cls-69" d="M459.48,422.91c-.27.57-.54,1.14-.82,1.71.28-.57.55-1.14.82-1.71"/></clipPath><clipPath id="clippath-17"><path class="cls-69" d="M446.81,442.2c-.33.36-.67.71-1.01,1.06.34-.35.68-.7,1.01-1.06"/></clipPath><clipPath id="clippath-18"><path class="cls-69" d="M458.36,425.22c-.27.54-.55,1.09-.84,1.62.28-.54.56-1.08.84-1.62"/></clipPath><clipPath id="clippath-19"><path class="cls-69" d="M25.39,376.61c0-.07,0-.15,0-.23,0,.08,0,.15,0,.23"/></clipPath><clipPath id="clippath-20"><path class="cls-69" d="M25.43,372s0-.08,0-.11c0,.04,0,.08,0,.11"/></clipPath><clipPath id="clippath-21"><path class="cls-69" d="M451.97,435.88c-.05.06-.1.13-.14.19.05-.06.1-.13.14-.19"/></clipPath><clipPath id="clippath-22"><path class="cls-69" d="M456.31,429.05c-.11.19-.22.38-.32.57.11-.19.22-.38.32-.57"/></clipPath><clipPath id="clippath-23"><path class="cls-69" d="M459.73,422.37c-.08.18-.17.36-.25.53.08-.18.17-.35.25-.53"/></clipPath><clipPath id="clippath-24"><path class="cls-69" d="M460.74,420.11c-.05.13-.11.25-.16.37.05-.12.11-.25.16-.37"/></clipPath><clipPath id="clippath-25"><path class="cls-69" d="M458.66,424.62c-.1.2-.2.4-.3.6.1-.2.2-.4.3-.6"/></clipPath><clipPath id="clippath-26"><path class="cls-69" d="M453.42,433.78s-.01.02-.02.03c0-.01.01-.02.02-.03"/></clipPath><clipPath id="clippath-27"><path class="cls-69" d="M454.99,431.3c-.09.15-.18.3-.27.44.09-.15.18-.3.27-.44"/></clipPath><clipPath id="clippath-28"><path class="cls-69" d="M457.52,426.84c-.11.2-.22.41-.33.61.11-.2.22-.41.33-.61"/></clipPath><clipPath id="clippath-29"><path class="cls-69" d="M25.4,376.38c.01-1.19.02-2.66.03-4.38,0,1.72-.02,3.19-.03,4.38"/></clipPath><clipPath id="clippath-30"><path class="cls-69" d="M25.39,377.06c0-.14,0-.3,0-.45,0,.15,0,.31,0,.45"/></clipPath><clipPath id="clippath-31"><path class="cls-69" d="M25.37,378.82c0-.2,0-.43,0-.68,0,.25,0,.48,0,.68"/></clipPath><clipPath id="clippath-32"><path class="cls-69" d="M25.38,378.02c0-.27,0-.56,0-.89,0,.32,0,.62,0,.89"/></clipPath><clipPath id="clippath-33"><path class="cls-69" d="M24.69,297.1h0c.81,28.41.83,56.9.75,71.95.07-15.04.06-43.53-.75-71.95"/></clipPath><clipPath id="clippath-34"><path class="cls-69" d="M25.43,371.88c0-.87.01-1.8.02-2.8,0,.99-.01,1.93-.02,2.8"/></clipPath><clipPath id="clippath-36"><path class="cls-69" d="M445.8,443.26c-.23.23-.45.46-.68.69.23-.23.46-.46.68-.69"/></clipPath><clipPath id="clippath-37"><path class="cls-69" d="M447.45,441.51c-.21.23-.42.47-.64.7.22-.23.43-.46.64-.7"/></clipPath><clipPath id="clippath-38"><path class="cls-69" d="M449.02,439.69c-.19.22-.38.44-.57.67.19-.22.38-.44.57-.67"/></clipPath><clipPath id="clippath-39"><path class="cls-69" d="M444.07,444.97c-.23.22-.47.44-.71.66.24-.22.47-.44.71-.66"/></clipPath><clipPath id="clippath-40"><path class="cls-69" d="M440.28,448.24c-.21.16-.41.33-.62.49.21-.16.41-.33.62-.49"/></clipPath><clipPath id="clippath-41"><path class="cls-69" d="M442.25,446.61c-.23.2-.46.41-.7.6.24-.2.47-.4.7-.6"/></clipPath><clipPath id="clippath-42"><path class="cls-69" d="M450.53,437.81c-.15.19-.3.38-.45.56.15-.19.3-.37.45-.56"/></clipPath><clipPath id="clippath-43"><path class="cls-69" d="M440.69,382.02c-5.22-15.61-3.42-87.86-3.42-87.86,0,0-1.29-62.03-9.02-97.69-12.55-57.94-33.12-120.48-40.08-170.25-35.89-7.14-71.88-3.99-71.88-3.99l-.72-.02c-12.08,12.33-20.38,28.41-31.7,42.91-31.68,40.58-72.31,72.57-113.78,103.62-34.07,25.5-99.47,78.8-99.47,78.8,0,0-31.95,31.74-45.92,49.57.81,28.41.83,56.9.75,71.95v.04c0,.99-.01,1.93-.02,2.8,0,.04,0,.08,0,.11,0,1.72-.02,3.19-.03,4.38,0,.08,0,.15,0,.23,0,.16,0,.31,0,.45v.08c0,.32,0,.62,0,.89,0,.04,0,.08,0,.12,0,.25,0,.48,0,.68,0,.03,0,.06,0,.09v.04c0,.66-.01,1-.01,1,0,0,18.96,68.94,52.36,77.86,35.28,9.43,100.96,11.54,100.96,11.54,0,0,63.43,9.77,95.4,10.53,54.17,1.28,125.28-3.16,163.62-29.73.67-.46,1.32-.94,1.96-1.43.21-.16.41-.33.62-.49.43-.33.85-.67,1.27-1.02.24-.2.47-.4.7-.6.38-.33.75-.65,1.12-.99.24-.22.47-.44.71-.66.35-.33.7-.67,1.04-1.01.23-.23.46-.46.68-.69.34-.35.68-.7,1.01-1.06.22-.23.43-.46.64-.7.34-.38.68-.76,1.01-1.15.19-.22.38-.44.57-.67.36-.43.71-.87,1.06-1.31.15-.19.3-.37.45-.56.44-.57.87-1.15,1.3-1.74.05-.06.1-.13.14-.19.49-.68.96-1.37,1.43-2.07,0-.01.01-.02.02-.03.44-.67.88-1.35,1.3-2.03.09-.15.18-.3.27-.44.34-.55.67-1.11,1-1.67.11-.19.22-.38.32-.57.3-.53.6-1.06.89-1.6.11-.2.22-.41.33-.61.28-.54.56-1.08.84-1.62.1-.2.2-.4.3-.6.28-.57.55-1.14.82-1.71.08-.18.17-.35.25-.53.29-.63.57-1.26.85-1.89.05-.12.11-.25.16-.37.33-.76.65-1.53.96-2.29-7.3-11.8-16.61-22.65-21-35.79"/></clipPath><clipPath id="clippath-44"><path class="cls-69" d="M29.32,325.94c0-.23,0-.46,0-.69,0,.23,0,.46,0,.69"/></clipPath><clipPath id="clippath-45"><path class="cls-69" d="M29.53,365.18c0-.14,0-.29,0-.44,0,.14,0,.29,0,.44M29.53,364.75c0-.15,0-.29,0-.44,0,.15,0,.3,0,.44"/></clipPath><clipPath id="clippath-46"><path class="cls-69" d="M29.28,322.82c0-.23,0-.45,0-.68,0,.23,0,.45,0,.68"/></clipPath><clipPath id="clippath-47"><path class="cls-69" d="M29.52,369.02c0-.37,0-.75,0-1.14,0,.38,0,.77,0,1.14"/></clipPath><clipPath id="clippath-48"><path class="cls-69" d="M29.36,328.98c0-.2,0-.4,0-.6,0,.2,0,.4,0,.6"/></clipPath><clipPath id="clippath-49"><path class="cls-69" d="M29.52,367.25c0-.24,0-.48,0-.72,0,.24,0,.48,0,.72M29.53,366.53v-.36.36"/></clipPath><clipPath id="clippath-50"><path class="cls-69" d="M29.11,312.88c0-.29-.01-.59-.02-.89,0,.3.01.59.02.89"/></clipPath><clipPath id="clippath-51"><path class="cls-69" d="M29.17,315.99c0-.24,0-.48-.01-.72,0,.24.01.48.01.72"/></clipPath><clipPath id="clippath-52"><path class="cls-69" d="M29.43,335.48c0-.21,0-.41,0-.61,0,.2,0,.41,0,.61"/></clipPath><clipPath id="clippath-53"><path class="cls-69" d="M29.5,344.15s0-.09,0-.14c0,.05,0,.09,0,.14"/></clipPath><clipPath id="clippath-54"><path class="cls-69" d="M29.51,347.29c0-.2,0-.4,0-.6,0,.2,0,.4,0,.6"/></clipPath><clipPath id="clippath-56"><path class="cls-69" d="M29.52,349.99c0-.24,0-.48,0-.71,0,.24,0,.48,0,.71"/></clipPath><clipPath id="clippath-57"><path class="cls-69" d="M29.54,355.29v-.39.39"/></clipPath><clipPath id="clippath-58"><path class="cls-69" d="M29.46,338.49c0-.25,0-.51,0-.76,0,.26,0,.51,0,.76"/></clipPath><clipPath id="clippath-59"><path class="cls-69" d="M29.48,341.24c0-.16,0-.33,0-.5,0,.16,0,.33,0,.5"/></clipPath><clipPath id="clippath-60"><path class="cls-69" d="M454.07,432.75c.22-.34.44-.67.65-1.01.09-.15.18-.3.27-.44,0,0,0,0,0,0-.3.49-.61.98-.92,1.46M454.99,431.29s0,0,0-.01c0,0,0,0,0,.01"/></clipPath><clipPath id="clippath-61"><path class="cls-69" d="M452.69,434.83c.24-.34.48-.68.71-1.02,0-.01.01-.02.02-.03.08-.13.16-.25.24-.38-.32.48-.64.96-.97,1.44"/></clipPath><clipPath id="clippath-62"><path class="cls-69" d="M457.84,426.21c.17-.33.35-.66.51-1,.06-.12.12-.23.17-.35-.23.45-.46.9-.69,1.34M458.53,424.87s.02-.05.03-.07c-.01.02-.02.05-.03.07M458.57,424.8s.05-.1.07-.14c-.02.05-.05.1-.07.14"/></clipPath><clipPath id="clippath-63"><path class="cls-69" d="M455.4,430.62c.2-.33.4-.66.59-.99.09-.16.19-.32.28-.49-.28.5-.57.99-.86,1.47"/></clipPath><clipPath id="clippath-64"><path class="cls-69" d="M29.53,352.5v-.14.14M29.53,352.37h0s0,0,0,0M29.53,352.36v-.13.13M29.53,352.23c0-.1,0-.19,0-.29,0,.1,0,.19,0,.29"/></clipPath><clipPath id="clippath-65"><path class="cls-69" d="M456.65,428.44c.18-.33.37-.65.54-.98.09-.17.18-.33.27-.5-.27.5-.54.99-.81,1.48"/></clipPath><clipPath id="clippath-66"><path class="cls-69" d="M451.24,436.86c.2-.26.39-.52.59-.78.05-.07.1-.13.14-.19.1-.14.19-.28.29-.42-.33.47-.67.93-1.02,1.39"/></clipPath><clipPath id="clippath-67"><path class="cls-69" d="M458.96,423.97c.17-.35.35-.71.51-1.07.01-.03.03-.06.05-.1-.18.39-.37.78-.56,1.16M459.52,422.81c.04-.09.08-.17.12-.26-.04.09-.08.17-.12.26M459.65,422.55c.03-.06.05-.12.08-.17,0-.01,0-.02.01-.03-.03.07-.06.14-.1.21"/></clipPath><clipPath id="clippath-68"><path class="cls-69" d="M29.49,373.47s0,.08,0,.12c0,.83,0,1.59-.01,2.3,0-.94.01-1.98.02-3.12,0,.24,0,.47,0,.7M29.5,372.76c0-.68,0-1.39.01-2.13v-.04c0-.35,0-.71,0-1.08,0,1.16-.01,2.24-.02,3.25M29.51,369.51s0-.06,0-.09c0,.03,0,.06,0,.09"/></clipPath><clipPath id="clippath-69"><path class="cls-69" d="M28.88,302.59c0-.28-.02-.55-.02-.83,0,.28.01.55.02.83"/></clipPath><clipPath id="clippath-70"><path class="cls-69" d="M460.03,421.7c.05-.12.11-.24.16-.36-.05.12-.11.24-.16.36M460.19,421.34c.12-.26.23-.51.35-.77-.11.26-.23.51-.35.77M460.57,420.48s-.03.06-.04.09c.03-.07.06-.14.09-.22-.02.04-.04.09-.06.13M460.63,420.35c.03-.08.07-.16.11-.25.01-.03.02-.06.04-.09-.05.11-.1.23-.15.34"/></clipPath><clipPath id="clippath-71"><path class="cls-69" d="M461.02,419.44c.23-.54.46-1.08.68-1.62,0,0,0,0,0,0-.22.54-.45,1.09-.67,1.63"/></clipPath><clipPath id="clippath-72"><path class="cls-69" d="M29.04,309.54c0-.22,0-.44-.01-.66,0,.22,0,.44.01.66"/></clipPath><clipPath id="clippath-73"><path class="cls-69" d="M28.79,299.38c0-.29-.02-.57-.02-.86,0,.29.01.57.02.86"/></clipPath></defs><rect class="cls-69" width="500" height="500"/><path class="cls-114" d="M479.89,192.05c-.47-45.24,5.95-97.09-35.96-139.91-37.05-37.85-127.65-29.9-127.65-29.9l-47.82-1.59c-12.56,37.88-22.92,76.72-22.71,116.47.21,39.79,11.03,78.81,13.32,118.53,3.97,68.61-17.59,136.16-44.37,199.45-2.58,6.11-5.22,12.19-7.89,18.27,21.04,2.8,49.19,6.11,67.27,6.54,54.17,1.28,125.28-3.16,163.62-29.73,40.05-27.77,34.47-106.39,34.47-106.39,0,0,8.47-78.7,7.72-151.72"/><path class="cls-85" d="M29.45,379.8s0-.08,0-.12c0,.04,0,.08,0,.12"/><path class="cls-85" d="M451.83,436.07c-.43.59-.86,1.17-1.3,1.74.44-.57.87-1.15,1.3-1.74"/><path class="cls-85" d="M29.43,381.64s0-.35.01-1.02c0,.67-.01,1.02-.01,1.02"/><path class="cls-85" d="M29.44,380.58s0-.06,0-.09c0,.03,0,.06,0,.09"/><path class="cls-85" d="M449.1,451.31c-.65.5-1.31.98-1.98,1.45.67-.47,1.33-.95,1.98-1.45"/><path class="cls-85" d="M457.2,427.45c-.29.54-.59,1.07-.89,1.6.3-.53.6-1.06.89-1.6"/><path class="cls-85" d="M443.36,445.63c-.37.33-.74.66-1.12.99.38-.33.75-.65,1.12-.99"/><path class="cls-85" d="M454.72,431.75c-.42.68-.86,1.36-1.3,2.03.44-.67.88-1.35,1.3-2.03"/><path class="cls-85" d="M445.12,443.96c-.34.34-.69.68-1.04,1.01.35-.33.7-.67,1.04-1.01"/><path class="cls-85" d="M455.98,429.63c-.32.56-.66,1.12-.99,1.67.34-.55.67-1.11.99-1.67"/><path class="cls-85" d="M441.55,447.22c-.42.35-.84.68-1.27,1.02.43-.34.85-.67,1.27-1.02"/><path class="cls-85" d="M453.4,433.81c-.47.7-.94,1.39-1.43,2.07.49-.68.96-1.37,1.43-2.07"/><path class="cls-85" d="M460.57,420.48c-.28.63-.56,1.27-.85,1.89.29-.63.57-1.26.85-1.89"/><path class="cls-85" d="M450.08,438.37c-.35.44-.7.88-1.06,1.31.36-.43.71-.87,1.06-1.31"/><path class="cls-85" d="M448.45,440.35c-.33.39-.67.77-1.01,1.15.34-.38.68-.76,1.01-1.15"/><path class="cls-85" d="M459.48,422.91c-.27.57-.54,1.15-.82,1.71.28-.57.55-1.14.82-1.71"/><path class="cls-85" d="M446.81,442.2c-.33.36-.67.71-1.01,1.06.34-.35.68-.7,1.01-1.06"/><path class="cls-85" d="M458.36,425.22c-.27.54-.55,1.09-.84,1.62.28-.54.56-1.08.84-1.62"/><path class="cls-85" d="M29.46,378.25c0-.08,0-.15,0-.23,0,.08,0,.16,0,.23"/><path class="cls-85" d="M29.49,373.58s0-.08,0-.12c0,.04,0,.08,0,.12"/><path class="cls-61" d="M451.97,435.88c-.05.06-.1.13-.14.19.05-.06.1-.13.14-.19"/><path class="cls-61" d="M456.31,429.05c-.11.19-.22.38-.33.57.11-.19.22-.38.33-.57"/><path class="cls-61" d="M459.73,422.37c-.08.18-.17.35-.25.53.08-.18.17-.35.25-.53"/><path class="cls-61" d="M460.74,420.11c-.05.13-.11.25-.16.37.05-.12.11-.25.16-.37"/><path class="cls-61" d="M458.66,424.62c-.1.2-.2.4-.3.6.1-.2.2-.4.3-.6"/><path class="cls-61" d="M453.42,433.78s-.01.02-.02.03c0-.01.01-.02.02-.03"/><path class="cls-61" d="M454.99,431.3c-.09.15-.18.3-.27.44.09-.15.18-.3.27-.44"/><path class="cls-61" d="M457.52,426.84c-.11.2-.22.41-.32.61.11-.2.22-.41.32-.61"/><path class="cls-61" d="M29.46,378.02c.01-1.21.02-2.7.03-4.44-.01,1.74-.02,3.23-.03,4.44"/><path class="cls-61" d="M29.46,378.71c0-.15,0-.3,0-.46,0,.16,0,.31,0,.46"/><path class="cls-61" d="M29.44,380.49c0-.2,0-.44,0-.69,0,.25,0,.48,0,.69"/><path class="cls-61" d="M29.45,379.68c0-.27,0-.57,0-.9,0,.33,0,.62,0,.9"/><path class="cls-61" d="M28.75,297.71h0c.82,28.78.84,57.64.77,72.88.07-15.24.06-44.1-.77-72.88"/><path class="cls-61" d="M29.49,373.47c0-.88.01-1.83.02-2.83,0,1.01-.01,1.95-.02,2.83"/><path class="cls-61" d="M445.8,443.26c-.23.23-.45.46-.68.69.23-.23.46-.46.68-.69"/><path class="cls-61" d="M447.45,441.51c-.21.23-.43.47-.64.7.21-.23.43-.46.64-.7"/><path class="cls-61" d="M449.02,439.69c-.19.22-.38.44-.57.67.19-.22.38-.44.57-.67"/><path class="cls-61" d="M444.07,444.97c-.23.22-.47.44-.71.66.24-.22.47-.44.71-.66"/><path class="cls-61" d="M440.28,448.24c-.21.16-.41.33-.62.49.21-.16.41-.33.62-.49"/><path class="cls-61" d="M442.25,446.61c-.23.2-.46.41-.7.6.24-.2.47-.4.7-.6"/><path class="cls-61" d="M450.53,437.81c-.15.19-.3.38-.45.56.15-.19.3-.37.45-.56"/><path class="cls-61" d="M440.69,382.02c-5.22-15.61-3.42-87.86-3.42-87.86,0,0-1.29-62.03-9.02-97.69-12.55-57.94-33.11-120.48-40.08-170.25-35.89-7.14-71.88-3.99-71.88-3.99l-.72-.02c-12.08,12.33-20.38,28.41-31.7,42.91-31.68,40.58-72.31,72.57-113.79,103.62-34.07,25.5-99.47,78.8-99.47,78.8,0,0-31.95,31.74-45.92,49.57.81,28.41.83,56.91.75,71.94v.04c0,.99,0,1.93-.01,2.8,0,.04,0,.08,0,.11-.01,1.72-.02,3.19-.03,4.38,0,.08,0,.15,0,.23,0,.16,0,.31,0,.45v.08c0,.32,0,.62,0,.89,0,.04,0,.08,0,.12,0,.25,0,.48,0,.68,0,.03,0,.06,0,.09v.04c0,.66-.01,1-.01,1,0,0,18.96,68.94,52.36,77.86,35.28,9.43,100.96,11.54,100.96,11.54,0,0,63.43,9.78,95.4,10.53,54.17,1.28,125.28-3.16,163.62-29.73.66-.46,1.32-.94,1.96-1.43.21-.16.41-.33.62-.49.43-.34.85-.67,1.27-1.02.24-.2.47-.4.7-.6.38-.33.75-.65,1.12-.99.24-.22.47-.44.71-.66.35-.33.7-.67,1.04-1.01.23-.23.46-.46.69-.69.34-.35.67-.7,1.01-1.06.21-.23.43-.46.64-.7.34-.38.67-.77,1.01-1.15.19-.22.38-.44.57-.67.36-.43.71-.87,1.06-1.31.15-.19.3-.37.45-.56.44-.57.87-1.15,1.3-1.74.05-.06.1-.13.14-.19.49-.68.97-1.37,1.43-2.07,0-.01.01-.02.02-.03.44-.67.88-1.35,1.3-2.03.09-.15.18-.3.27-.44.34-.55.67-1.11,1-1.67.11-.19.22-.38.32-.57.3-.53.6-1.06.89-1.6.11-.2.22-.41.32-.61.29-.54.56-1.08.84-1.62.1-.2.2-.4.3-.6.28-.57.55-1.14.82-1.71.08-.18.17-.35.25-.53.29-.63.57-1.26.85-1.89.05-.12.11-.25.16-.37.33-.76.65-1.53.96-2.29-7.3-11.8-16.61-22.65-21-35.79"/><path class="cls-31" d="M214.13,18.83c-40.77.43-92.17,3.84-131.07,20.5-43.08,18.46-54.52,89.5-54.52,89.5,0,0-13.01,55.05-6.91,114.03,4.84,46.84,3.73,137.1,3.73,137.1,0,0,18.96,68.94,52.36,77.86,35.28,9.43,100.96,11.54,100.96,11.54,0,0,63.43,9.77,95.4,10.53,54.17,1.28,125.28-3.16,163.62-29.73,40.05-27.77,34.47-106.39,34.47-106.39,0,0,8.47-78.7,7.72-151.72-.47-45.24,5.95-97.09-35.96-139.91-37.05-37.86-127.65-29.9-127.65-29.9l-102.15-3.4Z"/><g class="cls-94"><g class="cls-174"><g class="cls-82"><rect class="cls-153" x="25.38" y="378.02" width="0" height=".12"/></g><g class="cls-155"><rect class="cls-153" x="450.53" y="436.07" width="1.3" height="1.74"/></g><g class="cls-107"><rect class="cls-153" x="25.36" y="378.95" width=".01" height="1.01"/></g><g class="cls-23"><rect class="cls-153" x="25.37" y="378.82" width="0" height=".09"/></g><g class="cls-95"><rect class="cls-153" x="437.71" y="448.73" width="1.96" height="1.43"/></g><g class="cls-9"><rect class="cls-153" x="456.31" y="427.45" width=".89" height="1.6"/></g><g class="cls-10"><rect class="cls-153" x="442.25" y="445.63" width="1.12" height=".99"/></g><g class="cls-97"><rect class="cls-153" x="453.42" y="431.74" width="1.3" height="2.03"/></g><g class="cls-36"><rect class="cls-153" x="444.07" y="443.96" width="1.04" height="1.01"/></g><g class="cls-38"><rect class="cls-153" x="454.99" y="429.63" width="1" height="1.67"/></g><g class="cls-62"><rect class="cls-153" x="440.28" y="447.22" width="1.27" height="1.02"/></g><g class="cls-115"><rect class="cls-153" x="451.97" y="433.81" width="1.43" height="2.07"/></g><g class="cls-164"><rect class="cls-153" x="459.73" y="420.48" width=".85" height="1.89"/></g><g class="cls-121"><rect class="cls-153" x="449.02" y="438.37" width="1.06" height="1.31"/></g><g class="cls-16"><rect class="cls-153" x="447.45" y="440.35" width="1.01" height="1.15"/></g><g class="cls-154"><rect class="cls-153" x="458.66" y="422.91" width=".82" height="1.71"/></g><g class="cls-11"><rect class="cls-153" x="445.8" y="442.2" width="1.01" height="1.06"/></g><g class="cls-21"><rect class="cls-153" x="457.52" y="425.22" width=".84" height="1.62"/></g><g class="cls-127"><rect class="cls-153" x="25.39" y="376.38" width="0" height=".23"/></g><g class="cls-96"><rect class="cls-153" x="25.43" y="371.88" width="0" height=".11"/></g><g class="cls-7"><rect class="cls-153" x="451.83" y="435.88" width=".14" height=".19"/></g><g class="cls-26"><rect class="cls-153" x="455.98" y="429.05" width=".32" height=".57"/></g><g class="cls-28"><rect class="cls-153" x="459.48" y="422.37" width=".25" height=".53"/></g><g class="cls-171"><rect class="cls-153" x="460.57" y="420.11" width=".16" height=".37"/></g><g class="cls-51"><rect class="cls-153" x="458.36" y="424.62" width=".3" height=".6"/></g><g class="cls-109"><rect class="cls-153" x="453.4" y="433.78" width=".02" height=".03"/></g><g class="cls-53"><rect class="cls-153" x="454.72" y="431.3" width=".27" height=".44"/></g><g class="cls-76"><rect class="cls-153" x="457.2" y="426.84" width=".32" height=".61"/></g><g class="cls-157"><rect class="cls-153" x="25.4" y="372" width=".03" height="4.38"/></g><g class="cls-125"><rect class="cls-153" x="25.39" y="376.61" width="0" height=".45"/></g><g class="cls-14"><rect class="cls-153" x="25.37" y="378.14" width="0" height=".68"/></g><g class="cls-136"><rect class="cls-153" x="25.38" y="377.13" width="0" height=".89"/></g><g class="cls-17"><rect class="cls-153" x="24.69" y="297.1" width=".83" height="71.95"/></g><g class="cls-4"><rect class="cls-153" x="25.43" y="369.09" width=".02" height="2.8"/></g><g class="cls-73"><rect class="cls-153" x="445.12" y="443.26" width=".68" height=".69"/></g><g class="cls-162"><rect class="cls-153" x="446.81" y="441.51" width=".64" height=".7"/></g><g class="cls-6"><rect class="cls-153" x="448.45" y="439.69" width=".57" height=".67"/></g><g class="cls-147"><rect class="cls-153" x="443.36" y="444.97" width=".71" height=".66"/></g><g class="cls-93"><rect class="cls-153" x="439.66" y="448.24" width=".62" height=".49"/></g><g class="cls-102"><rect class="cls-153" x="441.55" y="446.61" width=".7" height=".6"/></g><g class="cls-40"><rect class="cls-153" x="450.08" y="437.81" width=".45" height=".56"/></g><g class="cls-47"><polygon class="cls-153" points="24.69 286.9 24.96 285.52 461.7 371.7 461.7 428.01 451.21 481.17 24.69 481.17 24.69 286.9"/><polygon class="cls-153" points="24.96 285.53 25.42 283.21 461.69 369.29 461.69 371.7 24.96 285.53"/><polygon class="cls-74" points="25.42 283.21 25.87 280.89 461.69 366.88 461.69 369.29 25.42 283.21"/><polygon class="cls-156" points="25.87 280.89 26.33 278.57 461.7 364.47 461.7 366.88 25.87 280.89"/><polygon class="cls-142" points="26.33 278.57 26.79 276.25 461.7 362.07 461.7 364.47 26.33 278.57"/><polygon class="cls-65" points="26.79 276.26 27.25 273.94 461.7 359.66 461.7 362.07 26.79 276.26"/><polygon class="cls-167" points="27.25 273.94 27.7 271.62 461.69 357.25 461.69 359.66 27.25 273.94"/><polygon class="cls-20" points="27.7 271.62 28.16 269.3 461.69 354.84 461.69 357.25 27.7 271.62"/><polygon class="cls-58" points="28.16 269.3 28.62 266.99 461.69 352.44 461.69 354.84 28.16 269.3"/><polygon class="cls-126" points="28.62 266.99 29.08 264.67 461.69 350.03 461.69 352.44 28.62 266.99"/><polygon class="cls-112" points="29.08 264.67 29.53 262.35 461.69 347.62 461.69 350.03 29.08 264.67"/><polygon class="cls-111" points="29.53 262.35 29.99 260.03 461.69 345.21 461.69 347.62 29.53 262.35"/><polygon class="cls-89" points="29.99 260.03 30.45 257.72 461.7 342.81 461.7 345.21 29.99 260.03"/><polygon class="cls-89" points="30.45 257.72 30.9 255.4 461.7 340.4 461.7 342.81 30.45 257.72"/><polygon class="cls-118" points="30.9 255.4 31.36 253.08 461.7 337.99 461.7 340.4 30.9 255.4"/><polygon class="cls-24" points="31.36 253.08 31.82 250.76 461.69 335.58 461.69 337.99 31.36 253.08"/><polygon class="cls-123" points="31.82 250.77 32.28 248.45 461.69 333.18 461.69 335.58 31.82 250.77"/><polygon class="cls-67" points="32.28 248.45 32.73 246.13 461.69 330.77 461.69 333.18 32.28 248.45"/><polygon class="cls-41" points="32.73 246.13 33.19 243.81 461.69 328.36 461.69 330.77 32.73 246.13"/><polygon class="cls-68" points="33.19 243.81 33.65 241.5 461.69 325.95 461.69 328.36 33.19 243.81"/><polygon class="cls-71" points="33.65 241.5 34.1 239.18 461.69 323.55 461.69 325.95 33.65 241.5"/><polygon class="cls-3" points="34.1 239.18 34.56 236.86 461.7 321.14 461.7 323.55 34.1 239.18"/><polygon class="cls-110" points="34.56 236.86 35.02 234.54 461.7 318.73 461.7 321.14 34.56 236.86"/><polygon class="cls-168" points="35.02 234.54 35.48 232.23 461.7 316.32 461.7 318.73 35.02 234.54"/><polygon class="cls-30" points="35.48 232.23 35.93 229.91 461.7 313.92 461.7 316.32 35.48 232.23"/><polygon class="cls-169" points="35.93 229.91 36.39 227.59 461.69 311.51 461.69 313.92 35.93 229.91"/><polygon class="cls-173" points="36.39 227.59 36.85 225.27 461.69 309.1 461.69 311.51 36.39 227.59"/><polygon class="cls-81" points="36.85 225.28 37.31 222.96 461.69 306.69 461.69 309.1 36.85 225.28"/><polygon class="cls-132" points="37.31 222.96 37.76 220.64 461.69 304.29 461.69 306.69 37.31 222.96"/><polygon class="cls-146" points="37.76 220.64 38.22 218.32 461.7 301.88 461.7 304.29 37.76 220.64"/><polygon class="cls-90" points="38.22 218.32 38.68 216.01 461.7 299.47 461.7 301.88 38.22 218.32"/><polygon class="cls-101" points="38.68 216.01 39.13 213.69 461.7 297.06 461.7 299.47 38.68 216.01"/><polygon class="cls-119" points="39.13 213.69 39.59 211.37 461.69 294.66 461.69 297.06 39.13 213.69"/><polygon class="cls-137" points="39.59 211.37 40.05 209.05 461.69 292.25 461.69 294.66 39.59 211.37"/><polygon class="cls-12" points="40.05 209.05 40.51 206.74 461.69 289.84 461.69 292.25 40.05 209.05"/><polygon class="cls-12" points="40.51 206.74 40.96 204.42 461.69 287.43 461.69 289.84 40.51 206.74"/><polygon class="cls-138" points="40.96 204.42 41.42 202.1 461.69 285.03 461.69 287.43 40.96 204.42"/><polygon class="cls-149" points="41.42 202.1 41.88 199.78 461.69 282.62 461.69 285.03 41.42 202.1"/><polygon class="cls-165" points="41.88 199.79 42.33 197.47 461.7 280.21 461.7 282.62 41.88 199.79"/><polygon class="cls-39" points="42.33 197.47 42.79 195.15 461.7 277.8 461.7 280.21 42.33 197.47"/><polygon class="cls-70" points="42.79 195.15 43.25 192.83 461.7 275.4 461.7 277.8 42.79 195.15"/><polygon class="cls-35" points="43.25 192.83 43.71 190.52 461.69 272.99 461.69 275.4 43.25 192.83"/><polygon class="cls-27" points="43.71 190.52 44.16 188.2 461.69 270.58 461.69 272.99 43.71 190.52"/><polygon class="cls-130" points="44.16 188.2 44.62 185.88 461.69 268.17 461.69 270.58 44.16 188.2"/><polygon class="cls-108" points="44.62 185.88 45.08 183.56 461.69 265.77 461.69 268.17 44.62 185.88"/><polygon class="cls-80" points="45.08 183.56 45.54 181.25 461.69 263.36 461.69 265.77 45.08 183.56"/><polygon class="cls-145" points="45.54 181.25 45.99 178.93 461.69 260.95 461.69 263.36 45.54 181.25"/><polygon class="cls-159" points="45.99 178.93 46.45 176.61 461.7 258.54 461.7 260.95 45.99 178.93"/><polygon class="cls-84" points="46.45 176.61 46.91 174.29 461.7 256.14 461.7 258.54 46.45 176.61"/><polygon class="cls-52" points="46.91 174.3 47.36 171.98 461.7 253.73 461.7 256.14 46.91 174.3"/><polygon class="cls-66" points="47.36 171.98 47.82 169.66 461.69 251.32 461.69 253.73 47.36 171.98"/><polygon class="cls-88" points="47.82 169.66 48.28 167.34 461.69 248.91 461.69 251.32 47.82 169.66"/><polygon class="cls-141" points="48.28 167.34 48.74 165.02 461.69 246.51 461.69 248.91 48.28 167.34"/><polygon class="cls-5" points="48.74 165.03 49.19 162.71 461.69 244.1 461.69 246.51 48.74 165.03"/><polygon class="cls-106" points="49.19 162.71 49.65 160.39 461.69 241.69 461.69 244.1 49.19 162.71"/><polygon class="cls-55" points="49.65 160.39 50.11 158.07 461.7 239.28 461.7 241.69 49.65 160.39"/><polygon class="cls-63" points="50.11 158.07 50.57 155.76 461.7 236.88 461.7 239.28 50.11 158.07"/><polygon class="cls-152" points="50.56 155.76 51.02 153.44 461.7 234.47 461.7 236.88 50.56 155.76"/><polygon class="cls-56" points="51.02 153.44 51.48 151.12 461.69 232.06 461.69 234.47 51.02 153.44"/><polygon class="cls-50" points="51.48 151.12 51.94 148.8 461.69 229.65 461.69 232.06 51.48 151.12"/><polygon class="cls-59" points="51.94 148.8 52.39 146.49 461.69 227.25 461.69 229.65 51.94 148.8"/><polygon class="cls-120" points="52.39 146.49 52.85 144.17 461.69 224.84 461.69 227.25 52.39 146.49"/><polygon class="cls-166" points="52.85 144.17 53.31 141.85 461.69 222.43 461.69 224.84 52.85 144.17"/><polygon class="cls-42" points="53.31 141.85 53.77 139.53 461.69 220.02 461.69 222.43 53.31 141.85"/><polygon class="cls-78" points="53.77 139.54 54.22 137.22 461.7 217.62 461.7 220.02 53.77 139.54"/><polygon class="cls-54" points="54.22 137.22 54.68 134.9 461.7 215.21 461.7 217.62 54.22 137.22"/><polygon class="cls-122" points="54.68 134.9 55.14 132.58 461.7 212.8 461.7 215.21 54.68 134.9"/><polygon class="cls-29" points="55.14 132.58 55.59 130.27 461.69 210.39 461.69 212.8 55.14 132.58"/><polygon class="cls-135" points="55.59 130.27 56.05 127.95 461.69 207.99 461.69 210.39 55.59 130.27"/><polygon class="cls-86" points="56.05 127.95 56.51 125.63 461.69 205.58 461.69 207.99 56.05 127.95"/><polygon class="cls-128" points="56.51 125.63 56.97 123.31 461.69 203.17 461.69 205.58 56.51 125.63"/><polygon class="cls-77" points="56.97 123.31 57.42 121 461.69 200.76 461.69 203.17 56.97 123.31"/><polygon class="cls-15" points="57.42 121 57.88 118.68 461.7 198.36 461.7 200.76 57.42 121"/><polygon class="cls-105" points="57.88 118.68 58.34 116.36 461.7 195.95 461.7 198.36 57.88 118.68"/><polygon class="cls-92" points="58.34 116.36 58.8 114.04 461.7 193.54 461.7 195.95 58.34 116.36"/><polygon class="cls-57" points="58.79 114.05 59.25 111.73 461.7 191.13 461.7 193.54 58.79 114.05"/><polygon class="cls-48" points="59.25 111.73 59.71 109.41 461.69 188.73 461.69 191.13 59.25 111.73"/><polygon class="cls-151" points="59.71 109.41 60.17 107.09 461.69 186.32 461.69 188.73 59.71 109.41"/><polygon class="cls-124" points="60.17 107.09 60.62 104.78 461.69 183.91 461.69 186.32 60.17 107.09"/><polygon class="cls-72" points="60.62 104.78 61.08 102.46 461.69 181.5 461.69 183.91 60.62 104.78"/><polygon class="cls-43" points="61.08 102.46 61.54 100.14 461.69 179.1 461.69 181.5 61.08 102.46"/><polygon class="cls-103" points="61.54 100.14 62 97.82 461.7 176.69 461.7 179.1 61.54 100.14"/><polygon class="cls-150" points="62 97.83 62.45 95.51 461.7 174.28 461.7 176.69 62 97.83"/><polygon class="cls-79" points="62.45 95.51 62.91 93.19 461.7 171.87 461.7 174.28 62.45 95.51"/><polygon class="cls-131" points="62.91 93.19 63.37 90.87 461.69 169.47 461.69 171.87 62.91 93.19"/><polygon class="cls-116" points="63.37 90.87 63.82 88.55 461.69 167.06 461.69 169.47 63.37 90.87"/><polygon class="cls-160" points="63.82 88.56 64.28 86.24 461.69 164.65 461.69 167.06 63.82 88.56"/><polygon class="cls-34" points="64.28 86.24 64.74 83.92 461.69 162.24 461.69 164.65 64.28 86.24"/><polygon class="cls-99" points="64.74 83.92 65.2 81.6 461.69 159.84 461.69 162.24 64.74 83.92"/><polygon class="cls-158" points="65.2 81.6 65.65 79.29 461.69 157.43 461.69 159.84 65.2 81.6"/><polygon class="cls-175" points="65.65 79.29 66.11 76.97 461.7 155.02 461.7 157.43 65.65 79.29"/><polygon class="cls-113" points="66.11 76.97 66.57 74.65 461.7 152.61 461.7 155.02 66.11 76.97"/><polygon class="cls-129" points="66.57 74.65 67.03 72.33 461.7 150.21 461.7 152.61 66.57 74.65"/><polygon class="cls-8" points="67.03 72.33 67.48 70.02 461.69 147.8 461.69 150.21 67.03 72.33"/><polygon class="cls-13" points="67.48 70.02 67.94 67.7 461.69 145.39 461.69 147.8 67.48 70.02"/><polygon class="cls-19" points="67.94 67.7 68.4 65.38 461.69 142.98 461.69 145.39 67.94 67.7"/><polygon class="cls-19" points="68.4 65.38 77.53 19.08 461.69 19.08 461.69 142.98 68.4 65.38"/></g></g></g><g class="cls-178"><rect class="cls-153" x="29.32" y="325.25" width="0" height=".69"/></g><g class="cls-87"><rect class="cls-153" x="29.53" y="364.3" width="0" height=".88"/></g><g class="cls-91"><rect class="cls-153" x="29.27" y="322.14" width="0" height=".68"/></g><g class="cls-22"><rect class="cls-153" x="29.52" y="367.88" width="0" height="1.14"/></g><g class="cls-75"><rect class="cls-153" x="29.36" y="328.38" width="0" height=".6"/></g><g class="cls-161"><rect class="cls-153" x="29.52" y="366.18" width="0" height="1.08"/></g><g class="cls-117"><rect class="cls-153" x="29.09" y="311.99" width=".02" height=".89"/></g><g class="cls-1"><rect class="cls-153" x="29.16" y="315.27" width=".01" height=".72"/></g><g class="cls-100"><rect class="cls-153" x="29.43" y="334.87" width="0" height=".61"/></g><g class="cls-144"><rect class="cls-153" x="29.5" y="344.01" width="0" height=".14"/></g><g class="cls-32"><rect class="cls-153" x="29.51" y="346.69" width="0" height=".6"/></g><g class="cls-83"><rect class="cls-153" x="29.52" y="349.28" width="0" height=".71"/></g><g class="cls-64"><rect class="cls-153" x="29.53" y="354.9" width="0" height=".39"/></g><g class="cls-163"><rect class="cls-153" x="29.45" y="337.73" width="0" height=".76"/></g><g class="cls-44"><rect class="cls-153" x="29.48" y="340.74" width="0" height=".5"/></g><g class="cls-60"><rect class="cls-153" x="454.07" y="431.28" width=".93" height="1.47"/></g><g class="cls-18"><rect class="cls-153" x="452.69" y="433.39" width=".97" height="1.44"/></g><g class="cls-179"><rect class="cls-153" x="457.84" y="424.66" width=".79" height="1.56"/></g><g class="cls-170"><rect class="cls-153" x="455.4" y="429.14" width=".86" height="1.47"/></g><g class="cls-49"><rect class="cls-153" x="29.53" y="351.94" width="0" height=".56"/></g><g class="cls-177"><rect class="cls-153" x="456.65" y="426.95" width=".81" height="1.48"/></g><g class="cls-33"><rect class="cls-153" x="451.24" y="435.46" width="1.02" height="1.39"/></g><g class="cls-104"><rect class="cls-153" x="458.96" y="422.34" width=".78" height="1.63"/></g><g class="cls-176"><rect class="cls-153" x="29.48" y="369.42" width=".04" height="6.46"/></g><g class="cls-180"><rect class="cls-153" x="28.86" y="301.76" width=".02" height=".83"/></g><g class="cls-37"><rect class="cls-153" x="460.03" y="420.01" width=".75" height="1.69"/></g><g class="cls-25"><rect class="cls-153" x="461.02" y="417.81" width=".68" height="1.63"/></g><g class="cls-133"><rect class="cls-153" x="29.03" y="308.89" width=".01" height=".66"/></g><g class="cls-143"><rect class="cls-153" x="28.77" y="298.52" width=".02" height=".86"/></g><path class="cls-134" d="M29.54,357.27c0-.65,0-1.31,0-1.98,0,.67,0,1.33,0,1.98"/><path class="cls-134" d="M29.53,354.9c0-.79,0-1.58,0-2.4,0,.81,0,1.61,0,2.4"/><path class="cls-134" d="M29.54,361.89c0-.55,0-1.11,0-1.68,0,.57,0,1.12,0,1.68"/><path class="cls-134" d="M29.53,366.18c0-.32,0-.66,0-.99,0,.33,0,.67,0,.99"/><path class="cls-134" d="M29.52,367.88c0-.21,0-.42,0-.62,0,.21,0,.42,0,.62"/><path class="cls-134" d="M29.53,364.3c0-.64,0-1.29,0-1.96,0,.67,0,1.32,0,1.96"/><path class="cls-134" d="M29.48,376.14c0-.09,0-.17,0-.26,0,.09,0,.18,0,.26"/><path class="cls-134" d="M29.52,369.42c0-.13,0-.27,0-.4,0,.14,0,.27,0,.4"/><path class="cls-134" d="M29.09,311.99c-.02-.81-.03-1.63-.05-2.45.02.82.03,1.63.05,2.45"/><path class="cls-134" d="M29.16,315.27c-.02-.8-.03-1.59-.04-2.39.02.8.03,1.6.04,2.39"/><path class="cls-134" d="M29.27,322.14c-.03-2.03-.06-4.08-.1-6.15.04,2.07.07,4.12.1,6.15"/><path class="cls-134" d="M29.03,308.89c-.05-2.09-.1-4.19-.15-6.29.05,2.1.1,4.2.15,6.29"/><path class="cls-134" d="M29.32,325.25c-.01-.81-.02-1.62-.03-2.44.01.82.02,1.63.03,2.44"/><path class="cls-134" d="M28.86,301.76c-.02-.79-.04-1.59-.06-2.38.02.79.04,1.59.06,2.38"/><path class="cls-134" d="M29.36,328.38c0-.81-.02-1.62-.03-2.44,0,.82.02,1.63.03,2.44"/><path class="cls-134" d="M29.52,349.28c0-.66,0-1.32,0-1.99,0,.67,0,1.33,0,1.99"/><path class="cls-134" d="M29.5,344.01c0-.91-.01-1.84-.02-2.77,0,.93.01,1.86.02,2.77"/><path class="cls-134" d="M29.53,351.94c0-.64,0-1.29,0-1.95,0,.66,0,1.31,0,1.95"/><path class="cls-134" d="M29.51,346.69c0-.84,0-1.69-.01-2.54,0,.86,0,1.7.01,2.54"/><path class="cls-134" d="M29.43,334.87c-.02-1.93-.04-3.9-.06-5.89.02,1.99.04,3.95.06,5.89"/><path class="cls-134" d="M29.48,340.74c0-.74-.01-1.49-.02-2.25,0,.76.01,1.5.02,2.25"/><path class="cls-134" d="M29.45,337.73c0-.74-.01-1.49-.02-2.25,0,.75.01,1.5.02,2.25"/><path class="cls-134" d="M53.44,362.3c13.33-6.91,27.79-12.02,30.11-20.73,1.5-5.65-19.25-25.66-19.25-25.66,0,0-3.48-15.98,22.46-23.25,20.98-5.88,13.89-27.62,13.89-27.62,0,0-1.69-4.32-1.93-6.61-.51-5.09,3.25-9.56,7.07-12.97,24.58-21.95,87.92-44.26,87.92-44.26,0,0,5.97-4.38,5.05-7.51-.6-2.04-2.71-3.17-4.59-4.18-6.9-3.71-27.61-13.88-18.28-14.58,9.33-.7,35.64-18.25,36.66-23.81.81-4.39-1.25-8.45-4.59-11.61-12.39,9.98-25.1,19.64-37.89,29.22-34.07,25.5-99.47,78.8-99.47,78.8,0,0-31.95,31.74-45.92,49.57,0,.27.01.53.02.8,0,.28.02.57.02.85.02.78.04,1.57.06,2.35,0,.27.01.55.02.82.05,2.08.1,4.15.15,6.21,0,.22,0,.43.01.65.02.81.03,1.61.05,2.42,0,.29.01.59.02.88.02.79.03,1.58.04,2.36,0,.24,0,.47.01.71.04,2.04.07,4.07.1,6.07,0,.22,0,.45.01.67.01.81.02,1.61.03,2.4,0,.23,0,.45,0,.68.01.81.02,1.61.03,2.41,0,.2,0,.4,0,.59.02,1.97.04,3.9.06,5.81,0,.2,0,.4,0,.6,0,.74.01,1.48.02,2.22,0,.25,0,.5,0,.75,0,.75.01,1.49.02,2.22,0,.16,0,.33,0,.49,0,.92.01,1.84.02,2.74,0,.05,0,.09,0,.14,0,.85,0,1.68.01,2.51,0,.2,0,.39,0,.59,0,.66,0,1.32,0,1.97,0,.24,0,.47,0,.7,0,.65,0,1.29,0,1.93,0,.19,0,.37,0,.56,0,.8,0,1.59,0,2.36,0,.13,0,.26,0,.39,0,.66,0,1.31,0,1.95v2.9c0,.56,0,1.11,0,1.66v.45c0,.66,0,1.3,0,1.93,0,.3,0,.58,0,.87,0,.33,0,.66,0,.98,0,.36,0,.71,0,1.06,0,.21,0,.41,0,.62,0,.38,0,.76,0,1.12,0,.13,0,.27,0,.4,0,2.47-.02,4.61-.04,6.37,0,.09,0,.17,0,.26,0,.15,0,.31,0,.45,7.26-6.18,19.56-8.29,28.03-12.68"/><path class="cls-134" d="M457.46,426.95c.13-.24.25-.49.38-.74-.11.21-.21.42-.32.63-.02.04-.04.07-.06.11"/><path class="cls-134" d="M458.64,424.66c.11-.23.22-.46.33-.68-.1.21-.2.43-.31.64,0,.01-.01.03-.02.04"/><path class="cls-134" d="M460.03,421.7c-.1.21-.19.43-.29.64.1-.21.19-.43.29-.64"/><path class="cls-134" d="M460.78,420.01c.08-.19.16-.39.24-.58-.08.19-.16.39-.24.58"/><path class="cls-134" d="M456.26,429.14c.13-.23.26-.47.39-.71-.12.2-.23.41-.34.62-.02.03-.03.06-.05.09"/><path class="cls-134" d="M450.92,437.29c.11-.14.21-.29.31-.43-.11.14-.21.29-.32.43,0,0,0,0,0,0"/><path class="cls-134" d="M454.07,432.75c-.14.21-.27.43-.41.64.14-.21.27-.43.41-.64"/><path class="cls-134" d="M455.4,430.62c-.13.22-.26.44-.39.66.13-.22.26-.44.39-.66"/><path class="cls-134" d="M452.69,434.83c-.14.21-.29.42-.43.63.15-.21.29-.42.43-.63"/><path class="cls-134" d="M461.69,417.81c-7.3-11.8-16.61-22.65-21-35.79-5.22-15.61-3.42-87.86-3.42-87.86,0,0-1.29-62.03-9.02-97.69-4.42-20.42-9.85-41.42-15.31-62.22-2.96,2.05-4.27,7.27-3.61,11.16,1.12,6.61,5.46,12.22,7.5,18.61,2.92,9.18-13.93,8.25-13.93,8.25,0,0-14.56,4.82-9.38,10.86,5.92,6.91,13.25,18.45,13.98,20.41,1.73,4.62,3.47,9.24,5.2,13.86,2.61,6.96,5.27,14.35,3.99,21.67-2.43,13.89-26.1,32.39-26.1,32.39,0,0-3.37,4.85-3.02,7.64.22,1.74,1.17,3.3,2.12,4.77,5.66,8.81,16.2,26.87,16.2,26.87,0,0,6.09,20.72,2.47,30.55-4.28,11.63-22.41,29.41-22.41,29.41,0,0-3.37,5.34-3.63,8.42-.23,2.79.65,5.58,1.9,8.09,4.89,9.9,14.83,16.12,24.19,21.98,13.52,8.46,26.84,17.22,39.95,26.29.85.59,1.71,1.19,2.56,1.81.11-.14.21-.29.32-.43.34-.46.68-.92,1.02-1.39.15-.21.29-.42.43-.63.33-.48.66-.96.97-1.44.14-.21.27-.43.41-.64.32-.49.63-.98.93-1.47.13-.22.26-.44.39-.66.29-.49.58-.98.86-1.48.02-.03.03-.06.05-.09.12-.2.23-.41.34-.62.27-.49.54-.99.81-1.48.02-.04.04-.07.06-.11.11-.21.22-.42.32-.63.27-.52.53-1.03.79-1.56,0-.01.01-.02.02-.04.1-.21.21-.43.31-.64.26-.54.53-1.09.78-1.63.1-.21.19-.43.29-.64.25-.56.51-1.12.75-1.69.08-.19.16-.38.24-.58.23-.54.45-1.08.67-1.63"/><path class="cls-139" d="M61.52,212.77c-.12-4.76-1.37-8.36-1.49-13.11-1.45,2.14-3.2,8.88-3.2,8.88l-1.63,6.15s-5.04-3.98-7.73-6.87c1.6,5.53,3.13,8.59,5.24,11.47l5.17-.57c4.6-.38,6.51-.77,6.51-.77-.32.9.87-2.72,1.72-6.7.59-2.74,1.72-6.51,2.19-7.02-3.72,1.47-5.06,4.53-6.79,8.55"/><path class="cls-140" d="M462.32,341.77c-.12-4.76-1.37-8.36-1.49-13.11-1.45,2.14-3.2,8.88-3.2,8.88l-1.63,6.15s-5.04-3.98-7.73-6.87c1.6,5.53,3.13,8.59,5.24,11.47l5.17-.57c4.6-.38,6.51-.77,6.51-.77-.32.89.87-2.72,1.72-6.71.59-2.74,1.72-6.51,2.19-7.02-3.72,1.47-5.06,4.53-6.79,8.55"/><path class="cls-140" d="M463.88,236.16c-.08-3.36-.97-5.91-1.05-9.27-1.03,1.51-2.26,6.28-2.26,6.28l-1.15,4.35s-3.56-2.81-5.46-4.85c1.13,3.91,2.21,6.07,3.7,8.1l3.66-.41c3.25-.27,4.6-.54,4.6-.54-.22.63.62-1.92,1.22-4.74.41-1.94,1.22-4.6,1.55-4.96-2.63,1.04-3.58,3.2-4.8,6.04"/><path class="cls-140" d="M470.46,163.1c-.08-3.36-.97-5.91-1.05-9.27-1.03,1.51-2.26,6.28-2.26,6.28l-1.15,4.35s-3.56-2.81-5.46-4.85c1.13,3.91,2.21,6.07,3.7,8.1l3.66-.41c3.25-.27,4.6-.54,4.6-.54-.22.63.62-1.92,1.22-4.74.41-1.94,1.22-4.6,1.55-4.96-2.63,1.04-3.58,3.2-4.8,6.04"/><path class="cls-2" d="M92.6,176.05c-.09-3.76-1.08-6.61-1.18-10.37-1.15,1.69-2.53,7.02-2.53,7.02l-1.29,4.86s-3.98-3.14-6.11-5.43c1.26,4.37,2.48,6.79,4.14,9.06l4.09-.45c3.63-.3,5.15-.61,5.15-.61-.25.71.69-2.15,1.36-5.3.46-2.16,1.36-5.15,1.73-5.55-2.94,1.16-4,3.58-5.36,6.76"/><path class="cls-2" d="M131.42,191.85c-.09-3.76-1.08-6.61-1.18-10.37-1.15,1.69-2.53,7.02-2.53,7.02l-1.29,4.86s-3.98-3.14-6.11-5.43c1.26,4.37,2.48,6.79,4.14,9.06l4.09-.45c3.64-.3,5.15-.61,5.15-.61-.25.71.69-2.15,1.36-5.3.46-2.16,1.36-5.15,1.73-5.55-2.94,1.16-4,3.58-5.36,6.76"/><path class="cls-139" d="M27.96,254.59s3.59.99,7.11,6.32c-.11-6.85-1.89-11.43-.81-17.08,1.46,3.74,3.84,12.25,3.84,12.25,0,0,.95,5.88.8,8.66-2.03.07-4.7.3-4.7.3l-6.24-10.44Z"/><path class="cls-139" d="M126.15,165.34c.06-2.48.72-4.36.78-6.85.76,1.12,1.67,4.64,1.67,4.64l.85,3.21s2.63-2.08,4.04-3.59c-.84,2.89-1.64,4.49-2.74,5.99l-2.7-.3c-2.4-.2-3.4-.4-3.4-.4.17.47-.46-1.42-.9-3.5-.31-1.43-.9-3.4-1.14-3.67,1.94.77,2.64,2.37,3.54,4.47"/><path class="cls-140" d="M443.03,161.89c.06-2.48.72-4.36.78-6.85.76,1.12,1.67,4.64,1.67,4.64l.85,3.21s2.63-2.08,4.04-3.59c-.83,2.89-1.64,4.49-2.74,5.99l-2.7-.3c-2.4-.2-3.4-.4-3.4-.4.17.47-.46-1.42-.9-3.5-.31-1.43-.9-3.4-1.14-3.67,1.94.77,2.64,2.37,3.54,4.47"/><path class="cls-140" d="M441.66,263.42c.08-2.99.86-5.25.93-8.23.91,1.34,2.01,5.57,2.01,5.57l1.02,3.86s3.16-2.5,4.85-4.31c-1,3.47-1.97,5.39-3.29,7.2l-3.25-.36c-2.88-.24-4.09-.48-4.09-.48.2.56-.55-1.71-1.08-4.21-.37-1.72-1.08-4.09-1.37-4.41,2.34.92,3.18,2.84,4.26,5.37"/><path class="cls-2" d="M68.31,235.88s-4.69,1.29-9.28,8.25c.14-8.94,2.46-14.91,1.06-22.29-1.91,4.88-5.01,15.98-5.01,15.98,0,0-1.24,7.67-1.05,11.3,2.65.1,6.13.38,6.13.38l8.15-13.63Z"/><path class="cls-172" d="M468.91,270.39s-3.6.99-7.11,6.32c.11-6.85,1.89-11.43.81-17.08-1.47,3.74-3.84,12.25-3.84,12.25,0,0-.95,5.88-.8,8.66,2.03.07,4.7.3,4.7.3l6.24-10.44Z"/><path class="cls-172" d="M470.6,186.93s-2.76.76-5.45,4.85c.08-5.25,1.45-8.77.62-13.1-1.12,2.87-2.95,9.4-2.95,9.4,0,0-.73,4.51-.62,6.64,1.56.06,3.6.23,3.6.23l4.79-8.01Z"/><path class="cls-2" d="M48.05,178.25s-2.29,2.09-2.88,7.37c-2.51-5.12-2.92-9.18-5.85-12.97.32,3.32,1.78,10.53,1.78,10.53,0,0,1.52,4.72,2.68,6.72,1.53-.71,3.59-1.56,3.59-1.56l.68-10.1Z"/><path class="cls-172" d="M425.03,193.08s4.1,1.13,8.1,7.21c-.13-7.81-2.15-13.03-.93-19.47,1.67,4.26,4.38,13.96,4.38,13.96,0,0,1.08,6.7.91,9.87-2.31.08-5.35.34-5.35.34l-7.11-11.9Z"/><path class="cls-172" d="M85.57,204.41s3.94,2.85,5.8,10.98c3-8.42,2.92-14.83,6.81-21.25.08,5.24-.9,16.73-.9,16.73,0,0-1.53,7.62-2.98,10.95-2.52-.84-5.87-1.79-5.87-1.79l-2.85-15.62Z"/><path class="cls-172" d="M433.38,307.3s4.47,1.92,8.07,9.44c1.08-8.87-.4-15.11,1.98-22.23,1.23,5.09,2.79,16.52,2.79,16.52,0,0,.18,7.77-.5,11.34-2.64-.27-6.12-.45-6.12-.45l-6.21-14.61Z"/><path class="cls-148" d="M443.94,52.14c-13.7-14-34.71-21.72-55.76-25.91-35.89-7.14-71.89-3.99-71.89-3.99l-102.15-3.4c-40.77.43-92.17,3.84-131.07,20.5-43.08,18.46-54.52,89.5-54.52,89.5,0,0-1.4,5.92-3.07,15.96,60.05-.96,120.1-2.09,180.15-3.39,69.28-1.5,138.56-3.23,207.83-5.19,21.85-.62,43.7-1.25,65.55-1.92-2.41-28.38-10.3-56.84-35.06-82.14"/><path class="cls-46" d="M220.27,141.17c-7.06-10.3-8.85-9.6-18.43-17.6-9.57-8-34.44-18.07-34.44-18.07l-18.2,4.91-46.01-22.47s-7.81,1.98-11.45,3.74c-5.08,2.45-40.92,19.34-62.8,34.99-.27,1.4-.4,2.17-.4,2.17,0,0-2.12,8.96-4.24,23.52,17.57.89,51.84.7,51.84.7l39.46-1.73s68.93-6.1,104.67-10.14"/><path class="cls-98" d="M479,134.28c-1.8-21.23-6.67-42.51-19.38-62.47-7.96.6-20.31,6.58-20.31,6.58l-23.14-6.95-19.68,18.23c-17.47,19.9-44.11,48.02-44.27,48.19,20.41-.54,40.83-1.09,61.24-1.67,21.85-.62,43.7-1.25,65.55-1.92"/><path class="cls-45" d="M323.81,61.08c6.98.77,19.71,4.04,26.69,4.81,6.41.71,17.03-1.04,18.38-1.31,4.38-.88,10.37-4.19,16.82-5.17,2.32-.35,4.7-.03,7-.47,3.03-.58,5.65-2.42,8.16-4.21,1.23-.88,2.57-1.92,2.79-3.42.3-2.06-1.63-3.7-3.34-4.88-2.89-1.99-9.29-4.8-9.29-4.8,0,0-19.36.59-28.16-.19-6.89-.61-22.57,1.05-22.57,1.05,0,0-32.62,16.81-16.47,18.6"/><path class="cls-45" d="M267.25,88.95c4.1-.52,13.74,2.59,17.87,2.72,11.64.35,16.62.81,27.58-3.11,5.44-1.94,6.62-6.18,6.22-6.6-3.28-3.49-12.3-5.27-12.3-5.27,0,0-23.33-6.25-31.6-4.05-10.27,2.73-23.64,18.34-7.77,16.32"/></svg>