<?xml version="1.0" encoding="UTF-8"?><svg id="_레이어_1" xmlns="http://www.w3.org/2000/svg" xmlns:xlink="http://www.w3.org/1999/xlink" viewBox="0 0 500 500"><defs><style>.cls-1{fill:#528742;}.cls-2{fill:#acd5f0;}.cls-3{fill:#fff;}.cls-4{fill:none;}.cls-5{fill:#5b9e4e;}.cls-6{fill:#84b64c;}.cls-7{fill:#7b6c57;}.cls-8{fill:#b8dae9;}.cls-9{fill:#d3e3f6;}.cls-10{fill:#e8f3fb;}.cls-11{fill:#cde4e6;}.cls-12{fill:#629c43;}.cls-13{fill:#ebf5fa;}.cls-14{fill:#8cc0eb;}.cls-15{fill:#d16c45;}.cls-16{fill:#bbddf4;}.cls-17{fill:#5490ae;}.cls-18{fill:#c3d0ea;}.cls-19{fill:#4f8643;}.cls-20{clip-path:url(#clippath);}.cls-21{fill:#d4e8f1;}</style><clipPath id="clippath"><path class="cls-4" d="M469.5,395.66c6.07-84.07,6.13-195.77,6.13-195.77,0,0,22.13-114.46-33.15-145.17-33.42-18.57-117.13-18.15-117.13-18.15l-120.45-6.62s-113.5.96-152,43.75c-44.92,49.93-22.15,115.16-31.27,191.22-7.16,59.74,9.54,136.52,45.87,175.62,27.12,29.19,109.4,29.53,109.4,29.53,0,0,100.02-7.41,141-6.3,36.89,1,92.53,16.07,119.32-10.02,17.67-17.21,32.3-58.08,32.3-58.08Z"/></clipPath></defs><rect class="cls-4" width="500" height="500"/><g class="cls-20"><path class="cls-9" d="M469.5,395.66c6.07-84.07,6.13-195.77,6.13-195.77,0,0,22.13-114.46-33.15-145.17-33.42-18.57-117.13-18.15-117.13-18.15l-120.45-6.62s-113.5.96-152,43.75c-44.92,49.93-22.15,115.16-31.27,191.22-7.16,59.74,9.54,136.52,45.87,175.62,27.12,29.19,109.4,29.53,109.4,29.53,0,0,100.02-7.41,141-6.3,36.89,1,92.53,16.07,119.32-10.02,17.67-17.21,32.3-58.08,32.3-58.08Z"/><path class="cls-19" d="M85.12,80.51c9.33-6.03,18.73-6.8,18.73-6.8l22.19,6.8,13.67-5.72c6.18-1.08,23,9.84,23,9.84,0,0,18.37,10.04,36.31,20.87-2.92-1.76-14.24.94-17.82,1.15-6.17.36-12.35.67-18.52.95-12.81.57-25.63.96-38.45,1.18-8.04.14-71.15-2.77-71.15-2.77,0,0,11.99-11.13,14.43-13.21,5.56-4.72,11.5-8.34,17.62-12.3Z"/><path class="cls-5" d="M180.44,81.95c3.1-2.29,31.22-23.41,31.22-23.41,0,0,7.08-4.99,21.64-2.91,17.28,5.95,20.7,7.77,20.7,7.77l19.96,10.85s10.12-7.18,17.61-7.18c6.24,0,23.73,11.45,23.73,11.45l26.58,21.61s-119.32,6.25-163.29,8.61c-9.02.49-26.22-4.36-26.22-4.36,0,0,26.41-21.22,28.07-22.44Z"/><path class="cls-6" d="M191.18,316.93c41.65-30.36,91.87-71.51,91.87-71.51l11.03-117.17s28.79-1.49,47.25-23.67c1.89-2.27,14.29-3.1,17.14-7.05l-126.75,1.8-101.09,6.43-128.11-1.9s-1.91-.07-5.2-.08c-2.81,4.71-4.91,8.06-4.91,8.06l-9.5-6.9c-.79,47.06-3.82,94.98-4.61,142.04-.33,19.66-1.7,38.36,8.71,50.41,4.36,5.04,26.88,171.09,33.51,170.72,33.36-39.58,147.62-134.39,170.66-151.18Z"/><path class="cls-6" d="M466.32,514.6c-1.85-9.21,34.4-189.59,40.81-200.34,7.71-12.92,61.99-170.28,61.99-170.28,0,0-34.02-16.57-93.52-46.75l-59.11-.8c-30.11,5.14-114.82,47.02-124.54,56.45-35.4,34.35-4.64,86.26-4.64,86.26,0,0-42.16,126.7-31.84,158.76,147.93,415.63,220.38,164.14,210.85,116.71Z"/><path class="cls-18" d="M152.23,317.3c-1.57.97-3.16,1.92-4.74,2.87,1.59-.95,3.17-1.9,4.74-2.87Z"/><path class="cls-18" d="M196.31,282.57c-1.28,1.37-2.59,2.69-3.91,4.01,1.32-1.31,2.63-2.64,3.91-4.01Z"/><path class="cls-18" d="M146.32,320.87c-1.57.93-3.15,1.86-4.74,2.78,1.59-.92,3.17-1.84,4.74-2.78Z"/><path class="cls-18" d="M156.96,314.32c-1.45.93-2.9,1.84-4.37,2.75,1.46-.91,2.92-1.82,4.37-2.75Z"/><path class="cls-18" d="M141.22,323.85c-1.52.88-3.05,1.75-4.58,2.61,1.53-.86,3.06-1.73,4.58-2.61Z"/><path class="cls-18" d="M257.78,461.64c.14.55.3,1.11.47,1.68-.18-.57-.34-1.13-.47-1.68Z"/><path class="cls-18" d="M191.48,287.49c-1.31,1.28-2.63,2.54-3.97,3.77,1.34-1.23,2.67-2.49,3.97-3.77Z"/><path class="cls-18" d="M135.48,327.12c-1.58.89-3.16,1.77-4.75,2.65,1.59-.88,3.17-1.76,4.75-2.65Z"/><path class="cls-18" d="M167.34,307.37c-1.33.94-2.66,1.86-4.01,2.77,1.35-.91,2.68-1.84,4.01-2.77Z"/><path class="cls-18" d="M172.69,303.49c-1.45,1.08-2.91,2.15-4.38,3.2,1.47-1.05,2.94-2.12,4.38-3.2Z"/><path class="cls-18" d="M182.34,295.81c-1.38,1.17-2.77,2.32-4.19,3.45,1.41-1.13,2.81-2.28,4.19-3.45Z"/><path class="cls-18" d="M177.37,299.88c-1.26,1-2.53,1.98-3.81,2.95,1.28-.97,2.55-1.95,3.81-2.95Z"/><path class="cls-18" d="M162.63,310.62c-1.51,1.02-3.03,2.02-4.57,3,1.53-.99,3.06-1.99,4.57-3Z"/><path class="cls-18" d="M187.04,291.69c-1.24,1.13-2.5,2.24-3.77,3.33,1.27-1.09,2.53-2.2,3.77-3.33Z"/><path class="cls-18" d="M257.24,458.5c.03.48.1.98.18,1.49-.09-.52-.15-1.02-.18-1.49Z"/><path class="cls-18" d="M113.89,338.95h0c.08-.04.16-.09.24-.13-.08.04-.16.09-.24.13Z"/><path class="cls-18" d="M124.44,333.22c-1.56.85-3.13,1.7-4.69,2.55,1.56-.85,3.13-1.7,4.69-2.55Z"/><path class="cls-18" d="M257.43,460.02c.09.51.2,1.05.34,1.59-.14-.54-.25-1.08-.34-1.59Z"/><path class="cls-18" d="M129.84,330.26c-1.4.77-2.8,1.54-4.21,2.31,1.4-.77,2.81-1.54,4.21-2.31Z"/><path class="cls-18" d="M258.84,465.08h0c-.21-.59-.41-1.17-.59-1.75.18.58.38,1.16.59,1.75Z"/><polygon class="cls-11" points="316.28 265.02 316.27 265.02 316.28 265.02 316.28 265.02"/><path class="cls-11" d="M316.28,265.02s0,0,0,0c0,0,0,0,0,0,0,0,0,0,0,0Z"/><path class="cls-11" d="M257.77,461.61s0,.02,0,.03c0-.01,0-.02,0-.03Z"/><path class="cls-11" d="M257.43,459.99s0,.02,0,.03c0-.01,0-.02,0-.03Z"/><path class="cls-11" d="M141.58,323.65c-.12.07-.24.14-.36.21.12-.07.24-.14.36-.21Z"/><path class="cls-11" d="M147.48,320.18c-.39.23-.77.46-1.16.69.39-.23.77-.46,1.16-.69Z"/><path class="cls-11" d="M136.64,326.46c-.39.22-.78.44-1.16.66.39-.22.78-.44,1.16-.66Z"/><path class="cls-11" d="M125.63,332.57c-.4.22-.79.43-1.19.65.4-.22.79-.43,1.19-.65Z"/><path class="cls-11" d="M130.73,329.77c-.3.16-.6.33-.89.49.3-.16.6-.33.89-.49Z"/><path class="cls-11" d="M119.75,335.77c-1.87,1.02-3.74,2.03-5.62,3.05,1.87-1.02,3.74-2.03,5.62-3.05Z"/><path class="cls-11" d="M152.6,317.07c-.12.08-.25.16-.37.23.12-.08.25-.16.37-.23Z"/><path class="cls-11" d="M183.27,295.02c-.31.27-.62.53-.93.8.31-.26.62-.53.93-.8Z"/><path class="cls-11" d="M173.56,302.83c-.29.22-.58.44-.87.66.29-.22.58-.44.87-.66Z"/><path class="cls-11" d="M168.31,306.69c-.32.23-.64.45-.97.68.32-.23.65-.45.97-.68Z"/><path class="cls-11" d="M178.15,299.26c-.26.21-.52.41-.78.61.26-.21.52-.41.78-.61Z"/><path class="cls-11" d="M158.06,313.62c-.36.24-.73.47-1.1.7.37-.23.73-.47,1.1-.7Z"/><path class="cls-11" d="M192.4,286.58c-.31.3-.61.61-.92.91.31-.3.61-.61.92-.91Z"/><path class="cls-11" d="M187.51,291.26c-.16.14-.32.28-.47.42.16-.14.32-.28.47-.42Z"/><path class="cls-11" d="M163.33,310.14c-.23.16-.47.32-.7.48.24-.16.47-.32.7-.48Z"/><path class="cls-3" d="M305.76,256.8c4.44,5.16-11.15,17.62-15.54,22.83s-12.67,15.96-12.67,15.96l36.69-27.79s3.23-4.52,3.5-7.02c.34-3.2-4.26-6.2-4.26-6.2l-32.16-15.88s20.99,14.09,24.43,18.09Z"/><polygon class="cls-11" points="316.28 265.02 316.27 265.02 316.28 265.02 316.28 265.02"/><path class="cls-14" d="M335.18,146.06c13.02-10.64,33.46-21.41,33.46-21.41l42.48-24.55,5.37-3.68-58.35,1.11s-7.29.22-13.19,2.18c-44.29,14.69-79.72,26.17-109.26,43.62-12.93,7.64-50.1,27.39-44.22,47.33,9.16,30.99,18.64,33.6,23.83,41.52,12.47,19.04-6.15,37.2-18.74,50.16-21.84,22.48-48.14,39.22-76.2,52.7-1.85.89-79,50.79-80.38,52.32-3.72,4.16-21.73,30.22-23.76,35.13-6.01,14.58-21.8,40.49-22.62,47.97-.93,8.39,98.29,22.11,99.78,22.88,16.4-13.24,26.37,14.67,26.37,14.67,4.21,1.77,47.06-11.41,66.18-12.74-.38-.88,44,4.69,50.55,18.82,16.15-1.24,29.47-51.14,29.43-51.61-.84-12.1,15.75-28.47,24.97-36.26,38.66-32.7,76.15-80.22,76.15-80.22,0,0,14.35-20.38,18.91-28.78,8.01-14.75.98-36.88.98-36.88,0,0-25.49-33.91-48.33-48.15-7.07-4.41-34.37-21.05-46.68-29.65-15.04-10.52,43.25-56.49,43.25-56.49ZM241.54,291.46c-11.24,22.65-47.96,58.48-47.96,58.48,0,0-25.31,21.97-37.77,29.92-2.58,1.65-5.41,3.47-8.36,5.4,5.53-5.16,10.02-9.29,12.9-11.86,21.41-19.09,39.54-40.82,56.53-54.66,6.62-5.39,18.18-23.15,18.18-23.15l11.17-22.32s-1.76,12.3-4.69,18.19ZM316.28,265.02s0,0,0,0c0,0,0,0,0,0,0,0,0,0,0,0Z"/><path class="cls-21" d="M214.19,455.21c15.67-21.18,56.87-52.22,56.87-52.22,0,0-25.66,15.76-38.47,26.31-14.86,12.24-30.29,32.45-30.29,32.45,0,0-7.01,12.81-12.81,28.66-.27.74-2.41,7.52-2.03,8.4.12,0,.23-.01.35-.02,6.54-.47,8.2-.59,13.73-1.02.75-28.31,7.41-35.49,12.64-42.56Z"/><path class="cls-21" d="M194.71,388.44c1.83.94,4.69,2.34,8.47,3.93l25.22-28.76s-17.29,11.59-33.69,24.83Z"/><polygon class="cls-17" points="316.28 265.02 316.28 265.02 316.27 265.02 316.28 265.02"/><path class="cls-8" d="M241.83,168.9l-8.18,4.73c-5.23,5.73-7.31,10.38-7.31,10.38v13.28s-.03-5.29,2.73-11.79c4.36-10.29,29.36-21.93,34.71-26.88-6.6,2.18-21.95,10.27-21.95,10.27Z"/><path class="cls-10" d="M324.44,262.33l24.66,24.68s-3.41-13.03-17.94-27.25c21.34,13.32,26.15,38.38,26.15,38.38,0,0,1.6,8.88-11.05,29.2-9.09,12.63-21.56,16.39-32.07,22.22,30.58-20.39,31.49-37.15,31.49-37.15,0,0,1.13-21.2-5.33-28.24-2.8-3.05-10.77-12.59-10.77-12.59l-32.66-28.29,27.52,19.05Z"/><path class="cls-10" d="M193.58,349.94s36.72-35.83,47.96-58.48c2.92-5.89,4.69-18.19,4.69-18.19l-11.17,22.32s-11.57,17.76-18.18,23.15c-17,13.84-31.73,31.39-56.53,50.33-18.75,14.31-37.55,26.57-48.56,36.62.06,1.06.14,2.11.23,3.14,12.6-8.49,31.05-20.83,43.79-28.96,12.46-7.95,37.77-29.92,37.77-29.92Z"/><path class="cls-7" d="M176.96,383.32s-9.09,9.92-9.69,16.49c-.04.48-.06.99.17,1.4.3.53.94.76,1.52.94,5.52,1.76,16.57,5.29,16.57,5.29,0,0,4.91,1.56,7.43,2.05,3.05.58,6.19.72,9.28.39,5.02-.54,12.85-6.99,12.85-6.99,0,0,1.32-2.96,1.47-4.56.31-3.21-3.28-8.72-3.28-8.72l-8.97-1.92s-6.15-6.95-10.42-8.05c-5.35-1.37-16.93,3.68-16.93,3.68Z"/><path class="cls-3" d="M169.45,397.46c-.98-1.13-3.43.09-3.43.09,0,0-2.6-1.28-4.82-1.77-1.52-.33-3.24,2.4-3.24,2.4,0,0,.37,2.2,1.77,3.25.72.54,3.22.35,3.22.35l1.73,2.53s2.42,1,3.23,1.68c.44.37,3.99.27,4.6.39,4.86.98,7.28-.6,7.28-.6,0,0-2.01-5.01-3.84-5.8-3.26-1.41-3.56.83-6.49-2.52Z"/><path class="cls-3" d="M194.44,407.53c2.33-1.56,8.07.69,8.07.69,0,0,1.77-2,2.72-2.97.98-1,3.82-1.29,3.82-1.29,0,0,2.64,1.11,3.28,2.35.88-.39,2.49,1.02,2.49,1.02l.87,2.49c-.13.9-1.87,1.52-1.87,1.52,0,0-.87.54-1.28.43-1.17-.3-2.96.75-2.96.75,0,0-5.08,1.97-7.29.56-.4-.26-.78-.56-1.24-.68-.34-.09-3.9-.53-3.9-.53l-4.18-2.07s.04-1.33,1.47-2.28Z"/><path class="cls-8" d="M240.44,211.15c-1.02,9.44,10.58,22.99,10.58,22.99l22.98,19.15s-7.11-6.99-10.66-10.49c-5.48-5.39-11.86-10.57-14.47-17.82-5.48-15.23-.3-22.16-.3-22.16,0,0,.44,7.47.67,11.2.31-5.91,2.14-15.5,6.24-21.87,3.07-4.77,12.08-14.49,12.08-14.49,0,0-14.12,6.97-18.77,13.86-4.37,6.47-7.48,11.67-8.34,19.63Z"/><path class="cls-13" d="M194.91,365.04s-2.24-.45-3.05.52c-1.22,1.46.1,3.5.1,3.5l1.43.67c1.52-.09,1.98-.32,2.71-1.92.76-1.67-1.19-2.77-1.19-2.77Z"/><path class="cls-13" d="M223.46,392.86s-2.24-.45-3.05.52c-1.22,1.46.1,3.5.1,3.5l1.43.67c1.52-.09,1.98-.32,2.71-1.92s-1.19-2.77-1.19-2.77Z"/><path class="cls-13" d="M170.16,383.74s-.9-.18-1.23.21c-.49.59.04,1.41.04,1.41l.58.27c.62-.04.8-.13,1.1-.78s-.48-1.12-.48-1.12Z"/><path class="cls-13" d="M185.89,371.68s-.9-.18-1.23.21c-.49.59.04,1.41.04,1.41l.58.27c.62-.04.8-.13,1.1-.78s-.48-1.12-.48-1.12Z"/><path class="cls-13" d="M202.91,360.9s-.9-.18-1.23.21c-.49.59.04,1.41.04,1.41l.58.27c.62-.04.8-.13,1.1-.78s-.48-1.12-.48-1.12Z"/><path class="cls-13" d="M221.34,387.95s-.9-.18-1.23.21c-.49.59.04,1.41.04,1.41l.58.27c.62-.04.8-.13,1.1-.78s-.48-1.12-.48-1.12Z"/><path class="cls-13" d="M217.79,400.34s-.9-.18-1.23.21c-.49.59.04,1.41.04,1.41l.58.27c.62-.04.8-.13,1.1-.78s-.48-1.12-.48-1.12Z"/><path class="cls-13" d="M210.65,376.14c-1.34-1.04-2.7-.67-3.94.06,0,0-.97,1.46-.97,2.45s1.73,2.94,3.45,2.6c.92-.19,2.36-2.08,2.36-2.08,0,0,0-2.33-.9-3.02Z"/><path class="cls-13" d="M175.19,373.25c-1.34-1.04-2.7-.67-3.94.06,0,0-.97,1.46-.97,2.45s1.73,2.94,3.45,2.6c.92-.19,2.36-2.08,2.36-2.08,0,0,0-2.33-.9-3.02Z"/><path class="cls-16" d="M97.46,456.91c2.76-9.54,14.09-15.02,14.09-15.02,0,0,9.73,2.85,13.59,6.36,3.19-3.7,4.42-5.86,6.92-7.46,7.05-4.52,21.23-3.01,21.23-3.01,0,0,17.1,10.98,19.18,19.9,1.93-3.76,17.67-9.12,17.67-9.12,0,0,16.98,4.44,18.33,15.92,7.33-.18,6.36,19.51,6.36,19.51,0,0-3.53,8.85-6.1,10.98-2.21,1.83-7.76,4.2-11.01.42.39,8.11-2.77,14.64-5.62,17.95-4.87,5.66-4.18,6.81-10.62,9.41-7.3,2.95-16.45,1.8-23.37-1.93-2.75-1.48-4.51-3.52-8.35-10.5-5.24,7.17-15.12,15.04-23.09,15.74-7.76.68-20.93-3.68-25.04-12.33-1.62-3.41-2.91-13.54-2.35-17.57-3.61,1.01-5.26,2.54-9.02,1.57-5.91-1.52-14.55-13.16-14.55-13.16l1.12-20.06s4.83-7.69,12-7.69,8.62.08,8.62.08Z"/><path class="cls-10" d="M83.7,494.43c-.34.32-1.41-14.81-1.41-14.81,0,0,4.56-6.3,8.86-8.27,3.04-1.39,14.91,2.52,14.91,2.52,0,0,8.89-6.57,14.86-7.39,5.53-.76,12.34-.17,17.01,3.78,1.49,1.26,3.19,1.65,3.19,1.65,0,0,6.52-5.54,8.68-6.25,8.06-2.63,22.69,2.44,24.93,13.23,1.48-.21,4.71-1.48,4.71-1.48,0,0,9.41-.61,13.28,2.04,3.31,2.27,6.39,9.85,6.39,9.85,0,0-.94,4.09-1.18,6.11,2.52-.17,4.85.94,6.09,3.63,1.95,4.25-.27,9.06-2.76,12.27-2.33,3.01-5.31,5.38-8.48,7.03-1.76.92-7.34,4.21-7.34,4.21,0,0-18.27,12.25-30.26,9.04-3.02-.81-10.3-3.13-10.3-3.13,0,0-3.38,3.03-7,4.65-5.7,2.55-21.39-2.06-21.39-2.06l-9.87-10.92-7.98,2.26s-17.34.03-22.35-10.89c-1.05-2.29-.15-8.3.23-8.93,2.35-2.73,4.62-5.7,7.18-8.15Z"/><path class="cls-16" d="M89.51,461.72s2.05-6.96-3.62-13.54c-3.56-4.13-5.89-5.71-10.03-5.61-4,.09-10.57,1.95-14.11,4.64-2.73,2.07-5.47,8.29-5.47,8.29l-7.9-15.55s-6.52-4.85-14.06-5.72c-2.87-.33-13.47,5.1-13.47,5.1,0,0-5.29-8.33-7.92-10.22-4.53-3.25-17.49,1.7-17.49,1.7l-9.29,12.33-1.03,10.38s-10.39,4.89-10.39,18.08c0,6.77-.29,13.1,4.74,17.9,3.15,3,6.6,3.67,13.34,3.67,5.33-2.13,8.23,9.98,13.02,12,8.13,3.44,18.59,3.52,26.97,1.32,2.68-.7,4.96-1.42,6.93-3.66,1.28-1.46,3.57-4.52,3.57-4.52,0,0,8.44,3.43,11.48,4.43,6.47,2.12,13.75,1.3,20.02-1.27,2.6-1.07,5.97-2.4,8-4.71,1.86-2.13,1.52-3.68,2.33-6.28,1.59-5.07,5.42-2.99,7.4-7.71,1.93-4.59,1.67-8.39.24-13.03l-3.26-8.03Z"/><path class="cls-10" d="M16.45,466.68c-1.57-3.02-6.6-8.44-10.3-9.3-5.28-1.23-14.37,2.8-14.37,2.8,0,0-5.1,5.23-5.41,8.72-4.24-6.27-12.03-1.98-15.05,3.9-1.93,3.75-.74,11.16-.74,11.16,0,0,2.3,4.97,4.73,4.67-2.3,1.98-1.93,7.81-1.93,7.81,0,0,4.67,10.3,8.54,13.12,6.73,4.9,19.26,5.61,19.26,5.61,0,0,6.28-2.34,9.06-2.34,9.03,19.08,35.16,6.45,35.16,6.45,0,0,4.46-3.63,8.72-2.4,5.14,1.48,11.75,2.99,16.72.03,3.03-1.8,7.24-8.04,7.24-8.04l8.74-1.26s7.63-6.67,10.08-14.93c1.37-4.62.46-15.01-2.36-18.94-2.86-3.99-6.28-5.64-10.61-4.21-1.38-5.43-14.93-7.39-14.93-7.39,0,0-12.67,2.27-15.86,7.37-1.8-3.96-11.75-8.33-11.75-8.33,0,0-7.84-.36-11.21-.36-2.85,0-13.72,5.87-13.72,5.87Z"/><path class="cls-16" d="M208.79,467.28s3.85-16.79,13.15-17.54c5.91-.47,11.98,5.15,11.98,5.15l16.8-10.94s10.78-2.51,14.92.44c2.34,1.67,5.38,6.68,5.38,6.68,0,0,14.7-7.04,22.12,1.58,5.87,6.82,3.87,20.05,3.87,20.05,0,0,7.61,9.57,5.77,18.56-1.63,7.95-4.03,10.33-11.14,13.42-3.42,1.48-7.01,1.84-10.63,1.5-2.13-.2-5.91.04-5.91.04,0,0-4.39,4.69-6.59,6.36-5.14,3.9-9.34,5.71-15.45,5.82-5.91.1-10.72.27-15.94-2.96-2.38-1.47-9.05-8.17-9.05-8.17,0,0-6.47,1.72-8.53,2.45-4.29,1.52-8.75.32-12.52-2.34-6.18-4.36-12.37-14.19-6.77-21.92-3.41-2.77-6.87-10.54-.97-17.4,5.91-6.86,9.5-.8,9.5-.8Z"/><path class="cls-10" d="M201.03,484.72c4.17-3.54,9.47-4.95,14.1-1.93.93.61,1.17.91,2.07.16,1.77-1.48-.09.46,4.86-5.29,4.95-5.75,19.82-3.87,19.82-3.87,0,0,3.76,1.86,5.32,3.4.59.58,1.09,1.48,1.91,1.39.88-.1,2.14-1.52,2.94-1.97,2.51-1.42,5.32-2.11,8.09-2.33,5.53-.43,16.63,6.1,16.63,6.1,0,0,.96,2.59,1.43,2.9.54.36,1.74-.33,2.29-.59,6.86-3.37,15.03,4.3,15.03,4.3,0,0,2.75,8.58.38,11.58,1.12.73,2.05,4.12,2.05,4.12,0,0-.11,6.75-1.57,9.68-1.96,3.95-6.35,7.36-10.02,8.63-1.97.68-5.92,1.02-5.92,1.02,0,0-2.02,2.62-4.07,4.18-3.46,2.62-7.33,4.05-7.33,4.05,0,0-18.29-.22-21.75-5.33-4.04,4.67-11.79,5.12-17.1,5.82-10.5,1.38-24.45-11.64-24.45-11.64l-10.8-5.62s-3.4-7.3-2.89-12.66c.31-3.27,4.31-12.12,8.98-16.09Z"/><path class="cls-10" d="M79.46,413.89c2.61-1.34,7.59-.26,9.69,1.24,4.11,2.94,2.28,12.66,2.28,12.66,0,0-5.07,7.47-12.71,3.24-2.76-1.53-3.49-4.07-3.79-7.68-.25-2.94,1.91-8.13,4.52-9.47Z"/><path class="cls-3" d="M.51,443.07c2.61-1.34,9.69,1.24,9.69,1.24,0,0,4.74,8.46,1.4,13.67-2.93,4.58-7.98,5.66-11.83,2.24-2.37-2.1-3.49-4.06-3.79-7.68-.24-2.94,1.91-8.13,4.52-9.47Z"/><path class="cls-2" d="M26.12,396.04s5.3-.48,6.42.82c1.12,1.3,3.14,5.6.93,9.05-1.94,3.03-5.29,3.74-7.83,1.48-1.57-1.39-2.31-2.69-2.51-5.09-.16-1.95,3-6.27,3-6.27Z"/><path class="cls-3" d="M28.49,480.79s5.3-.48,6.42.82,3.14,5.6.93,9.06c-1.94,3.03-5.29,3.74-7.83,1.48-1.57-1.39-2.31-2.69-2.51-5.09-.16-1.95,2.99-6.27,2.99-6.27Z"/><path class="cls-10" d="M142.2,430.47c1.73-.89,5.3-.48,6.42.82,1.12,1.3,3.14,5.6.93,9.06-1.94,3.03-7.83,1.48-7.83,1.48,0,0-2.31-2.69-2.51-5.09-.16-1.95,1.26-5.38,3-6.27Z"/><path class="cls-3" d="M175.52,475c.72-.37,2.21-.2,2.68.34s1.31,2.34.39,3.78c-.81,1.26-2.21,1.56-3.27.62-.65-.58-.96-1.13-1.05-2.12-.07-.81.53-2.25,1.25-2.62Z"/><path class="cls-3" d="M241.49,410.31c.72-.37,2.21-.2,2.68.34s1.31,2.34.39,3.78c-.81,1.26-2.21,1.56-3.27.62-.65-.58-.96-1.13-1.05-2.12-.07-.81.53-2.25,1.25-2.62Z"/><path class="cls-10" d="M291.33,440.01c.72-.37,2.21-.2,2.68.34.47.54,1.31,2.34.39,3.78-.81,1.26-2.21,1.56-3.27.62-.65-.58-.96-1.13-1.05-2.13-.07-.81.53-2.25,1.25-2.62Z"/><path class="cls-3" d="M277.3,452.24c.72-.37,2.21-.2,2.68.34.47.54,1.31,2.34.39,3.78-.81,1.26-2.21,1.56-3.27.62-.65-.58-.96-1.13-1.05-2.12-.07-.81.53-2.25,1.25-2.62Z"/><path class="cls-3" d="M216.56,432.94c.72-.37,2.21-.2,2.68.34.47.54,1.31,2.34.39,3.78-.81,1.26-2.21,1.56-3.27.62-.65-.58-.96-1.13-1.05-2.12-.07-.81.53-2.25,1.25-2.62Z"/><path class="cls-3" d="M187.72,465.17c.72-.37,2.21-.2,2.68.34.47.54,1.31,2.34.39,3.78-.81,1.26-2.21,1.56-3.27.62-.65-.58-.96-1.13-1.05-2.12-.07-.81.53-2.25,1.25-2.62Z"/><path class="cls-3" d="M293.7,468.42c.72-.37,2.21-.2,2.68.34.47.54,1.31,2.34.39,3.78-.81,1.26-2.21,1.56-3.27.62-.65-.58-.96-1.13-1.05-2.12-.07-.81.53-2.25,1.25-2.62Z"/><path class="cls-3" d="M24.37,422.1c.72-.37,2.21-.2,2.68.34.47.54,1.31,2.34.39,3.78-.81,1.26-2.21,1.56-3.27.62-.65-.58-.96-1.13-1.05-2.12-.07-.81.53-2.25,1.25-2.62Z"/><path class="cls-3" d="M66.68,429.8c.72-.37,2.21-.2,2.68.34.47.54,1.31,2.34.39,3.78-.81,1.26-2.21,1.56-3.27.62-.65-.58-.96-1.13-1.05-2.12-.07-.81.53-2.25,1.25-2.62Z"/><path class="cls-3" d="M35.72,446.99c.72-.37,2.21-.2,2.68.34.47.54,1.31,2.34.39,3.78-.81,1.26-2.21,1.56-3.27.62-.65-.58-.96-1.13-1.05-2.12-.07-.81.53-2.25,1.25-2.62Z"/><path class="cls-3" d="M88.9,393.4c.72-.37,2.21-.2,2.68.34.47.54,1.31,2.34.39,3.78-.81,1.26-2.21,1.56-3.27.62-.65-.58-.96-1.13-1.05-2.12-.07-.81.53-2.25,1.25-2.62Z"/><path class="cls-3" d="M71.33,497.32c.72-.37,2.21-.2,2.68.34.47.54,1.31,2.34.39,3.78-.81,1.26-2.21,1.56-3.27.62-.65-.58-.96-1.13-1.05-2.12-.07-.81.53-2.25,1.25-2.62Z"/><path class="cls-3" d="M177.89,499.25c.72-.37,2.21-.2,2.68.34.47.54,1.31,2.34.39,3.78-.81,1.26-2.21,1.56-3.27.62-.65-.58-.96-1.13-1.05-2.12-.07-.81.53-2.25,1.25-2.62Z"/><path class="cls-3" d="M79.9,465.17c.72-.37,2.21-.2,2.68.34.47.54,1.31,2.34.39,3.78-.81,1.26-2.21,1.56-3.27.62-.65-.58-.96-1.13-1.05-2.12-.07-.81.53-2.25,1.25-2.62Z"/><path class="cls-3" d="M220.2,440.02c.72-.37,2.21-.2,2.68.34.47.54,1.31,2.34.39,3.78-.81,1.26-2.21,1.56-3.27.62-.65-.58-.96-1.13-1.05-2.12-.07-.81.53-2.25,1.25-2.62Z"/><path class="cls-3" d="M124.19,417c.72-.37,2.21-.2,2.68.34.47.54,1.31,2.34.39,3.78-.81,1.26-2.21,1.56-3.27.62-.65-.58-.96-1.13-1.05-2.12-.07-.81.53-2.25,1.25-2.62Z"/><path class="cls-3" d="M187.72,436.77c.72-.37,2.21-.2,2.68.34.47.54,1.31,2.34.39,3.78-.81,1.26-2.21,1.56-3.27.62-.65-.58-.96-1.13-1.05-2.12-.07-.81.53-2.25,1.25-2.62Z"/><path class="cls-3" d="M270.07,419.44s5.03-.18,6.42.82c3.63,2.61.93,9.06.93,9.06,0,0-5.29,3.74-7.83,1.48-1.57-1.39-2.31-2.69-2.51-5.09-.16-1.95,3-6.27,3-6.27Z"/><path class="cls-3" d="M133.5,495.95c1.73-.89,6.42.82,6.42.82,0,0,3.14,5.6.93,9.05-1.94,3.03-5.29,3.74-7.83,1.48-1.57-1.39-2.31-2.69-2.51-5.09-.16-1.95,1.26-5.39,3-6.27Z"/><path class="cls-3" d="M209.33,483.46s5.3-.48,6.42.82c1.12,1.3,3.14,5.6.93,9.06-1.94,3.03-7.83,1.48-7.83,1.48,0,0-2.31-2.69-2.51-5.09-.16-1.95,3-6.27,3-6.27Z"/><path class="cls-3" d="M249.22,454.73s5.3-.48,6.42.82c1.12,1.3,3.14,5.6.93,9.06-1.94,3.03-5.29,3.74-7.83,1.48-1.57-1.39-2.31-2.69-2.51-5.09-.16-1.95,2.99-6.27,2.99-6.27Z"/><path class="cls-3" d="M128.9,457.14s5.37-2.35,9.97,1.81c1.92,1.74,3.05,6.5-.29,11.71-2.93,4.57-7.98,5.65-11.83,2.24-2.37-2.1-3.49-4.07-3.79-7.68-.25-2.94,5.94-8.08,5.94-8.08Z"/><path class="cls-2" d="M174.5,423.52c2.61-1.34,8-.72,9.69,1.24,1.69,1.96,4.74,8.46,1.4,13.67-2.93,4.57-7.98,5.65-11.83,2.23-2.37-2.1-3.79-7.68-3.79-7.68,0,0,1.91-8.13,4.52-9.47Z"/><path class="cls-8" d="M298.11,142.89l26.1-12.59,20.78-9.46s-18.47,5.06-25.32,8.45c-6.85,3.39-21.56,13.6-21.56,13.6Z"/><path class="cls-7" d="M272.53,355.95s-1.73,5.27-.5,7.6c1.3,2.46,10.19,2.19,12.9,2.8,11.58,2.64,29.53,2.74,29.53,2.74l9.06-1.5s6.7-4.86,7.82-8.74c1.12-3.89-1.98-11.56-1.98-11.56,0,0-20.95-11.2-29.96-10.12-10.56,1.27-26.87,18.79-26.87,18.79Z"/><path class="cls-13" d="M266.66,365.64s.47,2.79,4.93,2.22c3.45-.44,8.43,2.46,8.43,2.46l6.31,1.56s3.45,1.3,7.26,1.67q3.52.34,6.24-.03c4.13-.56,4.97-.9,4.97-.9,0,0,9.38,2.11,13.49-.14,1.67-.91,4.88-2.93,4.88-2.93,0,0,4.7-.45,8.44-.45,5.41,0,3.07-5.52,3.07-5.52l-7.34-.18s-5.32-4.04-11.2-4.22c-5.87-.18-18.77,8.96-18.77,8.96l-7.71-3.62s-1.25-4.87-3.99-5.15c0,0-2.38-.84-7.53,1.29-2.45,1.01-5.33-1.44-7.34-.73-3.79,1.33-4.13,5.74-4.13,5.74Z"/><path class="cls-13" d="M289.34,327.86s-1.89-.38-2.58.44c-1.03,1.23.09,2.93.09,2.93l1.2.56c1.29-.07,1.67-.26,2.29-1.61s-1.01-2.32-1.01-2.32Z"/><path class="cls-13" d="M330.39,333.18s-1.99-.4-2.71.46c-1.08,1.29.09,3.08.09,3.08l1.27.59c1.35-.08,1.76-.28,2.41-1.7s-1.06-2.44-1.06-2.44Z"/><path class="cls-13" d="M274.55,345.12s-.8-.16-1.1.19c-.44.52.04,1.25.04,1.25l.51.24c.55-.03.71-.11.98-.69s-.43-.99-.43-.99Z"/><path class="cls-13" d="M340.29,344.39c-1.19-.92-2.4-.59-3.5.05,0,0-.86,1.29-.86,2.16s1.54,2.6,3.06,2.29c.82-.17,2.1-1.83,2.1-1.83,0,0,0-2.05-.8-2.66Z"/><path class="cls-13" d="M282.88,338.42c-1.19-.92-2.4-.59-3.5.05,0,0-.86,1.29-.86,2.16s1.54,2.6,3.06,2.29c.82-.17,2.1-1.83,2.1-1.83,0,0,0-2.05-.8-2.66Z"/><path class="cls-13" d="M304.66,319.66c-.5-.38-1-.24-1.46.02,0,0-.36.54-.36.9s.64,1.08,1.28.96c.34-.07.88-.77.88-.77,0,0,0-.86-.33-1.11Z"/><path class="cls-13" d="M336.68,351.42c-.5-.38-1-.24-1.46.02,0,0-.36.54-.36.9s.64,1.08,1.28.96c.34-.07.88-.77.88-.77,0,0,0-.86-.33-1.11Z"/><path class="cls-13" d="M319.69,334.37c-.5-.38-1-.24-1.46.02,0,0-.36.54-.36.9s.64,1.08,1.28.96c.34-.07.88-.77.88-.77,0,0,0-.86-.33-1.11Z"/></g><path class="cls-12" d="M355.41,161.44c1.32.3,4.71,2.01,4.71,2.01l2.27,1.28-.73-5.73s-.77-6.07-1.05-8.28c.8,2.13,1.59,4.25,2.39,6.38.47,1.26.94,2.52,1.41,3.77-.25-2.62.4-7.84.4-7.84l3.3-8.48s-.92,7.2-.32,10.75c.33,1.92,2.58,5.73,2.58,5.73l2.11-4.92s2.13-3.22,3.46-4.53c-.42,2.11-.7,4.26-.82,6.42-.06,1.04-.08,2.07-.07,3.11.99-1.3,3.23-3.61,3.23-3.61l5.95-4.32-2.31,6.05-.98,4.02,3.45-2.06s2.59-1.1,3.61-1.37c-.89,1.54-3.21,5.16-3.21,5.16,0,0-1.15,2.16-1.27,4.3-1.81.05-5.41-.41-5.41-.41l-12.2.41-4.24-.48-1.03-2.23s-3.32-3.79-5.25-5.12Z"/><path class="cls-12" d="M109.75,296.75c-1.49-6.01-3.31-12.27-5.64-18.16-1.39-3.51-2.66-8.15-5.63-10.73-.15,1.42,3.07,16.06,3.07,16.06,0,0,1.16,8.33,1.15,11.38,0,1.56-1.67,10.39-1.23,11.65.37.07,8.29-10.19,8.29-10.19Z"/><path class="cls-12" d="M104.48,313.58c-.06-6.13-8.19-20.74-8.19-20.74,0,0-6.4-6.16-8.13-6.08,1.67,1.87,4.59,9.06,6.03,11.88,1.31,2.57,3.04,8.44,3.04,8.44,0,0,1.31,7.72,1.28,7.49l5.97-1Z"/><path class="cls-12" d="M100.98,314.07c.08-4.94.42-6.81,1.22-9.71,1.05-3.79,2.2-6.89,4.55-9.99,2.16-2.85,7.37-7.5,7.37-7.5,0,0,5.16-3.15,6.09-3.15-1.93,1.93-5.34,6.13-7.15,9.02-1.51,2.41-4.5,10.63-4.5,10.63,0,0,.04,9.11.04,10.69h-7.62Z"/><path class="cls-1" d="M134.91,225.99c1.97,1.62,5.79,3.85,7.44,5.79-.14-2.64.64-7.89.64-7.89,0,0,1.29-4.61,2.33-6.76.87,3.4.4,7.93,1.21,11.35.04-2,1.4-5.14,1.57-7.13.24-2.74,2.24-5.43,3.27-7.96.87,4.13.22,8.25,1.09,12.38.91-2.16,3.59-6.03,3.59-6.03,0,0,2.77-3.06,4.41-4.31-.9,3.44-1.62,6.93-2.13,10.46,1.18-1.86,5.04-4.53,5.04-4.53,0,0,3.75-2.21,6-3.37-1.28,4.42-3.29,5.02-2.97,12.01,1.02-1.69,2.33-3.19,3.86-4.44-.31,2.75-.08,6.19-.08,6.19,0,0,3.11-2.43,4.41-3.69-1.93,5.87-1.66,8.03-1.66,8.03l-7.27,1.05-12.12-.11-13.7-1.12-.87-2.94c-.73-2.47-3.54-5.56-4.07-6.99Z"/><path class="cls-1" d="M356.81,385.1c5.55,2.78,12.69,14.41,12.69,14.41,0,0,4.62,7.87,4.45,12.45,1.84-12.43-.1-24.49-.29-37.01,3.47,7.02,6.68,21.97,6.68,21.97,0,0,.69,9.08.33,13.62,2.97-10.39,5.95-20.77,8.92-31.16,2.76,11.32-.12,23-3,34.31,5.5-9.49,24.65-19.34,24.65-19.34l-16.48,17.04-6.64,7.3-17.61-1.77s-.9-2.92-3.64-11.91c-2.06-6.76-7.07-14.01-10.06-19.92Z"/><polygon class="cls-15" points="213.74 265.31 196.44 282.07 229.24 312.42 230.85 295.61 354.08 295.92 354.61 313.3 388.67 284.52 354.13 253.03 355.13 268.14 230.42 268.45 230.37 252.25 213.74 265.31"/></svg>