<?xml version="1.0" encoding="UTF-8"?><svg id="_레이어_1" xmlns="http://www.w3.org/2000/svg" xmlns:xlink="http://www.w3.org/1999/xlink" viewBox="0 0 500 500"><defs><style>.cls-1{fill:#8f492a;}.cls-2{fill:#a87d2a;}.cls-3{fill:#a5762a;}.cls-4{fill:#94542a;}.cls-5{fill:#ada295;}.cls-6{fill:#a16f2a;}.cls-7{fill:#a06e2a;}.cls-8{fill:#a97f2a;}.cls-9{fill:#95572a;}.cls-10{fill:#a2702a;}.cls-11{fill:#914e2a;}.cls-12{fill:#649341;}.cls-13{fill:#6e9f49;}.cls-14{fill:#985c2a;}.cls-15{fill:#95562a;}.cls-16{fill:#9e6a2a;}.cls-17{fill:#9b632a;}.cls-18{fill:#a2712a;}.cls-19{fill:#a97e2a;}.cls-20{fill:#a77b2a;}.cls-21{fill:#aac7e0;}.cls-22{fill:#975a2a;}.cls-23{fill:#f8f0be;}.cls-24{fill:#904b2a;}.cls-25{fill:#9d682a;}.cls-26{fill:#9f6b2a;}.cls-27{fill:none;}.cls-28{fill:#a6792a;}.cls-29{fill:#79b357;}.cls-30{fill:#975b2a;}.cls-31{fill:#baa38a;}.cls-32{fill:#3f6e4a;}.cls-33{fill:#995f2a;}.cls-34{clip-path:url(#clippath-1);}.cls-35{fill:#84b64c;}.cls-36{fill:#9b622a;}.cls-37{fill:#985e2a;}.cls-38{fill:#9e682a;}.cls-39{fill:#a3732a;}.cls-40{fill:#914d2a;}.cls-41{fill:#aad2d8;}.cls-42{fill:#a06c2a;}.cls-43{fill:#93532a;}.cls-44{fill:#94552a;}.cls-45{fill:#9b642a;}.cls-46{fill:#96592a;}.cls-47{fill:#9c652a;}.cls-48{fill:#a87c2a;}.cls-49{fill:#9e692a;}.cls-50{fill:#96582a;}.cls-51{fill:#924f2a;}.cls-52{fill:#a77a2a;}.cls-53{fill:#92512a;}.cls-54{fill:#a4762a;}.cls-55{fill:#a06d2a;}.cls-56{fill:#9c662a;}.cls-57{fill:#904c2a;}.cls-58{fill:#985d2a;}.cls-59{fill:#ae8d6b;}.cls-60{fill:#aa802a;}.cls-61{fill:#a3722a;}.cls-62{fill:#995e2a;}.cls-63{fill:#a4752a;}.cls-64{fill:#9d672a;}.cls-65{fill:#a6782a;}.cls-66{fill:#a9802a;}.cls-67{fill:#93522a;}.cls-68{fill:#a67a2a;}.cls-69{fill:#8a7f6f;}.cls-70{fill:#aa812a;}.cls-71{fill:#95582a;}.cls-72{fill:#a2722a;}.cls-73{fill:#8f4a2a;}.cls-74{fill:#9a612a;}.cls-75{fill:#7f4529;}.cls-76{fill:#914f2a;}.cls-77{clip-path:url(#clippath);}.cls-78{fill:#92502a;}.cls-79{fill:#99602a;}.cls-80{fill:#a5772a;}.cls-81{fill:#4b8150;}.cls-82{fill:#a4742a;}</style><clipPath id="clippath"><path class="cls-27" d="M420.69,406.58s-33.73-6.33-67.17-14.2c-16.08-3.78-57.53-24.89-70.83-37.38-21.41-20.1-41.32-37.38-41.32-37.38,0,0-27.19-7.53-39.35-13.77-7.95-4.08-38.37-26.56-43.29-32.47-15.94-19.12-37.41-39.28-55.09-52.14-10.82-7.87-21.64-29.51-21.64-29.51,0,0-12.5-20.18-20.66-37.38-6.19-13.04-15.74-22.63-15.74-22.63,0,0-10.82-9.84-18.36-15.9-6.95,35.54-3.84,70.96-3.84,70.96l-3.39,101.8c.42,40.63,3.82,91.85,20.43,130.62,18.4,42.94,89.19,54.34,89.19,54.34,0,0,54.86,12.97,113.64,6.89,46.68-4.83,136.62-3.72,136.62-3.72,0,0,21.98-6.05,42.68-17.32.95-10.42-1.31-31.03-1.31-31.03l-.56-19.76Z"/></clipPath><clipPath id="clippath-1"><path class="cls-27" d="M-50.5,395.66c6.07-84.07,6.13-195.77,6.13-195.77,0,0,22.13-114.46-33.15-145.17-33.42-18.57-117.13-18.15-117.13-18.15l-120.45-6.62s-113.5.96-152,43.75c-44.92,49.93-22.15,115.16-31.27,191.22-7.16,59.74,9.54,136.52,45.87,175.62,27.12,29.19,109.4,29.53,109.4,29.53,0,0,100.02-7.41,141-6.3,36.89,1,92.53,16.07,119.32-10.02,17.67-17.21,32.3-58.08,32.3-58.08Z"/></clipPath></defs><rect class="cls-27" width="500" height="500"/><path class="cls-23" d="M20.33,284.92c.42,40.63,3.82,91.85,20.43,130.62,18.4,42.94,89.19,54.34,89.19,54.34,0,0,54.86,12.97,113.64,6.89,46.68-4.83,136.62-3.72,136.62-3.72,0,0,68.7-18.9,77.6-52.18,9.4-35.16,11.5-100.61,11.5-100.61,0,0,9.74-63.21,10.49-95.07,1.28-53.98-3.14-124.85-29.63-163.06-27.67-39.91-106.02-34.35-106.02-34.35,0,0-78.43-8.44-151.2-7.69-45.09.46-96.76-5.93-139.43,35.84-37.73,36.92-29.8,127.21-29.8,127.21l-3.39,101.8Z"/><path class="cls-29" d="M474.91,278.55c-3.2-1.55-8.71-2.36-16.28-6.34-2.17-1.14-33.45-16.4-33.45-16.4,0,0-71.32-15.8-79.36-23.61-9.69-9.41-35.09-29.64-43.29-43.29-11.23-18.68-19.68-36.07-26.89-38.7-13.01-4.73-29.67,12.11-38.7,4.59-28.66-23.88-16.98-32.33-53.78-56.4-8.53,1.31-18.36,13.12-18.36,13.12,0,0-12.53,21.52-27.55,34.1-12.56,10.52-50.5-15.74-50.5-15.74,0,0-23.85-15.8-34.11-17.05-22.44-2.74-25.68,32.65-28.93,60.23-3.64,30.83,26.15,65.67,40.93,90.12,11.55,19.11,21.2,39.69,36.33,56.11,27.05,29.39,67.42,41.43,104.46,56.38,58.19,23.5,118.01,57.71,179.55,45.4,8.22-1.65,16.78-4.48,22.53-10.37,2.99,5,5.92,9.5,7.83,9.07,20.7-4.66,38.74-29.53,50.55-51.07,2.39-25.12,3.08-46.82,3.08-46.82,0,0,3.1-20.1,5.93-43.34Z"/><path class="cls-13" d="M451.58,313.78c-6.77-1.17-13.67-1.97-20.08-4.43-7.19-2.75-13.43-7.44-19.85-11.68-14.97-9.88-31.29-17.51-47.65-24.89-10.13-4.57-20.98-9.17-31.98-7.61-5.68.81-11.25,3.25-16.95,2.52-8.77-1.12-14.74-9.15-22.19-13.9-13.76-8.79-32.27-6.09-46.73-13.68-7.48-3.93-13.02-10.24-17.35-17.37-3.21-5.28-5.02-16.36-10.29-19.72-15.06-9.61-16.59,26.27-17.18,34.69-.46,6.64-.25,13.9,3.89,19.12,2.72,3.43,6.77,5.48,10.7,7.42,24.04,11.91,50.19,25.77,59.92,50.77,1.68,4.31,38,17.78,51.78,20.96,13.77,3.19,26.73,13.36,40.66,15.74,13.44,2.3,14.72,11.88,26.59,18.58,8.2,4.63,40.76,25.88,50.14,26.67,7.8.65-8.91-17.75-1.1-17.2,1.59.11,3.19.37,4.79.55,6.24-3.69,12.21-7.64,17.25-12.13-.16,1.66-.32,3.33-.49,5.02.06-.06.12-.12.18-.18,2.86-27.55,3.68-52.78,3.68-52.78,0,0,.13-.85.36-2.38-5.96-1.66-11.99-3.04-18.09-4.09Z"/><path class="cls-12" d="M249.33,316.93c16.08,2.89,32.58,1.73,48.9.85,16.32-.89,32.92-1.46,48.76,2.56,15.84,4.01,31.07,13.26,38.7,27.71,13.4,9.57,42.45,51.95,66.52,48.92,1.56-.2,3.48-24.56,3.8-26.1.35-1.71-1.56-2.91-2.99-3.91-5.14-3.62-6.52-10.46-8.8-16.32-2.56-6.58-6.66-12.45-11.13-17.91-13.69-16.75-31.42-30.47-51.78-37.79-19.19-6.9-39.9-7.94-60.27-8.91-9.76-.47-19.54-.93-29.3-.47-21.33,1.01-46.98,5.98-64.99,18.07,1.74,9.53,14.56,11.88,22.56,13.32Z"/><path class="cls-12" d="M211.7,183.34c-8.9,12.38-15.14,28.19-21.64,41.98-.95,2.01-1.42,14-2.3,16.07,6.5,11.69,10.14,11.68,16.63,23.36,1.45,2.6,2.94,5.45,2.53,8.4-5.92-1.2-11.62-3.41-16.82-6.48.12.14.24.29.36.43,4.6,5.24,10.5,9.67,17.34,11.02,3.37.67,6.84.56,10.27.69,25.75.97,51.06,14.96,76.16,9.17,3.41-.79,4.73-.43,2.72-3.31-18.85-1.11-43.54-17.99-57.39-30.83-13.84-12.83-16.09-20.72-11.48-39.02,2.33-9.24,5.74-18.8,9.51-27.55,1.66-3.85,3.1-24.29,3.1-24.29,0,0-.49-5.53-3.68-8.13-4.5,3.33-7.56,7.9-9.91,10.11-5.88,5.53-10.7,11.81-15.41,18.36Z"/><path class="cls-12" d="M123.36,149.81c3.37,14.62,8.04,28.94,13.94,42.74,2.88,6.74,6.08,13.44,7.41,20.64,1.62,8.77.87,19.04,7.42,25.09,3.37,3.12,8.02,4.36,12.02,6.6,6.76,3.78,11.51,10.26,17.27,15.44,2.67,2.4,5.59,4.54,8.69,6.36-5.01-5.84-8.77-13.06-8.98-20.74-.15-5.62,1.56-11.03,3.78-16.25-12.63-22.72-25.25-45.44-37.88-68.16-2.28-4.1-5.51-11.78-9.6-16.04-.06.05-.11.1-.17.14-3.31,2.77-8.38,2.98-14.05,1.8-.09.73-.05,1.52.15,2.38Z"/><path class="cls-12" d="M204.4,264.75c-6.5-11.69-12.99-23.38-19.49-35.07-2.22,5.22-3.93,10.63-3.78,16.25.21,7.68,3.96,14.9,8.98,20.74,5.2,3.07,10.91,5.28,16.82,6.48.41-2.95-1.08-5.8-2.53-8.4Z"/><path class="cls-41" d="M239.54,405.54c5.15-3.07,10.42-5.93,15.78-8.6-3.87-1.64-7.74-3.29-11.59-4.96-2.74,3.96-4.34,8.46-4.18,13.56Z"/><path class="cls-23" d="M467.62,350.41c-.04.59-.09,1.19-.13,1.79.05-.6.09-1.2.13-1.79Z"/><path class="cls-23" d="M467.45,352.67c-.04.55-.09,1.11-.13,1.68.04-.56.09-1.12.13-1.68Z"/><path class="cls-23" d="M467.28,354.85c-.05.61-.1,1.22-.15,1.84.05-.62.1-1.23.15-1.84Z"/><path class="cls-23" d="M467.11,357.02c-.12,1.51-.25,3.04-.39,4.59.14-1.55.26-3.08.39-4.59Z"/><path class="cls-23" d="M468.19,342.18c-.03.44-.06.89-.09,1.35.03-.45.06-.9.09-1.35Z"/><path class="cls-23" d="M468.06,344.08c-.03.51-.07,1.03-.1,1.56.04-.53.07-1.05.1-1.56Z"/><path class="cls-23" d="M468.31,340.28c-.03.44-.06.89-.08,1.34.03-.45.06-.9.08-1.34Z"/><path class="cls-23" d="M468.44,338.18c-.03.54-.06,1.08-.1,1.64.03-.55.07-1.1.1-1.64Z"/><path class="cls-23" d="M466.72,361.7c-.06.72-.13,1.44-.19,2.16.07-.72.13-1.44.19-2.16Z"/><path class="cls-23" d="M467.94,346c-.09,1.34-.19,2.71-.29,4.11.1-1.4.2-2.77.29-4.11Z"/><path class="cls-23" d="M466.26,366.66c-.06.66-.13,1.32-.19,1.99.06-.66.13-1.33.19-1.99Z"/><path class="cls-23" d="M466.48,364.29c-.06.63-.12,1.26-.18,1.9.06-.63.12-1.27.18-1.9Z"/><path class="cls-23" d="M466.04,368.99c-.16,1.6-.32,3.21-.49,4.84.17-1.62.33-3.23.49-4.84Z"/><path class="cls-21" d="M468.1,343.52c-.01.19-.02.37-.04.56.01-.19.02-.37.04-.56Z"/><path class="cls-21" d="M466.72,361.61s0,.06,0,.08c0-.03,0-.06,0-.08Z"/><path class="cls-21" d="M468.34,339.81c0,.15-.02.31-.03.47,0-.16.02-.31.03-.47Z"/><path class="cls-21" d="M468.44,338.09h0s0,.06,0,.09c0-.03,0-.06,0-.09Z"/><path class="cls-21" d="M467.96,345.64c0,.12-.02.24-.02.35,0-.12.02-.24.02-.35Z"/><path class="cls-21" d="M468.22,341.62c-.01.18-.02.37-.04.55.01-.19.02-.37.04-.55Z"/><path class="cls-21" d="M467.14,356.69c0,.11-.02.22-.03.33,0-.11.02-.22.03-.33Z"/><path class="cls-21" d="M467.32,354.35c-.01.17-.03.34-.04.51.01-.17.03-.34.04-.51Z"/><path class="cls-21" d="M466.52,363.86c-.01.15-.03.29-.04.44.01-.15.03-.29.04-.44Z"/><path class="cls-21" d="M467.65,350.1c0,.1-.01.2-.02.3,0-.1.02-.2.02-.3Z"/><path class="cls-21" d="M467.49,352.19c-.01.16-.02.32-.04.48.01-.16.02-.32.04-.48Z"/><path class="cls-21" d="M466.31,366.19c-.01.16-.03.31-.04.47.01-.16.03-.31.04-.47Z"/><path class="cls-21" d="M466.07,368.64c-.01.11-.02.23-.03.34.01-.11.02-.23.03-.34Z"/><path class="cls-21" d="M437.15,339.4c-7.62-2.77-10.77-5.47-16.73-10.97-5.57-5.14-13.84-12.52-19.08-18.01-10.36-10.86-40.03-19.18-40.03-19.18,0,0-35.76-6.61-54.41-8.51-17.49-1.78-35.45-1.39-52.13-6.97-16.68-5.58-32.34-18.1-35.91-35.31-4.04-19.48,6.03-42.87,6.03-42.87l9.84-25.58s5.59-15.13,3.4-16.4c-6.9,10.08-15.85,19.18-22.48,30.52-18.14,31-24.67,55.17-7.54,86.74-22.04-16.02-25.58-26.65-34.76-52.3-9.65-26.98-25.38-49.24-38.66-73.4-2.64,1.07-5.91,1.16-9.48.62,14.6,32.67,28.74,65.54,42.42,98.6-25.56-12.98-102.69-67.42-105.3-60.1l-30.29-57.54c-1.53,3.92-2.76,8.34-3.77,13.04,13.34,31.71,35.63,59.7,63.96,79.26,18.24,12.59,39.08,22.07,53.88,38.56,11.49,12.81,19.05,29.55,33.45,38.98,19.93,13.06,36.64-6.5,59.61-.16,14.26,3.94,22.64,4.59,30.25,4.67,111.91,1.23,133.8,49.93,133.8,49.93l32.47,45.25s17.27-10.71,28.68-13.91c.44-3.52.84-7.05,1.21-10.55.17-1.62.33-3.23.49-4.84.01-.11.02-.23.03-.34.06-.66.13-1.33.19-1.99.01-.16.03-.31.04-.47.06-.63.12-1.27.18-1.9.01-.15.03-.29.04-.44.07-.72.13-1.44.19-2.16,0-.03,0-.06,0-.08.14-1.55.26-3.08.39-4.59,0-.11.02-.22.03-.33.05-.62.1-1.23.15-1.84.01-.17.03-.34.04-.51.04-.56.09-1.12.13-1.68.01-.16.02-.32.04-.48.05-.6.09-1.2.13-1.79,0-.1.02-.2.02-.3.1-1.4.2-2.77.29-4.11,0-.12.02-.24.02-.35.04-.53.07-1.05.1-1.56.01-.19.02-.37.04-.56.03-.45.06-.9.09-1.35.01-.19.02-.37.04-.55.03-.45.06-.9.08-1.34,0-.16.02-.31.03-.47.03-.55.07-1.1.1-1.64,0-.03,0-.06,0-.09-12.53,1.58-25.81,3.31-31.3,1.31Z"/><path class="cls-69" d="M413.28,400.37s-54.99-31.75-88.44-39.62c-16.08-3.78-29.32-5.87-42.63-18.36-21.41-20.1-26.23-34.1-26.23-34.1,0,0-54.73-25.9-66.9-32.14-7.95-4.08-18.2-27.38-29.51-45.91-12.97-21.25-44-28.42-61.65-41.32-21.3-15.57-20.85-13.46-20.85-13.46,0,0-8.37-11.31-16.53-28.52-6.19-13.04-15.74-33.45-15.74-33.45,0,0-8.07-.78-17.56.31-6.95,35.54-3.84,70.96-3.84,70.96l-3.39,101.8c.42,40.63,3.82,91.85,20.43,130.62,18.4,42.94,89.19,54.34,89.19,54.34,0,0,54.86,12.97,113.64,6.89,46.68-4.83,136.62-3.72,136.62-3.72,0,0,21.98-6.05,42.68-17.32.95-10.42-6.72-27.59-6.72-27.59l-2.56-29.41Z"/><path class="cls-32" d="M265.7,243.17l-7.56,7.34,7.37-.61s-4.04,3.85-7.31,6.73c4.43,0,7-.45,9.61-.26-.26,3.26-.13,8.46-.13,8.46l6.28-.13-.77-8.65s7.08-.42,10.38-.96c-3.05-2.1-5.09-2.96-7.5-5.77,2.17-.09,3.08-.19,5.58-.77-3.8-2.25-8.27-6.34-8.27-6.34l6.15-.19-10.57-6.54-9.23,7.5,5.96.19Z"/><path class="cls-32" d="M329.03,250.57l-9.67,9.39,9.43-.78s-5.16,4.92-9.35,8.61c5.66,0,8.96-.57,12.3-.33-.33,4.17-.16,10.82-.16,10.82l8.03-.16-.98-11.07s9.05-.54,13.28-1.23c-3.9-2.68-6.52-3.78-9.59-7.38,2.77-.12,3.94-.25,7.13-.98-4.86-2.87-10.58-8.12-10.58-8.12l7.87-.25-13.53-8.36-11.81,9.59,7.62.25Z"/><path class="cls-81" d="M276.83,250.93l-8.8,8.49,8.57-.71s-4.7,4.45-8.5,7.78c5.15,0,8.15-.52,11.18-.3-.3,3.77-.15,9.78-.15,9.78l7.3-.15-.89-10s8.23-.48,12.08-1.11c-3.54-2.43-5.92-3.42-8.72-6.67,2.52-.11,3.58-.22,6.48-.89-4.41-2.6-9.62-7.34-9.62-7.34l7.16-.22-12.3-7.56-10.73,8.67,6.93.22Z"/><path class="cls-81" d="M386.03,268.64l-8.8,8.49,8.57-.71s-4.7,4.45-8.5,7.78c5.15,0,8.15-.52,11.18-.3-.3,3.77-.15,9.78-.15,9.78l7.3-.15-.89-10s8.23-.48,12.08-1.11c-3.54-2.43-5.92-3.42-8.72-6.67,2.52-.11,3.58-.22,6.48-.89-4.41-2.6-9.62-7.34-9.62-7.34l7.16-.22-12.3-7.56-10.73,8.67,6.93.22Z"/><path class="cls-32" d="M273.67,294.46l-6.93,6.68,6.75-.56s-3.7,3.5-6.69,6.13c4.05,0,6.42-.41,8.8-.23-.24,2.97-.12,7.7-.12,7.7l5.75-.12-.7-7.88s6.48-.38,9.51-.88c-2.79-1.91-4.66-2.69-6.87-5.25,1.98-.09,2.82-.18,5.11-.7-3.48-2.05-7.57-5.78-7.57-5.78l5.63-.18-9.68-5.95-8.45,6.83,5.46.18Z"/><path class="cls-81" d="M349.63,313.89l-8.8,8.49,8.57-.71s-4.7,4.45-8.5,7.78c5.15,0,8.15-.52,11.18-.3-.3,3.77-.15,9.78-.15,9.78l7.3-.15-.89-10s8.23-.48,12.08-1.11c-3.54-2.43-5.92-3.42-8.72-6.67,2.52-.11,3.58-.22,6.48-.89-4.41-2.6-9.62-7.34-9.62-7.34l7.16-.22-12.3-7.56-10.73,8.67,6.93.22Z"/><path class="cls-31" d="M71.96,183.11c4.27,5.49,9.13,11.35,15.95,12.66,2.53.49,5.16.29,7.67.85,4.29.95,7.78,3.95,11.15,6.78,15.58,13.08,38.78,25.62,56.77,35.12,3.05-8-5.31-16.7-8.61-24.59-3.87-9.26-6.32-24.54-10.18-33.8-4.49-10.76-17.22-33.94-17.22-33.94,0,0-7.02-7.32-14.16-10.39-2.42-1.04-7.87-4.26-7.87-4.26,0,0-8.02-8.28-13.57-9.85-2.4-.68-13.65-5.23-13.65-5.23,0,0-27.73-23.14-33.63-20.19-6.06,3.03-12.78,10.39-17.49,18.27-1.57,8.55-2.57,17.05-3.18,25,9.38,12.03,41.19,34.79,48.03,43.58Z"/><path class="cls-31" d="M175.8,98.57c-13.39,6.16-15.51,27.3-28.26,34.7-2.62,1.52-9.86,7.85-9.86,7.85,0,0-5.68,4.33-.98,11.81,10.28,16.35,24.77,42.27,32.1,60.14,9.39,22.88,17.53,48.49,38.05,62.29,5.6-6.06,2.78-15.62.82-23.63-6.36-25.93,18.69-74.68,18.69-74.68l11.92-21.9s-8.53-20.04-15.49-26.07c-4.75-4.11-11.87-11.09-19.92-17.46-10.92-8.64-18.03-17.19-27.05-13.04Z"/><path class="cls-5" d="M146.26,191.3c-.47-1.22-.93-2.42-1.4-3.61l-.53.87c.65.91,1.29,1.82,1.93,2.74Z"/><path class="cls-59" d="M206.84,275.35c5.6-6.06,2.78-15.62.82-23.63-6.36-25.93,18.69-74.68,18.69-74.68l11.92-21.9s-7.12-16.73-13.66-24.21c-3.18.32-6.18,1.82-9,3.39-6.37,3.55-18.16,12.14-18.16,12.14,0,0-7.92,7.32-6.97,12.15.39,1.99,1.63,3.81,1.63,5.84,0,1.79-1.9,4.93-1.9,4.93,0,0-6.67,10.89-10,16.33-1.11,1.81-2.41,3.78-4.47,4.32-2.98.79-8.24-3.43-8.24-3.43,0,0-5.45,0-11.45-.07,4.98,9.4,9.54,18.72,12.74,26.52,9.39,22.88,17.53,48.49,38.05,62.29Z"/><path class="cls-59" d="M132.31,175.76l-9.86-1s-18.58-16.21-30.12-15.7c-7.03.32-12.66,6.37-19.64,7.27-5.12.66-12.39-5.57-17.3-6.39,4.9,8.11,10.74,15.66,16.56,23.15,4.27,5.49,9.13,11.35,15.95,12.66,2.53.49,5.16.29,7.67.85,4.29.95,7.78,3.95,11.15,6.78,15.58,13.08,38.78,25.62,56.77,35.12,1.73-4.54-.41-11.79-2.81-17.32-1.83-4.23-3.64-6.81-5.06-10.23-2.89-6.92-4.36-10.02-7.23-17.56-.63-.92-1.95-4.73-4.25-7.49s-11.83-10.15-11.83-10.15Z"/><path class="cls-13" d="M403.69,393.03c-23.32-12.46-38.58-22.91-63.99-30.18-25.42-7.27-68.49-35.41-68.49-35.41,0,0-7.29-12.84-15.08-19.18-16.62-13.51-44.48-17.9-61.61-30.74-18.35-13.75-30.62-40.3-30.62-40.3l-58.62-36.35s-30.38-25.42-40.66-35.42c-7.73-7.51-12.55-21.78-24.07-19.01,1.99,14.95,12.02,36.1,18.68,50.28,19.29,41.09,62.4,64.29,100.87,88.38,57.08,35.73,109.34,79.04,168.19,111.79,10.34,5.75,21.17,11.27,32.92,12.62,17.52,2.02,41.84,2.87,59.21-.16,3.32-2.49-13.38-14.53-16.72-16.31Z"/><path class="cls-75" d="M457.48,422.5c4.02-15.05,6.71-35.66,8.47-54.31-22.13,19.72-58.57,49.27-58.57,49.27,0,0-12.41,40.7-7.41,50.34,21.02-8.27,51.76-23.78,57.51-45.29Z"/><g class="cls-77"><polygon class="cls-70" points="20 400.89 305.44 484.49 20 484.49 20 400.89"/><polygon class="cls-70" points="20 398.87 312.34 484.49 305.44 484.49 20 400.89 20 398.87"/><polygon class="cls-60" points="20 396.85 319.24 484.49 312.34 484.49 20 398.87 20 396.85"/><polygon class="cls-66" points="20 394.83 326.14 484.49 319.24 484.49 20 396.85 20 394.83"/><polygon class="cls-8" points="20 392.81 333.04 484.49 326.14 484.49 20 394.83 20 392.81"/><polygon class="cls-19" points="20 390.79 339.94 484.49 333.04 484.49 20 392.81 20 390.79"/><polygon class="cls-2" points="20 388.77 346.84 484.49 339.94 484.49 20 390.79 20 388.77"/><polygon class="cls-2" points="20 386.75 353.74 484.49 346.84 484.49 20 388.77 20 386.75"/><polygon class="cls-48" points="20 384.73 360.64 484.49 353.74 484.49 20 386.75 20 384.73"/><polygon class="cls-20" points="20 382.71 367.54 484.49 360.64 484.49 20 384.73 20 382.71"/><polygon class="cls-52" points="20 380.69 374.45 484.49 367.54 484.49 20 382.71 20 380.69"/><polygon class="cls-68" points="20 378.66 381.35 484.49 374.45 484.49 20 380.69 20 378.66"/><polygon class="cls-28" points="20 376.64 388.25 484.49 381.35 484.49 20 378.66 20 376.64"/><polygon class="cls-65" points="20 374.62 395.15 484.49 388.25 484.49 20 376.64 20 374.62"/><polygon class="cls-80" points="20 372.6 402.05 484.49 395.15 484.49 20 374.62 20 372.6"/><polygon class="cls-3" points="20 370.58 408.95 484.49 402.05 484.49 20 372.6 20 370.58"/><polygon class="cls-54" points="20 368.56 415.85 484.49 408.95 484.49 20 370.58 20 368.56"/><polygon class="cls-63" points="20 366.54 417.15 482.85 416.67 484.49 415.85 484.49 20 368.56 20 366.54"/><polygon class="cls-82" points="20 364.52 417.7 480.99 417.15 482.85 20 366.54 20 364.52"/><polygon class="cls-39" points="20 362.5 418.24 479.13 417.7 480.99 20 364.52 20 362.5"/><polygon class="cls-61" points="20 360.48 418.79 477.26 418.24 479.13 20 362.5 20 360.48"/><polygon class="cls-72" points="20 358.46 419.33 475.4 418.79 477.26 20 360.48 20 358.46"/><polygon class="cls-18" points="20 356.44 419.88 473.54 419.33 475.4 20 358.46 20 356.44"/><polygon class="cls-10" points="20 354.41 420.42 471.68 419.88 473.54 20 356.44 20 354.41"/><polygon class="cls-6" points="20 352.39 420.97 469.82 420.42 471.68 20 354.41 20 352.39"/><polygon class="cls-6" points="20 350.37 421.51 467.96 420.97 469.82 20 352.39 20 350.37"/><polygon class="cls-7" points="20 348.35 422.06 466.1 421.51 467.96 20 350.37 20 348.35"/><polygon class="cls-55" points="20 346.33 422.6 464.24 422.06 466.1 20 348.35 20 346.33"/><polygon class="cls-42" points="20 344.31 423.15 462.37 422.6 464.24 20 346.33 20 344.31"/><polygon class="cls-26" points="20 342.29 423.51 460.46 423.51 461.12 423.15 462.37 20 344.31 20 342.29"/><polygon class="cls-26" points="20 340.27 423.51 458.44 423.51 460.46 20 342.29 20 340.27"/><polygon class="cls-16" points="20 338.25 423.51 456.42 423.51 458.44 20 340.27 20 338.25"/><polygon class="cls-49" points="20 336.23 423.51 454.4 423.51 456.42 20 338.25 20 336.23"/><polygon class="cls-38" points="20 334.21 423.51 452.38 423.51 454.4 20 336.23 20 334.21"/><polygon class="cls-25" points="20 332.18 423.51 450.36 423.51 452.38 20 334.21 20 332.18"/><polygon class="cls-64" points="20 330.16 423.51 448.34 423.51 450.36 20 332.18 20 330.16"/><polygon class="cls-56" points="20 328.14 423.51 446.31 423.51 448.34 20 330.16 20 328.14"/><polygon class="cls-47" points="20 326.12 423.51 444.29 423.51 446.31 20 328.14 20 326.12"/><polygon class="cls-47" points="20 324.1 423.51 442.27 423.51 444.29 20 326.12 20 324.1"/><polygon class="cls-45" points="20 322.08 423.51 440.25 423.51 442.27 20 324.1 20 322.08"/><polygon class="cls-17" points="20 320.06 423.51 438.23 423.51 440.25 20 322.08 20 320.06"/><polygon class="cls-36" points="20 318.04 423.51 436.21 423.51 438.23 20 320.06 20 318.04"/><polygon class="cls-74" points="20 316.02 423.51 434.19 423.51 436.21 20 318.04 20 316.02"/><polygon class="cls-74" points="20 314 423.51 432.17 423.51 434.19 20 316.02 20 314"/><polygon class="cls-79" points="20 311.98 423.51 430.15 423.51 432.17 20 314 20 311.98"/><polygon class="cls-33" points="20 309.96 423.51 428.13 423.51 430.15 20 311.98 20 309.96"/><polygon class="cls-62" points="20 307.93 423.51 426.11 423.51 428.13 20 309.96 20 307.93"/><polygon class="cls-37" points="20 305.91 423.51 424.09 423.51 426.11 20 307.93 20 305.91"/><polygon class="cls-58" points="20 303.89 423.51 422.06 423.51 424.09 20 305.91 20 303.89"/><polygon class="cls-14" points="20 301.87 423.51 420.04 423.51 422.06 20 303.89 20 301.87"/><polygon class="cls-30" points="20 299.85 423.51 418.02 423.51 420.04 20 301.87 20 299.85"/><polygon class="cls-30" points="20 297.83 423.51 416 423.51 418.02 20 299.85 20 297.83"/><polygon class="cls-22" points="20 295.81 423.51 413.98 423.51 416 20 297.83 20 295.81"/><polygon class="cls-46" points="20 293.79 423.51 411.96 423.51 413.98 20 295.81 20 293.79"/><polygon class="cls-50" points="20 291.77 423.51 409.94 423.51 411.96 20 293.79 20 291.77"/><polygon class="cls-71" points="20 289.75 423.51 407.92 423.51 409.94 20 291.77 20 289.75"/><polygon class="cls-9" points="20 287.73 423.51 405.9 423.51 407.92 20 289.75 20 287.73"/><polygon class="cls-15" points="20 285.7 423.51 403.88 423.51 405.9 20 287.73 20 285.7"/><polygon class="cls-44" points="20 283.68 423.51 401.86 423.51 403.88 20 285.7 20 283.68"/><polygon class="cls-44" points="20 281.66 423.51 399.84 423.51 401.86 20 283.68 20 281.66"/><polygon class="cls-4" points="20 279.64 423.51 397.81 423.51 399.84 20 281.66 20 279.64"/><polygon class="cls-43" points="20 277.62 423.51 395.79 423.51 397.81 20 279.64 20 277.62"/><polygon class="cls-67" points="20 275.6 423.51 393.77 423.51 395.79 20 277.62 20 275.6"/><polygon class="cls-67" points="20 273.58 423.51 391.75 423.51 393.77 20 275.6 20 273.58"/><polygon class="cls-53" points="20 271.56 423.51 389.73 423.51 391.75 20 273.58 20 271.56"/><polygon class="cls-78" points="20 269.54 423.51 387.71 423.51 389.73 20 271.56 20 269.54"/><polygon class="cls-51" points="20 267.52 423.51 385.69 423.51 387.71 20 269.54 20 267.52"/><polygon class="cls-76" points="20 265.5 423.51 383.67 423.51 385.69 20 267.52 20 265.5"/><polygon class="cls-11" points="20 263.48 423.51 381.65 423.51 383.67 20 265.5 20 263.48"/><polygon class="cls-40" points="20 261.45 423.51 379.63 423.51 381.65 20 263.48 20 261.45"/><polygon class="cls-57" points="20 259.43 423.51 377.61 423.51 379.63 20 261.45 20 259.43"/><polygon class="cls-57" points="20 257.41 423.51 375.58 423.51 377.61 20 259.43 20 257.41"/><polygon class="cls-24" points="20 255.39 423.51 373.56 423.51 375.58 20 257.41 20 255.39"/><polygon class="cls-73" points="20 253.37 423.51 371.54 423.51 373.56 20 255.39 20 253.37"/><polygon class="cls-1" points="20 251.35 423.51 369.52 423.51 371.54 20 253.37 20 251.35"/><polygon class="cls-1" points="20 131.49 25.5 112.71 423.51 112.71 423.51 369.52 20 251.35 20 131.49"/></g><path class="cls-12" d="M167.62,257.11c2.64,4.2,5.27,8.4,7.91,12.59,2.89,4.6,9.48,12.83,9.66,13.06s20.11,12.6,20.11,12.6c0,0,26.41,14.64,40.6,19.55,8.25,2.85,23.67,3.67,23.67,3.67,0,0-12.8-12.42-19.51-15.41-7.95-3.54-15.33-7.21-15.33-7.21,0,0-19.59-7.54-26.23-10.49-4.49-1.99-10.11-4.88-13.94-7.95-10.9-8.77-19.1-21.64-19.1-21.64l-11.56-18.66s1.41,16.21,3.73,19.9Z"/><g class="cls-34"><path class="cls-35" d="M-53.68,514.6c-1.85-9.21,34.4-189.59,40.81-200.34,7.71-12.92,61.99-170.28,61.99-170.28,0,0-34.02-16.57-93.52-46.75l-59.11-.8c-30.11,5.14-114.82,47.02-124.54,56.45-35.4,34.35-4.64,86.26-4.64,86.26,0,0-42.16,126.7-31.84,158.76,147.93,415.63,220.38,164.14,210.85,116.71Z"/></g></svg>