<?xml version="1.0" encoding="UTF-8"?><svg id="_레이어_1" xmlns="http://www.w3.org/2000/svg" xmlns:xlink="http://www.w3.org/1999/xlink" viewBox="0 0 500 500"><defs><style>.cls-1{fill:#ada295;}.cls-2{fill:#4c805b;}.cls-3{fill:#fff;}.cls-4{fill:none;}.cls-5{fill:#eac4ba;}.cls-6{fill:#3f6e4a;}.cls-7{fill:#73aa4e;}.cls-8{fill:#b7863b;}.cls-9{fill:#84b64c;}.cls-10{fill:#e4ba60;}.cls-11{fill:#cc984e;}.cls-12{fill:#e8f3fb;}.cls-13{fill:#93a8d6;}.cls-14{fill:#a1bd56;}.cls-15{fill:#bbddf4;}.cls-16{fill:#8a7f6f;}.cls-17{fill:#93aed6;}.cls-18{fill:#b3cdec;}.cls-19{fill:#cce3f7;}.cls-20{clip-path:url(#clippath);}.cls-21{fill:#7a6b58;}</style><clipPath id="clippath"><path class="cls-4" d="M989.5,395.66c6.07-84.07,6.13-195.77,6.13-195.77,0,0,22.13-114.46-33.15-145.17-33.42-18.57-117.13-18.15-117.13-18.15l-120.45-6.62s-113.5.96-152,43.75c-44.92,49.93-22.15,115.16-31.27,191.22-7.16,59.74,9.54,136.52,45.87,175.62,27.12,29.19,109.4,29.53,109.4,29.53,0,0,100.02-7.41,141-6.3,36.89,1,92.53,16.07,119.32-10.02,17.67-17.21,32.3-58.08,32.3-58.08Z"/></clipPath></defs><rect class="cls-4" width="500" height="500"/><g class="cls-20"><path class="cls-9" d="M711.18,316.93c41.65-30.36,91.87-71.51,91.87-71.51l11.03-117.17s28.79-1.49,47.25-23.67c1.89-2.27,14.29-3.1,17.14-7.05l-126.75,1.8-101.09,6.43-128.11-1.9s-1.91-.07-5.2-.08c-2.81,4.71-4.91,8.06-4.91,8.06l-9.5-6.9c-.79,47.06-3.82,94.98-4.61,142.04-.33,19.66-1.7,38.36,8.71,50.41,4.36,5.04,26.88,171.09,33.51,170.72,33.36-39.58,147.62-134.39,170.66-151.18Z"/><path class="cls-15" d="M609.51,461.72s2.05-6.96-3.62-13.54c-3.56-4.13-5.89-5.71-10.03-5.61-4,.09-10.57,1.95-14.11,4.64-2.73,2.07-5.47,8.29-5.47,8.29l-7.9-15.55s-6.52-4.85-14.06-5.72c-2.87-.33-13.47,5.1-13.47,5.1,0,0-5.29-8.33-7.92-10.22-4.53-3.25-17.49,1.7-17.49,1.7l-9.29,12.33-1.03,10.38s-10.39,4.89-10.39,18.08c0,6.77-.29,13.1,4.74,17.9,3.15,3,6.6,3.67,13.34,3.67,5.33-2.13,8.23,9.98,13.02,12,8.13,3.44,18.59,3.52,26.97,1.32,2.68-.7,4.96-1.42,6.93-3.66,1.28-1.46,3.57-4.52,3.57-4.52,0,0,8.44,3.43,11.48,4.43,6.47,2.12,13.75,1.3,20.02-1.27,2.6-1.07,5.97-2.4,8-4.71,1.86-2.13,1.52-3.68,2.33-6.28,1.59-5.07,5.42-2.99,7.4-7.71,1.93-4.59,1.67-8.39.24-13.03l-3.26-8.03Z"/><path class="cls-12" d="M536.45,466.68c-1.57-3.02-6.6-8.44-10.3-9.3-5.28-1.23-14.37,2.8-14.37,2.8,0,0-5.1,5.23-5.41,8.72-4.24-6.27-12.03-1.98-15.05,3.9-1.93,3.75-.74,11.16-.74,11.16,0,0,2.3,4.97,4.73,4.67-2.3,1.98-1.93,7.81-1.93,7.81,0,0,4.67,10.3,8.54,13.12,6.73,4.9,19.26,5.61,19.26,5.61,0,0,6.28-2.34,9.06-2.34,9.03,19.08,35.16,6.45,35.16,6.45,0,0,4.46-3.63,8.72-2.4,5.14,1.48,11.75,2.99,16.72.03,3.03-1.8,7.24-8.04,7.24-8.04l8.74-1.26s7.63-6.67,10.08-14.93c1.37-4.62.46-15.01-2.36-18.94-2.86-3.99-6.28-5.64-10.61-4.21-1.38-5.43-14.93-7.39-14.93-7.39,0,0-12.67,2.27-15.86,7.37-1.8-3.96-11.75-8.33-11.75-8.33,0,0-7.84-.36-11.21-.36-2.85,0-13.72,5.87-13.72,5.87Z"/><path class="cls-3" d="M502.88,416.26c1.73-.89,5.3-.48,6.42.82,1.12,1.3,3.14,5.6.93,9.05-1.94,3.03-7.83,1.48-7.83,1.48,0,0-2.31-2.69-2.51-5.09-.16-1.95,1.26-5.38,3-6.27Z"/><path class="cls-3" d="M493.62,460.95s2.21-.2,2.68.34c.47.54,1.31,2.34.39,3.78-.81,1.26-2.21,1.56-3.27.62-.65-.58-.96-1.13-1.05-2.12-.07-.81,1.25-2.62,1.25-2.62Z"/></g><path class="cls-5" d="M480,207.3c-1.35-40.79-5.94-92.14-23.5-130.69-19.45-42.69-90.8-52.52-90.8-52.52,0,0-63.69-10.33-122.57-2.88-46.76,5.91-128.8,5.42-128.8,5.42,0,0-68.55,20.55-76.72,54.17-8.63,35.52-9.25,101.29-9.25,101.29,0,0-8.34,63.69-8.37,95.7-.05,54.23,6.31,116.34,33.77,154.1,28.7,39.45,106.95,41.02,106.95,41.02,0,0,85.4,16.04,152,4.27,44.6-7.88,97.29,3.74,139.19-39.17,37.04-37.94,19.79-122.23,19.79-122.23l8.31-108.48Z"/><path class="cls-6" d="M149.03,114.81c9.4-.61,19.19-2.33,26.03-8.43,11.32-10.11,1.42-26.76,1.42-26.76l-11.99-10.78s4.27-14,0-20.08c-4.27-6.08-10.28-10.83-17.99-10.05,2.8-3.48,2.67-8.27.7-12.3-19.26.3-32.84.22-32.84.22,0,0-68.55,20.55-76.72,54.17-2.24,9.23-3.94,20.51-5.24,32.14,10.69,3.34,22.18,3.74,33.47,3.92,27.74.43,55.5-.25,83.18-2.05Z"/><path class="cls-16" d="M423.37,90.89c-20.48,3.54-56.58,22.05-56.58,22.05,0,0-26.5,14.92-41.11,18.75-14.16,3.7-40.35,11.93-40.35,11.93l-36.74,8.21-36.71-4.73s-9.43-10.26-15.24-14.41c-6.62-4.73-14.3-6.79-22.24-8.68-15.98-3.81-42.41-17.13-42.41-17.13,0,0-57.24-12.82-97.85-7.56-.01.1-.03.2-.04.3-.07.51-.15,1.02-.22,1.53-.04.25-.07.51-.11.76-.05.37-.1.75-.16,1.12-.04.28-.08.56-.11.84-.05.35-.09.71-.14,1.07-.04.29-.07.57-.11.86-.05.36-.09.72-.14,1.09-.03.28-.07.55-.1.83-.05.41-.1.82-.15,1.23-.03.23-.06.46-.08.69-.07.62-.15,1.24-.22,1.86-.03.26-.06.51-.09.77-.04.39-.09.79-.13,1.18-.03.29-.06.57-.09.86-.04.37-.08.73-.12,1.09-.03.3-.06.6-.09.9-.04.36-.07.72-.11,1.08-.03.29-.06.59-.09.88-.04.38-.08.77-.11,1.15-.03.27-.05.54-.08.81-.05.53-.1,1.05-.15,1.58-.03.33-.06.65-.09.98-.04.42-.08.84-.11,1.27-.03.29-.05.58-.08.86-.03.37-.06.73-.1,1.1-.03.3-.05.6-.08.9-.03.35-.06.71-.09,1.06-.02.3-.05.6-.07.9-.03.36-.06.72-.09,1.07-.02.29-.05.58-.07.86-.03.4-.06.8-.09,1.21-.02.29-.04.58-.07.87-.04.56-.08,1.12-.12,1.67-.02.27-.04.53-.06.8-.03.37-.05.74-.08,1.11-.02.28-.04.56-.06.85-.02.35-.05.7-.07,1.05-.02.29-.04.58-.06.87-.02.34-.04.68-.07,1.01-.02.29-.04.58-.06.86-.02.37-.05.73-.07,1.09-.02.25-.03.49-.05.74-.04.59-.07,1.17-.11,1.75-.01.23-.03.46-.04.69-.02.37-.04.74-.06,1.11-.02.28-.03.55-.05.82-.02.32-.04.64-.05.96-.02.28-.03.55-.05.83-.02.32-.03.63-.05.94-.01.27-.03.53-.04.8-.02.33-.03.65-.05.97-.01.25-.03.51-.04.76-.02.36-.04.72-.05,1.08-.02.35-.03.7-.05,1.04-.02.38-.04.75-.05,1.12-.01.23-.02.47-.03.7-.01.31-.03.63-.04.94-.01.23-.02.47-.03.7-.01.3-.03.6-.04.9,0,.23-.02.46-.03.69-.01.3-.02.59-.04.88,0,.22-.02.44-.03.66-.01.31-.02.62-.04.93,0,.18-.01.37-.02.55-.02.47-.04.93-.05,1.38,0,.21-.02.42-.02.62,0,.26-.02.52-.03.77,0,.22-.01.43-.02.64,0,.25-.02.51-.03.76,0,.2-.01.4-.02.59,0,.24-.02.48-.02.72,0,.19-.01.39-.02.58,0,.26-.02.52-.02.78,0,.15,0,.31-.01.46-.01.37-.02.74-.03,1.1,0,.15,0,.29-.01.43,0,.26-.01.52-.02.78,0,.15,0,.3-.01.44,0,.22-.01.44-.02.66,0,.15,0,.31-.01.46,0,.19,0,.38-.01.56,0,.16,0,.32-.01.48,0,.17,0,.33-.01.5,0,.15,0,.29-.01.43,0,.24-.01.47-.02.69,0,.06,0,.12,0,.18,0,.29-.01.56-.02.83,0,.09,0,.17,0,.25,0,.17,0,.35-.01.51,0,.1,0,.19,0,.29,0,.14,0,.28,0,.41,0,.1,0,.19,0,.29,0,.13,0,.25,0,.36,0,.07,0,.15,0,.22,0,.13,0,.26,0,.38,0,.05,0,.11,0,.17,0,.16,0,.3,0,.44,0,.05,0,.1,0,.15,0,.09,0,.17,0,.25,0,.04,0,.07,0,.1,0,.08,0,.16,0,.22,0,.03,0,.06,0,.08,0,.05,0,.09,0,.13,0,.03,0,.06,0,.09,0,.1,0,.15,0,.15,0,0-8.34,63.69-8.37,95.7,0,1.2,0,2.41,0,3.62,0,.25,0,.5,0,.74,0,1.21.02,2.42.03,3.64,0,.12,0,.24,0,.36.01,1.2.03,2.4.05,3.61,0,.12,0,.23,0,.35.02,1.29.05,2.58.08,3.88,0,.1,0,.19,0,.29.07,2.67.15,5.35.26,8.04,0,.04,0,.08,0,.12.11,2.75.24,5.5.39,8.26,8.37,2.18,17.66,2.2,25.91,2,19.05-.47,56.92-5.22,56.92-5.22,0,0,68.82-2.91,103.68,2.43,55,8.43,165.97,2.04,165.97,2.04,0,0,67.8-4.76,96.57-20.07,1.32-.7,2.59-1.43,3.81-2.17l6.31-82.42c-.04-1.21-.08-2.43-.13-3.66-.02-.43-.03-.85-.05-1.28-.03-.81-.06-1.62-.1-2.44-.02-.51-.04-1.03-.07-1.54-.03-.74-.07-1.48-.1-2.22-.03-.56-.06-1.13-.08-1.7-.03-.7-.07-1.4-.11-2.1-.03-.6-.06-1.2-.1-1.81-.04-.68-.08-1.36-.12-2.04-.04-.63-.07-1.25-.11-1.88-.04-.66-.08-1.32-.12-1.98-.04-.65-.08-1.31-.13-1.97-.04-.64-.09-1.28-.13-1.93-.05-.68-.1-1.36-.15-2.04-.04-.61-.09-1.22-.14-1.84-.06-.72-.11-1.43-.17-2.15-.04-.53-.09-1.06-.13-1.59-.17-2.04-.35-4.09-.55-6.14,0,0,0,0,0,0-.08-.87-.17-1.74-.26-2.6-.05-.47-.09-.93-.14-1.4-.09-.83-.18-1.67-.27-2.51-.05-.5-.11-1-.16-1.5-.09-.83-.19-1.66-.29-2.5-.06-.51-.12-1.01-.18-1.52-.1-.84-.2-1.67-.31-2.51-.06-.5-.13-1-.19-1.49-.11-.85-.22-1.7-.34-2.55-.06-.48-.13-.95-.2-1.43-.12-.87-.25-1.75-.37-2.62-.06-.44-.13-.87-.19-1.31-.14-.91-.27-1.83-.42-2.74-.06-.36-.11-.71-.17-1.06-.16-.99-.32-1.99-.48-2.98-.02-.12-.04-.23-.06-.35-.62-3.68-1.3-7.35-2.03-10.99-.01-.06-.02-.12-.04-.19-.21-1.02-.42-2.05-.64-3.07-.06-.3-.12-.59-.19-.89-.2-.95-.42-1.89-.63-2.83-.08-.37-.17-.73-.25-1.1-.21-.91-.43-1.82-.64-2.72-.09-.39-.19-.78-.28-1.16-.22-.89-.44-1.79-.67-2.68-.1-.39-.2-.78-.3-1.16-.23-.89-.47-1.78-.71-2.67-.1-.36-.2-.73-.3-1.09-.25-.91-.51-1.82-.77-2.72-.09-.31-.18-.61-.27-.91-.28-.96-.57-1.91-.86-2.86-.04-.14-.09-.28-.13-.42-1.08-3.46-2.23-6.87-3.47-10.21-12.63.87-25.49.49-37.91,2.64Z"/><path class="cls-17" d="M423.31,438.01c31.85-37.94,17.02-122.23,17.02-122.23l1.92-29.23c-3.19-.07-6.37-.1-9.56-.07-14.51.17-28.91-2.09-43.44-1.95-8.68.08-17.13,2.43-25.68,3.64-7.85,1.11-16.16.08-24.08.15-16.94.14-33.82-2.78-50.76-2.82-18.04-.05-36.5,1.38-54.49-.12-19.38-1.62-22.32-24.12-41.45-27.31-18.72-3.12-54.67-3.29-54.67-3.29,0,0-37.93,14.14-48.57,15.93-9.11,1.53-18.27,2.75-27.34,4.57-3.4.68-6.83,1.5-10.27,2.27,0,.08,0,.16,0,.24-.03,35.23-10.31,88.28-11.03,131.48,3.67,8.2,7.92,15.81,12.87,22.62,28.7,39.45,106.95,41.02,106.95,41.02,0,0,64.78,12.16,125.5,7.53,5.91-1.01,11.74-2.09,17.4-3.26,38.35-7.88,83.66,3.74,119.68-39.17Z"/><path class="cls-8" d="M162.39,255.44s-44.78-6.49-54.9-8.57c-29.99-6.16-53.7-17.01-84.36-18.42-1.68,17.36-3.12,36.07-3.13,49.33-.05,52.58,5.93,112.56,31.32,150.58,38.78-52.24,79.78-112.2,79.78-112.2l31.28-60.73Z"/><path class="cls-17" d="M353.19,119.74s-68.18,1.58-97.82,3.95c-24.54,1.96-61.7,18.47-61.7,18.47,0,0-16.84,44.48-18.94,68.09-2.39,26.85-18.09,58.35-18.09,58.35,0,0-4.07,66.34,12.06,80.26,18.01,15.54,49.7,14.97,71.31,14.36,20.32-.58,45.24-3.63,53.9-27.04,8.77-23.73,4.06-78.94,4.06-78.94l-.99-84.55s4.27-20.49,24.26-29.25c4.89-2.14,31.95-23.71,31.95-23.71Z"/><path class="cls-18" d="M337.06,133.24c4.89-2.14,17.13-13.83,17.13-13.83,0,0-69.5-1.71-99.14.66-24.54,1.96-61.37,22.1-61.37,22.1l18.95,3.58s5.61.06,8.36.64c2.37.5,4.69,1.06,7.07,1.48,2.45.43,4.67,1.56,7.04,2.3,2.6.81,7.92,1.95,7.92,1.95,0,0,11.21,3.6,16.89,5.11,6.02,1.6,18.54,1.86,18.54,1.86,0,0,17.1-.91,25.63-1.7,8.44-8.22,19.65-15.29,19.65-15.29,0,0,7.8-6.44,13.33-8.86Z"/><polygon class="cls-10" points="473.93 286.56 473.93 286.56 471.69 315.78 473.93 286.56"/><path class="cls-13" d="M394.53,468.76c-2.23.47-4.47.89-6.72,1.27,2.24-.38,4.48-.8,6.72-1.27Z"/><path class="cls-13" d="M387.82,470.03c-1.5.25-2.99.48-4.49.7,1.5-.22,3-.45,4.49-.7Z"/><path class="cls-13" d="M376.57,471.59c-3,.34-6.01.62-9.01.87,3-.25,6.01-.53,9.01-.87Z"/><path class="cls-13" d="M383.32,470.73c-2.25.32-4.5.61-6.75.86,2.25-.25,4.5-.54,6.75-.86Z"/><path class="cls-13" d="M473.76,387.76c-.38,2.55-.83,5.09-1.35,7.62.52-2.53.97-5.07,1.35-7.62Z"/><path class="cls-13" d="M475.64,365.11c-.04,1.63-.1,3.28-.18,4.94.08-1.66.14-3.31.18-4.94Z"/><path class="cls-13" d="M468.35,410.25c-.56,1.61-1.16,3.19-1.8,4.75.64-1.56,1.24-3.15,1.8-4.75Z"/><path class="cls-13" d="M471.27,400.42c-.62,2.5-1.32,4.98-2.1,7.41.78-2.44,1.48-4.91,2.1-7.41Z"/><path class="cls-13" d="M475.06,342.38c.1,1.37.19,2.77.27,4.2-.08-1.43-.17-2.84-.27-4.2Z"/><path class="cls-13" d="M367.56,472.46c-1.5.12-3,.24-4.5.34,1.5-.11,3-.22,4.5-.34Z"/><path class="cls-13" d="M401.21,467.19c17.75-4.66,34.98-13.08,50.69-29.17,5.79-5.93,10.25-12.99,13.66-20.68-3.41,7.69-7.87,14.75-13.66,20.68-15.71,16.09-32.94,24.51-50.69,29.17Z"/><path class="cls-13" d="M475.44,348.76c.07,1.47.13,2.96.17,4.49-.04-1.52-.1-3.02-.17-4.49Z"/><path class="cls-13" d="M356.32,473.25c-2.24.14-4.48.27-6.71.39,2.23-.13,4.47-.26,6.71-.39Z"/><path class="cls-10" d="M331.96,474.81c-2.18.18-4.35.38-6.5.61,2.15-.23,4.32-.43,6.5-.61Z"/><path class="cls-5" d="M471.7,315.83s0,.02,0,.04c0-.01,0-.03,0-.04Z"/><path class="cls-5" d="M471.73,315.97s0,.04.01.07c0-.03,0-.05-.01-.07Z"/><path class="cls-5" d="M457.5,431.38c-.39.53-.79,1.06-1.2,1.59.41-.52.81-1.05,1.2-1.59Z"/><path class="cls-5" d="M448.61,441.25c-1.77,1.67-3.56,3.25-5.36,4.75,1.8-1.49,3.59-3.08,5.36-4.75Z"/><path class="cls-5" d="M472.67,321.38s.01.06.02.1c0-.03-.01-.06-.02-.1Z"/><path class="cls-5" d="M442.57,446.55c-1.81,1.47-3.63,2.86-5.47,4.17,1.84-1.31,3.66-2.7,5.47-4.17Z"/><path class="cls-5" d="M455.69,433.74c-.42.51-.84,1.02-1.27,1.52.43-.5.86-1.01,1.27-1.52Z"/><path class="cls-5" d="M356.32,473.25c-2.24.14-4.48.27-6.71.39,2.23-.13,4.47-.26,6.71-.39Z"/><path class="cls-5" d="M318.21,476.31c-.14.02-.28.04-.43.06.14-.02.28-.04.43-.06Z"/><path class="cls-5" d="M472.2,318.51c.01.06.02.12.03.19-.01-.06-.02-.12-.03-.19Z"/><path class="cls-5" d="M463.95,420.73c-.3.6-.61,1.2-.92,1.79.31-.59.62-1.19.92-1.79Z"/><path class="cls-5" d="M472.36,319.44s.02.1.02.15c0-.05-.02-.1-.02-.15Z"/><path class="cls-5" d="M472.49,320.29c.01.08.03.17.04.26-.01-.09-.03-.17-.04-.26Z"/><path class="cls-5" d="M461.13,425.92c-.97,1.63-2.01,3.22-3.11,4.76,1.1-1.54,2.13-3.13,3.11-4.76Z"/><path class="cls-5" d="M471.86,316.67s.02.08.02.12c0-.04-.02-.08-.02-.12Z"/><path class="cls-5" d="M462.56,423.4c-.32.59-.65,1.17-.99,1.75.34-.58.66-1.16.99-1.75Z"/><path class="cls-5" d="M471.97,317.24s0,.02,0,.03c0-.01,0-.02,0-.03Z"/><path class="cls-5" d="M472.08,317.83c0,.05.02.11.03.16,0-.06-.02-.11-.03-.16Z"/><path class="cls-5" d="M471.8,316.31s0,.04.01.07c0-.02,0-.05-.01-.07Z"/><path class="cls-5" d="M410.77,464.27c-1.95.68-3.91,1.31-5.87,1.89,1.97-.58,3.92-1.21,5.87-1.89Z"/><path class="cls-5" d="M404.16,466.37c-.98.28-1.96.56-2.95.81.98-.26,1.97-.53,2.95-.81Z"/><path class="cls-5" d="M401.21,467.19c-.99.26-1.98.5-2.97.74.99-.24,1.98-.48,2.97-.74Z"/><path class="cls-5" d="M436.41,451.21c-1.84,1.29-3.7,2.5-5.57,3.63,1.87-1.14,3.73-2.34,5.57-3.63Z"/><path class="cls-5" d="M417.3,461.75c-.96.41-1.93.8-2.89,1.18.97-.38,1.93-.77,2.89-1.18Z"/><path class="cls-5" d="M363.06,472.81c-2.25.16-4.49.31-6.74.44,2.24-.14,4.49-.28,6.74-.44Z"/><path class="cls-5" d="M397.5,468.1c-.99.23-1.98.45-2.97.66.99-.21,1.98-.43,2.97-.66Z"/><path class="cls-5" d="M430.14,455.26c-1.88,1.12-3.76,2.16-5.66,3.14,1.9-.98,3.79-2.02,5.66-3.14Z"/><path class="cls-5" d="M414.41,462.93c-.97.38-1.95.74-2.92,1.09.98-.35,1.95-.71,2.92-1.09Z"/><path class="cls-5" d="M420.91,460.15c-.96.45-1.92.87-2.89,1.29.96-.42,1.93-.84,2.89-1.29Z"/><path class="cls-5" d="M372.06,472.06c-1.5.14-3,.28-4.51.4,1.5-.12,3-.26,4.51-.4Z"/><path class="cls-5" d="M379.56,471.24c-1,.12-1.99.25-2.99.36,1-.11,1.99-.23,2.99-.36Z"/><path class="cls-5" d="M423.77,458.76c-.95.48-1.9.95-2.86,1.39.96-.45,1.91-.91,2.86-1.39Z"/><path class="cls-5" d="M367.56,472.46c-1.5.12-3,.24-4.5.34,1.5-.11,3-.22,4.5-.34Z"/><path class="cls-5" d="M394.53,468.76c-1,.21-1.99.41-2.99.6,1-.19,2-.39,2.99-.6Z"/><path class="cls-5" d="M390.8,469.5c-.99.19-1.99.36-2.98.53.99-.17,1.99-.35,2.98-.53Z"/><path class="cls-5" d="M387.82,470.03c-1.5.25-2.99.48-4.49.7,1.5-.22,3-.45,4.49-.7Z"/><path class="cls-5" d="M383.32,470.73c-1,.14-2.01.28-3.01.41,1-.13,2.01-.26,3.01-.41Z"/><path class="cls-5" d="M376.57,471.59c-1.5.17-3,.32-4.51.47,1.5-.14,3-.3,4.51-.47Z"/><path class="cls-5" d="M474.36,334.45c.02.15.03.3.05.45-.02-.15-.03-.3-.05-.45Z"/><path class="cls-5" d="M473.76,387.76c-.17,1.13-.36,2.26-.55,3.39.2-1.13.38-2.26.55-3.39Z"/><path class="cls-5" d="M474.19,332.86s0,.08.01.11c0-.04,0-.08-.01-.11Z"/><path class="cls-5" d="M474.31,383.68c-.17,1.36-.35,2.72-.55,4.09.2-1.36.39-2.73.55-4.09Z"/><path class="cls-5" d="M475.7,359.55c0,.63,0,1.27,0,1.91,0-.64,0-1.27,0-1.91Z"/><path class="cls-5" d="M474.54,336.21c.01.13.02.25.04.38-.01-.13-.02-.25-.04-.38Z"/><path class="cls-5" d="M473.97,330.92c.02.14.03.28.05.42-.02-.14-.03-.28-.05-.42Z"/><path class="cls-5" d="M475.06,342.38c.1,1.37.19,2.77.27,4.2-.08-1.43-.17-2.84-.27-4.2Z"/><path class="cls-5" d="M475.68,356.71c0,.62.02,1.25.02,1.88,0-.63-.01-1.26-.02-1.88Z"/><path class="cls-5" d="M475.19,374.64c-.09,1.28-.2,2.56-.32,3.85.12-1.29.23-2.57.32-3.85Z"/><path class="cls-5" d="M475.61,353.25c.02.87.04,1.75.06,2.63-.02-.88-.03-1.76-.06-2.63Z"/><path class="cls-5" d="M473.06,391.99c-.2,1.13-.42,2.27-.65,3.39.23-1.13.45-2.26.65-3.39Z"/><path class="cls-5" d="M474.88,340.07c.01.17.03.33.04.5-.01-.17-.03-.33-.04-.5Z"/><path class="cls-5" d="M474.73,338.27c.01.13.02.27.03.4-.01-.13-.02-.27-.03-.4Z"/><path class="cls-5" d="M474.81,379.21c-.13,1.29-.26,2.58-.42,3.88.16-1.29.29-2.59.42-3.88Z"/><path class="cls-5" d="M475.44,348.76c.07,1.47.13,2.96.17,4.49-.04-1.52-.1-3.02-.17-4.49Z"/><path class="cls-5" d="M475.47,370.04c-.06,1.32-.14,2.66-.23,3.99.09-1.34.17-2.67.23-3.99Z"/><path class="cls-5" d="M470.16,404.55c-.32,1.1-.64,2.19-.99,3.28.35-1.09.68-2.18.99-3.28Z"/><path class="cls-5" d="M473.22,325.08c0,.06.02.12.02.17,0-.06-.02-.12-.02-.17Z"/><path class="cls-5" d="M475.69,362.32c0,.92-.02,1.85-.05,2.78.02-.93.04-1.86.05-2.78Z"/><path class="cls-5" d="M465.56,417.33c-.39.88-.8,1.75-1.21,2.61.42-.86.82-1.73,1.21-2.61Z"/><path class="cls-5" d="M468.35,410.25c-.56,1.61-1.16,3.19-1.8,4.75.64-1.56,1.24-3.15,1.8-4.75Z"/><path class="cls-5" d="M475.64,365.11c-.04,1.63-.1,3.28-.18,4.94.08-1.66.14-3.31.18-4.94Z"/><path class="cls-5" d="M472.84,322.5c.01.08.02.16.04.24-.01-.08-.02-.16-.04-.24Z"/><path class="cls-5" d="M473.01,323.62c.01.1.03.2.04.3-.02-.1-.03-.2-.04-.3Z"/><path class="cls-5" d="M473.39,326.33c.02.12.03.25.05.37-.02-.13-.03-.25-.05-.37Z"/><path class="cls-5" d="M472.41,395.39c-.35,1.69-.73,3.36-1.14,5.03.41-1.67.79-3.35,1.14-5.03Z"/><path class="cls-5" d="M473.59,327.81c.01.08.02.16.03.24-.01-.08-.02-.16-.03-.24Z"/><path class="cls-5" d="M449.26,440.62c.88-.85,1.76-1.71,2.64-2.61.66-.68,1.3-1.38,1.93-2.08-.63.71-1.27,1.4-1.93,2.08-.87.9-1.75,1.76-2.64,2.61Z"/><path class="cls-5" d="M473.79,329.43c.01.11.03.23.04.35-.01-.12-.03-.23-.04-.35Z"/><path class="cls-5" d="M471.27,400.42c-.28,1.11-.57,2.21-.88,3.31.31-1.1.6-2.2.88-3.31Z"/><path class="cls-11" d="M475.23,374.04c-.01.2-.03.4-.04.6.01-.2.03-.4.04-.6Z"/><path class="cls-11" d="M430.84,454.84c-.23.14-.47.28-.7.42.23-.14.47-.28.7-.42Z"/><path class="cls-11" d="M424.48,458.4c-.24.12-.47.24-.71.36.24-.12.47-.24.71-.36Z"/><path class="cls-11" d="M470.39,403.73c-.08.27-.15.55-.23.82.08-.27.16-.55.23-.82Z"/><path class="cls-11" d="M458.02,430.67c-.17.24-.35.47-.52.71.17-.24.35-.47.52-.71Z"/><path class="cls-11" d="M456.3,432.96c-.2.26-.41.52-.61.77.21-.26.41-.51.61-.77Z"/><path class="cls-11" d="M454.41,435.26c-.19.22-.38.45-.58.67.2-.22.39-.45.58-.67Z"/><path class="cls-11" d="M437.1,450.72c-.23.16-.46.32-.69.48.23-.16.46-.32.69-.48Z"/><path class="cls-11" d="M463.03,422.53c-.16.29-.31.59-.47.88.16-.29.32-.58.47-.88Z"/><path class="cls-11" d="M461.58,425.15c-.15.26-.29.51-.45.77.15-.25.3-.51.45-.77Z"/><path class="cls-11" d="M464.35,419.94c-.13.27-.26.53-.4.79.13-.26.27-.53.4-.79Z"/><path class="cls-11" d="M474.88,378.48c-.02.24-.05.48-.07.73.02-.24.05-.48.07-.73Z"/><path class="cls-11" d="M473.21,391.15c-.05.28-.1.56-.15.84.05-.28.1-.56.15-.84Z"/><path class="cls-11" d="M474.39,383.09c-.02.2-.05.39-.07.59.02-.2.05-.39.07-.59Z"/><path class="cls-11" d="M449.26,440.62c-.22.21-.44.42-.66.63.22-.21.44-.42.66-.63Z"/><path class="cls-11" d="M443.24,446c-.22.19-.45.37-.68.56.23-.18.45-.37.68-.56Z"/><path class="cls-11" d="M380.31,471.14c-.25.03-.5.06-.75.1.25-.03.5-.06.75-.1Z"/><path class="cls-11" d="M473.84,329.78c.05.37.09.75.14,1.14-.04-.38-.09-.76-.14-1.14Z"/><path class="cls-11" d="M473.62,328.05c.06.45.12.91.17,1.39-.06-.47-.12-.93-.17-1.39Z"/><path class="cls-11" d="M473.44,326.71c.05.36.1.73.14,1.1-.05-.38-.1-.74-.14-1.1Z"/><path class="cls-11" d="M474.02,331.34c.06.5.11,1,.17,1.52-.06-.52-.11-1.02-.17-1.52Z"/><path class="cls-11" d="M473.06,323.92c.06.38.11.76.17,1.16-.06-.4-.11-.79-.17-1.16Z"/><path class="cls-11" d="M473.25,325.26c.05.35.1.71.15,1.08-.05-.37-.1-.73-.15-1.08Z"/><path class="cls-11" d="M472.88,322.74c.04.28.09.57.13.87-.04-.3-.09-.59-.13-.87Z"/><path class="cls-11" d="M472.69,321.48c.05.33.1.67.16,1.03-.05-.35-.11-.7-.16-1.03Z"/><path class="cls-11" d="M474.2,332.97c.05.48.1.98.16,1.47-.05-.5-.1-.99-.16-1.47Z"/><path class="cls-11" d="M474.92,340.57c.05.6.09,1.2.14,1.81-.04-.61-.09-1.21-.14-1.81Z"/><path class="cls-11" d="M475.7,358.59c0,.32,0,.64,0,.96,0-.32,0-.64,0-.96Z"/><path class="cls-11" d="M418.02,461.44c-.24.1-.48.21-.72.31.24-.1.48-.2.72-.31Z"/><path class="cls-11" d="M475.67,355.88c0,.28,0,.56.01.83,0-.28,0-.56-.01-.83Z"/><path class="cls-11" d="M475.69,362.32c0-.29,0-.58,0-.87,0,.29,0,.58,0,.87Z"/><path class="cls-11" d="M472.54,320.54c.04.27.09.55.13.84-.05-.29-.09-.57-.13-.84Z"/><path class="cls-11" d="M474.57,336.59c.05.55.1,1.11.15,1.68-.05-.57-.1-1.13-.15-1.68Z"/><path class="cls-11" d="M474.76,338.67c.04.46.08.93.12,1.4-.04-.47-.08-.94-.12-1.4Z"/><path class="cls-11" d="M474.41,334.89c.04.43.09.87.13,1.32-.04-.45-.09-.89-.13-1.32Z"/><path class="cls-11" d="M317.78,476.37c-1.7.24-3.39.51-5.06.81,1.68-.3,3.36-.56,5.06-.81Z"/><path class="cls-11" d="M340.74,474.17c-2.94.19-5.87.39-8.78.64,2.91-.24,5.83-.45,8.78-.64Z"/><path class="cls-11" d="M323.31,475.66c-1.71.2-3.41.42-5.1.66,1.69-.24,3.39-.46,5.1-.66Z"/><path class="cls-11" d="M349.62,473.64c-2.97.17-5.93.34-8.88.53,2.94-.19,5.9-.36,8.88-.53Z"/><path class="cls-11" d="M331.96,474.81c-2.18.18-4.35.38-6.5.61,2.15-.23,4.32-.43,6.5-.61Z"/><path class="cls-11" d="M391.54,469.36c-.25.05-.5.09-.75.14.25-.05.5-.09.75-.14Z"/><path class="cls-11" d="M404.89,466.16c-.24.07-.49.14-.74.21.25-.07.49-.14.74-.21Z"/><path class="cls-11" d="M411.49,464.01c-.24.09-.48.17-.73.26.24-.08.48-.17.73-.26Z"/><path class="cls-11" d="M398.24,467.93c-.25.06-.49.12-.74.17.25-.06.49-.12.74-.17Z"/><path class="cls-11" d="M471.69,315.78s0,.02,0,.05c0-.03,0-.05,0-.05Z"/><path class="cls-11" d="M472.11,318c.03.16.06.34.09.52-.03-.18-.06-.35-.09-.52Z"/><path class="cls-11" d="M471.89,316.79c.03.14.05.28.08.45-.03-.16-.06-.31-.08-.45Z"/><path class="cls-11" d="M471.98,317.27c.03.17.07.36.1.56-.04-.2-.07-.39-.1-.56Z"/><path class="cls-11" d="M472.23,318.7c.04.24.08.48.13.75-.04-.26-.09-.51-.13-.75Z"/><path class="cls-11" d="M471.71,315.87s.01.06.02.1c0-.04-.01-.07-.02-.1Z"/><path class="cls-11" d="M471.81,316.37c.02.09.04.19.06.29-.02-.11-.04-.21-.06-.29Z"/><path class="cls-11" d="M472.38,319.59c.04.22.08.45.11.69-.04-.24-.08-.47-.11-.69Z"/><path class="cls-11" d="M471.74,316.04c.01.07.03.16.05.27-.02-.11-.04-.19-.05-.27Z"/><path class="cls-11" d="M475.7,359.55c0-.32,0-.64,0-.96,0-.63-.01-1.26-.02-1.88,0-.28,0-.56-.01-.83-.02-.88-.03-1.76-.06-2.63-.04-1.52-.1-3.02-.17-4.49-.03-.73-.07-1.46-.11-2.18-.08-1.43-.17-2.84-.27-4.2-.04-.61-.09-1.21-.14-1.81-.01-.17-.03-.33-.04-.5-.04-.47-.08-.94-.12-1.4-.01-.13-.02-.27-.03-.4-.05-.57-.1-1.13-.15-1.68-.01-.13-.02-.25-.04-.38-.04-.45-.09-.89-.13-1.32-.02-.15-.03-.3-.05-.45-.05-.5-.1-.99-.16-1.47,0-.04,0-.08-.01-.11-.06-.52-.11-1.02-.17-1.52-.02-.14-.03-.28-.05-.42-.04-.38-.09-.76-.14-1.14-.01-.12-.03-.23-.04-.35-.06-.47-.12-.94-.17-1.39-.01-.08-.02-.16-.03-.24-.05-.37-.1-.74-.14-1.1-.02-.13-.03-.25-.05-.37-.05-.37-.1-.73-.15-1.08,0-.06-.02-.12-.02-.17-.06-.4-.11-.79-.17-1.16-.02-.1-.03-.2-.04-.3-.04-.3-.09-.59-.13-.87-.01-.08-.02-.16-.04-.24-.05-.35-.11-.7-.16-1.03,0-.03-.01-.06-.02-.1-.05-.29-.09-.57-.13-.84-.01-.09-.03-.17-.04-.26-.04-.24-.08-.47-.11-.69,0-.05-.02-.1-.02-.15-.04-.26-.09-.51-.13-.75-.01-.06-.02-.12-.03-.19-.03-.18-.06-.35-.09-.52,0-.05-.02-.11-.03-.16-.04-.2-.07-.39-.1-.56,0-.01,0-.02,0-.03-.03-.16-.06-.31-.08-.45,0-.04-.02-.08-.02-.12-.02-.11-.04-.21-.06-.29,0-.02,0-.05-.01-.07-.02-.1-.04-.19-.05-.27,0-.03,0-.05-.01-.07,0-.04-.02-.08-.02-.1,0-.01,0-.03,0-.04,0-.03,0-.05,0-.05l2.24-29.23c-3.7-.07-7.41-.1-11.12-.07-11.74.12-23.43-.94-35.15-1.55-11.77,16.95-82.79,15.56-82.79,15.56l-40.76-14.76-29.64,119.23s-12.62,48.67-20.68,76.51c19.57.14,40-.96,58.92-4.3,1.68-.3,3.36-.56,5.06-.81.14-.02.28-.04.43-.06,1.69-.24,3.39-.46,5.1-.66.71-.08,1.43-.16,2.15-.24,2.15-.23,4.32-.43,6.5-.61,2.91-.24,5.83-.45,8.78-.64,2.94-.19,5.9-.36,8.88-.53,2.23-.13,4.47-.26,6.71-.39,2.24-.14,4.49-.28,6.74-.44,1.5-.11,3-.22,4.5-.34,1.5-.12,3-.26,4.51-.4,1.5-.14,3-.3,4.51-.47,1-.11,1.99-.23,2.99-.36.25-.03.5-.06.75-.1,1-.13,2.01-.26,3.01-.41,1.5-.22,3-.45,4.49-.7.99-.17,1.99-.35,2.98-.53.25-.05.5-.09.75-.14,1-.19,2-.39,2.99-.6.99-.21,1.98-.43,2.97-.66.25-.06.49-.12.74-.17.99-.24,1.98-.48,2.97-.74.98-.26,1.97-.53,2.95-.81.25-.07.49-.14.74-.21,1.97-.58,3.92-1.21,5.87-1.89.24-.08.48-.17.73-.26.98-.35,1.95-.71,2.92-1.09.97-.38,1.93-.77,2.89-1.18.24-.1.48-.2.72-.31.96-.42,1.93-.84,2.89-1.29.96-.45,1.91-.91,2.86-1.39.24-.12.47-.24.71-.36,1.9-.98,3.79-2.02,5.66-3.14.23-.14.47-.28.7-.42,1.87-1.14,3.73-2.34,5.57-3.63.23-.16.46-.32.69-.48,1.84-1.31,3.66-2.7,5.47-4.17.23-.18.45-.37.68-.56,1.8-1.49,3.59-3.08,5.36-4.75.22-.21.44-.42.66-.63.88-.85,1.76-1.71,2.64-2.61.66-.68,1.3-1.38,1.93-2.08.2-.22.39-.45.58-.67.43-.5.86-1.01,1.27-1.52.21-.26.41-.51.61-.77.41-.52.81-1.05,1.2-1.59.17-.24.35-.47.52-.71,1.1-1.54,2.13-3.13,3.11-4.76.15-.25.3-.51.45-.77.34-.58.67-1.16.99-1.75.16-.29.32-.58.47-.88.31-.59.62-1.19.92-1.79.13-.26.27-.53.4-.79.42-.86.82-1.73,1.21-2.61.34-.77.67-1.54.99-2.33.64-1.56,1.24-3.15,1.8-4.75.28-.8.55-1.61.81-2.42.35-1.09.68-2.18.99-3.28.08-.27.16-.55.23-.82.31-1.1.6-2.2.88-3.31.41-1.67.79-3.35,1.14-5.03.23-1.13.45-2.26.65-3.39.05-.28.1-.56.15-.84.2-1.13.38-2.26.55-3.39.2-1.36.39-2.73.55-4.09.02-.2.05-.39.07-.59.16-1.29.29-2.59.42-3.88.02-.24.05-.48.07-.73.12-1.29.23-2.57.32-3.85.01-.2.03-.4.04-.6.09-1.34.17-2.67.23-3.99.08-1.66.14-3.31.18-4.94.02-.93.04-1.86.05-2.78,0-.29,0-.58,0-.87,0-.64,0-1.27,0-1.91Z"/><path class="cls-21" d="M63.35,337.03c10.97-2.14,35.85-9.66,35.85-9.66,0,0-4.58-40.74-8.1-58.32-2.37-11.88-1.78-35.9-1.78-35.9,0,0-14.4-21.08-25.88-28.32-5.31-3.35-15.15-11-15.15-11,0,0-6.89-7.52-10.69-10.96-2.75-2.48-5.85-4.32-9.15-5.71-.07,3.14-.08,4.93-.08,4.93,0,0-8.34,63.69-8.37,95.7-.02,18.99.75,38.95,2.94,58.49,9.11,1.03,29.35,2.91,40.41.75Z"/><path class="cls-21" d="M480,207.3c-.28-8.36-.69-17.18-1.33-26.23-8.19,3.16-29.36,11.59-40.26,18.28-10.55,6.47-20.74,12.16-33.14,14.75-8.97,1.87-26.84,5.65-26.84,5.65,0,0-35.26,9.31-49.45,22.04-7.05,6.33-21.67,19.86-21.67,19.86,0,0-16.63,37.63-15.54,50.9.89,8.16,12.47,24.01,12.47,24.01,0,0,27.15.51,40.35,1.26,9.46.54,28.29.64,28.29.64,0,0,22.93,2.68,34.49,2.93,12.81.28,25.37-3.29,37.62-6.39,9.9-2.5,19.3-5.45,28.27-9.65-.84-6.01-1.57-9.59-1.57-9.59l8.31-108.48Z"/><path class="cls-3" d="M111.07,254.53s-3.44,4.13-1.91,7.02c1.28,2.42,5.95,2.64,8.7,1.9,2.8-.76,3.61-4.37,2.22-7.44-2.35-5.19-9.02-1.48-9.02-1.48Z"/><path class="cls-3" d="M206.49,285.73s-3.81,3.96-2.12,8.34c.96,2.48,5.12,2.64,7.48,1.9,2.41-.76,4.63-4.23,3.36-7.26-1.12-2.66-1.67-2.06-5.29-3.46l-3.44.48Z"/><path class="cls-3" d="M315.89,325.43s-3.75,4.6-2.22,7.49c1.28,2.42,4.75,2.5,7.51,1.75,2.8-.76,3.85-4.65,2.37-7.68-1.3-2.66-7.66-1.56-7.66-1.56Z"/><path class="cls-3" d="M249.7,312.56s-3.43,5.45-2.12,8.34c1.1,2.42,5.12,2.64,7.48,1.9,2.41-.76,4.63-4.23,3.36-7.26-1.12-2.66-2.13-3.44-5.75-4.84l-2.98,1.86Z"/><path class="cls-3" d="M293.24,277.78s-3.99,5.45-2.46,8.34c1.28,2.42,5.95,2.64,8.7,1.9,2.8-.76,5.39-4.23,3.91-7.26-1.3-2.66-2.48-3.44-6.69-4.84l-3.47,1.86Z"/><path class="cls-3" d="M74.88,301.47c-4.18,3.93-2.31,13.8,5.56,10.89,1.88-.7,4.82-3.69,4.91-5.8.15-3.25-2.45-5.41-6.49-5.41l-3.98.32Z"/><path class="cls-16" d="M28.39,180.47c0-.05,0-.11,0-.17,0,.06,0,.11,0,.17Z"/><path class="cls-16" d="M28.37,181.71s0-.05,0-.08c0,.03,0,.05,0,.08Z"/><path class="cls-16" d="M28.4,179.92c0-.07,0-.15,0-.22,0,.07,0,.15,0,.22Z"/><path class="cls-16" d="M28.41,179.33c0-.09,0-.19,0-.29,0,.1,0,.19,0,.29Z"/><path class="cls-16" d="M28.37,181.41s0-.07,0-.1c0,.04,0,.07,0,.1Z"/><path class="cls-16" d="M28.38,181.06c0-.05,0-.1,0-.15,0,.05,0,.1,0,.15Z"/><path class="cls-16" d="M31.63,120.2c.03-.27.05-.54.08-.81-.03.27-.05.54-.08.81Z"/><path class="cls-16" d="M31.82,118.24c.03-.29.06-.59.09-.88-.03.29-.06.59-.09.88Z"/><path class="cls-16" d="M28.5,174.96c0-.16,0-.32.01-.48,0,.16,0,.32-.01.48Z"/><path class="cls-16" d="M32.23,114.29c.03-.29.06-.57.09-.86-.03.29-.06.57-.09.86Z"/><path class="cls-16" d="M28.48,175.89c0-.14,0-.29.01-.43,0,.15,0,.29-.01.43Z"/><path class="cls-16" d="M28.37,181.93s0-.06,0-.09c0,.03,0,.06,0,.09Z"/><path class="cls-16" d="M28.46,176.76c0-.06,0-.12,0-.18,0,.06,0,.12,0,.18Z"/><path class="cls-16" d="M28.44,177.84c0-.08,0-.16,0-.25,0,.09,0,.17,0,.25Z"/><path class="cls-16" d="M28.53,173.92c0-.15,0-.3.01-.46,0,.15,0,.31-.01.46Z"/><path class="cls-16" d="M28.42,178.64c0-.1,0-.19,0-.29,0,.1,0,.19,0,.29Z"/><path class="cls-16" d="M32.02,116.29c.03-.3.06-.6.09-.9-.03.3-.06.6-.09.9Z"/><path class="cls-16" d="M30.86,128.84c.02-.3.05-.6.07-.9-.02.3-.05.6-.07.9Z"/><path class="cls-16" d="M30.1,139.21c.02-.29.04-.58.06-.87-.02.29-.04.58-.06.87Z"/><path class="cls-16" d="M30.71,130.78c.02-.29.05-.58.07-.86-.02.29-.05.58-.07.86Z"/><path class="cls-16" d="M20.01,281.41c0-1.21,0-2.42,0-3.62,0,1.2,0,2.41,0,3.62Z"/><path class="cls-16" d="M29.98,141.09c.02-.29.04-.58.06-.86-.02.29-.04.58-.06.86Z"/><path class="cls-16" d="M30.23,137.29c.02-.28.04-.56.06-.85-.02.28-.04.56-.06.85Z"/><path class="cls-16" d="M30.37,135.33c.02-.27.04-.53.06-.8-.02.27-.04.53-.06.8Z"/><path class="cls-16" d="M30.55,132.86c.02-.29.04-.58.07-.87-.02.29-.04.58-.07.87Z"/><path class="cls-16" d="M29.86,142.92c.02-.24.03-.49.05-.74-.02.25-.03.49-.05.74Z"/><path class="cls-16" d="M20.04,285.79c-.01-1.22-.02-2.43-.03-3.64,0,1.21.02,2.42.03,3.64Z"/><path class="cls-16" d="M31.39,122.76c.03-.33.06-.65.09-.98-.03.33-.06.65-.09.98Z"/><path class="cls-16" d="M20.1,289.76c-.02-1.21-.04-2.41-.05-3.61.01,1.2.03,2.4.05,3.61Z"/><path class="cls-16" d="M31.03,126.88c.03-.3.05-.6.08-.9-.03.3-.05.6-.08.9Z"/><path class="cls-16" d="M31.2,124.89c.03-.29.05-.58.08-.86-.03.29-.05.58-.08.86Z"/><path class="cls-16" d="M20.45,302.32c-.1-2.69-.19-5.37-.26-8.04.07,2.67.15,5.35.26,8.04Z"/><path class="cls-16" d="M20.19,293.99c-.03-1.3-.06-2.59-.08-3.88.02,1.29.05,2.58.08,3.88Z"/><path class="cls-16" d="M32.46,112.25c.03-.26.06-.51.09-.77-.03.26-.06.51-.09.77Z"/><path class="cls-16" d="M33.49,103.86c.04-.28.07-.56.11-.84-.04.28-.08.56-.11.84Z"/><path class="cls-16" d="M28.94,161.26c0-.22.02-.44.03-.66,0,.22-.02.44-.03.66Z"/><path class="cls-16" d="M29.07,158.13c.01-.23.02-.46.03-.7-.01.23-.02.47-.03.7Z"/><path class="cls-16" d="M29,159.72c0-.23.02-.46.03-.69,0,.23-.02.46-.03.69Z"/><path class="cls-16" d="M28.88,162.75c0-.18.01-.37.02-.55,0,.18-.01.37-.02.55Z"/><path class="cls-16" d="M33.23,105.78c.04-.29.07-.57.11-.86-.04.29-.07.57-.11.86Z"/><path class="cls-16" d="M29.72,145.36c.01-.23.03-.46.04-.69-.01.23-.03.46-.04.69Z"/><path class="cls-16" d="M28.81,164.76c0-.21.01-.41.02-.62,0,.21-.02.42-.02.62Z"/><path class="cls-16" d="M29.14,156.5c.01-.23.02-.46.03-.7-.01.23-.02.47-.03.7Z"/><path class="cls-16" d="M29.51,149.08c.01-.28.03-.55.05-.83-.02.28-.03.55-.05.83Z"/><path class="cls-16" d="M29.42,150.82c.01-.27.03-.53.04-.8-.01.27-.03.53-.04.8Z"/><path class="cls-16" d="M20.45,302.44c.11,2.75.24,5.5.39,8.26h0c-.15-2.76-.28-5.51-.39-8.26Z"/><path class="cls-16" d="M29.61,147.29c.02-.27.03-.55.05-.82-.02.28-.03.55-.05.82Z"/><path class="cls-16" d="M29.23,154.67c.02-.35.03-.69.05-1.04-.02.35-.03.7-.05,1.04Z"/><path class="cls-16" d="M28.76,166.17c0-.21.01-.43.02-.64,0,.22-.01.43-.02.64Z"/><path class="cls-16" d="M33.75,101.9c.04-.25.07-.51.11-.76-.04.25-.07.51-.11.76Z"/><path class="cls-16" d="M34.12,99.31h0c-.01.1-.03.2-.04.3.01-.1.03-.2.04-.3Z"/><path class="cls-16" d="M29.33,152.55c.01-.25.03-.5.04-.76-.01.25-.03.51-.04.76Z"/><path class="cls-16" d="M32.76,109.62c.03-.23.06-.46.08-.69-.03.23-.06.46-.08.69Z"/><path class="cls-16" d="M28.71,167.52c0-.2.01-.39.02-.59,0,.2-.01.4-.02.59Z"/><path class="cls-16" d="M28.59,171.59c0-.14,0-.28.01-.43,0,.15,0,.29-.01.43Z"/><path class="cls-16" d="M28.67,168.82c0-.19.01-.39.02-.58,0,.19-.01.39-.02.58Z"/><path class="cls-16" d="M32.99,107.7c.03-.28.07-.55.1-.83-.03.28-.07.55-.1.83Z"/><path class="cls-16" d="M28.63,170.06c0-.15,0-.31.01-.46,0,.15,0,.31-.01.46Z"/><path class="cls-16" d="M28.55,172.81c0-.15,0-.29.01-.44,0,.15,0,.3-.01.44Z"/><path class="cls-16" d="M30.94,127.94c.03-.35.06-.71.09-1.06-.03.35-.06.71-.09,1.06Z"/><path class="cls-16" d="M30.78,129.92c.03-.36.06-.72.09-1.07-.03.36-.06.72-.09,1.07Z"/><path class="cls-16" d="M32.32,113.43c.04-.39.09-.79.13-1.18-.04.39-.09.79-.13,1.18Z"/><path class="cls-16" d="M32.11,115.39c.04-.37.08-.73.12-1.09-.04.37-.08.73-.12,1.09Z"/><path class="cls-16" d="M30.43,134.53c.04-.56.08-1.11.12-1.67-.04.56-.08,1.12-.12,1.67Z"/><path class="cls-16" d="M30.62,131.99c.03-.4.06-.8.09-1.21-.03.4-.06.8-.09,1.21Z"/><path class="cls-16" d="M32.54,111.48c.07-.62.14-1.24.22-1.86-.07.62-.15,1.24-.22,1.86Z"/><path class="cls-16" d="M33.35,104.92c.05-.36.09-.71.14-1.07-.05.35-.09.71-.14,1.07Z"/><path class="cls-16" d="M31.48,121.78c.05-.53.1-1.05.15-1.58-.05.53-.1,1.05-.15,1.58Z"/><path class="cls-16" d="M33.1,106.87c.05-.36.09-.73.14-1.09-.05.36-.09.72-.14,1.09Z"/><path class="cls-16" d="M31.71,119.39c.04-.38.08-.77.11-1.15-.04.38-.08.77-.11,1.15Z"/><path class="cls-16" d="M33.86,101.14c.07-.51.15-1.02.22-1.53-.07.51-.15,1.02-.22,1.53Z"/><path class="cls-16" d="M31.1,125.99c.03-.37.06-.73.1-1.1-.03.37-.06.73-.1,1.1Z"/><path class="cls-16" d="M31.91,117.36c.04-.36.07-.72.11-1.08-.04.36-.07.72-.11,1.08Z"/><path class="cls-16" d="M32.84,108.93c.05-.41.1-.82.15-1.23-.05.41-.1.82-.15,1.23Z"/><path class="cls-16" d="M31.27,124.03c.04-.42.08-.84.11-1.27-.04.42-.08.84-.11,1.27Z"/><path class="cls-16" d="M33.6,103.02c.05-.38.1-.75.16-1.12-.05.37-.1.75-.16,1.12Z"/><path class="cls-16" d="M28.78,165.53c0-.25.02-.51.03-.77,0,.26-.02.52-.03.77Z"/><path class="cls-16" d="M28.49,175.46c0-.16,0-.33.01-.5,0,.17,0,.33-.01.5Z"/><path class="cls-16" d="M28.51,174.48c0-.18,0-.37.01-.56,0,.19,0,.38-.01.56Z"/><path class="cls-16" d="M28.69,168.24c0-.24.02-.48.02-.72,0,.24-.02.48-.02.72Z"/><path class="cls-16" d="M28.65,169.6c0-.26.02-.52.02-.78,0,.26-.02.52-.02.78Z"/><path class="cls-16" d="M28.6,171.16c.01-.36.02-.72.03-1.1-.01.37-.02.74-.03,1.1Z"/><path class="cls-16" d="M28.57,172.37c0-.25.01-.51.02-.78,0,.26-.01.52-.02.78Z"/><path class="cls-16" d="M28.4,179.7c0-.12,0-.24,0-.36,0,.13,0,.25,0,.36Z"/><path class="cls-16" d="M28.39,180.3c0-.12,0-.25,0-.38,0,.13,0,.26,0,.38Z"/><path class="cls-16" d="M28.41,179.05c0-.13,0-.27,0-.41,0,.14,0,.28,0,.41Z"/><path class="cls-16" d="M28.44,177.59c0-.27.01-.54.02-.83,0,.29-.01.56-.02.83Z"/><path class="cls-16" d="M28.46,176.58c0-.22.01-.45.02-.69,0,.24-.01.47-.02.69Z"/><path class="cls-16" d="M28.43,178.35c0-.16,0-.34.01-.51,0,.17,0,.35-.01.51Z"/><path class="cls-16" d="M28.83,164.13c.02-.46.03-.92.05-1.38-.02.47-.04.93-.05,1.38Z"/><path class="cls-16" d="M29.37,151.79c.02-.32.03-.64.05-.97-.02.33-.03.65-.05.97Z"/><path class="cls-16" d="M29.28,153.63c.02-.36.04-.72.05-1.08-.02.36-.04.72-.05,1.08Z"/><path class="cls-16" d="M29.17,155.8c.02-.37.03-.75.05-1.12-.02.38-.04.75-.05,1.12Z"/><path class="cls-16" d="M29.46,150.02c.02-.31.03-.63.05-.94-.02.32-.03.63-.05.94Z"/><path class="cls-16" d="M29.65,146.47c.02-.37.04-.74.06-1.11-.02.37-.04.74-.06,1.11Z"/><path class="cls-16" d="M29.56,148.25c.02-.32.04-.64.05-.96-.02.32-.04.64-.05.96Z"/><path class="cls-16" d="M28.97,160.61c.01-.29.02-.59.04-.88-.01.3-.02.59-.04.88Z"/><path class="cls-16" d="M29.1,157.43c.01-.31.03-.62.04-.94-.01.31-.03.63-.04.94Z"/><path class="cls-16" d="M28.38,180.91c0-.13,0-.28,0-.44,0,.16,0,.3,0,.44Z"/><path class="cls-16" d="M28.9,162.2c.01-.31.02-.62.04-.93-.01.31-.02.62-.04.93Z"/><path class="cls-16" d="M28.73,166.93c0-.25.02-.5.03-.76,0,.25-.02.51-.03.76Z"/><path class="cls-16" d="M29.03,159.03c.01-.3.03-.6.04-.9-.01.3-.03.6-.04.9Z"/><path class="cls-16" d="M28.54,173.47c0-.21.01-.44.02-.66,0,.22-.01.44-.02.66Z"/><path class="cls-16" d="M29.91,142.18c.02-.36.05-.73.07-1.09-.02.37-.05.73-.07,1.09Z"/><path class="cls-16" d="M28.38,181.31c0-.08,0-.16,0-.25,0,.09,0,.17,0,.25Z"/><path class="cls-16" d="M29.76,144.67c.03-.58.07-1.17.11-1.75-.04.59-.07,1.17-.11,1.75Z"/><path class="cls-16" d="M30.29,136.45c.03-.37.05-.74.08-1.11-.03.37-.05.74-.08,1.11Z"/><path class="cls-16" d="M30.16,138.35c.02-.35.05-.7.07-1.05-.02.35-.05.7-.07,1.05Z"/><path class="cls-16" d="M30.03,140.23c.02-.34.04-.68.07-1.01-.02.34-.04.68-.07,1.01Z"/><path class="cls-16" d="M28.37,181.84s0-.08,0-.13c0,.05,0,.09,0,.13Z"/><path class="cls-16" d="M28.37,182.09s0-.06,0-.15c0,.1,0,.15,0,.15Z"/><path class="cls-16" d="M20.19,294.28c0-.1,0-.19,0-.29,0,.1,0,.19,0,.29Z"/><path class="cls-16" d="M20.05,286.15c0-.12,0-.24,0-.36,0,.12,0,.24,0,.36Z"/><path class="cls-16" d="M20.1,290.11c0-.12,0-.23,0-.35,0,.12,0,.23,0,.35Z"/><path class="cls-16" d="M28.37,181.63c0-.07,0-.14,0-.22,0,.08,0,.16,0,.22Z"/><path class="cls-16" d="M20.01,282.16c0-.25,0-.5,0-.74,0,.25,0,.5,0,.74Z"/><path class="cls-16" d="M20.45,302.44s0-.08,0-.12c0,.04,0,.08,0,.12Z"/><path class="cls-19" d="M222.07,146.62c-4.44,4.04-5.26,5.97-5.26,5.97,0,0-3.24,12.47-4.18,16.98-2.06,9.82-4.59,21.12-6.28,31.02-4.25,25.03-10.16,73.79-10.16,73.79,0,0-.96,16.14-1.74,25.16-.47,5.48-1.69,24.68-2.4,26.55-2.57,6.76,3.23-2.35,3.23-2.35l15.07-115.39s6.67-29.47,10.64-42.7c1.77-5.89,5.68-11.1,5.68-11.1,0,0,2.8-2.35,6.83-4.93-1.79-.66-3.54-1.41-5.43-1.74-2.02-.36-4-.82-6-1.25Z"/><path class="cls-3" d="M283.04,118.92l-10.64,3.3c-13.18,4.47-22.64,10.62-35.27,16.65-3.33,1.59-11.81,4.79-15.06,7.75,2,.43,3.97.89,6,1.25,1.89.33,3.64,1.08,5.43,1.74,2.34-1.5,4.74-3.02,6.51-4.08,13.04-7.83,43.03-26.61,43.03-26.61Z"/><path class="cls-19" d="M256.86,217.56c-.57,8.56,0,24.49,0,24.49l2.5,7.95s5.74-70.44,12.08-89.8c.1-.31.44-.79.95-1.37-2.8-.17-6.13-.45-8.99-.9-1.25,6.89-5.34,41.68-6.54,59.63Z"/><path class="cls-18" d="M270.2,158.68c-.75-.06-1.52-.12-2.28-.2.77.07,1.54.14,2.28.2Z"/><path class="cls-3" d="M270.21,158.68s0,0,0,0c0,0,0,0,0,0Z"/><path class="cls-3" d="M267.92,158.48h0s0,0,0,0Z"/><path class="cls-3" d="M284.4,147.95l29.44-20.67s5.93-3.8,12.84-8.33c-3.97-.04-8.2-.08-12.57-.11-9.07,6.57-18.26,12.94-27.58,19.07-5.84,3.85-6.78,5.44-12.34,9.78-2.48,1.94-10.57,9.02-10.57,9.02,0,0-.08.43-.22,1.22,1.43.22,2.98.4,4.52.55h0c.77.07,1.54.14,2.28.2,0,0,0,0,0,0,.75.06,1.48.11,2.18.15,3.02-3.5,12.01-10.88,12.01-10.88Z"/><path class="cls-19" d="M242.44,202.4c-2.05,25.21-3.38,34.45-5.41,55.09-1.51,15.34-1.86,30.67-4.16,45.91-.7,4.61-1.66,13.86-1.66,13.86,0,0-1.3,6.16-1.17,9.17.21,4.97,3.46,7.31,7.55,8.32-.25-2.09.74-3.99.75-6.18,0-2.64.56-4.9.6-7.53.09-5.27,1.04-10.45,1.49-15.63.95-10.78.48-21.85,1.72-32.59,1.07-9.27,1.24-18.61,1.94-27.99.68-9.06,2.52-27.24,2.52-27.24l.84-14.32s-.67-9.47-.67-14.9-4.34,14.03-4.34,14.03Z"/><path class="cls-19" d="M278.5,232.8c-.91-7.61-2.86,12.25-3.04,17.07-.2,5.26-1.59,10.42-2.13,15.63-.51,4.94-1.51,9.85-2.02,14.81-.97,9.24-1.4,18.55-2.86,27.74-.51,3.21-1.55,6.38-1.91,9.61-.19,1.73.07,3.08-.7,4.67.72.49,1.61.83,2.45.97.57.09,2.49.55,2.97.41,1.58-.49,2.1-5.96,2.36-7.51,1.23-7.42,2.41-14.97,3.18-22.46,1.3-12.61,3.12-29.55,3.12-29.55l.07-19.58s.08,1.28-1.48-11.81Z"/><path class="cls-3" d="M185.57,303.75s-17.82-14.78-28.38-12.85c-7.87,1.44-20.99,9.63-20.99,9.63,0,0-8.28-1.33-12.56.66-5.74,2.67-9.62,8.96-11.38,15.27-1.47,5.29-2.05,12.73,1.88,16.91,2.9,3.07,10.19,3.1,10.19,3.1,0,0,10.32,17.67,17.56,23.35,8.84,6.93,25.95-3.26,25.95-3.26,0,0,16.7,8.24,26.24,3.13,3.75-2.01,10.84-6.74,10.84-6.74,0,0,8.06-1.16,12.2-1.15,10.26.03,11.65-16.82,11.65-16.82,0,0,3.66-6.77,3.54-10.35-.15-4.4-6.81-10.81-6.81-10.81,0,0-9.19-7.98-12.22-7.88l-27.71-2.17Z"/><path class="cls-3" d="M296.19,302.29c-7.38-6.47-15.6-3.5-24.14-2.85-7.66.58-19.64,9.35-19.64,9.35,0,0-18.35-.74-25.08,8.3-4.76,6.39-4.95,20.39-2.49,27.82,6.77,2.39,20.09,6.27,20.09,6.27,0,0,9.85,14.95,19.82,14.07,3.99-.35,11.77-2.41,11.77-2.41,0,0,7.92.46,11.75-.38,10.15-2.24,12.6-17.82,12.6-17.82,0,0,8.78-4.56,8.93-9.98.12-4.44-3.66-8.08-6.72-10.27-.12-.56-.33-3.72-1.54-12.98l-5.34-9.12Z"/><path class="cls-3" d="M150.73,302.64c-1.3,1.48-2.28,4.04-.25,5.41,1.49,1,3.94,1.05,5.51.3,1.86-.88,3.17-2.73,1.97-4.66-.37-.6-1.33-1.39-1.99-1.69-.97-.44-2.1-.13-2.93-.92l-2.31,1.55Z"/><path class="cls-3" d="M159.83,263.53c-1.3,1.48-2.28,4.04-.25,5.41,1.49,1,3.94,1.05,5.51.3,1.86-.88,3.17-2.73,1.97-4.66-.37-.6-1.33-1.39-1.99-1.69-.97-.44-1.74-.32-3.24-.37l-2,1.01Z"/><path class="cls-3" d="M182.3,290.28c-1.11,1.48-1.96,4.04-.22,5.41,1.28,1,3.38,1.05,4.74.3,1.6-.88,2.73-2.73,1.69-4.66-.32-.6-1.14-1.39-1.71-1.69-.84-.44-1.15.01-2.41-.12l-2.1.76Z"/><path class="cls-3" d="M220.53,365.02c-.96,1.48-1.68,4.04-.19,5.41,1.1,1,2.91,1.05,4.08.3,1.38-.88,2.35-2.73,1.45-4.66-.28-.6-.98-1.39-1.47-1.69-.72-.44-3.88.63-3.88.63Z"/><path class="cls-3" d="M97.36,315.92c-1.3,1.48-2.02,4.19,0,5.56,1.49,1,2.38.8,3.96.06,1.86-.88,3.17-2.73,1.97-4.66-.37-.6-1.33-1.39-1.99-1.69-.97-.44-3.94.73-3.94.73Z"/><path class="cls-3" d="M75.72,350.54c-1.3,1.48-2.28,4.04-.25,5.41,1.49,1,3.94,1.05,5.51.3,1.86-.88,3.17-2.73,1.97-4.66-.37-.6-1.33-1.39-1.99-1.69-.97-.44-1.38-1.01-2.93-.92l-2.31,1.55Z"/><path class="cls-3" d="M113.23,295.34c-1.3,1.48-2.28,4.04-.25,5.41,1.49,1,3.94,1.05,5.51.3,1.86-.88,3.17-2.73,1.97-4.66-.37-.6-1.48-2.71-4.92-2.61l-2.31,1.55Z"/><path class="cls-3" d="M314.83,302.64c-1.3,1.48-2.28,4.04-.25,5.41,1.49,1,3.94,1.05,5.51.3,1.86-.88,3.17-2.73,1.97-4.66-.37-.6-1.33-1.39-1.99-1.69-.97-.44-1.71-.87-2.93-.92l-2.31,1.55Z"/><path class="cls-3" d="M327.68,352.4c-1.3,1.48-2.28,4.04-.25,5.41,1.49,1,3.94,1.05,5.51.3,1.86-.88,3.17-2.73,1.97-4.66-.37-.6-1.33-1.39-1.99-1.69-.97-.44-1.3-.65-2.93-.92l-2.31,1.55Z"/><path class="cls-1" d="M230.34,127.97c-10.98-4.36-36.88-26.4-49.04-26.86-11.21-.42-33.31-1.57-33.31-1.57,0,0-29.97-3.83-45.3-4.04-7.9-.11-23.83,0-23.83,0l-13.98,2.71s7.15,25.33,16.68,29.96c10.05,4.89,33.3,9.17,33.3,9.17l31.66,3.51s9.71-.05,14.68.9c4.53.86,32.74.39,32.74.39l15.32-5.6,21.08-8.56Z"/><path class="cls-1" d="M473.49,135.93c-.62-3.68-1.3-7.35-2.03-10.99-.01-.06-.02-.12-.04-.19-.21-1.02-.42-2.05-.64-3.07-.06-.3-.12-.59-.19-.89-.2-.95-.42-1.89-.63-2.83-.08-.37-.17-.73-.25-1.1-.21-.91-.43-1.82-.64-2.72-.09-.39-.19-.78-.28-1.16-.22-.89-.44-1.79-.67-2.68-.1-.39-.2-.78-.3-1.16-.23-.89-.47-1.78-.71-2.67-.1-.36-.2-.73-.3-1.09-.25-.91-.51-1.82-.77-2.72-.09-.31-.18-.61-.27-.91-.28-.96-.57-1.91-.86-2.86-.04-.14-.09-.28-.13-.42-1.08-3.46-2.23-6.87-3.47-10.21-12.63.87-25.37-.3-37.91,1.08-22.87,2.51-60.73,25.34-60.73,25.34l-27.36,14.19-11.55,13.23,39.42,17.95s31.67-3.56,39.57-10.12c2.5-2.08,18.67-4.24,18.67-4.24,0,0,16.51-3.6,22.49-3.7,6.78-.12,19.96-.29,19.96-.29,0,0,5.59-1.19,9.83-4.76-.04-.22-.07-.43-.11-.65-.02-.12-.04-.23-.06-.35Z"/><path class="cls-19" d="M117.55,444.02c17.96-18.24,41.48-65.83,41.48-65.83,0,0-7.7,6.01-10.22,9.49-3.51,4.85-9.66,12.81-12.55,18.12-7.08,13-12.08,24.93-18.71,38.21Z"/><path class="cls-19" d="M163.1,420.16c-6.04,3.4-10.71,12.55-14.42,18.61-5.53,9.03-10.87,18.2-16.2,27.37,1.53.45,3.04.87,4.54,1.26,5.6-7.85,11.15-15.76,16.02-24.17,3.49-6.03,10.3-15.88,10.06-23.07Z"/><path class="cls-19" d="M212.02,478.2l33.63-78.76s4.79-15.12,4.39-22.34c-9.46,13.02-11.56,24.3-18.73,39.97-4.28,9.34-8.85,22.01-12.1,31.84-2.97,8.99-7.18,29.3-7.18,29.3Z"/><path class="cls-2" d="M451.9,438.01c37.04-37.94,19.79-122.23,19.79-122.23l8.31-108.48c-.02-.49-.04-1-.05-1.5-13.88-.27-27.74,6.42-35.45,17.28-2.07,2.92-6.12,14.72-6.12,14.72,0,0-22.01-2.71-32.3,1.26-8.95,3.45-19.47,19.83-17.76,28.78,2.03,10.59,4.87,25.47,4.87,25.47,0,0-9.79,2.39-13.21,3.27-11.19,2.86-12.8,2.61-20.86,10.45-8.05,7.84-10.75,14.97-7.65,25.47.89,2.99,3.48,11.75,3.48,11.75,0,0-10.63,12.98-14.06,16.41-10.85,10.87-6.58,31.37,7.82,37.6,4.78,2.07,19.45,6.72,19.45,6.72,0,0-2.09,20.9,8.34,28.08,18.23,12.56,43.8.65,43.8.65,0,0,11.23,8.49,22.55,12.6,3.07-2.52,6.09-5.27,9.05-8.31Z"/><path class="cls-7" d="M430.64,281.64c-13.52.76-22.53,4.48-22.53,4.48,0,0,13.64,8.84,16.27,9.47,9.65,2.33,21.95-1,21.95-1l-2.66-6.72s-4.3-6.73-13.03-6.24Z"/><path class="cls-7" d="M393.88,358.65c-12.71-4.4-22.55-4.38-22.55-4.38,0,0,8.72,13.23,10.86,14.81,7.84,5.76,20.54,7.36,20.54,7.36l.43-7.16s-1.07-7.79-9.28-10.63Z"/><path class="cls-7" d="M452.3,338.96c-10.76-7.73-20.43-10.21-20.43-10.21,0,0,3.41,15.79,4.9,17.95,5.45,7.9,17.29,12.75,17.29,12.75l3.21-7.24s1.98-8.27-4.97-13.26Z"/><path class="cls-14" d="M451.38,253.13c1.1-5.85,4.82-11.03,9.42-15.1,2.64,5.36,4.9,11.07,4.84,16.98-.04,3.29-7.39,14.22-7.39,14.22,0,0-7.58-12.33-6.87-16.1Z"/><path class="cls-14" d="M383.76,331.99c-3.83-4.73-5.36-10.81-5.42-16.75,5.99,1.81,11.99,4.12,16.56,8.18,2.55,2.26,6.11,14.74,6.11,14.74,0,0-14.79-3.13-17.25-6.17Z"/><path class="cls-14" d="M407.27,418.3c-6.32.18-12.48-2.19-17.66-5.59,5.05-3.52,10.54-6.76,16.71-7.9,3.44-.64,16.32,3.9,16.32,3.9,0,0-11.31,9.48-15.38,9.6Z"/><path class="cls-14" d="M439.88,390.82c-5.27-3.28-8.86-8.54-11-14.13,6.29-.14,12.76.18,18.51,2.58,3.2,1.34,10.95,12.02,10.95,12.02,0,0-15.06,1.63-18.46-.48Z"/><path class="cls-7" d="M463.32,411.6c-13.52.76-22.53,4.48-22.53,4.48,0,0,13.64,8.84,16.27,9.47,1.27.31,2.58.51,3.9.64,2.69-4.45,4.91-9.23,6.76-14.21-1.32-.32-2.78-.48-4.41-.39Z"/><path class="cls-14" d="M472.62,303.7c-4.06-.78-8.3-.91-12.46-.81,2.15,5.58,5.73,10.85,11,14.13.23.14.51.27.84.37-.19-1.05-.31-1.62-.31-1.62l.92-12.08Z"/></svg>