<?xml version="1.0" encoding="UTF-8"?><svg id="_레이어_1" xmlns="http://www.w3.org/2000/svg" viewBox="0 0 500 500"><defs><style>.cls-1{fill:#959d96;}.cls-2{fill:#6b665c;}.cls-3{fill:#e9d965;}.cls-4{fill:#fff;}.cls-5{fill:#947a33;}.cls-6{fill:#e0a386;}.cls-7{fill:#b9a533;}.cls-8{fill:none;}.cls-9{fill:#f5eb9e;}.cls-10{fill:#707a70;}.cls-11{fill:#e0d03b;}.cls-12{fill:#af862c;}.cls-13{fill:#c5a12d;}.cls-14{fill:#c0a932;}.cls-15{fill:#dbbb65;}</style></defs><rect class="cls-8" width="500" height="500"/><path class="cls-5" d="M256.97,73.78c-8.93,26.47-21.31,54.21-15.07,81.73,1.51,6.63,2.55,21.04,2.55,21.04l-9.65,13.11s.56,7.68,6.23,9.05c9.48,2.3,30.94,2.45,30.94,2.45l138.23,4.48s36.47-12.12,54.17-18.72c10.73-4.01,21.35-3.5,30.63-8.83-.2-1-.57-3.43-12.67-20.48-1.81-2.54-2.79-18.23-3.63-21.43-1.21-4.63-5.06-17.16-5.06-17.16l-4.03-11.43s-2.35-14.82-4.65-22.03c-1.24-3.88-2.42-7.64-3.81-11.58-1.14-3.25-4.1-7.14-4.21-10.45-3.41,3.12-2.82,7.81-5.36,11.19-1.14,1.51-2.98,2.72-4.19,4.2-1.44,1.76-1.89,3.45-4.02,4.9-3.93,2.66-8.68,3.91-13.84,4.56-3.06.39-6.05.3-9.07.59-1.68.16-5.73.15-6.87.99l-156.61-16.17Z"/><path class="cls-7" d="M362.73,120.53c13.41-.94,40.14-3.28,40.14-3.28l27.26-5.09s18.1-13.94,22.8-21.88c5.75-9.71,11.92-19.75,12.27-30.07.38-11.3-6.52-22.61-17.51-32.03-13.16-11.28-54.29-21.53-54.29-21.53,0,0-55.27-2.74-80.91,2.44-16.69,3.37-34.53,9.42-47.8,17.29-15.75,9.33-18.48,34.17-18.48,34.17,0,0,8.17,12.74,13.9,18.86,7,7.48,15.24,14.66,23.29,21.4,10.75,9,24.92,20.65,46.32,21.37,3.41.12,6.84-.02,10.24-.15l22.76-1.49Z"/><path class="cls-4" d="M339.3,94.76c-5.19-4.45-10.61-8.78-18.23-12.01-7.69-3.26-16.67-5.12-25.27-7.44-7.3-1.97-14.77-4.53-17.31-9.15-2.82-5.13,4.16-15.59,4.16-15.59,0,0,17.63-18.5,31.69-24.5,10.37-4.42,23.09-7.38,34.82-10.43,12-3.11,39.2-1.6,39.2-1.6,0,0,35.56,13.34,40.37,20.73,6.17,9.5,7.99,19.72,7.99,19.72,0,0,3.9,9.61-.36,16.8-9.99,16.82-53.04,20.47-76.97,23.41-2.91.36-5.81.77-8.7,1.19l-11.38-1.14Z"/><path class="cls-9" d="M297.2,51.24c.86-.07,1.47-.19,1.99-.59.39-.3.69-.59-.16-.72-.53-.08-1.05-.01-1.46.19-.34.17-1.06.63-.59.87l.23.25Z"/><path class="cls-9" d="M316.25,55.56c-1.3-.03-2.49.29-3.16.92-.36.34-1.01,1.29-.22,1.57,1.01.36,3.48-1.3,3.43-1.9.2-.05.4-.06.61-.03l-.66-.56Z"/><path class="cls-11" d="M341.89,51.07c.57.66,1.63,1.1,2.93,1.14.7.02,2.49-.1,2.55-.63.08-.67-3.68-1.12-4.59-.81-.17-.07-.28-.17-.33-.29l-.56.6Z"/><path class="cls-9" d="M369.04,68.73c-1.3-.03-2.49.29-3.16.92-.36.34-1.01,1.29-.22,1.57,1.01.36,3.48-1.3,3.43-1.9.2-.05.4-.06.61-.03l-.66-.56Z"/><path class="cls-9" d="M394.69,64.24c.57.66,1.63,1.1,2.93,1.14.7.02,2.49-.1,2.55-.63.08-.67-3.68-1.12-4.59-.81-.17-.07-.28-.17-.33-.29l-.56.6Z"/><path class="cls-9" d="M342.65,51.74c-1.3-.03-2.49.29-3.16.92-.36.34-1.01,1.29-.23,1.57,1.01.36,3.48-1.3,3.43-1.9.2-.05.4-.06.61-.03l-.66-.56Z"/><path class="cls-9" d="M368.29,47.25c.57.66,1.63,1.1,2.93,1.14.7.02,2.49-.1,2.55-.63.08-.67-3.68-1.12-4.59-.81-.17-.07-.28-.17-.33-.29l-.56.6Z"/><path class="cls-11" d="M320.87,38.76c.57.66,1.63,1.1,2.93,1.14.7.02,2.49-.1,2.55-.63.08-.67-3.68-1.12-4.59-.81-.17-.07-.28-.17-.33-.29l-.56.6Z"/><path class="cls-9" d="M348.03,56.42c-1.3-.03-2.49.29-3.16.92-.36.34-1.01,1.29-.23,1.57,1.01.36,3.48-1.3,3.43-1.9.2-.05.4-.06.61-.03l-.66-.56Z"/><path class="cls-9" d="M297.74,61.24c-1.3-.03-2.49.29-3.16.92-.36.34-1.01,1.29-.22,1.57,1.01.36,3.48-1.3,3.43-1.9.2-.05.4-.06.61-.03l-.66-.56Z"/><path class="cls-11" d="M303.12,65.92c-1.3-.03-2.49.29-3.16.92-.36.34-1.01,1.29-.22,1.57,1.01.36,3.48-1.3,3.43-1.9.2-.05.4-.06.61-.03l-.66-.56Z"/><path class="cls-11" d="M369.89,75.39c-1.3-.03-2.49.29-3.16.92-.36.34-1.01,1.29-.22,1.57,1.01.36,3.48-1.3,3.43-1.9.2-.05.4-.06.61-.03l-.66-.56Z"/><path class="cls-9" d="M375.27,80.06c-1.3-.03-2.49.29-3.16.92-.36.34-1.01,1.29-.22,1.57,1.01.36,3.48-1.3,3.43-1.9.2-.05.4-.06.61-.03l-.66-.56Z"/><path class="cls-9" d="M321.63,39.44c-1.3-.03-2.49.29-3.16.92-.36.34-1.01,1.29-.22,1.57,1.01.36,3.48-1.3,3.43-1.9.2-.05.4-.06.61-.03l-.66-.56Z"/><path class="cls-11" d="M347.28,34.95c.57.66,1.63,1.1,2.93,1.14.7.02,2.49-.1,2.55-.63.08-.67-3.68-1.12-4.59-.81-.17-.07-.28-.17-.33-.29l-.56.6Z"/><path class="cls-11" d="M363.47,35.36c.57.66,1.63,1.1,2.93,1.14.7.02,2.49-.1,2.55-.63.08-.67-3.68-1.12-4.59-.81-.17-.07-.28-.17-.33-.29l-.56.6Z"/><path class="cls-11" d="M390.62,53.01c-1.3-.03-2.49.29-3.16.92-.36.34-1.01,1.29-.23,1.57,1.01.36,3.48-1.3,3.43-1.9.2-.05.4-.06.61-.03l-.66-.56Z"/><path class="cls-9" d="M364.22,36.03c-1.3-.03-2.49.29-3.16.92-.36.34-1.01,1.29-.22,1.57,1.01.36,3.48-1.3,3.43-1.9.2-.05.4-.06.61-.03l-.66-.56Z"/><path class="cls-11" d="M389.61,36.53c1.21.27,2.52.19,3.52-.28.54-.25,1.71-1.03,1.13-1.44-.74-.53-4.05.58-4.35,1.15-.21.01-.41-.02-.59-.09l.3.65Z"/><path class="cls-9" d="M373.22,29.8c-.99.47-1.49,1.17-1.23,1.89.14.39.79,1.34,1.71,1.24,1.17-.12,1.02-2.29.26-2.71.09-.11.23-.2.42-.25l-1.16-.16Z"/><path class="cls-11" d="M322.59,50.81c1.21.27,2.52.19,3.52-.28.54-.25,1.71-1.03,1.13-1.44-.74-.53-4.05.58-4.35,1.15-.22,0-.41-.02-.6-.09l.3.65Z"/><path class="cls-9" d="M306.2,44.08c-.99.47-1.49,1.16-1.23,1.89.14.39.79,1.34,1.71,1.24,1.17-.12,1.02-2.29.26-2.71.09-.11.23-.2.42-.25l-1.16-.16Z"/><path class="cls-11" d="M398.37,80.8c.57.66,1.63,1.1,2.93,1.14.7.02,2.49-.1,2.55-.63.08-.67-3.68-1.12-4.59-.81-.17-.07-.28-.17-.33-.29l-.56.6Z"/><path class="cls-9" d="M394.3,69.58c-1.3-.03-2.49.29-3.16.92-.36.34-1.01,1.29-.23,1.57,1.01.36,3.48-1.3,3.43-1.9.2-.05.4-.06.61-.03l-.66-.56Z"/><path class="cls-9" d="M326.27,67.38c1.21.27,2.52.19,3.52-.28.54-.25,1.71-1.03,1.13-1.44-.74-.53-4.05.58-4.35,1.15-.21.01-.41-.02-.59-.09l.3.65Z"/><path class="cls-9" d="M309.88,60.65c-.99.47-1.49,1.17-1.23,1.89.14.39.79,1.34,1.71,1.24,1.17-.12,1.02-2.29.26-2.71.09-.11.23-.2.42-.25l-1.16-.16Z"/><path class="cls-9" d="M372.49,19.62c-1.3-.03-2.49.29-3.16.92-.36.34-1.01,1.29-.23,1.57,1.01.36,3.48-1.3,3.43-1.9.2-.05.4-.06.61-.03l-.66-.56Z"/><path class="cls-11" d="M377.87,24.3c-1.3-.03-2.49.29-3.16.92-.36.34-1.01,1.29-.23,1.57,1.01.36,3.48-1.3,3.43-1.9.2-.05.4-.06.61-.03l-.66-.56Z"/><path class="cls-9" d="M384.62,19.03c-.99.47-1.49,1.16-1.23,1.89.14.39.79,1.34,1.71,1.24,1.17-.12,1.02-2.29.26-2.71.09-.11.23-.2.42-.25l-1.16-.16Z"/><path class="cls-11" d="M410.81,64.92c-1.3-.03-2.49.29-3.16.92-.36.34-1.01,1.29-.23,1.57,1.01.36,3.48-1.3,3.43-1.9.2-.05.4-.06.61-.03l-.66-.56Z"/><path class="cls-9" d="M416.19,69.6c-1.3-.03-2.49.29-3.16.92-.36.34-1.01,1.29-.22,1.57,1.01.36,3.48-1.3,3.43-1.9.2-.05.4-.06.61-.03l-.66-.56Z"/><path class="cls-9" d="M422.95,64.32c-.99.47-1.49,1.16-1.23,1.89.14.39.79,1.34,1.71,1.24,1.17-.12,1.02-2.29.26-2.71.09-.11.23-.2.42-.25l-1.16-.16Z"/><path class="cls-9" d="M389.87,31.54c.57.66,1.63,1.1,2.93,1.14.7.02,2.49-.1,2.55-.63.08-.67-3.68-1.12-4.59-.81-.17-.07-.28-.17-.33-.29l-.56.6Z"/><path class="cls-9" d="M337.05,34.66c1.21.27,2.52.19,3.52-.28.54-.25,1.71-1.03,1.13-1.44-.74-.53-4.05.58-4.35,1.15-.21.01-.41-.02-.59-.09l.3.65Z"/><path class="cls-9" d="M320.66,27.92c-.99.47-1.49,1.17-1.23,1.89.14.39.79,1.34,1.71,1.24,1.17-.12,1.02-2.29.26-2.71.09-.11.23-.2.42-.25l-1.16-.16Z"/><path class="cls-9" d="M337.31,29.67c.57.66,1.63,1.1,2.93,1.14.7.02,2.49-.1,2.55-.63.08-.67-3.68-1.12-4.59-.81-.17-.07-.28-.17-.33-.29l-.56.6Z"/><path class="cls-11" d="M381.9,63.9c1.21.27,2.52.19,3.52-.28.54-.25,1.71-1.03,1.13-1.44-.74-.53-4.05.58-4.35,1.15-.22.01-.41-.02-.6-.09l.3.65Z"/><path class="cls-11" d="M365.52,57.17c-.99.47-1.49,1.17-1.23,1.89.14.39.79,1.34,1.71,1.24,1.17-.12,1.02-2.29.26-2.71.09-.11.23-.2.42-.25l-1.16-.16Z"/><path class="cls-9" d="M382.17,58.91c.57.66,1.63,1.1,2.93,1.14.7.02,2.49-.1,2.55-.63.08-.67-3.68-1.12-4.59-.81-.17-.07-.28-.17-.33-.29l-.56.6Z"/><path class="cls-9" d="M414.99,49.05c.57.66,1.63,1.1,2.93,1.14.7.02,2.49-.1,2.55-.63.08-.67-3.68-1.12-4.59-.81-.17-.07-.28-.17-.33-.29l-.56.6Z"/><path class="cls-9" d="M402.47,43.72c.57.66,1.63,1.1,2.93,1.14.7.02,2.49-.1,2.55-.63.08-.67-3.68-1.12-4.59-.81-.17-.07-.28-.17-.33-.29l-.56.6Z"/><path class="cls-10" d="M62.5,337.29c9.74,17.16,23.51,31.43,37.12,45.5,24.64,25.47,49.7,51.27,80,68.85,24.72,14.34,52.07,22.7,79.14,30.94,22.81,6.94,69.77,11.5,69.77,11.5,0,0,42.55-9.86,61.25-18.9,22.21-10.74,58.4-40.08,58.4-40.08,0,0,27.55-35.06,27.2-60.73-.17-12.74-1.78-26.21-5.76-38.35-2.32-7.06-20.16-49.04-20.16-49.04,0,0-16.91,8.14-33.86,6.66-87.08-7.61-173.85-20.17-259.82-37.6-19.31-3.92-85.92-27.05-102.08-14.33-6.6,5.19-5.98,40.63-5.98,40.63,0,0,8,43.01,14.78,54.95Z"/><path class="cls-1" d="M47.66,281.93s35.2,62.33,64.04,82.24c28.84,19.91,61.52,32.62,93.86,45.16,16.53,6.41,49.6,19.23,49.6,19.23,0,0,77.43,28.9,114.76,17.08,17.92-5.67,48.58-28.44,48.58-28.44l42.24-56.37s-.46-57.14-15.1-81.04c-10.75-17.54-23.32-34.58-40.31-45.57-11.4-7.38-24.29-11.71-36.82-16.65-53.75-21.2-103.18-54.72-158.64-70.03-16.84-4.65-34.57-7.55-51.45-3.85-13.98,3.06-25.31,13.3-38.94,17.78-84.44,27.77-71.81,120.48-71.81,120.48Z"/><path class="cls-4" d="M117.74,325.28c28.32,38.29,112.2,79.24,112.2,79.24,0,0,27.33,5.4,32.81,3.67,9.51-3,14.28-13.91,23.91-16.53,4.28-1.17,8.75-.44,13.02.29,21.17,3.64,42.34,7.27,63.51,10.91,6.9,1.18,14.66,2.22,20.77-1.37,8.93-5.25,11.36-25.64,11.36-25.64,0,0,26.72-35.74,28.28-55.91,1.11-14.38-21.65-37.99-21.65-37.99,0,0-24.74-24.73-37.1-37.09-12.01-12.01-24.24-24.18-39.74-32.48-15.91-8.52-34.46-12.53-52.72-16.44-26.27-5.62-65.35-19.03-90.86-8.55-11.81,4.85-22.23,12.92-34.71,15.75-9.45,2.14-19.28,1.08-28.76,3.07-18.18,3.83-38.68,34.39-38.68,34.39,0,0,14.58,52.54,38.36,84.69Z"/><path class="cls-13" d="M356.28,276.74c-2.59-2.29-3.24-9.38-3.24-9.38,0,0,1.24-2.03,4.47-3.26,2.33-.88,3.56,9.14-1.72,12.71"/><path class="cls-13" d="M336.1,342.61c-1.87-1.88-3.54-6.34-3.54-6.34,0,0,.32-1.02,1.9-1.17,1.14-.11,3.68,6.25,1.38,7.46"/><path class="cls-13" d="M263.04,382.36c-1.42,3.15-8,5.87-8,5.87,0,0-2.31-.58-4.44-3.31-1.53-1.97,7.68-6.1,12.65-2.11"/><path class="cls-13" d="M316.86,319.52c-2.59-2.29-3.24-9.38-3.24-9.38,0,0,1.24-2.03,4.47-3.26,2.33-.88,3.56,9.14-1.72,12.71"/><path class="cls-13" d="M264.78,314.6c-2.59-2.29-3.24-9.38-3.24-9.38,0,0,1.24-2.03,4.47-3.26,2.33-.88,3.56,9.14-1.72,12.71"/><path class="cls-11" d="M319.74,237.79c1.06,3.29-1.99,9.72-1.99,9.72,0,0-5.94,3.92-9.35,3.33-2.46-.43-5-2.24-4.99-4.73,3.63-7.3,10.42-7.74,16.79-8.13"/><path class="cls-13" d="M381.09,358.39c-3.2,1.32-9.85-1.22-9.85-1.22,0,0-4.37-5.62-4.05-9.06.23-2.48,1.84-5.16,4.32-5.35,7.56,3.04,8.54,9.78,9.43,16.09"/><path class="cls-11" d="M266.8,348.69c-1.85,2.92-8.75,3.91-8.75,3.91,0,0,4.52-8.87,8.89-4.23"/><path class="cls-11" d="M373.94,293.35c-1.85,2.92-8.74,4.7-8.74,4.7,0,0,4.52-8.87,8.89-4.23"/><path class="cls-11" d="M258.41,275.45c-1.85,2.92-8.74,4.7-8.74,4.7,0,0,4.52-8.87,8.89-4.23"/><path class="cls-11" d="M289.51,326.44c-3.36-.8-7.27-6.75-7.27-6.75,0,0,9.85,1.4,6.88,7.05"/><path class="cls-11" d="M297.15,351.43c-2.68.07-4.39,5.21-4.39,5.21-.67,3.24-.89,5.46-.29,8.82.39,2.18,2.79,5.6,2.79,5.6,0,0,2.61,3.42,4.77,2.93,2.21-.5,2.51-3.26,3.09-5.45.59-2.19-.56-7.07-.56-7.07,0,0-2.97-10.12-5.42-10.05Z"/><path class="cls-13" d="M297.55,364.83s-.68-2.28-.56-11.41c0-.53-.06-1.24-.14-1.91-.14.02-.28.06-.41.1-.12,1.99-.29,5.23-.26,8.43.03,4.82,2.21,12.93,2.21,12.93,0,0,.11.39.3.88.24.08.47.14.71.16-1.07-3.85-1.85-9.18-1.85-9.18Z"/><path class="cls-3" d="M383.12,304.69c-.95,2.51,3.16,6.04,3.16,6.04,2.74,1.85,4.72,2.9,8.06,3.61,2.17.46,6.24-.46,6.24-.46,0,0,4.16-1.12,4.52-3.3.37-2.24-2.07-3.55-3.87-4.93-1.8-1.37-6.75-2.16-6.75-2.16,0,0-10.49-1.09-11.36,1.21Z"/><path class="cls-14" d="M395.68,309.39s-2.37-.23-10.77-3.81c-.49-.21-1.17-.41-1.82-.59-.03.14-.05.28-.06.42,1.79.87,4.73,2.25,7.71,3.44,4.47,1.79,12.8,2.85,12.8,2.85,0,0,.4.04.93.05.17-.19.31-.38.42-.6-3.97-.47-9.2-1.76-9.2-1.76Z"/><path class="cls-3" d="M308.98,278.75c-2.66-.09-5.03,3.98-5.03,3.98-1.1,2.59-1.61,4.38-1.47,7.14.09,1.79,2.01,4.7,2.01,4.7,0,0,2.11,2.93,4.31,2.65,2.25-.28,2.91-2.5,3.78-4.24.87-1.74.4-5.76.4-5.76,0,0-1.57-8.38-4-8.47Z"/><path class="cls-14" d="M307.58,289.65s-.37-1.89.98-9.29c.08-.43.11-1.01.11-1.56-.14.01-.28.03-.42.06-.39,1.6-.98,4.23-1.39,6.82-.61,3.91.45,10.61.45,10.61,0,0,.06.32.18.73.22.08.45.14.68.17-.54-3.19-.6-7.55-.6-7.55Z"/><path class="cls-15" d="M343.91,309.45c1.8-1.95.27-6.4.27-6.4-1.24-2.52-2.27-4.08-4.45-5.77-1.42-1.1-4.87-1.55-4.87-1.55,0,0-3.6-.31-4.82,1.54-1.25,1.89,0,3.84.74,5.63.75,1.8,4.11,4.06,4.11,4.06,0,0,7.38,4.28,9.02,2.49Z"/><path class="cls-12" d="M336.57,301.28s1.67.95,6.4,6.81c.27.34.7.74,1.11,1.1.08-.11.16-.23.23-.36-.96-1.34-2.56-3.5-4.26-5.51-2.56-3.01-8.34-6.59-8.34-6.59,0,0-.28-.16-.67-.34-.21.11-.4.25-.57.4,2.77,1.67,6.11,4.48,6.11,4.48Z"/><path class="cls-13" d="M218.09,363.24c-2.59-2.29-3.24-9.38-3.24-9.38,0,0,1.24-2.03,4.47-3.26,2.33-.88,3.56,9.14-1.72,12.71"/><path class="cls-15" d="M245.14,353.18c1.8-1.95.27-6.4.27-6.4-1.24-2.52-2.27-4.08-4.45-5.77-1.42-1.1-4.87-1.55-4.87-1.55,0,0-3.6-.31-4.82,1.54-1.25,1.89,0,3.84.74,5.63.75,1.8,4.11,4.06,4.11,4.06,0,0,7.38,4.28,9.02,2.49Z"/><path class="cls-12" d="M237.8,345.01s1.67.95,6.4,6.81c.27.34.7.74,1.11,1.1.08-.11.16-.23.23-.36-.96-1.34-2.56-3.5-4.26-5.51-2.56-3.01-8.34-6.59-8.34-6.59,0,0-.28-.16-.67-.34-.21.11-.4.25-.57.4,2.77,1.67,6.11,4.48,6.11,4.48Z"/><path class="cls-11" d="M379.94,384.94c-1.85,2.92-8.75,3.91-8.75,3.91,0,0,4.52-8.87,8.89-4.23"/><path class="cls-2" d="M117.64,328.08c.94,13.79,26.78,36.77,26.78,36.77,0,0,25.54,6.23,37.49,1.48,11.95-4.75,31.95-21.36,31.95-21.36,0,0,24.27-20.2,36.4-30.31,6.83-5.68,13.65-11.37,20.48-17.05,17.82-14.83,35.09-37.04,43.77-58.91,8.67-21.88-1.26-56.08-21.87-67.8-12.9-7.34-22.75,4.86-35.98,10.74-13.23,5.88-26.18,9.74-36.94,19.49-36.23,32.79-106.25,68.89-102.08,126.95Z"/><path class="cls-6" d="M277.26,158.46s-23.87-2.89-30.58-2.88c-14.9.04-63.67-69.55-74.09-89.16-2.3-4.33-9.34-14.43-11.78-18.74-5.46,1.09-40.86,26.32-66.64,44.15,3.1,3.28,79.42,82.53,88.14,97.5,8.29,14.25,18.16,48.82,32.19,43.88-4.39-1,2.01-30.04,10.44-30.22,9.49-.2,16.69,4.86,20.81,12.24,4.12,7.38,4.44,23.83,12.84,27.08,12.86-4.52,8.49-33.77.9-43.07,12.77,6.9,10.26,23.21,16.16,35.76,13.69-.6,16.88-29.08,8.94-42.47,6.16,9.29,8.62,20.37,15.59,29.27,13.07.91,4.39-32.93-5.44-44.79,9.7,7.57,8.56,19.3,18.27,26.87,9.56-29.8-35.75-45.43-35.75-45.43Z"/><path class="cls-6" d="M235.08,267.67c-12.02-15.03-17.67-15.66-34.31-25.46,12.79,5.04,25.78,10.92,34.04,8.22,8.25-2.7-22.79-33.25-40.43-35.32-11.29-1.32-38.99,2.69-38.99,2.69,0,0-10.44-6.96-31.33-27.78-16.68-16.63-44.63-57.7-61.62-74.8-20.12,25.79-41.39,53.98-57.43,80.83,23.22,17.75,63.61,55.87,88.79,72.87,7.42,5.01,16.66,17.92,18.57,19.04,0,0,5.9,12.24,9.22,18.17,11.65,20.84,37.41,32.83,61.17,28.47,2.03-8.19-21.85-24.28-27.39-27.89,5.65,3.56,31.1,18.73,45.16,12.07,3.92-6.34-2.47-12.92-10.71-19.24,7.96,4.02,16.62,5.92,28.17,7.02,10.67-11.25,5.56-14.11-2.07-20.04-7.62-5.94-20.59-19.81-20.59-19.81,0,0,22.17,17.18,39.28,23.29,6.56-5.42,5.73-15.76.47-22.33Z"/></svg>