<?xml version="1.0" encoding="UTF-8"?><svg id="_레이어_1" xmlns="http://www.w3.org/2000/svg" viewBox="0 0 500 500"><defs><style>.cls-1{fill:#d3bb48;}.cls-2{fill:#dc978c;}.cls-3{fill:#b09b2d;}.cls-4{fill:#e0a386;}.cls-5{fill:#c8b736;}.cls-6{fill:none;}.cls-7{fill:#edd74c;}.cls-8{fill:#e0d03b;}.cls-9{fill:#c5a12d;}.cls-10{fill:#e2ba28;}</style></defs><rect class="cls-6" width="500" height="500"/><path class="cls-2" d="M214.08,274.12c12.36,9.35,38.11,45.64,64.68,49.43,26.57,3.79,37.38-20.68,37.38-20.68l13.4-46.62-66.06-4.12-49.4,21.99Z"/><path class="cls-3" d="M334.67,241.74c-15.8,12.18-26.46,30-36.66,46.96-12.79,21.25-23.87,43.52-33.54,66.39-18.72,44.3-41.28,120.83-41.28,120.83l5.52,1.07s21.49-72.87,39.19-115.55c8.45-20.39,18.01-40.32,28.88-59.5,11.09-19.57,22.99-41.57,41.01-55.46,2.89-2.23-.23-6.96-3.13-4.73h0Z"/><path class="cls-8" d="M339.45,234.56s-.17-5.24.14-7.84c-2.58,1.12-7.19,4.35-7.19,4.35,0,0-3.75,4.98-3.22,8.46.5,3.28,3.22,5.42,6.49,4.09,3.57-1.46,3.78-9.07,3.78-9.07Z"/><path class="cls-8" d="M337.62,231.55c6.16-13.82,27.6-30.72,27.6-30.72l2.84-3.03s-25.44,18.94-31.7,33c-.39.87.87,1.63,1.26.75h0Z"/><path class="cls-8" d="M350.49,228.63s-.17-5.24.14-7.84c-2.58,1.12-7.19,4.35-7.19,4.35,0,0-3.75,4.98-3.22,8.46.5,3.28,3.22,5.42,6.49,4.09,3.57-1.46,3.78-9.07,3.78-9.07Z"/><path class="cls-8" d="M348.66,225.62c6.16-13.82,27.6-30.72,27.6-30.72l2.84-3.03s-25.44,18.94-31.7,33c-.39.87.87,1.63,1.26.75h0Z"/><path class="cls-8" d="M364.05,220.51s-.17-5.24.14-7.84c-2.58,1.12-7.19,4.35-7.19,4.35,0,0-3.75,4.98-3.22,8.46.5,3.28,3.22,5.42,6.49,4.09,3.57-1.46,3.78-9.07,3.78-9.07Z"/><path class="cls-8" d="M362.22,217.5c6.16-13.82,27.6-30.72,27.6-30.72l2.84-3.03s-25.44,18.94-31.7,33c-.39.87.87,1.63,1.26.75h0Z"/><path class="cls-8" d="M377.32,212.47s-.17-5.24.14-7.84c-2.58,1.12-7.19,4.35-7.19,4.35,0,0-3.75,4.98-3.22,8.46.5,3.28,3.22,5.42,6.49,4.09,3.57-1.46,3.78-9.07,3.78-9.07Z"/><path class="cls-8" d="M375.49,209.46c6.16-13.82,27.6-30.72,27.6-30.72l2.84-3.03s-25.44,18.94-31.7,33c-.39.87.87,1.63,1.26.75h0Z"/><path class="cls-8" d="M389.56,207.75s-.17-5.24.14-7.84c-2.58,1.12-7.19,4.35-7.19,4.35,0,0-3.75,4.98-3.22,8.46.5,3.28,3.22,5.42,6.49,4.09,3.57-1.46,3.78-9.07,3.78-9.07Z"/><path class="cls-8" d="M387.74,204.74c6.16-13.82,27.6-30.72,27.6-30.72l2.84-3.03s-25.44,18.94-31.7,33c-.39.87.87,1.63,1.26.75h0Z"/><path class="cls-8" d="M400.77,204.6s.99-4.94,1.85-7.3c-2.64.48-7.63,2.47-7.63,2.47,0,0-4.57,3.82-4.84,7.19-.25,3.18,1.81,5.79,5.13,5.27,3.64-.57,5.49-7.63,5.49-7.63Z"/><path class="cls-8" d="M399.72,201.38c8.74-11.56,32.34-22.59,32.34-22.59l3.3-2.21s-27.76,12.06-36.64,23.81c-.55.72.45,1.72,1.01.98h0Z"/><path class="cls-8" d="M412.1,203.86s1.51-4.57,2.59-6.71c-2.56.14-7.51,1.45-7.51,1.45,0,0-4.77,3.09-5.41,6.26-.61,2.99,1.04,5.71,4.24,5.6,3.51-.11,6.08-6.6,6.08-6.6Z"/><path class="cls-8" d="M411.49,200.68c9.61-9.94,33.22-17.63,33.22-17.63l3.38-1.7s-27.66,8.17-37.43,18.28c-.6.62.23,1.68.84,1.05h0Z"/><path class="cls-8" d="M350.56,242.4s3.48,3.85,5.49,5.48c-2.61,1.06-8.11,2.07-8.11,2.07,0,0-6.09-.84-8.11-3.71-1.9-2.69-1.44-6.17,1.8-7.57,3.54-1.53,8.92,3.73,8.92,3.73Z"/><path class="cls-8" d="M351.33,245.85c13.88,5.41,40.75,2.03,40.75,2.03l4.11.12s-31.12,4.8-45.24-.7c-.87-.34-.5-1.78.38-1.44h0Z"/><path class="cls-8" d="M361.72,236.75s3.48,3.85,5.49,5.48c-2.61,1.06-8.11,2.07-8.11,2.07,0,0-6.09-.84-8.11-3.71-1.9-2.69-1.44-6.17,1.8-7.57,3.54-1.53,8.92,3.73,8.92,3.73Z"/><path class="cls-8" d="M362.49,240.2c13.88,5.41,40.75,2.03,40.75,2.03l4.11.12s-31.12,4.8-45.24-.7c-.87-.34-.5-1.78.38-1.44h0Z"/><path class="cls-8" d="M374.96,229.63s3.48,3.85,5.49,5.48c-2.61,1.06-8.11,2.07-8.11,2.07,0,0-6.09-.84-8.11-3.71-1.9-2.69-1.44-6.17,1.8-7.57,3.54-1.53,8.92,3.73,8.92,3.73Z"/><path class="cls-8" d="M375.72,233.09c13.88,5.41,40.75,2.03,40.75,2.03l4.11.12s-31.12,4.8-45.24-.7c-.87-.34-.5-1.78.38-1.44h0Z"/><path class="cls-8" d="M386.36,223.69s3.48,3.85,5.49,5.48c-2.61,1.06-8.11,2.07-8.11,2.07,0,0-6.09-.84-8.11-3.71-1.9-2.69-1.44-6.17,1.8-7.57,3.54-1.53,8.92,3.73,8.92,3.73Z"/><path class="cls-8" d="M387.13,227.15c13.88,5.41,40.75,2.03,40.75,2.03l4.11.12s-31.12,4.8-45.24-.7c-.87-.34-.5-1.78.38-1.44h0Z"/><path class="cls-8" d="M398.24,219.19s3.48,3.85,5.49,5.48c-2.61,1.06-8.11,2.07-8.11,2.07,0,0-6.09-.84-8.11-3.71-1.9-2.69-1.44-6.17,1.8-7.57,3.54-1.53,8.92,3.73,8.92,3.73Z"/><path class="cls-8" d="M399.01,222.64c13.88,5.41,40.75,2.03,40.75,2.03l4.11.12s-31.12,4.8-45.24-.7c-.87-.34-.5-1.78.38-1.44h0Z"/><path class="cls-8" d="M409.5,215.48s3.22,3.79,5.1,5.4c-2.53.93-7.82,1.74-7.82,1.74,0,0-5.8-.99-7.65-3.78-1.74-2.63-1.2-5.95,1.94-7.2,3.43-1.36,8.42,3.83,8.42,3.83Z"/><path class="cls-8" d="M410.13,218.82c13.12,5.59,38.92,3.13,38.92,3.13l3.92.23s-29.9,3.68-43.24-2c-.82-.35-.43-1.72.4-1.37h0Z"/><path class="cls-8" d="M422.09,214.12s3.31,2.94,5.17,4.13c-2.12,1.14-6.7,2.5-6.7,2.5,0,0-5.25-.15-7.23-2.39-1.86-2.11-1.78-5.1.84-6.58,2.87-1.62,7.92,2.34,7.92,2.34Z"/><path class="cls-8" d="M423.06,216.98c12.29,3.3,34.82-2.05,34.82-2.05l3.5-.28s-26.01,6.94-38.51,3.58c-.77-.21-.59-1.47.19-1.26h0Z"/><path class="cls-7" d="M311.24,236.2c9.63-18.62,31.62-50.04,31.62-50.04,0,0,34.97-42.43,54.37-59.07-22.49,26.03-63.1,86.09-63.1,86.09,0,0-20.69,38.54-29.9,60.2-28.38,66.75-90.6,204.64-90.6,204.64l-8.98-6.55s11.55-22.11,16.44-34.78c12.5-32.37,25.79-64.35,39.86-95.91,15.8-35.44,32.58-70.32,50.29-104.59Z"/><path class="cls-1" d="M212.28,479.29s6.82-35.54,8.1-40.03c3.39-11.9,6.85-23.62,10.29-35.57,8.65-29.98,26.12-87.56,26.12-87.56,0,0,21.64-71.73,31.83-103.52,4.46-13.92,9.36-27.66,13.8-41.53,4.45-13.9,14.53-41.48,14.53-41.48,0,0,11.93-32.71,17.95-49.24,2.1-5.75,10.83-27.3,10.83-27.3l-11.55,42s-5.59,21.18-9.32,33.12c-5.38,17.22-12.17,39.86-12.17,39.86,0,0-9.07,30.65-12.97,42.78-7.96,24.78-17.54,57.26-17.54,57.26,0,0-8.46,29.99-12.5,43.69-3.87,13.15-12.03,39.39-12.03,39.39,0,0-8.75,32.38-13.55,48.5-2.9,9.74-5.55,19.63-8.18,29.36-.86,3.17-16.1,57.97-15.82,57.38l-7.83-7.11Z"/><path class="cls-10" d="M316.91,242.04c4.02-6.81,29.44-26.56,29.82-26.21-.01-.01,5.77-4.42,10.04-6.74,9.21-5.39,27.44-14.11,27.54-13.98,9.91-3.59,20.15-6.64,30.68-9.09.01-.02-5.66-3.6-5.33-3.1-4.75-1.28-18.99,2.17-31.28,6.98-12.41,4.64-22.88,10.65-22.89,10.59-.03-.04-9.95,5.14-13.74,8.22-4.93,3.34-25.1,19.84-24.84,20.04.03-.07-12.76,14.51-23.05,30.34-10.71,15.69-18.9,32.63-19.38,33.97-2.42,6.35-6.16,19.74-8.48,31.42-2.45,11.7-3.47,21.69-3.52,21.68-1.44,25.31-7.31,66.06-2.86,88.99-.37.21,3.34,36.99,3.34,36.99l5.15-3.17-2.82-48.46s-.93-24.39,1.46-51.8c1.82-20.9,5.91-38.12,5.73-38.01.05.02,2.07-10.25,5.69-21.59,3.47-11.33,8.54-23.73,11.25-27.86,9.07-14.13,16.72-24.92,27.49-39.21Z"/><path class="cls-5" d="M341.69,146.62c-31.89,107.67-90.7,343.97-90.7,343.97l-6.66-1.86s58.81-236.29,90.7-343.97c1.28-4.32,7.95-2.48,6.66,1.86h0Z"/><path class="cls-3" d="M310.75,155.94c-2.25,102.95-54.12,302.64-54.12,302.64l-5.51-2s51.54-198.64,53.78-301.08c.08-3.83,5.94-3.37,5.85.44h0Z"/><path class="cls-3" d="M275.18,175.76c7.28,16.29,8.12,34.83,8.97,52.51,1.06,22.15.35,44.38-1.73,66.48-4.03,42.81-44.11,200.25-44.11,200.25l-4.8-1.5s39.36-154.1,43.51-195.21c1.99-19.63,2.91-39.38,2.48-59.09-.44-20.11-.49-42.47-8.79-61.05-1.33-2.97,3.14-5.38,4.47-2.39h0Z"/><path class="cls-8" d="M343.29,143.08s5.57.3,8.35.02c-1.24,2.79-4.75,7.73-4.75,7.73,0,0-5.35,3.97-9.05,3.32-3.48-.62-5.72-3.63-4.25-7.15,1.61-3.86,9.71-3.91,9.71-3.91Z"/><path class="cls-8" d="M346.47,145.13c14.81-6.4,33.12-29.36,33.12-29.36l3.27-3.02s-20.56,27.26-35.61,33.77c-.93.4-1.72-.98-.78-1.39h0Z"/><path class="cls-8" d="M349.78,131.19s5.57.3,8.35.02c-1.24,2.79-4.75,7.73-4.75,7.73,0,0-5.35,3.97-9.05,3.32-3.48-.62-5.72-3.63-4.25-7.15,1.61-3.86,9.71-3.91,9.71-3.91Z"/><path class="cls-8" d="M352.96,133.25c14.81-6.4,33.12-29.36,33.12-29.36l3.27-3.02s-20.56,27.26-35.61,33.77c-.93.4-1.72-.98-.78-1.39h0Z"/><path class="cls-8" d="M358.63,116.62s5.57.3,8.35.02c-1.24,2.79-4.75,7.73-4.75,7.73,0,0-5.35,3.97-9.05,3.32-3.48-.62-5.72-3.63-4.25-7.15,1.61-3.86,9.71-3.91,9.71-3.91Z"/><path class="cls-8" d="M361.81,118.68c14.81-6.4,33.12-29.36,33.12-29.36l3.27-3.02s-20.56,27.26-35.61,33.77c-.93.4-1.72-.98-.78-1.39h0Z"/><path class="cls-8" d="M367.4,102.36s5.57.3,8.35.02c-1.24,2.79-4.75,7.73-4.75,7.73,0,0-5.35,3.97-9.05,3.32-3.48-.62-5.72-3.63-4.25-7.15,1.61-3.86,9.71-3.91,9.71-3.91Z"/><path class="cls-8" d="M370.57,104.42c14.81-6.4,33.12-29.36,33.12-29.36l3.27-3.02s-20.56,27.26-35.61,33.77c-.93.4-1.72-.98-.78-1.39h0Z"/><path class="cls-8" d="M372.61,89.14s5.57.3,8.35.02c-1.24,2.79-4.75,7.73-4.75,7.73,0,0-5.35,3.97-9.05,3.32-3.48-.62-5.72-3.63-4.25-7.15,1.61-3.86,9.71-3.91,9.71-3.91Z"/><path class="cls-8" d="M375.79,91.2c14.81-6.4,33.12-29.36,33.12-29.36l3.27-3.02s-20.56,27.26-35.61,33.77c-.93.4-1.72-.98-.78-1.39h0Z"/><path class="cls-8" d="M376.15,77.02s5.27-.97,7.8-1.85c-.55,2.87-2.75,8.25-2.75,8.25,0,0-4.14,4.89-7.73,5.11-3.39.2-6.13-2.1-5.52-5.7.66-3.94,8.21-5.81,8.21-5.81Z"/><path class="cls-8" d="M379.56,78.22c12.43-9.25,24.55-34.69,24.55-34.69l2.4-3.54s-13.27,29.94-25.91,39.34c-.78.58-1.82-.53-1.03-1.12h0Z"/><path class="cls-8" d="M377.11,64.7s4.89-1.54,7.18-2.67c-.19,2.78-1.66,8.14-1.66,8.14,0,0-3.36,5.12-6.75,5.75-3.19.6-6.06-1.26-5.9-4.74.17-3.81,7.12-6.47,7.12-6.47Z"/><path class="cls-8" d="M380.48,65.44c10.73-10.24,19.28-35.76,19.28-35.76l1.87-3.64s-9.13,29.92-20.04,40.33c-.67.64-1.79-.29-1.11-.93h0Z"/><path class="cls-8" d="M335.13,130.81s-4.04-3.87-5.74-6.1c-1.17,2.82-2.33,8.78-2.33,8.78,0,0,.8,6.65,3.82,8.9,2.84,2.13,6.55,1.7,8.09-1.8,1.68-3.82-3.83-9.79-3.83-9.79Z"/><path class="cls-8" d="M331.47,129.9c-5.54-15.23-1.52-44.39-1.52-44.39l-.06-4.47s-5.6,33.75.04,49.24c.35.95,1.89.59,1.54-.38h0Z"/><path class="cls-8" d="M341.32,118.8s-4.04-3.87-5.74-6.1c-1.17,2.82-2.33,8.78-2.33,8.78,0,0,.8,6.65,3.82,8.9,2.84,2.13,6.55,1.7,8.09-1.8,1.68-3.82-3.83-9.79-3.83-9.79Z"/><path class="cls-8" d="M337.65,117.89c-5.54-15.23-1.52-44.39-1.52-44.39l-.06-4.47s-5.6,33.75.04,49.24c.35.95,1.89.59,1.54-.38h0Z"/><path class="cls-8" d="M349.1,104.55s-4.04-3.87-5.74-6.1c-1.17,2.82-2.33,8.78-2.33,8.78,0,0,.8,6.65,3.82,8.9,2.84,2.13,6.55,1.7,8.09-1.8,1.68-3.82-3.83-9.79-3.83-9.79Z"/><path class="cls-8" d="M345.43,103.64c-5.54-15.23-1.52-44.39-1.52-44.39l-.06-4.47s-5.6,33.75.04,49.24c.35.95,1.89.59,1.54-.38h0Z"/><path class="cls-8" d="M355.6,92.27s-4.04-3.87-5.74-6.1c-1.17,2.82-2.33,8.78-2.33,8.78,0,0,.8,6.65,3.82,8.9,2.84,2.13,6.55,1.7,8.09-1.8,1.68-3.82-3.83-9.79-3.83-9.79Z"/><path class="cls-8" d="M351.93,91.36c-5.54-15.23-1.52-44.39-1.52-44.39l-.06-4.47s-5.6,33.75.04,49.24c.35.95,1.89.59,1.54-.38h0Z"/><path class="cls-8" d="M360.58,79.44s-4.04-3.87-5.74-6.1c-1.17,2.82-2.33,8.78-2.33,8.78,0,0,.8,6.65,3.82,8.9,2.84,2.13,6.55,1.7,8.09-1.8,1.68-3.82-3.83-9.79-3.83-9.79Z"/><path class="cls-8" d="M356.92,78.53c-5.54-15.23-1.52-44.39-1.52-44.39l-.06-4.47s-5.6,33.75.04,49.24c.35.95,1.89.59,1.54-.38h0Z"/><path class="cls-8" d="M364.7,67.28s-3.98-3.59-5.67-5.66c-1.03,2.73-1.98,8.47-1.98,8.47,0,0,.96,6.33,3.91,8.4,2.78,1.95,6.32,1.43,7.69-1.96,1.5-3.71-3.95-9.25-3.95-9.25Z"/><path class="cls-8" d="M361.16,66.51c-5.74-14.4-2.72-42.42-2.72-42.42l-.19-4.27s-4.39,32.45,1.44,47.1c.36.9,1.83.5,1.46-.41h0Z"/><path class="cls-8" d="M366.35,53.6s-3.08-3.67-4.32-5.71c-1.24,2.28-2.77,7.24-2.77,7.24,0,0,.08,5.72,2.43,7.92,2.21,2.07,5.4,2.05,7.02-.77,1.77-3.09-2.36-8.67-2.36-8.67Z"/><path class="cls-8" d="M363.32,52.49c-3.32-13.45,2.73-37.84,2.73-37.84l.35-3.8s-7.79,28.15-4.42,41.82c.21.84,1.55.67,1.34-.18h0Z"/><path class="cls-8" d="M374.22,52.06s3.8-3.49,5.41-5.5c.99,2.59,1.9,8.05,1.9,8.05,0,0-.91,6.06-3.72,8.09-2.65,1.91-6.03,1.47-7.34-1.74-1.44-3.51,3.76-8.9,3.76-8.9Z"/><path class="cls-8" d="M377.6,51.27c5.47-13.85,2.56-40.55,2.56-40.55l.17-4.08s4.22,30.92-1.34,45c-.34.87-1.74.51-1.4-.37h0Z"/><path class="cls-8" d="M278.19,169.26s4.12-3.85,5.87-6.07c1.11,2.82,2.15,8.79,2.15,8.79,0,0-.94,6.64-4,8.88-2.88,2.11-6.58,1.66-8.05-1.84-1.6-3.83,4.04-9.77,4.04-9.77Z"/><path class="cls-8" d="M281.87,168.37c5.86-15.2,2.45-44.38,2.45-44.38l.16-4.47s4.89,33.78-1.07,49.24c-.37.95-1.9.58-1.53-.39h0Z"/><path class="cls-8" d="M274.32,156.33s4.12-3.85,5.87-6.07c1.11,2.82,2.15,8.79,2.15,8.79,0,0-.94,6.64-4,8.88-2.88,2.11-6.58,1.66-8.05-1.84-1.6-3.83,4.04-9.77,4.04-9.77Z"/><path class="cls-8" d="M278.01,155.44c5.86-15.2,2.45-44.38,2.45-44.38l.16-4.47s4.89,33.78-1.07,49.24c-.37.95-1.9.58-1.53-.39h0Z"/><path class="cls-8" d="M270.21,139.83s4.12-3.85,5.87-6.07c1.11,2.82,2.15,8.79,2.15,8.79,0,0-.94,6.64-4,8.88-2.88,2.11-6.58,1.66-8.05-1.84-1.6-3.83,4.04-9.77,4.04-9.77Z"/><path class="cls-8" d="M273.9,138.94c5.86-15.2,2.45-44.38,2.45-44.38l.16-4.47s4.89,33.78-1.07,49.24c-.37.95-1.9.58-1.53-.39h0Z"/><path class="cls-8" d="M266.26,123.61s4.12-3.85,5.87-6.07c1.11,2.82,2.15,8.79,2.15,8.79,0,0-.94,6.64-4,8.88-2.88,2.11-6.58,1.66-8.05-1.84-1.6-3.83,4.04-9.77,4.04-9.77Z"/><path class="cls-8" d="M269.95,122.72c5.86-15.2,2.45-44.38,2.45-44.38l.16-4.47s4.89,33.78-1.07,49.24c-.37.95-1.9.58-1.53-.39h0Z"/><path class="cls-8" d="M260.56,110.69s4.12-3.85,5.87-6.07c1.11,2.82,2.15,8.79,2.15,8.79,0,0-.94,6.64-4,8.88-2.88,2.11-6.58,1.66-8.05-1.84-1.6-3.83,4.04-9.77,4.04-9.77Z"/><path class="cls-8" d="M264.24,109.79c5.86-15.2,2.45-44.38,2.45-44.38l.16-4.47s4.89,33.78-1.07,49.24c-.37.95-1.9.58-1.53-.39h0Z"/><path class="cls-8" d="M254.45,99.75s3.01-4.5,4.16-6.95c1.64,2.38,3.91,7.7,3.91,7.7,0,0,.56,6.38-1.81,9.15-2.23,2.61-5.78,3.02-7.91.09-2.33-3.2,1.65-9.99,1.65-9.99Z"/><path class="cls-8" d="M257.7,98.1c2.17-15.44-7.35-41.81-7.35-41.81l-.83-4.19s11.89,30.32,9.69,46.02c-.14.97-1.65.96-1.51-.02h0Z"/><path class="cls-8" d="M246.4,90.55s2.34-4.62,3.15-7.08c1.84,2.06,4.6,6.82,4.6,6.82,0,0,1.27,5.98-.66,8.88-1.82,2.73-5.14,3.54-7.5,1.02-2.58-2.76.41-9.65.41-9.65Z"/><path class="cls-8" d="M249.29,88.6c.28-14.88-11.8-38.72-11.8-38.72l-1.27-3.87s14.79,27.3,14.51,42.42c-.02.93-1.46,1.1-1.44.16h0Z"/><path class="cls-8" d="M263.78,166.74s-5.58.27-8.35-.03c1.18,2.79,4.58,7.75,4.58,7.75,0,0,5.27,4,8.98,3.36,3.5-.6,5.8-3.6,4.4-7.13-1.53-3.86-9.62-3.96-9.62-3.96Z"/><path class="cls-8" d="M260.56,168.78c-14.67-6.47-32.51-29.52-32.51-29.52l-3.21-3.04s19.98,27.37,34.9,33.95c.92.41,1.74-.97.81-1.38h0Z"/><path class="cls-8" d="M259.61,153.94s-5.58.27-8.35-.03c1.18,2.79,4.58,7.75,4.58,7.75,0,0,5.27,4,8.98,3.36,3.5-.6,5.8-3.6,4.4-7.13-1.53-3.86-9.62-3.96-9.62-3.96Z"/><path class="cls-8" d="M256.39,155.98c-14.67-6.47-32.51-29.52-32.51-29.52l-3.21-3.04s19.98,27.37,34.9,33.95c.92.41,1.74-.97.81-1.38h0Z"/><path class="cls-8" d="M254.97,138.45s-5.58.27-8.35-.03c1.18,2.79,4.58,7.75,4.58,7.75,0,0,5.27,4,8.98,3.36,3.5-.6,5.8-3.6,4.4-7.13-1.53-3.86-9.62-3.96-9.62-3.96Z"/><path class="cls-8" d="M251.76,140.49c-14.67-6.47-32.51-29.52-32.51-29.52l-3.21-3.04s19.98,27.37,34.9,33.95c.92.41,1.74-.97.81-1.38h0Z"/><path class="cls-8" d="M250.84,125.24s-5.58.27-8.35-.03c1.18,2.79,4.58,7.75,4.58,7.75,0,0,5.27,4,8.98,3.36,3.5-.6,5.8-3.6,4.4-7.13-1.53-3.86-9.62-3.96-9.62-3.96Z"/><path class="cls-8" d="M247.62,127.28c-14.67-6.47-32.51-29.52-32.51-29.52l-3.21-3.04s19.98,27.37,34.9,33.95c.92.41,1.74-.97.81-1.38h0Z"/><path class="cls-8" d="M245.24,112.76s-5.58.27-8.35-.03c1.18,2.79,4.58,7.75,4.58,7.75,0,0,5.27,4,8.98,3.36,3.5-.6,5.8-3.6,4.4-7.13-1.53-3.86-9.62-3.96-9.62-3.96Z"/><path class="cls-8" d="M242.03,114.8c-14.67-6.47-32.51-29.52-32.51-29.52l-3.21-3.04s19.98,27.37,34.9,33.95c.92.41,1.74-.97.81-1.38h0Z"/><path class="cls-8" d="M239.52,101.37s-5.33.42-7.99.22c1.21,2.64,4.61,7.28,4.61,7.28,0,0,5.16,3.67,8.69,2.95,3.33-.68,5.45-3.61,4.01-6.95-1.57-3.65-9.32-3.51-9.32-3.51Z"/><path class="cls-8" d="M236.5,103.41c-14.23-5.76-31.95-27.29-31.95-27.29l-3.16-2.81s19.91,25.59,34.38,31.45c.89.36,1.64-.98.74-1.35h0Z"/><path class="cls-8" d="M230.99,90.73s-4.76-.29-7.08-.8c.75,2.48,3.19,7.01,3.19,7.01,0,0,4.11,3.89,7.31,3.69,3.02-.18,5.24-2.52,4.38-5.65-.94-3.42-7.8-4.26-7.8-4.26Z"/><path class="cls-8" d="M228.07,92.16c-11.86-6.86-24.89-28.1-24.89-28.1l-2.45-2.88s14.47,25.1,26.53,32.08c.74.43,1.56-.66.81-1.1h0Z"/><path class="cls-8" d="M235.42,83.93s.19-5.18-.1-7.74c2.53,1.06,7.04,4.18,7.04,4.18,0,0,3.66,4.85,3.12,8.3-.51,3.25-3.19,5.41-6.39,4.15-3.5-1.38-3.67-8.88-3.67-8.88Z"/><path class="cls-8" d="M237.23,80.92c-5.97-13.54-26.93-29.85-26.93-29.85l-2.77-2.95s24.86,18.26,30.94,32.03c.37.85-.86,1.62-1.24.76h0Z"/><path class="cls-9" d="M312.27,145.23s5.3-1.82,7.78-3.13c-.13,3.04-1.59,8.94-1.59,8.94,0,0-3.53,5.69-7.22,6.48-3.47.74-6.66-1.2-6.58-5.02.08-4.17,7.61-7.28,7.61-7.28Z"/><path class="cls-9" d="M315.98,145.93c11.45-11.5,20.1-39.64,20.1-39.64l1.94-4.03s-9.16,32.97-20.8,44.66c-.72.72-1.96-.26-1.24-.99h0Z"/><path class="cls-9" d="M313.96,131.78s5.3-1.82,7.78-3.13c-.13,3.04-1.59,8.94-1.59,8.94,0,0-3.53,5.69-7.22,6.48-3.47.74-6.66-1.2-6.58-5.02.08-4.17,7.61-7.28,7.61-7.28Z"/><path class="cls-9" d="M317.67,132.49c11.45-11.5,20.1-39.64,20.1-39.64l1.94-4.03s-9.16,32.97-20.8,44.66c-.72.72-1.96-.26-1.24-.99h0Z"/><path class="cls-9" d="M316.86,114.97s5.3-1.82,7.78-3.13c-.13,3.04-1.59,8.94-1.59,8.94,0,0-3.53,5.69-7.22,6.48-3.47.74-6.66-1.2-6.58-5.02.08-4.17,7.61-7.28,7.61-7.28Z"/><path class="cls-9" d="M320.58,115.67c11.45-11.5,20.1-39.64,20.1-39.64l1.94-4.03s-9.16,32.97-20.8,44.66c-.72.72-1.96-.26-1.24-.99h0Z"/><path class="cls-9" d="M319.81,98.47s5.3-1.82,7.78-3.13c-.13,3.04-1.59,8.94-1.59,8.94,0,0-3.53,5.69-7.22,6.48-3.47.74-6.66-1.2-6.58-5.02.08-4.17,7.61-7.28,7.61-7.28Z"/><path class="cls-9" d="M323.52,99.18c11.45-11.5,20.1-39.64,20.1-39.64l1.94-4.03s-9.16,32.97-20.8,44.66c-.72.72-1.96-.26-1.24-.99h0Z"/><path class="cls-9" d="M319.82,84.26s5.3-1.82,7.78-3.13c-.13,3.04-1.59,8.94-1.59,8.94,0,0-3.53,5.69-7.22,6.48-3.47.74-6.66-1.2-6.58-5.02.08-4.17,7.61-7.28,7.61-7.28Z"/><path class="cls-9" d="M323.53,84.97c11.45-11.5,20.1-39.64,20.1-39.64l1.94-4.03s-9.16,32.97-20.8,44.66c-.72.72-1.96-.26-1.24-.99h0Z"/><path class="cls-9" d="M318.67,71.72s4.55-2.88,6.58-4.65c.54,2.86.46,8.67.46,8.67,0,0-2.06,6.08-5.33,7.64-3.08,1.46-6.48.37-7.23-3.2-.83-3.9,5.52-8.47,5.52-8.47Z"/><path class="cls-9" d="M322.29,71.55c8.19-13.25,10.16-41.35,10.16-41.35l.94-4.18s-1.39,32.7-9.72,46.17c-.51.83-1.89.2-1.37-.64h0Z"/><path class="cls-9" d="M315.05,59.96s3.99-3.27,5.71-5.18c.84,2.64,1.44,8.15,1.44,8.15,0,0-1.25,6-4.18,7.86-2.75,1.75-6.1,1.12-7.23-2.17-1.24-3.59,4.26-8.67,4.26-8.67Z"/><path class="cls-9" d="M318.47,59.37c6.24-13.51,4.86-40.36,4.86-40.36l.41-4.07s2.46,31.13-3.89,44.87c-.39.85-1.77.41-1.37-.45h0Z"/><path class="cls-9" d="M300.17,136.95s-5.18-2.06-7.58-3.48c-.05,3.04,1.05,9,1.05,9,0,0,3.18,5.85,6.82,6.8,3.42.9,6.72-.89,6.88-4.71.17-4.17-7.16-7.62-7.16-7.62Z"/><path class="cls-9" d="M296.43,137.49c-10.74-12.01-17.67-40.51-17.67-40.51l-1.69-4.11s7.15,33.35,18.07,45.55c.67.75,1.98-.17,1.29-.93h0Z"/><path class="cls-9" d="M301.54,123.5s-5.18-2.06-7.58-3.48c-.05,3.04,1.05,9,1.05,9,0,0,3.18,5.85,6.82,6.8,3.42.9,6.72-.89,6.88-4.71.17-4.17-7.16-7.62-7.16-7.62Z"/><path class="cls-9" d="M297.79,124.04c-10.74-12.01-17.67-40.51-17.67-40.51l-1.69-4.11s7.15,33.35,18.07,45.55c.67.75,1.98-.17,1.29-.93h0Z"/><path class="cls-9" d="M303.56,107.38s-5.18-2.06-7.58-3.48c-.05,3.04,1.05,9,1.05,9,0,0,3.18,5.85,6.82,6.8,3.42.9,6.72-.89,6.88-4.71.17-4.17-7.16-7.62-7.16-7.62Z"/><path class="cls-9" d="M299.81,107.92c-10.74-12.01-17.67-40.51-17.67-40.51l-1.69-4.11s7.15,33.35,18.07,45.55c.67.75,1.98-.17,1.29-.93h0Z"/><path class="cls-9" d="M305.12,93.57s-5.18-2.06-7.58-3.48c-.05,3.04,1.05,9,1.05,9,0,0,3.18,5.85,6.82,6.8,3.42.9,6.72-.89,6.88-4.71.17-4.17-7.16-7.62-7.16-7.62Z"/><path class="cls-9" d="M301.37,94.11c-10.74-12.01-17.67-40.51-17.67-40.51l-1.69-4.11s7.15,33.35,18.07,45.55c.67.75,1.98-.17,1.29-.93h0Z"/><path class="cls-9" d="M305.06,79.82s-5.18-2.06-7.58-3.48c-.05,3.04,1.05,9,1.05,9,0,0,3.18,5.85,6.82,6.8,3.42.9,6.72-.89,6.88-4.71.17-4.17-7.16-7.62-7.16-7.62Z"/><path class="cls-9" d="M301.31,80.36c-10.74-12.01-17.67-40.51-17.67-40.51l-1.69-4.11s7.15,33.35,18.07,45.55c.67.75,1.98-.17,1.29-.93h0Z"/><path class="cls-9" d="M304.44,67.01s-5.02-1.82-7.36-3.11c.04,2.91,1.26,8.58,1.26,8.58,0,0,3.21,5.5,6.72,6.31,3.3.76,6.41-1.05,6.45-4.71.04-3.99-7.07-7.08-7.07-7.08Z"/><path class="cls-9" d="M300.87,67.64c-10.62-11.17-18.07-38.23-18.07-38.23l-1.74-3.89s7.8,31.69,18.6,43.04c.67.7,1.89-.22,1.21-.93h0Z"/><path class="cls-9" d="M300.96,53.74s-4.21-2.23-6.11-3.66c-.32,2.58.07,7.74.07,7.74,0,0,2.17,5.26,5.16,6.41,2.82,1.08,5.78-.14,6.26-3.36.52-3.53-5.38-7.13-5.38-7.13Z"/><path class="cls-9" d="M297.74,53.84c-8.02-11.19-11.32-36.05-11.32-36.05l-1.07-3.65s3.05,28.99,11.21,40.37c.5.7,1.69.04,1.18-.67h0Z"/><path class="cls-9" d="M307.74,49.34s2.26-4.66,3.02-7.13c1.87,2.02,4.72,6.74,4.72,6.74,0,0,1.37,5.95-.5,8.89-1.77,2.76-5.08,3.63-7.48,1.16-2.63-2.71.24-9.65.24-9.65Z"/><path class="cls-9" d="M310.59,47.34c.02-14.88-12.47-38.49-12.47-38.49l-1.33-3.85s15.26,27.02,15.24,42.15c0,.93-1.44,1.13-1.44.19h0Z"/><path class="cls-5" d="M328.8,232.32c-32.91,84.66-122.08,242.78-122.08,242.78l-3.71-2.21s88.86-157.4,121.62-241.69c1.01-2.6,5.18-1.5,4.16,1.13h0Z"/><path class="cls-9" d="M326.78,221.24s-3.66-4.25-5.14-6.62c-1.42,2.69-3.14,8.52-3.14,8.52,0,0,.18,6.7,2.97,9.24,2.62,2.39,6.36,2.32,8.21-1.01,2.03-3.65-2.9-10.12-2.9-10.12Z"/><path class="cls-9" d="M323.22,219.98c-4.09-15.7,2.63-44.37,2.63-44.37l.36-4.46s-8.71,33.09-4.55,49.06c.26.98,1.83.76,1.57-.23h0Z"/><path class="cls-9" d="M332.1,208.78s-3.66-4.25-5.14-6.62c-1.42,2.69-3.14,8.52-3.14,8.52,0,0,.18,6.7,2.97,9.24,2.62,2.39,6.36,2.32,8.21-1.01,2.03-3.65-2.9-10.12-2.9-10.12Z"/><path class="cls-9" d="M328.53,207.52c-4.09-15.7,2.63-44.37,2.63-44.37l.36-4.46s-8.71,33.09-4.55,49.06c.26.98,1.83.76,1.57-.23h0Z"/><path class="cls-9" d="M338.06,192.79s-3.66-4.25-5.14-6.62c-1.42,2.69-3.14,8.52-3.14,8.52,0,0,.18,6.7,2.97,9.24,2.62,2.39,6.36,2.32,8.21-1.01,2.03-3.65-2.9-10.12-2.9-10.12Z"/><path class="cls-9" d="M334.5,191.53c-4.09-15.7,2.63-44.37,2.63-44.37l.36-4.46s-8.71,33.09-4.55,49.06c.26.98,1.83.76,1.57-.23h0Z"/><path class="cls-9" d="M343.84,177.06s-3.66-4.25-5.14-6.62c-1.42,2.69-3.14,8.52-3.14,8.52,0,0,.18,6.7,2.97,9.24,2.62,2.39,6.36,2.32,8.21-1.01,2.03-3.65-2.9-10.12-2.9-10.12Z"/><path class="cls-9" d="M340.28,175.8c-4.09-15.7,2.63-44.37,2.63-44.37l.36-4.46s-8.71,33.09-4.55,49.06c.26.98,1.83.76,1.57-.23h0Z"/><path class="cls-9" d="M350.99,164.79s-3.66-4.25-5.14-6.62c-1.42,2.69-3.14,8.52-3.14,8.52,0,0,.18,6.7,2.97,9.24,2.62,2.39,6.36,2.32,8.21-1.01,2.03-3.65-2.9-10.12-2.9-10.12Z"/><path class="cls-9" d="M347.43,163.53c-4.09-15.7,2.63-44.37,2.63-44.37l.36-4.46s-8.71,33.09-4.55,49.06c.26.98,1.83.76,1.57-.23h0Z"/><path class="cls-9" d="M358.31,154.53s-2.48-4.78-3.34-7.33c-1.91,2.2-4.77,7.26-4.77,7.26,0,0-1.29,6.29.75,9.28,1.92,2.82,5.41,3.58,7.86.89,2.68-2.95-.5-10.09-.5-10.09Z"/><path class="cls-9" d="M355.27,152.56c-.4-15.57,12.07-40.83,12.07-40.83l1.3-4.08s-15.28,28.95-14.88,44.78c.02.98,1.53,1.12,1.51.13h0Z"/><path class="cls-9" d="M367.36,146.2s-1.8-4.83-2.32-7.35c-2.06,1.86-5.35,6.32-5.35,6.32,0,0-1.94,5.82-.36,8.9,1.49,2.9,4.71,4.04,7.34,1.77,2.88-2.48.69-9.64.69-9.64Z"/><path class="cls-9" d="M364.71,143.97c1.42-14.82,16.15-37.3,16.15-37.3l1.7-3.72s-17.81,25.65-19.26,40.72c-.09.93,1.32,1.25,1.41.31h0Z"/><path class="cls-9" d="M341.4,220.19s5.52.83,8.3.82c-1.49,2.66-5.44,7.25-5.44,7.25,0,0-5.7,3.45-9.32,2.44-3.41-.95-5.35-4.16-3.56-7.53,1.96-3.69,10.02-2.97,10.02-2.97Z"/><path class="cls-9" d="M344.36,222.55c15.33-4.95,35.69-26.07,35.69-26.07l3.54-2.7s-22.99,25.19-38.57,30.23c-.96.31-1.62-1.14-.65-1.46h0Z"/><path class="cls-9" d="M347,207.89s5.52.83,8.3.82c-1.49,2.66-5.44,7.25-5.44,7.25,0,0-5.7,3.45-9.32,2.44-3.41-.95-5.35-4.16-3.56-7.53,1.96-3.69,10.02-2.97,10.02-2.97Z"/><path class="cls-9" d="M349.97,210.24c15.33-4.95,35.69-26.07,35.69-26.07l3.54-2.7s-22.99,25.19-38.57,30.23c-.96.31-1.62-1.14-.65-1.46h0Z"/><path class="cls-9" d="M353.37,192.95s5.52.83,8.3.82c-1.49,2.66-5.44,7.25-5.44,7.25,0,0-5.7,3.45-9.32,2.44-3.41-.95-5.35-4.16-3.56-7.53,1.96-3.69,10.02-2.97,10.02-2.97Z"/><path class="cls-9" d="M356.34,195.3c15.33-4.95,35.69-26.07,35.69-26.07l3.54-2.7s-22.99,25.19-38.57,30.23c-.96.31-1.62-1.14-.65-1.46h0Z"/><path class="cls-9" d="M358.99,180.24s5.52.83,8.3.82c-1.49,2.66-5.44,7.25-5.44,7.25,0,0-5.7,3.45-9.32,2.44-3.41-.95-5.35-4.16-3.56-7.53,1.96-3.69,10.02-2.97,10.02-2.97Z"/><path class="cls-9" d="M361.96,182.59c15.33-4.95,35.69-26.07,35.69-26.07l3.54-2.7s-22.99,25.19-38.57,30.23c-.96.31-1.62-1.14-.65-1.46h0Z"/><path class="cls-9" d="M365.98,168.39s5.52.83,8.3.82c-1.49,2.66-5.44,7.25-5.44,7.25,0,0-5.7,3.45-9.32,2.44-3.41-.95-5.35-4.16-3.56-7.53,1.96-3.69,10.02-2.97,10.02-2.97Z"/><path class="cls-9" d="M368.94,170.75c15.33-4.95,35.69-26.07,35.69-26.07l3.54-2.7s-22.99,25.19-38.57,30.23c-.96.31-1.62-1.14-.65-1.46h0Z"/><path class="cls-9" d="M372.97,157.64s5.25.96,7.92,1.03c-1.5,2.5-5.41,6.78-5.41,6.78,0,0-5.55,3.13-8.98,2.06-3.23-1.01-5-4.14-3.19-7.31,1.98-3.47,9.67-2.55,9.67-2.55Z"/><path class="cls-9" d="M375.74,159.98c14.8-4.29,34.88-23.9,34.88-23.9l3.46-2.48s-22.71,23.43-37.76,27.8c-.93.27-1.52-1.14-.58-1.41h0Z"/><path class="cls-9" d="M382.66,147.93s4.76.19,7.13-.08c-1.02,2.39-3.97,6.65-3.97,6.65,0,0-4.53,3.45-7.69,2.93-2.98-.49-4.92-3.03-3.71-6.05,1.33-3.31,8.24-3.45,8.24-3.45Z"/><path class="cls-9" d="M385.4,149.65c12.57-5.62,27.95-25.42,27.95-25.42l2.76-2.62s-17.25,23.49-30.03,29.21c-.79.35-1.48-.82-.68-1.18h0Z"/><path class="cls-9" d="M379.03,140.72s.4-5.16.98-7.68c-2.63.8-7.47,3.44-7.47,3.44,0,0-4.19,4.45-4.05,7.93.13,3.28,2.55,5.7,5.88,4.77,3.63-1.02,4.66-8.46,4.66-8.46Z"/><path class="cls-9" d="M377.58,137.55c7.48-12.86,30.18-26.96,30.18-26.96l3.09-2.65s-26.8,15.65-34.41,28.72c-.47.81.67,1.7,1.15.89h0Z"/><path class="cls-4" d="M275.05,244.04c.21-.41.46-.79.68-1.19-15.59-1.05-59.22-42.78-71.56-58.48-16.19-20.6-30.65-40.16-46.84-60.75-.56-.71-1.08-1.38-1.61-2.05-14.54,14.34-29.61,28.13-43.12,43.76-4.88,6.99-9.44,14.16-13.78,21.45,11.91,14.83,25.96,28.1,43.98,39.81,23.15,15.04,72.26,49.13,84.12,60.2,5.52,5.15,21.02-8.02,24.28-10.67-1.81-16.85,15.68-16.56,23.87-32.08Z"/><path class="cls-4" d="M286.38,351.19l-3.48,3.84c-32.24-10.62-28.12-32.26-28.12-32.26,0,0-3.64-.3-9.4,1.22-7.04,1.85-9.24,6.46-9.24,6.46,0,0-10.7-4.85-33.16-20.92-18.6-13.31-39.42-36.11-58.25-49.16-12.91-8.94-41.34-22.61-41.34-22.61,0,0-10-9.11-22-20.17-3.63,7.33-7.13,14.75-10.49,22.24-7.51,16.73-15.19,33.36-23.68,49.63-2.7,5.18-5.66,10.26-8.61,15.35,35.18,27.18,92.56,56.54,148.36,82.2,7.61,3.5,18.11,14.03,20.04,14.77,0,0,4.48,5.02,8.44,10,6.64,8.34,18.43,12.27,28.67,14.13,11.24,2.05,23.57,4.4,34.71.41.18-2.22,1.58-3.46-1.27-5.44-2.1-1.46-4.93-2.73-8-3.82,8.52,1.07,17.7.87,23.57-3.19,4.69-11.36-4.88-13.33-17.93-16.28,10.52,2.38,15.52,1.96,17.79-.78,1.92-3.57,2.93-13.67-3.52-16.01-6.45-2.33-10.12-2.1-10.12-2.1,0,0,18.73-2.7,20.44-10.98,3.57-17.29-13.43-16.56-13.43-16.56Z"/><path class="cls-4" d="M273.68,313.56c-2.9,4.27-2.35,8.53,7.13,14.64,9.48,6.11,24.63,10.97,28.93,11.74,5.59.99,6.69-2.39,6.69-2.39l1.41-5.45s9.44-.19,11.64-4.75c2.21-4.56-1.41-10.73-1.41-10.73,0,0,7.61-1.77,8.75-5.34,1.14-3.58-1.15-13.96-1.15-13.96l5.54-1.77s6.34-6.78,3.55-11.45c-2.79-4.68-11.05-10.63-11.05-10.63,0,0-24.49-9.14-26.65-4.74-1.95,3.97-3.89,6.87-.33,10.42,0,0,2.18-1.27-1.96-2.21-3.67-.83-9.15,3.51-10.76,7.6-1.72,4.36,6.8,10.78,5.73,10.54-5.75-1.25-13.34-.08-15.52,5.24-2.18,5.31,2.6,10.55,2.6,10.55,0,0-9.95-2.04-13.17,2.7Z"/><path class="cls-4" d="M257.43,247.6c10.54-2.59,33.7-9.87,37.34-9.46s15.25,5.95,20.16,6.23c4.91.28,15.9,2.42,20.48,9.68,4.58,7.26,12.87,18.27,12.87,18.27,0,0-5.61,8.27-12.18,4.29-6.57-3.98-20.41-8.78-23.46-13.62l-11.76,3.09s-11.46,15.16-30.57,16.29c-20.24,1.19-27.59-13.98-27.59-13.98l14.71-20.78Z"/></svg>