<?xml version="1.0" encoding="UTF-8"?><svg id="_레이어_1" xmlns="http://www.w3.org/2000/svg" viewBox="0 0 500 500"><defs><style>.cls-1{fill:#382615;}.cls-2{fill:#cc847a;}.cls-3{fill:#1c333b;}.cls-4{fill:#9e3433;}.cls-5{fill:#b1d1c4;}.cls-6{fill:#dc978c;}.cls-7{fill:#82602e;}.cls-8{fill:none;}.cls-9{fill:#ac8129;}.cls-10{fill:#c4dfd6;}.cls-11{fill:#895e2d;}.cls-12{fill:#c2b15a;}.cls-13{fill:#bc594d;}.cls-14{fill:#254453;}.cls-15{fill:#de9f62;}.cls-16{fill:#d7ab58;}.cls-17{fill:#c8a26d;}.cls-18{fill:#6d4b28;}.cls-19{fill:#b6524f;}.cls-20{fill:#eede88;}</style></defs><rect class="cls-8" width="500" height="500"/><path class="cls-18" d="M145.9,200.25l1.03-56.58s-7.17-8.68-18.08-6.31c-5.3,1.15-10.7,2.45-10.7,2.45l-1.57,13.62s3.12,176.2,6.89,269.87c9.5,2.38,25.02-1.21,25.02-1.21l-2.59-221.84Z"/><path class="cls-4" d="M121.45,381.31c7.25,5.97,16.28,9.41,26.26,10.12,2.84.2,2.82-3.61,0-3.81-8.77-.62-16.78-3.78-23.13-9.01-2.06-1.69-5.19.99-3.13,2.69"/><path class="cls-4" d="M123.36,391.65c4.47.41,8.89-.12,13.07-1.71,1.74-.66,3.43-1.48,4.99-2.47,2.04-1.3,4.05-3.84,6.48-4.33,2.52-.52,1.45-4.19-1.06-3.67-3.8.78-6.24,4.27-9.63,5.97-4.31,2.16-9.04,2.85-13.85,2.41-2.56-.23-2.55,3.57,0,3.81"/><path class="cls-4" d="M148.75,171.02c9.7.35,19.41.04,28.23-4.18,2.33-1.11.28-4.4-2.05-3.29-8.14,3.89-17.26,3.98-26.18,3.66-2.61-.09-2.6,3.71,0,3.81"/><path class="cls-4" d="M148.35,177.83c9.89,1.91,19.75.45,28.73-4.28,2.09-1.1.25-4.38-1.83-3.29-8.06,4.24-17.06,5.61-25.93,3.9-2.29-.44-3.27,3.23-.97,3.67"/><path class="cls-4" d="M119.17,268.68c9.08,1.55,18.15,1.35,27.1-.68,2.81-.64,1.62-4.31-1.2-3.67-8.17,1.85-16.4,2.1-24.69.68-2.85-.49-4.06,3.18-1.2,3.67"/><path class="cls-4" d="M119.33,275.75c9.47,1.31,18.82.61,27.87-2.3,2.53-.81,1.44-4.49-1.12-3.67-8.29,2.66-16.92,3.5-25.63,2.3-2.64-.37-3.78,3.3-1.12,3.67"/><path class="cls-4" d="M122.57,396.98c3.78,1.44,7.63,2.39,11.75,2.65,2.21.14,4.42.06,6.62-.2,1.98-.23,5.23-1.55,7.13-.85,2.55.93,3.66-2.75,1.14-3.67-3.22-1.18-7.17.7-10.47.92-4.81.32-9.58-.45-14.01-2.13-2.51-.95-4.69,2.32-2.16,3.29"/><path class="cls-18" d="M390.37,201.72l2.02-56.55s-7.02-8.81-17.97-6.62c-5.32,1.06-10.74,2.26-10.74,2.26l-1.81,13.59s.04,176.23,2.17,269.95c9.45,2.55,25.04-.77,25.04-.77l1.29-221.85Z"/><path class="cls-4" d="M362.76,382.31c7.14,6.09,16.11,9.7,26.08,10.58,2.83.25,2.88-3.56.07-3.81-8.76-.78-16.71-4.07-22.97-9.41-2.03-1.73-5.2.9-3.17,2.64"/><path class="cls-4" d="M364.49,392.69c4.46.49,8.89.03,13.1-1.48,1.76-.63,3.46-1.42,5.03-2.39,2.07-1.27,4.11-3.77,6.55-4.22,2.52-.47,1.52-4.16-1-3.69-3.81.71-6.31,4.16-9.73,5.8-4.35,2.08-9.09,2.69-13.89,2.17-2.56-.28-2.61,3.53-.07,3.81"/><path class="cls-4" d="M362.45,269.66c9.05,1.71,18.12,1.66,27.11-.21,2.82-.59,1.69-4.28-1.14-3.69-8.2,1.71-16.43,1.81-24.7.25-2.84-.54-4.12,3.11-1.27,3.65"/><path class="cls-4" d="M362.49,276.74c9.44,1.47,18.81.93,27.9-1.81,2.54-.77,1.52-4.47-1.05-3.69-8.33,2.51-16.98,3.2-25.67,1.85-2.64-.41-3.84,3.23-1.18,3.65"/><path class="cls-4" d="M363.61,398.01c3.76,1.5,7.59,2.52,11.7,2.85,2.21.18,4.42.13,6.62-.09,1.98-.2,5.25-1.46,7.14-.73,2.53.98,3.71-2.68,1.2-3.65-3.2-1.23-7.18.57-10.48.74-4.82.24-9.57-.61-13.97-2.37-2.49-1-4.73,2.24-2.22,3.25"/><path class="cls-11" d="M73.22,451.88l20.16.43-1.06-28.74s.08-35.79-.48-53.62c-2.26-71.93-4.36-215.36-4.36-215.36,0,0-2.53-2.44-3.46-3.1-1.3-.92-9.57-2.01-11.6-1.74-6.4.86-5.38,1.08-13.28,3.88-2.07,11.09-2.37,33.11-2.37,33.11,0,0,1.35,21.57,2.34,32.32,2.05,22.24-1.06,49.06.21,71.4,2.26,39.55,3.38,79.09,3.19,118.89-.06,13.46.62,41.32.62,41.32l10.09,1.21Z"/><path class="cls-11" d="M442.2,462.13l.74-28.8s-1.73-36.54-1.41-54.38c1.29-71.95,3.52-220.04,3.52-220.04,0,0-12.76-3.41-14.8-3.22-6.44.6-6.96.04-13.4.64-2.62,11-2.12,31.99-2.12,31.99,0,0-1.12,37.83-.66,48.6.95,22.3.21,136.15,1.37,175.94.34,11.6,0,48.71,0,48.71l21.53.31s2.18.09,5.24.26"/><path class="cls-19" d="M56.72,224.88c10.78,3.89,22.29,4.34,33.36,1.38,2.51-.67,1.44-4.56-1.07-3.89-10.42,2.78-21.07,2.28-31.21-1.38-2.45-.88-3.5,3.02-1.07,3.89"/><path class="cls-19" d="M57.75,230.54c12.23-.8,23.52-5.43,32.81-13.42,1.97-1.7-.89-4.54-2.85-2.85-8.43,7.25-18.86,11.51-29.96,12.24-2.58.17-2.6,4.21,0,4.04"/><path class="cls-19" d="M58.55,250.31c10.62,3.31,21.63,3.93,32.57,1.96,2.55-.46,1.47-4.35-1.07-3.89-10.23,1.84-20.52,1.14-30.43-1.96-2.48-.77-3.55,3.12-1.07,3.89"/><path class="cls-19" d="M57.98,256.64c10.71,2.31,21.55,4.35,32.41,1.77,2.53-.6,1.46-4.49-1.07-3.89-10.12,2.41-20.29.38-30.26-1.77-2.53-.54-3.61,3.34-1.07,3.89"/><path class="cls-19" d="M414.47,260.81c6.12-1.13,11.9-3.31,17.48-6.03,2.83-1.38,5.6-2.89,8.35-4.43,2.16-1.21,4.4-2.17,5.89-4.17,1.55-2.09-1.95-4.1-3.48-2.04-1.24,1.67-4.55,2.8-6.35,3.79-2.33,1.29-4.69,2.54-7.09,3.69-5.08,2.43-10.33,4.28-15.87,5.3-2.55.47-1.47,4.36,1.07,3.89"/><path class="cls-19" d="M413.22,244.68c8.76,6.6,18.88,10.52,29.76,11.79,2.57.3,2.55-3.74,0-4.04-10.15-1.19-19.57-5.1-27.72-11.24-2.07-1.56-4.09,1.94-2.04,3.48"/><path class="cls-19" d="M57.84,314.06c10.1,5.36,21.58,6.68,32.63,3.69,2.5-.68,1.44-4.57-1.07-3.89-9.99,2.7-20.37,1.57-29.52-3.29-2.29-1.22-4.33,2.27-2.04,3.48"/><path class="cls-19" d="M413.01,320.97c9.1,5.33,20.06,6.18,29.82,2.13,2.37-.98,1.33-4.89-1.07-3.89-8.81,3.66-18.46,3.11-26.71-1.73-2.25-1.31-4.28,2.17-2.04,3.48"/><path class="cls-19" d="M60.33,383.92c8.47,9.58,17.62,19.04,30.93,20.72,2.57.32,2.55-3.71,0-4.03-12.04-1.52-20.48-10.95-28.07-19.54-1.72-1.95-4.57.91-2.85,2.85"/><path class="cls-19" d="M413.92,399.8c8.81,5.34,19.09,6.92,29.11,4.55,2.53-.6,1.46-4.49-1.07-3.89-8.99,2.12-18.11.64-26-4.14-2.23-1.35-4.26,2.14-2.04,3.48"/><path class="cls-19" d="M414.56,407.76c8.76,3.41,18.03,4.6,27.36,3.48,2.55-.31,2.58-4.35,0-4.04-9.02,1.08-17.83-.03-26.29-3.33-2.42-.94-3.47,2.96-1.07,3.89"/><path class="cls-19" d="M63.1,396.97c10.48.87,20.77-1.73,29.6-7.46,2.17-1.41.15-4.9-2.04-3.48-8.29,5.38-17.72,7.72-27.56,6.9-2.59-.22-2.57,3.82,0,4.04"/><path class="cls-19" d="M61.52,404.71c11.95.18,23.52-2.78,33.93-8.65,2.26-1.28.23-4.76-2.04-3.48-9.81,5.53-20.63,8.26-31.89,8.1-2.6-.04-2.6,4,0,4.04"/><path class="cls-2" d="M315.01,428.87c2.73,4.91,5.45,9.83,8.17,14.74,2.09,3.77,4.76,10.8,4.76,10.8,0,0-2.82,4.33-6.71,7.58-3.67,3.06-6.72,6.06-11.47,7.36-2.6,2.6-.96,4.13.43,4.76,1.39.63,5.41.22,5.41.22,0,0,11.37-.27,18.66-2.71,2.35-.78,4.68-1.83,6.2-3.55,2.07-2.35,2.28-5.51,2.29-8.45.07-20.1-5.07-40.2-14.94-58.43-1.15-2.13-19.92,3.98-21.15,6.48-2.54,5.14,5.86,16.71,8.36,21.2"/><path class="cls-3" d="M300.01,402.89l4.41-1.51s-2.73,7.98-1.18,11.83c2.63-1.8,7.42-5.88,7.42-5.88l4.94,6.59s5.54,7.01,6.28,6.93c.68-.08,1.43-8.13,1.73-8.66,5.09-8.88,10.2-12.04,11.29-21.89.55-4.97.03-9.97-.48-14.94-.48-4.67-.97-9.34-1.45-14-.36-3.5.43-9.78-1.38-12.9-3.31-5.7-10.35-8.36-10.35-8.36,0,0-7.93,28.48-10.49,36.27-1.45,4.38-2.89,8.77-4.33,13.15-.73,2.22-6.39,13.36-6.39,13.36"/><path class="cls-2" d="M330.32,266.71c-1.68-2.93-8.21-13.04-9.87-16-2.26-4.02-5.07-9.76-5.07-9.76l-3.86-8.98s-.69-4.17-1.03-6.26c-.93-5.81-4.71-11.09-9.9-13.85-.59,2.49.64,5.29,2.87,6.55-2.91,3.25-4.65,7.53-4.8,11.89-.02.58,0,1.19.3,1.68l4.73,14.82c6.25,22.69,15.84,38.53,24.11,26.11,2.61-3.91,4.34-3.01,2.52-6.2"/><path class="cls-6" d="M353.27,462.43s-1.75-12.57-2.17-22.3c-.54-12.62-1.26-23.42-6.37-35.26-.31-.73-.65-1.47-1.23-2.06-.85-.86-2.12-1.3-3.28-1.82-5.08-2.27-8.41-11.56-14.66-9.79-.89-1.57-2.16,2.6-2.17,2.6-1.42,4.39-.22,13.21-.22,13.21l7.62,23.21s4.33,16.85,6.23,26.37c.87,4.33.43,7.79.43,7.79,0,0-4.53,3.04-6.09,4.18-5.28,3.84-11.5,5.67-11.66,8.16-.16,2.49,5.24,5.67,10.18,4.55,4.93-1.12,14.57-2.17,14.57-2.17,0,0,4.46-.08,7.08-.42,2.62-.35,3.49-4.24,3.9-6.5.26-1.48-2.16-9.74-2.16-9.74"/><path class="cls-14" d="M320.86,397.96c1.39-.73,2.77-1.46,4.16-2.18,1.25,4.39,2.96,8.68,5.09,12.82,1.18-.48,2.15-1.34,2.68-2.37,1.31,4.94,4.49,9.5,8.95,12.81,1.81-1.5.88-4.05.82-6.2-.05-2.16,2.92-4.69,4.51-3.02-.3-4.57-.6-9.17.05-13.71.63-4.41,2.13-8.68,3.42-12.99,5.32-17.85,6.84-36.35,8.34-54.74-.06.75-23.55,5.02-26.02,5.62-2.67.65-9.29,1.19-11.14,3.08-2.03,2.08-1.05,8.06-1.17,10.72-.78,16.72-.68,33.46.31,50.17"/><path class="cls-7" d="M301.74,197.65s-8.01,8.1-9.81,10.39c-11.21,14.19-18.91,26.5-28.87,41.57l-122.39,166.27-4.04,34.06s24.25-19.76,25.4-21.36c32.91-45.61,68.7-95.26,68.7-95.26l41.57-58.89s21.92-31.88,34.64-47.34c3.16-3.84,8.66-13.28,8.66-13.28l-13.85-16.16Z"/><path class="cls-6" d="M329.07,257.31c-.1,1.37-.12,2.76.23,4.09,1.17,4.39,5.94,6.62,10.18,8.26,2.11.82,4.34,1.65,6.58,1.36,1.18-.15,8.29.78,9.36.24,8.13-4.04,7.73-14.16,7.99-23.24.11-3.82-.8-7.92-3.59-10.54-1.68-1.58-3.87-2.47-6.02-3.3-6.19-2.39-12.59-4.31-17.05,1-2.6,3.1-5.47,11.51-5.47,11.51,0,0-1.99,7.25-2.22,10.62"/><path class="cls-5" d="M359.07,263.23c1.29,3.51,1.85,7.29,1.64,11.03-3.88-2.72-8.98-2.61-13.68-3.24-.83-.11-5.66-.51-5.78-1.5-.18-1.51,3.42-2.19,4.25-2.44,1.13-.35,13.47-4.14,13.58-3.85"/><path class="cls-9" d="M335.63,239.18c-.95.69-2.28,4.22-2.28,4.22,0,0,4.04-.67,5.99-1.23,1.95-.55,2.95-1.57,2.95-1.57,0,0,.39,7.49,1.74,10.73,1.1,2.64,5,6.87,5,6.87,0,0,1.21-.61,1.82-.91-.86,6.13,1.77,12.58,6.83,16.73,1-1.82,2-3.64,3.01-5.45,1.13,1.99,2.9,3.68,5.03,4.81,1.12-2.53,2.24-5.06,3.36-7.59.94,1.63,3.53,1.85,3.53,1.85,0,0-.1-4.04-.41-5.23-1.4-5.35-.49-9.57-.02-15.05.21-2.47-1.15-8.74-1.15-8.74,0,0-4.68-8.99-9.64-10.84-6.08-2.28-17.84.39-17.84.39,0,0-5.01,2.31-9.76,5.27-3,1.87-6.21,7.07-6.21,7.07,0,0,5.93.21,8.06-1.34"/><path class="cls-1" d="M333.46,246.31l-.22.38c.45.86.54,1.41.54,1.41l.11,1.41s2.32.63,2.81-.27c-.11-.81-.7-1.19-.7-1.19,0,0-1.56-1.31-2.54-1.73"/><polygon class="cls-13" points="327.56 252.7 330.27 253.83 331.51 247.18 328.75 250.99 327.56 252.7"/><path class="cls-9" d="M338.01,259.77s-1.07-3.73-3.07-4.42c-1.84-.63-5.97-.54-5.97-.54v.97s1.41.31,1.41.31c1.19.31,1.63.53,1.63.53,0,0,.69,1.26-.42,1.83-.51.26-1.27.39-1.55.14-.09-.11-.16-.25-.34-.75-.06-.18-.28-.44-.28-.44l-.62-.24s-.11.82-.13,1.21c-.24.68-.58,3.09-.56,3.8.05,1.65-.17,3.13-.21,4.08-.05,1.2-.1,2.44.48,3.56.58,1.13,1.95,2.13,3.62,2.2,4.39-2.26,5.61-5.3,6.1-9.15.14-1.11-.11-3.1-.11-3.1"/><path class="cls-6" d="M279.87,244.51c-.94-1.29-1.8-3.27-1.8-3.27,0,0,.72-12.12-1.01-12.41-.85-.55-2.28,1.82-2.72,2.73-.44.91-1.49,2.6-1.49,2.6,0,0-2.51.22-3.81.31-1.74.12-4.21,2.81-4.21,2.81,0,0-5.07,8.65-3.65,12.03.7,1.66,5.44,3.04,5.44,3.04,0,0,7.57,9.14,11.16,13.85,5.89,7.71,21.39,18.06,21.39,18.06,0,0,24.61,9.35,28.11,6.76,3.1-2.29,7.29-12.43,4.62-15.73-2.02-2.5-29.66-10.66-29.66-10.66,0,0-16.41-11.98-22.38-20.13"/><path class="cls-10" d="M363.88,303.3c2.17-15.8-1.23-29.15-1.23-29.15-8.08-9.16-19.63-6.93-19.63-6.93,0,0-4.86-.03-7.02,1.09-5.47,2.84-12.42,1.85-18.69.76,4.54,2.3,8.7,5.14,12.32,8.42-6.48-1.51-13.19-2.27-19.91-2.26,1.09.71,1.36,3.13,1.36,3.13,0,0-4.36.39-6.54.59,3.4,4.05,15.34,6.36,15.34,6.36l-8.19,5.21,9.53,7.14s-2.37,18.55-2.38,28.58c0,1.94-1.52,13.64-1.52,13.64l1.52,8.23,4.09-10.42s3.87,5.48,4.57,7.39c3.46-1.95,5.39-2.86,7.9-5.41.73-.74,1.68-1.67,2.75-1.35.68.2,1.03.85,1.29,1.42,1.01,2.2,4.8,9.64,5.81,11.83,2.82-5.2,3.52-9.82,5.63-12.56,1.85,1.12,5.2,4.76,5.2,4.76l1.3-6.49,6.06,3.9s-1.19-26.05.43-37.89"/><path class="cls-17" d="M162.18,412.21l-14.89,8.36-.87-6.66s-3.88,1.27-5.76,2.05l-4.03,33.97s19.23-15.67,24.25-20.23c-.07-.77-.19-2.3-.19-2.3l1.5-15.2Z"/><path class="cls-20" d="M205.84,24.3c-12.66,1.32-43.02,13.79-54.81,17.9-10.97,3.83-54.91,44-54.91,44l-52.83,53.69s-27.06,38.8-38.27,67.35c-.79,2,35.39-1.7,35.39-1.7l20.18,1.16s24.01,3.53,36.03,8.13c33-2.43,44.24-4.96,44.24-4.96,0,0,19.29,2.86,28.56,4.06,5.59.73,24.18,5.14,24.18,5.14l32.08-3.72,25.71-3.11,50.5,3.73,35.78-4.76,40.65-3.21,34.99,3.94c1.34.1,34.88-.44,34.88-.44,0,0,31.68,3.91,46.8-2.96,0,0-14.18-28.67-15.17-30.5-12.96-23.94-33.62-50.24-33.62-50.24,0,0-20.04-36.4-33.78-49.15-10.63-9.87-52.78-39.51-52.78-39.51l-51.46-16.37c-37.69-8.48-65.68-2.3-102.36,1.53"/><path class="cls-16" d="M116.59,120.71l13.21-15.96,15.54-16.09s16.96-24.4,25.5-36.36c-21.81,19-54.24,68.41-54.24,68.41"/><path class="cls-16" d="M61.08,177.46l30.69-45.78s9.05-13.07,13.74-19.47c4.68-6.38,14.03-19.14,14.03-19.14l-16.71,15.48s-10.51,15.21-15.37,22.88c-9.74,15.35-26.38,46.04-26.38,46.04"/><path class="cls-16" d="M149.95,168.6l8.6-11.66s8.05-25.45,12.51-39.64c3.45-10.97,10.47-37.1,10.47-37.1l-14.24,33.72-17.34,54.68Z"/><path class="cls-16" d="M217.54,132.29l4.11-22.73s.35-15.67.88-22.75c.89-11.99,1.36-39.36,1.36-39.36l-6.35,34.7v50.14Z"/><path class="cls-16" d="M373.26,121.25l-9.56-18.54-11.8-19.19s-11.46-27.63-17.29-41.21c17.32,23.44,38.66,78.94,38.66,78.94"/><path class="cls-16" d="M440.6,188.08l-30.69-45.78s-9.05-13.07-13.75-19.47c-4.68-6.38-14.03-19.14-14.03-19.14l16.72,15.48s10.51,15.21,15.37,22.88c9.73,15.35,26.38,46.04,26.38,46.04"/><path class="cls-16" d="M332.63,188.08l-8.6-11.66s-8.05-25.45-12.51-39.64c-3.45-10.97-10.47-37.1-10.47-37.1l14.23,33.72,17.34,54.68Z"/><path class="cls-12" d="M184.92,183.07l4.36-7.21s6.12-27.92,4.96-41.15c-5.28,15.65-9.31,48.36-9.31,48.36"/><path class="cls-16" d="M273.18,178.94l-4.12-31.75s-.35-21.89-.88-31.79c-.89-16.75-1.36-55-1.36-55l6.35,48.48v70.06Z"/><path class="cls-12" d="M97.73,190.19l24.86-36.8,10.34-19.77c-7.92,7.75-20.04,25.47-20.04,25.47,0,0-5.91,10.11-8.47,15.39-1.88,3.88-6.69,15.7-6.69,15.7"/><path class="cls-12" d="M245.06,175.47l-1.45-75.78s-2.74,11.59-2.78,16.58c-.05,6.4-.28,19.26-.28,19.26l4.5,39.93Z"/><path class="cls-12" d="M324.34,98.89s-3.03-16.61-6.12-24.41c-2.43-6.14-10.54-21.08-10.54-21.08,0,0,4.09,16.77,5.97,21.5,1.62,4.07,3.32,8.11,5.1,12.11,1.45,3.24,5.58,11.88,5.58,11.88"/><path class="cls-12" d="M388.62,187.99l-6.14-13.11s-9.65-14.04-14.47-21.07c-3.78-5.51-14.06-19.56-14.06-19.56,0,0,10.2,19.24,15.69,27.68,2.9,4.46,5.94,8.87,9.11,13.21,2.05,2.81,9.88,12.85,9.88,12.85"/><path class="cls-12" d="M426.16,121.25c1.64,1.97,6.73,5.05,6.73,5.05l-31.1-42.19s7.31,15.74,9.58,18.85c4.76,6.55,9.49,11.92,14.8,18.29"/><path class="cls-15" d="M480.57,219.23l-7.59-17.27s-6.82-11.05-9.67-16.17c-4.82-8.67-16.83-27.93-16.83-27.93l11.55,26.39,22.54,34.98Z"/><path class="cls-15" d="M308.07,218.31l-.6-18.6s-2.22-12.53-2.96-18.23c-1.25-9.66-5.24-31.52-5.24-31.52l.86,28.41,7.93,39.94Z"/><path class="cls-15" d="M31.1,210.14l8.14-17.06s3.84-12.19,5.84-17.64c3.38-9.22,9.98-30.55,9.98-30.55l-12.48,26.03-11.47,39.22Z"/><path class="cls-15" d="M216.26,219.85l4.66-18.11s1.38-12.63,2.27-18.31c1.51-9.63,3.81-31.69,3.81-31.69l-7.17,27.65-3.58,40.46Z"/><path class="cls-15" d="M124.67,215.23l6.84-17.53s2.91-12.41,4.49-17.97c2.68-9.41,7.66-31.11,7.66-31.11l-10.5,26.75-8.5,39.85Z"/></svg>