<?xml version="1.0" encoding="UTF-8"?><svg id="_레이어_1" xmlns="http://www.w3.org/2000/svg" viewBox="0 0 500 500"><defs><style>.cls-1{fill:#4d2e2e;}.cls-2{fill:#8a563a;}.cls-3{fill:#ada5a0;}.cls-4{fill:#e0a386;}.cls-5{fill:none;}.cls-6{fill:#d39881;}.cls-7{fill:#9f6a49;}.cls-8{fill:#ce8d74;}.cls-9{fill:#c3846f;}.cls-10{fill:#aa824b;}.cls-11{fill:#533621;}</style></defs><rect class="cls-5" width="500" height="500"/><path class="cls-9" d="M234.82,69.6c4.05-2.2,14.57-5.97,28.07-1.68,13.5,4.29-11.75-16.78-11.75-16.78l-9.75.71-6.57,17.75Z"/><path class="cls-2" d="M87.42,386.69s4.2-26.84,16.29-33.31l11.32-21.09,20.83-9.59,15.34-22.16,6.25-30.64,81.08,24.84,101.8,34.48,12.77,44.41s-22.7,16.33-22.04,25.99c.66,9.66-17.48,34.19-21.43,43.48-3.95,9.29-2.33,34.68-2.33,34.68,0,0-36.27,17.49-39.45,17.21,0,0-29.97-12.24-32.34-15.93-2.37-3.69-2.72-7.92-2.72-7.92l-21.43-8.66s-19.06-21.78-40.57-16.53l-31.73,2.12s-13.03-13.95-10.87-20.17c0,0-7.31-13.61-14.78-21.53s-15.81-13.28-25.99-19.68Z"/><path class="cls-7" d="M268.41,197.47l7.1-6.87,13.52-1.55s22.07,11.71,30.73,15.93c8.66,4.21,20.08,9.56,24.38,11.31,4.3,1.76,11.02,2.82,11.02,2.82,0,0,7.65,1.44,12.84,6.26,5.19,4.82,9.65,9.67,14.63,12.38,0,0,3.21-1.72,18.31.74,15.1,2.47,16.57,11.15,17.75,12.65s6.02,7.18,10.79,7.78c4.77.6,9.87,3.02,9.87,3.02l2.76,9.89s-2.95,7.22-6.26,10.93-13.48,18.09-13.62,25.44c-.14,7.36,4.98,11.47-8.31,38.74-13.29,27.26-11.52,36.08-11.52,36.08l-26.03,23.8s-15.25-.84-21.38-3.34c-6.14-2.51-12.98-10.92-12.98-10.92,0,0-6.07,6.78-27.1-4.85-21.03-11.63-38.28-19.35-47.04-21.58-8.76-2.23-21.69-6.5-21.69-6.5l-14.07-11.14s-10.36-3.56-16.4-8.05c-6.04-4.49-10.97-16.96-10.97-16.96,0,0-8.12-.28-11-1.12,0,0-2.64-5.8-1.23-9.26,0,0,4.48-2.21,9.96-12.11,5.48-9.9,11.14-19.38,15.79-36.02,4.65-16.64,11.19-37.9,19.1-44.1,7.91-6.21,13.24-13.13,13.24-13.13,0,0,2.55-9.74,5.19-12.71l5.83-2,6.77,4.45Z"/><path class="cls-10" d="M90.6,113.86l-12.4,36.83-4.73,45.04-1.33,48.24-17.6,14.42-5.42,21.2-6.12,37.52s31.32,29.55,55.32,28.42c24-1.13,45.75,17.03,51.25,19.96,5.5,2.93,40.29,31.19,40.29,31.19l44.38,18.06,30.06-25.62s9-40.03,34.89-27.94c25.89,12.08,21.39-26.65,27.52-45.59,6.13-18.94,18.97-35.53,18.97-35.53,0,0-41.3-24.01-39.01-36.26,2.28-12.25,5.13-21.8,5.13-21.8,0,0-26.2-7.56-17.05-37.99l-43.28-17.01s-41.43,27.59-115.81-39.84c0,0-28.4,5.11-44.34-11.02"/><path class="cls-9" d="M185.04,72.75c-.77.45-1.66,1.17-1.42,2.03.07.23.78,2.1.93,2.29,2.06,2.54,5.08,1.85,8.32,1.34,3.23-.51,6.14-2.29,8.61-4.44,2.16-1.87,4.12-4.13,4.95-6.88.39-1.29.91-5.42-.63-6.33-1.83-1.07-4.43,1.65-5.9,2.64-4.85,3.26-9.81,6.38-14.85,9.34Z"/><path class="cls-5" d="M241,123.76c-.33,1.16,1.06,1.43,1.06,1.43,0,0,1.47.09,2.83-.07-.1-.44-.23-1.38.21-2.12-1.68-.41-3.83-.18-4.1.77Z"/><polygon class="cls-3" points="263.84 118.25 264.44 117.87 264.44 117.87 263.84 118.25"/><path class="cls-3" d="M266.27,115.77c-.04-.22-.12-.4-.21-.56-.29-.48-.84-.71-1.56-.76-3.86-.26-13.44,3.3-15.79,3.9.29,1.09,3.44,2.99,2.71,4.1,1.08-1.65,15.95-.5,14.85-6.68ZM264.52,117.74c-.15.15-.39.29-.57.38-.23.12-1.13.41-1.38.51l-2.18.55s-1.41.09-1.39-1.12c.02-.99.99-1.54,2.65-2.03.69-.2,2.12-.21,2.37-.13.65.22.8.61.88.76.16.3-.14.81-.39,1.07Z"/><path class="cls-8" d="M200.48,60.97c-1.52,2-2.48,4.37-3.42,6.7-4.74,11.81-12.42,36.05-12.42,36.05,0,0-.47,3.86,1.1,4.5.51.21,2.47.95,3.03.99,6.78.54,9.63-5.56,9.63-5.56,0,0,4.99-13.92,6.85-18.75,2.34-6.08,5.43-11.83,8.84-17.37,1.36-2.22,12.45-14.63,11.71-16.85-1.67-4.98-23.39,7.75-25.32,10.29Z"/><path class="cls-6" d="M215.48,89.95c-1.57,8.52-.14,22.11-.14,22.11,0,0,.68,6.51-3.53,11.26-2.05,2.32-6.25,1.45-7.33.95-1.53-.72-2.76-4.93-2.76-4.93,0,0-1.74-30.44-1.26-45.67.07-2.12.16-4.3.97-6.27.89-2.15,2.55-3.87,4.18-5.53,7.22-7.37,13.38-13.99,21.16-20.76,1.9-1.65,10.58-7.09,5.39-5.06-1.14.42-2.76,14.41-3.2,16.26-1.15,4.89,3.43,12.46.34,16.47-2.71,3.53-11.15,6.28-11.15,6.28,0,0-1.71,9.58-2.68,14.89Z"/><path class="cls-5" d="M239.73,86.04c-.91-6.3-.27-12.72.38-19.05-1.35,7.81-1.29,12.75-.38,19.05Z"/><path class="cls-5" d="M239.73,86.04c.64,4.43.74,7.5,1.62,11.89.61,3.03,1.59,6.06,2.41,9.1-.25-2.64-.58-5.28-1.11-7.88-.88-4.39-2.28-8.68-2.93-13.11Z"/><path class="cls-4" d="M241.39,126c.65.11,2.73-.41,3.3-.74.44-.26,1.95-1.42,2.2-1.74-1.16.31-6.19,1.64-7.45,1.97.48.31,1.5.44,1.95.51Z"/><path class="cls-4" d="M306.59,5l-12.85,13.54s-12.09,4.59-18.92,5.23c-8.98.84-15.84,3.81-24.82,4.65-6.69.63-14.15,1.65-18.33,6.91-4.12,5.18-3.53,12.51-4.95,18.98-.8,3.63-2.27,7.08-3.27,10.66-2.86,10.29.47,31.98.47,31.98,0,0,7.41,16.55,12.26,24.32l8.18-2h0s0,0,0,0h0s1.53-.37,1.53-.37c.05-1.07-.2-2.98-.41-4.19-.43-2.54-1.05-5.13-1.74-7.67h0c-.82-3.04-1.8-6.07-2.41-9.1-.89-4.39-1.18-7.7-1.11-12.11.1-6.37,1.16-10.03,2.51-17.84.44-4.28,4.88-8.55,4.88-8.55,0,0,4.66-.51,7.12,2.03,2.63,2.71,5.09,5.59,5.29,9.36.12,2.3-.83,4.78-1.7,6.92-2.35,5.78-6.09,10.06-8.44,15.84-1.04,2.55-3.7,6.03-4.99,9.67-2.2,6.22-1.22,13.64,1.28,15.57l3.18-.79,1.29,4.51s-1.38.32-1.99.48c1.35,1.38,3.64,1.64,4.86.74,1.34-.99,3.1-3.83,3.91-5.28,5.55-10,9.93-20.22,18.81-27.43,4.39-3.57,18.72-7.87,18.72-7.87,0,0,12.34-8.78,19.26-14.38,6.67-5.4,14.52-17.07,21.61-24.74-7.81-13.89-18.84-28.34-29.26-39.05Z"/><path class="cls-4" d="M245.98,56.49s-5.45,6.22-5.88,10.5c.73-4.24,5.88-10.5,5.88-10.5Z"/><path class="cls-3" d="M240.16,125.31c.87-.23,1.7-.45,2.5-.66,3.19-.84,5.74-1.51,7.04-1.86-.13-.14-.27-.27-.41-.43-.99-1.12-1.8-3.17-1.8-3.17,0,0,.02-.26.06-.72l-3.19.78-7,1.72-7.66,1.88c-.06.13-14.27,3.87-21.39,5.86-4.81,1.35-27.84,8.21-27.84,8.21l1.14,1.67s27.61-5.77,33.37-7.18c3.55-.87,15.57-3.59,25.16-6.11Z"/><path class="cls-4" d="M250.04,117.63l-4.75.7c-.04.47.71,2.21.71,2.21,0,0,.64,1.58,1.86,2.47.17.12,2.24.92,2.45,1.04.66.1,1.1-1.03,1.1-1.03l-1.37-5.39Z"/><path class="cls-1" d="M268.88,191.61c-2.71-1.33-5.32-2.89-7.77-4.63l.78-1.09c2.39,1.7,4.94,3.22,7.58,4.51l-.59,1.21Z"/><path class="cls-1" d="M285.58,200.19c-2.08-2.27-4.75-3.92-7.7-4.78l.38-1.29c3.19.93,6.07,2.71,8.32,5.17l-.99.91Z"/><rect class="cls-1" x="298.09" y="201.42" width="1.34" height="9.7" transform="translate(-15.69 387.72) rotate(-64.61)"/><rect class="cls-1" x="425.79" y="265.55" width="1.34" height="9.7" transform="translate(-.69 539.72) rotate(-64.61)"/><rect class="cls-1" x="312.13" y="208.51" width="1.35" height="8.79" transform="translate(-15.96 400.23) rotate(-63.92)"/><path class="cls-1" d="M334,224.95c-3.55-2.84-7.54-4.98-11.87-6.37l.41-1.28c4.49,1.43,8.62,3.66,12.3,6.6l-.84,1.05Z"/><rect class="cls-1" x="345.74" y="224.56" width="1.34" height="9.7" transform="translate(-19 427.16) rotate(-61.93)"/><path class="cls-1" d="M364.01,240.22c-2.44-1.99-5.35-3.43-8.42-4.16l.31-1.31c3.26.78,6.36,2.31,8.95,4.43l-.85,1.04Z"/><path class="cls-1" d="M382.52,248.74c-2.72-2.02-5.72-3.6-8.92-4.68l.43-1.27c3.34,1.13,6.46,2.77,9.29,4.88l-.8,1.08Z"/><path class="cls-1" d="M400.33,257.85c-3.8-2.46-7.8-4.7-11.88-6.65l.58-1.21c4.14,1.97,8.19,4.24,12.04,6.73l-.73,1.13Z"/><path class="cls-1" d="M415.61,265.07c-2.77-1.71-6.1-3.31-9.4-4.49l.46-1.27c3.38,1.21,6.8,2.85,9.65,4.61l-.71,1.14Z"/><path class="cls-1" d="M255.11,183.77c-2.43-.9-4.8-2-7.05-3.27l.57-1c2.19,1.24,4.5,2.32,6.88,3.19l-.4,1.08Z"/><path class="cls-1" d="M321.2,161.8c-4.93-4.03-11.1-9.55-15.06-16.47-1.11-1.93-2.06-3.99-2.98-5.99-1.06-2.3-2.16-4.67-3.5-6.88-6.26-10.31-18.1-16.82-30.16-16.58,0,0-.02,0-.03,0,.04.23.07.47.06.72,0,.15,0,.17,0,.33,0,.02-.02.17-.02.19,0,0,.17,0,.17,0,11.62-.23,22.88,6.05,28.91,15.99,1.31,2.15,2.39,4.49,3.43,6.75.93,2.02,1.9,4.11,3.03,6.09,4.07,7.1,10.34,12.71,15.36,16.82,7.75,6.34,15.56,11.62,23.48,15.56.14-.32.3-.63.47-.93-7.78-4.03-15.49-9.32-23.16-15.6Z"/><path class="cls-1" d="M456.04,265.27c-16.14-40.93-46.83-67.62-91.21-79.34l-1.46-.39c-11.2-3.03-15.29-4.98-19.85-7.41l.49-.92c4.5,2.4,8.54,4.33,19.63,7.33l1.45.39c44.72,11.81,75.65,38.71,91.92,79.97l-.97.38Z"/><path class="cls-1" d="M261.92,120.3c-.43.12-.88.21-1.33.31-.58,3.8.6,7.56,2.02,11.16,1.52,3.86,2.95,7.51,2.07,11.2-1.03,4.33-5.09,7.24-8.31,8.93-1.36.71-2.8,1.35-4.19,1.97-2.57,1.14-5.22,2.32-7.56,4.01-3.26,2.36-6.72,6.86-5.73,11.76.37,1.84,1.38,3.69,3.07,5.66,2.15,2.49,4.07,4.12,6.42,5.43l.61-1.09c-2.25-1.25-4.01-2.75-6.08-5.15-1.55-1.8-2.46-3.46-2.79-5.09-.87-4.32,2.28-8.36,5.24-10.5,2.23-1.61,4.83-2.77,7.33-3.88,1.41-.63,2.87-1.28,4.27-2.01,3.45-1.8,7.81-4.96,8.95-9.74.97-4.08-.6-8.08-2.12-11.95-1.49-3.79-2.61-7.37-1.85-11.01Z"/><path class="cls-11" d="M261.68,122.36l-1.24-.02c.04-4.08,1.57-6.46,9.08-6.46h.17v1.23h-.18c-7.19,0-7.73,2.19-7.82,5.24Z"/><polygon class="cls-3" points="263.84 118.25 264.44 117.87 264.44 117.87 263.84 118.25"/><path class="cls-5" d="M263.95,118.12c.18-.09.42-.23.57-.38,0,0,.01-.02.02-.02-.56.19-1,.43-1.36.7.32-.11.65-.23.78-.29Z"/><path class="cls-5" d="M264.03,115.91c-.25-.08-1.68-.07-2.37.13-1.66.49-2.63,1.03-2.65,2.03-.03,1.21,1.39,1.12,1.39,1.12l.68-.17c.6-1.23,1.72-2.12,3.66-2.63-.12-.16-.32-.34-.7-.46Z"/><path class="cls-3" d="M264.52,117.74c-.15.15-.39.29-.57.38-.13.07-.46.18-.78.29-.67.5-1.04,1.13-1.24,1.86,2.05-.59,3.7-1.48,4.21-2.94-.62.1-1.14.22-1.6.38,0,0-.01.02-.02.02Z"/><path class="cls-11" d="M260.44,122.34l1.24.02c.02-.75.08-1.46.25-2.09-.44.13-.89.24-1.35.34-.09.54-.14,1.11-.14,1.73Z"/><path class="cls-1" d="M261.07,119.01l1.51-.38c.11-.04.35-.13.61-.21.36-.27.8-.51,1.36-.7.25-.27.53-.75.37-1.05-.03-.06-.09-.17-.18-.29-1.95.51-3.07,1.4-3.66,2.63Z"/><path class="cls-1" d="M269.52,115.88c-1.24,0-2.3.07-3.23.2.04.46-.01.88-.15,1.26.92-.14,2.03-.22,3.37-.22h.17v-1.23h-.17Z"/><path class="cls-1" d="M266.28,116.08c-.57.08-1.09.18-1.55.3.09.12.15.23.18.29.16.3-.13.78-.37,1.05.46-.15.99-.28,1.6-.38.13-.38.19-.8.15-1.26Z"/><path class="cls-3" d="M263.18,118.41c-.25.09-.49.17-.61.21l-1.53.39c-.23.48-.4,1.02-.49,1.61.46-.1.95-.22,1.38-.35.2-.73.57-1.36,1.24-1.86Z"/></svg>