<?xml version="1.0" encoding="UTF-8"?><svg xmlns="http://www.w3.org/2000/svg" viewBox="0 0 500 500"><defs><style>.cls-1{mix-blend-mode:multiply;}.cls-1,.cls-2{fill:#f2f2f2;}.cls-3{fill:#fff;}.cls-4{fill:none;}.cls-5{fill:#f9ecdf;}.cls-6{isolation:isolate;}.cls-7{fill:#9e9e9f;}.cls-8{fill:#4c4a4a;}.cls-9{fill:#d2d4ea;}.cls-10{fill:#f5e2d0;}.cls-11{fill:#dcdcdc;}.cls-12{fill:#aebfe2;}.cls-13{fill:#eeceb9;}.cls-14{fill:#ddeaf4;}</style></defs><g class="cls-6"><g id="_레이어_1"><rect class="cls-4" width="500" height="500"/><path class="cls-2" d="M400.27,228.86c-10.57-3.04-23.16-3.02-34.22-3.27-17.77-.41-35.01-.28-52.63,1.56-5.75.6-15.71,2.36-17.86,7.85-5.5,14.08,66.46,11.53,75.07,11.21,9.92-.36,33.84.07,36.75-9.58,1.21-4.01-2.18-6.36-7.11-7.78Z"/><path class="cls-2" d="M334.18,427.06c-19.1-5.85-41.86-5.81-61.84-6.3-32.12-.78-63.26-.55-95.11,3-10.39,1.16-28.4,4.54-32.27,15.11-9.93,27.1,120.09,22.18,135.66,21.58,17.93-.69,61.16.13,66.42-18.43,2.18-7.71-3.95-12.23-12.85-14.96Z"/><path class="cls-5" d="M68.37,252.85s9.02,1.16,13.64.72c0,0-1.95,4.37,4.46,5.1,6.41.73,9.96-3.75,9.23-7.49,0,0,17.19-3.74,20.66-18.12,0,0,8.11,1.42,10.2,6.45,0,0,9.51-2.54,9.94-14.93.33-9.49-7.9-14.71-7.9-14.71,0,0-6.38,2.3-10.28.78,0,0-2.89-18.98-22.74-25.84,0,0,.69-5.93-6-6.67-6.7-.74-8.22,1.19-8.01,3.02s4.79,5.18,4.79,5.18c0,0-11.59-.73-14.5,7.41-2.91,8.14-9.03,15.81-16.55,18.19,0,0,18.08,17.02,13.06,40.9Z"/><path class="cls-5" d="M144.34,360.7s.1-1.52.26-3.85c-1.19.05-2.38.1-3.57.11-3.5.05-7.05-.15-10.48-.87,0,2.46-.01,3.64-.01,3.64,0,0-4.39,5.16-3.7,13.52.69,8.36-6.77,22.72-3.17,23.56,3.6.84,5.47-7.78,5.47-7.78,0,0-1.5,6.34,1.2,6.73,2.7.38,4.91-11.76,4.91-11.76,0,0,1.13,5,3.28,4.62,2.15-.38.97-9.5.97-9.5l1.55-5.88s1.25.48,3.92,4.23c2.67,3.75,2.73,4.95,4.74,4.1,2-.85-1.35-10.86-1.35-10.86,0,0-1.73-7.91-4.01-10.04Z"/><path class="cls-5" d="M127.86,87.46s.04,1.08.11,3.35c4.61-1.02,9.28-1.42,13.98-1.42-.2-2.01-.32-3.29-.32-3.29,2.22-2.19,3.72-10.15,3.72-10.15,0,0,3.06-10.1,1.03-10.89-2.03-.79-2.05.41-4.62,4.24-2.56,3.83-3.8,4.34-3.8,4.34l-1.72-5.83s.92-9.15-1.24-9.47c-2.16-.31-3.14,4.72-3.14,4.72,0,0-2.56-12.07-5.25-11.61-2.69.46-1,6.76-1,6.76,0,0-2.12-8.56-5.69-7.61s4.29,15.08,3.85,23.46c-.44,8.38,4.09,13.41,4.09,13.41Z"/><path class="cls-5" d="M160.92,407.45l-4.5,12.95s2.01-.09,4.48,2.56c0,0-.27,2.97-2.67,4.67,0,0,9.46,3.27,16.57-4.83,0,0,.8-3.59,3.39-9.01-7.48-1.27-13.15-3.44-17.25-6.33Z"/><path class="cls-5" d="M317.77,396.96c1.7,3.48,3.1,7.24,4.01,11.5,0,0,4.24,4.56,8.59,6.25,0,0-.77-3.6,4.23-5.76,4.15-1.79,5.63-1.18,5.63-1.18l-6.87-17.86c-4.87,3.15-9.93,5.86-15.59,7.04Z"/><path class="cls-5" d="M303.04,216.43s6.99,1.01,5.79,4.93l6.46-3.66,20.02-33.73s-10.44-5.63-14.16-9.1l-18.12,41.56Z"/><path class="cls-5" d="M364.65,191.7s5.32,10.55,11.18,16.82,11.64,16.87,11.64,16.87c0,0,1.96,2.46,8.39,2.53l-2.29-2.6s2.84-1.8,4.5-1.94l-18.36-38.39s-7.74,5.94-15.06,6.71Z"/><path class="cls-5" d="M444.84,97.72l-9.33.99s-.51-4.69-5.71-3.56-2.74,5.97-2.74,5.97c0,0-15.63,4.79-16.23,23.52,0,0-4.84,1.7-3.72,7.07,1.12,5.37,5.82,5.5,5.82,5.5,0,0,2.86,14.09,21.25,16.86,0,0-.82,4.46,3.98,4.58s3.93-4.63,3.93-4.63l11.83-2.12-1.68-15.9,3.75-5.09-5.11.62-1.45-13.29,2.81-4.76-3.67,1.62-.49-2.76s1.73-2.44,3.77-3.06l-4.77-2.25-2.25-9.32Z"/><path class="cls-5" d="M398.98,89.02s.19-10.43.66-14.75c.46-4.32.55-12.5.55-12.5l-2.5-5.22s-2.57-5.15-1.22-6.09c1.36-.94,4.12,2.87,4.12,2.87l2.11.47s-1.28-8.56,0-8.82,1.75,2.14,1.75,2.14c0,0,1.03-5.47,2.5-5.56,1.47-.09,1.32,1.36,1.32,1.36,0,0,.17-3.45,2.15-3.08s.51,4.8.19,8.28c-.32,3.48.43,9.07-1.69,13.97,0,0,2.03,23.6,1.49,26.33,0,0-6.73-.87-11.42.61Z"/><path class="cls-5" d="M412.05,177.74s1.62,7.21,2.85,11.03c1.23,3.82,2.84,11.19,2.84,11.19l-1.41,6.41s-1.36,5.14.04,5.73,3.18-3.36,3.18-3.36l2.08-.78s.51,7.83,1.72,7.82.97-3.39.97-3.39c0,0,2.28,5.46,3.62,5.27s.61-2.19.61-2.19c0,0,1.44,2.91,3.16,2.21s-1.08-4.25-2.03-7.34c-.94-3.09-.73-8.35-3.56-12.38,0,0-2.01-20.86-3.01-23.22,0,0-6.57,3.46-11.07,3Z"/><path class="cls-10" d="M99,210.87c4.08.03,5.9-3.4,4.82-6.56-1.43-4.18-5.97-4.05-8.09-2.7-2.75,1.75-2.56,6.22-.22,8.24,1.02.88,2.26,1.01,3.49,1.02Z"/><path class="cls-10" d="M99,242.75c4.08.03,5.9-3.4,4.82-6.56-1.43-4.18-5.97-4.05-8.09-2.7-2.75,1.75-2.56,6.22-.22,8.24,1.02.88,2.26,1.01,3.49,1.02Z"/><path class="cls-13" d="M98.35,215.11s-3.69,6.19,0,13.43c0,0,8.97-.26,8.98-6.46,0-7.65-8.98-6.96-8.98-6.96Z"/><path class="cls-10" d="M428.79,136.66c-3.25.39-4.36,3.31-3.18,5.71,1.56,3.18,5.17,2.62,6.72,1.33,2.02-1.67,1.4-5.21-.66-6.59-.9-.6-1.9-.57-2.88-.46Z"/><path class="cls-10" d="M425.55,111.26c-3.25.39-4.36,3.31-3.18,5.71,1.56,3.18,5.17,2.62,6.72,1.33,2.02-1.67,1.4-5.21-.66-6.59-.9-.6-1.9-.57-2.88-.46Z"/><path class="cls-13" d="M428.88,133.22s2.31-5.31-1.36-10.7c0,0-7.12,1.12-6.5,6.06.77,6.09,7.86,4.64,7.86,4.64Z"/><path class="cls-7" d="M31.17,209.46s-7.74,13.71,1.13,28.24c8.86,14.53,23.88,21.05,23.88,21.05,0,0,7.18,4.11,7.03,8.93,0,0,17.64-35.09-7.9-54.57,0,0,9.55-4.06,13.84-13.35,4.29-9.29,5.12-12.55,17.22-13.41,0,0-8.89-4.75-2.8-7.78,0,0-8.62-5.96-23.61-3.5-14.99,2.46-22.13,11.93-23.26,16.27,0,0-1.31-5.71-7.1-4.52-5.79,1.19-6.9,3.86-8.33,8.2-.98,2.97-1.07,15.44,9.92,14.43Z"/><path class="cls-7" d="M441.54,156.51s18.55,3.49,28.54-6.22c9.98-9.71,9.39-22.65,7.21-28.58,0,0,1.78-23.56-21.1-28.85,0,0-7.9-1.86-21.49,2.89l1.07,3.03s8.16-.99,9.46.37l1.51,8.51s3.35.08,5.1,1.81c0,0-3.31,1.88-3.97,3.1l.78,2.94s1.76-1.69,3.74-1.94c0,0-2.97,3.68-2.97,5.66l2.01,12.25,4.48-.42-4.08,5.12,1.62,14.65s-7.52,2.37-11.75,2.71c0,0,.33.91-.16,2.99Z"/><path class="cls-12" d="M245.35,222.56s-38.23-33.05-88.93-37.28l-11.58-95.08s-7.06-2.8-20.08,1.81l2.29,45.48,1.41,30.08s-1.59,39.85.16,42.31c0,0,8.8,3.22,8.47,16.27-.24,9.32-10.51,13.36-10.51,13.36,0,0-1.82,13.45.59,29.82.94,6.38,1.06,27.26.72,46.22-.37,21.21-1.3,38.85-1.3,38.85,0,0,9.32,3.39,23.12,1.93,0,0,5.61-87.66,6.71-91.8,0,0,13.1,8.67,17.94,9.63s7.97-.13,7.97-.13c0,0,4.5,3.95,5.48,7.4s3.42,3.78,3.42,3.78c0,0,3.59-3.74,11.24-7.47,7.65-3.73,34.08-18.15,38.23-42.6l4.66-12.57Z"/><path class="cls-14" d="M239.45,286.34s21.17,20.87,38.46,47.54c18.11,27.95,32.42,61.81,34.49,63.68,0,0,13.99-.74,23.25-10.73l-41.92-95.96s-22.1-54.59-49.61-64.03c0,0-1.94,3.69-3.12,7.3-1.42,4.35-5.49,18.63-14.27,26.72-10.24,9.44-18.72,13.94-24.57,17.15-5.85,3.21-10.69,6.95-10.69,6.95,0,0-9.32,41.35-12.47,53.02-3.1,11.51-18.97,58.9-20.9,66.53,0,0,6.14,8.19,24.04,9.94,0,0,12.82-25.93,18.35-41.19s17.59-42.28,23.38-54.1c5.79-11.82,15.57-32.83,15.57-32.83Z"/><path class="cls-3" d="M382.61,176.01c-12.49-.26-24.21-10.63-29.81-16.05-5.19-5.02-12.23-12.65-14.19-23.92,0,0,10.26-13.64,50.93-24.51l-2.61-18.89s9.43-6.6,26.67-3.61l1.3,21.81s-4.48,7.16-4.07,13.8c0,0-4.83,1.13-3.63,7,1.21,5.86,5.91,5.19,5.91,5.19,1.62,6.87,8.08,12.18,8.08,12.18.88,5.62,3.64,24.83,3.64,24.83,0,0-8.29,5.01-22.11,5.12,0,0-2.47-10.15-3.58-12.66,0,0-2.07,2.13-5.81,2.75-3.13.52-7.07.33-7.07.33l-3.65,6.64Z"/><path class="cls-14" d="M338.93,138.37s-5.74,3.04-8.92,8.17c-3.18,5.13-13.47,23.29-13.47,23.29,0,0,2.64,6.58,23.47,16.89,0,0,7.05-6.46,8.1-9.32,0,0,2.15,3.86,4.81,7.59,2.66,3.73,5.86,8.45,5.86,8.45,0,0,18.05-4.52,23.71-10.95l-3.76-6.74s-14.98-4.09-25.49-14.94c-10.01-10.34-14.3-22.45-14.3-22.45Z"/><path class="cls-3" d="M150.33,419.8s-6.7,6.87-13.28,10.32c-6.58,3.44-18.1,5.92-19.91,13.51-1.81,7.6,8.26,10.22,15.2,9.97,6.93-.26,18.5-6.65,23.42-7.73,4.92-1.08,18.69-3.76,20.83-8.88,2.13-5.11.15-10.47-1-13.73,0,0-3.44,6.41-18.1,4.76l3.85-3.61s-1.83-5.16-11.01-4.61Z"/><path class="cls-3" d="M320.63,407.92s-4.64,10.01,2.04,16.2c6.68,6.19,8.73,7.8,13.31,13.6,4.58,5.8,10.19,10.27,17.31,10.51,7.12.24,10.67-4.04,11.12-7.72s-8.77-13.39-8.77-13.39c0,0-9.36-10.17-10.56-14.4-1.2-4.23-2.83-5.32-5.72-4.93-2.89.39-10.29,1.96-9.27,6.85,0,0-5.69-1.37-9.45-6.71Z"/><path class="cls-3" d="M300.41,217.64l-1.2,2.08s-4.37,5.46-9.86,10.46c-5.5,5-.82,8.51,2.29,9.42,3.11.91,8.51.33,13.66-5.46s7.49-5.71,9.19-8.13c1.7-2.41.39-7.98.39-7.98,0,0-2.9,2.75-6.15,3.32,0,0,1-2.21-2.71-3.72-4.93-2-5.6,0-5.6,0Z"/><path class="cls-3" d="M386.73,224.78s-2.93,7.1,1.75,9.8c0,0,1.89,1.11,4.62,1.43s7.63,2.26,8.91,3.03c1.28.77,7.83,2.78,11.2-1.17,3.37-3.95.92-6.24-1.5-7.32s-8.65-4.09-11.25-8.07c0,0-3.73.36-5.77,3.17l1.86,1.95s-3.65,2.22-9.84-2.81Z"/><path class="cls-9" d="M127.93,434.25s10.9,2.7,12.77,12.78l16.22-6.99s15.25-2.01,20.48-6.99c0,0,.32-5.33-2.24-9.68,0,0-4.57,7.49-17.76,4.7l3.94-3.67s-1.62-5.28-11.01-4.61c0,0-3.63,4.19-8.57,7.36-4.46,2.86-13.83,7.09-13.83,7.09Z"/><path class="cls-9" d="M321.03,407.78s-1.83,4.53-1.75,6.85c0,0,2.5,4.28,8.14,8.37,5.64,4.08,12.9,15.35,16.1,16.36,0,0,5.16-9.37,17.43-6.44,0,0-12.79-13.68-14.1-16.16s-2.21-8.56-5.6-8.98c-3.39-.42-12.57,2.05-11.38,6.79,0,0-6.42-2.36-8.84-6.79Z"/><path class="cls-11" d="M299,219.99s-5.78,6.74-7.77,8.05c0,0,7.51,1.54,8.68,7.1,0,0,4.06-5.18,7.74-7.06s7.65-4.57,7.65-4.57c0,0,.4-3.67-.41-5.48,0,0-2.58,2.54-6.11,3.62,0,0,.98-1.79-1.13-3.11-2.11-1.32-6.66-4.17-8.65,1.44Z"/><path class="cls-11" d="M387.02,224.78s-2.19,3.54-.95,6.57c0,0,3.36,1.26,6.76,1.33s10.1,3.71,10.1,3.71c0,0,.62-4.36,5.47-7.31,0,0-5.12-2.62-7.92-6.01,0,0-2.98-.32-5.93,2.39l2.49,2.45s-7.34.82-10.01-3.14Z"/><path class="cls-12" d="M156.41,264.53s-23.62-8.83-25.17-21.78c0,0,10.61-5.29,10.5-16.6-.11-11.31-8.44-18.15-9.76-18.95,0,0,1.23-16.14,24.43-21.92"/><path class="cls-3" d="M156.49,185.26c-22.49,5.94-24.51,21.91-24.51,21.91,1.33.8,9.65,7.64,9.76,18.95.11,11.31-10.5,16.6-10.5,16.6,3.15,16.03,23.83,21.39,23.83,21.39,0,0,14.44,9.06,19.28,10.02,4.84.96,7.97-.13,7.97-.13,0,0,4.5,3.95,5.48,7.4.98,3.45,3.42,3.78,3.42,3.78,0,0,3.59-3.74,11.24-7.47,7.65-3.73,34.08-18.15,38.23-42.6l4.66-12.57s-38.19-33.01-88.86-37.27Z"/><path class="cls-1" d="M156.41,265.33c-.48-2.12-4.64-1.29-4.96-.07-2.01,7.6-6.56,80.56-7.24,88.37-.32,3.64,5.64,3.66,5.85.69.27-3.98,2-30.53,3.44-52.33,1.25-18.82,3.67-33.26,2.91-36.65Z"/><path class="cls-1" d="M155.52,170.45c-.51-5.23-9.09-74.17-10.71-79.17-.58-1.77-3.98-1.78-4.22.26-.55,4.7,8.64,72.88,8.94,77.59.34,5.31.4,10.73,1.3,15.97.43,2.52,5.47,2.18,5.55-.34.15-4.77-.4-9.57-.87-14.32Z"/><path class="cls-1" d="M361.72,188.73c-1.53-2.29-3.28-4.44-4.8-6.74-1.47-2.22-2.75-4.56-4.52-6.57-1.25-1.42-4.54-.36-3.87,1.76,1.6,5.05,5.36,10.3,8.94,14.19,1.73,1.88,5.87-.21,4.25-2.63Z"/><path class="cls-1" d="M335.32,183.97c-2.09-1.04-6.33-3.6-8.35-4.78-1.74-1.02-3.42-2.39-5.38-2.94-1.5-.42-2.52,2.23-1.76,3.28,1.6,2.21,4.35,3.26,6.04,5.38,2.46,3.08-.16,5.88-1.81,8.64-1.26,2.11-2.46,4.27-3.69,6.4-3.23,5.59-8.7,13.86-11.05,19.87-.75,1.93,3.91.24,5.56-1.78,3.73-4.56,5.18-9.66,8.13-14.75,3.07-5.28,9.63-13.83,12.3-19.32Z"/><path class="cls-1" d="M394.98,226.61c-2.21-3.82-7.32-11.5-10.19-14.87-2.87-3.37-6.21-6.24-8.91-9.78-1.73-2.27-3.75-5.13-1.51-7.81,1.56-1.87,5.5-1.61,6.5-3.67.81-1.67-1.08-4.29-2.95-3.61-3.89,1.4-8.2,2.52-11.83,4.5-4.3,2.34,14.53,23.11,15.81,24.82,2.28,3.03,4,6.42,6.16,9.53,1.82,2.63,8.35,3.36,6.92.89Z"/><path class="cls-1" d="M404.78,171.61c-.55-1.99-1.03-4.15-2.42-5.72-.55-.62-2.47-1.8-2.91-.37-.55,1.78.43,3.81.88,5.53.55,2.06.85,4.26,1.81,6.17.63,1.25,3.59,2.81,3.82.48.2-1.98-.67-4.2-1.19-6.09Z"/><path class="cls-1" d="M390.88,93.05c-.98-2.26-3.25.84-3.18,2.17.14,2.76.67,5.46,1.14,8.18.46,2.66.53,5.5,1.39,8.05.88,2.6,3.62-.71,3.81-2,.73-5.12-1.11-11.69-3.16-16.39Z"/><path class="cls-3" d="M335.29,384.71c-5.21-11.33-18.8-38.88-31.03-69.76-17.45-44.08-38.97-81.53-57.37-86.59-4.58-1.26-7.55,4.38-4.24,6.06,33.99,17.26,74.78,131.06,85.96,153.47,2.12,4.25,8.68,1.17,6.68-3.18Z"/><path class="cls-3" d="M334.42,140.69c-6.12,8.63-11.79,17.53-17.03,26.71-2.34,4.11,3.7,8.38,6.06,4.24,5.24-9.19,10.91-18.09,17.03-26.71,2.76-3.89-3.3-8.13-6.06-4.24Z"/><path class="cls-1" d="M410.37,85.45c-3.33-1-7.86-.43-11.04.87-.95.39-.95,1.88.24,1.81,1.66-.1,3.31-.4,4.98-.5,1.71-.1,3.41.13,5.1.03,1.17-.07,2.27-1.76.73-2.22Z"/><path class="cls-1" d="M420.85,175.56c-2.53.67-5.18,1.5-7.48,2.75-1.76.95-1.09,3.84,1,3.6,2.57-.29,5.23-1.16,7.65-2.06,2.84-1.05,1.91-5.11-1.17-4.3Z"/><path class="cls-1" d="M474.26,133.68c-2.13,6.1-4.79,11.15-10.62,14.52-6.24,3.61-12.84,3.69-19.72,4.9-2.51.44-2.81,4.44-.04,4.75,14.09,1.58,34.57-6.66,34.54-23.24,0-2.07-3.41-3.07-4.16-.94Z"/><path class="cls-1" d="M78.25,176.21c-16.28-3.04-33.37.52-42.19,14.36-2.68-3.03-6.99-3.88-11.11-.91-1.98,1.42,1.57,2.93,2.58,3.39,2.55,1.16,4.57,1.85,6.73,3.73,3.85,3.34,5.03-1.83,7.11-4.54,2.72-3.56,6.34-6.3,10.41-8.13,8.33-3.75,17.98-3.87,26.88-2.63,3.81.53,2.87-4.66-.42-5.27Z"/><path class="cls-2" d="M187.23,272.66c-1.37-1.81-3.48,1.93-2.75,3.35.74,1.44,1.7,2.62,2.74,3.85,1.01,1.21,1.43,2.65,2.32,3.86,1.49,2.03,3.35-.55,3.48-2.15.3-3.65-3.83-6.33-5.79-8.91Z"/><path class="cls-2" d="M384.1,166.98c-2.41,1.14-4.81,4.53-4.76,7.2.03,1.86,2.11,2.55,3.52,1.76,1.17-.66,1.67-1.89,2.4-2.98.76-1.13,1.44-2.05,1.77-3.38.38-1.52-1.42-3.31-2.93-2.6Z"/><path class="cls-1" d="M232.67,285.34c-11.64,19.45-21.88,39.69-30.59,60.61-4.27,10.27-7,17.67-10.21,28.25-3.23,10.65-8.48,25.12-14.8,34.26-2.71,3.93,4.67,8.14,6.39,3.73,4.11-10.54,11.43-20.93,14.84-31.03,3.5-10.35,6.77-21.66,11.24-31.68,10.34-23.19,18.23-38.34,29.53-60.42,2.17-4.25-3.94-7.82-6.39-3.73Z"/><path class="cls-8" d="M436.63,98.25c-.11-1.25-.76-2.53-1.77-3.29-1.08-.82-2.49-1.23-3.84-1.28-2.18-.08-4.44,1.19-5.23,3.28-.45,1.19-.47,2.46-.29,3.71.11.71.84,1.25,1.54,1.13.75-.13,1.01-.84.78-1.51-.04-.14-.05-.15-.02-.04-.02-.08-.03-.15-.04-.23-.02-.13-.04-.26-.05-.39,0-.06,0-.11-.01-.17,0,.11,0,.09,0-.04,0-.13.02-.25.04-.38,0-.04.08-.39.03-.19.04-.14.08-.27.13-.4.04-.1.08-.19.13-.29.02-.05.24-.41.09-.19.27-.4.54-.79.9-1.12-.2.18.04-.02.08-.06.11-.08.22-.16.34-.24.09-.06.18-.1.27-.16.12-.06.13-.06,0,0,.07-.03.13-.06.2-.08.24-.09.48-.16.73-.21-.22.05.15-.02.2-.02.13-.01.27-.02.4-.02.04,0,.48.02.29,0,.12.01.25.03.37.05.17.03.34.07.5.11,0,0,.35.11.21.06.3.1.61.23.88.4-.18-.12.18.16.22.19.21.18-.04-.09.1.11.2.31.18.21.32.55s.14.39.22.77c.14.6.66,1.1,1.3,1.07s1-.55.95-1.15h0Z"/><path class="cls-8" d="M437.96,157.76c-2.78.13-2.61-3.27-2.61-3.27.15-.62-.21-1.4-.88-1.52-.61-.11-1.39.29-1.46.98-.23,2.2.44,4.62,2.6,5.63,2.2,1.03,4.72.39,6.4-1.29,1.13-1.13,1.66-2.95,1.13-4.47-.2-.57-.76-.95-1.36-.74s-.86.86-.74,1.46h0s.37,3.07-3.08,3.23Z"/><path class="cls-8" d="M467.13,151.64c-7.16,4.71-15.97,5.28-24.24,3.98-1.45-.23-2.52,2.07-.86,2.32,8.91,1.37,18.48.73,26.19-4.36,1.36-.9.3-2.86-1.09-1.95h0Z"/><path class="cls-8" d="M476.68,122.13c2.31,10.81.11,22.94-9.55,29.49-1.36.92-.28,2.91,1.1,1.97,10.56-7.24,13.48-20.13,10.89-32.15-.31-1.46-2.73-.68-2.44.69h0Z"/><path class="cls-8" d="M434.91,96.48c5.35-1.87,10.95-3.29,16.66-3.22,5.63.07,10.49,1.92,14.81,5.5,3.01,2.49,5.72,5.31,7.48,8.83,2.21,4.4,2.76,9.39,2.8,14.25.01,1.56,2.48,1.29,2.47-.11-.05-5.27-.65-10.62-3.05-15.38-1.93-3.83-4.95-6.93-8.25-9.61-9.72-7.9-22.25-6.31-33.34-2.37-1.39.49-1.1,2.64.42,2.1h0Z"/><path class="cls-8" d="M435.11,129.54c.54-.09,1.05-.3,1.42-.72.42-.49.68-1.03.81-1.67.2-1.01-.13-2.25-.99-2.87-.31-.23-.6-.36-.97-.46-.12-.03-.24-.06-.37-.08-.29-.04-.55,0-.81.13-.7.35-.71,1.54-.03,1.9.28.15.6.14.9.22l-.23-.07c.16.05.3.12.45.2.12.06-.19-.14-.08-.06.03.02.06.04.08.07.06.05.11.1.16.15.11.11-.11-.14-.07-.09.02.03.04.05.06.08.04.06.08.12.12.18,0,0,.02.05.03.06s-.1-.24-.08-.16c.01.03.03.06.04.09.03.07.04.14.06.21.04.14-.05-.29-.03-.14,0,.03.01.07.02.1,0,.07.01.15.02.22-.02-.3.01-.21,0-.03,0,.07-.02.15-.04.22,0,.07.09-.31.03-.15-.01.03-.02.07-.03.1-.02.05-.09.17-.08.21,0-.05.14-.28.05-.1-.02.03-.04.06-.05.09-.01.02-.12.2-.14.19-.01,0,.16-.18.1-.12-.02.02-.03.04-.05.06-.03.03-.06.06-.09.09,0,0-.27.33-.1.13.11-.14.04-.05.02-.02-.03.03-.06.07-.1.1-.07.07-.15.14-.22.22-.05.06.08-.06.08-.06-.02.01-.05.03-.07.05-.05.03-.1.06-.15.09-.35.21-.5.64-.42,1.03.08.36.36.67.76.6h0Z"/><path class="cls-8" d="M435.47,117.12c2.18-.17,2.59-2.96.76-3.64-1.28-.47-3.42.45-3.18,2.07.17,1.17,1.35,1.65,2.42,1.57Z"/><path class="cls-8" d="M438.8,139.01c2.18-.17,2.59-2.96.76-3.64-1.28-.47-3.42.45-3.18,2.07.17,1.17,1.35,1.65,2.42,1.57Z"/><path class="cls-8" d="M427.41,123.76s.46-.04.23-.05l.08.06c-.1-.1-.11-.1-.03-.01-.02-.03-.12-.21-.05-.06.09.2-.09-.24-.03-.06.09.27.23.53.32.8.36.99.59,2.02.74,3.06.16,1.1.24,2.22.15,3.34-.07.83-.1,1.49-.96,1.77s-1.94.13-2.83-.1c-.38-.1-.66-.19-1-.36s-.59-.33-.82-.53c-.19-.17-.44-.47-.58-.69-.25-.4-.42-.81-.55-1.26-.25-.85-.39-1.76-.08-2.61.79-2.19,3.23-3.25,5.41-3.3.53-.01.66-.58.51-1-.18-.48-.68-.95-1.22-.94-2.52.05-5.26,1.26-6.33,3.68-.99,2.24-.08,5.28,1.57,7,1.62,1.69,4.39,2.55,6.69,2.06.51-.11,1.03-.32,1.39-.7.4-.41.52-.93.6-1.48.2-1.35.14-2.76-.03-4.11-.19-1.5-.53-3.04-1.12-4.43-.49-1.15-1.41-2.12-2.77-2.01-1.23.1-.24,2.01.72,1.94h0Z"/><path class="cls-8" d="M443.23,113.07c.12.12.22.25.33.38.05.06.09.14.15.2l-.08-.12s.03.05.05.08c.02.03.04.07.05.1.04.07.07.15.11.23.02.04.03.09.05.13.06.15-.07-.22-.02-.06s.08.33.11.5c.02.15,0-.2,0-.09,0,.05,0,.09,0,.14,0,.08,0,.17,0,.25,0,.05,0,.09-.01.14-.02.15.04-.19.01-.08-.02.08-.04.16-.06.24-.01.04-.03.08-.04.13-.05.16.1-.2.02-.05-.03.07-.07.13-.11.2-.05.09-.1.19-.14.29-.02.06-.08.21.02-.05-.07.16-.13.29-.12.47,0,.09.02.19.03.28.04.34.37.59.69.63.74.1,1.16-.7,1.32-1.29.14-.51.15-1.03.07-1.56-.14-.97-.72-2.02-1.66-2.38-.74-.29-1.27.76-.76,1.29h0Z"/><path class="cls-8" d="M446.36,134.22c0,.27.11.41.27.62-.22-.28.05.07.14.16.12.12-.12-.17-.04-.05.02.03.04.06.06.08.05.07.09.14.13.22.02.03.03.07.05.1.07.14-.09-.22-.03-.07.03.09.06.17.09.26.02.08.04.15.06.23.01.05.02.11.03.16.03.15-.02-.22,0-.07.01.18.02.35.01.53,0,.04,0,.08,0,.12-.01.15.04-.25,0-.04-.01.08-.03.15-.05.23-.01.04-.03.08-.04.13-.06.18.1-.2.03-.07-.03.06-.06.13-.1.19-.11.18.15-.16.04-.06-.02.02-.05.05-.07.08-.09.1-.18.24-.25.36-.17.3-.14.67.08.94.23.28.57.33.92.25.64-.15,1.03-.84,1.19-1.43.15-.53.13-1.08.04-1.62-.08-.44-.25-.92-.53-1.28-.17-.22-.39-.48-.66-.61-.18-.09-.38-.15-.58-.13-.4.03-.78.35-.78.77h0Z"/><path class="cls-8" d="M444.27,99.31c.7,2.83.96,5.65,1.49,8.52.06.35.45.8.83.81.93.03,1.86.19,2.75.45.42.12.82.27,1.22.44.33.14.83.39,1.02.54,1.1.85,2.02-.77,1.29-1.69s-1.76-1.33-2.78-1.68c-.97-.33-2-.55-3.02-.62l.88,1.14c-.02-.14-.04-.29-.07-.43-.02-.15-.05-.3-.07-.44.02.13.02.12,0-.03-.06-.35-.11-.71-.17-1.06-.13-.81-.25-1.61-.39-2.42-.25-1.48-.49-2.98-.96-4.4-.19-.56-.75-.95-1.34-.7s-.83.98-.68,1.58h0Z"/><path class="cls-8" d="M452.05,108.27c-.73.18-1.44.52-2.08.91-.69.42-1.39.92-1.96,1.5-.29.3-.57.62-.81.97-.08.12-.16.25-.23.38-.14.26-.25.51-.18.81.03.15.12.32.19.46.14.31-.05-.17.06.14.03.1.06.2.09.3.06.19.1.39.15.59.1.44.18.89.28,1.34.3,1.3,2.38.58,2.17-.64-.19-1.07-.31-2.11-.72-3.13l-.08,1.07c.11-.17.22-.33.35-.49.03-.04.07-.08.1-.13-.12.13-.13.15-.04.05.08-.08.16-.17.24-.25.32-.32.64-.64,1-.92.1-.08.19-.15.29-.23.11-.08.1-.07-.03.02.05-.04.1-.07.15-.1.17-.12.35-.23.53-.33.19-.11.39-.21.59-.31.12-.05.1-.04-.06.03.05-.02.09-.04.14-.05.09-.03.18-.06.27-.09.5-.15,1.02-.7.87-1.26s-.72-.76-1.26-.63h0Z"/><path class="cls-8" d="M450.5,118.67c.04-.21-.07.27-.02.09.03-.12.06-.24.1-.37.13-.44.34-.85.51-1.28-.12.3-.03.07,0,0,.03-.07.07-.13.11-.2.08-.14.16-.28.24-.41.2-.32.42-.63.64-.93.17-.22-.16.19.02-.02.07-.09.14-.17.22-.26.14-.15.28-.31.42-.45.15-.15.31-.3.47-.45.04-.04.36-.32.12-.11.1-.09.21-.17.31-.25.34-.26.64-.62.61-1.07-.03-.38-.36-.66-.75-.65-1.03.01-2.05.33-2.98.78-.95.47-1.84,1.04-2.61,1.77-.34.31-.56,1.03-.08,1.33.52.33,1.13.04,1.53-.32.04-.03.07-.06.11-.09-.15.12-.17.14-.07.06.06-.05.12-.1.18-.14.15-.11.31-.22.47-.33.17-.11.34-.21.52-.31.12-.07.1-.06-.05.03.05-.03.1-.05.16-.08.09-.05.18-.09.28-.14.19-.09.37-.17.57-.24.09-.04.19-.07.28-.11.05-.02.11-.04.16-.06-.14.04-.17.05-.09.03.18-.05.37-.1.56-.13.09-.02.18-.03.27-.04.12-.01.1-.01-.06,0,.05,0,.1,0,.15,0l-.14-1.72c-1.5,1.2-2.72,2.64-3.56,4.38-.33.68-.6,1.41-.72,2.16-.09.55.55.82,1,.72.58-.13,1.04-.56,1.14-1.15h0Z"/><path class="cls-8" d="M448.26,118.92c.71,4.24,1.42,8.49,2.04,12.74.09.59.61,1.21,1.28,1.12,1.57-.23,3.23-.33,4.76-.73,1.29-.34.83-2.16-.42-2.13-1.49.03-3,.37-4.48.57l1.28,1.12c-.58-4.26-1.38-8.5-2.12-12.74-.11-.62-.58-1.1-1.24-1.08-.55.01-1.21.52-1.11,1.14h0Z"/><path class="cls-8" d="M450.63,136.24c.33,2.4.5,4.82.73,7.23.13,1.37.26,2.75.42,4.12.14,1.27.24,2.58.66,3.79.33.95,2.25.96,2.25-.19,0-1.24-.28-2.48-.42-3.71-.16-1.41-.3-2.82-.44-4.23-.23-2.41-.41-4.83-.74-7.23-.2-1.41-2.66-1.34-2.45.21h0Z"/><path class="cls-8" d="M455.08,130.34c-.67.8-1.44,1.52-2.14,2.3-.85.94-1.63,1.91-2.26,3.01-.14.24-.07.64.04.88.13.28.42.54.71.65.65.24,1.27.05,1.6-.56.03-.06.09-.14.11-.2-.04.11-.1.17-.01.02.07-.11.14-.23.22-.34.16-.24.33-.47.51-.71.36-.47.73-.93,1.11-1.38.66-.77,1.34-1.52,1.92-2.36.76-1.1-.98-2.3-1.81-1.32h0Z"/><path class="cls-8" d="M472.6,115.65c.05-1.9-.86-3.72-1.88-5.27-.55-.83-1.21-1.58-1.94-2.26-.65-.61-1.35-1.12-2.22-1.33-.42-.1-.89-.02-1.17.35-.22.29-.27.77.1.99,1.43.86,2.49,2,3.45,3.36.94,1.33,1.78,2.91,2.08,4.53.07.37.6.45.89.38.35-.09.68-.36.69-.75h0Z"/><path class="cls-8" d="M472.34,119.58c-.84-1.27-1.94-2.28-3.15-3.2-.57-.43-1.17-.82-1.79-1.18s-1.26-.75-1.95-.93c-.42-.11-.92-.05-1.17.36s-.07.8.29,1.05c.49.36,1.06.62,1.59.92.6.35,1.18.73,1.76,1.13,1.1.75,2.1,1.53,2.97,2.61.25.32.8.36,1.13.17.31-.17.55-.59.32-.94h0Z"/><path class="cls-8" d="M471.81,122.75c-.98-.08-1.96.05-2.88.4-.44.17-.88.38-1.27.65-.18.12-.34.26-.5.4-.1.1-.22.21-.29.34-.05.1-.08.2-.14.3-.34.58.66,1.7,1.24,1.22.03-.02.07-.06,0-.03.06-.03.14-.06.2-.09.11-.06.19-.13.28-.21.15-.12.3-.24.46-.35.09-.06.18-.11.26-.17.04-.02.08-.05.12-.07,0,0,.16-.09.1-.06-.05.03.06-.03.08-.04.05-.03.11-.05.16-.08.1-.05.2-.09.3-.13.39-.17.8-.28,1.21-.4.44-.12.73-.17,1.17-.19.39-.02.53-.4.4-.74-.14-.39-.49-.73-.91-.76h0Z"/><path class="cls-8" d="M471.79,127.24c-.1.42-.22.83-.36,1.23-.04.1-.07.21-.11.31-.02.05-.04.1-.06.16.04-.09.04-.09,0,.01-.08.19-.17.39-.25.58-.35.82-.78,1.61-1.27,2.36-.23.35-.09.88.21,1.14s.8.31,1.06-.02c1.22-1.51,2.05-3.28,2.46-5.18.1-.46-.11-1.04-.6-1.18-.46-.14-.95.12-1.07.6h0Z"/><path class="cls-8" d="M436.87,99.67c.98-.14,1.96-.24,2.94-.33.26-.02.51-.04.77-.06.15-.01.29-.02.44-.03.14,0,.15-.01.03,0,.07,0,.15,0,.22-.01.54-.03,1.07-.06,1.61-.07s1.18-.36,1.2-.99c.02-.55-.41-1.15-1.01-1.14-2.21.05-4.42.24-6.61.55-.56.08-1.02.7-.89,1.26.15.61.7.91,1.3.83h0Z"/><path class="cls-8" d="M421.59,147.85c-8.31-6.67-10.87-18.63-8.8-28.72,1.11-5.39,3.66-10.39,8.16-13.7,4.62-3.4,10.34-4.83,15.91-5.76,1.41-.23,1-2.32-.41-2.09-5.97,1-12.02,2.62-16.95,6.27-4.76,3.52-7.51,8.79-8.77,14.49-2.45,11.09.52,23.95,9.62,31.25,1.05.84,2.31-.87,1.23-1.75h0Z"/><path class="cls-8" d="M450.74,151.24c-9.32,2.52-21.21,2.94-29.15-3.39-1.05-.84-2.32.88-1.23,1.75,8.36,6.66,20.96,6.34,30.78,3.68,1.33-.36.95-2.4-.4-2.04h0Z"/><path class="cls-8" d="M352.75,161.61c7.82,7.61,18.31,15.99,29.88,15.3,1.38-.08,1.34-1.78-.04-1.81-10.99-.29-20.47-7.76-28.01-15.07-1.02-.99-3.02.42-1.83,1.59h0Z"/><path class="cls-8" d="M337.04,136.44c2.54,9.92,8.49,18.09,15.71,25.18,1.01.99,3.02-.42,1.83-1.59-6.96-6.81-12.6-14.67-15.03-24.22-.34-1.33-2.88-.82-2.51.63h0Z"/><path class="cls-8" d="M350.6,125.89c-4.8,2.74-9.88,5.35-13.44,9.7-.42.51-.02,1.23.5,1.47.63.29,1.35.1,1.78-.43,3.28-4,8.11-6.39,12.52-8.91,1.47-.84-.08-2.57-1.36-1.84h0Z"/><path class="cls-8" d="M389.56,110.91c-13.83,2.93-26.71,7.97-38.96,14.98-1.47.84.08,2.56,1.35,1.84,5.91-3.36,11.92-6.55,18.27-9.01,6.49-2.52,13.21-4.32,19.87-6.34,1.16-.35.55-1.7-.52-1.47h0Z"/><path class="cls-8" d="M385.56,92.9c1.03,6.28,1.16,12.89,3.15,18.97.38,1.16,2.45.81,2.22-.45-1.16-6.32-1.67-12.72-2.75-19.05-.25-1.46-2.87-.93-2.63.53h0Z"/><path class="cls-8" d="M414.02,88.04c-5.15-.74-10.46-.49-15.64-.08-4.28.34-8.77,1.41-12.37,3.85-1.45.98.47,2.5,1.72,1.64,3.24-2.22,7.5-3.1,11.35-3.34,4.79-.3,9.6-.69,14.38-.05,1.22.16,1.94-1.83.55-2.03h0Z"/><path class="cls-8" d="M415.31,111.55c.81-7.47-.87-15.01-.33-22.49.12-1.62-2.71-1.58-2.77-.08-.15,3.66.24,7.37.49,11.02.26,3.81.61,7.66.61,11.48,0,1.16,1.88,1.15,2,.05h0Z"/><path class="cls-8" d="M425.8,174.07c-.05-8.32-1.89-16.6-3.45-24.74-.27-1.42-2.25-.96-2.11.41.82,8.07,3.02,15.99,3.12,24.14.02,1.63,2.45,1.81,2.44.18h0Z"/><path class="cls-8" d="M403.09,179.9c3.82-.02,7.66-.22,11.41-.97s7.41-2.15,10.81-4c1.43-.78-.2-2.59-1.46-1.9-3.22,1.77-6.61,3.07-10.21,3.81-3.54.73-7.17.9-10.78.93-1.6.01-1.27,2.14.22,2.14h0Z"/><path class="cls-8" d="M398.34,166.66c.82,4.25,2.12,8.37,3.47,12.48.43,1.32,2.95.78,2.34-.62-.83-1.9-1.39-3.94-1.98-5.92s-1.17-3.98-1.63-6.01c-.13-.56-.6-.95-1.2-.93-.49.01-1.11.42-1,.99h0Z"/><path class="cls-8" d="M340.91,187.72c1.44-1.71,3.09-3.2,4.61-4.83,1.52-1.64,2.81-3.35,3.74-5.4.22-.49-.06-1.2-.44-1.52-.35-.29-.92-.4-1.2.08-1.02,1.77-2.28,3.31-3.74,4.73-1.64,1.61-3.28,3.2-4.78,4.94-.45.53-.15,1.52.27,1.98.47.51,1.1.55,1.54.02h0Z"/><path class="cls-8" d="M315.7,170.83c2.75,4.24,7.5,7.23,11.71,9.88,4.02,2.54,8.21,4.79,12.29,7.24,1.51.9,1.92-1.65.77-2.36-3.89-2.38-7.89-4.58-11.77-6.97-1.88-1.16-3.71-2.42-5.51-3.71-2.14-1.53-4.36-3.2-5.81-5.43-1.01-1.54-2.55,0-1.67,1.36h0Z"/><path class="cls-8" d="M338.58,137.33c-5.95,2.52-9.34,7.92-12.54,13.25-3.69,6.14-8.46,11.91-10.53,18.86-.39,1.3,1.57,3.12,2.06,1.43,1.95-6.64,6.5-12.1,9.96-17.99,3.02-5.13,6.18-10.75,11.75-13.47.97-.47.3-2.51-.7-2.08h0Z"/><path class="cls-8" d="M358.97,194.47c8.61-1.84,18.09-4.2,24.16-11.06.82-.92-.23-2.84-1.3-1.83-6.34,5.99-14.96,8.29-23.26,10.12-1.57.34-1.18,3.11.4,2.77h0Z"/><path class="cls-8" d="M347.62,177.56c1.65,2.73,2.89,5.7,4.55,8.43,1.69,2.77,3.85,5.24,5.63,7.95,1,1.53,2.87-.34,1.93-1.72-1.83-2.67-4.05-5.07-5.8-7.8-1.71-2.67-3.05-5.57-4.79-8.22-.31-.47-.96-.57-1.39-.21-.47.4-.42,1.09-.13,1.57h0Z"/><path class="cls-8" d="M377.57,177.04c.63,1.06,1.25,2.13,1.88,3.2.58.98,1.14,2.01,1.82,2.93.43.58,1.25.88,1.92.48.57-.35.97-1.21.5-1.82-.7-.91-1.28-1.92-1.88-2.89-.65-1.05-1.29-2.11-1.94-3.16-.36-.58-1.22-.82-1.82-.45s-.85,1.1-.48,1.72h0Z"/><path class="cls-8" d="M399.11,222.75c-6.41-12.5-12.23-25.3-18.63-37.81-.71-1.39-2.74-.37-2.03,1.03,6.4,12.51,12.17,25.34,18.67,37.79.71,1.36,2.69.36,1.99-1.01h0Z"/><path class="cls-8" d="M363.66,192.12c1.73,3.3,3.34,6.67,5.3,9.84,1.83,2.95,4.03,5.64,6.28,8.27,2.13,2.49,4.41,4.87,6.42,7.45,1.74,2.23,2.98,4.72,4.21,7.25.68,1.39,3.02.5,2.29-.98-1.18-2.39-2.38-4.75-3.96-6.9-1.93-2.62-4.22-4.97-6.36-7.41-2.33-2.66-4.64-5.37-6.58-8.34-2.09-3.21-3.8-6.66-5.63-10.02-.64-1.17-2.64-.42-1.97.85h0Z"/><path class="cls-8" d="M60.14,176.37c3.28-.52,6.68-.36,9.97,0,4.25.45,8.55,1.38,12.41,3.28.75.37,1.76.29,2.35-.34.52-.55.47-1.45-.26-1.81-4.25-2.1-8.93-3.17-13.62-3.72-3.69-.43-7.54-.59-11.22-.02-2.12.33-1.75,2.95.38,2.61h0Z"/><path class="cls-8" d="M35.66,203.83c1.18-6.5,1.59-13.71,6.51-18.65s11.38-7.69,17.97-8.82c2.1-.36,1.74-2.95-.37-2.6-7.29,1.22-14.64,4.32-19.91,9.63s-5.95,13-6.91,20.26c-.2,1.49,2.48,1.51,2.72.18h0Z"/><path class="cls-8" d="M76.82,239.09c-.12-.16-.23-.31-.37-.46s.11.16-.01-.02c-.03-.05-.07-.1-.1-.14-.08-.11-.14-.23-.21-.34.13.23.02.03,0-.03-.03-.07-.06-.14-.09-.21-.06-.14-.12-.29-.16-.43-.02-.06-.04-.13-.06-.19,0-.03-.07-.28-.04-.14s-.01-.08-.02-.1c-.01-.08-.03-.16-.04-.24-.02-.16-.04-.32-.05-.48,0-.08,0-.16-.01-.24,0-.03,0-.25,0-.11s0-.12.01-.15c0-.07.01-.13.02-.2.02-.15.04-.31.07-.46.02-.07.03-.15.05-.22-.04.16-.01.05.02-.04.04-.13.09-.25.15-.37.03-.05.05-.11.08-.16.09-.19-.1.13.02-.03.23-.31.52-.6.56-1.01.05-.59-.37-1.19-1-1.2-.85-.03-1.39,1.05-1.61,1.75-.25.78-.33,1.58-.27,2.39.06.77.24,1.57.59,2.26s.82,1.43,1.52,1.74c.32.14.7.17.94-.14.22-.27.22-.74,0-1.02h0Z"/><path class="cls-8" d="M85.86,234.02c-2.89-.04-3.76,3.6-1.44,4.7,1.63.77,4.38-.4,4.44-2.35.05-1.57-1.59-2.33-3-2.35Z"/><path class="cls-8" d="M76.98,212.69c-.12-.16-.23-.31-.37-.46s.11.16-.01-.02c-.03-.05-.07-.1-.1-.14-.08-.11-.14-.23-.21-.34.13.23.02.03,0-.03-.03-.07-.06-.14-.09-.21-.06-.14-.12-.29-.16-.43-.02-.06-.04-.13-.06-.19,0-.03-.07-.28-.04-.14s-.01-.08-.02-.1c-.01-.08-.03-.16-.04-.24-.02-.16-.04-.32-.05-.48,0-.08,0-.16-.01-.24,0-.03,0-.25,0-.11s0-.12.01-.15c0-.07.01-.13.02-.2.02-.15.04-.31.07-.46.02-.07.03-.15.05-.22-.04.16-.01.05.02-.04.04-.13.09-.25.15-.37.03-.05.05-.11.08-.16.09-.19-.1.13.02-.03.23-.31.52-.6.56-1.01.05-.59-.37-1.19-1-1.2-.85-.03-1.39,1.05-1.61,1.75-.25.78-.33,1.58-.27,2.39.06.77.24,1.57.59,2.26s.82,1.43,1.52,1.74c.32.14.7.17.94-.14.22-.27.22-.74,0-1.02h0Z"/><path class="cls-8" d="M86.02,207.62c-2.89-.04-3.76,3.6-1.44,4.7,1.63.77,4.38-.4,4.44-2.35.05-1.57-1.59-2.33-3-2.35Z"/><path class="cls-8" d="M86.09,182.64c.6.47,1.21.9,1.91,1.22s1.51.54,2.26.33c.39-.11.46-.63.39-.96-.07-.35-.32-.83-.73-.86-.16,0-.32-.04-.47-.05-.08,0-.15-.02-.22-.03-.06-.01-.22-.01-.25-.06.02.03.13.04.02,0-.04-.01-.08-.02-.11-.04-.08-.03-.17-.06-.25-.09-.16-.06-.32-.12-.47-.19-.3-.13-.58-.3-.88-.43s-.56-.27-.84-.41c-.34-.17-.64.13-.71.44-.08.38.05.86.37,1.11h0Z"/><path class="cls-8" d="M68.33,254.55c15.15,2.31,35.57.08,45.72-12.99,8.85-11.39,7.99-28.74,1.63-41.05-4.05-7.82-11.03-14.52-19.84-16.42-2.15-.47-2.5,2.53-.45,2.97,18.45,3.97,25.71,28.14,20.6,44.3-6.06,19.19-30.37,22.89-47.6,20.29-1.84-.28-1.81,2.64-.07,2.9h0Z"/><path class="cls-8" d="M87.78,186.61c-.18-1.07-.79-1.86-1.67-2.47-.33-.23-.68-.43-1.02-.64-.19-.12-.38-.24-.56-.37-.09-.07-.19-.14-.28-.21-.05-.04-.3-.25-.15-.11-.18-.17-.33-.36-.49-.55-.15-.18-.24-.25-.43-.45.06.06.15.18-.04-.05-.07-.09-.21-.14-.02-.02-.03-.02-.14-.29-.03-.02-.04-.09-.07-.18-.09-.27.05.2,0,0,0-.1,0-.23-.03.18,0-.05.01-.09.03-.18.05-.27.06-.21-.07.14.03-.07.04-.08.08-.17.13-.25.08-.13.44-.46.67-.57,1.48-.71,3.49-.59,5.04-.31.93.17,1.48.33,2.28.67.19.08.38.17.57.26.06.03.58.32.3.15.38.22.73.49,1.07.76.03.02.21.18.04.03-.19-.17.09.1.13.13.16.16.3.33.44.5-.26-.32.05.09.12.22.04.07.08.15.12.22.09.17-.07-.29,0,0,.03.11.15.69.11.32.02.17.04.33.04.5.01.27,0,.06,0,0-.01.13-.03.26-.05.39-.04.23-.11.45-.18.66-.27.81.55,1.8,1.24,2.1.79.35,1.52.05,1.79-.76,1.47-4.52-3.21-7.81-6.95-8.86-2.14-.6-4.46-.67-6.62-.15-1.12.27-2.08.78-2.72,1.77-.6.92-.66,2.17-.28,3.19.12.31.26.62.45.9.3.45.69.71,1,1.12-.06-.08-.09-.08.04.12.1.14.25.28.38.4.27.26.56.52.86.75.47.36.99.65,1.5.97.19.12.37.26.56.39-.29-.2-.1-.12-.02,0,.08.1.05.05-.1-.14-.07-.11-.1-.23-.11-.36.14.8.69,1.56,1.53,1.71.7.12,1.45-.4,1.32-1.18h0Z"/><path class="cls-8" d="M54.83,213.21c8.22-1.79,14.23-8.92,17.38-16.4.6-1.43.95-2.89,1.42-4.35.19-.58-.07-.21.29-.55.31-.3.74-.52,1.12-.72.87-.47,1.79-.84,2.72-1.17,1.9-.67,3.87-1.14,5.84-1.57,1.15-.25,2.41-.39,3.5-.83,1.5-.61-.11-3.12-1.47-2.56-1.1.45-2.39.58-3.54.84-1.82.41-3.65.85-5.42,1.46-1.63.55-3.73,1.27-4.96,2.54-.88.92-.93,2.78-1.37,3.99-2.66,7.39-8.55,15.14-16.42,17.28-1.1.3-.05,2.25.91,2.04h0Z"/><path class="cls-8" d="M90.7,222.78c-.02.14-.05.28-.08.42-.02.07-.04.13-.05.2-.02.12.06-.17.02-.06-.01.03-.02.07-.04.11-.09.25-.21.49-.35.71-.03.05-.09.12-.11.18.04-.1.11-.15.02-.03-.08.1-.17.21-.27.3-.08.08-.17.15-.26.23-.12.1.2-.13.02-.02-.05.03-.1.07-.16.1-.09.06-.19.11-.29.15-.02,0-.04.02-.06.03-.13.06.11-.04.11-.04-.05,0-.12.04-.17.05-.1.03-.2.04-.3.06-.16.03.28-.01.08-.01-.06,0-.12,0-.17,0-.05,0-.1-.01-.15-.01.3-.02.22.03.1,0-.05-.01-.1-.02-.15-.04-.24-.06.21.1.08.03-.09-.05-.19-.1-.28-.14.33.15.18.12.07.04-.05-.04-.1-.08-.15-.12-.19-.17.14.17.04.04-.04-.05-.09-.1-.13-.16-.09-.12-.17-.25-.26-.36.2.26.05.07,0-.02-.04-.09-.08-.17-.12-.26-.08-.18-.18-.36-.27-.54-.2-.46-.74-.73-1.23-.68s-.79.41-.75.89c.14,1.57,1.39,3.03,2.99,3.25,1.44.2,2.73-.46,3.54-1.65.43-.63.66-1.43.66-2.19,0-.5-.34-.96-.85-1.06-.46-.09-.99.08-1.08.6h0Z"/><path class="cls-8" d="M64.56,268.18c5.18-11.16,8.32-23.88,4.85-36.03-1.31-4.59-3.51-9.01-6.08-13.02-2.39-3.74-5.58-7.7-10.11-8.76-1.55-.37-2.7,1.87-1.01,2.35,4.2,1.2,7.04,5.34,9.19,8.89,2.42,3.99,4.52,8.35,5.6,12.9,2.65,11.15-.41,22.54-5.16,32.66-.79,1.68,1.96,2.61,2.7,1h0Z"/><path class="cls-8" d="M54.75,259.98c.57.28,1,.51,1.64.88.49.28.96.58,1.43.91.43.3.83.62,1.23.95.28.24-.11-.11.09.08.07.07.15.15.23.22.17.17.33.34.49.52s.29.35.43.54c.06.08.11.16.17.24.1.15.13.2.02.02.23.38.45.77.62,1.18.08.18.15.36.22.54.05.12.09.25.13.37.02.06.11.4.01.03.13.47.24.95.33,1.43.14.73.88,1.28,1.63,1.14s1.37-.78,1.23-1.56c-.37-2.08-1.12-4.05-2.5-5.67-1.68-1.97-3.99-3.27-6.26-4.43-.67-.34-1.68.12-1.94.8-.3.8.1,1.46.81,1.82h0Z"/><path class="cls-8" d="M33.34,203.07c-7.29,8.52-7.71,22.77-4.09,32.94,4.13,11.59,14.49,19.4,25.51,23.94,1.67.69,2.81-1.81,1.1-2.56-10.1-4.43-19.54-11.22-23.62-21.86-3.76-9.82-2.79-22.3,3.02-31.12.85-1.29-.97-2.46-1.93-1.34h0Z"/><path class="cls-8" d="M30.87,207.34c-1.83.51-3.54.79-5.12-.5-1.37-1.12-2.13-2.88-2.59-4.54-.52-1.87-.73-3.72-.62-5.67.02-.44.02-.43.1-.95.11-.71.24-1.44.46-2.12.27-.82.7-1.4,1.37-1.93s1.36-1,1.69-1.82-.15-2.64-1.35-2.1c-.62.28-1.14.78-1.68,1.19-.65.5-1.2,1.05-1.62,1.75-.76,1.25-1.09,2.73-1.31,4.16-.29,1.84-.23,3.69.02,5.53.46,3.47,1.83,7.85,5.14,9.61,2.03,1.08,4.4.89,6.37-.22,1.05-.59.41-2.74-.86-2.39h0Z"/><path class="cls-8" d="M25.77,190.3c.48-.5.76-.86,1.31-1.22.5-.33,1.03-.56,1.67-.75.57-.17,1.22-.22,1.86-.25.47-.02-.16-.03.16,0,.12.01.24.02.36.04.27.04.53.1.8.16.06.02.12.03.18.05-.13-.05-.15-.05-.05-.01.12.05.24.11.35.17.24.12.46.26.68.4.11.07.22.14.33.22.05.04.11.08.16.11-.13-.1-.15-.11-.06-.04.2.17.39.35.57.56.03.03.28.36.17.2s.11.19.14.23c.07.12.12.24.18.37.02.04.18.43.12.25s.07.23.08.28c.03.14.05.29.08.44.1.5.09.83.53,1.25.57.54,1.41.39,1.91-.17,1.33-1.49.4-3.99-.73-5.31-.99-1.15-2.29-1.7-3.73-2.07-1.54-.39-3.2-.23-4.69.26-1.66.54-3.49,1.77-4.22,3.41-.25.55-.3,1.26.24,1.66s1.16.2,1.59-.24h0Z"/><path class="cls-8" d="M41.7,227.04c-1.62-1.46-2.35-3.67-2.95-5.69-.65-2.16-.93-4.37-1.28-6.58-.18-1.17-2.52-.66-2.53.42-.03,2.38.48,4.89,1.21,7.14.74,2.26,1.89,4.61,3.76,6.15.88.72,2.86-.49,1.8-1.44h0Z"/><path class="cls-8" d="M45.65,208.35c-.06,0-.53-.06-.18-.02-.14-.01-.28-.05-.41-.09-.28-.06-.55-.14-.81-.23s-.54-.19-.8-.29c-.07-.03-.13-.05-.2-.08.15.07.16.07.02,0-.11-.05-.23-.1-.34-.16-1-.48-1.98-1.05-2.89-1.69-.45-.31-1.17-.19-1.54.18s-.38.97.02,1.34c.94.85,1.94,1.62,3.09,2.17,1.25.61,2.55.98,3.94,1.07.59.04,1.35-.37,1.35-1.04,0-.71-.59-1.1-1.23-1.18h0Z"/><path class="cls-8" d="M42.81,199.27c.47-.79,1-1.55,1.6-2.24.08-.09.15-.17.23-.26-.12.13-.02.03.05-.04.14-.14.29-.29.43-.42.29-.27.59-.53.89-.79.75-.64,1.48-1.22,2.33-1.68.48-.26.97-.46,1.47-.66.53-.21,1.1-.35,1.61-.59s.77-.86.8-1.38c.02-.42-.15-1.11-.66-1.19-1.22-.19-2.53.38-3.57.97s-2,1.36-2.9,2.17c-.7.63-1.38,1.29-1.97,2.02-.74.91-1.33,1.94-1.88,2.97-.27.5-.27,1.38.24,1.73.56.39,1.08-.17,1.34-.62h0Z"/><path class="cls-8" d="M102.17,216.92c.11.03-.36-.13-.02,0,.23.08.46.17.69.27.3.13.58.28.87.44.03.02.32.19.08.05.09.06.18.12.26.18.18.13.36.26.53.4.68.57,1.09,1.11,1.41,1.98.08.22.2.82.21,1.19.01.68-.06,1.39-.31,2.03-.52,1.29-1.86,2.16-3.1,2.67-.6.25-1.25.41-1.89.52s-1.44.24-2.11.12c-.57-.11.22.01-.27-.08.11.02-.07-.16.04.04-.21-.36.04.16-.09-.16-.07-.18.12.47,0-.02-.08-.33-.15-.65-.21-.98-.25-1.37-.3-2.76-.24-4.14.06-1.47.21-3.06.77-4.43-.06.16.12-.2,0-.02.02-.03.25-.24.13-.15.25-.18.45-.21.76-.26.72-.1,1.51.07,2.19.28.64.2,1.22-.1,1.39-.77.15-.57-.1-1.53-.75-1.74-1.58-.49-3.63-.92-5.02.28-1.19,1.02-1.39,3.13-1.59,4.59-.24,1.81-.24,3.63-.06,5.45.12,1.22.25,2.76,1.03,3.77,1.12,1.46,3.23,1.19,4.83.88,1.8-.36,3.53-1.16,4.84-2.46,2.48-2.44,2.51-6.81.43-9.52-1.16-1.5-2.9-2.6-4.74-3.07-.67-.17-1.14.63-1.16,1.19-.02.71.4,1.31,1.08,1.48h0Z"/><path class="cls-8" d="M81.07,253.31c-2.12,3.5,2.43,6.2,5.37,6.58,3.06.4,6.49-1.13,8.54-3.38,1.36-1.49,2.5-3.64,2-5.7-.28-1.17-2.29-.92-2.57.12-.37,1.35-.48,2.48-1.38,3.61-.71.89-1.65,1.55-2.75,2.08-.13.06-.27.13-.41.19.2-.08-.13.05-.19.07-.29.1-.58.2-.87.28-.15.04-.3.08-.46.11-.12.03-.38.07-.11.03-.26.04-.51.07-.77.07-.11,0-.22,0-.33,0-.17,0,.1,0,.11,0-.06,0-.12-.01-.19-.02-.29-.05-.58-.1-.87-.17-.1-.02-.33-.1-.62-.21-.25-.1-.65-.29-.8-.37-.45-.26-.94-.66-1.15-1.04-.1-.19-.13-.27-.14-.57,0-.03,0-.09.04-.28.04-.2.1-.39.18-.59.24-.62-.35-1.23-.89-1.39-.62-.18-1.39,0-1.75.58h0Z"/><path class="cls-8" d="M117.11,234.39c.35.07.69.14,1.03.23.08.02.17.04.25.07.4.1-.19-.06.07.02.21.07.42.13.63.2.9.3,1.78.68,2.62,1.14.14.08.27.16.05.03.13.08.26.16.38.24.21.13.41.27.6.42s.39.3.58.46c.12.1.23.2.34.31.28.26-.2-.22.06.06.36.4.7.82,1,1.26.07.1.13.2.19.29-.27-.44.33.57.12.2.18.31.32.63.52.92.32.46,1.02.64,1.53.45.56-.21.8-.73.78-1.29-.03-.62-.35-1.32-.66-1.86-.33-.58-.71-1.1-1.18-1.58-.9-.93-1.91-1.66-3.04-2.3-1.7-.95-3.63-1.57-5.54-1.91-.72-.13-1.46.39-1.55,1.12-.09.77.51,1.4,1.23,1.54h0Z"/><path class="cls-8" d="M118.25,212.01c.94.25,1.93.27,2.9.3.88.03,1.77.04,2.65-.01s1.75-.19,2.6-.38c.93-.21,2.12-.46,2.84-1.15.96-.93.14-2.53-1.11-2.55-.41,0-.84.16-1.24.25-.45.1-.79.2-1.24.3-.83.17-1.67.27-2.51.35s-1.69.12-2.54.12-1.69-.06-2.52.05c-.65.08-1.03.68-.98,1.31.05.68.48,1.23,1.15,1.4h0Z"/><path class="cls-8" d="M141.46,86.9c-.27,0-.55-.08-.79-.25-.63-.44-.78-1.3-.35-1.93,1.38-1.99,2.93-7.35,3.77-10.24l.26-.88c.13-.43.33-.98.55-1.61.56-1.55,1.72-4.76,1.14-5.82-.1.02-1.21.45-4.19,4.77-1.43,2.06-2.04,2.35-3.47,2.71-.29.07-.64.16-1.08.3-.84.27-2.41.76-2.88,1.61-.37.67-1.21.91-1.89.54-.67-.37-.91-1.21-.54-1.89,1.01-1.82,3.27-2.53,4.48-2.92.51-.16.91-.26,1.24-.34.9-.23.92-.23,1.73-1.41,2.31-3.36,4.75-6.41,6.88-6.17.52.03,1.5.25,2.15,1.45,1.18,2.15-.06,5.59-.97,8.1-.2.56-.38,1.05-.5,1.44l-.25.87c-.94,3.25-2.51,8.69-4.15,11.05-.27.39-.7.6-1.14.6Z"/><path class="cls-8" d="M136.83,73.62c-.64,0-1.21-.44-1.35-1.09-.82-3.67-.95-6.07-1.06-8.18-.07-1.18-.13-2.29-.31-3.54-.29,1.05-.48,2.37-.32,3.31.13.75-.37,1.47-1.13,1.61-.76.12-1.47-.38-1.6-1.13-.4-2.27.49-6.36,1.99-7.6.57-.47,1.27-.61,1.9-.37,1.2.45,1.6,1.95,1.83,3.35.25,1.51.32,2.82.4,4.22.12,2.11.24,4.29,1,7.73.17.75-.31,1.49-1.05,1.66-.1.02-.2.03-.3.03Z"/><path class="cls-8" d="M135.64,73.62c-.48,0-.95-.25-1.2-.7-2.04-3.56-2.63-5.31-3.25-7.16-.23-.7-.47-1.41-.81-2.25-.3-.77-.63-1.9-.99-3.17-.57-2.02-1.69-5.93-2.84-7.23-.18,1.94.6,6.64,1.51,8.46.34.69.06,1.52-.62,1.86-.68.34-1.51.07-1.86-.62-1.03-2.06-2.89-10.04-.97-12.18.59-.65,1.45-.85,2.3-.54,2.7.87,4.01,5.45,5.15,9.5.33,1.16.62,2.2.9,2.9.35.89.61,1.65.86,2.39.57,1.72,1.12,3.34,3.02,6.66.38.66.15,1.51-.51,1.89-.22.12-.46.18-.69.18ZM126.01,52.71s0,0,.01,0c0,0-.01,0-.01,0Z"/><path class="cls-8" d="M177.06,412.92c-1.54,3.07-2.89,6.23-3.55,9.61-.14.72.38,1.66,1.12,1.81.84.17,1.29-.58,1.44-1.27.04-.17.04-.18,0-.02.02-.09.04-.18.06-.27.04-.16.08-.32.12-.48.09-.35.2-.7.31-1.05.22-.68.46-1.36.72-2.03.61-1.54,1.2-2.78,1.95-4.21.37-.72.38-1.74-.28-2.31-.55-.48-1.52-.53-1.89.23h0Z"/><path class="cls-8" d="M127.82,210.78c5.22,3.17,7.93,9.28,7.53,15.29-.18,2.75-1,5.55-2.59,7.82-1.71,2.46-3.96,3.58-6.62,4.72-.97.42-1.2,2.12.18,1.96,5.27-.58,9.34-5.17,11-9.93,1.71-4.91,1.17-10.74-1.43-15.25-1.56-2.7-3.78-4.88-6.5-6.41-1.03-.58-2.83,1.03-1.57,1.79h0Z"/><path class="cls-8" d="M124.98,93.43c6.28-2.16,13.08-2.16,19.65-2.11,1.66.01,2.07-3.26.22-3.28-6.82-.07-13.82-.02-20.35,2.21-1.59.54-1.41,3.83.48,3.18h0Z"/><path class="cls-8" d="M129.79,209.09c-1.17-10.27-.47-20.47-.05-30.76.38-9.45-.12-18.93-.57-28.37-.91-19.41-2.41-38.78-2.98-58.2-.07-2.34-2.96-1.97-2.91.16.5,19.19,1.96,38.33,2.92,57.5.51,10.2,1.03,20.42.58,30.63-.44,10.07-.97,20.06.18,30.1.27,2.31,3.04.83,2.83-1.06h0Z"/><path class="cls-8" d="M126.37,87.89c.03.42.06.84.07,1.26l-.02-.41c.03.77.04,1.54.06,2.31.01.4.04.78.3,1.11.2.26.57.47.91.44.37-.04.72-.22.95-.51.26-.32.49-.76.48-1.18-.04-1.33-.05-2.65-.16-3.97-.06-.72-.81-1.36-1.53-1.05-.81.34-1.13,1.2-1.07,2.02h0Z"/><path class="cls-8" d="M127.43,88.31c-.45,0-.9-.22-1.16-.63-3.74-5.73-3.99-10.77-4.21-15.23-.12-2.49-.24-4.84-.91-7.2-.32-1.11-.68-2.27-1.05-3.5-.68-2.19-1.42-4.6-2.14-7.37-.19-.74.25-1.5.99-1.69.75-.19,1.5.25,1.69.99.71,2.72,1.44,5.09,2.1,7.25.38,1.25.75,2.43,1.07,3.56.77,2.67.9,5.29,1.02,7.83.21,4.3.43,8.74,3.76,13.84.42.64.23,1.5-.4,1.92-.23.15-.5.23-.76.23Z"/><path class="cls-8" d="M119.3,55.43c-.57,0-1.11-.36-1.31-.93-.93-2.68-.05-4.5,1.24-5.12,1.13-.55,2.79-.26,3.96,1.6.4.65.21,1.5-.44,1.91-.65.4-1.51.21-1.91-.44-.25-.4-.47-.53-.53-.54.11.02-.08.56.31,1.68.25.72-.13,1.52-.86,1.77-.15.05-.3.08-.46.08Z"/><path class="cls-8" d="M132.85,75.11c-.41,0-.81-.18-1.09-.52-1.77-2.23-2.97-4.9-4.12-7.47-.51-1.15-1.02-2.29-1.58-3.36l-.7-1.32c-.73-1.37-1.48-2.79-2.03-4.21l-.34-.93c-.51-1.4-1.21-3.32-2.17-4.84-.4-.65-.21-1.5.44-1.91.65-.4,1.51-.21,1.91.44,1.11,1.77,1.86,3.84,2.42,5.36l.33.89c.48,1.26,1.2,2.6,1.89,3.9l.72,1.36c.58,1.12,1.11,2.3,1.64,3.5,1.08,2.42,2.2,4.93,3.76,6.88.48.6.38,1.47-.22,1.95-.26.2-.56.3-.86.3Z"/><path class="cls-8" d="M143.32,90.06c2.97,14.63,3.7,29.6,5.41,44.4,1.97,16.97,4.85,33.79,6.05,50.86.14,1.95,3.39,1.78,3.27-.07-1.16-16.96-4.02-33.65-6.15-50.5-1.91-15.14-2.65-30.47-5.77-45.43-.34-1.64-3.15-.9-2.82.75h0Z"/><path class="cls-8" d="M140.03,85.55c-.02.95,0,1.9.03,2.84.02.36.12.67.4.92.25.22.66.37.99.35.38-.02.78-.14,1.05-.41.24-.23.47-.57.45-.91-.05-.95-.08-1.89-.07-2.84,0-.34-.13-.68-.39-.91s-.65-.36-.98-.34c-.7.04-1.47.54-1.48,1.31h0Z"/><path class="cls-8" d="M400.19,62.79c-.29,0-.57-.12-.77-.36-1.06-1.24-1.93-3.53-2.62-5.36-.17-.44-.32-.84-.46-1.18-.08-.18-.17-.4-.28-.63-.64-1.41-1.61-3.54-.35-4.94.36-.4.83-.62,1.37-.63.01,0,.03,0,.04,0,1.22,0,2.35,1.06,3.6,2.34.22.22.4.41.54.54.38.33.7.41,1.25.55.7.18,1.57.4,2.76,1.2.47.32.59.95.27,1.41-.31.47-.95.59-1.41.27-.89-.6-1.51-.76-2.12-.91-.66-.17-1.34-.34-2.09-.99-.17-.15-.4-.38-.66-.65-.42-.42-1.67-1.72-2.15-1.72-.26.36.48,2,.8,2.69.12.26.23.5.31.7.14.35.3.77.47,1.22.61,1.6,1.44,3.79,2.27,4.77.36.43.31,1.07-.11,1.43-.19.16-.43.24-.66.24Z"/><path class="cls-8" d="M402.25,54.22s-.08,0-.12,0c-.56-.07-.95-.57-.89-1.13.26-2.16.2-3.2.13-4.2-.05-.72-.09-1.4-.03-2.39.05-.81.21-1.95,1.09-2.38.48-.23,1.03-.18,1.51.15.96.65,1.69,2.41,1.58,3.83-.04.56-.56.97-1.09.94-.56-.04-.98-.53-.94-1.09.03-.32-.04-.67-.14-.98-.02.7.01,1.23.05,1.78.07,1.05.14,2.23-.14,4.58-.07.52-.5.9-1.01.9Z"/><path class="cls-8" d="M404.88,48.14c-.09,0-.19-.01-.28-.04-.54-.16-.85-.72-.7-1.26.12-.41.22-.92.32-1.46.41-2.13.92-4.78,3.09-4.84.57.08,1.08.29,1.47.96.72,1.26.6,3.69.03,5.17-.2.52-.78.79-1.31.59-.52-.2-.79-.79-.59-1.31.42-1.11.39-2.56.2-3.2-.42.56-.75,2.29-.9,3.02-.12.6-.23,1.17-.36,1.63-.13.45-.53.74-.98.74Z"/><path class="cls-8" d="M402.69,54.82c-.14,0-.28-.03-.42-.09-.51-.23-.74-.83-.51-1.34,1.06-2.36,1.43-3.8,1.78-5.19.11-.44.23-.89.36-1.35.15-.54.7-.85,1.26-.7.54.15.85.72.7,1.26-.13.45-.23.87-.35,1.3-.38,1.47-.76,2.99-1.89,5.52-.17.38-.54.6-.93.6Z"/><path class="cls-8" d="M407.92,62.14c.07,3.31.53,6.62.79,9.92.43,5.46.72,10.93.68,16.41-.01,1.63,1.98,1.36,2.01-.11.11-5.42-.21-10.84-.65-16.25-.27-3.29-.79-6.97-.87-10.08-.04-1.59-2-1.33-1.97.11h0Z"/><path class="cls-8" d="M408.9,63.11c-.16,0-.32-.04-.47-.11-.5-.26-.69-.87-.43-1.37,1.72-3.3,1.55-5.62,1.37-8.07-.11-1.5-.22-3.05.1-4.82.1-.55.61-.92,1.18-.82.55.1.92.63.82,1.18-.27,1.51-.17,2.87-.07,4.3.19,2.63.39,5.34-1.59,9.15-.18.35-.53.55-.9.55Z"/><path class="cls-8" d="M410.46,49.94c-.06,0-.12,0-.18-.02-.55-.1-.92-.63-.82-1.18.23-1.28.4-2.58.56-3.87.12-.99.25-1.98.4-2.96.16-.7.01-1.01-.06-1.06.02.02-.07.08-.15.25-.56,1.14-.78,2.41-1.02,3.75-.21,1.2-.43,2.43-.9,3.64-.21.52-.79.79-1.32.57-.52-.21-.78-.8-.57-1.32.4-1.01.59-2.1.79-3.24.25-1.43.51-2.9,1.2-4.3.55-1.12,1.66-1.63,2.67-1.26.96.35,1.79,1.55,1.36,3.36-.14.88-.26,1.85-.38,2.82-.17,1.33-.34,2.66-.58,3.98-.09.49-.52.83-1,.83Z"/><path class="cls-8" d="M404.82,54.9c-.19,0-.38-.05-.55-.16-.47-.31-.61-.93-.31-1.41.91-1.41,1.3-2.5,1.8-3.89.19-.52.39-1.08.63-1.7.21-.52.79-.78,1.32-.57.52.21.78.8.57,1.32-.23.6-.43,1.13-.61,1.64-.52,1.44-.97,2.69-2,4.3-.2.3-.52.47-.86.47Z"/><path class="cls-8" d="M399.12,61.79c.41,3.91-.09,7.82-.54,11.7-.58,4.96-1.08,9.95-.84,14.94.07,1.46,2.49,1.35,2.45-.05-.12-5.08.18-10.08.7-15.13.41-3.92.8-7.83.34-11.77-.13-1.09-2.22-.77-2.11.3h0Z"/><path class="cls-8" d="M416.55,212.98c-.43,0-.96-.14-1.48-.65-1.26-1.26-.83-3.15-.51-4.54l.24-1.15c.51-2.71,1.13-5.72,1.96-7.19.27-.49.9-.66,1.38-.39.49.28.66.9.39,1.39-.73,1.3-1.38,4.73-1.73,6.57l-.25,1.23c-.21.92-.5,2.18-.03,2.64.29.06.78-.27,2.02-2.5l.36-.65c.41-.76.58-.96,1.39-1.27l.51-.2c.45-.19,1.4-.59,1.62-1.1.22-.52.83-.75,1.34-.53.52.22.75.82.53,1.34-.54,1.25-1.94,1.84-2.69,2.16l-.57.23c-.11.04-.19.07-.25.1.09-.02.01.08-.08.23l-.3.54c-1.04,1.88-2.13,3.52-3.55,3.72-.09.01-.18.02-.28.02Z"/><path class="cls-8" d="M423.59,216.9c-.12,0-.25-.02-.36-.05-.94-.25-1.32-1.33-1.52-2.12-.25-.95-.34-1.64-.43-2.35-.13-1-.26-2.03-.93-4.1-.17-.53.12-1.11.66-1.28.52-.18,1.11.12,1.28.66.73,2.25.88,3.42,1.01,4.46.07.55.14,1.08.3,1.76.04-.33.03-.68-.05-.99-.15-.54.17-1.1.72-1.25.54-.16,1.1.17,1.25.71.38,1.38,0,3.25-.82,4.07-.32.32-.7.48-1.09.48Z"/><path class="cls-8" d="M427.75,218.66c-1.87,0-2.54-1.9-3.03-3.32-.18-.51-.35-1.03-.57-1.46-.26-.5-.05-1.11.44-1.37.5-.26,1.11-.06,1.37.44.26.51.47,1.11.68,1.72.29.82.55,1.53.82,1.83.08-.85-.25-2.69-.86-3.68-.3-.48-.15-1.11.33-1.4.47-.29,1.1-.15,1.4.33.86,1.39,1.49,4.24.99,5.72-.24.72-.69,1.02-1.02,1.14-.2.03-.38.05-.55.05Z"/><path class="cls-8" d="M425.06,214.43c-.37,0-.73-.2-.91-.55-.22-.43-.42-.85-.62-1.26-.61-1.29-1.25-2.63-2.74-4.74-.33-.46-.21-1.09.25-1.42s1.09-.21,1.42.24c1.59,2.26,2.26,3.67,2.92,5.04.19.4.38.8.59,1.21.26.5.05,1.11-.44,1.37-.15.08-.31.11-.46.11Z"/><path class="cls-8" d="M427.1,197.6c-.49-2.87-.63-5.81-.95-8.71-.52-4.82-.95-9.79-2.05-14.52-.37-1.61-2.17-.58-1.99.74.66,4.84,1.51,9.65,2.06,14.51.32,2.89.48,5.83.98,8.69.27,1.58,2.17.58,1.95-.73h0Z"/><path class="cls-8" d="M430.02,211.37c-.4,0-.79-.24-.95-.65-.67-1.7-.82-3.23-.98-4.7-.24-2.34-.47-4.54-2.76-7.42-.35-.44-.28-1.08.16-1.43.43-.35,1.08-.28,1.43.16,2.67,3.35,2.94,5.96,3.2,8.48.14,1.4.28,2.73.85,4.17.21.52-.05,1.11-.57,1.32-.12.05-.25.07-.37.07Z"/><path class="cls-8" d="M430.84,218.72c-.68,0-1.36-.35-1.86-1.01-.95-1.24-1.29-2.19-1.62-3.1-.26-.73-.51-1.42-1.1-2.34-.3-.47-.17-1.1.31-1.41.48-.3,1.11-.16,1.41.31.71,1.11,1.02,1.98,1.3,2.74.3.84.56,1.56,1.33,2.56.12.16.22.2.24.21.01-.04.11-.38-.16-.96-.53-1.44-.74-2.24-.94-2.94-.17-.63-.32-1.19-.66-2.07-.21-.52.05-1.11.58-1.32.51-.21,1.11.05,1.31.58.38.97.55,1.57.74,2.27.18.66.39,1.42.86,2.71.74,1.62.16,2.96-.72,3.48-.31.19-.66.28-1,.28Z"/><path class="cls-8" d="M427.11,212.75c-.34,0-.66-.17-.86-.47-.38-.59-.68-1.11-.96-1.58-.69-1.17-1.19-2.01-2.32-3.19-.39-.4-.38-1.05.03-1.44.41-.39,1.05-.38,1.44.03,1.3,1.35,1.91,2.38,2.61,3.57.27.46.56.95.92,1.52.3.47.17,1.1-.31,1.41-.17.11-.36.16-.55.16Z"/><path class="cls-8" d="M418.71,199.93c-.25-3.32-1.1-6.52-2.06-9.69-1.17-3.88-2.36-7.75-3.23-11.72-.3-1.39-2.71-.76-2.39.63.9,3.85,2.12,7.6,3.31,11.37.98,3.08,1.93,6.22,2.22,9.45.11,1.27,2.23,1.17,2.14-.04h0Z"/><path class="cls-8" d="M145.97,380.53c-.45,0-.9-.22-1.16-.63-.61-.93-1.18-1.92-1.65-2.76-.41-.72-.73-1.31-.93-1.55-.55-.57-1.32-.7-2.54-.86-1.57-.21-3.54-.48-4.77-2.57-.39-.66-.17-1.51.49-1.9.65-.39,1.51-.17,1.9.49.52.89,1.3,1.03,2.75,1.23,1.3.18,2.92.4,4.18,1.7.34.35.67.92,1.33,2.08.45.79.99,1.74,1.56,2.62.42.64.24,1.5-.4,1.92-.23.15-.5.23-.76.23Z"/><path class="cls-8" d="M148.93,383.21c-.16,0-.33-.01-.49-.04-1.54-.27-2.63-1.76-3.62-3.26-.42-.64-.24-1.5.4-1.92.64-.42,1.5-.24,1.92.4,1.07,1.63,1.56,2.02,1.78,2.06-.01.02.15-.03.34-.17.19-.21.23-1.03-.68-3.79l-.2-.61c-.23-.73.17-1.51.91-1.74.72-.24,1.51.17,1.74.9l.19.58c.7,2.13,1.76,5.34-.29,6.88-.65.48-1.31.73-1.99.73Z"/><path class="cls-8" d="M149.7,376.83c-.59,0-1.14-.38-1.32-.97-.36-1.13-.66-2.24-.97-3.36-.96-3.47-1.87-6.75-4.21-10.55-.4-.65-.2-1.51.46-1.91.64-.4,1.5-.2,1.91.45,2.55,4.13,3.55,7.76,4.52,11.26.3,1.08.6,2.17.94,3.27.23.73-.18,1.51-.91,1.74-.14.04-.28.06-.42.06Z"/><path class="cls-8" d="M138.02,390.44c-.43,0-.85-.15-1.23-.45-1.53-1.2-2.54-5.26-2.2-7.54.11-.76.83-1.27,1.57-1.17.76.11,1.29.81,1.17,1.57-.14.94.09,2.24.41,3.29.14-1.25.17-2.36.21-3.54.05-2.12.12-4.52.83-8.21.14-.75.88-1.25,1.62-1.1.75.14,1.25.87,1.1,1.62-.66,3.47-.72,5.65-.78,7.76-.04,1.4-.07,2.71-.27,4.23-.19,1.41-.55,2.92-1.74,3.41-.22.09-.45.13-.68.13ZM138.51,387.81h.03-.03Z"/><path class="cls-8" d="M130.69,397.24c-.12,0-.25-.01-.37-.03-.63.08-1.24-.12-1.7-.6-2.06-2.17.15-11.31,1-13.16.33-.69,1.15-.99,1.84-.68.7.32,1,1.15.68,1.84-.98,2.12-1.86,7.97-1.55,9.78.86-.97,1.89-5.2,2.4-7.29.36-1.47.68-2.78.97-3.56.29-.79.51-1.5.73-2.2.64-2,1.3-4.08,3.29-7.8.36-.68,1.21-.93,1.87-.57.68.36.93,1.2.57,1.88-1.87,3.5-2.46,5.36-3.09,7.33-.23.74-.47,1.48-.77,2.31-.26.72-.55,1.92-.88,3.27-1.22,4.99-2.15,8.33-3.98,9.24-.32.16-.66.24-1,.24Z"/><path class="cls-8" d="M123.13,394.72c-.1,0-.21-.01-.31-.04-.75-.17-1.21-.92-1.04-1.66.64-2.77,1.31-5.2,1.92-7.4.34-1.25.67-2.42.96-3.55.6-2.36.69-4.76.77-7.3.16-4.63.34-9.89,3.93-15.75.4-.66,1.25-.86,1.91-.46.65.4.86,1.25.46,1.91-3.21,5.24-3.37,9.89-3.52,14.4-.09,2.58-.18,5.24-.86,7.89-.29,1.14-.62,2.34-.97,3.6-.6,2.17-1.26,4.55-1.89,7.29-.15.64-.72,1.08-1.35,1.08Z"/><path class="cls-8" d="M124.22,398.21c-.37,0-.72-.08-1.03-.21-1.31-.58-2.24-2.38-1.39-5.08.23-.73.99-1.14,1.74-.9.73.23,1.13,1.01.9,1.74-.31.98-.2,1.51-.11,1.69.01-.08.18-.23.37-.55.39-.66,1.24-.88,1.9-.5.66.39.88,1.24.49,1.9-.81,1.38-1.9,1.93-2.88,1.93Z"/><path class="cls-8" d="M125.91,396.97c-.24,0-.48-.06-.7-.19-.66-.39-.88-1.24-.49-1.9.9-1.54,1.55-3.47,2.02-4.88l.33-.96c.5-1.43,1.22-2.87,1.91-4.26l.66-1.35c.52-1.1,1-2.25,1.48-3.42,1.08-2.61,2.19-5.3,3.9-7.58.46-.62,1.33-.74,1.94-.28s.74,1.33.28,1.94c-1.49,2-2.54,4.53-3.55,6.98-.5,1.21-1,2.42-1.55,3.56l-.68,1.38c-.65,1.31-1.33,2.67-1.77,3.94l-.31.92c-.51,1.53-1.21,3.62-2.26,5.41-.26.44-.72.68-1.2.68Z"/><path class="cls-8" d="M154.99,265.36c-1.24,14.33-3.6,28.83-3.45,43.23.17,16.01-3.92,31.82-3.37,47.77l1.18-1.35c-7.1,1.3-15.06-.07-22.06-1.45l1.1,1.33c.42-18.95,1.95-37.75,1.49-56.73-.23-9.66-.64-19.31-1.09-28.96s-2.44-20.02-.6-29.72c.32-1.7-2.89-1.91-3.2-.31-1.77,9.32-.04,18.88.41,28.26.49,9.96.92,19.94,1.19,29.91.54,19.28-.95,38.37-1.34,57.62-.01.64.47,1.21,1.1,1.33,7.53,1.47,16.05,2.78,23.68,1.36.57-.11,1.21-.74,1.18-1.35-.59-15.95,3.46-31.77,3.26-47.77-.18-14.39,2.15-28.9,3.35-43.22.14-1.71-2.72-1.56-2.86.06h0Z"/><path class="cls-8" d="M154.61,265.27c6.06,2.54,11.05,6.87,17,9.57,2.29,1.04,4.7,1.46,7.19,1.17,1.14-.13,2.25-.41,3.37-.68,1.45-.35,3.16-.5,4.45-1.27,1.11-.66,1.03-2.2-.33-2.45-2.39-.44-5.16.96-7.54,1.29-2.62.36-5.03-.46-7.32-1.7-5.24-2.86-10.14-7.35-16.2-8.33-1.4-.23-1.9,1.87-.62,2.4h0Z"/><path class="cls-8" d="M403.19,162.22c-1.58.83-3.01,1.87-4.49,2.86s-2.94,1.65-4.58,2.16c-1.24.39-2.53.69-3.84.71-.72.01-1.44-.04-2.15-.13-.89-.11-1.85-.45-2.73-.18s-1.28,1.29-.51,1.95c.7.6,1.76.64,2.64.76.77.11,1.54.18,2.31.18,1.56,0,3.07-.25,4.55-.71,1.78-.54,3.43-1.21,5.01-2.21,1.61-1.01,3.1-2.21,4.74-3.16.58-.34.96-.97.68-1.64-.25-.6-1.05-.9-1.63-.59h0Z"/><path class="cls-8" d="M386.26,168.56c-1.26,1.07-2.23,2.42-3.07,3.83-.35.59-.67,1.18-.99,1.79-.29.56-.61,1.09-.75,1.7-.1.44.23.84.64.97.5.15,1.01.04,1.41-.28.52-.41.83-.95,1.14-1.52s.62-1.2.93-1.8c.69-1.36,1.46-2.67,2.37-3.9.27-.36-.01-.82-.36-.98-.44-.2-.96-.12-1.32.19h0Z"/><path class="cls-8" d="M246.65,222.14c-4.04-5.58-10.95-8.96-16.79-12.3-8.08-4.62-15.8-9.71-24.27-13.63-15.31-7.08-32.34-10.55-49-12.71-2.23-.29-2.53,3.28-.35,3.56,15.81,2.05,32.02,5.23,46.63,11.77,8.01,3.59,15.27,8.28,22.86,12.63,6.16,3.54,14.04,6.98,18.33,12.89,1.34,1.85,3.89-.44,2.6-2.22h0Z"/><path class="cls-8" d="M181.61,275.6c3.94,2.53,4.97,7.54,7.43,11.24.42.64,1.6.82,2.14.23,5.02-5.44,12.25-7.06,18.32-10.92,6.07-3.86,12.16-8.15,17.47-13s9.57-10.71,12.23-17.42c1.36-3.44,1.91-7.11,3.25-10.56,1.46-3.78,3.36-7.35,4.49-11.25.61-2.12-2.54-3.51-3.18-1.31-1.07,3.73-2.85,7.17-4.28,10.76-1.31,3.28-1.85,6.77-3.06,10.08-2.72,7.43-7.52,13.59-13.5,18.69-5.36,4.57-11.44,9.3-17.7,12.58-5.84,3.06-11.76,5.12-16.25,10.19l2.41-.06c-2.67-3.84-4.09-8.8-8.35-11.3-1.4-.82-2.77,1.2-1.42,2.07h0Z"/><path class="cls-8" d="M143.98,428.13c3.12-1.84,5.35-4.71,7.66-7.42.54-.63.58-1.71-.19-2.19-.76-.48-1.85-.33-2.44.37-1.04,1.23-2.04,2.51-3.14,3.69-.29.31-.58.62-.89.92-.15.15-.31.3-.47.44-.04.04-.35.3-.14.13s-.06.05-.1.09c-.69.6-1.43,1.14-2.22,1.61-.69.41-1,1.53-.44,2.16.64.72,1.59.65,2.35.2h0Z"/><path class="cls-8" d="M126.47,436.55c5.86-2.8,11.88-5.15,17.53-8.39.74-.42.98-1.54.44-2.2-.61-.75-1.65-.65-2.39-.2-5.33,3.17-11.09,5.38-16.66,8.06-.73.35-1.36,1.13-1.02,1.98.31.78,1.36,1.1,2.1.75h0Z"/><path class="cls-8" d="M150.48,446.46c-7.44,3.21-16.47,7.65-24.71,4.87-3.12-1.05-8.07-3.93-7.5-7.88.53-3.7,5.15-5.8,8.2-6.9,2-.72.92-3.46-1.08-2.74-5.79,2.1-13.77,7.95-8.92,14.79,4.88,6.89,14.49,7.31,21.89,5.38,4.55-1.18,8.86-3.05,13.15-4.92,1.85-.8.84-3.41-1.03-2.6h0Z"/><path class="cls-8" d="M173.93,423.43c1.84,3.13,2.61,6.99,1.82,10.56-.75,3.37-2.77,5.59-6.01,6.67-2.83.94-5.71,1.53-8.61,2.2-3.67.85-7.2,2.09-10.66,3.57-1.88.8-.85,3.45,1.04,2.64,2.98-1.29,6.02-2.47,9.18-3.25,2.43-.6,4.88-1.08,7.29-1.76,2.95-.83,5.86-1.74,7.95-4.12,1.92-2.2,2.86-5.06,3.04-7.93.23-3.64-.81-7.16-2.67-10.26-.84-1.4-3.26.19-2.38,1.67h0Z"/><path class="cls-8" d="M159.58,407.16c-1.53,4.13-3.03,8.28-4.56,12.42-.32.86-.07,2.01.76,2.49s1.73-.02,2.04-.84c1.58-4.11,3.17-8.21,4.7-12.33.33-.9.07-2.11-.8-2.61-.84-.49-1.82.01-2.14.88h0Z"/><path class="cls-8" d="M238.02,285.52c-9.4,21.72-20.75,42.52-30.35,64.14-4.51,10.15-7.49,20.62-11.51,30.94-4.4,11.32-9.94,22.2-15.46,33l1.72-1.03c-8.29-1.58-18.09-3.12-24.17-9.51.15.77.3,1.55.44,2.32,7.24-19.52,14.45-39.38,19.95-59.46,2.59-9.45,5.04-18.94,7.53-28.42,2.83-10.78,6.08-21.53,7.65-32.58.33-2.3-2.83-3.3-3.19-.78-1.59,11.18-4.88,22.04-7.74,32.94-2.52,9.59-4.95,19.22-7.64,28.77-5.51,19.51-12.45,38.81-19.49,57.81-.29.77-.13,1.72.44,2.32,6.54,6.87,16.75,8.67,25.67,10.36.83.16,1.37-.34,1.72-1.03,5.38-10.56,10.76-21.19,15.11-32.22,4.17-10.56,7.18-21.35,11.78-31.76,9.57-21.65,20.89-42.47,30.17-64.25.77-1.81-1.73-3.65-2.64-1.55h0Z"/><path class="cls-8" d="M150.15,420.3c.74.74,1.81.92,2.79,1.16s2.05.5,3.06.82c.49.16.98.33,1.45.53.23.1.46.21.69.32.06.03.12.06.18.09-.11-.06-.12-.06-.03-.01.1.05.19.11.29.17.41.25.8.53,1.15.86.06.05.28.28.11.1.09.1.17.2.25.3.21.27.4.54.66.76.51.43,1.25.17,1.65-.25.51-.53.65-1.3.46-2-.3-1.09-1.42-2.04-2.34-2.64-.97-.63-2.05-1.07-3.15-1.41-1.04-.32-2.1-.55-3.16-.78-.52-.11-1.05-.22-1.57-.33-.31-.06-.64-.17-.95-.19-.1,0-.21,0-.3,0-.13,0-.25.01-.37.05.12-.01.1-.01-.04.01-1.11.17-1.64,1.62-.83,2.44h0Z"/><path class="cls-8" d="M160.58,422.96c-.23.19-.4.38-.59.61l.12-.15c-.04.05-.08.1-.12.15-.05.06-.11.12-.16.19-.26.29-.55.55-.82.83-.55.57-1.15,1.1-1.78,1.59-.31.24-.62.48-.93.72-.15.12-.31.23-.46.34-.08.06-.17.12-.25.18-.3.22.31-.21,0,0-.74.51-1.59,1.01-2.09,1.78-.31.48-.15,1.15.18,1.56.39.48.97.66,1.58.58.81-.11,1.61-.65,2.28-1.09.78-.51,1.55-1.04,2.26-1.64.62-.52,1.22-1.07,1.75-1.68.6-.69,1.3-1.63,1.42-2.56.08-.6-.16-1.23-.73-1.52s-1.18-.26-1.68.14h0Z"/><path class="cls-8" d="M158.06,430.1c1.46.48,3.41.15,4.92.02,1.79-.16,3.61-.43,5.34-.91s3.28-1.11,4.74-2.02c1.46-.92,3.04-2.19,3.37-3.96.19-1-1.21-1.95-2.05-1.33-.65.48-1.11,1.08-1.67,1.64-.49.49-1.07.9-1.67,1.26-1.3.79-2.74,1.3-4.21,1.7s-3.04.69-4.59.86c-.77.08-1.54.15-2.32.19-.73.04-1.51.02-2.2.27-1.28.46-.67,1.96.34,2.29h0Z"/><path class="cls-8" d="M405.14,226.13c-.42-.25-.81-.54-1.18-.85-.07-.06-.18-.21-.26-.23.1.1.13.12.07.07-.02-.02-.05-.04-.07-.07-.05-.04-.09-.09-.14-.13-.16-.16-.32-.33-.48-.5-.59-.64-1.13-1.33-1.7-2-.37-.44-1.1-.48-1.55-.13-.42.33-.68.96-.29,1.42,1.26,1.47,2.47,3.04,4.17,4.03.48.28,1.17.23,1.53-.23.32-.4.39-1.07-.12-1.38h0Z"/><path class="cls-8" d="M410.57,228.9c-.47-.19-.94-.39-1.4-.59-.37-.16-.79-.31-1.13-.53.06.04.19.1.05.03-.05-.03-.1-.05-.16-.08-.1-.05-.2-.11-.3-.16-.22-.12-.44-.24-.66-.36-.61-.35-1.21-.72-1.82-1.08-.49-.29-1.19-.23-1.56.24-.32.39-.4,1.11.12,1.4,1.1.62,2.2,1.25,3.33,1.81.85.42,1.72.78,2.6,1.14.5.2,1.2-.07,1.42-.56s.03-1.03-.49-1.24h0Z"/><path class="cls-8" d="M399.67,239.07c3.25,1.41,6.57,2.91,10.14,1.74,3.25-1.07,8.1-4.48,5.75-8.39-1.08-1.81-3.13-2.72-4.99-3.52-1.12-.49-2.19,1.26-.93,1.8,1.58.68,3.73,1.52,4.34,3.31.69,2.03-1.74,3.54-3.2,4.36s-3.07,1.21-4.77.93c-1.9-.31-3.71-1.2-5.46-1.96-1.07-.46-2.08,1.2-.88,1.72h0Z"/><path class="cls-8" d="M386.2,224.28c-1.68,2.81-2.08,6.69-.09,9.46,1.77,2.45,5.27,2.79,8,3.44,1.91.45,3.74,1.13,5.54,1.91,1.08.47,2.11-1.22.89-1.74-1.85-.79-3.73-1.46-5.69-1.91-1.63-.37-3.26-.72-4.85-1.25-3.94-1.32-3.95-6.23-2.14-9.31.61-1.04-1.13-1.5-1.67-.6h0Z"/><path class="cls-8" d="M400.52,221.77c-.58-.26-1.24.02-1.81.19s-1.1.34-1.64.54c-.6.22-1.19.48-1.75.79-.64.35-1.36.77-1.75,1.4-.25.4-.3.95-.09,1.37.19.38.59.58,1,.45.33-.11.58-.33.86-.52.23-.16.47-.3.72-.43.12-.07.25-.13.37-.2.07-.04.14-.07.21-.11-.09.05-.11.05,0,0,.27-.12.54-.24.82-.35.51-.2,1.03-.39,1.54-.56.62-.21,1.25-.39,1.68-.92.39-.48.53-1.34-.15-1.64h0Z"/><path class="cls-8" d="M393.3,225.28c-.02.62.46,1.3.85,1.76.3.35.63.66.98.96.42.36.88.68,1.35.98.17.11.35.22.53.31.34.16.69.34,1.07.33.34-.01.63-.11.85-.38.19-.24.3-.61.16-.91-.1-.21-.19-.39-.35-.57-.04-.05-.09-.1-.13-.14-.11-.1-.22-.18-.33-.27-.31-.25-.66-.47-.98-.71l.28.21c-.26-.2-.52-.4-.79-.6l.29.21c-.34-.25-.67-.52-.97-.82-.29-.28-.58-.55-.84-.86l.19.24c-.16-.21-.27-.33-.5-.48-.04-.03-.09-.06-.13-.08-.3-.19-.73-.21-1.05-.04-.34.18-.48.49-.49.86h0Z"/><path class="cls-8" d="M396.54,227.23c-.74-.36-1.72-.25-2.51-.34-.89-.1-1.76-.26-2.63-.49-.76-.21-1.46-.46-2.24-.92.15.09,0,0-.07-.05-.08-.05-.15-.11-.23-.17-.16-.12-.31-.26-.46-.4-.1-.09.09.12-.05-.05-.11-.14-.23-.27-.36-.4-.19-.19-.41-.33-.64-.47-.66-.39-1.32.2-1.29.87.05,1.11,1.22,1.95,2.08,2.49.85.54,1.79.9,2.76,1.17s2.01.4,3.03.48c.89.07,2.01.26,2.82-.18.65-.35.3-1.29-.23-1.54h0Z"/><path class="cls-8" d="M406.4,227.14c-.37.06-.75.12-1.1.25-.39.14-.77.3-1.14.5-.82.45-1.63,1.07-1.93,2-.04.13-.02.31.04.43.09.17.26.27.44.32.39.11.89-.02,1.19-.28.12-.1.23-.21.34-.32l-.21.2c.2-.19.41-.37.62-.56l-.23.22c.28-.26.6-.49.92-.7l-.28.18c.24-.15.48-.28.73-.39.12-.05.24-.11.35-.17.06-.03.12-.05.17-.08.03-.01.05-.02.08-.03.17-.07-.29.11-.12.05.43-.17.9-.46.93-.96.03-.43-.41-.71-.82-.64h0Z"/><path class="cls-8" d="M404.04,225.55c-.21,0-.41,0-.62.01-.15.01-.3.07-.43.13-.36.14-.71.29-1.04.5s-.63.45-.88.75c-.1.12-.2.25-.29.38s-.16.3-.23.44c-.11.22-.18.44-.23.69-.08.34.01.79.28,1.03.24.21.63.18.83-.08.09-.11.18-.23.26-.34l-.16.2c.26-.32.57-.61.9-.87l-.2.16c.35-.27.74-.49,1.15-.65l-.22.08c.18-.07.36-.12.53-.21.11-.06.22-.11.34-.15l-.2.08h.04c.23-.1.4-.21.53-.43.12-.21.19-.43.21-.67.02-.21,0-.46-.1-.65-.09-.17-.25-.4-.47-.4h0Z"/><path class="cls-8" d="M358.42,428.03c-4.56-4.61-9.29-9.34-11.88-15.39-.68-1.59-3.59-.29-2.91,1.31,2.67,6.28,7.51,11.24,12.26,16,1.19,1.19,3.82-.61,2.53-1.91h0Z"/><path class="cls-8" d="M329.16,431.84c2.51,3.34,5.2,6.57,8.16,9.51,2.91,2.89,6.21,5.78,10.12,7.2,6.89,2.5,17.71.05,18.4-8.59.39-4.88-4.33-8.78-7.43-11.93-1.19-1.21-3.84.63-2.54,1.92,2.92,2.92,7.68,6.55,6.87,11.18-.78,4.44-6.32,6-10.16,5.72-4.83-.35-8.71-3.41-12.07-6.64-3.26-3.14-6.17-6.63-8.88-10.25-.99-1.32-3.56.43-2.48,1.87h0Z"/><path class="cls-8" d="M319.52,407.61c-2.07,4.23-2.53,9.77-.41,14.09,1.52,3.1,4.18,5.23,6.87,7.27,1.15.87,2.28,1.68,3.19,2.87,1,1.3,3.55-.44,2.46-1.86-2.15-2.82-5.62-4.37-7.94-7.06-1.36-1.58-2.35-3.45-2.71-5.51-.57-3.23.29-6.29.86-9.45.26-1.41-1.83-1.33-2.32-.34h0Z"/><path class="cls-8" d="M316.2,397.25c1.93,3.79,3.3,7.8,4.05,11.98.31,1.73,3.38,2.26,3.12.09-.55-4.49-2.07-8.79-4.09-12.82-.4-.81-1.38-1.46-2.31-1.23s-1.16,1.21-.77,1.98h0Z"/><path class="cls-8" d="M244.06,227.69c14.19,6.1,23.82,19.69,31.65,32.45,7.74,12.61,13.87,26.13,19.81,39.66,12.77,29.08,25.99,57.97,38.45,87.2.1-.48.19-.96.29-1.44-6.25,6.05-13.83,9.63-22.51,10.44l2.34,1.4c-9.33-19.62-20.4-38.31-30.75-57.39-.45-.83-1.73-1.89-2.78-1.32l-.04.02c.85.31,1.7.62,2.56.93-6.22-10.25-13.45-19.71-20.72-29.24-6.71-8.8-13.61-17.45-21.74-25-1.64-1.52-4.25.12-2.35,1.88,8.3,7.69,15.25,16.58,22.09,25.55,6.93,9.1,13.8,18.14,19.74,27.93.42.7,1.76,1.36,2.56.93l.04-.02-2.78-1.32c10.37,19.07,21.45,37.77,30.79,57.38.41.86,1.36,1.5,2.34,1.4,9.17-.87,17.38-4.62,24-11.03.41-.4.52-.91.29-1.44-13.32-31.18-27.29-62.1-41.19-93.03-6.17-13.73-12.76-27.36-21.15-39.89-7.85-11.71-17.22-22.98-30.45-28.67-2.09-.9-2.27,1.84-.49,2.6h0Z"/><path class="cls-8" d="M341.56,407.65c-2.45-5.88-4.27-12-6.7-17.88-.32-.77-1.23-1.33-2.06-1.24-.78.08-1.24.8-.92,1.53,2.54,5.87,4.47,11.98,7.03,17.85.29.68,1.09,1.19,1.84,1.1.7-.08,1.09-.7.82-1.37h0Z"/><path class="cls-8" d="M319.74,408.86c1.15,1.6,2.55,3.08,4.09,4.32s3.21,2.42,5.12,2.82c.67.14,1.24-.22,1.5-.84.23-.52.21-1.44-.39-1.75-.18-.09-.34-.19-.51-.3s-.36-.18-.54-.27c.13.06.08.04-.02-.01-.41-.21-.8-.44-1.2-.67-.83-.48-1.62-1.02-2.37-1.6-.74-.57-1.47-1.15-2.17-1.78-.33-.3.16.16-.16-.15-.06-.06-.13-.12-.19-.19-.17-.17-.34-.34-.51-.51-.3-.31-.59-.63-.87-.97-.44-.52-1.2-.47-1.65,0-.49.51-.54,1.31-.13,1.88h0Z"/><path class="cls-8" d="M332.59,416.91c-.19-.38-.3-.83-.48-1.23-.17-.37-.34-.73-.46-1.12s-.24-.84-.26-1.2c0-.17.03-.33.02-.5-.03.11-.02.09.03-.08-.08.13-.07.12.02-.03-.12.15-.08.07.05,0,.27-.14.52-.36.78-.53.47-.31.96-.59,1.46-.86.96-.51,1.94-.98,2.97-1.32s2.04-.59,3.09-.65c.72-.04,1.39.09,1.78.42.45.39.8,1.01,1.1,1.72s.57,1.75,1.08,2.52c.9,1.38,2.88.27,2.74-1.17-.16-1.66-.99-3.52-2.09-4.79-1.27-1.46-3.15-1.83-5-1.64-2.34.25-4.65,1.01-6.72,2.12-1.01.55-1.96,1.21-2.87,1.91-.81.62-1.32,1.34-1.46,2.37-.13.95.13,1.95.47,2.84.42,1.1.92,1.89,1.78,2.7.92.86,2.56-.34,1.98-1.48h0Z"/><path class="cls-8" d="M341.38,424.54c.17-.23.36-.44.57-.64.03-.03.21-.2.07-.07s.05-.04.08-.06c.13-.1.26-.2.4-.3.57-.4,1.16-.79,1.78-1.11.14-.07.3-.17.45-.22-.32.1-.01,0,.05-.02.08-.03.15-.06.23-.09.31-.12.64-.23.96-.33s.63-.18.96-.24c.13-.03.27-.05.4-.08.27-.05-.28.01,0,0,.08,0,.15,0,.23-.01.61-.02,1.05-.47,1.11-1.08.05-.55-.28-1.3-.88-1.42-.84-.17-1.6-.14-2.44.04s-1.62.54-2.36.93c-1.4.73-2.67,1.77-3.44,3.17-.29.53-.09,1.24.36,1.61.41.34,1.13.41,1.48-.08h0Z"/><path class="cls-8" d="M345.36,428s.2-.19.06-.06.04-.03.07-.06c.11-.09.23-.17.35-.25.27-.18.56-.33.86-.47.14-.07.16-.07,0,0,.15-.07.3-.13.45-.2.08-.04.15-.07.23-.11-.28.13-.04.02.02,0,.34-.14.68-.26,1.03-.37.66-.2,1.33-.31,2.01-.42.33-.05-.28.02.04,0,.06,0,.13-.01.19-.02.17-.01.33-.01.5-.02.29,0,.58,0,.86.03.61.08,1.06-.56,1.11-1.08.06-.62-.29-1.19-.88-1.42-1.49-.57-3.17-.31-4.65.18s-2.95,1.24-3.93,2.48c-.4.5-.4,1.3.07,1.76s1.12.49,1.6.02h0Z"/><path class="cls-8" d="M306.76,231.1c-2.25,2.47-4.56,5.13-7.51,6.8-2.84,1.61-6.6,1.9-9.29-.19-1.57-1.22-2.41-3.5-1.25-5.28,1.23-1.88,3.32-3.25,4.99-4.7,2.66-2.29,5.08-4.81,6.78-7.91.73-1.33-1.5-1.69-2.12-.58-1.69,3.05-4.21,5.42-6.83,7.67-1.84,1.58-4.21,3.23-5.22,5.53-1.07,2.45,0,5.22,2.01,6.8,2.88,2.28,7,2.42,10.32,1.08,4-1.62,7.03-5.07,9.88-8.18,1.03-1.13-.89-2.01-1.77-1.04h0Z"/><path class="cls-8" d="M314.36,217.83c.08,1.65.4,3.29.16,4.94-.15,1.06-.56,2.22-1.11,3-1.09,1.57-2.66,2.51-4.37,3.57-.82.51-1.62,1.05-2.28,1.76-.38.41-.32,1.08.16,1.38.53.33,1.22.07,1.6-.34.03-.03.24-.24.12-.12s.07-.06.11-.09c.17-.14.34-.27.52-.4.35-.25.71-.48,1.08-.7.85-.53,1.72-1.04,2.52-1.64,1.99-1.51,3.43-3.56,3.85-6.05.32-1.93.19-4.07-.58-5.87-.38-.89-1.82-.27-1.77.57h0Z"/><path class="cls-8" d="M333.91,183.8c-6.55,11.1-13.88,21.8-19.52,33.41-.51,1.05,1.21,2.07,1.81.99,6.28-11.29,13.18-22.17,19.72-33.3.66-1.11-1.31-2.29-2.01-1.1h0Z"/><path class="cls-8" d="M304.37,216.45c5.99-13.63,12.05-27.23,17.89-40.93.44-1.02-1.7-2.49-2.19-1.3-5.77,13.75-11.66,27.45-17.4,41.22-.33.8,1.3,1.93,1.71,1.01h0Z"/><path class="cls-8" d="M314.7,216.94c-.19.19-.4.36-.6.54-.12.11.18-.14-.04.04-.05.04-.09.08-.14.11-.11.09-.22.17-.33.25-.49.37-1,.69-1.52,1.02-.25.16-.5.3-.76.44-.13.07-.25.14-.38.2-.07.04-.14.07-.21.11-.11.06.14-.06-.05.02-.06.02-.11.05-.17.08-.26.13-.33.16-.21.1.06-.03.06-.03,0,0-.12.05-.25.11-.37.16-.13.05-.27.1-.4.15-.11.05-.21.1-.31.16.18-.11-.03,0-.07.03-.48.2-.77.64-.74,1.17.03.44.35.94.86.9.71-.06,1.34-.26,1.98-.57.58-.27,1.14-.59,1.67-.94,1.08-.7,2.08-1.59,2.93-2.56.33-.38.44-1,.1-1.41s-.89-.34-1.24,0h0Z"/><path class="cls-8" d="M308.38,223.63c-.11.09.22-.14.24-.16.12-.09.22-.18.32-.29.23-.26.42-.54.59-.84.32-.58.57-1.17.67-1.83.09-.58,0-1.19-.38-1.66-.43-.54-1.01-.99-1.55-1.39-1.23-.91-2.63-1.6-4.11-1.97-1.38-.35-2.74-.29-3.89.62-1,.79-1.75,2.24-1.95,3.48-.07.46.34.87.76.96.51.11.95-.17,1.27-.55-.11.13.26-.33.31-.4.09-.16.17-.33.24-.5.07-.15.13-.29.2-.44-.09.18.07-.14.07-.14.12-.23.26-.44.41-.66.09-.11.09-.11,0,0,.05-.05.09-.1.14-.15.06-.06.3-.19.06-.06.06-.04.12-.07.18-.1-.14.06-.15.06-.01,0,.05-.01.35-.08.13-.04.31-.04.49-.02.76.04.68.13,1.32.35,1.95.65.68.32,1.33.71,1.95,1.13.27.18.52.38.77.59.12.1.23.21.35.3.13.13.15.14.05.01.06.11.06.1.02-.03.02.03.06.31.04.1,0,.14,0,.29-.03.42.03-.16-.06.19-.06.18-.05.16-.11.31-.17.46-.07.17-.19.36-.32.58-.09.16-.19.33-.26.5-.03.06-.06.12-.07.19.05-.06.04-.05-.02.04-.22.36-.18.84.18,1.08.4.27.84.13,1.19-.14h0Z"/><path class="cls-8" d="M302.56,226.13c-.22-.55-.51-1.02-.9-1.47-.37-.43-.83-.79-1.3-1.1s-.98-.6-1.52-.76c-.27-.08-.56-.15-.84-.18s-.56.01-.83.05c-.22.03-.48.29-.57.48-.1.21-.12.43-.09.66s.12.46.29.63c.2.2.41.28.68.32-.35-.06-.02,0,.07.03s.18.06.26.09c.19.06.38.13.56.21.17.07-.02-.01-.08-.04.12.06.24.12.37.17.04.02.13.04.16.07l-.15-.07s.07.04.11.05c.2.1.39.21.58.33s.37.25.54.38c.01,0,.14.1.14.11,0-.02-.23-.2-.07-.05.13.11.28.24.42.34-.3-.21,0,0,.07.07.06.06.13.12.18.19.07.07.13.15.19.22.11.13-.15-.22-.05-.07.02.04.05.08.07.11.25.41.73.66,1.19.45.42-.19.69-.76.51-1.21h0Z"/><path class="cls-8" d="M300.11,228.46c-.22-.55-.51-1.02-.9-1.47-.37-.43-.83-.79-1.3-1.1s-.98-.6-1.52-.76c-.27-.08-.56-.15-.84-.18s-.56.01-.83.05c-.22.03-.48.29-.57.48-.1.21-.12.43-.09.66s.12.46.29.63c.2.2.41.28.68.32-.35-.06-.02,0,.07.03s.18.06.26.09c.19.06.38.13.56.21.17.07-.02-.01-.08-.04.12.06.24.12.37.17.04.02.13.04.16.07l-.15-.07s.07.04.11.05c.2.1.39.21.58.33s.37.25.54.38c.01,0,.14.1.14.11,0-.02-.23-.2-.07-.05.13.11.28.24.42.34-.3-.21,0,0,.07.07.06.06.13.12.18.19.07.07.13.15.19.22.11.13-.15-.22-.05-.07.02.04.05.08.07.11.25.41.73.66,1.19.45.42-.19.69-.76.51-1.21h0Z"/><path class="cls-8" d="M410.86,123.69c-.8-.04-1.66.5-2.24,1-.64.55-1.17,1.23-1.57,1.98-.8,1.49-1.16,3.21-.91,4.89.25,1.66.96,3.33,2.14,4.55,1.15,1.18,3.11,2.37,4.82,1.91.63-.17.95-1.39.28-1.71s-1.45-.39-2.15-.69c-.52-.22-1.03-.55-1.44-.94-.98-.91-1.57-2.17-1.81-3.47-.22-1.18-.02-2.43.5-3.51.27-.57.62-1.1,1.09-1.53s1.04-.61,1.61-.89c.71-.35.46-1.56-.31-1.6h0Z"/><path class="cls-8" d="M135.16,433.01c.08.02.47.11.18.04s.11.03.18.05c.36.1.71.21,1.07.3l-.43-.11c.47.12.94.27,1.39.45.23.09.45.19.67.3.12.06.23.12.34.18.21.11-.14-.09-.17-.1.06.02.13.08.18.11.2.13.39.27.58.42.09.07.17.14.25.22.04.04.08.08.12.11-.39-.33-.22-.23-.13-.12.24.26.47.53.72.78.17.17-.15-.16-.15-.16.02,0,.09.1.11.12.23.27.48.55.83.67.5.17.98.14,1.42-.16.48-.31.64-.73.77-1.26.14-.6-.25-1.46-.6-1.96-.24-.34-.55-.65-.86-.93-.58-.52-1.28-.92-1.98-1.25s-1.47-.55-2.24-.74c-.64-.15-1.27-.18-1.93-.17-.43,0-.78.07-1.11.35-.3.25-.53.69-.56,1.08-.06.9.47,1.57,1.33,1.75h0Z"/><path class="cls-8" d="M157.25,441.23c3.62-1.35,7.59-1.68,11.33-2.65,3.31-.86,7.97-2.25,9.2-5.86.4-1.18-.95-2.28-1.71-1.04-1.8,2.95-5.75,3.95-8.87,4.71-3.5.85-7.24,1.17-10.62,2.48-1.31.51-.73,2.88.67,2.36h0Z"/><path class="cls-8" d="M117.48,444.67c1.18,2.57,4.7,3.67,7.25,4.24,2.86.63,5.98.92,8.9.73,8.51-.56,15.86-5.39,23.61-8.4,1.32-.51.71-2.93-.67-2.38-7.15,2.87-13.95,7.41-21.74,8.34-2.77.33-5.69.21-8.42-.38-3.01-.65-5.35-1.68-7.78-3.53-.87-.66-1.46.72-1.16,1.38h0Z"/><path class="cls-8" d="M126.24,436.33c1.28-.27,2.83.07,4.1.61,1.54.65,2.93,1.58,4.19,2.66,1.25,1.07,2.33,2.23,3.24,3.59.4.6.79,1.22,1.08,1.87-.1-.22.1.25.11.3.04.12.09.25.12.37.09.3.14.61.21.92.39,1.61,2.77.88,2.83-.56.06-1.57-.88-3.29-1.74-4.55-1.1-1.61-2.46-3.08-3.97-4.32-2.92-2.41-6.97-4.48-10.81-3.21-.63.21-1.11.89-.93,1.56.2.72.91.89,1.55.75h0Z"/><path class="cls-8" d="M140.87,429.88c.37,0,.73.05,1.1.11-.29-.05.17.04.22.05.09.02.18.03.28.04.12.02.23.04.05,0,.09.02.18.04.27.06.7.17,1.39.45,2.04.76.02,0,.2.09.2.1-.16-.09-.19-.1-.1-.05.03.02.06.03.09.05.15.09.31.18.46.28.27.18.53.37.78.58s-.2-.16-.04-.04c.14.11.27.24.4.36-.09-.09-.22-.22-.06-.05.05.05.11.1.16.16.19.2.37.41.53.62.31.4,1.02.64,1.44.27.46-.4.53-1.12.33-1.67-.61-1.73-2.06-2.91-3.63-3.75-.83-.44-1.67-.71-2.6-.88-.87-.16-1.7-.09-2.55.14-.64.17-.74,1.03-.62,1.56.13.58.58,1.29,1.26,1.3h0Z"/><path class="cls-8" d="M334.23,431.6c4.69,5.64,9.35,11.42,16.88,12.96,4.4.9,13.3,1.49,14.66-4.35.4-1.72-2.05-1.78-2.74-.62-1.03,1.74-3.02,2.22-4.91,2.44-2.32.26-4.77.07-7.05-.44-6.24-1.41-10.53-7.08-14.41-11.73-1.1-1.32-3.58.35-2.42,1.74h0Z"/><path class="cls-8" d="M318.16,414.14c.09,1.85,1.46,3.69,2.65,5.03,1.3,1.46,2.81,2.77,4.36,3.96s3.21,2.43,4.71,3.79c1.58,1.43,2.99,3.03,4.35,4.68,1.09,1.33,3.59-.37,2.42-1.74-2.68-3.13-5.65-5.96-8.91-8.46-1.42-1.09-2.84-2.19-4.09-3.47-.66-.68-1.27-1.41-1.83-2.18-.51-.71-.82-1.5-1.26-2.25-.63-1.09-2.47-.71-2.4.65h0Z"/><path class="cls-8" d="M344.17,439.49c.53-.39.91-.95,1.36-1.43s.9-.87,1.39-1.26c1.19-.94,2.48-1.77,3.87-2.38,1.45-.64,2.99-1.07,4.58-1.15.83-.04,1.68.02,2.5.16.94.16,1.81.57,2.74.71,1.05.16,2.34-1.47,1.25-2.23-1.59-1.12-4.16-1.25-6.04-1.16s-3.84.54-5.62,1.28c-1.64.68-3.21,1.59-4.59,2.71-1.17.95-2.84,2.25-3.35,3.73-.4,1.16,1.12,1.59,1.89,1.03h0Z"/><path class="cls-8" d="M300.07,235.63c2.53-2.12,4.73-4.67,7.49-6.51,1.36-.9,2.84-1.53,4.28-2.27s3.16-1.67,4.07-3.15c.38-.62-.36-1.97-1.11-1.42-1.39,1.02-2.69,1.99-4.25,2.76-1.45.72-2.89,1.44-4.22,2.37-2.7,1.87-4.8,4.47-7.29,6.6-.67.58.25,2.27,1.03,1.62h0Z"/><path class="cls-8" d="M287.45,234.57c1.5,2.08,3.73,3.18,6.28,3.22,2.36.04,4.65-.39,6.35-2.15.63-.66-.37-2.37-1.04-1.64-1.42,1.54-3.29,1.99-5.32,2.02-.98.02-1.88-.05-2.8-.42-.97-.39-1.88-1.06-2.52-1.89-.22-.28-.59-.57-.93-.29-.31.26-.23.86-.02,1.15h0Z"/><path class="cls-8" d="M291.13,229.13c1.77.45,3.56,1.01,5.01,2.11.62.47,1.22.99,1.69,1.61.25.33.4.58.53.95,0,0,.11.33.06.15.02.07.03.14.04.21.05.27.06.53.15.8.28.79,1.4.87,1.68.04.36-1.04-.3-2.27-.93-3.08s-1.32-1.45-2.11-2.02c-1.77-1.28-3.77-2.09-5.93-2.41-.99-.15-1.07,1.41-.18,1.64h0Z"/><path class="cls-8" d="M403.25,235.71c-2.68-1.09-5.16-2.67-7.94-3.49-1.35-.4-2.72-.6-4.11-.79-1.56-.22-2.95-.69-4.45-1.15-.4-.12-.66.18-.72.54-.07.45.17.86.5,1.13,2.28,1.88,5.89,1.5,8.61,2.24,2.82.77,5.36,2.28,8.07,3.35,1.01.4.84-1.5.04-1.83h0Z"/><path class="cls-8" d="M412.48,232.4c-.63,1.57-1.92,2.85-3.54,3.38-1.8.58-3.76.97-5.51.01-1.07-.59-1.24,1.24-.42,1.67,1.06.55,2.2.84,3.4.76,1.07-.07,2.12-.37,3.13-.72,1.96-.67,3.44-2.16,4.14-4.1.13-.36-.09-.85-.37-1.08-.23-.19-.68-.28-.83.08h0Z"/><path class="cls-8" d="M408.44,228.31c-1.74.8-3.23,1.96-4.45,3.45-.57.7-1.04,1.47-1.4,2.3s-.68,2.18-.06,2.96c.24.3.57.5.96.38.36-.11.62-.45.66-.83.02-.24-.02-.46-.05-.7-.01-.08-.02-.16-.03-.24.02.22,0-.07,0-.11.03-.39.06-.51.19-.86.25-.66.66-1.28,1.11-1.86.96-1.25,2.3-2.13,3.64-2.94.37-.23.53-.66.37-1.08-.14-.38-.57-.64-.96-.46h0Z"/><path class="cls-8" d="M189.08,167.33c5.96,1.15,11.79,2.86,17.28,5.5,2.66,1.28,5.2,2.79,7.6,4.49,2.6,1.84,4.89,4.05,7.46,5.92,1.24.9,3.16-.42,2.11-1.81-1.88-2.51-4.65-4.58-7.2-6.37-2.66-1.86-5.49-3.48-8.43-4.87-5.81-2.76-12.11-4.49-18.5-5.16-1.68-.17-1.97,1.98-.32,2.3h0Z"/><path class="cls-8" d="M205.02,158.1c3.44.94,6.61,2.59,9.54,4.6,1.49,1.03,2.93,2.15,4.31,3.32,1.34,1.14,2.53,2.45,3.89,3.56.54.44,1.32.1,1.64-.42.39-.64.31-1.41-.14-2-1.09-1.46-2.58-2.67-3.97-3.84-1.46-1.23-3.01-2.35-4.62-3.37-3.11-1.95-6.5-3.62-10.13-4.3-1.42-.27-1.84,2.09-.52,2.45h0Z"/><path class="cls-8" d="M356.59,92.6c-2.49-.01-4.81.68-7.07,1.69-2.13.96-4.44,2.32-5.77,4.3-.66.99.57,2.41,1.55,1.54,3.31-2.92,7.38-4.76,11.74-5.45,1.16-.18.54-2.08-.45-2.08h0Z"/><path class="cls-8" d="M345.46,113.44c1.76-1.39,3.46-2.78,5.4-3.93,2.18-1.3,4.51-2.33,6.89-3.18,4.56-1.62,9.26-2.49,14.08-2.79,1.3-.08,1.3-2.22.03-2.37-4.95-.57-10.26.82-14.87,2.55-4.41,1.65-9.78,4.06-12.56,8.06-.47.68.03,2.46,1.04,1.67h0Z"/><path class="cls-8" d="M331.79,150.61c2.35,1.48,5.6.78,7.44-1.17.67-.71-.45-1.77-1.2-1.26-.22.15-.46.29-.7.41-.11.06-.23.12-.34.18-.07.04-.14.07-.22.11-.04.02-.13.06-.04.02-.5.21-1.02.39-1.56.5-.07.01-.13.02-.03,0-.06,0-.13.02-.19.03-.13.01-.25.03-.38.03-.14,0-.28,0-.43,0-.02,0-.21-.01-.1,0s-.08,0-.1,0c-.27-.02-.53-.07-.79-.14-.06-.02-.12-.03-.18-.05.14.04,0,0-.06-.03-.13-.05-.26-.12-.39-.18-.42-.22-1.02-.07-1.23.37-.23.49.08.93.48,1.19h0Z"/><path class="cls-8" d="M258.92,245.16c-3.4,2.59-8.09,2.06-11.69.15-.85-.45-1.74.77-.9,1.34,4.13,2.8,9.91,3.2,13.86-.14.78-.66-.51-1.93-1.28-1.35h0Z"/><path class="cls-8" d="M129.91,355.4c-.04.21-.08.41-.12.62-.07.32-.11.64-.15.97l.06-.46c-.06.46-.14.91-.23,1.36-.07.36-.1.73-.15,1.09-.05.39,0,.78.05,1.17.07.51.44,1.06.96,1.17s.98-.27,1.2-.73c.12-.26.26-.52.33-.81.04-.17.07-.33.1-.5.09-.45.14-.91.19-1.37.04-.32.08-.65.09-.97.01-.48-.06-.98-.12-1.47s-.5-1.18-1.08-1.16-1.04.55-1.14,1.11h0Z"/><path class="cls-8" d="M142.9,357.16c-.05.35-.1.68-.1,1.03,0,.48.01.96.05,1.45.03.34.03.7.09,1.04.07.44.19.88.35,1.29.19.48.64.86,1.18.79s.95-.56,1.05-1.07c.09-.46.14-.91.15-1.37s-.07-.99-.11-1.48c-.03-.36-.09-.7-.15-1.06-.07-.44-.22-.85-.35-1.28-.15-.49-.75-.92-1.27-.73-.2.07-.38.2-.52.36-.26.28-.33.67-.38,1.03h0Z"/><path class="cls-8" d="M127.88,206.17c7.51,3.5,12.79,11.04,12.41,19.48-.17,3.73-1.46,7.46-3.84,10.36-3.03,3.68-6.96,5.19-11.26,6.85-1.5.58.13,2.31,1.2,2.19,7.32-.84,13.75-6.65,15.95-13.54,2.08-6.51.51-13.9-3.49-19.36-2.55-3.48-6.02-6.16-9.95-7.89-1.44-.64-2.47,1.22-1.01,1.91h0Z"/><path class="cls-8" d="M132.96,207.44c.44-1.29.77-2.56,1.37-3.8.63-1.31,1.42-2.53,2.3-3.68,1.72-2.26,3.8-4.2,6-5.99s4.56-3.44,7.17-4.65c1.09-.5,2.18-1.01,3.3-1.43s2.34-.6,3.54-.9c1.07-.27,1.21-1.98.13-2.32-1.18-.37-2.55.16-3.67.54-1.32.46-2.59,1.04-3.85,1.63-2.89,1.34-5.48,3.18-7.94,5.19s-4.65,4.14-6.5,6.65c-1.76,2.39-3.51,5.42-3.55,8.47-.01,1.06,1.36,1.27,1.7.28h0Z"/><path class="cls-8" d="M130.5,242.53c-.33,1.32.2,2.86.64,4.1.5,1.4,1.21,2.74,2,4,1.51,2.42,3.48,4.4,5.63,6.27,2.41,2.09,4.99,3.99,7.76,5.56,2.59,1.47,5.65,3.12,8.7,2.96,1.11-.06,1.31-1.63.36-2.07-1.25-.58-2.59-.89-3.88-1.37-1.36-.51-2.68-1.13-3.95-1.83-2.54-1.39-4.91-3.1-7.14-4.94-1.95-1.61-3.74-3.28-5.15-5.39-.79-1.17-1.45-2.42-1.99-3.72-.5-1.23-.61-2.61-1.15-3.81-.4-.91-1.61-.63-1.83.25h0Z"/></g></g></svg>