<?xml version="1.0" encoding="UTF-8"?><svg xmlns="http://www.w3.org/2000/svg" viewBox="0 0 500 500"><defs><style>.cls-1{fill:#e2ecc5;}.cls-2{fill:#f2f2f2;mix-blend-mode:multiply;}.cls-3{fill:#f5de93;}.cls-4{fill:#fff;}.cls-5{fill:#d1e2af;}.cls-6{fill:none;}.cls-7{fill:#fcf09a;}.cls-8{fill:#f9ecdf;}.cls-9{isolation:isolate;}.cls-10{fill:#9e9e9f;}.cls-11{fill:#4c4a4a;}.cls-12{fill:#b8d19f;}.cls-13{fill:#f5e2d0;}.cls-14{fill:#eeceb9;}.cls-15{fill:#f0d3a7;}.cls-16{fill:#d98e7a;}.cls-17{fill:#b8967b;}</style></defs><g class="cls-9"><g id="_레이어_1"><rect class="cls-6" width="500" height="500"/><path class="cls-7" d="M142.18,260.05s-38.86,1.89-77.28,40.1l2.03-17.79s-17.03-9.4-36.41-3.21c0,0-17.11,57.1-4.9,75.89,14.73,22.66,63.38-5.79,78.92-21.25l-1.31,70.29s21.38,8.94,64.41,8.01c43.02-.93,72.92-10.53,72.92-10.53l-5.79-94.93s14.61-6.42,28.04-11.45c13.44-5.02,89.29-33.63,89.29-33.63,0,0,.41-12.52-6.41-23.63-6.82-11.11-10.96-17.8-10.96-17.8,0,0-48.48,16.91-63.37,21.3-14.88,4.39-67.37,10.98-67.37,10.98,0,0-54.25,6.6-61.81,7.66Z"/><path class="cls-8" d="M37.12,277.89l3.24-13.36s-6.7-11.31-6.37-21.6c0,0,3.22-10.37,10.27-14.1,7.05-3.73,18.91-6.29,18.7,0,0,0,6.53-1.41,6.28,2.26-.25,3.67-3.59,4.17-3.59,4.17,0,0,6.06,2.24,1.28,5.7l-7.26,1.96-8.81,9.18s5.61,7.44,3.38,14.03c0,0-.81,5.67,5.8,6.45l.08,7.64s-7.7-4.6-23-2.34Z"/><path class="cls-8" d="M93.64,173.06s-.57,13.92,0,17.13c0,0-9.83-1.79-7.75,12.26,0,0,1.22,6.09,3.13,9.42,0,0,19.48-2.71,24.07,17.17l-1.08,1.95s5.07,3.83,5.14,7.76l-2.59-.3c0,1.59.64,3.04,1.41,4.41.92,1.64,1.52,1.38,3,2.22.97.55,1.99,1.75,1.99,2.93,0,1.13-.93,2.01-1.78,2.75,0,0,8.38,6.77,25.79,9.84,0,0,.2,11.67,15.41,12.79,15.21,1.12,22.17-12.17,22.17-12.17,0,0,41.62-11.05,48.1-45.04,0,0,13.71,3.62,15.99-10.77,2.28-14.38-4.65-15.32-11.85-15.32l.87-7.06s-2.3-8.62-12.73-14.28c-10.44-5.66-31.54-10.94-39.38-22.74,0,0-.69,7.13,5.4,15.17,0,0-41.47-1.4-54.04-21.97,0,0-6.34,22.78-41.25,33.86Z"/><path class="cls-8" d="M338.87,226.8s6.32,10.57,9.73,17.47c0,0,7.49-5.94,13.03-8.74,5.54-2.8,10.25-7.59,7.28-16.58s-5.11-20.24-6.02-24.49c-.92-4.25-5.28-8.27-5.28-8.27,0,0-2.92-21.71-9-21.57,0,0-4.26-.99-3.82,4.77,0,0-5.44-.2-2.73,6.23,2.72,6.43,6.34,13.9,6.34,19.21s-.44,19.23-.44,19.23c0,0-1.65,7.13-9.09,12.73Z"/><path class="cls-13" d="M138.25,223.44c.07-8.45-7.05-12.22-13.58-9.99-8.65,2.96-8.38,12.37-5.6,16.76,3.62,5.7,12.88,5.29,17.07.46,1.83-2.12,2.09-4.68,2.11-7.23Z"/><path class="cls-13" d="M206.52,223.7c.07-8.45-7.05-12.22-13.58-9.99-8.65,2.96-8.38,12.37-5.6,16.76,3.62,5.7,12.88,5.29,17.07.46,1.83-2.12,2.09-4.68,2.11-7.23Z"/><path class="cls-14" d="M158.69,217.53s-8.9.69-7.6,11.5c1.3,10.81,10.05,9.41,10.05,9.41,0,0,7.56-.91,7.56-9.91,0-8.31-4.39-11.87-10.01-10.99Z"/><path class="cls-10" d="M244.36,131.45c-16.65-48.71-73.4-41.26-73.4-41.26-39.3-4.39-63.53,10.91-78.1,37.22-14.58,26.31-3.69,64.68-3.69,64.68,2.46-1.87,4.37-2.27,4.37-2.27l.68-16.95c30.25-4.15,41.93-33.1,41.93-33.1,17,21.82,52.78,21.4,52.78,21.4-8.34-6.33-5.83-15.78-5.83-15.78,1.94,3.76,16.13,14.55,32.96,20.57,16.83,6.03,19.54,17.17,19.54,17.17l-.83,7.24s5.61-1.35,9.59,1.92c0,0,10.44-30.31,0-60.84Z"/><path class="cls-7" d="M184.17,260.46c-3.75,10-15.06,14.26-25.12,12.01-7.15-1.6-10.74-6.49-15.17-11.8-2-2.4-5.99-.1-5.77,2.75,2.05,26.18,48.2,21.72,52.86-1.18.99-4.87-5.1-6.29-6.8-1.77Z"/><path class="cls-15" d="M51.62,252.11s13.35,2.28,31.96-3.36c18.61-5.63,29.52-19.72,29.52-19.72,0,0-1.02-18.22-24.54-17.17s-33.11,13.15-33.11,13.15c0,0,5.86-1.5,7.4,4.14,0,0,5.38-1.69,6.3,1.7s-3.2,4.31-3.2,4.31c0,0,2.41.93,2.44,3.94s-8.71,3.82-8.71,3.82l-8.06,9.18Z"/><path class="cls-15" d="M54.89,267.74s-.51,5.94,12.05,5.7,38.01-6.66,48.23-15.96c0,0,3.02-1.95,2.53-6.91-.73-.74-2.13-.35-2.88.37-.75.72-1.37,1.68-2.37,1.98-1.09.33-2.6-.15-3.64.38-1.64.83-.56,2.91-1.64,4.13-2.28,2.58-5.71.1-8.37,1.34-1.31.61-1.3,2.39-2.1,3.46-1.07,1.42-2.8,2.24-4.52,2.5-3.33.51-6.51-1.68-9.79-.76-1.84.52-3.33,1.8-5.12,2.42-2.3.79-3.87-.42-6.11-.53-1.97-.09-4.05,2.05-5.6,3.08-1.92,1.27-4.01,1.9-5.13-.14-1.04-1.9-3.33-1.79-5.52-1.06Z"/><path class="cls-5" d="M70.43,259.15c-1.44,3.41-6.44,4.01-8.49,4.02-2.61.01-4.53-.4-7.28-1.32-.17.78-.45,2.26-.3,3.49.14,1.14.65,2.05,1.98,1.96,1.84-.12,2.83-.26,4.27,1.02.88.78,1.83,1.67,3.1,1.56,2.37-.21,3.58-2.61,5.49-3.69,1.1-.62,2.26-.66,3.41-.16,1.24.54,2.43,1.66,3.87,1.46,1.27-.18,2.21-1.35,3.13-2.14,4.07-3.5,8.78,1.39,13.07-.88,2.3-1.21,3.12-4.31,5.45-5.46,2.94-1.46,6.74.78,9.38-1.55,1.35-1.19.19-3.32,1.4-4.37,1.26-1.1,2.91,0,4.36-.26,1.8-.32,2.1-2.62,3.88-3.07,1.05-.26,2.62-.31,3.04-1.55.4-1.17-.83-2.21-1.69-2.77-1.46-.96-2.81-.8-4.16.27-.64.51-1.32.97-2.03,1.39-2,1.17-4.14,1.66-6.29,2.44-1.41.51-2.37,1.3-3.35,2.41-3.09,3.51-8.11,5.21-12.69,4.29-.45,1.31-1.89,2.07-2.54,2.41-4.93,2.54-11.93,3.9-17,.5Z"/><path class="cls-16" d="M53.79,258.59s.51,1.67.52,3.63c0,0,2.47,1.88,9,.91s7.32-4.09,6.77-5.74c0,0-2.1-.04-5.35,1.26s-7.33.52-7.33.52c0,0-1.67-1.01-3.62-.59Z"/><path class="cls-16" d="M70.09,257.39s1.65,5.25,11.78,3.29c10.13-1.96,8.43-7.2,8.43-7.2,0,0-3.95.21-7.48,1.27s-3.83,2.31-8.28,2.48l-4.45.16Z"/><path class="cls-16" d="M89.87,253.47s-.05,3.07,3.92,2.96c3.97-.11,9.87-3.57,10.76-6.32,0,0,9.41-1.54,11.19-5.59,0,0,.94-1.84-1.3-2.97,0,0-.84.33-2.35,1.84s-2.12,1.76-4.56,2.39c-2.44.63-4.63,2.69-4.63,2.69,0,0-3.5,3.46-7.68,4.26-4.18.79-5.35.74-5.35.74Z"/><path class="cls-17" d="M53.79,257.97c-.06.84.55,1.06,1.27,1.02,1.06-.06,2.08.04,3.11.3,2.08.51,3.72.64,5.76-.12,1.88-.7,3.67-1.73,5.66-1.97,1.89-.23,3.8.27,5.69.06,2.11-.24,3.99-1.32,5.92-2.12s4.13-1.39,6.28-1.68c2.62-.35,5.3-.29,7.89-.87,2.02-.45,3.71-1.25,5.24-2.64,1.78-1.61,3.43-3.49,5.84-4.12.97-.26,1.99-.32,2.92-.7,1.23-.51,2-1.81,3.06-2.59.9-.66,2.13-1.64,2.34-2.81.49-2.64-5.12-2.26-6.42-2-3,.6-5.66,2.39-8.26,3.94-1.48.88-2.93,1.79-4.45,2.6-2.98,1.6-6.12,2.91-9.33,3.99-2.82.94-5.69,1.7-8.6,2.33-4.71,1.01-9.49,1.66-14.27,2.14-.98.1-1.97.18-2.91.49-1.36.44-2.55,1.28-3.71,2.08-.89.62-2.95,1.41-3.04,2.68Z"/><path class="cls-3" d="M50.91,252.73s1.79,1.99,2.73,4.83c0,0,2.75-3.7,6.03-4.83,0,0-4.01-.76-8.76,0Z"/><path class="cls-3" d="M86.31,248.62s6.08,1.49,7.82,1.95l2.75-6.99s-6.49,3.22-10.57,5.04Z"/><path class="cls-3" d="M105.32,238.05s10-1.16,12.03,0c0,0-1.71-6.16-5.44-7.14,0,0-3.01,4.81-6.59,7.14Z"/><path class="cls-1" d="M393.32,160.71s6.3,13.06,5.38,22.01l-7.25,10.44s5.84,15.63,31.06,13.87l5.94-13.38s11.5-5.26,15.96-6.41c0,0-2.29-3.25-2.35-6.41l-11.36,3.04,7.46-13.61s-10.95,2.9-13.08-6.98c0,0-11.79,3.83-12.93-7.41,0,0-3.44,5.46-6.57,10.98,0,0-1.29-4.93-4.73-7.99l-3.57-1.62-3.97,3.49Z"/><path class="cls-12" d="M380.36,131.68c-2.29.36-4.98,1.09-5.96,3.44-1.57,3.77,1.74,7.07,4.5,9.07,0,0-6.83,6.71,3.39,9.06,0,0-1.07,6.43,6.37,7.23,7.45.8,8.55-4.15,8.55-4.15,0,0,4.86,6.37,10.3-2.4,0,0,1.72,3.07,6.33,2.16,0,0-.41,9.91,11.25,7.18,0,0,2.44,9.78,12.3,7.37,0,0-2.47,6.66,4.67,10.18,0,0,.79,12.79,11.84,6.33,0,0,3.22,4.8,7.62.08,0,0,5.38,4.93,11.92-.62,6.72-5.69.96-10.49.96-10.49,0,0,10.56-5.86-1.83-13.78,0,0,2.42-5.03-.84-10.31,0,0,7.95-4.51,1.31-13.62,0,0,6.72-1.81,3.88-10.83,0,0-.61-3.88-8.19-5.78,0,0,2.71-9.94-9.39-9.4,0,0-.36-8.86-11.05-11.18-10.7-2.32-16.54,3.85-16.54,3.85,0,0-2.6-4.11-7.9-1.91-5.3,2.2-4.05,5.82-4.05,5.82,0,0-6.5-1.43-9.43,3.09-2.93,4.52-1.5,9.62-1.5,9.62,0,0-3.68-4.86-9.33-1.87,0,0-3.23-6.29-8.89-2.02,0,0-7.87-2.29-11.41,3.98-3.54,6.28,1.09,9.87,1.09,9.87Z"/><path class="cls-4" d="M135.6,261.81c-27.83,3.11-51.62,21.34-71.49,40.12-1.55,1.47.15,7.33,1.83,6.09,11.33-8.37,23.42-19.67,35.68-26.73,11.74-6.76,23.77-10.41,36.58-14.29,2.25-.68-.92-5.37-2.61-5.19Z"/><path class="cls-4" d="M332.91,220.65c-24.54,9.58-49.39,18.5-75.3,23.56-22.14,4.33-44.57,6.19-65.96,13.76-3,1.06-1.17,7.86,1.96,6.97,25.58-7.3,52-9.33,77.81-15.42,21.84-5.16,44.32-14.27,65.37-21.93,3.61-1.31-.14-8.4-3.87-6.94Z"/><path class="cls-4" d="M401.18,118.74c-1.56.21-2.78-1.46-4.29-1.92-2.29-.69-3.97.52-6.15,1.04-4.09.97-7.99-.66-10.75,3.47-2.05,3.06-1.88,7.38-.26,10.58-2.68.76-5.1,2.71-5.34,5.64-.23,2.85,1.78,5.06,4.18,6.41-.95,3.62-.78,8.59,3.63,8.72,1.84.05,3.55-1.91,2.14-3.57-1.23-1.44-1.59-3.13.15-4.99,1.25-1.34.31-3.39-1.21-3.95-3.06-1.11-2.87-2.42-.83-4.42,1.52-1.5,3.13-2.16,2.78-4.51-.36-2.39-2.74-4.32-.44-6.57,1.92-1.88,3.87-.26,6.11-.64,2.84-.47,5.02-3.64,7.72-.06,1.58,2.09,5.77,1.65,7.41-.21l2.29-1.92s-.84-3.94-7.13-3.09Z"/><path class="cls-4" d="M428,134.91c-1.86-.38-3.29-1.59-5.24-1.81-1.77-.2-3.77-.12-5.49.4-3.21.98-5.81,4.7-4.08,7.91.89,1.67,3.52.88,4.07-.64.28-.78.32-1.95,1.05-2.47.72-.51,2.47-.37,3.26-.25,2.04.31,3.4,1.83,5.61,1.76,2.83-.09,4-4.24.83-4.89Z"/><path class="cls-4" d="M456.78,134.7c-.84-.76-1.8-1.48-2.21-2.56-.6-1.57.29-3.34-1.08-4.61-1.57-1.46-4.12-1.12-5.93-2.03-1.32-.67-1.14-2.29-1.89-3.38-.51-.74-1.21-1.33-1.98-1.79-3.49-2.09-9.7-1.98-11.37,2.44-.81,2.15,2.48,2.92,3.86,2.03,1.02-.65,2.21-1.72,3.52-1.42,1.53.35,1.6,1.95,2.1,3.15.43,1.05,1.42,1.82,2.38,2.37,1.09.62,2.4.78,3.45,1.47,1.44.95.99,2.51,1.84,3.81.6.91,1.77,1.29,2.3,2.25.43.79-.41,1.48-.81,2.1-1.07,1.68,1,3.35,2.66,3.2,2.03-.18,4.24-1.43,4.66-3.58.31-1.64-.51-2.57-1.49-3.45Z"/><path class="cls-4" d="M476.5,134.59c.74-2.48,1.04-6.29-.25-8.47-.73-1.24-4-2.55-6.27-3.6.69-3.12-.61-6.7-3.23-8.62-1.66-1.21-5-2.24-7.63-1.83-1.28-5.9-3.57-8.65-10.42-10.29-4.25-1.01-12.68.1-16.7,2.81-2.03-2.82-5.36-2.9-7.97-1.47-1.75.96-3.56,3-4.34,5.19-3.18-.57-6.74.63-9.27,2.54-3.77,2.85-3.29,8.14-2.12,10.75.52,1.14,2.13,1.34,3.15.6,2.56-1.85-.28-4.77,2.39-6.79,1.38-1.05,3.05-1.79,4.8-1.78,1.16,0,2.41.39,3.54-.02,1.27-.45,1.48-1.81,1.83-2.95.57-1.85,2.24-2.94,4.14-2.98.99-.02,1.86.21,2.7.72.66.39,1.28.95,2.03,1.15,1.41.37,3.27-.65,4.55-1.15,3.18-1.24,6.47-2.34,9.91-1.45,2.71.7,5.15,2.39,6.48,4.92.91,1.72.89,4.39,2.64,5.56,1.4.93,3.15.73,4.77.69,1.16-.03,2.74-.15,3.72.64,1.56,1.27-.15,3.54.07,5.13.18,1.3,1.03,2.52,2.27,2.99,1.58.6,3.42,1.18,4.07,2.95.66,1.78-.61,2.89-1.65,4.15-1.44,1.73-1.99,3.96-1.13,6.09,1.11,2.78,2.7,5.37,1.16,8.33-.5.96-1.22,2.04-.84,3.17.33.99,1.42,1.68,2.46,1.61,4.07-.28,4.5-5.55,4.24-8.62-.2-2.4-.81-4.56-2.04-6.36,1.33-.85,2.53-2.31,2.92-3.63Z"/><path class="cls-4" d="M474.13,163.72c-1.72-1.24-6.11,1.11-4.14,2.99,1.14,1.08,2.4,2.91,1.89,4.57-.6,1.94-4.69,2.37-3.34,4.98.99,1.91,4.28,6.96.11,7.67-1.36.23-2.51-.56-3.8-.82-1.47-.3-2.74.28-4.04.9-1.28.61-2.22.29-3.53.4-1.19.1-4.51,1.29-3.71,2.93.58,1.2,2.93,1.73,4.1,1.78,1.8.08,3.55-.61,5.08-1.49,3.97,1.26,7.73,1.99,11.26-1.52,3.03-3.01,2.94-7.05.7-10.47,3.19-3.04,3.71-8.83-.57-11.92Z"/><path class="cls-2" d="M96.9,334.15c-18.25,10.36-45.93,32.26-67.04,18.64-1.83-1.18-4.62,1.28-2.9,3.05,18.99,19.48,56.81-5.57,73.21-17.55,2.77-2.02-.59-5.66-3.27-4.14Z"/><path class="cls-2" d="M348.83,256.11c-27.05,9.16-53.86,19.11-80.74,28.76-16.8,6.03-38.57,10.23-46.33,28.2-1.26,2.93,2.76,4.52,4.55,2.21,3.97-5.11,4.23-6.03,8.46-8.66,17.87-11.14,44.29-17.71,61.13-23.77,19.86-7.16,35.37-13.52,55.1-21.01,3.92-1.49,1.6-7-2.17-5.72Z"/><path class="cls-2" d="M230.79,404.17c3.15-.76,7.15-1.71,9.3-2.63-.92-15.73-1.99-30.51-2.79-44.82-.82-14.61-.75-27.26-2.79-46.97-.26-2.51-3.3-2.23-4.21.4-4.27,12.3-3,29.58-1.99,45.64,1.04,16.52,1.33,29.66,2.48,48.37Z"/><path class="cls-2" d="M431.55,171.58c-1.93,1.56-3.12,3.99-4.33,6.13-1.12,1.97-2.62,4.03-2.06,6.34.39,1.62,3.15,1.3,4.1.62,1.81-1.28,2.54-3.57,3.5-5.51.94-1.91,2.56-3.95,2.93-6.03.39-2.16-2.81-2.62-4.14-1.54Z"/><path class="cls-2" d="M423.12,193.38c-2.12.73-3.3,3.46-4.27,5.32-1.13,2.17-2.57,4.68-2.7,7.16-.1,1.99,3.7,3.87,5.05,2.18,1.48-1.87,2.14-4.36,3.1-6.53.86-1.94,2.21-4.12,2.21-6.28,0-1.62-2.13-2.28-3.4-1.84Z"/><path class="cls-2" d="M236.07,190.47c2.6-.21,5.9-.16,8.44.49,17.21-58.09-12.65-99.64-64.47-101.47-4.82-.17-5.51,7.07-.71,7.45,19.47,1.57,35.58,13.2,47.61,29.46,11.15,15.09,14,45.04,9.13,64.06Z"/><path class="cls-4" d="M112.2,406.83c-.94-33.35-.39-54.81-2.07-78.92-.17-2.41-4.4-3.44-4.74-.62-2.8,23.34-2.74,51.47-1.76,76.93,0,0,1.98.79,3.47,1.25,2.25.69,5.1,1.36,5.1,1.36Z"/><path class="cls-11" d="M160.11,240.31c-.37,0-.75-.02-1.13-.07-3.47-.42-6.5-2.77-8.32-6.46-2.13-4.31-2.16-9.57-.09-13.1,2.51-4.28,7.42-6.1,12.22-4.52,4.32,1.42,8.39,5.79,7.71,12.35h0c-.42,4.05-2.23,7.73-4.85,9.82-1.62,1.3-3.52,1.96-5.54,1.96ZM159.36,219.37c-1.98,0-4.15.83-5.56,3.22-1.44,2.44-1.35,6.36.22,9.54,1.25,2.53,3.22,4.13,5.41,4.4,1.47.18,2.75-.2,3.88-1.1,1.82-1.46,3.15-4.25,3.47-7.28h0c.49-4.79-2.47-7.53-5.15-8.41-.68-.22-1.46-.36-2.27-.36Z"/><path class="cls-11" d="M240.34,126.04c9.61,19.96,8.24,43.41,2.62,64.29-.55,2.06,2.42,3.69,3.08,1.24,5.92-21.9,7.04-46.42-3-67.33-1.13-2.36-3.72-.31-2.71,1.8h0Z"/><path class="cls-11" d="M170.4,91.99c28.05-2.32,56.75,7.67,69.96,34.04,1.16,2.32,3.71.3,2.68-1.78-13.73-27.61-43.6-38.75-73.1-35.41-1.5.17-.98,3.27.46,3.15h0Z"/><path class="cls-11" d="M235.68,191.79c3.12-.08,6.75.44,8.69,3.19,1.89,2.68,1.41,6.71.55,9.67-.85,2.92-2.55,5.87-4.87,7.88-.93.81-2.04,1.46-3.26,1.67-1.42.25-2.54-.21-3.86-.66-2.04-.7-2.85,2.48-1.29,3.5,2.4,1.58,5.67,1.12,8.11-.04,2.88-1.36,5.12-3.71,6.69-6.45,3.12-5.42,4.72-14.38-.33-19.19-2.89-2.76-7.1-3.64-10.89-2.56-1.59.45-1.22,3.03.45,2.98h0Z"/><path class="cls-11" d="M171,88.76c-13.37-1.5-27.26-1.57-40.03,3.19-10.43,3.88-19.21,10.67-27.14,18.35-21.89,21.2-23.51,52.16-17.19,80.43.52,2.31,4.33,1.07,3.85-1.09-6.08-26.9-5.12-56.74,15.81-77.05,7.4-7.18,15.58-13.72,25.33-17.38,12.18-4.57,25.4-4.53,38.17-3.18,2.03.21,3.57-3.01,1.21-3.28h0Z"/><path class="cls-11" d="M164.78,204.14c-.17-1.45-.62-2.75-1.6-3.85-.7-.78-1.66-1.41-2.66-1.74-2.2-.72-4.73-.37-6.35,1.42-.58.64-1,1.31-1.34,2.1-.37.84-.65,1.87-.49,2.79.12.7.53,1.57,1.36,1.63s1.39-.53,1.71-1.24c.09-.2.15-.35.2-.57.03-.15.28-.89.03-.16.08-.23.13-.47.22-.69.03-.08.22-.47.04-.12s.01-.01.06-.1c.05-.09.11-.18.17-.27.03-.04.06-.07.08-.11.13-.22-.12.15-.15.18.15-.13.27-.3.42-.44.07-.06.35-.27.07-.07-.3.21.05-.03.12-.07.15-.09.31-.18.47-.26.09-.04.18-.07.26-.12.16-.07-.26.09-.24.09.06,0,.14-.04.2-.06.17-.05.35-.09.52-.12.09-.02.19-.03.29-.04.05,0,.11,0,.16-.01.2-.03-.41,0-.21,0,.4.02.78.03,1.16.12.06.01.22.09.29.07-.02,0-.43-.15-.19-.05.04.02.08.03.12.04.2.07.4.16.59.26.17.09.32.19.49.29.14.08-.19-.14-.19-.13.02.03.11.08.14.11.09.08.18.15.27.23.16.14.32.41.5.52.02.01-.26-.32-.14-.17.12.15.25.31.38.45.03.03.06.07.09.1.14.14-.22-.3-.11-.13.14.2.31.39.44.6.04.06.22.43.12.19s.08.21.11.28c.24.65.86,1.14,1.57.87s1.09-1.09,1-1.82h0Z"/><path class="cls-11" d="M135.68,200.01c.22-5.3-6.4-7.09-8.55-2.89-1.51,2.95.11,8.37,4.08,8.27,2.88-.07,4.36-2.79,4.47-5.39Z"/><path class="cls-11" d="M193.84,198.76c.22-5.3-6.4-7.09-8.55-2.89-1.51,2.95.11,8.37,4.08,8.27,2.88-.07,4.36-2.79,4.47-5.39Z"/><path class="cls-11" d="M112.18,125.6c3.15-3.83,6.82-6.81,10.94-9.52,3.83-2.52,7.81-5.25,12.27-6.52.64-.18,1.56-.72,1.5-1.51s-.96-.85-1.58-.76c-5.13.82-9.82,3.93-14.06,6.76-2.18,1.45-4.37,2.89-6.31,4.67s-3.68,3.91-5.19,6.14c-1.01,1.49,1.68,1.65,2.43.74h0Z"/><path class="cls-11" d="M109.1,141.61c5.01-5.75,11.2-10.24,17.19-14.88,1.21-.94.65-4.09-1.11-3.04-6.78,4.02-12.72,9.51-17.52,15.72-.44.58-.55,1.49-.13,2.11.4.58,1.1.62,1.56.09h0Z"/><path class="cls-11" d="M184.5,108.26c5.99,1.42,11.58,4.03,16.34,7.95,2.14,1.76,4.09,3.72,5.91,5.81s3.48,4.63,5.56,6.6c1.11,1.05,3.24-.33,2.53-1.76-1.34-2.68-3.58-5.06-5.58-7.28s-4.17-4.34-6.54-6.18c-5.25-4.07-11.34-6.62-17.81-7.97-1.94-.41-2.29,2.39-.41,2.84h0Z"/><path class="cls-11" d="M214.9,116.31c4.13,2.9,7.57,6.64,10.34,10.85,1.37,2.08,2.58,4.27,3.62,6.53s1.72,4.73,2.78,7.01c.69,1.48,3.31-.28,3.14-1.55-.33-2.46-1.46-4.88-2.51-7.11-1.15-2.43-2.49-4.76-4.02-6.97-2.96-4.26-6.6-8.14-11.03-10.89-1.18-.73-3.65,1.19-2.31,2.13h0Z"/><path class="cls-11" d="M133.29,138.71c-2.84,8.24-9.04,15.07-15.77,20.39-6.96,5.51-15.19,9.78-23.84,11.85-2.66.64-1.52,4.83,1.09,4.21,9.41-2.21,18.18-7,25.69-13.02,7.2-5.77,13.76-13.32,16.02-22.46.51-2.07-2.49-3.04-3.2-.98h0Z"/><path class="cls-11" d="M98.81,211.16c-1.43-6-2.24-12.13-2.8-18.26-.59-6.47-.94-13.11-.06-19.57.32-2.37-3.1-2.87-3.45-.55-1.02,6.79-.75,13.72-.15,20.54.57,6.46,1.44,12.91,2.93,19.23.58,2.44,4.07.89,3.53-1.39h0Z"/><path class="cls-11" d="M181.04,145.23c-.06,6.19,1.81,13.8,7.04,17.66l1.59-3.33c-18.61-1.2-42.01-4.68-53.24-21.48-1.34-2.01-4.33.31-3.05,2.22,11.83,17.68,35.87,21.72,55.56,22.99,1.58.1,3.16-2.16,1.59-3.33-4.52-3.33-5.93-9.83-5.88-15.16.02-2.47-3.57-1.9-3.6.42h0Z"/><path class="cls-11" d="M237.15,181.92c-2.37-3.97-4.4-8.32-7.91-11.44-4.29-3.82-10.32-5.5-15.61-7.42-10.87-3.95-22.42-9.4-29.28-19.14-1.38-1.96-4.35.34-3.04,2.2,6.41,9.1,16.82,15.11,27.04,19.02,5.54,2.12,11.86,3.63,16.83,6.97,4.26,2.87,6.39,7.72,8.95,11.99,1.23,2.05,4.18-.25,3.02-2.19h0Z"/><path class="cls-11" d="M233.97,183.21c-.52,14.24-1.89,28.91-7.89,42.02-5.78,12.63-15.85,22.71-28.48,28.47-23.45,10.7-55.62,9.93-77.44-4.37-1.9-1.25-3.53,2.18-1.63,3.42,18.51,12.12,43.9,14.22,65.11,9.39,22.23-5.06,40.25-19.47,47.86-41.3,4.26-12.23,5.39-25.17,5.83-38.03.08-2.3-3.27-1.76-3.35.39h0Z"/><path class="cls-11" d="M93.07,189.08c-5.26-1.16-8.72,3.7-9.36,8.32-.71,5.12.41,10.8,3.22,15.16.62.97,1.73,1.38,2.85,1,.85-.28,1.94-1.42,1.32-2.4-2.27-3.61-3.35-8.29-3.08-12.42.13-1.97.57-3.74,1.51-5.26.33-.54.76-.9,1.36-1.25.35-.2-.22.07.2-.09.2-.08.41-.14.62-.2.55-.15.64-.18,1.2-.24,1.75-.2,1.9-2.24.16-2.62h0Z"/><path class="cls-11" d="M346.6,214.36c-.15.31-.31.62-.47.92-.07.13-.14.27-.22.4.26-.47-.03.05-.07.11-.28.48-.59.95-.91,1.41-.64.92-1.36,1.79-2.11,2.62-.2.22.36-.38,0-.01-.09.09-.18.19-.27.28-.2.2-.39.41-.59.61-.39.4-.78.79-1.17,1.19-.94.98-1.92,1.92-2.73,3.02-.56.77-.59,1.91-.01,2.67s1.5.77,2.24.22c2-1.47,3.81-3.34,5.45-5.19s3.11-4.12,4.21-6.47c.44-.93.19-2.48-.83-2.95-1.09-.5-2.07.17-2.55,1.16h0Z"/><path class="cls-11" d="M347.23,189.93c-.46,8.54-1.52,17.05-.86,25.61.23,2.95,4.14,2.15,3.84-.57-.94-8.46.03-16.96-.23-25.45-.02-.78-.65-1.51-1.47-1.41-.9.11-1.24,1.05-1.28,1.82h0Z"/><path class="cls-11" d="M364.22,211.5c2.4,6.35,5.55,14.19.17,19.88-2.1,2.22-5.38,2.9-7.91,4.52-3.13,2.01-5.99,4.41-9.03,6.56-2.43,1.72-.14,5.22,2.31,3.62,3.46-2.26,6.5-5.12,10.04-7.28,3.06-1.87,6.16-2.87,8.5-5.75,2.64-3.26,3.77-6.81,3.33-11-.43-4.08-1.81-7.92-3.26-11.73-.91-2.37-5.04-1.21-4.14,1.17h0Z"/><path class="cls-11" d="M355.41,209.05c1.26-4.65,1.54-9.22,1.35-14.01-.08-2.08-.36-4.2-.13-6.28.03-.27.14-.82.33-1.27-.18.45-.03.05.04-.03.13-.15.14-.08-.11.12.4-.31-.36.13-.31.12.41-.13-.52.08-.02.02-.39.05-.4-.02-.17.01.2.02-.4-.25-.11-.04.14.1.34.17.49.26.23.13-.36-.3-.02,0,.11.09.23.18.34.28.2.17.38.36.56.54.08.08.15.16.23.24-.24-.26.02.02.07.09.39.49.75.99,1.08,1.52,1.62,2.59,2.34,5.57,2.8,8.78.27,1.84.4,3.69.67,5.53.34,2.26.92,4.45,1.7,6.59.39,1.08,1.52,1.63,2.63,1.31.97-.27,1.97-1.42,1.55-2.5-.81-2.09-1.44-4.22-1.83-6.42-.31-1.77-.5-3.57-.78-5.34-.56-3.54-1.37-6.98-3.31-10.04-1.26-1.99-3.31-4.6-5.94-4.54-3.53.08-4.06,4.24-4.02,6.94.1,5.79.83,11.71-.12,17.47-.31,1.91,2.53,2.47,3.02.66h0Z"/><path class="cls-11" d="M349.8,191.23c.73-2.37.51-5.11.3-7.55-.15-1.76-.51-3.48-1.01-5.18-.91-3.04-2.13-5.65-2.48-8.79-.08-.7-.11-1.12,0-1.87.05-.33.09-.66.43-.91-.08.06.23-.11.39-.15.22-.06.39-.03.6-.05.41-.04-.22-.11.09,0,.17.06.32.13.49.21.33.16-.21-.2.16.11.15.13.3.26.45.39.07.06.13.13.2.2.2.21-.28-.34.04.05.18.22.35.44.51.67.76,1.09,1.2,2.01,1.72,3.25,2.1,4.96,3.02,10.28,4.75,15.36.23.67.94,1.09,1.61.79.74-.33.96-1.21.89-1.94-.5-5.3-2.01-10.75-4.03-15.67-.99-2.42-2.27-5.31-4.52-6.83-2.79-1.88-6.1-.18-6.98,2.92-1.03,3.61.15,7.75,1.49,11.13.71,1.79,1.38,3.53,1.71,5.35.5,2.75.1,5.67.76,8.36.36,1.46,1.99,1.71,2.47.15h0Z"/><path class="cls-11" d="M292.16,282.06c-14.23,4.79-28.11,10.5-42.22,15.6-8.78,3.18-23.01,7.13-25.33,17.7-.46,2.11,2.08,3.68,2.87,1.25,1.55-4.77,6.87-7.6,11.08-9.65,4.59-2.24,9.46-3.78,14.24-5.56,13.33-4.96,26.51-10.29,39.98-14.86,2.22-.75,1.8-5.3-.62-4.49h0Z"/><path class="cls-11" d="M351.36,259.55c-19.38,8.36-39.05,16.19-59.2,22.51-2.24.7-1.82,5.26.62,4.49,20.46-6.47,40.4-14.49,60.07-23.02,2.07-.9.95-5.02-1.49-3.97h0Z"/><path class="cls-11" d="M333.41,221.5c3.92,6.33,8.58,12.14,11.41,19.09,2.8,6.85,4.26,14.13,5.48,21.4.49,2.9,4.06,1.72,3.6-.91-1.32-7.61-2.91-15.28-5.88-22.44-3-7.26-7.83-13.33-11.97-19.93-1.42-2.26-3.8.93-2.65,2.79h0Z"/><path class="cls-11" d="M273.75,242.51c11.87-3.88,23.77-7.63,35.65-11.48,8.58-2.78,17.28-5.41,25.62-8.84,2.01-.83,1.59-5.08-.58-4.19-8.34,3.46-17.04,6.12-25.61,8.92-11.87,3.88-23.77,7.68-35.63,11.59-1.98.65-1.61,4.69.55,3.99h0Z"/><path class="cls-11" d="M196.55,257.69c11.76-5.82,24.8-5.6,37.48-7.56,13.23-2.05,26.72-4.44,39.73-7.57,2.09-.5,1.71-4.66-.56-4.09-7.02,1.76-14.12,3.06-21.25,4.33-6.57,1.17-13.07,2.76-19.67,3.76-12.37,1.87-25.62,2.08-36.7,8.54-1.26.74-.59,3.35.97,2.58h0Z"/><path class="cls-11" d="M102.12,327.83c-1.28,25.32-1,50.76-1.01,76.11,0,1.97,4.27,2.21,4.27.27.01-25.37-.22-50.78.52-76.14.05-1.74-3.69-1.97-3.78-.24h0Z"/><path class="cls-11" d="M67.35,300.27c20.73-17.59,45.8-36.14,73.9-37.99,2.77-.18,1.05-3.55-1.21-3.39-28.71,1.93-54.37,20.83-75.48,38.89-1.77,1.52,1.31,3.76,2.8,2.5h0Z"/><path class="cls-11" d="M63.67,323.78c.29,3.49.72,7.05.3,10.55-.18,1.52-.55,3.01-1.16,4.42-.71,1.63-1.71,3.07-2.62,4.58-.87,1.43,1.9,2.12,2.77,1.34,5.96-5.37,5.06-13.95,3.72-21.03-.26-1.4-3.13-1.46-3,.15h0Z"/><path class="cls-11" d="M64.59,360.75c7.2-2.98,14.18-6.5,20.91-10.41,6.61-3.84,13.36-8.1,18.78-13.55,1.37-1.38-.81-3.23-2.2-2.09-11.63,9.51-24.82,17.12-38.7,22.86-2.26.94-1.07,4.14,1.21,3.19h0Z"/><path class="cls-11" d="M21.75,315.78c-1.9,16.95-6.76,45.51,16.55,49.46,9.06,1.54,17.97-1.1,26.3-4.5,2.27-.93,1.08-4.12-1.21-3.19-9.99,4.08-25.84,8.74-34.31-1.02-5.72-6.59-5.65-16.63-5.19-24.84.29-5.19.97-10.34,1.54-15.5.26-2.33-3.43-2.54-3.67-.42h0Z"/><path class="cls-11" d="M28.76,278.94c-3.09,12.14-5.2,24.45-7,36.84-.34,2.31,3.36,2.52,3.65.41,1.72-12.41,3.81-24.7,6.87-36.85.55-2.18-3.02-2.38-3.52-.4h0Z"/><path class="cls-11" d="M67.77,280.77c-5.81-2.55-12.54-3.53-18.8-4.21s-13.26-1.38-19.07.95c-2.32.93-1.1,4.2,1.23,3.25,5.27-2.14,12.03-1.31,17.53-.7,5.82.64,12.01,1.52,17.43,3.87,1.99.87,3.9-2.19,1.68-3.17h0Z"/><path class="cls-11" d="M66.77,323.5c-.61-6.82-.85-13.67-.32-20.5.53-6.83,1.58-13.63,2.37-20.43.27-2.39-3.54-2.59-3.75-.43-.67,6.93-1.67,13.82-2.18,20.76-.52,7.03-.13,14,.69,21,.23,1.92,3.37,1.43,3.2-.4h0Z"/><path class="cls-11" d="M143.25,261.8c1.47,9.4,10.77,14.05,19.56,13.97,9.58-.1,18.88-3.79,22.11-13.46.82-2.45-2.7-4.48-3.63-1.72-2.68,7.95-10.71,10.53-18.45,10.76-6.88.2-14.37-2.88-16.17-10.09-.6-2.41-3.81-2.02-3.41.53h0Z"/><path class="cls-11" d="M233.3,308.57c1.21,31,1.58,62.22,5.25,93.05.21,1.8,4.21,1.95,4.04-.15-2.51-30.98-3.72-62.04-6.21-93.01-.11-1.38-3.14-1.48-3.07.11h0Z"/><path class="cls-11" d="M343.88,168.36c-2.28-.54-3.86,1.29-4.01,3.45s.82,4.29,1.73,6.21c1.18,2.48,2.42,4.93,3.39,7.5,1.14,3.02,1.55,6.05,1.91,9.23.07.61.51,1.28,1.18,1.21s1-.94,1.05-1.54c.48-5.6-1.82-10.89-4.15-15.83-.8-1.7-1.7-3.37-2.28-5.16-.11-.34-.2-.67-.26-1.02,0,0-.05-.57-.04-.39-.02-.24.1-.16,0-.07-.19.17.15-.09.23-.11.46-.16.92-.33,1.39-.46,1.3-.37,1.07-2.74-.15-3.03h0Z"/><path class="cls-11" d="M391.08,222.71c-.11,5.62-1.05,11.33-3.24,16.53-1.03,2.45-2.34,4.83-4.02,6.9-1.69,2.09-3.71,3.64-5.94,5.12-1.74,1.16-.1,3.74,1.74,3.15,5.75-1.85,9.73-7.57,11.99-12.88,2.47-5.79,3.58-12.24,2.97-18.52-.17-1.75-3.47-2.3-3.51-.3h0Z"/><path class="cls-11" d="M400.7,240.06c-.73,2.65-1.62,5.28-3.09,7.62-1.52,2.42-3.41,4.13-5.83,5.66-.68.43-.42,1.33.06,1.77.62.57,1.55.75,2.35.46,6.19-2.25,8.79-8.7,10.12-14.64.39-1.76-3.13-2.6-3.6-.86h0Z"/><path class="cls-11" d="M336.89,138.07c-6.06.66-10.76,5.6-13.59,10.67s-5.02,11.42-3.73,17.11c.17.76.94,1.29,1.68,1,.86-.34,1.09-1.33,1.1-2.15s.06-1.89.17-2.97c.12-1.14.32-2.24.59-3.31.64-2.52,1.56-4.96,2.83-7.23,2.46-4.4,6.15-8.36,11.24-9.49,1.71-.38,1.67-3.83-.3-3.62h0Z"/><path class="cls-11" d="M317.92,140.12c-2.22,2.05-4.07,4.36-5.39,7.09-.65,1.35-1.12,2.77-1.48,4.23-.41,1.62-.33,3.19-.31,4.84.01.88.94,1.51,1.74,1.48.9-.04,1.67-.68,1.83-1.59.23-1.34.7-2.74,1.03-4.1.03-.14.07-.29.11-.43.01-.05.16-.57.1-.37-.05.16.07-.22.08-.26.06-.17.11-.35.17-.52.21-.61.42-1.22.67-1.82.23-.56.49-1.1.76-1.63.15-.28.3-.56.46-.83-.17.3.23-.39.27-.45.02-.03.2-.35.13-.23.53-.91,1.48-2.1,2.31-3.02,1.37-1.53-.96-3.79-2.47-2.39h0Z"/><path class="cls-11" d="M379.33,143.25c.23.02.15,0-.24-.03-.16,0-.32.03-.47.1-.24.08-.47.2-.68.33-.3.19-.63.47-.86.73-.43.49-.78,1.11-.99,1.73-.42,1.18-.54,2.45-.28,3.68.34,1.6,1.28,2.96,2.7,3.81,1.2.72,2.54.96,3.92,1.04,1.43.08,1.51-2.09.39-2.59-.48-.22-.95-.47-1.43-.69-.45-.21-.86-.48-1.3-.68-.11-.08-.07-.04.14.11-.16-.11-.31-.23-.47-.34.19.14.23.17.02,0-.08-.07-.17-.14-.25-.22-.24-.23-.05-.13.02.05-.04-.1-.16-.21-.23-.31-.04-.06-.22-.41-.08-.12.15.31-.05-.15-.07-.2-.03-.09-.11-.25-.1-.34-.04.25.05.24.02.03-.01-.09-.02-.18-.03-.28s-.02-.19-.02-.29c0-.06,0-.49,0-.18s0-.13.01-.19c0-.11.02-.21.03-.32.03-.22.07-.43.12-.64.07-.34-.11.28.01-.02.05-.12.09-.25.15-.37s.12-.24.18-.36c-.12.23-.06.1.04-.05.14-.21.27-.41.43-.61.08-.1.16-.2.23-.31.1-.13.19-.26.26-.4.12-.37.14-.45.06-.24.28-.92-.27-1.74-1.22-1.84h0Z"/><path class="cls-11" d="M381.35,153.15c-.78,2.16-.09,4.85,1.55,6.44,1.13,1.1,2.4,1.73,3.9,2.14,2.81.77,6.49.95,9.04-.67.91-.58,1.68-1.34,2.17-2.31.5-.98.92-2.39.43-3.45-.63-1.35-2.13-.01-2.41.9-.12.4-.21.81-.29,1.22-.04.21.03-.14.03-.15-.01.06-.03.13-.06.18-.1.2.1-.2.09-.19-.05.08-.09.18-.14.27-.18.36.1-.14.03-.04-.09.14-.39.37,0,.05-.09.08-.18.16-.27.24-.05.04-.1.07-.15.11-.18.15.27-.15.06-.04-.25.13-.49.27-.75.38-.24.1.16-.03-.19.06-.16.04-.31.09-.47.13-.55.14-1.37.25-1.74.27-1.29.07-2.6-.06-3.86-.34-.66-.15-.83-.19-1.39-.42-.5-.21-.97-.49-1.41-.82-.57-.43-1.08-1.01-1.41-1.66-.49-.97-.47-2.03-.86-3.02-.45-1.15-1.68.08-1.91.71h0Z"/><path class="cls-11" d="M396.34,158.11c.52,1.02,1.39,1.72,2.49,2.01,1.17.3,2.42.3,3.58-.03,1.27-.36,2.49-1.1,3.43-2.02.51-.5.97-1.06,1.34-1.67.48-.79,1.05-1.94.85-2.89-.19-.88-1.04-.97-1.65-.42-.27.24-.43.52-.6.84-.04.07-.1.27-.17.32.13-.22.14-.25.05-.09-.04.07-.08.13-.13.19-.06.1-.12.19-.19.29-.05.07-.39.66-.47.64.17-.19.19-.22.07-.08-.05.05-.1.11-.15.16-.08.08-.16.15-.24.23-.07.06-.24.27-.33.28.19-.14.21-.16.07-.06l-.09.06c-.21.14-.42.27-.64.39-.12.07-.25.12-.38.19.35-.17.06-.03-.03,0-.24.09-.49.17-.74.24-.23.07-.46.12-.7.16-.12.02-.23.04-.35.05.36-.05-.02,0-.09,0-.45.02-.89-.02-1.34-.09-.33-.05.17.05-.08-.02-.14-.04-.27-.07-.41-.1.16.04.19.05.1.02-.19-.08-.4-.13-.59-.21-.37-.16-.75-.34-1.08-.57-.43-.3-1.06.22-1.29.54-.31.43-.5,1.12-.25,1.62h0Z"/><path class="cls-11" d="M379.89,143.22c-1.09-.56-2.25-1.58-3.07-2.58-.47-.58-.81-1.08-1.06-1.62-.14-.31-.25-.62-.29-.84-.04-.18-.06-.35-.08-.53-.04-.33-.04.11,0-.23.02-.17.03-.33.06-.49-.08.38.05-.12.07-.16.02-.06.24-.5.05-.16.08-.14.16-.29.25-.42s.19-.28.3-.41c-.21.26.16-.15.17-.16.27-.27.46-.43.65-.55.65-.44,1.23-.74,1.87-.92.82-.23,1.68-.31,2.48-.59,1.18-.41,1.72-2.41.28-2.9-2.04-.69-4.4.16-6.1,1.35-1.75,1.22-3.14,3.02-3.23,5.23-.08,2.06.82,3.94,2.14,5.47s2.92,2.89,4.95,3.12c.63.07,1.18-.56,1.29-1.11.13-.66-.14-1.18-.73-1.48h0Z"/><path class="cls-11" d="M381.52,131.71c-.98-1.49-1.5-3.32-1.56-5.05-.07-1.84.41-3.54,1.45-4.82.94-1.17,2.32-1.88,3.64-2.18.42-.1.84-.17,1.27-.21-.38.04.24,0,.32,0,.21,0,.43,0,.64,0,.91,0,1.81.16,2.71.17,1.38.02,2.32-1.52,1.05-2.42-1.5-1.06-3.7-1.06-5.44-.87-1.8.19-3.51.82-5.05,1.77-3.26,2.02-4.73,5.76-4.19,9.5.3,2.08,1.37,4.08,2.97,5.44.47.4,1.16.45,1.69.12.45-.28.83-.9.49-1.42h0Z"/><path class="cls-11" d="M390.41,119.66c.83-.12,1.46-.82,2.08-1.32.14-.12.29-.22.44-.33.35-.25-.3.15.07-.04.25-.13.5-.25.76-.35.07-.03.14-.06.21-.08.18-.06.14-.05-.11.03.02.02.29-.07.32-.08.23-.05.52-.02.73-.09-.29,0-.34,0-.16,0,.05,0,.1,0,.15,0,.12,0,.24.02.35.03s.23.03.35.06c.16.03.46.18-.02-.02.42.17.84.3,1.24.51.13.07.3.24-.06-.04.1.08.23.15.34.22.18.12.33.27.51.39.23.17-.23-.32-.08-.08.02.03.17.28.2.28-.08,0-.2-.45-.06-.08.02.06.05.12.07.18.05.18.04.13-.04-.16,0,.23.11.53.15.77.12.67.31,1.15.8,1.64.43.42,1.38.41,1.8-.03s.65-.88.74-1.48c.06-.4.04-.85-.01-1.25-.08-.66-.33-1.27-.67-1.84-.53-.88-1.46-1.45-2.34-1.93-1.81-.99-4.24-1.18-6.08-.15-1.42.79-3.28,2.36-3.07,4.17.08.67.7,1.18,1.38,1.08h0Z"/><path class="cls-11" d="M400.24,121.05c.3-.14.57-.29.83-.5.36-.28-.21.13.02-.02l.36-.24c.15-.1.1-.07-.14.09.17-.06.4-.18.55-.28-.35.21-.3.1-.11.04.11-.03.22-.06.34-.08.09-.02.17-.03.26-.04.33-.05-.52,0-.1.01.19,0,.38,0,.57.01.12,0,.24.02.35.03.16.02.44.13-.15-.03.2.05.41.09.61.15s.39.14.59.21c.33.12-.43-.21-.12-.06.09.05.18.09.27.14.16.09.32.18.48.29.17.11.64.56.16.1.17.16.38.32.55.46-.09-.08-.36-.32-.13-.1.12.12.25.23.36.37.33.39.75.77,1.24.94.65.22,1.4-.06,1.79-.6.83-1.17-.13-2.77-1.07-3.54-.91-.75-1.95-1.33-3.09-1.64s-2.4-.4-3.55-.03c-.7.23-1.3.52-1.88.98-.27.22-.51.51-.7.79-.27.4-.36.79-.4,1.26-.09,1.1,1.21,1.71,2.11,1.28h0Z"/><path class="cls-11" d="M411.91,121.01c-1.05-.32-2.07-.63-3.18-.63-.99,0-2.02.22-2.88.72-1.73,1-3.13,2.81-3.67,4.74-.15.52-.26,1.12-.19,1.67.06.45.2.79.43,1.18.3.51.81.73,1.36.88.71.2,1.75-.21,1.96-.96.06-.2.12-.32.11-.56-.01-.16-.04-.31-.09-.47-.04-.16-.03-.1.03.17.02-.21-.05-.44-.05-.65,0-.12,0-.23.01-.35.02-.17.01-.12-.02.15.01-.06.02-.12.03-.18.05-.25.13-.49.22-.73.05-.12.09-.24.15-.36.03-.06.05-.12.08-.18-.11.22-.12.25-.05.1.11-.2.22-.4.34-.59.13-.21.27-.41.42-.6.07-.09.14-.18.21-.26.18-.22-.3.31-.02.02.17-.17.34-.33.53-.47.13-.1.46-.24.01-.03.1-.05.2-.12.3-.17s.2-.09.3-.14c.26-.12-.41.13-.12.05.1-.03.2-.06.31-.08.16-.04.52-.03-.07,0,1.07-.05,2.15-.03,3.22-.02.6,0,1.24-.39,1.33-1.01.09-.66-.44-1.05-1.01-1.23h0Z"/><path class="cls-11" d="M403.69,127.23c-2.94-.09-5.1,2.05-6.58,4.4-1.51,2.42-2.23,5.12-1.77,7.96s2,5.43,4.05,7.37c2.06,1.94,4.8,3.49,7.71,2.96,1.87-.34,1.02-2.9-.42-3.21-3.87-.84-7.46-3.37-8.17-7.51-.64-3.74,2.35-8.17,5.79-9.49,1.14-.44.44-2.44-.63-2.47h0Z"/><path class="cls-11" d="M405.41,147.99c-.7.28-.69,1.26-.7,1.89,0,.58.12,1.19.25,1.75.26,1.11.8,2.19,1.46,3.11,1.18,1.65,3.04,2.81,5.08,3,1.16.11,2.35-.02,3.45-.44.35-.14.77-.43.92-.79.29-.68.05-1.52-.44-2.03-.67-.71-1.43-.61-2.28-.45-.5.09-1.01.14-1.52.14-.11,0-.22,0-.33,0-.1,0-.47-.05-.1,0-.22-.03-.44-.05-.66-.1-.2-.04-.39-.09-.58-.15-.06-.02-.12-.04-.19-.06-.16-.05.15.05.15.06-.02-.04-.26-.12-.31-.14-.17-.08-.34-.18-.5-.28-.04-.02-.08-.05-.12-.08-.23-.14.11.07.13.09-.06-.08-.18-.14-.26-.2-.09-.07-.17-.14-.25-.22-.06-.05-.33-.33-.11-.1s-.07-.09-.12-.16c-.07-.09-.14-.18-.21-.27-.05-.07-.27-.41-.09-.12s-.03-.06-.07-.14c-.06-.12-.12-.24-.18-.37-.03-.07-.19-.46-.07-.16s-.03-.1-.06-.17c-.04-.12-.08-.24-.12-.36-.08-.27-.16-.54-.21-.82s-.12-.53-.19-.8c-.02-.08-.03-.16-.06-.23l-.15-.39-.22-.35c0,.05.24.39,0,.01-.11-.17-.23-.3-.37-.44-.25-.25-.64-.34-.97-.21h0Z"/><path class="cls-11" d="M413.1,155.21c-1.41,1.23-1.18,3.24-.51,4.8.64,1.5,1.74,2.92,2.99,3.96,1.41,1.18,3.41,1.84,5.23,1.89,1.15.03,2.25-.14,3.35-.48s2.3-.96,2.97-1.9c.32-.44.47-.98.15-1.48-.28-.45-.87-.71-1.41-.59-.92.2-1.79.62-2.67.92-.12.04-.13.04-.01.01-.1.03-.19.05-.29.07-.19.04-.39.08-.58.11s-.39.05-.58.07c-.12,0-.13,0-.02,0-.1,0-.19,0-.29,0-1.26-.04-2.48-.43-3.52-1.3-.05-.04-.35-.33-.07-.06-.1-.1-.2-.19-.3-.29-.21-.21-.41-.44-.6-.67-.2-.24-.4-.49-.58-.75-.09-.13-.18-.26-.27-.4.15.24-.08-.14-.11-.19-.3-.54-.56-1.08-.73-1.67.13.44-.12-.53-.09-.35.03.16-.03-.22-.03-.27-.02-.26,0-.51-.04-.77-.12-.92-1.33-1.26-2-.67h0Z"/><path class="cls-11" d="M424.52,163.66c.02,1.83.91,3.94,1.92,5.47.84,1.27,1.95,2.28,3.26,3.05,3.87,2.26,9.49.54,11.93-3.07.62-.92.33-2.68-1.07-2.04-1.78.81-3.21,2.11-5.19,2.51-1.56.32-3.19,0-4.53-.86-.45-.29-.88-.64-1.27-1.02-.19-.18-.37-.38-.54-.58-.21-.24-.16-.19-.36-.51-.85-1.34-1.26-3.17-2.44-4.27-.79-.74-1.72.58-1.71,1.31h0Z"/><path class="cls-11" d="M438.15,169.66c.15,2.34,2.68,3.67,4.62,4.39,1.89.7,4,1.11,6.02,1.09,2.24-.03,4.56-.64,6.41-1.93s3.74-3.44,3.53-5.85c-.09-1.06-1.52-2.42-2.45-1.22-1.02,1.33-1.73,2.72-3.18,3.65-1.35.87-2.95,1.48-4.57,1.55-1.58.07-3.21-.21-4.7-.69-.72-.23-1.45-.5-2.1-.89-.7-.42-1.35-.99-2.13-1.26-.74-.25-1.49.39-1.44,1.16h0Z"/><path class="cls-11" d="M410.07,121.56c-.45-1.49-.79-3.21-.49-4.71.08-.42.17-.84.3-1.24.06-.19.13-.38.21-.56.04-.09.08-.18.12-.26-.08.15-.07.14.01-.01.2-.32.4-.63.64-.93.12-.15.25-.3.39-.45.04-.04.44-.45.25-.26.61-.59,1.32-1.09,2.04-1.53.05-.03.59-.32.33-.19.19-.1.39-.19.59-.27.39-.17.8-.3,1.21-.43.2-.05.2-.05.02,0,.1-.02.2-.04.31-.06.2-.04.41-.07.61-.08.09,0,.74,0,.28-.02.2,0,.4.02.6.04.1.01.2.03.3.04-.25-.06-.27-.06-.06,0,.19.06.39.11.58.17.39.13.76.26,1.15.37.54.15,1.21.14,1.63-.29.38-.39.42-.95.1-1.41-1.17-1.68-3.43-2.06-5.34-1.97-1.73.08-3.4.73-4.88,1.58-2.83,1.63-4.89,4.41-4.95,7.74-.03,1.97.43,4.21,2.01,5.52.4.33.99.51,1.5.32.45-.17.69-.61.55-1.07h0Z"/><path class="cls-11" d="M421.2,110.03c-.1-1.25.05-2.38.98-3.46.5-.59.88-.88,1.57-1.27.34-.19.7-.35,1.06-.49-.36.14.03,0,.11-.03.13-.04.27-.08.4-.12.6-.16,1.21-.28,1.83-.34.14-.01.28-.03.42-.03.09,0,.19,0,.28-.01-.15,0-.14,0,.04,0,.33.01.67.03,1,.09.14.02.28.05.42.08.09.02.18.04.27.07-.18-.06-.18-.05,0,0,.13.05.26.1.39.15.09.04.56.34.23.11.25.18.49.36.73.55.1.08.07.06-.07-.06.14.14.28.27.43.39.26.18.54.3.86.33.39.04.84-.14.96-.56.55-1.9-1.44-3.6-3.02-4.24-1.31-.53-2.75-.61-4.15-.45-2.75.32-5.52,1.61-6.86,4.13-.92,1.72-.81,3.81.09,5.51.56,1.05,2.12,1.05,2.01-.35h0Z"/><path class="cls-11" d="M432.46,106.39c2.22-1.53,4.06-2.87,6.73-3.48,3.29-.76,6.55-.7,9.78.3,2.15.66,4.36,1.61,6.03,3.16,1.8,1.67,2.56,3.92,2.84,6.31.1.91.73,1.95,1.71,2.1.93.14,1.52-.69,1.45-1.56-.29-3.27-1.44-6.48-3.74-8.89-1.99-2.08-4.53-3.43-7.23-4.36-3.68-1.27-7.58-1.69-11.41-.83-2.97.67-6.53,2.2-7.96,5.07-.44.88.71,2.93,1.8,2.18h0Z"/><path class="cls-11" d="M459.29,114.25c.46.09.78-.17,1.18-.28.18-.05.36-.09.55-.12.09-.02.19-.03.28-.04-.11,0-.08,0,.08,0,.38-.01.77.02,1.15.07.19.02.39.05.58.09.05.01.55.14.36.08.75.23,1.47.57,2.12,1-.25-.16.21.16.25.19.13.1.26.21.38.33s.23.23.34.35c.06.06.11.12.16.19-.12-.15-.15-.18-.07-.08.15.28.37.52.53.8.09.15.17.31.24.47-.21-.43.03.11.07.19.13.34.23.68.32,1.02.05.2.04.17-.02-.09.02.09.03.18.05.27.03.18.05.35.07.53s.03.36.04.53c0,.22,0,.18,0-.13,0,.09,0,.18,0,.26-.02.35-.06.69-.11,1.04-.04.22-.03.17.03-.14-.02.08-.04.17-.06.25-.04.16-.1.32-.15.48-.14.42-.3.86-.31,1.3-.02.5.05.99.38,1.39.25.29.69.58,1.1.41,1.57-.65,2.09-2.89,2.14-4.44.05-1.54-.18-3.11-.78-4.54-.55-1.3-1.32-2.59-2.48-3.45-1.26-.93-2.71-1.57-4.27-1.8-1.72-.25-4.29.28-4.96,2.12-.24.67.04,1.6.8,1.75h0Z"/><path class="cls-11" d="M469.56,123.9c.91.02,1.82.12,2.66.48.36.15.65.32.82.44.15.11.3.22.44.33.02.02.45.4.17.13,1.1,1.06,1.8,2.25,2.06,3.63.23,1.25-.13,2.81-.89,4.13-.87,1.52-2.27,2.55-3.52,3.73-.96.9.2,3.33,1.54,2.94,4.65-1.38,6.96-6.88,5.96-11.36-.5-2.21-1.81-4.21-3.46-5.74-1.78-1.65-4-2.3-6.38-2.32-.86,0-1.15,1.14-1.04,1.78.13.74.77,1.8,1.63,1.81h0Z"/><path class="cls-11" d="M472.46,153.72c1.52-.73,2.91-1.69,3.86-3.12.96-1.44,1.42-3.16,1.43-4.88.03-3.55-1.43-7.42-4.85-8.97-1.55-.7-2.42,1.31-1.18,2.28.93.72,1.6,1.59,2.03,2.62s.68,2.17.67,3.3c-.03,2.4-1.17,4.31-3.4,5.39-.84.41-1.15,1.27-.78,2.15.3.71,1.35,1.63,2.2,1.22h0Z"/><path class="cls-11" d="M456.36,168.74c1.64,1.66,3.61,2.71,5.95,2.91,2.08.18,4.13-.45,5.91-1.49,3.77-2.2,6.35-6.45,6.77-10.77.28-2.94-.54-5.73-1.99-8.26-.43-.75-1.62-1.14-2.35-.61-.82.59-.62,1.69-.16,2.42.88,1.42,1.39,3.3,1.33,5.08s-.55,3.46-1.38,4.92c-.9,1.59-1.99,2.8-3.44,3.82-1.27.89-2.85,1.55-4.31,1.64-1.76.11-3.47-.41-4.92-1.61-.5-.42-1.32-.56-1.76.04s-.12,1.42.35,1.9h0Z"/><path class="cls-11" d="M415.1,139.89c-.1-.15-.18-.3-.25-.46-.03-.06-.19-.54-.11-.23-.02-.09-.11-.6-.07-.19-.02-.16-.02-.32-.02-.48,0-.08,0-.16,0-.25-.03.25-.03.28,0,.09.03-.16.07-.33.1-.49.06-.2.04-.16-.04.11.03-.08.05-.16.08-.24.06-.16.12-.31.19-.46.06-.14.19-.3.22-.44-.16.28-.18.33-.08.15.04-.07.08-.13.12-.2.07-.11.15-.21.22-.31.2-.27-.36.38,0,.02.09-.1.19-.19.29-.27.05-.04.1-.09.16-.13.15-.12.11-.08-.13.1.23-.08.46-.29.68-.41.04-.02.34-.13.34-.16-.24.1-.28.11-.11.04.07-.03.14-.05.21-.08.28-.1.57-.18.87-.25.15-.03.3-.06.45-.09.11-.02.58-.15.14-.03.27-.08.63-.04.91-.04.3,0,.6.02.9.06.15.02.29.05.44.07.17.04.14.03-.09-.02.07.02.14.04.21.06.27.08.54.18.8.3.13.06.25.13.37.2.25.13-.29-.22.08.05.81.6,1.82.23,2.34-.58.45-.69.86-2.17.01-2.79-2.04-1.5-4.78-1.7-7.15-.93-1.19.39-2.37,1-3.26,1.91-1.05,1.08-1.71,2.55-2.02,4.01-.18.83-.25,1.79-.02,2.62.26.91.74,1.6,1.59,2.05.5.26,1.15-.17,1.42-.58.31-.47.53-1.22.19-1.74h0Z"/><path class="cls-11" d="M423.77,136.92c.08-.16.27-.31-.07.1.04-.04.06-.1.1-.14.04-.05.08-.1.12-.16.1-.13.18-.27.26-.42-.19.31-.24.4-.15.25.08-.1.15-.2.23-.3.11-.13.32-.24-.2.2.04-.03.08-.07.12-.1.09-.08.19-.14.29-.22-.59.45-.29.17-.08.07.2-.09.63-.16-.09,0,.11-.03.21-.06.32-.08s.22-.03.34-.05c.27-.04-.57.04-.25.02.06,0,.12,0,.19-.01.24,0,.48,0,.72.03.06,0,.13.02.19.03-.65-.08-.42-.08-.26-.04.12.03.25.06.37.09.24.07.48.16.71.27l-.43-.21c.38.18.73.41,1.04.7l-.36-.34c.23.22.43.46.59.73l-.25-.44c.12.21.21.44.26.67l-.11-.49c.06.26.07.53.06.8l.03-.51c-.01.14-.03.29-.06.43-.01.05-.03.11-.04.16.17-.55.16-.51-.03.11-.01.04-.02.07-.03.11-.05.18-.02.08.1-.32-.01.04-.03.08-.04.12-.07.2-.15.39-.18.6-.07.39-.12.84.06,1.2.26.51.72.95,1.33.93.82-.03,1.56-.42,2.07-1.06.25-.31.46-.67.59-1.05.23-.66.41-1.39.29-2.09-.21-1.24-.85-2.23-1.85-2.99-1.72-1.29-4.41-1.63-6.33-.6-.66.36-1.27.81-1.72,1.42-.55.75-.76,1.48-.78,2.4-.02.65.67,1.2,1.28,1.2.74,0,1.35-.41,1.69-1.06h0Z"/><path class="cls-11" d="M434.45,124.71c-.06-3.61,4.17-4.44,6.88-3.87,1.21.25,2.32.74,3.17,1.53.17.16.56.66.68,1.04.22.73.09,1.45-.13,2.16-.47,1.54,2.59,3.19,3.67,2.06,1.24-1.29,3.17-1.14,4.24.11,1.43,1.67.07,4.08-.86,5.61-.83,1.36,1.72,2.66,2.75,1.92,1.41-1.02,2.43-2.59,2.65-4.33.26-2-.6-3.82-2.01-5.19-2.5-2.43-7.35-3.77-10.03-.9,1.22.69,2.45,1.38,3.67,2.06,1.48-5.05-3.8-8.44-8.04-9.32-2.13-.44-4.4-.36-6.41.53-2.38,1.06-4.13,3.13-3.51,5.84.18.78.9,1.37,1.67,1.52.54.11,1.62,0,1.61-.79h0Z"/><path class="cls-11" d="M453.5,135.77c.43.05.76.02,1.18-.1.3-.08-.28.03-.07.01.09,0,.18-.02.26-.03.07,0,.14,0,.21,0,.37-.02-.32-.04-.12-.01.17.02.34.04.51.08.15.03.3.08.45.11.38.1-.48-.18-.12-.04.06.02.12.05.19.07.15.06.3.13.44.2.19.1.6.42.01-.02.21.15.42.3.61.47.04.04.09.08.13.12.22.2-.35-.41-.22-.23.05.07.1.14.15.2-.37-.44-.25-.47-.14-.23.04.08.07.17.11.25.07.19.17.73.05.08.06.31.11.6.11.92v-.53c0,.29-.04.57-.12.84l.16-.52c-.1.32-.23.62-.41.9l.3-.46c-.19.28-.41.53-.66.76l.41-.36c-.27.23-.56.43-.86.61-.08.05-.16.09-.24.14s-.35.18,0,0,.03-.02-.06.01c-.09.04-.18.07-.26.1-.35.12-.68.27-1.04.37-.09.03-.19.05-.28.08-.15.04-.46.05.1-.01-.2.02-.4.07-.59.09-.88.1-1.59.75-1.6,1.67s.67,1.69,1.56,1.84c1.42.24,2.89.19,4.21-.41,1.35-.62,2.53-1.59,3.16-2.97s.59-3,.01-4.41c-.55-1.35-1.62-2.26-2.97-2.8-.9-.36-1.8-.56-2.77-.53-.45.01-.9.1-1.33.22-.53.14-1.2.4-1.51.87-.33.5-.49,1-.25,1.58.21.52.74.99,1.31,1.05h0Z"/><path class="cls-11" d="M437.83,169.14c-2.6,1.52-2.43,5.09-1.72,7.62.87,3.08,4.03,6.16,7.42,5.51,1.24-.24,1.15-1.91.13-2.38-.51-.23-1.02-.46-1.51-.72-.05-.03-.44-.3-.14-.08-.13-.09-.26-.18-.38-.27-.21-.16-.41-.33-.61-.5-.37-.33.19.24-.13-.13-.1-.12-.21-.24-.31-.37-.16-.21-.31-.43-.45-.65-.1-.17-.11-.18-.02-.03l-.22-.38c.16.3-.07-.16-.08-.17-.12-.26-.23-.52-.32-.79-.03-.1-.06-.19-.09-.29-.02-.06-.11-.46-.02-.07-.05-.24-.1-.48-.14-.72-.08-.51-.11-1.02-.12-1.54,0-.18-.03.21,0-.08.02-.14.03-.28.05-.41.04-.24.08-.48.15-.72.04-.13.1-.26.01-.06.05-.12.1-.24.15-.35s.11-.22.18-.32c-.12.2.04-.04.1-.1,1.13-1.2-.68-2.72-1.93-2h0Z"/><path class="cls-11" d="M442.77,179.95c-1.53.38-2.26,1.82-2.12,3.33.13,1.39.81,2.78,1.6,3.91s1.62,2.02,2.76,2.73c1.76,1.1,3.84,1.48,5.89,1.21,1.18-.16,2.37-.33,3.23-1.25s1.06-2.18,1.08-3.36c0-.58-.5-1.15-1.01-1.33-.6-.21-1.09-.04-1.55.38-.3.27-.49.62-.69.97-.07.13-.15.26-.23.4-.04.07-.07.13-.11.2.07-.14.1-.16,0-.01-.02.03-.2.2-.03.05s-.01,0-.05.02c-.13.06-.23.06.06-.01-.07.02-.14.05-.21.07s-.48.1-.28.07c.22-.04-.03,0-.06,0-.1.01-.19.02-.29.03-.36.04-.72.08-1.08.09-.18,0-.35,0-.52,0-.09,0-.17,0-.26-.02.19.02.1.01-.03-.01-.36-.07-.72-.14-1.08-.24-.08-.03-.16-.05-.24-.08.04.01.24.11.05.01s-.37-.16-.55-.26-.37-.2-.54-.31c-.03-.02-.22-.11-.23-.15,0-.04.28.23.18.13s-.23-.19-.33-.28c-.13-.13-.26-.26-.39-.4-.25-.27.16.2.08.09-.07-.1-.15-.19-.23-.28-.31-.4-.59-.82-.87-1.25-.12-.19-.25-.39-.36-.59-.06-.1-.1-.2-.16-.3-.1-.17.09.19.09.19-.01-.08-.08-.17-.11-.25-.09-.22-.17-.45-.23-.68-.01-.05-.02-.09-.04-.14-.07-.24.05.14.03.16,0,0-.03-.35-.03-.35,0,0-.03.36-.01.2,0-.05,0-.12.03-.16.01-.03-.13.32,0,.03.04-.1.1-.2.13-.3,0-.01-.15.27-.07.13.04-.07.24-.2-.02.01,1.13-.92.29-2.77-1.17-2.4h0Z"/><path class="cls-11" d="M452.56,187.23c.06.66.2,1.39.57,1.96.39.6.91,1.12,1.52,1.5.98.6,2.28.97,3.43.9,1.2-.08,2.31-.56,3.23-1.33,1.08-.91,1.88-2.56,1.08-3.92-.57-.97-2.06-.87-2.55.13-.07.15-.13.3-.18.45l.09-.25c-.05.06-.08.17-.11.24s-.07.14-.11.21c-.16.31.21-.23.09-.13-.13.11-.24.26-.36.38s-.33.18.11-.08c-.07.04-.14.1-.21.15-.15.1-.31.17-.46.26.43-.27.25-.12.1-.06-.08.03-.17.06-.25.09-.16.06-.33.12-.5.16-.36.09.09.03.13-.02-.03.04-.23.03-.28.03-.08,0-.15,0-.23,0-.36.02.39.05.15.01-.22-.03-.43-.06-.65-.11-.1-.02-.19-.05-.29-.08-.16-.05-.36-.21.06.03-.17-.1-.36-.15-.54-.24s-.34-.18-.5-.28c-.05-.03-.11-.07-.16-.1l.21.15c-.05-.07-.16-.13-.22-.19-.14-.13-.29-.25-.43-.39-.08-.08-.15-.17-.23-.24-.07-.08-.04-.05.08.09-.04-.06-.08-.11-.11-.17-.32-.49-.95-.78-1.52-.56s-1.03.77-.97,1.39h0Z"/><path class="cls-11" d="M460.18,187.49c.27,2.37,2.94,3.34,4.98,3.57s4.16-.11,6.05-.87c3.57-1.42,6.52-4.84,6.67-8.78.04-1.06-.07-2.14-.4-3.15-.19-.6-.4-1.23-.73-1.77-.4-.65-.88-1.11-1.48-1.57-.94-.72-2.71.26-2.35,1.48.14.48.27.94.45,1.41.06.16.12.33.19.49.04.11.25.65.15.35.11.34.2.68.26,1.03.03.18.06.37.08.56,0,.08.01.16.02.24.02.22.01-.29,0,.07s-.02.67-.06,1.01c-.02.18-.06.36-.09.53,0,.03-.07.28-.01.07.06-.25-.07.21-.07.21-.1.32-.21.63-.34.94-.07.17-.15.33-.22.49-.01.03-.13.26-.03.06s-.06.09-.08.12c-.19.31-.4.61-.62.9-.1.12-.2.24-.3.36-.18.21.21-.2,0,0-.08.07-.15.15-.23.22-.28.26-.57.5-.88.72-.07.05-.13.09-.2.14.02-.02.25-.15.06-.04s-.39.22-.58.32c-.33.17-.67.3-1.01.45s-.09.04,0,.01c-.08.03-.17.05-.25.08-.23.07-.46.12-.69.17-.35.08-.71.13-1.07.17-.1.01-.59.05-.38.04s-.39,0-.48.01c-.42,0-.85-.02-1.26-.07-.11-.01-.22-.03-.33-.05.18.03.14.04-.01,0-.21-.06-.42-.12-.63-.19s-.41-.13-.61-.21c.28.11-.14-.08-.23-.14-.38-.22-.76-.46-1.12-.71-.98-.66-2.25.23-2.12,1.34h0Z"/><path class="cls-11" d="M471.65,164.29c.38.22.78.3,1.2.42.17.05.34.12.51.18.16.07.16.07.01,0,.07.04.15.08.22.12.29.17.56.35.81.57-.26-.23.11.13.15.18.11.12.21.25.3.38s.18.27.27.41c.09.15.08.14,0-.02.04.07.07.14.11.22.13.29.26.59.37.89s.19.6.26.91c.04.15.07.3.1.45.02.09.1.6.03.14.07.5.13,1,.15,1.5.01.28,0,.55,0,.82-.02.19-.02.21,0,.05-.02.1-.04.21-.06.31-.05.21-.11.41-.18.61-.04.1-.08.2-.12.3.08-.16.08-.16-.02.03-.11.19-.21.37-.33.55-.05.07-.48.57-.18.25-.14.15-.29.29-.45.44.36-.32-.14.08-.23.14-.09.05-.18.1-.27.15.24-.11.25-.12.04-.04-.5.13-1,.29-1.46.52-.79.4-1.1,1.56-.3,2.12.93.65,2.37.43,3.36.03.93-.37,1.77-.96,2.42-1.72,1.14-1.34,1.76-3.11,1.64-4.87-.16-2.26-.83-4.8-2.48-6.44-.61-.61-1.32-1.13-2.15-1.41-.93-.31-2.2-.52-3.13-.09-.65.3-1.54,1.34-.58,1.91h0Z"/><path class="cls-11" d="M391.94,160.9c1.07,3.76,2.93,7.24,4.04,11,.57,1.92.98,3.9,1.19,5.89s.29,4.07.66,6.07c.25,1.33,2.66,2.02,2.98.37.77-4.07-.04-8.69-1.2-12.62-1.17-3.97-2.81-7.98-5.05-11.46-.79-1.24-3.14-1.08-2.63.75h0Z"/><path class="cls-11" d="M410.14,155.09c-3.13,3.82-5.66,8.11-6.95,12.9,1.33.1,2.67.2,4,.31.03-1.96-.58-3.94-1.46-5.68s-2.12-3.54-3.71-4.63c-.56-.38-1.4-.42-2.01-.14-.45.2-1.06.81-.73,1.35.86,1.44,1.86,2.74,2.6,4.26s1.26,3.18,1.25,4.92,3.59,1.9,4,.31c.64-2.48,1.54-4.89,2.85-7.09,1.11-1.86,2.23-3.71,3.17-5.66.31-.65-.45-1.22-.98-1.36-.69-.19-1.56-.06-2.03.52h0Z"/><path class="cls-11" d="M436.33,171.97c-1.19,1.94-2.59,3.72-3.88,5.59-.62.9-1.26,1.79-1.86,2.71-.78,1.21-1.54,2.65-1.05,4.12.34,1.03,1.65.36,2.01-.24.17-.28.32-.56.45-.85.05-.1.09-.2.13-.3,0,0,.23-.46.09-.21-.13.23.05-.08.08-.12.06-.09.12-.18.19-.27.13-.18.26-.37.39-.55.64-.94,1.27-1.89,1.9-2.84,1.3-1.97,2.68-3.95,3.28-6.26.12-.45.07-1.15-.42-1.37s-1.06.19-1.31.59h0Z"/><path class="cls-11" d="M426.87,187.45c2.25-1.1,4.71-1.69,7.07-2.51,1.3-.45,2.6-.94,3.91-1.37s2.74-.7,4.08-1.15c.76-.25,1.14-.96.98-1.74-.17-.84-.78-1.37-1.61-1.51-1.52-.25-3.06.14-4.51.56s-2.78.95-4.17,1.45c-2.56.92-5.33,1.62-7.47,3.38-1.45,1.19-.03,3.74,1.73,2.87h0Z"/><path class="cls-11" d="M428.33,195.08c2.93-1.15,5.89-2.29,8.88-3.29,1.39-.46,2.79-.89,4.18-1.36s2.93-1,4.08-1.94c.56-.46.34-1.34,0-1.84-.43-.62-1.05-.97-1.81-.84-1.49.27-2.95.86-4.39,1.32-1.35.43-2.7.84-4.02,1.33-2.91,1.06-5.65,2.47-8.47,3.74-1.6.72.12,3.45,1.56,2.89h0Z"/><path class="cls-11" d="M422.12,205.17c-5.76,1.46-12.04-.84-17.25-3.22-4.84-2.21-9.61-5.22-12.54-9.76.1.83.2,1.66.3,2.49.89-1.87,2.31-3.55,3.48-5.25,1.56-2.28,3.61-4.88,4.31-7.58.29-1.15-.97-3.13-2.14-1.93-.75.76-1.24,1.84-1.84,2.72-.65.98-1.32,1.95-1.99,2.91-1.08,1.57-2.2,3.11-3.26,4.69-.99,1.47-1.88,2.75-.93,4.52,1.1,2.04,2.95,3.91,4.72,5.37,3.77,3.11,8.27,5.42,12.85,7.06,4.81,1.72,10.02,3.09,15.09,1.68,1.76-.49.97-4.15-.79-3.7h0Z"/><path class="cls-11" d="M427.66,192.23c-1.14,2.25-2.3,4.48-3.4,6.75-.56,1.15-1.1,2.31-1.61,3.48-.48,1.11-.8,2.38-1.4,3.42-.5.86-.02,2.32.76,2.84.85.57,1.78,0,1.92-.98.16-1.14.76-2.32,1.18-3.39.46-1.16.95-2.31,1.46-3.45,1.02-2.29,2.1-4.54,3.15-6.81.32-.7.1-1.69-.47-2.19s-1.25-.31-1.58.34h0Z"/><path class="cls-11" d="M55.42,258.47c.48-.52.99-1,1.54-1.45.28-.23.58-.45.87-.67.17-.13-.17.11,0,0,.09-.06.17-.11.25-.17.15-.1.31-.2.46-.29.6-.37,1.2-.73,1.82-1.05s1.25-.58,1.82-.96c.52-.35.69-.91.43-1.49s-.84-.9-1.5-.87c-.78.04-1.58.34-2.28.65s-1.34.65-1.95,1.06c-1.31.89-2.52,1.9-3.55,3.1-.49.58-.43,1.44.13,1.97.49.47,1.42.77,1.97.18h0Z"/><path class="cls-11" d="M52.54,253.56c11.92,1.15,24.22-.76,35.47-4.79,5.34-1.91,10.59-4.33,15.39-7.38,4.28-2.72,9.53-6.77,11.01-11.87.4-1.38-1.6-2.46-2.5-1.32-1.73,2.19-3,4.53-5.04,6.5-1.81,1.75-3.87,3.23-5.99,4.58-4.63,2.92-9.6,5.23-14.74,7.09-10.76,3.9-22.14,5.57-33.57,4.61-1.84-.15-1.68,2.41-.03,2.57h0Z"/><path class="cls-11" d="M83.46,250.13c.93.25,1.93.05,2.89.08.85.03,1.7.12,2.55.28,1.57.28,3.07.81,4.63,1.16.82.19,1.75-.04,2.04-.93.49-1.54,1.21-3.01,2.06-4.39.36-.59.77-1.16,1.15-1.74.43-.66.99-1.32,1.17-2.1.24-1.05-1.29-1.34-1.96-.9-.74.49-1.25,1.22-1.79,1.91-.49.64-.94,1.31-1.34,2.01-.91,1.56-1.5,3.24-2.13,4.92l2.04-.93c-1.77-.48-3.54-.98-5.34-1.34-.92-.18-1.85-.3-2.78-.32-1.11-.02-2.39-.06-3.38.48-.8.43-.67,1.57.21,1.8h0Z"/><path class="cls-11" d="M105.19,240.1c1.91-.03,3.7-.77,5.6-.9,2.04-.14,3.97.33,5.9.92.84.25,1.65-.37,1.68-1.26.07-2.02-.73-3.99-1.83-5.65-.94-1.41-2.86-3.65-4.79-3.07-.59.17-.97.71-1.02,1.31-.05.52.19,1.32.76,1.48.13.04.26.1.39.14.18.06.33.08.5.12.19.05-.2-.08-.02,0,.14.06.29.11.43.18.09.05.18.09.27.15-.12-.08-.04-.02.03.03.68.52,1.02.91,1.5,1.59s.75,1.18,1.04,1.94c.07.19.14.38.2.58.02.08.05.17.07.25-.03-.13-.02-.11,0,0,.03.17.05.34.08.52.02.2.02-.25,0-.06-.01.08-.02.17-.03.25.56-.42,1.12-.84,1.68-1.26-1.97-.86-4.29-1.22-6.43-1.15s-4.05.69-6.04,1.25c-.61.17-.95.77-.93,1.38.02.52.35,1.26.98,1.25h0Z"/><path class="cls-11" d="M82.89,214.11c6.7-.64,14.06-1.38,20.11,2.22,4.98,2.97,7.24,7.81,8.93,13.13.48,1.51,2.56,1.17,2.38-.47-.66-6.12-4.24-12-9.43-15.34-6.61-4.25-14.62-3.69-22.1-2.98-1.86.18-1.74,3.62.11,3.44h0Z"/><path class="cls-11" d="M55.89,226.72c3.77-3.65,8.31-6.45,13.07-8.6,4.4-1.99,9.11-3.51,13.93-4.01,1.86-.19,1.74-3.63-.11-3.44-10.37,1.08-20.95,5.86-28.39,13.2-.62.61-.85,1.51-.42,2.31.33.62,1.29,1.14,1.91.54h0Z"/><path class="cls-11" d="M63.65,246.25c14.78-.46,29.93-5.03,40.93-15.21,1.21-1.12-.93-2.29-1.91-1.38-10.64,9.87-24.85,13.91-39.11,14.62-1.56.08-1.49,2.02.08,1.97h0Z"/><path class="cls-11" d="M105.49,247.45c.26-.1.53-.19.81-.26.05-.01.29-.07.1-.03-.18.04.02,0,.05,0,.18-.04.36-.07.55-.1.62-.11,1.24-.19,1.86-.31.7-.13,1.36-.3,2-.6.61-.29,1.11-.78,1.52-1.31.35-.45.66-.94,1-1.39.06-.07.19-.16-.05.04.04-.03.07-.07.11-.1.06-.06.15-.2.03-.03-.14.19.11-.04-.1.06-.23.11.19-.06.27-.1.25-.11.5-.21.73-.35,1.12-.65,2.02-1.77,1.84-3.13-.16-1.15-.98-2.14-1.84-2.86-.91-.75-2.96.76-1.96,1.69.15.14.29.28.43.44.11.12-.08-.11.01.02.03.04.06.07.09.11.07.1.15.2.21.3.11.16.2.33.28.51.02.05.11.33.05.11.03.09.05.19.07.28s.02.19.03.28c-.02-.19,0-.05-.02.07,0,.05-.08.28-.02.12s0,0-.02.04c-.04.09,0,.15,0,.03,0-.1.07-.09,0,0-.01.02-.11.13-.11.13-.01-.03.22-.18.09-.1-.04.02-.08.06-.11.09-.17.15.07-.04.07-.05,0,.02-.12.07-.14.08-.05.03-.1.05-.15.08.19-.1.11-.05-.04,0-.63.23-1.19.53-1.66,1.01-.43.44-.78.93-1.13,1.42-.14.19-.29.36-.43.55-.1.14.08-.11.09-.1.02.02-.13.1-.14.13,0-.01.29-.17.17-.12-.03.01-.16.08-.17.09,0,0,.32-.12.18-.08-.04.01-.09.03-.13.05-.11.04-.22.07-.32.1-.05.01-.1.02-.15.04,0,0,.28-.05.11-.03-.15.02-.29.06-.44.08-1.32.23-2.69.34-3.94.84-.63.24-1.39.84-1.27,1.61.12.73,1.03.87,1.61.64h0Z"/><path class="cls-11" d="M85.17,255.03c2-.47,3.97-.29,5.99-.3,2.18-.01,4.16-.6,6.19-1.37,1.97-.75,4.38-1.61,5.88-3.16.51-.53.83-1.15,1.11-1.82s.38-.72,1.15-.95c1.65-.48,1.6-2.79-.34-2.24-1.79.51-2.86,1.49-3.6,3.15-.3.67-.66.9-1.31,1.27-1.04.58-2.12,1.06-3.23,1.48-1.89.72-3.63,1.23-5.66,1.18-2.23-.06-4.34-.02-6.52.5-.64.15-1.38.9-1.27,1.61.13.79,1.01.78,1.61.64h0Z"/><path class="cls-11" d="M69.15,258.37c1.41-.39,2.75-.16,4.16.11,1.4.27,2.77.3,4.13-.19,1.2-.43,2.26-1.11,3.35-1.75,1.26-.74,2.55-1.22,4-1.42.7-.1,1.53-.63,1.64-1.39s-.57-1.13-1.23-1.03c-1.71.24-3.32.75-4.84,1.56-1.02.54-2.14,1.35-3.09,1.73-1.15.46-2.24.2-3.42-.03-1.72-.33-3.36-.28-5.04.21-.62.18-1.36.86-1.24,1.57.12.76.99.79,1.57.63h0Z"/><path class="cls-11" d="M55.04,260.05c1.17-.32,2.56.57,3.65.87,1.34.36,2.68.34,3.99-.1,1.04-.35,1.98-.93,2.94-1.44s1.96-.84,3.16-.91c.7-.04,1.5-.66,1.61-1.37.12-.75-.57-1.06-1.21-1.02-1.45.11-2.8.54-4.09,1.19-.47.24-.92.5-1.38.76s-.93.51-1.21.61c-1.09.38-2.08.23-3.25-.16-1.52-.51-2.94-.9-4.53-.44-.57.16-1.24.79-1.13,1.43.11.69.91.72,1.43.57h0Z"/><path class="cls-11" d="M54.88,263.04c1.84,1.03,4,1.29,6.08,1.34,1.76.04,3.64.01,5.35-.44,2.74-.72,6.52-2.79,5.3-6.19-.19-.52-.82-.86-1.35-.87-.45,0-1.1.31-1.1.84,0,1.11-.42,1.86-1.34,2.53-.85.62-1.86,1.01-2.88,1.26-1.4.34-2.92.37-4.36.36-1.59-.01-3.21-.23-4.61-1.04-.6-.35-1.54-.21-1.87.44-.35.71.17,1.42.77,1.76h0Z"/><path class="cls-11" d="M69.23,257.75c-.45,2.29,2.15,4.06,4.02,4.57,1.99.54,4.13.31,6.14,0,1.66-.26,3.29-.66,4.9-1.13,1.43-.42,2.92-.72,4.31-1.25,1.34-.5,2.54-1.31,3.15-2.66.56-1.24.48-2.96-.44-4.01-.57-.65-2.38-1.04-2.34.32.03,1,.37,1.79-.42,2.62-.71.75-1.88,1.05-2.83,1.34-2.42.72-4.85,1.44-7.33,1.9-1.42.26-2.89.45-4.33.29-.53-.06-1.19-.21-1.57-.44-.55-.34-.66-.97-.98-1.56-.5-.93-2.02-1.27-2.27,0h0Z"/><path class="cls-11" d="M89.23,256.35c.95,1.53,3.02,1.74,4.64,1.49,1.71-.26,3.31-.91,4.91-1.54,2.55-.99,5.19-1.93,6.74-4.36,1.01-1.59.99-4.14-.63-5.33-.89-.65-2.49-.02-2.36,1.2.06.53.23,1,.35,1.51-.07-.29,0,.26.02.32.03.31.06-.18,0,.14-.04.17-.07.35-.13.51.12-.36-.09.15-.13.22-.04.08-.09.15-.14.23.1-.14.11-.16.04-.07-.1.13-.2.25-.31.37-.13.14-.26.27-.4.4.28-.25-.18.13-.23.17-.27.2-.55.39-.84.56s-.61.34-.92.51c-.08.04-.52.27-.13.07-.15.07-.29.14-.44.21-1.33.62-2.73,1.2-4.11,1.68-.85.29-1.48.49-2.38.52-.57.02-1.1-.15-1.62-.51-1.12-.76-2.68.44-1.91,1.68h0Z"/><path class="cls-11" d="M113.78,242.33c.11.22.26.39.41.58.07.09.06.07-.03-.06.04.07.08.13.12.2-.14-.24-.02-.03.01.07.09.26.03-.19,0,.07,0,.07,0,.14,0,.21.02-.17.02-.18,0-.03-.03.1-.06.21-.09.31-.09.31.12-.19-.04.09-.06.1-.11.2-.17.3-.08.14-.18.26-.27.39-.17.23.14-.13-.08.1-.16.17-.33.35-.5.51-.35.33-.73.64-1.12.92-.1.08-.59.46-.18.14-.3.24-.67.42-1.01.61-.69.4-1.41.75-2.15,1.05-.69.28-1.39.54-2.1.73-.79.22-1.61.32-2.41.53s-1.26.88-1.05,1.71.99,1.32,1.83,1.28c1.02-.05,2.06-.41,3.02-.73.88-.28,1.74-.63,2.57-1.02,1.35-.64,2.73-1.32,3.87-2.3.99-.85,1.89-1.89,2.37-3.12.59-1.53.02-3.61-1.58-4.28-1.11-.47-1.88.76-1.42,1.71h0Z"/><path class="cls-11" d="M115.22,252.63c.14-.23.35-.52.42-.79.04-.14-.23.23-.04.05.02-.01.11-.13.12-.12,0,0-.23.19-.04.06.28-.2-.25.07,0-.01.18-.06.35-.11.53-.15.08-.02.17-.03.25-.05.06-.01.48-.07.23-.04s.11-.01.18-.02c.12-.02.24-.03.36-.05.33-.04.67-.09,1-.14.44-.08.87-.18,1.29-.35,1.18-.49,2.05-1.43,2.17-2.75.15-1.61-.64-2.93-1.91-3.87s-2.86-1.42-4.44-1.2c-.67.09-1,.92-.9,1.5s.7,1.28,1.37,1.19c.22-.03.44-.03.66-.02.25,0-.02.05-.05-.01,0,0,.18.03.17.03.14.03.29.06.43.1.12.03.23.07.35.11.05.02.13.04.17.06-.21-.15-.16-.07-.07-.02.25.13.5.25.73.4,0,0,.15.09.15.1,0-.06-.23-.19-.03-.02.09.08.18.15.27.24.08.08.17.23.27.29-.03-.02-.2-.28-.08-.09.04.07.09.14.14.21.02.03.06.13.08.15-.02-.02-.12-.34-.06-.12.02.08.04.25.09.31-.1-.12-.03-.28-.02-.11,0,.05,0,.11,0,.16,0,.06-.05.29,0,.08s0,.01-.01.07c-.01.07-.12.43-.03.19s-.04.07-.07.12c-.11.25.22-.23,0,0-.03.03-.06.06-.08.09-.1.12-.23.09.09-.06-.15.07-.29.19-.44.27-.18.1.13-.06.15-.06-.05,0-.11.04-.16.06-.1.04-.2.07-.3.09-.21.06-.42.1-.63.14-.1.02-.19.03-.29.05-.05,0-.1.01-.15.02-.27.04.33-.04.06,0-.49.06-.98.12-1.46.19-.53.08-1.04.23-1.5.5-.74.44-.99,1.15-1.42,1.84-.39.62,0,1.59.61,1.9.71.36,1.42.12,1.83-.54h0Z"/><path class="cls-11" d="M108.9,256.17c0-.18,0-.36.01-.55,0-.08,0-.16,0-.24,0-.13.09-.43,0-.06.05-.18.04-.39.08-.58.01-.05.02-.1.04-.15.04-.14.03-.1-.05.12.03-.04.08-.15.09-.19-.14.2-.17.24-.09.13.09-.09.05-.07-.12.09.07-.02.15-.11.21-.15.05-.03.1-.06.14-.08.13-.07.1-.05-.11.04.09,0,.2-.07.29-.1.07-.02.16-.02.22-.05-.23.03-.27.04-.13.02.05,0,.1,0,.15,0,.18,0,.35,0,.53.02.09,0,.18.02.26.03.1.01.05,0-.16-.02.05,0,.1.01.15.02.27.04.53.07.8.11.47.06.91.05,1.38-.03,1.03-.16,2.16-.94,2.57-1.92.27-.64.11-1.35-.46-1.77s-1.27-.36-1.75.13c-.19.19-.35.42-.54.62-.11.1-.09.08.07-.06-.04.03-.09.07-.14.1-.05.03-.17.07-.21.12.21-.09.25-.11.12-.05-.05.02-.09.03-.14.05-.09.03-.2.03-.29.06.35-.12.14-.02-.02-.02-.07,0-.15,0-.22,0-.2,0-.4-.04-.6-.05.44.04.07,0-.03,0-.08-.01-.15-.02-.23-.03-.48-.06-.96-.13-1.44-.1-1.11.09-2.31.61-2.78,1.68-.4.9-.35,1.9-.39,2.87-.03.72.73,1.44,1.44,1.4.81-.04,1.27-.64,1.3-1.41h0Z"/><path class="cls-11" d="M103.05,259.7c.58-.02,1.17-.03,1.75-.08.6-.05,1.23-.12,1.8-.32s1.17-.51,1.57-1.01c.51-.63.69-1.33.73-2.13.02-.34-.22-.78-.46-1.01s-.63-.41-.98-.4-.73.14-.96.43-.32.6-.34.98c.03-.5,0-.12-.01,0-.02.09-.04.18-.07.27l.12-.33c-.05.15-.12.29-.21.42l.2-.29c-.09.12-.19.23-.3.33l.28-.23c-.16.13-.33.23-.51.31l.33-.15c-.38.16-.78.24-1.18.3l.35-.05c-.74.1-1.49.11-2.23.13s-1.37.65-1.3,1.41.66,1.43,1.44,1.4h0Z"/><path class="cls-11" d="M87.19,265.72c3.19,1.13,7.89.33,9.81-2.71.39-.63.56-1.41,1.04-1.97.07-.08.15-.16.23-.23.11-.1-.13.09.08-.07s.41-.28.62-.39c1.09-.57,2.75-.66,4.09-.64,1.83.03,1.61-2.81-.14-2.84-2.68-.05-5.92.36-7.47,2.85-.39.63-.56,1.41-1.04,1.98-.43.5-1.05.86-1.66,1.11-1.59.65-3.37.73-4.98.16-.71-.25-1.5.32-1.64,1.02-.17.8.35,1.48,1.07,1.73h0Z"/><path class="cls-11" d="M80.71,266.3c.05-.05.11-.1.16-.14-.08.07-.16.13-.03.03s.26-.19.4-.27c.12-.08.25-.15.38-.21.08-.04.16-.08.24-.12-.1.05-.18.07-.03.02.3-.11.59-.21.9-.28.15-.03.3-.06.44-.09.03,0,.27-.04.11-.02-.18.02.17-.02.17-.01.31-.03.62-.04.93-.03.18,0,.36.01.53.03.08,0,.16.02.24.02.21.01-.2-.03,0,0,.7.11,1.37.28,2.03.53.69.26,1.54-.32,1.65-1.02.13-.82-.33-1.47-1.08-1.74-3-1.1-6.69-.9-9.1,1.38-.53.51-.41,1.52.12,1.98.59.52,1.36.51,1.93-.03h0Z"/><path class="cls-11" d="M71.38,267.02c.11,0,.21-.01.32-.01.05,0,.33.03.08,0,.17.03.35.07.51.13.09.03.18.06.28.1-.12-.05-.12-.05,0,0,.16.08.32.15.48.23.82.41,1.64.77,2.56.86,1.84.19,3.39-.8,4.84-1.78.61-.42.83-1.3.4-1.93-.4-.59-1.26-.95-1.91-.5-.6.42-1.2.86-1.86,1.18-.09.04-.26.11-.08.04-.08.03-.16.06-.24.09-.18.06-.37.11-.56.15-.21.04.17,0-.05,0-.11,0-.23.01-.34.01-.09,0-.19,0-.28-.02.19.02.03,0-.07-.02-.15-.03-.31-.08-.45-.13-.11-.04-.23-.1-.06-.02-.07-.03-.14-.06-.22-.1-.32-.15-.64-.31-.96-.46-.8-.36-1.63-.62-2.52-.55-.71.06-1.34.62-1.28,1.38.06.69.65,1.43,1.41,1.37h0Z"/><path class="cls-11" d="M59.54,269.12c.85,1.23,2.07,1.91,3.57,1.99,1.26.06,2.58-.25,3.65-.92.9-.56,1.64-1.34,2.43-2.04.03-.03.3-.26.19-.17s.17-.13.2-.16c.2-.15.4-.29.62-.41.26-.15.83-.35,1.17-.38.74-.07,1.33-.61,1.29-1.39-.03-.66-.68-1.49-1.42-1.39-1.12.15-2.15.5-3.05,1.2-.79.62-1.47,1.35-2.2,2.03-.06.06-.21.18-.07.07-.09.08-.19.16-.29.23-.19.13-.38.25-.58.36-.06.03-.26.13-.1.06-.12.05-.25.1-.37.14-.22.07-.47.13-.69.16-.49.07-.94.07-1.37-.03-.36-.09-.66-.3-.9-.64-.38-.55-1.11-.83-1.72-.45-.57.35-.75,1.19-.36,1.75h0Z"/><path class="cls-11" d="M53.37,264.72c-.53,1.06-.41,2.28.36,3.19s1.97.93,3,.59c.44-.15.87-.35,1.31-.48.11-.03.22-.06.33-.08.24-.06-.19,0,.11,0,.04,0,.09,0,.13,0,.14,0,.11,0-.07-.02,0-.04.38.16.13.02-.2-.11.06.04.1.06.2.11-.22-.22-.02,0,.05.05.11.13.17.18-.14-.18-.17-.21-.08-.1.02.03.04.06.06.09.22.32.41.66.62.99.35.55,1.16.86,1.74.46s.76-1.18.37-1.77c-.41-.62-.78-1.32-1.37-1.78-.87-.68-1.93-.79-2.97-.45-.41.13-.81.32-1.21.48-.2.07-.4.13-.61.18-.32.07.24-.07-.07,0-.13,0-.11,0,.07.02-.04,0-.07-.01-.11-.02-.09-.03-.05,0,.12.05-.04-.02-.08-.04-.12-.07l.14.11s-.07-.06-.1-.1c.13.17.16.2.08.09l-.04-.06c-.14-.19.1.29,0,0s-.01.22,0-.02v-.08c0-.13,0-.1-.02.08,0,0,.02-.23.05-.24-.06.16-.07.18-.02.05.02-.05.05-.11.08-.16.3-.58.04-1.39-.54-1.69s-1.32-.14-1.62.47h0Z"/><path class="cls-11" d="M86.13,272.09c7.89-2.11,15.86-5.16,23.12-8.9,4.71-2.43,11.06-6.65,9.97-12.79-.23-1.3-3.36-1.19-3.06.35,1.07,5.52-5.85,9.36-9.94,11.35-6.86,3.33-14.12,6.18-21.49,8.15-.62.17-1.01.77-.63,1.34.4.62,1.41.67,2.04.5h0Z"/><path class="cls-11" d="M84.71,270.22c-.68.17-.58.14-1.31.28-.85.17-1.71.32-2.57.45-2.33.38-4.68.68-7.04.9-4.45.41-9.74.99-13.98-.61-1.66-.63-2.77-1.72-2.6-3.65.14-1.57-3.34-1.82-3.49-.24-.48,5.15,5.64,6.61,9.6,7.01,5.67.58,11.51-.11,17.1-1.07,1.92-.33,3.86-.67,5.75-1.18.64-.17,1.04-.79.65-1.38-.42-.65-1.45-.68-2.1-.52h0Z"/><path class="cls-11" d="M67.49,221.85c-.46.5-.71,1.39-.45,1.85.58,1.05,1.58-.23,1.81-.86.16-.43.09-1.12-.41-1.3-.36-.13-.69.03-.96.31Z"/><path class="cls-11" d="M75.57,218.09c-.79-.57-2.5,1.06-1.81,1.8,1.08,1.15,2.82-1.07,1.81-1.8Z"/><path class="cls-11" d="M73,223.42c-.65-.33-1.67.53-1.55,1.27.28,1.7,3.18-.43,1.55-1.27Z"/><path class="cls-11" d="M80.07,218.66c-.92.34-.86,2.43.35,2.33,1.64-.13.81-2.76-.35-2.33Z"/><path class="cls-11" d="M79.31,222.95c-.79-.57-2.5.63-1.75,1.58,1,1.28,2.75-.86,1.75-1.58Z"/><path class="cls-11" d="M84.97,217.33c-.59-.44-1.58-.64-2.06-.23-.45.39-.39,1.1.05,1.48.54.46,1.72.55,2.25,0,.43-.44.21-.92-.24-1.26Z"/><path class="cls-11" d="M56.97,227.04c.37-.04.75-.07,1.13-.08.1,0,.25.02.34,0h-.19c.06,0,.11,0,.17,0,.19,0,.38.02.56.05.38.04.75.11,1.12.2.09.02.2.03.28.07-.21-.06-.26-.07-.14-.04.06.02.11.03.17.05.18.06.37.12.55.19.08.03.17.08.25.1.13.04-.38-.26-.17-.09.05.04.1.08.15.11.17.12-.33-.35-.16-.13.04.05.09.1.13.15.22.25-.11-.16-.11-.16.04,0,.18.33.2.36.14.27-.13-.4-.04-.1.01.05.03.1.05.16.01.04.07.19.06.23.01-.05-.03-.42-.03-.14,0,.09,0,.5.01.22,0-.26,0-.05-.02.02s-.04.14-.06.2c-.13.33.02.9.19,1.19.2.33.45.59.79.78.57.31,1.59.36,1.9-.37.38-.9.41-1.87.07-2.8s-.93-1.86-1.8-2.4c-1.84-1.13-4.23-1.33-6.33-1.08-.87.11-1.35,1.02-1.09,1.83s1.09,1.58,2.03,1.47h0Z"/><path class="cls-11" d="M45.23,230.27c3.5-2.22,7.68-2.8,11.81-3.3.91-.11,1.46-1.18,1.18-1.99-.33-.98-1.34-1.29-2.26-1.18-4.35.51-8.89,1.2-12.67,3.58-.78.49-1.12,1.43-.57,2.25.49.74,1.71,1.15,2.51.64h0Z"/><path class="cls-11" d="M35.75,243.38c.75-2.8,2.06-5.33,3.87-7.61,1.66-2.1,3.86-4.01,5.96-5.76.73-.6.57-1.74-.08-2.33-.72-.65-1.82-.66-2.56-.05-2.37,1.95-4.61,4.01-6.52,6.42-1.97,2.49-3.38,5.36-4.19,8.42-.54,2.05,2.97,2.95,3.52.9h0Z"/><path class="cls-11" d="M41.87,264.11c-2.21-3.06-3.86-6.53-5.07-10.1-1.11-3.31-2.1-7.18-1.05-10.63.62-2.02-2.9-2.93-3.52-.9-1.18,3.89-.19,8.28,1.04,12.03,1.3,3.93,3.14,7.81,5.57,11.17,1.21,1.67,4.35.29,3.01-1.57h0Z"/><path class="cls-11" d="M38.41,277.23c1.05-4.03,2.39-7.95,3.7-11.9.29-.88-.52-1.84-1.35-2.01-.92-.19-1.86.18-2.15,1.12-1.25,4.04-2.85,8.17-2.8,12.45.02,1.35,2.25,1.67,2.6.34h0Z"/><path class="cls-11" d="M58.28,273.56c-.05,1.01-.07,2.01-.08,3.01,0,.49,0,.99,0,1.48,0,.26.02.51.05.77.02.19.04.41.1.59.14.44.49.66.87.88.44.26,1.22.26,1.66,0,.37-.22.72-.44.86-.88.06-.18.08-.4.1-.6.03-.25.05-.51.05-.77,0-.49,0-.99,0-1.48,0-1.01-.03-2.01-.08-3.01-.09-1.87-3.43-1.86-3.52,0h0Z"/><path class="cls-11" d="M56.16,236.03c-1.24,0-2.19.81-3.08,1.6-.74.66-1.42,1.38-2.14,2.06-.8.76-1.64,1.49-2.38,2.31-.79.87-1.55,1.76-2.31,2.65-.51.6-.75,1.53-.03,2.11.65.51,1.75.53,2.34-.11,1.52-1.64,3.06-3.25,4.65-4.82.67-.66,1.25-1.4,1.9-2.07.31-.33.64-.65.99-.94.1-.09.21-.17.31-.25-.27.21.13-.07.25-.2.2-.21.36-.45.53-.68.56-.8-.21-1.65-1.04-1.65h0Z"/><path class="cls-11" d="M59.69,244.63c1.52-.41,3.07-.68,4.6-1.04,1.21-.28,2.56-.62,3.57-1.38,1.98-1.5,2.74-4.39,1.55-6.61-.66-1.23-1.95-1.83-3.28-2-.35-.04-.78.23-1.02.45-.3.29-.54.77-.59,1.18-.09.84.24,1.53,1.11,1.69-.27-.05-.05,0,.08.03.1.03.21.06.31.1.11.04.21.09.32.14.05.02.16.1-.01-.01-.2-.14.02.02.05.04.15.1.28.23.41.35.18.16-.19-.27-.03-.02.05.08.11.16.16.24.15.25,0,.09-.02-.07,0,.08.07.19.1.27s.04.17.07.24c.05.14-.04-.26-.04-.24,0,.06.02.12.03.18.01.08.02.17.02.25s0,.4.01.06,0-.02-.01.06c-.01.1-.03.19-.05.28,0,0-.02.13-.03.14-.03.02.17-.51.06-.26-.03.08-.05.16-.08.23-.01.03-.07.22-.1.23-.04,0,.23-.4.13-.27-.03.05-.06.1-.09.15-.04.07-.09.13-.14.2-.1.17.29-.33.15-.19-.02.02-.04.05-.07.08-.06.06-.11.11-.17.17-.21.21.36-.25.02-.02-.07.05-.55.26-.56.31,0,0,.29-.12.14-.06-.06.02-.13.05-.19.08-.13.05-.26.1-.4.15-.56.19-1.13.34-1.71.48-1.51.36-3.04.64-4.54,1.05-.83.23-1.41,1.26-1.32,2.1s.67,1.49,1.54,1.26h0Z"/><path class="cls-11" d="M50.96,253.46c.85-.64,1.55-1.45,2.28-2.22.79-.82,1.53-1.68,2.31-2.51s1.53-1.61,2.34-2.38c.38-.36.78-.72,1.17-1.07.18-.16.37-.32.55-.47.03-.03.4-.31.11-.09.11-.08.22-.17.33-.25.7-.52,1.21-1.49.89-2.37-.26-.72-1.13-1.24-1.84-.69-1.83,1.41-3.45,3.05-4.98,4.78-.82.93-1.63,1.86-2.38,2.85-.65.86-1.38,1.73-1.89,2.69-.24.45-.38,1.02-.08,1.48.24.38.8.51,1.18.23h0Z"/><path class="cls-11" d="M51.11,233.96c2.46-.96,5.02-1.68,7.6-2.25,2.12-.47,4.39-.99,6.56-1.05.79-.02,1.7.05,2.3.62.24.23.43.77.49.82-.04-.03,0-.15.09-.23-.29.27-.79.68-1.42.98-.88.42-1.8.74-2.73,1.02-2.68.81-5.42,1.4-8.13,2.1-.81.21-1.41.96-1.44,1.8-.02.69.51,1.55,1.31,1.33,2.85-.76,5.73-1.4,8.55-2.3,2-.64,4.43-1.4,5.7-3.2,1.36-1.92.56-4.66-1.66-5.55-2.29-.92-5.15-.14-7.47.3-3.5.67-6.99,1.61-10.28,2.98-1.4.58-1.23,3.31.52,2.63h0Z"/><path class="cls-11" d="M42.57,242.61c1.31-1.87,2.69-3.72,4.27-5.37.08-.08.16-.17.25-.25.1-.1-.08.07.09-.09.2-.19.39-.38.6-.56.36-.33.74-.64,1.12-.94.36-.28.73-.55,1.12-.8.09-.06.18-.12.27-.18-.22.13.1-.06.14-.08.22-.13.45-.25.68-.37.66-.35,1.12-1.14.96-1.89-.14-.66-.85-1.11-1.49-.75-4.07,2.24-6.95,5.94-9.51,9.73-.35.51-.59,1.29-.09,1.81.45.46,1.24.24,1.58-.25h0Z"/><path class="cls-11" d="M49.61,252.7c.51.89,1.18,1.72,1.63,2.55.55,1,1.03,2.05,1.39,3.14.3.92.52,1.93.62,2.87.1,1.07-.08,2.15,0,3.21.05.61.32,1.18.88,1.48.44.24,1.11.25,1.4-.23.69-1.12.61-2.65.48-3.9-.14-1.3-.48-2.56-.9-3.8s-.91-2.32-1.54-3.4c-.64-1.09-1.35-2.32-2.36-3.11-.38-.3-.94-.5-1.38-.18-.39.29-.47.96-.23,1.37h0Z"/><path class="cls-11" d="M135.81,262.74c1.99,13.33,13.99,21.44,27.04,21.07,7.03-.2,14.42-1.99,20.13-6.27,5.49-4.12,8.58-10.23,9.5-16.96.33-2.45-3.31-3.98-3.71-1.09-1.81,13.1-13.57,19.29-25.82,19.92-11.09.57-21.47-5.38-23.83-16.71-.47-2.24-3.71-2.61-3.32.04h0Z"/><path class="cls-11" d="M141.27,269.59c.11-.08.21-.15.32-.22l-.32.2c.58-.36,1.2-.66,1.83-.93.31-.13.64-.24.94-.4.4-.21.78-.44,1.16-.69.27-.18.47-.51.6-.79s.23-.61.19-.91c-.03-.21-.08-.41-.2-.58-.18-.25-.5-.3-.78-.27-.84.11-1.61.47-2.36.85s-1.54.83-2.22,1.36c-.32.25-.59.64-.72,1.03-.11.31-.18.77-.04,1.09.12.28.33.54.66.57.36.03.66-.12.94-.32h0Z"/><path class="cls-11" d="M149.92,277.02c.72-.56,1.24-1.31,1.78-2.03.27-.36.55-.72.85-1.05s.57-.66.93-.92l-.26.18c.39-.27.81-.51.84-1.05.07-1.01-1.1-2.07-2.1-1.93-.32.04-.61.14-.87.32-.25.17-.5.34-.72.55-.74.67-1.2,1.61-1.73,2.44l.17-.26c-.35.55-.73,1.1-1.22,1.55-.23.21-.25.61-.19.88.08.37.33.77.6,1.01s.65.5,1.04.55c.34.04.59-.02.87-.23h0Z"/><path class="cls-11" d="M164,273.4c-.13,1.09-.06,2.21.13,3.29.11.6.24,1.19.45,1.76s.43,1.12.89,1.54c.48.43,1.19.72,1.85.58.56-.12,1-.44.98-1.05,0-.29-.1-.54-.21-.81-.04-.11-.08-.22-.13-.33.02.05.08.25.03.09-.02-.07-.04-.13-.06-.2-.04-.13-.09-.27-.14-.4-.03-.07-.08-.29,0,.03-.03-.11-.07-.22-.11-.34-.08-.26-.15-.52-.22-.78-.12-.49-.22-.98-.28-1.48-.03-.25-.06-.5-.07-.75,0-.11,0-.21-.01-.32v-.08c0-.1,0-.1,0,0,0,.09,0,.1,0,.04,0-.04,0-.07,0-.11.02-.35-.05-.59-.29-.85s-.67-.49-1.03-.55c-.55-.1-1.69-.05-1.79.73h0Z"/><path class="cls-11" d="M176.52,271.61c.21.11.41.23.61.37l-.33-.24c.43.32.81.7,1.17,1.09l-.31-.34c.41.46.8.94,1.21,1.39.29.32.57.63.88.92.49.45,1.2,1.01,1.9.75.56-.21.74-.81.58-1.37s-.44-.99-.87-1.35c-.14-.12-.28-.23-.41-.35-.27-.24-.51-.51-.76-.77l.31.34c-.53-.58-1.03-1.17-1.6-1.71-.63-.59-1.35-1.04-2.15-1.36-.26-.1-.7-.09-.92.11-.21.18-.31.41-.34.69-.06.69.39,1.51,1.01,1.82h0Z"/><path class="cls-11" d="M126.86,182.19c1.76.76,3.5,1.6,5.18,2.54,1.79,1,3.44,2.24,5.35,3,.64.26,1.55-.13,1.94-.66.42-.57.34-1.29-.13-1.8-1.37-1.5-3.38-2.48-5.17-3.39-1.84-.93-3.73-1.72-5.68-2.39-.73-.25-1.68.17-2.03.83-.33.63-.19,1.55.54,1.86h0Z"/><path class="cls-11" d="M181.31,187.39c1.09-.47,2.07-1.23,3.11-1.81.84-.47,1.68-.95,2.56-1.37.38-.18.77-.36,1.16-.53.06-.03.36-.15.04-.02.1-.04.2-.08.3-.12.27-.11.53-.22.8-.34-.31.13-.02,0,.04-.02.1-.04.2-.08.3-.12.21-.08.41-.16.62-.24.5-.2.98-.44,1.46-.66.67-.31.66-1.21.3-1.73-.44-.64-1.25-.94-2.01-.76-1.85.43-3.6,1.1-5.3,1.94-.86.42-1.71.88-2.53,1.4-1.07.68-2.27,1.37-3.15,2.3-.5.53-.25,1.34.24,1.77.59.53,1.33.63,2.04.31h0Z"/></g></g></svg>