<?xml version="1.0" encoding="UTF-8"?><svg xmlns="http://www.w3.org/2000/svg" viewBox="0 0 500 500"><defs><style>.cls-1{mix-blend-mode:multiply;}.cls-1,.cls-2{fill:#f2f2f2;}.cls-3{fill:#fff;}.cls-4{fill:none;}.cls-5{fill:#f9ecdf;}.cls-6{fill:#eed1de;}.cls-7{isolation:isolate;}.cls-8{fill:#9e9e9f;}.cls-9{fill:#4c4a4a;}.cls-10{fill:#d2d4ea;}.cls-11{fill:#f5e2d0;}.cls-12{fill:#eeceb9;}.cls-13{fill:#d98e7a;}</style></defs><g class="cls-7"><g id="_레이어_1"><rect class="cls-4" width="500" height="500"/><path class="cls-6" d="M141.73,226.92s-12.59,38.15,5.44,67.48c0,0,10.96,15,73.04,15.63,0,0,67.53,1.87,72.49-25.07,0,0,6.06-23.56,0-44.41,0,0,16.71-3.67,24.69-14.44,0,0,.89-52.89-60-60.64,0,0-7.49-3.85-39.41-2.08h-42.24s-18.77-2.44-33.44,12.16c-14.67,14.59-14.34,24.23-10.74,32,0,0-3.25,6.53,4.13,7.78,0,0-.01,6.77,6.04,11.59Z"/><path class="cls-8" d="M148.14,83.7s-.06,19.43,1.11,26.82c1.17,7.39-4.43,23.91-4.43,27.62s-.94,12.53,9.43,13.67c0,0,.65,6.08,11.05,3.79,0,0,4.03,7.63,17.66,1.76l80.35-6.54s6.38,2.94,11.88-1.93c0,0,5.63.61,10.04-3.07,0,0,11.82,3.29,10.26-10.16-1.56-13.46-6.78-19.82-6.67-35.11.12-15.29,10.21-68.85-45.27-74.04,0,0-33.37-15.35-69.3,7.98-26.16,16.98-26.1,49.22-26.1,49.22Z"/><path class="cls-2" d="M282.3,450.01c-13.54-5.14-29.66-5.11-43.83-5.54-22.76-.69-44.83-.48-67.41,2.63-7.37,1.02-20.12,3.99-22.87,13.29-7.04,23.83,85.11,19.5,96.14,18.97,12.71-.61,43.34.11,47.07-16.2,1.54-6.78-2.8-10.76-9.11-13.15Z"/><path class="cls-5" d="M159.81,94.18s-.04,9.69.36,14c0,0-11.32,2.08-7.95,11.83,3.1,8.96,9.86,5.74,9.86,5.74,0,0,3.51,31.74,42.1,40.51,0,0,3.59,10.54,15.19,8.39,11.6-2.14,12.31-8.22,12.31-8.22,0,0,34.85-2.75,45.57-40.09,0,0,9.29,2.29,9.89-8.94.49-9.2-6.82-8.42-6.82-8.42l-.12-10.54s.33-5.47-8.35-9.64-12.35-12.25-12.35-13.82c0,0-3.46,9.03-17.07,6.45-9.68-1.83-11.35-9.3-11.35-9.3,0,0-3.65,11.58-16.37,10.39-12.72-1.2-13.32-8.9-13.32-8.9,0,0-1.57,9.94-11.77,9.94-11.29,0-13.1-8.21-13.1-8.21,0,0-.75,6.95-8,10.93-7.25,3.98-8.69,7.92-8.69,7.92Z"/><path class="cls-5" d="M142.42,200.86s-14.71,15.29-.69,26.06c14.02,10.77,25.5-8.74,26.79-10.91s15.42-31.94,18.34-43.18c0,0,6.43-1.99,5.02-10.58,0,0,.03-1.88,3.98-5.85,3.96-3.97,7.42-7.53,2.3-9,0,0,2.9-4.4,1.21-6.64s-4.89-.94-4.89-.94c0,0,4.03-3.77,1.04-5.2-2.99-1.43-6.4,1.92-6.4,1.92,0,0,1.09-4.64-5.57-2.27s-13.22,13.12-13.22,13.12c0,0-2.13,9-.91,20.02,0,0-17.99,19.99-26.99,33.44Z"/><path class="cls-5" d="M295.87,267.26l29.26,23.19s-.34,4.81,4.93,11.69c5.28,6.87,4.96,15.09,9.07,15.71,4.11.62,2.72-13.91,2.72-13.91,0,0,3.91-.04,9.38,3.24s10.51,7.19,13.19,1.06c0,0,3.23,2.55,6.32-.31s-28.6-21.44-28.6-21.44l-26.52-48.8s-14.41,8.73-21.23,9.44c0,0,2.28,13.1,1.49,20.15Z"/><path class="cls-5" d="M163.58,365.64l8.39,29.53,7.66,41.12s6.86-1.09,11,4.19,7.71,5.73,15.71,3.04c0,0,11.1-27.53,3.41-50.36l-.11-23.36s-29.46-1.43-46.06-4.15Z"/><path class="cls-5" d="M277.47,365.64l-8.39,29.53-7.66,41.12s-6.86-1.09-11,4.19c-4.14,5.28-7.71,5.73-15.71,3.04,0,0-11.1-27.53-3.41-50.36l.11-23.36s29.46-1.43,46.06-4.15Z"/><path class="cls-12" d="M206.2,135.45c-.7,1.94-.63,4,.82,5.83,3.07,3.89,9.54,2.48,13.79,2.31,4.28-.17,10.52.37,10.96-5.4.28-3.68-2.16-8.05-5.63-9.45-4.08-1.65-8.96-1.94-13.07-.24-2.68,1.11-5.74,3.89-6.86,6.96Z"/><path class="cls-11" d="M193.86,130.25c.06-6.82-5.69-9.87-10.97-8.07-6.99,2.39-6.77,9.99-4.52,13.54,2.92,4.61,10.4,4.28,13.79.37,1.48-1.71,1.69-3.78,1.7-5.84Z"/><path class="cls-11" d="M260.43,131.08c.06-6.82-5.69-9.87-10.97-8.07-6.99,2.39-6.77,9.99-4.52,13.54,2.92,4.61,10.4,4.28,13.79.37,1.48-1.71,1.69-3.78,1.7-5.84Z"/><path class="cls-13" d="M160.51,68.92s16.46-31.44,61.59-28.8c45.72,2.68,55.65,30.39,55.65,30.39,0,0,1.27-38.36-58.38-38.53-58.13-.17-58.86,36.94-58.86,36.94Z"/><path class="cls-3" d="M192.35,162.93s.57,6.67-3.92,8.92l-2.21,4.48s3.9,6.19,15.29,6.07,16.46-7.48,16.46-7.48c0,0,7.26,8.97,19.92,5.02s12.09-14.45,10.66-18.17c0,0-9.51,4.76-17.36,5.22,0,0-3.06,6.53-13.21,6.76-10.16.23-13.19-8.02-13.19-8.02l-12.43-2.81Z"/><path class="cls-3" d="M130.97,209.42s-.5,4.61,5.38,5.58c0,0,0-9.7,5.38-12.93l1.08-3.01s-8.95.25-11.83,10.35Z"/><path class="cls-3" d="M292.31,240.55l2.02,7.25s15.86-5.18,20.32-10.28.95-9.8.95-9.8c0,0-9.15,10.48-23.3,12.83Z"/><path class="cls-3" d="M147.27,293.91s-14.54,25.21-12.77,64.94c0,0,34.01,12.66,87.19,10.93,59.05-1.92,83.36-8.9,83.36-8.9,0,0-.15-48.74-15.83-69.59,0,0-7.32,18.76-71.91,18.19-58.58-.53-70.03-15.57-70.03-15.57Z"/><path class="cls-3" d="M171.97,443.28s2.05-7.3,9.55-7.34c7.5-.05,10.49,6.13,10.49,6.13,0,0,4.04,6.95,14.92.93,0,0,3.34,3.31,3.24,9.73-.11,6.86-7.22,7.64-11.9,8.33-4.69.69-16.62,4.29-21.63,6.03-5.02,1.74-24.94,4.55-27.13-6.05,0,0-2.33-4.86,5.71-7.96,8.04-3.1,16.76-9.8,16.76-9.8Z"/><path class="cls-10" d="M209.76,452.36c.11-6.42-2.54-9.35-2.54-9.35-10.88,6.01-14.92-.93-14.92-.93,0,0-2.98-6.18-10.49-6.13-7.5.05-9.55,7.34-9.55,7.34,0,0-5.96,3.24-10.84,6.11,0,0,10.55,4.45,11.11,13.45l17.41-5.42s15.81-1.14,19.82-5.07Z"/><path class="cls-3" d="M268.36,443.28s-2.05-7.3-9.55-7.34c-7.5-.05-10.49,6.13-10.49,6.13,0,0-4.04,6.95-14.92.93,0,0-3.34,3.31-3.24,9.73.11,6.86,7.22,7.64,11.9,8.33s16.62,4.29,21.63,6.03,24.94,4.55,27.13-6.05c0,0,2.33-4.86-5.71-7.96-8.04-3.1-16.76-9.8-16.76-9.8Z"/><path class="cls-10" d="M231.15,452.36c-.11-6.42,2.54-9.35,2.54-9.35,10.88,6.01,14.92-.93,14.92-.93,0,0,2.98-6.18,10.49-6.13s9.55,7.34,9.55,7.34c0,0,5.96,3.24,10.84,6.11,0,0-10.55,4.45-11.11,13.45l-17.41-5.42s-15.81-1.14-19.82-5.07Z"/><path class="cls-3" d="M167.11,164.31c-17.72.36-39.3,21.59-37.63,39.69.2,2.19,6.06,2.17,6.17-.79.66-19,17.39-28.44,32.59-35.19,1.79-.79.66-3.74-1.12-3.71Z"/><path class="cls-3" d="M249.28,170.82c32.86,3.05,56.74,21.38,61.22,58.96.31,2.6,6.71-.89,6.89-3.67,2.02-31.16-32.32-64.35-67.48-61.34l-.63,6.04Z"/><path class="cls-1" d="M210.17,371.16c-.05-3.42-6.48-2.56-7.16-.23-2.47,8.43-1.16,16.68.17,25.36,2.42,15.86-2.01,30.76-3.78,46.35-.63,5.56,7.54,2.8,7.83.36,1.43-12.01,5.29-22.69,5.18-34.87-.04-4.43-1.75-10.86-2.13-15.28-.6-6.91,0-14.71-.1-21.69Z"/><path class="cls-1" d="M230.1,371.16c.05-3.42,6.48-2.56,7.16-.23,2.47,8.43,1.16,16.68-.17,25.36-2.42,15.86,2.01,30.76,3.78,46.35.63,5.56-7.54,2.8-7.83.36-1.43-12.01-5.29-22.69-5.18-34.87.04-4.43,1.75-10.86,2.13-15.28.6-6.91,0-14.71.1-21.69Z"/><path class="cls-1" d="M289.72,291.74c-7.95,10.58-7.02,4.96-9.89,10.56-2.9,5.65.87,15.12,2.07,21.35,2.39,12.41,2.39,25.19,1.44,37.75-.12,1.63,2.35,2.79,3.64,2.71,7.82-.49,17.44-2.19,17.43-3.18-.13-47.4-14.7-69.19-14.7-69.19Z"/><path class="cls-1" d="M293.78,249.04c-2.04-9.26-5.67-16.29-6.16-25.75-.49-9.3-2.33-16.21-7.2-24.27-1.2-1.99-3.98-.89-3,1.4,5.39,12.6.46,25.36,5.28,37.26,6.99,17.23,7.58,35.88-3.62,54.9-1.06,1.8,3.62,7.34,6.97,3.38,11-12.98,11.16-31.36,7.73-46.91Z"/><path class="cls-9" d="M222.41,190.85c.24-3.71-5.23-5.11-7.05-2.21-1.28,2.04,0,5.87,3.29,5.89,2.39.01,3.64-1.86,3.76-3.68Z"/><path class="cls-9" d="M222.41,209.54c.24-3.71-5.23-5.11-7.05-2.21-1.28,2.04,0,5.87,3.29,5.89,2.39.01,3.64-1.86,3.76-3.68Z"/><path class="cls-9" d="M287.01,97.47c.15,9.21,1.09,18.06,3.85,26.88,2.35,7.53,7.19,20.27-5.79,21.17-2.15.15-2.17,3.1.02,2.95,7.03-.48,11.75-3.53,12.09-11.03.18-3.89-.98-7.71-2.13-11.37-2.96-9.46-4.37-18.7-4.53-28.62-.03-1.97-3.55-1.96-3.52.02h0Z"/><path class="cls-9" d="M243.17,27.68c17.67,3.5,35.39,10.31,41.34,28.93,4.14,12.95,2.57,27.49,2.51,40.86,0,1.96,3.48,1.95,3.5-.02.11-15.94,2.31-33.97-5.56-48.62-8.12-15.12-25.17-20.63-41.05-23.49-1.66-.3-2.55,1.98-.74,2.34h0Z"/><path class="cls-9" d="M160,107.06c-14.6-.73-11.27,24.69,2.26,20.26,1.6-.52,1.61-3.54-.36-3.14-4.44.91-7.74-1.52-8.58-6.02-.85-4.58,1.73-7.83,6.35-8.04,1.59-.07,2.12-2.97.33-3.06h0Z"/><path class="cls-9" d="M280.58,110.43c4.94-.36,5.62,4.25,4.66,8.23-.99,4.05-3.54,7.62-8,6.21-1.83-.58-1.96,2.25-.56,2.9,12.81,5.96,17.48-22.93,3.03-20.21-1.6.3-.51,2.97.87,2.87h0Z"/><path class="cls-9" d="M146.62,94.67c.14,7.73.94,15.5.72,23.23-.22,7.72-4.03,14.59-4.31,22.1s3.65,13.05,11.24,13.86c1.82.19,3.35-2.77,1.15-3-15.49-1.62-5.68-19.95-4.97-29.39.68-8.99-.4-18.1-.58-27.08-.04-2.04-3.28-1.46-3.25.28h0Z"/><path class="cls-9" d="M244.27,25.44c-23.18-8.67-49.2-7.47-69.79,7.23-21.83,15.58-28.53,36.05-27.86,62.01.05,2.04,3.3,1.46,3.25-.28-.57-21.19,2.95-38.19,18.74-53.3,20.13-19.27,48.63-22.76,74.19-13.51,1.29.47,3-1.58,1.48-2.15h0Z"/><path class="cls-9" d="M189.81,97.34c1.49-.85,2.89-1.47,4.66-1.45,1.88.02,2.9.74,4.39,1.7s2.05-1.06,1.53-2.14c-1.9-3.97-9.93-4.04-12.19-.41-.63,1.01.27,3.06,1.6,2.3h0Z"/><path class="cls-9" d="M240.03,96.9c1.27-1.21,3.04-1.61,4.76-1.42s2.87,1.19,4.42,1.9c1.26.57,2.36-.85,1.77-1.99-1.14-2.2-4.39-3.11-6.69-3.2-2.6-.11-4.85.76-6.45,2.84-.92,1.2,1.14,2.89,2.2,1.87h0Z"/><path class="cls-9" d="M224.29,117.03c-.4-3.08-2.99-4.86-6.04-4.85-1.41,0-2.87.46-3.93,1.41s-2.11,2.73-1.43,4.07c.5,1,2.39,1.25,3.12.33.78-.98.76-3.08,2.42-3.19,1.25-.08,2.41,1.48,2.85,2.44s3.2,1.15,3.02-.22h0Z"/><path class="cls-9" d="M199.84,74.21c4.98,15.12,28.04,11.86,33-1.4l-3.63-.07c4.47,13.58,25.67,14.68,32.75,2.93,1.26-2.1-2.47-3.3-3.6-1.42-5.89,9.78-22.15,7.13-25.44-2.78-.62-1.87-3.26-1.07-3.79.36-3.96,10.66-21.84,12.67-25.68,1.14-.67-2.02-4.31-.92-3.6,1.24h0Z"/><path class="cls-9" d="M161.43,102.15c-.26-4.58-.15-8.88,3.81-12.06,2.37-1.9,5.4-2.55,7.75-4.58,3.2-2.76,4.71-6.04,5.16-10.13l-3.1.88c6.81,12.19,23.62,11.57,28.2-2.09.76-2.26-2.41-3.54-3.21-1.13-3.66,11.02-16.96,10.5-22.09,1.37-.98-1.74-2.91-.86-3.1.88-.93,8.5-9.99,8.67-14.2,14.48-2.6,3.59-2.7,8.05-2.45,12.3.14,2.35,3.36,2.48,3.23.09h0Z"/><path class="cls-9" d="M172.01,145.04c-8.29-12.15-9.83-28.43-10.57-42.68-.12-2.36-3.37-2.49-3.25-.09.83,15.45,2.53,32.23,11.5,45.33,1.33,1.94,3.47-.88,2.32-2.56h0Z"/><path class="cls-9" d="M278.95,99.11c-.73,23.01-5.4,46.72-27.05,59.09-16.93,9.68-41.07,9.38-59.08,3.26-2.04-.69-2.86,2.88-.94,3.53,20.45,6.91,47.51,6.44,65.75-6.33,19.48-13.64,23.51-37.24,24.04-59.48.05-2-2.65-2.08-2.72-.08h0Z"/><path class="cls-9" d="M258.85,74.93c.25,5.14,3.52,9.4,7.61,12.33,4.79,3.43,11.17,5.76,12.43,12.24.42,2.16,3.24,1.19,2.83-.82-.94-4.6-3.91-7.7-7.67-10.3-4.96-3.43-12.19-6.28-12.6-13.37-.11-1.9-2.71-2.01-2.61-.07h0Z"/><path class="cls-9" d="M198.16,111.9c.09-4.59-5.67-6.01-7.44-2.33-1.24,2.58.59,6.95,3.68,7.07,2.49.09,3.72-2.49,3.76-4.74Z"/><path class="cls-9" d="M248.07,112.6c.09-4.59-5.67-6.01-7.44-2.33-1.24,2.58.59,6.95,3.68,7.07,2.49.09,3.72-2.49,3.76-4.74Z"/><path class="cls-9" d="M241.04,35.99c18.95,4.97,35.03,14.79,35.55,36.39l3.45-.95c-6.33-15.91-21.85-24.86-37.7-29.25-1.82-.5-3.2,2.15-1.22,2.68,15.15,4.05,29.77,12.69,35.6,27.94.71,1.86,3.49.79,3.45-.95-.52-22.73-17.73-33.63-37.75-38.86-2.04-.53-3.61,2.42-1.37,3.01h0Z"/><path class="cls-9" d="M242.34,42.18c-32.33-8.01-68.63-4.44-83.6,29.37,1.12.24,2.23.49,3.35.73,2.68-39.18,49.82-43.25,78.94-36.28,2.07.49,3.65-2.51,1.39-3.04-31.05-7.26-80.98-2.56-83.8,38.98-.13,1.87,2.61,2.4,3.35.73,14.22-32.18,48.61-35.13,79.14-27.82,1.81.43,3.22-2.18,1.22-2.68h0Z"/><path class="cls-9" d="M152.87,147.1c-.77,3.76.14,7.94,3.72,9.93,2.7,1.5,6.87,1.75,9.43-.19,1.12-.85.63-2.72-.8-2.74-2.2-.03-4.29.49-6.42-.45-2.67-1.18-3-3.78-2.85-6.43.12-2.02-2.71-1.94-3.09-.12h0Z"/><path class="cls-9" d="M163.01,147.52c-1.5,4.71-.49,9.61,4.2,11.88.96.46,2.47.52,3.23-.37.71-.83.29-1.95-.66-2.39-3.82-1.78-2.9-5.38-3.39-8.86-.18-1.3-2.99-1.49-3.38-.26h0Z"/><path class="cls-9" d="M284.93,139.68c.22,2.47-.19,4.7-2.33,6.2-2.54,1.78-5.69,1.68-8.62,2.14-1.38.22-2,2.93-.51,3.41,7.44,2.4,17.54-4.52,13.94-12.81-.71-1.64-2.61-.37-2.49,1.06h0Z"/><path class="cls-9" d="M276.15,142.95c-.19,5.75-7.48,7.69-12.08,7.1-1.82-.23-2.39,1.64-.94,2.62,3.12,2.12,7.88.95,10.97-.63,3.52-1.8,5.83-4.97,5.11-8.99-.23-1.32-3.01-1.69-3.06-.1h0Z"/><path class="cls-9" d="M233.25,137.08c-.81-8.06-6.94-11.53-14.5-11.69-7.73-.16-15.05,4.7-14.27,13.25.64,7.02,9.26,7.34,14.67,7.15,6.52-.22,14.26.14,14.13-8.32-.03-1.73-3.26-2.96-3.25-.87.03,5.95-5.01,5.8-9.62,5.93-3.83.12-12.15,1.44-12.63-4.19-.49-5.65,4.81-9.26,9.74-9.69,6.06-.53,11.91,1.42,12.55,8.33.17,1.8,3.41,2.3,3.19.09h0Z"/><path class="cls-9" d="M314.21,238.08c8.89,16.15,17.76,32.31,26,48.8.84,1.69,4.31.89,3.45-1.01-7.65-16.91-17.28-32.99-26.81-48.9-.69-1.16-3.38-.23-2.64,1.11h0Z"/><path class="cls-9" d="M343.46,314.9c.4-2.51.2-5.09,0-7.61-.1-1.34-.24-2.68-.31-4.03-.03-.48-.08-2.22-.11-2.18.97-1.18-.52-3.78-1.96-2.62-1.59,1.29-1.1,3.92-.98,5.68.22,3.21.8,6.59.28,9.8-.33,2.03,2.7,3.25,3.07.95h0Z"/><path class="cls-9" d="M323.6,291.76c1.15,4.33,3.27,8.08,5.51,11.92,2.41,4.13,3.89,8.86,6.49,12.85,3.01,4.63,6.66,3.43,7.87-1.63.48-2.02-2.52-3.2-3.07-.95-.91,3.72-3.19-1.02-3.89-2.49-1.1-2.32-2.14-4.68-3.31-6.96-2.34-4.56-5.19-8.64-6.54-13.66-.61-2.27-3.65-1.33-3.05.93h0Z"/><path class="cls-9" d="M295.09,267.18c8.41,9.77,19.28,17.71,29.33,25.7,1.83,1.45,3-1.91,1.4-3.16-9.99-7.86-19.5-16.22-29.18-24.45-1.37-1.17-2.58.72-1.55,1.92h0Z"/><path class="cls-9" d="M341.15,287.65c7,4.24,14.06,7.8,20.67,12.7,1.01.75,8.41,6.17,7.05,7.38-.82.74-5.13-1.73-5.95-2.13-5.07-2.48-17.16-10.91-21.72-3.65-.73,1.16.32,3.03,1.73,2.18,5.46-3.27,12.13,1.36,17.1,3.88,2.63,1.33,8.05,4.93,11.08,2.63,9.44-7.17-24.43-24.15-28.7-25.7-1.44-.52-2.53,1.94-1.25,2.71h0Z"/><path class="cls-9" d="M341.71,305.18c3.68,1.4,6.89,2.15,10.23,4.35,1.86,1.22,3.85,2.49,5.89,3.38,4.7,2.05,7.63-.65,6.48-5.61-.31-1.35-1.76-1.2-1.9.15-.32,3.11-1.85,2.75-4.2,1.81-1.61-.65-3.17-1.53-4.64-2.44-3.71-2.27-7.26-4.54-11.83-4.18-1.14.09-.9,2.21-.03,2.54h0Z"/><path class="cls-9" d="M170.65,396c2.6,13.5,4.43,27.14,7.15,40.61.44,2.18,4.07,1.41,3.68-.66-2.57-13.5-4.54-27.12-7.17-40.61-.42-2.18-4.06-1.4-3.66.65h0Z"/><path class="cls-9" d="M162.01,367.24c2.83,9.69,5,19.8,8.74,29.19.8,2,4.26.49,3.45-1.51-3.8-9.35-6.1-19.41-9.04-29.06-.57-1.87-3.7-.49-3.15,1.38h0Z"/><path class="cls-9" d="M207.85,393.39c5.4,15.3-.14,33.81-2.62,49.24-.35,2.19,2.91,2.86,3.41.73,3.66-15.34,8.42-35.73,2.81-51.07-.79-2.17-4.38-1.1-3.6,1.1h0Z"/><path class="cls-9" d="M208.22,369.84c-.68,7.64-.39,15.41-.45,23.08-.02,2.35,3.77,2.15,3.75-.15-.06-7.65.23-15.42-.45-23.04-.16-1.81-2.7-1.61-2.85.11h0Z"/><path class="cls-9" d="M190.8,443.66c3.74,5.57,12.56,4.78,17.02.63.98-.91-.35-3.83-1.54-2.79-3.3,2.87-10.77,4.08-13.57-.16-1.34-2.03-2.97.75-1.92,2.32h0Z"/><path class="cls-9" d="M173.19,444.61c1.78-4.19,5.25-7.08,9.97-6.78,2.87.18,6.92,1.66,7.29,4.94.21,1.87,2.9,2.03,2.69-.06-.47-4.72-4.42-7.78-8.95-8.49-6.16-.97-11.1,2.67-13.43,8.19-.68,1.61,1.52,4.33,2.43,2.2h0Z"/><path class="cls-9" d="M182.31,463.08c-4.6,1.91-9.36,3.58-14.36,4.01-4.61.4-12.65-.16-16.08-3.77-5.1-5.37,5.46-9.22,8.7-10.85,4.23-2.13,8.27-4.5,12.12-7.26,1.43-1.02.13-4.55-1.45-3.41-3.85,2.77-7.87,5.14-12.11,7.29-2.84,1.44-5.9,2.65-8.3,4.8-2.91,2.61-4.42,6.3-2.37,9.92,2.62,4.63,9.43,6.33,14.28,6.82,7.31.73,14.27-1.57,20.91-4.38,1.48-.63.36-3.88-1.35-3.17h0Z"/><path class="cls-9" d="M206.39,444.19c1.74,1.97,2.33,5.11,2.17,7.66-.27,4.41-2.51,5.91-6.65,6.84-6.52,1.47-12.99,1.75-19.3,4.21-1.79.7-.84,4.16,1.05,3.37,5.69-2.38,11.5-2.84,17.46-4.03,3.3-.66,6.71-1.3,8.46-4.45,2.66-4.77,1.49-12.04-2.13-15.99-1.25-1.36-1.97,1.37-1.08,2.38h0Z"/><path class="cls-9" d="M207.33,156.8c6.99,3.39,16.59,3.08,23.64-.05,1.33-.59,1.58-3.11-.33-2.72-7.2,1.47-14.59,2.63-21.71.04-1.65-.6-3.43,1.84-1.59,2.73h0Z"/><path class="cls-9" d="M318.43,222.06c-2.21-16.93-7.14-28.34-19.69-39.96-13.85-12.83-30.34-18.73-49.13-19.25-2.17-.06-1.42,3.82.58,3.87,17.94.45,33.53,5.92,46.79,18.11,11.69,10.75,16.33,21.59,18.49,37.31.29,2.11,3.26,2.29,2.95-.08h0Z"/><path class="cls-9" d="M293.31,242.17c6.77-1.43,13.17-4.45,18.75-8.53,2.02-1.48,4.16-3.14,5.67-5.16,1.59-2.13,1-3.76.7-6.41-.24-2.13-3.23-2.29-2.95.08.32,2.71.15,3.7-1.85,5.63-1.76,1.71-3.78,3.2-5.84,4.53-4.83,3.12-10.09,5.41-15.71,6.64-1.73.38-.53,3.6,1.23,3.23h0Z"/><path class="cls-9" d="M314.97,228.25c.06,5.27,0,7.56-4.84,10.57-4.59,2.86-9.5,5.34-14.78,6.6-2.31.56-1.24,3.95,1.03,3.38,6.39-1.62,12.97-4.89,18.14-9,3.95-3.14,4.49-7.23,3.14-11.94-.41-1.42-2.71-1.11-2.69.38h0Z"/><path class="cls-9" d="M281.54,199.41c4.41,9.92,6.29,20.65,6.08,31.46-.03,1.3,2.26,3.07,2.79,1.2,2.98-10.51-1.54-24.54-6.73-33.68-.77-1.35-2.82-.51-2.14,1.01h0Z"/><path class="cls-9" d="M134.27,361.4c53.34,14.58,117.73,12.78,171.46,1.08,2.3-.5.68-3.6-1.37-3.2-53.79,10.43-116.43,13.16-169.64-1.16-2.28-.61-2.6,2.69-.45,3.28h0Z"/><path class="cls-9" d="M146,293.86c-11.3,19.42-13.04,43.58-13.31,65.56-.03,2.11,3.59,2.9,3.6.69.13-22.29,2.37-44.8,12.05-65.16.66-1.39-1.59-2.38-2.35-1.09h0Z"/><path class="cls-9" d="M190.88,236.47c16.56,6.25,38.48,6.34,54.69-.96,1.31-.59.98-3.75-.66-3.23-16.54,5.3-36.8,6.59-53.46.9-1.61-.55-1.96,2.77-.57,3.29h0Z"/><path class="cls-9" d="M288.84,291.64c10.8,20.49,13.94,46.42,14.71,69.28.05,1.44,2.89,1.89,3,.27,1.55-22.55-3.87-50.5-15.23-70.24-.73-1.27-3.31-.9-2.48.68h0Z"/><path class="cls-9" d="M181.58,397.36c3.87,1.06,8.25.97,11.87-.89,1.25-.64.43-2.91-.89-2.83-3.65.24-6.68,1.33-10.38.38-2.1-.54-2.52,2.81-.6,3.34h0Z"/><path class="cls-9" d="M294.11,287.03c6.01-18.44,5.49-41-4.63-57.9-1.11-1.86-4.77-.88-3.46,1.31,9.66,16.11,10.06,37.72,4.34,55.29-.68,2.08,3.08,3.39,3.76,1.31h0Z"/><path class="cls-9" d="M264.24,306.74c12.59-3.04,25.07-6.32,30-19.66.81-2.19-3.21-3.6-4.02-1.4-4.41,11.94-15.81,14.75-26.99,17.47-2.66.64-1.33,4.16,1.01,3.59h0Z"/><path class="cls-9" d="M179.61,307.98c28.52,4.65,56.28,4.98,84.6-1.35,2.51-.56,1.26-3.87-.95-3.37-27.85,6.25-55.49,5.96-83.59,1.4-2.52-.41-2.35,2.95-.06,3.33h0Z"/><path class="cls-9" d="M139.61,227.72c-5.17,18-6.43,44.23,2.46,61.39,7.29,14.06,23.44,16.38,37.53,18.84,2.46.43,2.31-2.89.05-3.26-17.61-2.93-32.84-6.42-37.6-26.16-3.81-15.77-3.98-34.17.31-49.84.42-1.54-2.32-2.5-2.76-.96h0Z"/><path class="cls-9" d="M202.52,165.21c1.35,13.95,25.91,14.93,31.14,3.31.77-1.72-2.32-3.87-3.41-2.21-5.63,8.57-21,9.48-24.85-.89-.4-1.07-3.05-1.99-2.88-.21h0Z"/><path class="cls-9" d="M184.66,177.34c8.05,9.95,27.96,10.22,34.88-1.46,1.08-1.82-2.48-1.92-3.35-.98-7.77,8.38-20.23,8.81-28.62,1-.86-.8-3.9.22-2.91,1.45h0Z"/><path class="cls-9" d="M216.93,176.69c6,7.02,17.07,9.01,25.21,4.55,6.84-3.75,11.58-11.37,7.96-18.88-.9-1.86-3.04-.06-2.55,1.55,2.36,7.77-4.87,14.27-12.08,15.43-6.43,1.04-12.11-1.38-17.19-5.14-1.44-1.06-2.15,1.54-1.34,2.48h0Z"/><path class="cls-9" d="M191.18,141.24c-2.19,2-4.29,4.09-6.51,6.07-2.01,1.8.14,4.82,2.27,2.84,2.17-2.03,4.24-4.16,6.39-6.22,1.44-1.38-.56-4.14-2.15-2.69h0Z"/><path class="cls-9" d="M181.53,146.16c2.29-2.12,4.47-4.36,6.69-6.55,1.36-1.35,2.78-3.08,4.75-3.46,4.33-.83-.83,4.2-1.8,5.06-1.95,1.73.14,4.66,2.19,2.74,2.17-2.04,5.5-4.83,4.98-8.22-.42-2.73-3.36-3.48-5.72-2.96-2.93.65-5.08,3.06-7.16,5.05-2.11,2.02-4.23,4.04-6.34,6.06-1.63,1.57.72,3.84,2.41,2.28h0Z"/><path class="cls-9" d="M197.48,143.83c-2.25,3.27-5.55,5.66-8.45,8.31-1.7,1.56.42,3.24,2.09,2.12,3.47-2.34,6.85-5.38,9.16-8.89,1.28-1.95-1.63-3.24-2.81-1.54h0Z"/><path class="cls-9" d="M193.88,142.9c.98-.51,1.94-1.57,3.13-1.52,1.65.07,1.06,1.49.45,2.44-1.25,1.99,1.77,3.33,2.82,1.55,1.49-2.52,1.99-5.32-1.19-6.62-2.64-1.08-6.05-.16-7.22,2.62-.53,1.27.96,2.07,2.01,1.53h0Z"/><path class="cls-9" d="M199.91,154.51c1.34-1.38,3.66-3.62,2.75-5.77-1.01-2.39-4.25-2.54-6.38-2.12-2.27.45-1.64,2.89.6,2.45,1.04-.21,2.61.27,2.21,1.59-.32,1.07-1.41,1.99-2.16,2.77-1.56,1.62,1.87,2.23,2.97,1.09h0Z"/><path class="cls-9" d="M187.79,173.87c2.56-1.32,5.09-4.21,5.78-7.04.74-3.03-.55-5.01,1.6-7.7,1.36-1.71,3.2-3.08,4.74-4.62s-1.85-2.21-2.97-1.09c-2.15,2.15-5.32,4.26-6.48,7.18-.77,1.94.02,3.9-.36,5.87-.36,1.86-2.12,4.41-3.84,5.3-2.15,1.11-.27,3.02,1.53,2.09h0Z"/><path class="cls-9" d="M178.39,200.38c3.96-8.92,6.66-18.29,10.33-27.33.76-1.88-2.8-1.9-3.39-.46-3.66,9.04-6.35,18.41-10.31,27.33-.81,1.84,2.74,1.87,3.37.45h0Z"/><path class="cls-9" d="M168.16,219.54c3.83-6.18,7.31-12.5,10.23-19.16.81-1.84-2.75-1.87-3.37-.45-2.91,6.67-6.38,12.99-10.21,19.17-1.02,1.65,2.55,1.74,3.35.45h0Z"/><path class="cls-9" d="M140.6,201.28c-7.72,6.12-8.43,20.46-.23,26.61,10.06,7.54,22.07,1.11,27.8-8.35,1.01-1.66-2.56-1.76-3.35-.45-4.9,8.11-16.45,14.14-23.74,4.88-4.53-5.76-4.1-16.43,1.77-21.1,1.83-1.45-.91-2.65-2.25-1.59h0Z"/><path class="cls-9" d="M167.49,168.55c-9.49,10.91-20.13,20.68-27.41,33.31-.96,1.66,2.54,1.74,3.28.44,7.13-12.4,17.64-22,26.94-32.71,1.41-1.62-1.82-2.19-2.82-1.03h0Z"/><path class="cls-9" d="M191.33,135.19c-3.63-8.67-14.48,2.69-17.78,5.91-8.63,8.43-4.49,16.99-6.03,27.66-.25,1.71,3.23,1.31,3.45-.2.75-5.22-.45-10.52-.06-15.77.27-3.64,1.46-6.35,3.91-9.1,1.17-1.32,11.4-11.82,13.14-7.67.62,1.48,3.96.57,3.37-.83h0Z"/><path class="cls-9" d="M133.36,209.55c.96-4.49,5.02-9.24,9.92-9.22,1.82,0,2.66-2.4.51-2.5-6.71-.32-12.67,5.05-14.04,11.47-.42,1.95,3.23,2.03,3.61.25h0Z"/><path class="cls-9" d="M169.15,162.05c-13.71.95-24.68,7.47-33.25,18.09-6.06,7.5-12.25,20.07-6.13,29.24,1,1.49,4.49.4,3.4-1.24-5.95-8.95.99-21.08,7.01-28.09,7.78-9.06,17.35-14.56,29.3-15.65,1.93-.18,1.56-2.48-.33-2.35h0Z"/><path class="cls-9" d="M130.88,207.46c-2.26.69-1.8,3.83-1.05,5.48.89,1.96,2.82,3.87,5.06,3.98,1.61.08,2.82-1.7,1.37-2.87-1.05-.84-1.99-1.62-2.6-2.85-.54-1.09-.17-2.38-.93-3.32-.45-.56-1.22-.61-1.85-.41h0Z"/><path class="cls-9" d="M168.14,448.72c1.95.92,3.59,1.38,5.04,3.05,1.03,1.18,2.98.29,2.7-1.3-.57-3.18-4.34-4.13-7.04-4.69-1.69-.35-2.08,2.28-.69,2.94h0Z"/><path class="cls-9" d="M266,395.57c-2.63,13.49-4.59,27.11-7.17,40.61-.44,2.28,3.23,2.26,3.65.22,2.72-13.47,4.55-27.11,7.15-40.61.44-2.27-3.23-2.26-3.63-.22h0Z"/><path class="cls-9" d="M275.04,366.45c-2.9,9.52-5.16,19.46-8.91,28.69-.9,2.22,2.58,3.05,3.37,1.06,3.79-9.51,6-19.74,8.87-29.56.59-2.02-2.78-1.99-3.33-.2h0Z"/><path class="cls-9" d="M228.82,392.46c-5.62,15.4-.85,35.63,2.84,51.06.52,2.17,3.72,1.05,3.38-1.03-2.47-15.37-7.98-33.99-2.59-49.25.8-2.26-2.86-2.91-3.64-.78h0Z"/><path class="cls-9" d="M229.22,369.84c-.68,7.64-.39,15.41-.45,23.08-.02,2.35,3.77,2.15,3.75-.15-.06-7.65.23-15.42-.45-23.04-.16-1.81-2.7-1.61-2.85.11h0Z"/><path class="cls-9" d="M247.53,441.06c-2.78,4.22-10.12,3.62-13.57.61-1.57-1.37-2.34,1.61-1.21,2.66,4.26,3.95,13.15,4.99,16.77-.4.94-1.4-.86-4.6-2-2.87h0Z"/><path class="cls-9" d="M269.51,442.76c-2.24-5.3-6.76-9.12-12.75-8.65-4.29.33-9.09,3.05-9.55,7.72-.18,1.79,2.38,3.75,2.65,1.35.37-3.26,4.07-4.92,6.97-5.28,4.76-.59,8.47,2.06,10.3,6.37.96,2.27,3.2.43,2.38-1.51h0Z"/><path class="cls-9" d="M256.98,466.28c6.64,2.81,13.63,5.09,20.94,4.35,4.73-.48,11.84-2.17,14.17-6.93,1.54-3.14.36-6.43-1.92-8.87-2.09-2.24-4.94-3.52-7.63-4.88-4.7-2.38-9.25-4.85-13.54-7.94-1.9-1.36-2.82,1.96-1.36,3,3.42,2.45,6.96,4.64,10.7,6.59s15.5,5.83,9.81,11.62c-3.44,3.5-10.67,4.17-15.24,3.92-5.34-.29-10.37-2.05-15.26-4.09-1.85-.77-2.13,2.59-.65,3.22h0Z"/><path class="cls-9" d="M232.56,441.85c-3.61,3.93-4.42,11.4-1.65,16.01,1.73,2.87,4.77,3.59,7.87,4.26,6.21,1.35,12.24,1.71,18.2,4.19,1.89.79,2.2-2.7.67-3.3-6.17-2.41-12.47-2.82-18.88-4.16-3.93-.83-6.76-2.2-7.03-6.62-.18-2.8.56-5.95,2.43-8.08.9-1.02-.44-3.56-1.6-2.3h0Z"/><path class="cls-9" d="M257.89,394.03c-3.66.94-6.73-.15-10.35-.39-1.51-.1-1.67,2.27-.51,2.85,3.65,1.83,8.02,1.92,11.9.85,1.96-.54.92-3.82-1.04-3.32h0Z"/><path class="cls-9" d="M271.39,445.8c-2.77.57-6.41,1.59-6.99,4.79-.3,1.68,1.79,2.21,2.74,1.11,1.43-1.66,3.13-2.11,5.06-3.02,1.43-.67.87-3.23-.81-2.89h0Z"/><path class="cls-9" d="M189.5,458.88c6.12-1.52,17.8.11,21.09-6.77.58-1.21-.89-2.73-1.93-1.56-4.74,5.37-13.64,3.73-19.98,5.41-1.69.45-.95,3.36.82,2.92h0Z"/><path class="cls-9" d="M149.45,458.04c-.34,4.59,8.27,5.93,11.38,6.51,10.14,1.86,19.2-2.77,28.68-5.66,1.68-.51.93-3.5-.83-2.93-7.34,2.34-14.78,6.27-22.64,6.27-3.99,0-12.29-1.11-14.59-4.87-.68-1.11-1.92-.4-2,.68h0Z"/><path class="cls-9" d="M160.56,451.85c4.87-1,10.13,6.06,10.61,10.29.19,1.72,2.67,1.44,2.73-.2.19-6.03-7.68-14.36-13.92-12.28-1.49.5-.97,2.52.59,2.2h0Z"/><path class="cls-9" d="M251.91,455.94c-6.37-1.69-15.18-.03-19.95-5.44-1.08-1.22-2.37.54-1.82,1.68,3.27,6.81,15.07,5.22,21.14,6.72,1.78.44,2.31-2.52.63-2.96h0Z"/><path class="cls-9" d="M289.2,457.42c-2.32,3.79-10.72,4.82-14.64,4.8-7.87-.03-15.3-3.95-22.64-6.29-1.75-.56-2.31,2.47-.63,2.98,9.49,2.89,18.52,7.47,28.67,5.61,3.25-.6,11.64-1.9,11.29-6.55-.09-1.18-1.41-1.57-2.04-.55h0Z"/><path class="cls-9" d="M281.03,449.7c-3.48-1.17-6.8.72-9.3,3.1-2.39,2.28-5.06,5.85-4.94,9.34.06,1.79,2.55,1.36,2.73-.2.49-4.38,5.65-11.04,10.57-10.04,1.19.24,2.29-1.74.94-2.2h0Z"/><path class="cls-9" d="M171.66,445.29c2.86.29,5.08.73,7.34,2.59,1.17.97,1.87-1.07,1.27-1.92-2.15-3.03-5.66-3.97-9.22-3.39-1.33.21-.46,2.61.6,2.72h0Z"/><path class="cls-9" d="M269.23,443.25c-2.74-1.22-6.85.57-8.37,3.01-.73,1.18,1.5,1.93,2.3,1.43,1.89-1.17,3.41-2.39,5.73-2.31,1.55.05,1.56-1.59.34-2.13h0Z"/></g></g></svg>