<?xml version="1.0" encoding="UTF-8"?><svg xmlns="http://www.w3.org/2000/svg" viewBox="0 0 500 500"><defs><style>.cls-1{mix-blend-mode:multiply;}.cls-1,.cls-2{fill:#f2f2f2;}.cls-3{fill:#fff;}.cls-4{fill:none;}.cls-5{fill:#fcf09a;}.cls-6{fill:#f9ecdf;}.cls-7{isolation:isolate;}.cls-8{fill:#9e9e9f;}.cls-9{fill:#4c4a4a;}.cls-10{fill:#f5e2d0;}.cls-11{fill:#dcdcdc;}.cls-12{fill:#eeceb9;}.cls-13{fill:#d98e7a;}</style></defs><g class="cls-7"><g id="_레이어_1"><rect class="cls-4" width="500" height="500"/><path class="cls-3" d="M183.44,205.36s5.71,13.19,9.69,18.68c3.98,5.5,18.36,26.05,18.36,26.05l16.34-5.69s2.89,35.6,9.59,54.22c0,0,22.75,6.37,58.14,2,35.39-4.37,58.19-18.61,58.19-18.61,0,0-12.59-45.58-13.43-53.49l18.97-1.96s8.95-30.73,9.07-51.04c0,0-42.91-7.67-59.12-6.59-16.21,1.07-66.15,3.29-66.15,3.29,0,0-21.58,2.88-59.65,33.12Z"/><path class="cls-2" d="M409.48,439.24c-22.78-6.99-49.91-6.94-73.73-7.52-38.29-.93-75.43-.65-113.4,3.58-12.39,1.38-33.86,5.42-38.48,18.06-11.85,32.38,143.19,26.5,161.75,25.78,21.38-.83,72.92.15,79.19-22.02,2.6-9.21-4.71-14.62-15.33-17.88Z"/><path class="cls-6" d="M210.13,104.15s-12.47,1.96-10.62,12.49c1.84,10.53,10.62,9.77,10.62,9.77,0,0,1.07,38,44.26,47.52,0,0-.84,11.86,14.43,13.19s18.25-10.85,18.25-10.85c0,0,38.28-5.78,48.62-39.72,0,0,11.03,4.37,14.2-3.52,3.17-7.89-3.89-12.55-10.21-12.71l1.64-13.79s-25.7-11.07-36.74-34.56c0,0-21.6,12.63-59.31,10.97l9.98-14.41s-24.27,4.83-35.37,21.27c0,0-3.52,8.74-9.74,14.35Z"/><path class="cls-6" d="M103.27,206.36c-4.18-7.73,5.76-7.81,5.76-7.81-1.58-2.94,1.92-5.4,1.92-5.4,3.84-2.54,8.27,4.54,8.27,4.54,0,0,7.84-3.12,14.41,1.37,6.57,4.49,5.77,17.23,5.77,17.23l33.81,9.84c3.32-2.09,13.96-10.78,13.96-10.78,1.66,4.51,19.56,27.65,19.56,27.65,0,0-18.54,12.61-35.4,10.47-16.86-2.14-44.53-19.11-44.53-19.11-6.47,2.95-13.92.1-19.16-2.85-3.22-1.81-6.66-4.17-8.35-7.58-.93-1.88-1.36-5.77,2.29-7.1,0,0-3.99-3.96-1.66-7.68,1.55-2.47,3.34-2.79,3.34-2.79Z"/><path class="cls-6" d="M221.27,400.48s11.6,15.37,31.48,17.02l12.85-21.02,19.54-19.09-39.77-22.31s-14.55,24.41-24.1,45.39Z"/><path class="cls-6" d="M309.72,372.34l56.82-8.25s5.88-9.39-1.2-28.63c0,0-17.94-2.8-26.39,1.02,0,0-15.63,24.81-29.23,35.86Z"/><path class="cls-6" d="M361.55,218.87l14.59.59s-2.46,6.66-2,12.32-5.79,18.04-5.79,18.04c0,0-15.59-4.93-22.24,2.78,0,0-3.25,3.04-1.29,6.7,0,0-5.16,4.75-.46,10.08,0,0-.83,6.21,6.29,8.24,0,0-.71,5.05,7.13,5.05,0,0,3.03,4.94,9.86,2.54,6.82-2.41,12.42-16.99,12.42-16.99,0,0,31.01-34.19,25.41-63.7,0,0-2.39-22.63-37.36-24.49,0,0-1.68,27.87-6.57,38.85Z"/><path class="cls-10" d="M243.09,138.12c.06-7.45-6.21-10.78-11.97-8.81-7.63,2.61-7.39,10.91-4.94,14.78,3.19,5.03,11.36,4.67,15.05.4,1.61-1.87,1.84-4.13,1.86-6.37Z"/><path class="cls-10" d="M308.22,144.81c.06-7.45-6.21-10.78-11.97-8.81-7.63,2.61-7.39,10.91-4.94,14.78,3.19,5.03,11.36,4.67,15.05.4,1.61-1.87,1.84-4.13,1.86-6.37Z"/><path class="cls-12" d="M252.39,138.42s-3.53,15.29,12.47,16.86c14.47,1.42,16.19-14.58,16.19-14.58,0,0-.94-2.82-13.91-3.75-12.97-.93-14.75,1.47-14.75,1.47Z"/><path class="cls-8" d="M203.58,106.92l4.6-1.28s9.18-6.58,10.88-15.82c0,0,14.12-17.41,37.05-20.36,0,0-7.39,9.72-11.38,12.46,0,0,34.14,3.89,59.81-9.3,0,0,11.97,23.3,35.63,35.1l-.79,12.69,5.17.84s9.48-20.08,8.49-40.26c0,0,6.47,15.55,22.57,6.19,0,0,9.08.49,12.53-7.23,0,0-6.77,1.18-9.86-5.16-3.11-6.4,5.62-32.14-22.82-25.37,0,0-4.8,1.77-9.59,5.5,0,0-9.01-19.69-35.77-24.26,0,0-38.94-20.37-76.23,1.17-41.41,23.92-30.29,75.09-30.29,75.09Z"/><path class="cls-13" d="M287.48,176.2c-4,7.12-7.28,10.48-15.69,10.63-8.02.14-15.81-1.2-17.12-10.67-.42-3.02-6.69-3.87-6.83-.69-.51,11.75,12.05,18,20.97,18.69,12.59.96,22.79-2.51,27.2-15.63,1.14-3.41-6.98-5.12-8.54-2.33Z"/><path class="cls-13" d="M240.23,299.29s4.45,25.14,10.27,35.1l-8.75,16.28,55.1,34.88s35.41-34.98,47.99-58.56c12.58-23.58,6.17-43.23,6.17-43.23,0,0-53.33,27.09-110.78,15.53Z"/><path class="cls-3" d="M221.9,400.2l-16.73,33.69s1.02,2.83.75,5.11l-2.04.57s-.12,4.57,6.19,5.53c6.31.96,15.34,2.47,15.34,2.47,0,0,8.58-10.24,13.13-14.45s14.2-15.62,14.2-15.62c0,0-20.18-1.25-30.85-17.3Z"/><path class="cls-3" d="M365.34,335.47s7.41,18.13,0,28.79l24.33-2.93,3.3-2.41s2.94,2.97,4.26,5.34c0,0,3.83-3.49,3.43-13.22s-5.13-12.39-5.13-12.39c0,0-6.72.17-30.19-3.19Z"/><path class="cls-13" d="M217.11,243c-4.31-7.17-9.26-14-13.79-21.03-3.93-6.11-7.75-13.33-12.78-18.54-1.54-1.6-5.93-1.55-5.79,1.46.31,6.72,4.86,13.17,8.47,18.7,5.14,7.86,10.45,15.91,16.22,23.31,2.78,3.57,10.45.73,7.67-3.89Z"/><path class="cls-13" d="M366.74,176.52c-.5-2.58-5.32-2.65-6.21-.31-2.96,7.76-3.44,16.23-4.95,24.38-1.49,7.99-3.87,15.81-5.1,23.84-.8,5.2,9.07,5.18,9.65.51,1.91-15.62,9.7-32.58,6.62-48.42Z"/><path class="cls-3" d="M154.68,426.15s-6.53,4.76-1.41,11.45c5.12,6.7,20.47,11.89,24.45,14.91,3.98,3.02,22.47,14.6,29.1,15.35,7.23.82,10.45-2.72,14.5-8.85,4.04-6.13,3.72-11.65,3.72-11.65,0,0-19.91-.6-21.96-7.81l2.84-.57s.02-7.58-7.14-11.5c0,0-7.86,2.72-17.52.63-9.67-2.09-20.05-6.48-26.58-1.98Z"/><path class="cls-3" d="M405.69,410.28s9.7,2.66,13.18-5.02c3.48-7.68-.17-22.37-.62-31.66-.24-5,.98-24.17-1.49-30.36-2.7-6.76-5.87-7.78-13.18-8.44-7.31-.66-8.89,1.69-8.89,1.69,0,0,12.07,11.53,2.97,28.3l-4.42-6.23s-6.2,1.97-7.62,8.49c0,0,4.88,6.38,7.62,15.88,2.74,9.5,1.6,21.28,12.45,27.35Z"/><path class="cls-11" d="M169.51,426.22s5.85,5.99,2.1,14.72c0,0,9.65,3.87,13.82,7.28,4.17,3.41,16.43,14.73,30.14,15.49,0,0,7.11-6.02,8.32-16.76,0,0-6.93-.75-12.81-1.76-5.88-1.01-8-5.62-8-5.62l2.88-1.02s-.9-8.78-7.17-11.05c0,0-7.48,2.21-13.86,1.37-5.02-.66-15.41-2.65-15.41-2.65Z"/><path class="cls-11" d="M385.85,366.48s5.7,8.63,7.28,15.94,3.49,14.5,3.49,14.5c0,0,4.2-9.76,16.22-8.91,0,0-1.81-11.56-.49-19.05,1.33-7.49,1.55-27.2-6.66-33.83,0,0-7.8-1.65-12.56,2.45l2.94,1.09s9.21,10.4,1.69,25.61l-4.8-5.34s-4.43,2.13-7.11,7.55Z"/><path class="cls-1" d="M224.17,238.03c-4.94.98-9.74,3.59-14.06,6.08-2.47,1.42.04,7.26,3.09,5.96,4.47-1.91,9.23-3.41,13.54-5.65,2.26-1.17.39-6.98-2.57-6.39Z"/><path class="cls-1" d="M339.43,228.54c-.94-1.92-5.07.84-5.03,2.25.21,8.79,2,18.17,4.57,26.54.88,2.88,6.88-1.1,6.39-3.61-1.68-8.62-2.04-17.27-5.92-25.18Z"/><path class="cls-1" d="M359.33,219.45c-5.18-1.29-11-.08-16.27.39-4.77.42-9.6.58-14.29,1.78-2.24.57-.78,6.04,1.1,6.2,5.38.48,10.88-.21,16.27-.52,4.72-.27,9.78.11,14.29-1.73,2.29-.93.68-5.69-1.09-6.12Z"/><path class="cls-1" d="M378.15,214.13c-1.86-1.15-4.06-.96-6.19-.97-2.27-.01-4.58-.02-6.76.66-1.55.48-2.58,4.22-.48,4.64,2.05.4,4.16.23,6.24.25,2.11.03,4.29.48,6.3-.27,1.37-.52,2.42-3.36.9-4.3Z"/><path class="cls-1" d="M350.1,278.49c-1.17-3.17-7.26-3.14-7.02.65,1.26,20.08-1.26,33.79-12.71,51.22-10.63,16.18-25.49,34.94-41.32,46.08-4.62,3.25,5.99,10.62,9.67,7.21,13.79-12.79,27.58-27.96,37.91-42.66,14.09-20.06,21.67-40.33,13.47-62.51Z"/><path class="cls-1" d="M280.99,376.23c-11.93-6.28-21.99-16-34.16-21.7-1.78-.83-5.16,1.25-3.24,3.17,5.7,5.7,14.06,8.13,17.12,15.7,4.9,12.13,0,16.59-4.65,23.53-5.41,8.08-10.13,16.51-16.32,24.05-6.3,7.66-13.55,14.52-21.41,20.57-3.95,3.05,3.29,7.58,7.24,4.53,12.55-9.68,19.8-21.02,28.89-33.84,4.61-6.5,9.16-13.04,14.14-19.26,2.68-3.35,5.3-6.76,8.61-9.52,1.65-1.38,7.76-5.14,3.77-7.25Z"/><path class="cls-1" d="M395.16,338.62c-18.55,1.29-37.28-7.93-55.57-2.47-2.91.87-1.4,4.7,1.27,4.39,18.76-2.16,36.53,6.13,55.2,3.81,3.31-.41,2.25-5.96-.9-5.74Z"/><path class="cls-1" d="M200.88,236.66c-13.55,7.3-24.1,10.07-39.25,5.15-6.48-2.11-13.02-4.1-19.29-6.82-3.22-1.4-6.38-2.97-9.34-4.87-2.15-1.38-4.77-4.66-7.52-4.27-3.71.53-7.44,1.11-11.06-.19-3.31-1.18-8.79-4.06-11.53-6.2-3.94-3.08-6.17,5.03-2.25,8.09,3.63,2.83,9.69,6.02,14.15,7.3,3.78,1.08,7.66.85,11.51.36,12.88,8.37,26.12,12.76,41.01,16.4,13.65,3.34,24.97-1.54,36.89-7.96,4.37-2.35,1.08-9.38-3.33-7Z"/><path class="cls-1" d="M403.98,199.52c-1.09-4.85-6.99-5.28-5.9-.4,4.19,18.66-3.99,38.32-15.08,52.43-5.21,6.63-14.16,23.32-21.72,25.4-4.77,1.31-3.47,8.96,1.35,7.63,14.02-3.86,19.91-22.57,28.29-33.33,12-15.42,17.59-31.6,13.06-51.74Z"/><path class="cls-1" d="M348.82,63.85c-5.63-16.56-17.74-24.43-32.97-31.93-4.48-2.21-7.12,5.09-2.69,7.27,29.23,14.4,35.13,46.63,25.71,76.68-1.49,4.75,5.78,7.46,7.27,2.69,5.24-16.7,8.41-37.89,2.69-54.71Z"/><path class="cls-1" d="M383.61,80.21c-2.15,2.02-4.84,2.57-7.67,1.91-2.74-.64-4.97-2.95-7.91-1.72-.05.02-.07.06-.17.09-4.13,1.83-7.24-1.41-8.51-5.44-.63-2.01-2.23-3.52-4.49-3.14-1.86.31-3.77,2.49-3.14,4.49,2.78,8.83,10.97,16.42,20.16,12.35,1.09-.49,1.37-2.23,2.59-2.46.97-.18,2.34.16,3.54.15,3.06-.03,5.88-1.19,8.1-3.28,1.81-1.7-.68-4.67-2.51-2.96Z"/><path class="cls-3" d="M260.53,319.41c-6.73,7.83-11.55,17.58-16.03,26.82-1.58,3.27,2.9,6.97,4.54,3.37,4.3-9.41,9.88-18.06,14.47-27.29.92-1.84-1.17-5.01-2.98-2.9Z"/><path class="cls-9" d="M375.49,65.3c-.36,5-.26,11.01,4.07,14.38,3.26,2.54,7.91,3.32,10.58-.31-1.12-.39-2.25-.78-3.37-1.17-1.44,5.57-8.48,9.09-13.68,5.96-1.37-.83-3.29,1.08-1.75,2.12,6.87,4.68,16.92.57,18.95-7.29.48-1.86-2.43-2.46-3.37-1.17-2.36,3.23-6.39-1.33-7.15-3.24-1.04-2.61-.99-5.74-.8-8.49.13-1.94-3.34-2.71-3.47-.78h0Z"/><path class="cls-9" d="M346.32,57.17c5.4-4.23,12.13-7.79,19.21-6.37,7.39,1.48,10.29,7.75,9.94,14.77-.12,2.48,3.39,2.88,3.51.22.34-7.4-2.43-14.79-9.64-17.89-8.66-3.73-17.97.46-24.69,6.07-1.46,1.22,0,4.49,1.66,3.19h0Z"/><path class="cls-9" d="M376.25,85.84c-8.86,4-18.1,3.11-21.62-7.13-.64-1.88-4.08-.87-3.42,1.15,3.82,11.68,16.45,14.32,26.36,8.13,1.4-.87.06-2.78-1.33-2.16h0Z"/><path class="cls-9" d="M310.22,31.66c43.05,13.79,47.69,50.96,32.88,88.39-.81,2.06,3.07,2.16,3.69.6,15.54-39,10.51-78.07-34.58-91.01-1.29-.37-3.92,1.4-1.99,2.02h0Z"/><path class="cls-9" d="M209.44,104.06c-7.47-.75-12.72,6.59-11.45,13.69,1.13,6.33,6.6,9.85,12.64,10.42,2.03.19.53-3.49-1.3-3.5-11.65-.08-9.7-17.82,1.32-17.34,2.08.09.28-3.12-1.21-3.26h0Z"/><path class="cls-9" d="M340.59,122.35c5.56-.57,10.23,4.73,7.54,10.17-2.23,4.49-6.9,4.96-11.06,3.14-2.22-.97-2.55,2.73-.82,3.66,6.64,3.55,14.73-.25,15.86-7.76.99-6.63-5.16-15.92-12.59-12.17-1.45.74-.38,3.1,1.07,2.96h0Z"/><path class="cls-9" d="M308.84,29.09c-26.34-12.58-55.21-12.88-79.8,4.01-25.72,17.67-30.24,44.49-27.54,73.87.23,2.47,4.08,1.21,3.88-.9-2.38-25.03-.3-50.25,21.05-67.08,23.77-18.73,53.5-19.77,80.38-7.46,1.46.67,3.63-1.69,2.03-2.45h0Z"/><path class="cls-9" d="M239.92,102.16c1.71-.82,3.25-1.39,5.19-1.21,2.15.19,3.19,1.24,4.84,2.39,1.48,1.02,2.53-1.37,2.15-2.52-1.54-4.71-10.46-4.74-13.16-1.26-.58.75-.61,3.35.98,2.59h0Z"/><path class="cls-9" d="M285.97,106.14c1.71-.82,3.25-1.39,5.19-1.21,2.15.19,3.19,1.24,4.84,2.39,1.48,1.02,2.53-1.37,2.15-2.52-1.54-4.71-10.46-4.74-13.16-1.26-.58.75-.61,3.35.98,2.59h0Z"/><path class="cls-9" d="M272.18,124.99c.02-3.24-2.4-6.06-5.63-6.52-2.96-.42-6.74,2.05-6.28,5.36.15,1.05,1.6,2.84,2.78,1.88,1.4-1.15,1.46-3.19,3.66-3.45,1.57-.18,2.37.96,2.72,2.36.33,1.29,2.74,2.35,2.75.38h0Z"/><path class="cls-9" d="M256.75,173.33c-12.83-3.12-25.3-8.65-33.86-19.1-11.3-13.78-11.37-32.94-11.02-49.91.05-2.25-3.42-2.78-3.47-.33-.34,16.67-.21,35.41,9.76,49.61,8.92,12.69,23,19.62,37.72,23.21,2.33.57,3-2.96.87-3.48h0Z"/><path class="cls-9" d="M338.99,112.12c-2.36,20.08-8.27,39.15-25.34,51.46-16.81,12.13-37.53,13.38-57.34,9.65-2.29-.43-2.09,3.29,0,3.68,21.5,4.05,44.11,2.17,61.78-11.8,16.45-13.02,22.01-32.59,24.37-52.66.26-2.24-3.19-2.74-3.47-.33h0Z"/><path class="cls-9" d="M247.3,118.66c.53-4.95-5.56-7.03-7.83-3.22-1.59,2.67-.01,7.58,3.31,7.99,2.68.33,4.25-2.34,4.52-4.77Z"/><path class="cls-9" d="M295.52,124.22c.53-4.95-5.56-7.03-7.83-3.22-1.59,2.67-.01,7.58,3.31,7.99,2.68.33,4.25-2.34,4.52-4.77Z"/><path class="cls-9" d="M221.66,90.42c8.47-12.37,22.2-15.99,35.57-20.65,1.93-.67.72-3.6-1.12-3.25-13.77,2.63-28.76,9.77-36.66,21.72-.92,1.39,1.18,3.68,2.21,2.18h0Z"/><path class="cls-9" d="M255.41,67.16c-4.16,5.08-8.32,9.95-13.05,14.51-1.33,1.28.59,2.94,1.88,2.97,20.28.56,43.29-.59,61.4-10.73,1.7-.95-.23-3.34-1.75-2.79-19.96,7.28-38.96,10.52-60.26,10.02.63.99,1.25,1.98,1.88,2.97,4.82-4.69,8.95-9.68,12.65-15.29.88-1.34-1.78-2.84-2.74-1.67h0Z"/><path class="cls-9" d="M303.33,73.39c7.65,14.65,21.34,28.75,36.84,34.97,1.99.8,2.63-2.68.94-3.51-14.91-7.36-26.28-19.84-35.55-33.38-1.08-1.57-2.94.56-2.23,1.93h0Z"/><path class="cls-5" d="M239.34,81.31c-1.92,1.56-7.6,6.79-9.71,7.87-2.37-5.96-3.85-13.01-5.75-17.74,3.19-2.58,3.37-3.04,5.16-4.58,3.34,2.46,8.04,10.83,10.3,14.46Z"/><path class="cls-9" d="M238.11,79.82c-3.04,2.53-5.9,5.57-9.25,7.69.8.26,1.59.53,2.39.79-2.41-5.72-3.73-11.83-6.01-17.6-.13.63-.26,1.27-.39,1.9,1.78-1.47,3.45-3.05,5.2-4.53l-2.21-.11c4.19,3.99,6.89,9.34,9.73,14.3,1.46,2.55,4.86.02,3.28-2.35-3.22-4.81-6.06-11.06-10.91-14.45-.58-.41-1.4-.31-1.91.17-1.7,1.57-3.33,3.16-5.12,4.64-.56.46-.62,1.27-.39,1.9,2.16,5.82,3.47,12,5.5,17.88.32.94,1.59,1.22,2.39.79,3.8-2.05,6.88-5.32,10.17-8.06,1.92-1.59-.47-4.62-2.47-2.96Z"/><path class="cls-9" d="M219.3,87.84c-2.13,2.42-2.75,5.67-4.58,8.29-1.9,2.72-4.64,4.37-6.88,6.72-1.18,1.23,1.31,3.02,2.48,2.52,2.86-1.21,5.47-3.75,7.26-6.26,2.03-2.86,2.41-6.27,4.16-9.22.74-1.25-1.41-3.21-2.43-2.04h0Z"/><path class="cls-9" d="M313.17,51.94c3.1,2.67,6.42,4.86,9.18,7.95,2.94,3.29,5.03,7.09,7.48,10.73.92,1.37,3.83.7,3.19-1.17-2.68-7.8-10.07-17.35-18.22-19.91-1.25-.39-2.8,1.39-1.63,2.39h0Z"/><path class="cls-9" d="M314.74,44.17c5.3.45,9.9,4.3,13.45,7.99,1.2,1.25,3.46-.16,2.39-1.73-3.28-4.84-10.37-10.16-16.51-9.2-1.98.31-.84,2.82.67,2.95h0Z"/><path class="cls-9" d="M250.68,138.26c-1.24,9.73,3.48,16.8,13.29,18.45,10.36,1.74,17.56-4.46,18.85-14.63.24-1.89-3.25-3.2-3.51-.94-.91,7.79-5.88,13.35-14.12,12.61-8.47-.76-12.25-6.28-11.08-14.57.26-1.84-3.14-3.11-3.42-.92h0Z"/><path class="cls-9" d="M266.79,135.62c-3.47-.28-6.98-.77-10.47-.73-2.33.03-4.71.55-5.56,2.98-.62,1.76,2.57,3.64,3.26,1.7.69-1.94,3.66-1.34,5.28-1.24,2.74.16,5.46.43,8.2.66,2.38.2,1.21-3.22-.71-3.37h0Z"/><path class="cls-9" d="M282.86,142.1c-.02-2.53-1.43-4.66-4-5.2-3.85-.81-8.14-.98-12.07-1.28-2.39-.18-1.2,3.21.71,3.37,1.34.11,11.75.56,11.75,2.14,0,1.94,3.62,3.26,3.6.97h0Z"/><path class="cls-9" d="M253.07,173.91c-1.17,19.27,35.13,19.87,35.44,1.64.03-1.63-2.2-1.61-2.79-.37-3.21,6.81-7.14,10.04-15.08,10.27-7.59.22-13.5-4.33-14.95-11.82-.26-1.36-2.55-1.03-2.63.28h0Z"/><path class="cls-9" d="M361.48,220.25c4.49.74,10.01,1.49,14.51.56,1.87-.39.49-2.46-.72-2.69-4.45-.85-9.6-.96-14.11-.68-2.14.13-1.4,2.54.32,2.82h0Z"/><path class="cls-9" d="M368.47,247.83c-8.97-3.23-29.97-1.59-24.85,12.74.6,1.67,2.86,1.48,2.56-.47-1.71-11.07,15.16-10.73,22.07-8.3,2.29.81,2.09-3.3.22-3.97h0Z"/><path class="cls-9" d="M378.28,213.33c-3.81,2.66-4.89,9.08-5.39,13.35-.92,7.71-2.41,14.67-5.93,21.7-.89,1.78,1.74,5.01,2.8,2.85,2.71-5.52,5.05-11.64,5.83-17.76.76-5.99.26-13.12,4.33-18.08.74-.91-.54-2.83-1.63-2.06h0Z"/><path class="cls-9" d="M342.58,259.19c-3.38,2.9-3.06,10.59,1.74,12.07,1.09.34,3.17-.6,2.34-1.97-.87-1.44-1.96-2.41-2.39-4.13-.4-1.62-.18-3.36.76-4.77,1.08-1.61-1.47-2.05-2.45-1.21h0Z"/><path class="cls-9" d="M343.24,261.43c2.19.85,4.74-.39,6.66-1.43,2.24-1.22,4.45-2.76,5.99-4.82.85-1.14.29-3.34-1.33-2.12-1.59,1.2-3.12,2.48-4.86,3.47s-3.65,1.48-5.63,2.05c-.87.25-2.18,2.34-.84,2.86h0Z"/><path class="cls-9" d="M344.07,269.09c-1.58,2.25-1.19,5.04.48,7.16,1.6,2.03,4.81,4.05,7.45,2.94,1.27-.54,1.36-2.28.07-2.91-1.39-.67-3.01-.8-4.18-1.91s-1.37-2.46-1.25-3.96c.1-1.2-1.67-2.61-2.57-1.32h0Z"/><path class="cls-9" d="M349.73,277.75c.02,4.22,5.04,7.83,9.05,6.56,1.58-.5.97-2.99-.4-3.32-2.03-.49-4.96-.8-5.25-3.38-.27-2.38-3.4-2.33-3.39.14h0Z"/><path class="cls-9" d="M357.1,283.38c8.93,11.32,22.24-6.68,24.61-14.94.33-1.15-1.5-3.57-2.5-2.1-3.53,5.22-11.87,22.59-20.25,15.26-1.43-1.25-3.08.25-1.87,1.78h0Z"/><path class="cls-9" d="M401.98,199.2c7.58,25.6-9.17,47.43-23,67.25-1.19,1.7,1.55,3.71,2.82,2.16,15.61-19.2,31.83-43.96,24.2-69.6-.64-2.15-4.73-2.24-4.01.18h0Z"/><path class="cls-9" d="M370.45,181.51c11.4,2.92,26.66,6.01,31.68,18.16.89,2.15,4.73,1.33,3.72-1.11-5.42-13.09-22.17-18.35-35.06-20.01-2.22-.29-2.32,2.45-.33,2.96h0Z"/><path class="cls-9" d="M236.06,300.27c38.83,8.96,80.23,2.72,115.89-14.86,2.45-1.21.56-4.5-1.87-3.29-34.68,17.18-74.99,23.17-112.76,14.52-2.27-.52-3.8,3.06-1.26,3.64h0Z"/><path class="cls-9" d="M223.46,212.09c.64,28.71,3.89,59.13,11.28,86.91.63,2.35,4.5,1.11,3.9-1.11-7.4-27.62-10.17-57.46-11.93-85.93-.13-2.04-3.29-1.77-3.25.13h0Z"/><path class="cls-9" d="M141.18,217.45c.17-6.93-.7-14.82-6.37-19.59-4.59-3.86-10.59-3.68-16.09-2.15-3.94,1.1-9.87,3.82-7.61,8.82,2.73,6.06,10.27,4.43,15.22,2.74,2.39-.81-.48-4.14-2.46-3.41-2.12.78-12.3,2.38-7.85-2.29,2.02-2.12,6.51-2.86,9.25-3.11,10.25-.94,12.32,10.09,12.34,18.14,0,1.57,3.53,2.68,3.58.85h0Z"/><path class="cls-9" d="M113.26,199.96c-.73-.77-2.93-3.25-2.07-4.45.61-.84,2.21-.36,2.91-.03,1.5.69,2.8,1.92,3.97,3.05,2.16,2.09,5.32-1.08,3.05-3.17-3.28-3.01-9.04-6.77-12.91-2.35-2.81,3.21-.15,7.34,2.55,9.54,1.47,1.19,3.83-1.17,2.49-2.59h0Z"/><path class="cls-9" d="M108.85,196.38c-4.34.62-10.16,2.6-8.71,8.11.97,3.69,4.29,6.94,7.04,9.43,3,2.7,7.16,5.23,11.21,5.77,4.97.65,8.26-3.35,6.99-8.17-.52-1.95-3.38-1.69-3.9.05-.33,1.1-.22,2.96-1.37,3.61-.93.53-2.5-.07-3.38-.38-2.49-.89-4.86-2.46-6.83-4.2-1.84-1.62-3.93-3.54-5.09-5.73-1.94-3.64,2.57-4.58,5.36-5.16,2.41-.5.76-3.62-1.3-3.32h0Z"/><path class="cls-9" d="M101.12,206.03c-9.99,4.21-.14,13.86,4.64,17.56,3.09,2.39,7.05,5.11,10.95,2.69,4.03-2.51,3.24-8.06.27-11.03-1.42-1.42-4.44.05-3.36,2.09.9,1.69,2.51,6.33-1.21,5.22-1.86-.55-3.89-2.57-5.39-3.78-1.67-1.35-3.43-2.84-4.69-4.59-1.62-2.26-1.29-3.56.77-5.34,1.63-1.41-.15-3.59-1.98-2.81h0Z"/><path class="cls-9" d="M100.06,215.95c-3.57,1.29-5.32,4.73-3.82,8.29,1.38,3.28,4.52,5.79,7.35,7.8,2.94,2.09,7.07,3.5,10.4,1.42,3.22-2.01,3.61-6.04,2.22-9.27-.7-1.63-3.96-1.33-3.8.66.13,1.67.45,4.06-1.39,4.95-2.01.97-4.38-.87-5.89-2.02-1.5-1.14-3.08-2.42-4.12-4.01-1.48-2.27-.19-3.53,1.43-5.28,1.37-1.47-1.06-3.02-2.39-2.54h0Z"/><path class="cls-9" d="M173.95,227.69c4.46-3.96,9.29-7.38,14.41-10.45,1.93-1.16-.4-4.97-2.33-3.8-5.37,3.25-10.36,6.92-15.04,11.11-1.56,1.4,1.19,4.72,2.97,3.14h0Z"/><path class="cls-9" d="M139.25,218.3c10.92,3.54,21.99,6.59,33.02,9.78,2.65.76,2.49-3.3.39-3.9-11.1-3.15-22.2-6.38-33.47-8.9-1.75-.39-1.21,2.61.06,3.02h0Z"/><path class="cls-9" d="M212.29,252.02c4.95-1.77,9.79-3.83,14.71-5.68,2.47-.93.53-4.69-1.61-3.88-4.92,1.86-9.76,3.92-14.7,5.7-2.47.89-.55,4.63,1.6,3.86h0Z"/><path class="cls-9" d="M181.62,205.77c5.96,17.11,18.71,30.17,28.28,45.23,1.4,2.2,4.69.57,3.17-1.82-9.4-14.74-21.92-27.5-27.83-44.24-.8-2.26-4.54-1.79-3.63.83h0Z"/><path class="cls-9" d="M245.08,170.61c-24.93,3.43-42.28,20.28-62.87,33.03-2.07,1.28.54,4.63,2.45,3.44,20.22-12.67,37.23-29.46,61.77-33.21,2.18-.33.52-3.51-1.35-3.26h0Z"/><path class="cls-9" d="M243.85,353.31c-15.49,25.48-26.66,52.68-39.56,79.45-1.14,2.37,1.64,4.95,3,2.26,13.4-26.48,24.47-53.79,39.6-79.42,1.38-2.34-1.46-4.87-3.03-2.28h0Z"/><path class="cls-9" d="M263.47,396.02c-6.11,9.72-11.28,20.23-19.08,28.76-7.19,7.86-15.9,13.79-21.63,22.95-1.18,1.89,3.46,2.76,4.55,1,6.54-10.55,17.4-17.18,24.9-26.96,5.94-7.75,10.37-16.55,15.52-24.81,1.11-1.78-3.23-2.56-4.25-.93h0Z"/><path class="cls-9" d="M282.19,376.66c-6.63,5.84-12.3,12.71-18.48,19.01-1.67,1.7,2.47,3.01,3.78,1.64,6.05-6.35,11.58-13.27,18.09-19.18,1.58-1.44-2.15-2.55-3.39-1.47h0Z"/><path class="cls-9" d="M177.43,454.45c8.8,4.97,21.24,16.89,32.29,15.51,9.88-1.24,15.04-12.61,17.15-21.03.56-2.26-3.27-3.92-4.09-1.51-2.9,8.55-7.98,21.17-19.43,17.41-8.35-2.75-16.13-9.35-23.81-13.59-2.53-1.4-4.67,1.77-2.11,3.22h0Z"/><path class="cls-9" d="M173.89,424.88c-5.94-1.52-12.87-4.33-18.86-1.6-4.4,2-6.74,6.92-4.93,11.5,3.95,10.02,18.63,14.99,27.33,19.67,2.56,1.38,4.73-1.88,2.12-3.24-6.9-3.59-14.11-6.79-20.26-11.64-3.4-2.68-8.03-7.3-3.4-11.39,4.41-3.9,12.24-.53,16.95.69,3.05.79,3.9-3.26,1.05-3.99h0Z"/><path class="cls-9" d="M198.25,425.53c-8.57,1.25-15.93,1.44-24.37-.64-3.04-.75-3.89,3.25-1.05,3.97,8.97,2.27,17.99,3.01,26.91-.01,2.09-.71.21-3.56-1.49-3.32h0Z"/><path class="cls-9" d="M338.79,228.54c.87,8.55,2.85,17.36,4.95,25.68.51,2.01,3.44,1.6,3.32-.51-.5-8.68-3.61-17.13-5.31-25.62-.36-1.8-3.16-1.42-2.96.45h0Z"/><path class="cls-9" d="M243.1,352.2c6.29-10.86,11.61-22.43,18.81-32.74,1.14-1.63-.8-4.71-2.4-2.71-7.79,9.74-12.91,21.63-19.13,32.38-1.12,1.94,1.28,5.55,2.71,3.07h0Z"/><path class="cls-9" d="M297.58,383.51c-17.95-12.31-37.28-22.38-55.09-34.89-2.18-1.53-3.3,2.82-1.49,4.09,17.81,12.52,37.13,22.61,55.1,34.87,2.2,1.5,3.3-2.83,1.48-4.07h0Z"/><path class="cls-9" d="M340.46,331.05c-12.04,19.87-28.5,36.07-44.64,52.57-1.54,1.57.21,5.74,2.05,3.84,16.33-16.82,33.02-33.29,45.1-53.56,1.06-1.78-1.13-5.13-2.52-2.85h0Z"/><path class="cls-9" d="M349.63,284.37c5.99,16.96-.64,31.99-9.17,46.68-1.05,1.81,1.2,5.15,2.52,2.85,9.17-16.04,16-32.48,9.42-50.76-.85-2.36-3.51-.89-2.77,1.22h0Z"/><path class="cls-9" d="M238.73,301.97c1.86,11.62,5.37,22.99,10.14,33.75,1.35,3.04,4.34-.25,3.26-2.66-4.59-10.3-8.22-21.19-10.4-32.27-.53-2.7-3.36-1.1-3,1.19h0Z"/><path class="cls-9" d="M309.74,374.72c26.64-4.49,53.41-8.73,80.25-11.86,2.03-.24,1.2-3.15-.65-3.05-26.87,1.36-53.92,6.63-80.43,10.99-2.54.42-1.59,4.33.84,3.93h0Z"/><path class="cls-9" d="M373.69,338.41c7.35,1.16,14.56,2.13,22.02,1.77,2.1-.1,2.47-2.89.18-3.05-7.13-.51-14.23-1.46-21.29-2.57-2.9-.45-4.18,3.34-.91,3.85h0Z"/><path class="cls-9" d="M340.5,337.08c11.11-2.46,22.13-.43,33.18,1.34,2.91.46,4.2-3.35.91-3.87-11.48-1.81-23.68-4.25-35.01-.5-2.19.72-1.27,3.52.92,3.03h0Z"/><path class="cls-9" d="M162.32,253.13c16.95,4.66,30.71.7,45.06-8.95,2.16-1.45-1.09-3.38-2.75-2.38-13.38,8.04-25.16,12.48-40.89,8.15-2.48-.68-4.29,2.39-1.43,3.18h0Z"/><path class="cls-9" d="M125.27,236.2c11.85,6.79,23.97,12.89,37.06,16.94,2.47.76,4.26-2.3,1.43-3.18-12.72-3.94-24.51-9.93-36.08-16.44-1.98-1.11-4.9,1.25-2.41,2.68h0Z"/><path class="cls-9" d="M109.91,235.02c5.58,2.91,11.6,2.86,17.58,1.36,2.77-.69.17-3.63-2.03-3.03-4.53,1.24-9.12,1.4-13.44-.68-1.76-.84-4.36,1.17-2.11,2.35h0Z"/><path class="cls-9" d="M358.49,224.86c-9.81.84-19.7,1.9-29.55,2.07-2.31.04-1.18,3.23.66,3.23,10.16-.01,20.37-1.05,30.49-1.86,2.27-.18.32-3.6-1.6-3.43h0Z"/><path class="cls-9" d="M366.46,174.98c-.7,16.9-3.6,34.58-8.89,50.65-.61,1.86,2.75,3.92,3.44,1.87,5.49-16.3,8.52-34.27,9.24-51.42.09-2.02-3.69-3.54-3.79-1.11h0Z"/><path class="cls-9" d="M324.26,170.78c14.94,1.48,29.65,4.31,44.47,6.58,2.55.39,1.26-3.34-.75-3.65-14.82-2.29-29.53-5.17-44.47-6.6-2.6-.25-1.31,3.47.75,3.67h0Z"/><path class="cls-9" d="M308.99,171.16c5.11-.6,10.14-.7,15.27-.38,2.61.16,1.33-3.55-.75-3.67-5.39-.32-10.76-.34-16.07.72-2.29.46-.23,3.54,1.55,3.33h0Z"/><path class="cls-9" d="M124.88,204.35c-5.92,3.59-2.39,14.48,3.22,16.64,2.6,1,2.58-2.82.72-3.8-3.13-1.65-3.97-7.05-1.93-9.79.88-1.18-.37-4.05-2.01-3.06h0Z"/><path class="cls-9" d="M419.9,177.98c14.35,7.48,12.51,29.9,6.63,41.99-.88,1.8,1.8,4.29,3.22,2.48,10.06-12.83,8.11-40.37-8.27-47.89-2.38-1.09-3.76,2.28-1.58,3.42h0Z"/><path class="cls-9" d="M441.97,187.28c5.58,6.12,6.36,15.16,3.26,22.58-.99,2.37,2.45,3.25,3.71,1.5,5.58-7.71,3.15-21.05-4.37-26.66-1.41-1.05-3.92,1.13-2.6,2.57h0Z"/><path class="cls-9" d="M48.05,214.95c-.93,19.68,14.49,48.14,35.3,51.66,1.65.28,2.97-3.36,1.23-3.85-18.49-5.19-33.77-30.02-33.28-48.7.07-2.74-3.15-1.18-3.25.89h0Z"/><path class="cls-9" d="M68.69,220.38c.12,12.11,11.51,30.17,24.17,32.14,2.45.38,2.39-3.07.39-3.74-10.03-3.34-19.85-17.75-20.47-28.12-.14-2.35-4.11-2.92-4.09-.29h0Z"/><path class="cls-9" d="M220.6,402.33c6.41,10.26,19.27,16.22,30.97,17.61,2.16.26,2.62-3.13.63-3.71-10.79-3.12-22.06-7.24-29.28-16.29-1.35-1.69-3.25.92-2.32,2.4h0Z"/><path class="cls-9" d="M197.49,428.04c1.31,1.84,3.49,2.83,4.83,4.71s1.55,3.7,1.59,5.92c.03,2.1,3.32,2.18,3.69.2.93-5.08-2.98-12.17-8.41-13.02-1.07-.17-2.47,1.1-1.69,2.18h0Z"/><path class="cls-9" d="M175.16,427.75c.98,1.11,2.08,2.08,2.78,3.42.74,1.43,1.02,3.05,1.23,4.63.18,1.29,3.03,2.46,3.18.71.36-3.96-1.9-8.08-5.39-10.01-1.05-.58-3.06-.19-1.8,1.25h0Z"/><path class="cls-9" d="M180.9,429.99c1.21.81,2.39,1.71,3.24,2.91.92,1.29,1.04,2.64,1.34,4.14.23,1.13,2.66,2.41,3.16.86,1.37-4.26-3.48-8.22-6.79-9.81-1.51-.73-2.27,1.02-.95,1.91h0Z"/><path class="cls-9" d="M198.47,441.52c2.78.19,5.94.14,8.47-1.19,1.64-.86-.63-2.79-1.7-2.77-2.6.05-5.16.88-7.75,1.19-1.77.21-.17,2.69.98,2.77h0Z"/><path class="cls-9" d="M202.09,440.94c3.69,8.6,16.68,5.66,23.56,8.63,1.41.61,2.23-1.87,1.34-2.74-2.78-2.72-7.19-2.16-10.77-2.61-3.8-.48-10.25-1.59-12.16-5.26-.94-1.81-2.53.7-1.97,2h0Z"/><path class="cls-9" d="M364.04,336.01c2.79,8.93,4.89,16.99.74,25.94-.76,1.64,1.44,4.17,2.75,2.3,5.49-7.89,4.02-21.63-1.28-29.3-.87-1.25-2.67-.42-2.21,1.06h0Z"/><path class="cls-9" d="M395.57,339.83c1.75,3.84,3.54,7.17,3.64,11.5.08,3.83-1,7.46-1.62,11.2-.26,1.55,1.87,2.59,2.49.89,2.9-7.98,3.29-18.6-2.68-25.3-1.03-1.15-2.31.64-1.82,1.7h0Z"/><path class="cls-9" d="M387.27,366.8c2.12-2.33,4.31-5.18,7.02-6.83-.93-.07-1.86-.14-2.79-.21,2.33,2.07,4.24,5.02,5.48,7.86.68,1.56,4.6,1.31,3.84-.42-1.47-3.37-3.64-6.66-6.4-9.11-.68-.61-2.02-.67-2.79-.21-2.98,1.81-5.36,4.76-7.69,7.32-1.46,1.6,2.18,2.84,3.31,1.6h0Z"/><path class="cls-9" d="M396.85,390.95c-.58-4.84-1.22-9.32-3.45-13.72-1.94-3.82-3.94-7.61-5.86-11.45-.76-1.51-4.67-1.24-3.84.42,1.77,3.55,3.57,7.08,5.39,10.6,2.34,4.52,3.18,8.78,3.77,13.84.22,1.83,4.2,2.02,3.99.3h0Z"/><path class="cls-9" d="M416.88,381.92c1.38,6.96,2.32,17.99-1.75,24.23-3.74,5.74-10.79,3.01-13.88-1.74-2.65-4.09-3.85-9.04-4.47-13.82-.2-1.52-4.1-1.52-3.91.06,1.27,10.65,7.83,25.67,21.23,20.56,10.07-3.84,8.47-21.34,6.76-29.73-.35-1.71-4.39-1.57-3.99.44h0Z"/><path class="cls-9" d="M416.31,349.24c1.01,10.91-1.39,21.83.57,32.69.31,1.71,4.36,1.58,3.99-.44-1.98-10.58.39-21.31-.67-31.96-.18-1.78-4.05-1.99-3.89-.29h0Z"/><path class="cls-9" d="M394.74,338.53c.41-3.58,10.57-2.26,12.95-1.97,6.85.85,7.92,7.29,8.64,13.03.2,1.64,4.1,1.55,3.84-.42-1.08-8.17-3.92-14.61-12.9-15.21-4.26-.29-15.27-1.87-15.74,4.33-.11,1.46,3.05,1.7,3.21.24h0Z"/><path class="cls-9" d="M394.36,381.4c.73-1.93,3.7-3.35,5.28-4.55,1.19-.91.57-3.75-1.15-3.47-2.7.44-5.97,3.81-6.48,6.44-.25,1.27,1.62,3.47,2.34,1.58h0Z"/><path class="cls-9" d="M396.44,387.91c1.78-2.17,3.92-3.43,6.49-4.46,1.73-.69.6-3.54-1.06-3.47-3.5.15-6.42,2.48-8.05,5.48-.8,1.49,1.3,4.05,2.61,2.45h0Z"/><path class="cls-9" d="M256.68,233.76c17.74,15.71,38.43,26.68,60.69,34.58,1.95.69,2-2.14.44-2.76-21.47-8.58-41.67-18.97-59.53-33.82-1.66-1.38-3.19.58-1.6,1.99h0Z"/><path class="cls-9" d="M154.71,426.85c2.07,11.33,16.25,14.81,24.89,19.73,11.86,6.77,24.23,22.7,39.17,16.79,1.64-.65,1.05-3.03-.71-2.49-12.76,3.86-26.39-10.8-36.96-16.73-8.21-4.61-21.32-7.8-23.84-18.02-.38-1.55-2.83-.8-2.55.73h0Z"/><path class="cls-9" d="M167.88,426.49c3.97,3.56,4.31,8.92,2.69,13.71-.37,1.11.95,3.45,1.91,1.81,3.15-5.41,1.48-14.41-3.62-18.05-1.41-1-1.92,1.69-.98,2.53h0Z"/><path class="cls-9" d="M409.89,411.34c8.42-8.12,4.27-20.67,3.58-31.01-.99-14.78,6.81-35.72-7.18-45.83-1.3-.94-3.37.75-1.99,1.93,11.51,9.89,5.21,30.22,6.22,43.99.68,9.23,4.85,21.43-2.48,29.27-1.17,1.25.71,2.76,1.86,1.65h0Z"/><path class="cls-9" d="M398.05,397.38c2.68-5.36,8.64-7.12,14.12-8.04,1.69-.28,1.92-2.46.06-2.68-5.42-.64-16.62,3.81-17.14,10.12-.13,1.62,2.3,1.91,2.96.6h0Z"/></g></g></svg>